<?xml version="1.0" encoding="utf-8"?>
<!-- Generator: Adobe Illustrator 24.2.3, SVG Export Plug-In . SVG Version: 6.00 Build 0)  -->
<svg version="1.1" id="Capa_1" xmlns="http://www.w3.org/2000/svg" xmlns:xlink="http://www.w3.org/1999/xlink" x="0px" y="0px"
	 viewBox="0 0 512 512" style="enable-background:new 0 0 512 512;" xml:space="preserve">
<style type="text/css">
	.st0{fill:#FFFFFF;}
</style>
<g>
	<path class="st0" d="M488.7,421h-44.8V15c0-8.3-6.7-15-15-15H99c-0.1,0-6.8-0.4-11.6,5.4C78,16.7,21.1,85.2,11.8,96.5
		c-8.1,9.7-1.2,24.6,11.5,24.6h60.6L83.9,497c0,8.3,6.7,15,15,15h329.4c4,0,7.8-1.6,10.7-4.4l60.4-61C508.7,437.1,502,421,488.7,421
		L488.7,421z M55.3,91.1L84,56.5l0,34.6H55.3z M114,30h299.9v391H159c-4,0-7.9,1.6-10.7,4.5l-34.4,35L114,30z M422,482H134.8
		l30.5-31h287.5L422,482z"/>
	<path class="st0" d="M343.3,215.5l-12,12c-16.5-19.3-41-31.5-68.3-31.5c-49.7,0-90.1,40.4-90.1,90s40.4,90,90.1,90
		c63,0,106.5-63.3,84.2-122l17.4-17.4c5.9-5.9,5.9-15.4,0-21.2C358.7,209.6,349.2,209.6,343.3,215.5L343.3,215.5z M262.9,346.1
		c-33.1,0-60.1-26.9-60.1-60c0-56.6,71.8-81.8,107.1-37.2l-31.1,31.1l-19.4-19.4c-5.9-5.9-15.4-5.9-21.2,0c-5.9,5.9-5.9,15.4,0,21.2
		l30,30c5.9,5.9,15.4,5.9,21.2,0l33-33C327,314.9,298.5,346.1,262.9,346.1L262.9,346.1z"/>
	<path class="st0" d="M173,106.1h179.9c8.3,0,15-6.7,15-15s-6.7-15-15-15H173c-8.3,0-15,6.7-15,15S164.7,106.1,173,106.1L173,106.1z
		"/>
	<path class="st0" d="M173,166.1h179.9c8.3,0,15-6.7,15-15s-6.7-15-15-15H173c-8.3,0-15,6.7-15,15S164.7,166.1,173,166.1L173,166.1z
		"/>
</g>
</svg>
