<?xml version="1.0" encoding="utf-8"?>
<!-- Generator: Adobe Illustrator 24.2.3, SVG Export Plug-In . SVG Version: 6.00 Build 0)  -->
<svg version="1.1" id="圖層_1" xmlns="http://www.w3.org/2000/svg" xmlns:xlink="http://www.w3.org/1999/xlink" x="0px" y="0px"
	 viewBox="0 0 512 512" style="enable-background:new 0 0 512 512;" xml:space="preserve">
<style type="text/css">
	.st0{fill:#FFFFFF;}
</style>
<path class="st0" d="M302.4,276.5c11,0,20-8.9,20-20c0-11-8.9-20-20-20h-26.9v-79.1c22.4-0.6,44.2-2.3,65-4.9
	c5.2,19.7,9,41.2,11,63.9c1,11,10.7,19.1,21.7,18.1c11-1,19.1-10.7,18.1-21.7c-2.1-23.3-5.9-45.7-11.2-66.8
	c19-3.8,36.6-8.6,52.2-14.1c25,35.2,39.7,78.2,39.7,124.6c0,9.2-0.6,18.4-1.7,27.4c-1.4,10.9,6.4,20.9,17.3,22.3
	c0.9,0.1,1.7,0.2,2.5,0.2c9.9,0,18.5-7.4,19.8-17.5c1.4-10.7,2-21.6,2-32.5c0-68.2-26.6-132.4-74.8-180.7
	C388.9,27.6,324.7,1,256.5,1c-0.1,0-0.2,0-0.3,0c-0.2,0-0.5,0-0.7,0C187.3,1,123.1,27.6,74.8,75.8C26.6,124.1,0,188.3,0,256.5
	s26.6,132.4,74.8,180.7c48.3,48.3,112.4,74.8,180.7,74.8c0.2,0,0.5,0,0.7,0c0.1,0,0.2,0,0.3,0c14.9,0,29.8-1.3,44.4-3.8
	c10.9-1.9,18.1-12.2,16.2-23.1c-0.1-0.8-0.3-1.5-0.6-2.3c1.8-6,0.8-12.7-3.4-18c-6.8-8.7-19.3-10.2-28-3.4c-3.2,2.5-6.4,4.6-9.7,6.2
	v-73c6.3,0.2,12.6,0.4,18.8,0.8c11,0.6,20.4-7.8,21.1-18.8c0.6-11-7.8-20.4-18.8-21.1c-7-0.4-14-0.7-21.1-0.9v-78.1L302.4,276.5
	L302.4,276.5z M190.1,414.1c-2.5-5.1-5-10.4-7.2-15.9c16.9-1.9,34.6-3.2,52.7-3.7V467C219.1,458.7,203.2,440.4,190.1,414.1z
	 M154.4,432c3.7,7.4,7.6,14.2,11.6,20.6c-21.8-10-41.6-23.5-58.8-39.8c10.9-3.2,22.7-6,35.2-8.5C146,414,150,423.3,154.4,432z
	 M78.9,380c-21-29.9-34.5-65.3-38.1-103.6h77.3c1.3,31.4,5.5,61.7,12.4,89.6C111.8,369.9,94.4,374.5,78.9,380z M79.5,132.2
	c15.4,5.4,32.7,10,51.4,13.8c-7.1,28.2-11.4,58.8-12.7,90.6H40.9C44.4,197.9,58.2,162.2,79.5,132.2z M235.5,117.5
	c-17.9-0.5-35.5-1.8-52.3-3.7c2.1-5.2,4.4-10.1,6.8-14.9c13.1-26.3,29-44.5,45.5-52.9V117.5z M154.4,81c-4.2,8.4-8.1,17.3-11.6,26.7
	c-12.3-2.4-23.9-5.1-34.7-8.3c17-16,36.5-29.2,58-39C161.9,66.8,158.1,73.7,154.4,81z M170.4,152.4c20.9,2.7,42.8,4.3,65.2,5v79.1
	h-77.4C159.4,206.8,163.6,178.3,170.4,152.4z M275.5,117.5V45.9c19.9,10,38.3,34.4,52.1,67.9C310.9,115.7,293.4,116.9,275.5,117.5z
	 M348.6,66.3c-1.3-2.3-2.7-4.4-4.1-6.6c21.9,9.8,41.9,23.2,59.2,39.5c-11,3.2-22.9,6.1-35.5,8.5C362.5,92.6,356,78.7,348.6,66.3z
	 M235.5,354.6c-22.5,0.6-44.5,2.3-65.4,5c-6.6-25.6-10.7-53.7-12-83.1h77.4V354.6z M501.9,369.7l-107.4-86
	c-5.4-4.3-11.6-6.3-17.7-6.3c-14.6,0-28.4,11.4-28.4,28V448c0,16.2,13.4,27.1,27.5,27.1c6.4,0,13-2.3,18.5-7.3l25.3-23.3l27.5,56.4
	c3.5,7.1,10.6,11.2,17.9,11.2c2.9,0,5.9-0.7,8.7-2c9.9-4.8,14-16.8,9.2-26.7l-27.4-56.2l7-3.3l28.5-6.8
	C513.1,411.7,519.4,383.8,501.9,369.7z M453.3,385c-2.7,0.6-5.3,1.5-7.7,2.7l-42.1,19.9c-3.7,1.7-7,4-10,6.7l-5.2,4.8v-89.2
	l67.9,54.4L453.3,385z"/>
</svg>
