<?xml version="1.0" encoding="utf-8"?>
<!-- Generator: Adobe Illustrator 24.2.3, SVG Export Plug-In . SVG Version: 6.00 Build 0)  -->
<svg version="1.1" id="Capa_1" xmlns="http://www.w3.org/2000/svg" xmlns:xlink="http://www.w3.org/1999/xlink" x="0px" y="0px"
	 viewBox="0 0 512 512" style="enable-background:new 0 0 512 512;" xml:space="preserve">
<style type="text/css">
	.st0{fill:#FFFFFF;}
</style>
<g>
	<path class="st0" d="M366.2,247.6h-18.3c15.3-19.7,24.5-44.5,24.5-71.3l0.1-77.6l20-79.1L256,0L119.6,19.5l20,79.1v77.6
		c0,26.9,9.1,51.6,24.5,71.3h-18.2c-41.4,0-75.1,33.7-75.1,75.1V512h370.6V322.7C441.3,281.3,407.6,247.6,366.2,247.6z M197.9,277.6
		h0.8c11.5,6.5,24.2,11.1,37.7,13.4l-38.6,20.3V277.6z M313.1,277.6h0.9v33.7L275.5,291C288.9,288.7,301.6,284.1,313.1,277.6
		L313.1,277.6z M169.6,98.2h172.8v8.9l-28.7,14.3H198.2l-28.7-14.3L169.6,98.2z M256,30.4l99.1,14.2l-6,23.6H162.8l-6-23.6L256,30.4
		z M191.2,151.4h129.7l21.5-10.7v35.5c0,47.6-38.7,86.4-86.4,86.4c-47.6,0-86.4-38.7-86.4-86.4v-35.6L191.2,151.4z M100.8,322.7
		c0-24.9,20.2-45.1,45.1-45.1h22.1V361l73.1-38.4V482H100.8L100.8,322.7z M411.2,482H271V322.6l73.1,38.4v-83.4h22.1
		c24.9,0,45.1,20.2,45.1,45.1V482z"/>
	<path class="st0" d="M256,232.5c31,0,56.3-25.3,56.3-56.3h-30c0,14.5-11.8,26.3-26.3,26.3s-26.3-11.8-26.3-26.3h-30
		C199.7,207.3,224.9,232.5,256,232.5L256,232.5z"/>
	<path class="st0" d="M130.8,382.3h80.1v30h-80.1V382.3z"/>
</g>
</svg>
