<?xml version="1.0" encoding="utf-8"?>
<!-- Generator: Adobe Illustrator 24.2.3, SVG Export Plug-In . SVG Version: 6.00 Build 0)  -->
<svg version="1.1" id="圖層_1" xmlns="http://www.w3.org/2000/svg" xmlns:xlink="http://www.w3.org/1999/xlink" x="0px" y="0px"
	 viewBox="0 0 78.2 35" style="enable-background:new 0 0 78.2 35;" xml:space="preserve">
<style type="text/css">
	.st0{fill:none;}
	.st1{fill:url(#SVGID_1_);}
	.st2{fill:#FFFFFF;}
</style>
<desc>Created with Sketch.</desc>
<g>
	<rect x="-1.3" y="-5.1" class="st0" width="80.8" height="45.3"/>
	<g>
		
			<linearGradient id="SVGID_1_" gradientUnits="userSpaceOnUse" x1="8.1041" y1="5.6384" x2="34.7863" y2="32.3205" gradientTransform="matrix(1 0 0 -1 0 36)">
			<stop  offset="0" style="stop-color:#EC8F26"/>
			<stop  offset="0.6" style="stop-color:#E34D26"/>
			<stop  offset="1" style="stop-color:#DD2526"/>
		</linearGradient>
		<path class="st1" d="M7.5,15.5c3.8-6.3,8.2-7.4,8.2-7.4S8.9,12.7,8.1,20c-0.9,7.3,5,11,12.5,9.3C31.1,26.8,35.9,18,35.9,18
			s-1.9,7.4-9.1,12.6c-7.5,5.4-15.6,2.6-18.6-0.3C5.1,27.6,3.7,21.8,7.5,15.5 M32.9,17c-8.6,8.2-20.2,8.5-20.2,8.5l6.7-18.1l8.3,7.7
			c0.8-0.6,1.5-1.1,2.2-1.8c2.7-2.6,5.4-7.8-1.1-9.6c-7.3-2.2-14.9,1.5-14.9,1.5c2.5-2.4,8-3.9,12.9-3.9c2.1,0,4.1,0.3,5.7,0.9
			C35.7,3.6,41.8,8.6,32.9,17z M24.4,17.3l-3.8-3.6l-2.1,5.8C21.3,18.7,23,18,24.4,17.3z"/>
		<path class="st2" d="M49.2,8.3h-1.3L35,28.2h2.5l4.1-6.2H49l1.8,6.2h4.1L49.2,8.3z M48.4,19.9h-5.6l3.9-6L48.4,19.9z M62.9,10.7
			l-1,5.8h6.6l-0.4,2h-6.6l-1.3,7.5H70l-0.4,2H55.9l3.4-19.5H73l-0.4,2h-9.7V10.7z"/>
	</g>
</g>
</svg>
