<svg id="ELEMENTS" xmlns="http://www.w3.org/2000/svg" xmlns:xlink="http://www.w3.org/1999/xlink" viewBox="0 0 29.24 29.24"><defs><style>.cls-1{fill:url(#未命名漸層_4);}.cls-2{fill:#fff;}</style><linearGradient id="未命名漸層_4" x1="24.96" y1="4.28" x2="4.28" y2="24.96" gradientUnits="userSpaceOnUse"><stop offset="0" stop-color="#82c1de"/><stop offset="0.22" stop-color="#7abadc"/><stop offset="0.56" stop-color="#65a7d5"/><stop offset="0.98" stop-color="#4288ca"/><stop offset="1" stop-color="#4086c9"/></linearGradient></defs><circle class="cls-1" cx="14.62" cy="14.62" r="14.62"/><path class="cls-2" d="M21.57,7.91a1,1,0,0,0-1-.62,2.11,2.11,0,0,0-.68.13c-.1,0-10.09,4.05-14.19,5.81a1.16,1.16,0,0,0-.69.64.83.83,0,0,0,.41,1,38.51,38.51,0,0,0,3.79,1.33c.22.76,1,3.42,1.34,4.56a.73.73,0,0,0,.74.47h.08a.39.39,0,0,0,.25-.14.36.36,0,0,0,.09-.23l.22-3.21,1.62,1.28c1.28,1,2.8,2.18,3.65,2.82a1.45,1.45,0,0,0,.86.35,1.21,1.21,0,0,0,1.09-1c.7-2.87,1.74-8.3,2.35-11.54l.14-.71A1.48,1.48,0,0,0,21.57,7.91Zm-10.35,9L11,19.71c-.46-1.55-1.14-3.93-1.15-4v0l7.81-5.33a4,4,0,0,1,.73-.43c.27-.06.34.05.29.12a13.41,13.41,0,0,1-1.08,1.08l-6.23,5.4h0A.37.37,0,0,0,11.22,16.86Z"/></svg>