<?xml version="1.0" encoding="utf-8"?>
<!-- Generator: Adobe Illustrator 25.4.1, SVG Export Plug-In . SVG Version: 6.00 Build 0)  -->
<svg version="1.1" id="圖層_1" xmlns="http://www.w3.org/2000/svg" xmlns:xlink="http://www.w3.org/1999/xlink" x="0px" y="0px"
	 viewBox="0 0 113.4 35.4" style="enable-background:new 0 0 113.4 35.4;" xml:space="preserve">
<style type="text/css">
	.st0{fill:#FFFFFF;}
</style>
<g>
	<g>
		<path class="st0" d="M28.8,10.6L28,5.4l-2.3,5.2h-0.6L24.2,4h1.5l0.4,4.7l2-4.5L29.1,4l0.6,4.7c0.5-1.2,1.6-3.6,2.1-4.7h0.6
			c-0.7,1.5-2.2,4.7-3.1,6.6H28.8z"/>
		<path class="st0" d="M32.1,10.6L32.9,6c0,0,1.7,0,2.7,0l-0.1,0.4c-0.5-0.1-1.1-0.1-1.8-0.1L33.4,8c0.4,0,1,0,1.4-0.1l-0.1,0.4
			c-0.4,0-1-0.1-1.4-0.1l-0.4,2c0.7,0,1.6,0,2.1-0.1L35,10.6H32.1z"/>
		<path class="st0" d="M36,10.6L36.8,6h0.9l-0.8,4.3c0.7,0,1.5,0,2-0.1l-0.1,0.4H36z"/>
		<path class="st0" d="M44,10.3c-0.3,0.2-1,0.3-1.5,0.3c-1.6,0-2.6-0.7-2.3-2.4c0.3-1.7,1.7-2.4,3-2.4c0.6,0,1.1,0.1,1.5,0.3
			l-0.2,0.5c-0.3-0.4-0.7-0.5-1.3-0.5c-0.9,0-1.8,0.5-2,1.9c-0.3,1.7,0.3,2.3,1.4,2.3c0.6,0,1.1-0.3,1.5-0.6L44,10.3z"/>
		<path class="st0" d="M45.2,8.3c0.3-1.5,1.3-2.4,2.8-2.4c1.6,0,2.2,1,2,2.4c-0.3,1.5-1.2,2.4-2.8,2.4C45.6,10.7,45,9.7,45.2,8.3z
			 M49.1,8.5c0.2-1.3-0.2-2.3-1.1-2.3c-0.9,0-1.6,0.6-1.9,2c-0.2,1.3,0.2,2.3,1.1,2.3C48.2,10.4,48.9,9.8,49.1,8.5z"/>
		<path class="st0" d="M54.5,10.6l0.7-3.8c-0.4,0.6-1.7,2.7-2.2,3.7h-0.4c-0.2-0.9-0.6-3-0.8-3.9c0,0-0.1,0.8-0.3,1.5l-0.1,0.5
			c-0.1,0.7-0.2,1.5-0.3,1.9h-0.5c0.1-0.4,0.3-1.2,0.4-1.9c0.1-0.4,0.1-0.8,0.2-1.2C51.4,6.7,51.6,6,51.6,6l0.9-0.1
			c0.2,0.8,0.6,3,0.7,3.7c0.4-0.7,1.7-2.8,2.1-3.6h0.9l-0.8,4.6H54.5z"/>
		<path class="st0" d="M56.7,10.6L57.5,6c0,0,1.7,0,2.7,0l-0.1,0.4c-0.5-0.1-1.1-0.1-1.8-0.1L58,8c0.4,0,1,0,1.4-0.1l-0.1,0.4
			c-0.4,0-1-0.1-1.4-0.1l-0.4,2c0.7,0,1.6,0,2.1-0.1l-0.1,0.4H56.7z"/>
		<path class="st0" d="M64.7,10.6l0.8-4.3c-0.5,0-1.1,0-1.4,0.1L64.2,6c0.4,0,1.1,0,1.8,0c0.6,0,1.2,0,1.8,0l-0.1,0.4
			c-0.3,0-0.8-0.1-1.3-0.1l-0.8,4.3H64.7z"/>
		<path class="st0" d="M68.1,8.3c0.3-1.5,1.3-2.4,2.8-2.4c1.6,0,2.2,1,2,2.4c-0.3,1.5-1.2,2.4-2.8,2.4C68.5,10.7,67.8,9.7,68.1,8.3z
			 M72,8.5c0.2-1.3-0.2-2.3-1.1-2.3c-0.9,0-1.6,0.6-1.9,2c-0.2,1.3,0.2,2.3,1.1,2.3C71,10.4,71.7,9.8,72,8.5z"/>
		<path class="st0" d="M77.7,10.6l0.8-4.3c-0.5,0-1.1,0-1.4,0.1L77.2,6c0.4,0,1.1,0,1.8,0c0.6,0,1.2,0,1.8,0l-0.1,0.4
			c-0.3,0-0.8-0.1-1.3-0.1l-0.8,4.3H77.7z"/>
		<path class="st0" d="M83.6,10.6L84,8.4h-1.9l-0.4,2.2h-0.9L81.7,6h0.9L82.2,8h1.9L84.4,6h0.9l-0.8,4.6H83.6z"/>
		<path class="st0" d="M85.8,10.6L86.6,6c0,0,1.7,0,2.7,0l-0.1,0.4c-0.5-0.1-1.1-0.1-1.8-0.1L87.1,8c0.4,0,1,0,1.4-0.1l-0.1,0.4
			c-0.4,0-1-0.1-1.4-0.1l-0.4,2c0.7,0,1.6,0,2.1-0.1l-0.1,0.4H85.8z"/>
	</g>
	<g>
		<path class="st0" d="M12.7,16.2h-1L1.9,31.4h1.9l3.1-4.8h5.7l1.3,4.8H17L12.7,16.2z M12.1,25.1H7.8l3-4.6L12.1,25.1z"/>
		<polygon class="st0" points="94.9,18 95.2,16.5 84.7,16.5 82,31.4 92.6,31.4 92.9,29.8 85.3,29.8 86.4,24.1 91.4,24.1 91.7,22.5 
			86.6,22.5 87.4,18 		"/>
		<path class="st0" d="M24.6,30.7l-1-7.3l-3.3,7.3h-0.8l-1.3-9.2h2.1l0.6,6.6l2.7-6.3l1.5-0.2l0.8,6.6c0.8-1.7,2.3-5,2.9-6.6h0.9
			c-1,2.1-3.1,6.6-4.3,9.2H24.6z"/>
		<path class="st0" d="M29.6,30.7l1.6-9.2c0,0,3.4,0,5.3-0.1l-0.1,0.8c-1-0.1-2.1-0.2-3.6-0.2l-0.6,3.4c0.9,0,2,0,2.9-0.1L35,26.1
			c-0.8-0.1-2-0.1-2.8-0.1l-0.7,4c1.4,0,3.1-0.1,4.2-0.2l-0.2,0.9H29.6z"/>
		<path class="st0" d="M37.5,29c0.5,0.7,1.5,1.2,2.6,1.2c1.6,0,2.3-0.6,2.5-1.5c0.1-0.8-0.3-1.5-2.2-2.2c-1.9-0.7-2.4-1.6-2.2-2.8
			c0.2-1.4,1.4-2.4,3.7-2.4c1.3,0,2.2,0.3,2.8,0.7l-0.4,1c-0.6-0.7-1.4-1.1-2.4-1.1c-1.4,0-2,0.6-2.1,1.3c-0.2,0.9,0,1.3,1.9,2
			c2.1,0.8,2.9,1.7,2.6,3.1c-0.3,1.6-1.7,2.6-4.2,2.6c-1.3,0-2.4-0.4-3.2-0.9L37.5,29z"/>
		<path class="st0" d="M46.5,26.1c0.5-2.9,2.5-4.8,5.7-4.8c3.2,0,4.5,1.9,4,4.8c-0.5,2.9-2.5,4.8-5.7,4.8C47.4,30.9,46,29,46.5,26.1
			z M54.3,26.4c0.5-2.6-0.4-4.7-2.2-4.7c-1.8,0-3.3,1.3-3.7,3.9c-0.5,2.6,0.4,4.6,2.2,4.6C52.4,30.3,53.9,29.1,54.3,26.4z"/>
		<path class="st0" d="M65.2,30.7l1.3-7.5c-0.8,1.3-3.3,5.5-4.4,7.4h-0.8c-0.4-1.8-1.3-6.1-1.7-7.7c0,0-0.3,1.6-0.5,3l-0.2,1
			c-0.2,1.5-0.5,3.1-0.5,3.8h-0.9c0.2-0.8,0.5-2.3,0.8-3.8c0.1-0.7,0.3-1.5,0.4-2.4c0.3-1.6,0.5-3.1,0.5-3.1l1.8-0.2
			c0.3,1.7,1.2,6,1.5,7.4c0.9-1.4,3.3-5.6,4.3-7.2h1.8l-1.6,9.2H65.2z"/>
		<path class="st0" d="M69.5,30.7l1.6-9.2c0,0,3.4,0,5.3-0.1l-0.1,0.8c-1-0.1-2.1-0.2-3.6-0.2l-0.6,3.4c0.9,0,2,0,2.9-0.1l-0.2,0.9
			C74,26.1,72.9,26,72,26l-0.7,4c1.4,0,3.1-0.1,4.2-0.2l-0.2,0.9H69.5z"/>
		<path class="st0" d="M101.9,31.4c-1.5-0.4-2.8-1.2-3.4-2c-0.7-0.9-1-2-1.2-2.8H97l-0.7,4.1h-1.7l1.6-9.2h3.4
			c1.5,0,2.9,0.8,2.5,2.6c-0.3,1.4-1.4,2.5-3.1,2.5c0.1,0.7,0.4,1.5,0.9,2.4c0.4,0.8,1.2,1.6,2.2,2.1L101.9,31.4z M97.9,26
			c1.1,0,2.1-0.6,2.4-2c0.2-1.4-0.6-2-1.7-2h-0.9l-0.7,4H97.9z"/>
		<path class="st0" d="M109.5,30.7l-0.7-3.3H105c-0.5,0.8-1.5,2.4-1.9,3.3h-0.9c1-1.6,3.9-6.3,5.6-9.2l1.3-0.3l2.5,9.5H109.5z
			 M107.7,22.7l-2.4,4.2h3.4L107.7,22.7z"/>
	</g>
</g>
</svg>
