<?xml version="1.0" encoding="utf-8"?>
<!-- Generator: Adobe Illustrator 25.4.1, SVG Export Plug-In . SVG Version: 6.00 Build 0)  -->
<svg version="1.1" id="圖層_1" xmlns="http://www.w3.org/2000/svg" xmlns:xlink="http://www.w3.org/1999/xlink" x="0px" y="0px"
	 viewBox="0 0 113.4 113.4" style="enable-background:new 0 0 113.4 113.4;" xml:space="preserve">
<style type="text/css">
	.st0{display:none;fill:#F3BE50;}
	.st1{fill:#F3BE50;}
</style>
<path class="st0" d="M18.9,107.1c-0.6,0-1.2-0.5-1.2-1.2c0-0.6,0.5-1.2,1.2-1.2h17.2v-3.9c0-0.6,0.5-1.2,1.2-1.2h5.9l2.6-7.7H10.6
	c-3.4,0-6.2-2.8-6.2-6.2V35.7c0-3.4,2.8-6.2,6.2-6.2h12.2V17.3c0-0.6,0.5-1.2,1.2-1.2h6.7c0.6,0,1.2,0.5,1.2,1.2v12.2h2.7V5.6
	c0-0.6,0.5-1.2,1.2-1.2h6.7c0.6,0,1.2,0.5,1.2,1.2v23.9h2.7V12.2c0-0.6,0.5-1.2,1.2-1.2h6.7c0.6,0,1.2,0.5,1.2,1.2v17.2h22.2
	l-0.8-0.8c-5-5.5-5-13.9,0-19.4c2.8-3.1,6.7-4.8,10.8-4.8c3.6,0,7,1.3,9.7,3.7c6,5.4,6.5,14.6,1.1,20.5l-0.8,0.8h3.3
	c3.4,0,6.2,2.8,6.2,6.2v50.2c0,3.4-2.8,6.2-6.2,6.2H65.7l2.6,7.7h5.9c0.6,0,1.2,0.5,1.2,1.2v3.9h17.2c0.6,0,1.2,0.5,1.2,1.2
	c0,0.6-0.5,1.2-1.2,1.2H18.9z M38.5,104.8H73v-2.7H38.5V104.8z M45.6,99.7h20.2L63.2,92h-15L45.6,99.7z M6.7,85.8
	c0,2.1,1.7,3.9,3.9,3.9h90.3c2.1,0,3.9-1.7,3.9-3.9V82h-98V85.8z M10.6,31.8c-2.1,0-3.9,1.7-3.9,3.9v44h98v-44
	c0-2.1-1.7-3.9-3.9-3.9h-6.6l-0.1,0.1c-2,1.1-4.3,1.6-6.7,1.6c-2.3,0-4.6-0.6-6.6-1.6l-0.1-0.1H55.2v14.4h2.7V35.7
	c0-0.6,0.5-1.2,1.2-1.2h6.7c0.6,0,1.2,0.5,1.2,1.2v11.7c0,0.6-0.5,1.2-1.2,1.2H12.2c-0.6,0-1.2-0.5-1.2-1.2V35.7
	c0-0.6,0.5-1.2,1.2-1.2h6.7c0.6,0,1.2,0.5,1.2,1.2v10.5h2.7V31.8H10.6z M60.2,46.2h4.4v-9.4h-4.4V46.2z M48.5,46.2h4.4V13.4h-4.4
	V46.2z M43.5,46.2h2.7V31.8h-2.7V46.2z M36.8,46.2h4.4V6.7h-4.4V46.2z M31.8,46.2h2.7V31.8h-2.7V46.2z M25.1,46.2h4.4V18.4h-4.4
	V46.2z M13.4,46.2h4.4v-9.4h-4.4V46.2z M79.7,28.4l0.5,0.4c1.6,1.2,3.6,2,5.6,2.3c0.6,0.1,1.2,0.1,1.8,0.1c6,0,11.2-4.5,12.1-10.5
	l0.1-0.6H88L79.7,28.4z M85.8,6.8c-6,0.9-10.5,6.1-10.5,12.1c0,2.6,0.9,5.2,2.4,7.3l0.4,0.5l8.3-8.3V6.8L85.8,6.8z M88.7,17.8h11
	l-0.1-0.6c-0.8-5.3-5-9.6-10.3-10.3l-0.6-0.1V17.8z M27.3,87c-0.6,0-1.2-0.5-1.2-1.2c0-0.6,0.5-1.2,1.2-1.2H29
	c0.6,0,1.2,0.5,1.2,1.2c0,0.6-0.5,1.2-1.2,1.2H27.3z M12.2,87c-0.6,0-1.2-0.5-1.2-1.2c0-0.6,0.5-1.2,1.2-1.2h10
	c0.6,0,1.2,0.5,1.2,1.2c0,0.6-0.5,1.2-1.2,1.2H12.2z M42.3,77c-2.1,0-3.9-1.4-4.4-3.5l-0.1-0.3l-18.1-7.5l-0.2,0.4
	c-0.6,1.2-1.7,2-3,2.3c-0.3,0.1-0.7,0.1-1.1,0.1c-2.1,0-3.9-1.4-4.4-3.5c-0.3-1.2-0.1-2.4,0.5-3.4c0.6-1,1.6-1.7,2.8-2
	c0.3-0.1,0.7-0.1,1.1-0.1c2.1,0,3.9,1.4,4.4,3.5l0.1,0.3l18.1,7.5l0.2-0.4c0.4-0.7,0.9-1.3,1.6-1.7c0.7-0.5,1.6-0.7,2.4-0.7
	c1.5,0,2.9,0.8,3.8,2.1l0.3,0.5l18.2-13.7l0-0.2c0.3-1.8,1.7-3.2,3.5-3.6c0.3-0.1,0.6-0.1,0.9-0.1c2.1,0,4,1.5,4.4,3.6l0,0.2
	l18.1,10.6l0.3-0.4c0.8-1.4,2.3-2.2,3.9-2.2c2.1,0,4,1.5,4.4,3.6c0.2,1.2,0,2.4-0.6,3.4c-0.7,1-1.7,1.7-2.9,1.9
	c-0.3,0.1-0.6,0.1-0.9,0.1c-2.1,0-4-1.5-4.4-3.6l0-0.2L73.3,59.2L73,59.7c-0.4,0.6-0.9,1.1-1.4,1.5c-0.7,0.5-1.6,0.7-2.4,0.7
	c-1.5,0-2.9-0.8-3.8-2.1L65,59.4L46.8,73.1l0,0.2c-0.3,1.8-1.6,3.2-3.4,3.6C43,76.9,42.7,77,42.3,77z M42.3,70.3
	c-1.2,0-2.2,1-2.2,2.2c0,1.2,1,2.2,2.2,2.2c1.2,0,2.2-1,2.2-2.2c0-0.6-0.2-1.1-0.6-1.5C43.5,70.5,42.9,70.3,42.3,70.3L42.3,70.3z
	 M95.9,66.9c-1.2,0-2.2,1-2.2,2.2c0,1.2,1,2.2,2.2,2.2c1.2,0,2.2-1,2.2-2.2C98.1,67.9,97.1,66.9,95.9,66.9z M15.6,61.9
	c-1.2,0-2.2,1-2.2,2.2c0,0.6,0.2,1.1,0.6,1.5c0.4,0.4,1,0.6,1.5,0.6c1.2,0,2.2-1,2.2-2.2C17.8,62.9,16.8,61.9,15.6,61.9L15.6,61.9z
	 M69.1,55.2c-1.2,0-2.2,1-2.2,2.2c0,1.2,1,2.2,2.2,2.2c1.2,0,2.2-1,2.2-2.2C71.3,56.2,70.3,55.2,69.1,55.2z M70.8,77
	c-0.6,0-1.2-0.5-1.2-1.2c0-0.6,0.5-1.2,1.2-1.2h11.7c0.6,0,1.2,0.5,1.2,1.2c0,0.6-0.5,1.2-1.2,1.2H70.8z M77.5,72
	c-0.6,0-1.2-0.5-1.2-1.2c0-0.6,0.5-1.2,1.2-1.2h5c0.6,0,1.2,0.5,1.2,1.2c0,0.6-0.5,1.2-1.2,1.2H77.5z M35.7,53.6
	c-0.6,0-1.2-0.5-1.2-1.2c0-0.6,0.5-1.2,1.2-1.2h1.7c0.6,0,1.2,0.5,1.2,1.2c0,0.6-0.5,1.2-1.2,1.2H35.7z M12.2,53.6
	c-0.6,0-1.2-0.5-1.2-1.2c0-0.6,0.5-1.2,1.2-1.2h18.4c0.6,0,1.2,0.5,1.2,1.2c0,0.6-0.5,1.2-1.2,1.2H12.2z M74.1,45.2
	c-0.3,0-0.6-0.1-0.8-0.3c-0.5-0.5-0.5-1.2,0-1.6l6.7-6.7c0.2-0.2,0.5-0.3,0.8-0.3h15.1c0.6,0,1.2,0.5,1.2,1.2c0,0.6-0.5,1.2-1.2,1.2
	H81.3L75,44.8C74.7,45.1,74.4,45.2,74.1,45.2z"/>
<path class="st1" d="M32.8,17.1c0-0.6,0.5-1.2,1.2-1.2c0.6,0,1.2,0.5,1.2,1.2c0,0.6-0.5,1.2-1.2,1.2C33.3,18.3,32.8,17.8,32.8,17.1z
	 M50.2,84.5h-2.3v2.3h2.3V84.5z M40.6,18.3h25.1c0.6,0,1.2-0.5,1.2-1.2c0-0.6-0.5-1.2-1.2-1.2H40.6c-0.6,0-1.2,0.5-1.2,1.2
	C39.5,17.8,40,18.3,40.6,18.3z M50.2,77.8h-2.3v2.3h2.3V77.8z M43.5,77.8h-2.3v2.3h2.3V77.8z M70.2,77.8h-2.3v2.3h2.3V77.8z
	 M20,103.5c0.4,0.5,0.2,1.3-0.3,1.6c-0.2,0.1-0.4,0.2-0.7,0.2c-0.4,0-0.8-0.2-1-0.5l-3.2-4.6H7.2c-0.6,0-1.2-0.5-1.2-1.2V72.3
	c0-0.6,0.5-1.2,1.2-1.2h42.3v-4.4H13.9c-2.5,0-4.5-2-4.5-4.5V17.1c0-2.5,2-4.5,4.5-4.5h8.9V7.1c0-0.6,0.5-1.2,1.2-1.2h51.8
	c0.3,0,0.7,0.1,0.9,0.4l5.5,6.3h15.4c2.5,0,4.5,2,4.5,4.5v22l0.2,0.2c1.9,1.4,3.2,3.7,3.1,6.5c0,2.4-1.3,4.7-3.3,6.1l-0.1,0v10.3
	c0,2.5-2,4.5-4.5,4.5H61.9v4.4h42.3c0.6,0,1.2,0.5,1.2,1.2v26.8c0,0.6-0.5,1.2-1.2,1.2h-6l-3.2,4.6c-0.2,0.3-0.6,0.5-1,0.5
	c-0.2,0-0.5-0.1-0.7-0.2c-0.3-0.2-0.4-0.5-0.5-0.8c-0.1-0.3,0-0.6,0.2-0.9l3.2-4.6c0,0,0-0.1,0-0.1V86.5c0-0.7-0.6-1.3-1.3-1.3
	c-0.7,0-1.3,0.6-1.3,1.3V89c0,0.6-0.5,1.2-1.2,1.2c-0.6,0-1.2-0.5-1.2-1.2v-5.9c0-0.7-0.6-1.3-1.3-1.3c-0.7,0-1.3,0.6-1.3,1.3v4.2
	c0,0.6-0.5,1.2-1.2,1.2c-0.6,0-1.2-0.5-1.2-1.2v-7.5c0-0.7-0.6-1.3-1.3-1.3c-0.7,0-1.3,0.6-1.3,1.3v7.5c0,0.6-0.5,1.2-1.2,1.2
	c-0.6,0-1.2-0.5-1.2-1.2v-5.9c0-0.7-0.6-1.3-1.3-1.3c-0.7,0-1.3,0.6-1.3,1.3v10.9c0,0.6-0.5,1.2-1.2,1.2c-0.6,0-1.2-0.5-1.2-1.2
	v-2.5c0-0.7-0.6-1.3-1.3-1.3c-0.7,0-1.3,0.6-1.3,1.3v10.3l4.7,3.2c0.5,0.4,0.7,1.1,0.3,1.6c-0.2,0.3-0.6,0.5-1,0.5
	c-0.2,0-0.5-0.1-0.7-0.2l-5-3.5c-0.1-0.1-0.2-0.1-0.2-0.2c-0.3-0.3-0.4-0.6-0.4-0.8l0-0.5H41.8l0,0.5c0,0.3-0.1,0.6-0.3,0.8
	c-0.1,0.1-0.2,0.2-0.3,0.3l-5,3.5c-0.2,0.1-0.4,0.2-0.7,0.2c-0.4,0-0.8-0.2-1-0.5c-0.4-0.5-0.2-1.3,0.3-1.6l4.7-3.2V89.9
	c0-0.7-0.6-1.3-1.3-1.3c-0.7,0-1.3,0.6-1.3,1.3v2.5c0,0.6-0.5,1.2-1.2,1.2s-1.2-0.5-1.2-1.2V81.5c0-0.7-0.6-1.3-1.3-1.3
	s-1.3,0.6-1.3,1.3v5.9c0,0.6-0.5,1.2-1.2,1.2c-0.6,0-1.2-0.5-1.2-1.2v-7.5c0-0.7-0.6-1.3-1.3-1.3c-0.7,0-1.3,0.6-1.3,1.3v7.5
	c0,0.6-0.5,1.2-1.2,1.2c-0.6,0-1.2-0.5-1.2-1.2v-4.2c0-0.7-0.6-1.3-1.3-1.3c-0.7,0-1.3,0.6-1.3,1.3V89c0,0.6-0.5,1.2-1.2,1.2
	c-0.6,0-1.2-0.5-1.2-1.2v-2.5c0-0.7-0.6-1.3-1.3-1.3c-0.7,0-1.3,0.6-1.3,1.3v12.2c0,0.1,0,0.1,0,0.1L20,103.5z M99.7,53.1l-0.6,0.1
	c-0.5,0.1-1.1,0.2-1.6,0.2h-8.9v4.4h11.1V53.1z M91.3,51.1V40H87v11.1H91.3z M99.7,40.5L99.7,40.5l-0.2,0l-0.1-0.1
	c-0.6-0.2-1.2-0.3-1.8-0.3h-3.9v11.1h3.9c3,0,5.5-2.5,5.5-5.5C103,43.3,101.7,41.3,99.7,40.5z M84.1,14.9l4.2,4.8
	c0.2,0.2,0.3,0.5,0.3,0.8v17.2h8.9c0.5,0,1.1,0.1,1.6,0.2l0.6,0.1V17.1c0-1.2-1-2.2-2.2-2.2H84.1z M76.9,19.3h7.9l-3.7-4.2l-0.1-0.1
	l-4.2-4.8V19.3z M25.1,57.8h61.2v-4.4h-39c-0.2,0-0.4-0.1-0.6-0.2l-10-6.7c-0.1-0.1-0.3-0.2-0.3-0.3c-0.2-0.3-0.2-0.6-0.2-0.9
	c0.1-0.3,0.2-0.6,0.5-0.7l10-6.7c0.2-0.1,0.4-0.2,0.6-0.2h39V21.6H75.8c-0.6,0-1.2-0.5-1.2-1.2V8.2H25.1V57.8z M51.5,49.7l-1.4,1.4
	h34.5V40H50.1l1.4,1.4c0.4,0.5,0.4,1.2,0,1.7L49,45.5l2.5,2.5C52,48.5,52,49.3,51.5,49.7z M46.5,44.7l2.5-2.5l-1.9-1.8l-7.8,5.2
	l7.8,5.2l1.9-1.8l-2.5-2.5C46.1,45.9,46.1,45.2,46.5,44.7z M11.7,57.8h11.1V14.9h-8.9c-1.2,0-2.2,1-2.2,2.2V57.8z M97.5,64.5
	c1.2,0,2.2-1,2.2-2.2v-2.2h-88v2.2c0,1.2,1,2.2,2.2,2.2H97.5z M51.8,66.8v4.4h7.7v-4.4H51.8z M103,73.5H8.4v24.4h6V86.5
	c0-2,1.6-3.7,3.7-3.7c0.3,0,0.5,0,0.8,0.1l0.5,0.1l0.1-0.5c0.3-1.8,1.8-3,3.6-3c0,0,0,0,0,0c0.3,0,0.5,0,0.8,0.1l0.5,0.1l0.1-0.5
	c0.2-1,0.8-1.9,1.7-2.5c0.6-0.4,1.3-0.6,1.9-0.6c1.3,0,2.4,0.6,3.1,1.7l0.2,0.4l0.4-0.2c0.4-0.2,0.9-0.2,1.3-0.2
	c2,0,3.7,1.6,3.7,3.7v4.9l0.6-0.1c0.2,0,0.5-0.1,0.7-0.1c2,0,3.7,1.6,3.7,3.7v8h29.5v-8c0-2,1.6-3.7,3.7-3.7c0.2,0,0.5,0,0.7,0.1
	l0.6,0.1v-4.9c0-2,1.6-3.7,3.7-3.7c0.4,0,0.9,0.1,1.3,0.2l0.4,0.2l0.2-0.4c0.7-1.1,1.8-1.7,3.1-1.7c0.7,0,1.4,0.2,1.9,0.6
	c0.9,0.5,1.5,1.4,1.7,2.5l0.1,0.5l0.5-0.1c0.3-0.1,0.5-0.1,0.8-0.1c1.8,0,3.3,1.3,3.6,3l0.1,0.5l0.5-0.1c0.3-0.1,0.5-0.1,0.8-0.1h0
	c2,0,3.7,1.6,3.7,3.7v11.4h4.4V73.5z M34,25h31.8c0.6,0,1.2-0.5,1.2-1.2c0-0.6-0.5-1.2-1.2-1.2H34c-0.6,0-1.2,0.5-1.2,1.2
	C32.8,24.4,33.3,25,34,25z M63.6,77.8h-2.3v2.3h2.3V77.8z M66.9,91.2H44.5v2.3h22.4V91.2z M63.6,84.5h-2.3v2.3h2.3V84.5z M56.9,77.8
	h-2.3v2.3h2.3V77.8z M78.6,30.5c0-0.6-0.5-1.2-1.2-1.2H34c-0.6,0-1.2,0.5-1.2,1.2c0,0.6,0.5,1.2,1.2,1.2h43.5
	C78.1,31.7,78.6,31.1,78.6,30.5z M56.9,84.5h-2.3v2.3h2.3V84.5z"/>
<path class="st0" d="M13.9,106.2c-4.3,0-7.9-3.5-7.9-7.9V95c0-0.6,0.5-1.2,1.2-1.2h3.9V58.2c0-0.6,0.5-1.2,1.2-1.2h15.6
	c0.6,0,1.2,0.5,1.2,1.2s-0.5,1.2-1.2,1.2H13.4v34.5h44.5V77c0-0.6,0.5-1.2,1.2-1.2s1.2,0.5,1.2,1.2v16.9h3.9c0.6,0,1.2,0.5,1.2,1.2
	v3.3c0,4.3-3.5,7.9-7.9,7.9H13.9z M52.4,100.6c0.6,0,1.2,0.5,1.2,1.2v2.2h3.9c3,0,5.5-2.5,5.5-5.5v-2.2H8.4v2.2c0,3,2.5,5.5,5.5,5.5
	h3.9v-2.2c0-0.6,0.5-1.2,1.2-1.2c0.6,0,1.2,0.5,1.2,1.2v2.2h31.1v-2.2C51.2,101.1,51.7,100.6,52.4,100.6z M43.7,89.6
	c-1.6,0-3.1-0.9-3.9-2.3l-3.6-6.2l-1.9,1.1c-0.9,0.5-2,0.8-3.1,0.8c0,0,0,0,0,0c-0.6,0-1.1-0.1-1.6-0.2c-1-0.3-2-0.8-2.7-1.6
	L26.6,81l-2,1.1c-0.7,0.4-1.5,0.6-2.3,0.6c-0.4,0-0.8,0-1.2-0.1c-1.2-0.3-2.2-1.1-2.7-2.1c-0.6-1-0.8-2.3-0.4-3.4
	c0.3-1.2,1.1-2.1,2.1-2.7l2-1.1L22,72.8c-0.8-2.7,0.4-5.6,2.8-7l7.1-4.1l23.5-19.4c0.2-0.2,0.5-0.3,0.7-0.3c0.1,0,0.1,0,0.2,0
	c0.3,0.1,0.6,0.3,0.8,0.6l1.7,2.9c0.2,0.3,0.2,0.6,0.1,0.9c-0.1,0.3-0.3,0.6-0.5,0.7c-0.2,0.1-0.4,0.2-0.6,0.2c-0.4,0-0.8-0.2-1-0.6
	l-1-1.7l-21.8,18l4.5,7.8c0.1,0.2,0.2,0.4,0.2,0.6c0,0.6-0.5,1.2-1.2,1.2c-0.4,0-0.8-0.2-1-0.6l-4.4-7.7l-6.2,3.6
	c-1.8,1-2.4,3.3-1.5,5.1l3.4,5.8c0.5,0.9,1.3,1.5,2.3,1.8c0.3,0.1,0.7,0.1,1,0.1c0.7,0,1.3-0.2,1.9-0.5l7.1-4.1l0.3,0l27.3-10.2
	l-7.7-13.3C60,52.2,60,51.9,60,51.6c0.1-0.3,0.3-0.6,0.5-0.7c0.2-0.1,0.4-0.2,0.6-0.2c0.4,0,0.8,0.2,1,0.6l8.3,14.5
	c0.2,0.3,0.2,0.6,0.1,1c-0.1,0.3-0.4,0.6-0.7,0.7L44.2,77l3.3,5.8c0.6,1,0.8,2.3,0.5,3.4S47,88.4,45.9,89
	C45.3,89.4,44.5,89.6,43.7,89.6L43.7,89.6z M41.4,78.2L38.2,80l3.6,6.2c0.4,0.7,1.1,1.1,1.9,1.1c0.4,0,0.8-0.1,1.1-0.3
	c0.5-0.3,0.9-0.8,1-1.3c0.2-0.6,0.1-1.2-0.2-1.7l-3.5-6h-0.4L41.4,78.2z M21.2,76.3c-0.5,0.3-0.9,0.8-1,1.3
	c-0.2,0.6-0.1,1.2,0.2,1.7c0.3,0.5,0.8,0.9,1.3,1c0.2,0,0.4,0.1,0.6,0.1c0.4,0,0.8-0.1,1.1-0.3l1.9-1.1l-2.2-3.8L21.2,76.3z
	 M80.8,87.8c-2.5,0-4.5-2-4.5-4.5V63.3c0-2.5,2-4.5,4.5-4.5h20.1c2.5,0,4.5,2,4.5,4.5v10c0,0.6-0.5,1.2-1.2,1.2
	c-0.6,0-1.2-0.5-1.2-1.2v-10c0-1.2-1-2.2-2.2-2.2H80.8c-1.2,0-2.2,1-2.2,2.2v20.1c0,1.2,1,2.2,2.2,2.2h20.1c1.2,0,2.2-1,2.2-2.2V80
	c0-0.6,0.5-1.2,1.2-1.2c0.6,0,1.2,0.5,1.2,1.2v3.3c0,2.5-2,4.5-4.5,4.5H80.8z M90.9,79.5c-3.4,0-6.2-2.8-6.2-6.2s2.8-6.2,6.2-6.2
	c3.4,0,6.2,2.8,6.2,6.2S94.3,79.5,90.9,79.5z M90.9,69.4c-2.1,0-3.9,1.7-3.9,3.9c0,2.1,1.7,3.9,3.9,3.9c2.1,0,3.9-1.7,3.9-3.9
	C94.7,71.2,93,69.4,90.9,69.4z M74.1,54.4l-0.2,0c-0.6,0-1.1-0.5-1.2-1.1c-0.1-0.6,0.4-1.2,1.1-1.3l8.4-1.7c0.1,0,0.2,0,0.3,0
	c0.6,0,1,0.4,1.1,1c0.1,0.4,0,0.7-0.2,0.9c-0.2,0.3-0.4,0.4-0.8,0.5l-8.4,1.7L74.1,54.4z M7.2,51c-0.6,0-1.2-0.5-1.2-1.2V23.1
	c0-0.6,0.5-1.2,1.2-1.2h20.1c0.6,0,1.2,0.5,1.2,1.2v26.8c0,0.6-0.5,1.2-1.2,1.2H7.2z M8.4,48.7h17.7V24.3H8.4V48.7z M69.1,47.7
	c-0.4,0-0.7-0.2-0.9-0.5C68,47,67.9,46.7,68,46.4c0-0.3,0.2-0.6,0.5-0.8l6.7-5c0.2-0.2,0.4-0.2,0.7-0.2c0.4,0,0.7,0.2,0.9,0.5
	c0.2,0.2,0.3,0.6,0.2,0.9c0,0.3-0.2,0.6-0.5,0.8l-6.7,5C69.6,47.6,69.4,47.7,69.1,47.7z M13.9,44.3c-0.6,0-1.2-0.5-1.2-1.2
	c0-0.6,0.5-1.2,1.2-1.2h6.7c0.6,0,1.2,0.5,1.2,1.2c0,0.6-0.5,1.2-1.2,1.2H13.9z M64.1,41c-0.3,0-0.5-0.1-0.7-0.2
	c-0.5-0.4-0.6-1.1-0.2-1.6l5-6.7c0.2-0.3,0.6-0.5,0.9-0.5c0.3,0,0.5,0.1,0.7,0.2c0.3,0.2,0.4,0.5,0.5,0.8c0,0.3,0,0.6-0.2,0.9
	l-5,6.7C64.8,40.8,64.5,41,64.1,41z M13.9,37.7c-0.6,0-1.2-0.5-1.2-1.2c0-0.6,0.5-1.2,1.2-1.2h6.7c0.6,0,1.2,0.5,1.2,1.2
	c0,0.6-0.5,1.2-1.2,1.2H13.9z M80.8,36c-2.5,0-4.5-2-4.5-4.5v-10c0-0.6,0.5-1.2,1.2-1.2c0.6,0,1.2,0.5,1.2,1.2v10
	c0,1.2,1,2.2,2.2,2.2h20.1c1.2,0,2.2-1,2.2-2.2V11.4c0-1.2-1-2.2-2.2-2.2H80.8c-1.2,0-2.2,1-2.2,2.2v3.3c0,0.6-0.5,1.2-1.2,1.2
	c-0.6,0-1.2-0.5-1.2-1.2v-3.3c0-2.5,2-4.5,4.5-4.5h20.1c2.5,0,4.5,2,4.5,4.5v20.1c0,2.5-2,4.5-4.5,4.5H80.8z M47.4,34.3
	c-8,0-14.5-6.5-14.5-14.5c0-8,6.5-14.5,14.5-14.5c8,0,14.5,6.5,14.5,14.5C61.9,27.8,55.4,34.3,47.4,34.3z M47.4,7.5
	c-6.7,0-12.2,5.5-12.2,12.2c0,6.7,5.5,12.2,12.2,12.2c6.7,0,12.2-5.5,12.2-12.2C59.6,13,54.1,7.5,47.4,7.5z M17.3,31
	c-0.6,0-1.2-0.5-1.2-1.2c0-0.6,0.5-1.2,1.2-1.2h3.3c0.6,0,1.2,0.5,1.2,1.2c0,0.6-0.5,1.2-1.2,1.2H17.3z M89.2,29.3
	c-0.6,0-1.2-0.5-1.2-1.2v-5.5h-2.2c-0.6,0-1.2-0.5-1.2-1.2c0-0.6,0.5-1.2,1.2-1.2H88v-2.2c0-2.5,2-4.5,4.5-4.5h3.3
	c0.6,0,1.2,0.5,1.2,1.2c0,0.6-0.5,1.2-1.2,1.2h-3.3c-1.2,0-2.2,1-2.2,2.2v2.2h2.2c0.6,0,1.2,0.5,1.2,1.2c0,0.6-0.5,1.2-1.2,1.2h-2.2
	v5.5C90.3,28.8,89.8,29.3,89.2,29.3z M44,25.9c-0.2,0-0.4-0.1-0.6-0.2c-0.3-0.2-0.5-0.6-0.5-1v-10c0-0.2,0-0.4,0.1-0.5
	c0.2-0.4,0.6-0.6,1-0.6c0.2,0,0.4,0,0.5,0.1l10,5c0.2,0.1,0.4,0.3,0.5,0.5c0.3,0.6,0.1,1.3-0.5,1.6l-10,5
	C44.4,25.9,44.2,25.9,44,25.9L44,25.9z M45.2,22.9l6.3-3.1l-6.3-3.1V22.9z"/>
<path class="st0" d="M23.6,107.3c-6.6,0-12-5.4-12-12c0-6.6,5.4-12,12-12c6.6,0,12,5.4,12,12C35.6,101.9,30.2,107.2,23.6,107.3
	L23.6,107.3z M23.6,85.8c-5.2,0-9.4,4.2-9.4,9.4c0,5.2,4.2,9.4,9.4,9.4c5.2,0,9.4-4.2,9.4-9.4C33,90.1,28.8,85.8,23.6,85.8z
	 M66.4,100.1c-2.7,0-4.8-2.2-4.8-4.8c0-2.7,2.2-4.8,4.8-4.8c2.7,0,4.8,2.2,4.8,4.8C71.3,97.9,69.1,100.1,66.4,100.1L66.4,100.1z
	 M66.4,93c-1.3,0-2.3,1-2.3,2.3c0,1.3,1,2.3,2.3,2.3c1.3,0,2.3-1,2.3-2.3C68.7,94,67.7,93,66.4,93z M87.8,100.1
	c-2.7,0-4.8-2.2-4.8-4.8c0-2.7,2.2-4.8,4.8-4.8c2.7,0,4.8,2.2,4.8,4.8C92.7,97.9,90.5,100.1,87.8,100.1L87.8,100.1z M87.8,93
	c-1.3,0-2.3,1-2.3,2.3c0,1.3,1,2.3,2.3,2.3c1.3,0,2.3-1,2.3-2.3C90.1,94,89.1,93,87.8,93z M45,100.1c-2.7,0-4.8-2.2-4.8-4.8
	c0-2.7,2.2-4.8,4.8-4.8s4.8,2.2,4.8,4.8C49.9,97.9,47.7,100.1,45,100.1L45,100.1z M45,93c-1.3,0-2.3,1-2.3,2.3c0,1.3,1,2.3,2.3,2.3
	c1.3,0,2.3-1,2.3-2.3C47.3,94,46.3,93,45,93z M23.6,100.1c-2.7,0-4.8-2.2-4.8-4.8c0-2.7,2.2-4.8,4.8-4.8c2.7,0,4.8,2.2,4.8,4.8
	C28.5,97.9,26.3,100.1,23.6,100.1L23.6,100.1z M23.6,93c-1.3,0-2.3,1-2.3,2.3c0,1.3,1,2.3,2.3,2.3c1.3,0,2.3-1,2.3-2.3
	C25.9,94,24.9,93,23.6,93z M82.5,80.1c-0.9,0-1.6-0.6-1.8-1.4c-0.8-2.7-1.7-3.7-4.5-4.5c-0.8-0.2-1.4-1-1.4-1.8
	c0-0.9,0.6-1.6,1.4-1.8c2.7-0.8,3.7-1.7,4.5-4.5c0.2-0.8,1-1.4,1.8-1.4c0.9,0,1.6,0.6,1.8,1.4c0.8,2.7,1.7,3.7,4.5,4.5
	c0.8,0.2,1.4,1,1.4,1.8c0,0.9-0.6,1.6-1.4,1.8c-2.7,0.8-3.7,1.7-4.5,4.5C84.1,79.6,83.3,80.1,82.5,80.1z M82,69
	c-0.7,1.4-1.7,2.3-3,3l-0.9,0.5l0.9,0.5c1.4,0.7,2.3,1.7,3,3l0.5,0.9l0.5-0.9c0.7-1.4,1.7-2.3,3-3l0.9-0.5L86,72
	c-1.4-0.7-2.3-1.7-3-3l-0.5-0.9L82,69z M93.2,76.4c-0.4,0-0.7-0.2-0.9-0.4c-0.2-0.3-0.4-0.6-0.3-1c0.1-0.6,0.7-1.1,1.4-1.1h12.9
	l0-56.7H39.3c-0.7,0-1.3-0.6-1.3-1.3c0-0.7,0.6-1.3,1.3-1.3h66.4c1.7,0,3.1,1.4,3.1,3.1v55.7c0,1.7-1.4,3.1-3.1,3.1H93.2z M5.8,76.4
	c-1.7,0-3.1-1.4-3.1-3.1V17.6c0-1.7,1.4-3.1,3.1-3.1h13.6c0.7,0,1.3,0.6,1.3,1.3c0,0.7-0.6,1.3-1.3,1.3H5.3v56.7h66.2
	c0.5,0,1,0.3,1.2,0.7c0.2,0.4,0.1,0.9-0.1,1.3c-0.2,0.4-0.6,0.6-1.1,0.6H5.8z M64.6,60.1c-0.7,0-1.3-0.6-1.3-1.3
	c0-0.7,0.6-1.3,1.3-1.3h3.6c0.7,0,1.3,0.6,1.3,1.3c0,0.7-0.6,1.3-1.3,1.3H64.6z M27.2,63.7c-1.7,0-3.1-1.4-3.1-3.1V32.1
	c0-1.7,1.4-3.1,3.1-3.1h28.5c1.7,0,3.1,1.4,3.1,3.1v28.5c0,0.7-0.3,1.4-0.7,1.9c-0.6,0.7-1.5,1.1-2.3,1.1H27.2z M43.9,57.7l1.9,3.5
	h9.4L48.6,49L43.9,57.7z M26.7,59.5v1.7h16.2l-8.6-15.7L26.7,59.5z M48.6,47c1.1,0,2.2,0.6,2.7,1.6l4,7.4l1-0.2l0-24.2H26.7v20.6
	l1,0.2l4-7.3c0.5-1,1.6-1.6,2.7-1.6c1.1,0,2.2,0.6,2.7,1.6l5.4,10l3.5-6.4C46.4,47.6,47.5,47,48.6,47z M93.2,54.8
	c-0.1,0-0.2,0-0.3,0c-0.4-0.1-0.8-0.5-0.9-0.9c-0.1-0.4,0-0.9,0.3-1.2l6.2-6.2l-6.2-6.2c-0.5-0.5-0.5-1.3,0-1.8
	c0.2-0.2,0.6-0.4,0.9-0.4c0.3,0,0.6,0.1,0.9,0.4l7.1,7.1c0.2,0.2,0.4,0.6,0.4,0.9s-0.1,0.7-0.4,0.9l-7.1,7.1
	C93.9,54.7,93.5,54.8,93.2,54.8z M64.6,54.8c-0.7,0-1.3-0.6-1.3-1.3c0-0.7,0.6-1.3,1.3-1.3h8.9c0.7,0,1.3,0.6,1.3,1.3
	c0,0.7-0.6,1.3-1.3,1.3H64.6z M18.2,54.8c-0.3,0-0.6-0.1-0.9-0.4l-7.1-7.1C10,47,9.8,46.7,9.8,46.4c0-0.3,0.1-0.7,0.4-0.9l7.1-7.1
	c0.2-0.2,0.6-0.4,0.9-0.4c0.3,0,0.7,0.1,0.9,0.4c0.2,0.2,0.4,0.6,0.4,0.9c0,0.3-0.1,0.7-0.4,0.9l-6.2,6.2l6.2,6.2
	c0.5,0.5,0.5,1.3,0,1.8C18.9,54.6,18.6,54.8,18.2,54.8z M64.6,47.6c-0.7,0-1.3-0.6-1.3-1.3c0-0.7,0.6-1.3,1.3-1.3h14.3
	c0.7,0,1.3,0.6,1.3,1.3c0,0.7-0.6,1.3-1.3,1.3H64.6z M43.2,44.1c-2.7,0-4.8-2.2-4.8-4.8c0-2.7,2.2-4.8,4.8-4.8s4.8,2.2,4.8,4.8
	C48.1,41.9,45.9,44.1,43.2,44.1L43.2,44.1z M43.2,36.9c-1.3,0-2.3,1-2.3,2.3c0,1.3,1,2.3,2.3,2.3c1.3,0,2.3-1,2.3-2.3
	C45.5,38,44.5,36.9,43.2,36.9L43.2,36.9z M64.6,40.5c-0.7,0-1.3-0.6-1.3-1.3c0-0.7,0.6-1.3,1.3-1.3h19.6c0.7,0,1.3,0.6,1.3,1.3
	c0,0.7-0.6,1.3-1.3,1.3H64.6z M64.6,33.4c-0.7,0-1.3-0.6-1.3-1.3c0-0.7,0.6-1.3,1.3-1.3h23.2c0.7,0,1.3,0.6,1.3,1.3
	c0,0.7-0.6,1.3-1.3,1.3H64.6z M29.3,19.6c-0.9,0-1.6-0.6-1.8-1.4c-0.8-2.7-1.7-3.7-4.5-4.5c-0.8-0.2-1.4-1-1.4-1.8
	c0-0.9,0.6-1.6,1.4-1.8c2.7-0.8,3.7-1.7,4.5-4.5c0.2-0.8,1-1.4,1.8-1.4c0.9,0,1.6,0.6,1.8,1.4c0.8,2.7,1.7,3.7,4.5,4.5
	c0.8,0.2,1.4,1,1.4,1.8c0,0.9-0.6,1.6-1.4,1.8c-2.7,0.8-3.7,1.7-4.5,4.5C30.9,19,30.2,19.6,29.3,19.6z M28.9,8.4
	c-0.7,1.4-1.7,2.3-3,3L25,11.9l0.9,0.5c1.4,0.7,2.3,1.7,3,3l0.5,0.9l0.5-0.9c0.7-1.4,1.7-2.3,3-3l0.9-0.5l-0.9-0.5
	c-1.4-0.7-2.3-1.7-3-3l-0.5-0.9L28.9,8.4z"/>
</svg>
