<?xml version="1.0" encoding="utf-8"?>
<!-- Generator: Adobe Illustrator 27.0.1, SVG Export Plug-In . SVG Version: 6.00 Build 0)  -->
<svg version="1.1" id="圖層_1" xmlns="http://www.w3.org/2000/svg" xmlns:xlink="http://www.w3.org/1999/xlink" x="0px" y="0px"
	 viewBox="0 0 100 100" style="enable-background:new 0 0 100 100;" xml:space="preserve">
<style type="text/css">
	.st0{fill:url(#SVGID_1_);}
	.st1{fill:url(#SVGID_00000135648477991371848990000009391101909539667365_);}
	.st2{fill:url(#SVGID_00000121973566763072658480000011950575103114026164_);}
	.st3{fill:url(#SVGID_00000159466807778502291880000011019724067703969970_);}
	.st4{fill:url(#SVGID_00000090259111893841361770000012677599285262394779_);}
	.st5{fill:url(#SVGID_00000170961458967260135610000010068465972357676457_);}
	.st6{fill:url(#SVGID_00000098192935787418471380000000010755516185288356_);}
	.st7{fill:url(#SVGID_00000025442385333357276620000004850685373041340819_);}
	.st8{fill:url(#SVGID_00000102520366688553705920000004438074397754452888_);}
	.st9{fill:url(#SVGID_00000108291803858009840650000013730682232893573513_);}
	.st10{fill:url(#SVGID_00000181052884931563087300000015983612819901887423_);}
	.st11{fill:url(#SVGID_00000143606746451625648390000016663056498345609617_);}
	.st12{fill:url(#SVGID_00000062871903644822351600000006035665438449382811_);}
	.st13{fill:url(#SVGID_00000016777932177684408180000013212222684251935914_);}
	.st14{fill:url(#SVGID_00000035523669458007098370000016601548068392406690_);}
	.st15{fill:url(#SVGID_00000111156685228272025050000012046168969948148394_);}
	.st16{fill:url(#SVGID_00000103252641682910623800000001931628281068828037_);}
	.st17{fill:url(#SVGID_00000069398204839936076820000015287020927262585745_);}
	.st18{fill:url(#SVGID_00000057869956606314050630000014346457135002477502_);}
	.st19{fill:url(#SVGID_00000003098729309492518850000016593400244035317932_);}
</style>
<g>
	<g>
		<g>
			<linearGradient id="SVGID_1_" gradientUnits="userSpaceOnUse" x1="82.8875" y1="88.7989" x2="25.5038" y2="27.5153">
				<stop  offset="0.4" style="stop-color:#F39800"/>
				<stop  offset="0.9039" style="stop-color:#C42D1B"/>
			</linearGradient>
			<path class="st0" d="M68.1,81H56.4c-0.4,0-0.8-0.4-0.8-0.8s0.4-0.8,0.8-0.8h11.7c5.4,0,9.8-4.4,9.8-9.8v-4.9
				c0-0.4,0.4-0.8,0.8-0.8c0.4,0,0.8,0.4,0.8,0.8v4.9C79.5,75.9,74.4,81,68.1,81z"/>
		</g>
		<g>
			
				<linearGradient id="SVGID_00000061474037970419280170000010858869493972468911_" gradientUnits="userSpaceOnUse" x1="89.059" y1="83.0201" x2="31.6753" y2="21.7365">
				<stop  offset="0.4" style="stop-color:#F39800"/>
				<stop  offset="0.9039" style="stop-color:#C42D1B"/>
			</linearGradient>
			<path style="fill:url(#SVGID_00000061474037970419280170000010858869493972468911_);" d="M78.7,48c-0.4,0-0.8-0.4-0.8-0.8V47
				c0-12.3-13-22.4-29-22.4c-16,0-29,10-29,22.4v0c0,0.4-0.4,0.8-0.8,0.8c-0.4,0-0.8-0.4-0.8-0.8v-1.9c0-16.9,13.7-30.6,30.6-30.6
				s30.6,13.7,30.6,30.6v2.1C79.5,47.6,79.2,48,78.7,48z M48.9,23c12.4,0,23.1,5.8,27.9,14.1c-3.5-12.1-14.6-21-27.9-21
				c-13.2,0-24.4,8.9-27.9,21C25.9,28.8,36.6,23,48.9,23z"/>
		</g>
	</g>
	<g>
		<g>
			
				<linearGradient id="SVGID_00000085949467472980466600000002972607819703797136_" gradientUnits="userSpaceOnUse" x1="80.2396" y1="91.2783" x2="22.8559" y2="29.9947">
				<stop  offset="0.4" style="stop-color:#F39800"/>
				<stop  offset="0.9039" style="stop-color:#C42D1B"/>
			</linearGradient>
			<path style="fill:url(#SVGID_00000085949467472980466600000002972607819703797136_);" d="M48.9,62.9c-0.4,0-0.8-0.4-0.8-0.8v-8.5
				c0-0.4,0.4-0.8,0.8-0.8s0.8,0.4,0.8,0.8v8.5C49.7,62.6,49.4,62.9,48.9,62.9z"/>
		</g>
		<g>
			
				<linearGradient id="SVGID_00000015339004939018198560000002515833309128412804_" gradientUnits="userSpaceOnUse" x1="78.1176" y1="93.2653" x2="20.7339" y2="31.9817">
				<stop  offset="0.4" style="stop-color:#F39800"/>
				<stop  offset="0.9039" style="stop-color:#C42D1B"/>
			</linearGradient>
			<path style="fill:url(#SVGID_00000015339004939018198560000002515833309128412804_);" d="M50.5,62.9h-3.2c-0.4,0-0.8-0.4-0.8-0.8
				c0-0.4,0.4-0.8,0.8-0.8h3.2c0.4,0,0.8,0.4,0.8,0.8C51.3,62.6,51,62.9,50.5,62.9z"/>
		</g>
		<g>
			
				<linearGradient id="SVGID_00000098918533508527583740000005388147502486159289_" gradientUnits="userSpaceOnUse" x1="82.3616" y1="89.2913" x2="24.9779" y2="28.0077">
				<stop  offset="0.4" style="stop-color:#F39800"/>
				<stop  offset="0.9039" style="stop-color:#C42D1B"/>
			</linearGradient>
			<path style="fill:url(#SVGID_00000098918533508527583740000005388147502486159289_);" d="M50.5,54.4h-3.2c-0.4,0-0.8-0.4-0.8-0.8
				s0.4-0.8,0.8-0.8h3.2c0.4,0,0.8,0.4,0.8,0.8S51,54.4,50.5,54.4z"/>
		</g>
		<g>
			
				<linearGradient id="SVGID_00000106138373312454453860000002417195267922725050_" gradientUnits="userSpaceOnUse" x1="83.9534" y1="87.8008" x2="26.5697" y2="26.5173">
				<stop  offset="0.4" style="stop-color:#F39800"/>
				<stop  offset="0.9039" style="stop-color:#C42D1B"/>
			</linearGradient>
			<path style="fill:url(#SVGID_00000106138373312454453860000002417195267922725050_);" d="M50,50.4c0,0.6-0.5,1.1-1.1,1.1
				c-0.6,0-1.1-0.5-1.1-1.1c0-0.6,0.5-1.1,1.1-1.1C49.5,49.4,50,49.8,50,50.4z"/>
		</g>
	</g>
	<g>
		<g>
			
				<linearGradient id="SVGID_00000086684565107956016060000007242541242443052735_" gradientUnits="userSpaceOnUse" x1="69.098" y1="101.7109" x2="11.7143" y2="40.4273">
				<stop  offset="0.4" style="stop-color:#F39800"/>
				<stop  offset="0.9039" style="stop-color:#C42D1B"/>
			</linearGradient>
			<path style="fill:url(#SVGID_00000086684565107956016060000007242541242443052735_);" d="M53.2,84.2h-8.5c-2.2,0-4-1.8-4-4
				c0-2.2,1.8-4,4-4h8.5c2.2,0,4,1.8,4,4C57.2,82.4,55.4,84.2,53.2,84.2z M44.7,77.8c-1.3,0-2.4,1.1-2.4,2.4c0,1.3,1.1,2.4,2.4,2.4
				h8.5c1.3,0,2.4-1.1,2.4-2.4c0-1.3-1.1-2.4-2.4-2.4H44.7z"/>
		</g>
		<g>
			
				<linearGradient id="SVGID_00000107578590461662839480000003980390262495938730_" gradientUnits="userSpaceOnUse" x1="79.6529" y1="91.8277" x2="22.2692" y2="30.5441">
				<stop  offset="0.4" style="stop-color:#F39800"/>
				<stop  offset="0.9039" style="stop-color:#C42D1B"/>
			</linearGradient>
			<path style="fill:url(#SVGID_00000107578590461662839480000003980390262495938730_);" d="M39.4,73.5c-0.1,0-0.2,0-0.3-0.1
				c-0.3-0.1-0.5-0.4-0.5-0.7V46.2c0-1.6,1.3-2.9,2.9-2.9h14.9c1.6,0,2.9,1.3,2.9,2.9v19.1c0,1.6-1.3,2.9-2.9,2.9h-10l-6.5,5.1
				C39.7,73.5,39.6,73.5,39.4,73.5z M41.5,44.8c-0.7,0-1.3,0.6-1.3,1.3v24.9l5.4-4.3c0.1-0.1,0.3-0.2,0.5-0.2h10.3
				c0.7,0,1.3-0.6,1.3-1.3V46.2c0-0.7-0.6-1.3-1.3-1.3H41.5z"/>
		</g>
		<g>
			
				<linearGradient id="SVGID_00000043441221298017625660000004866561122236657032_" gradientUnits="userSpaceOnUse" x1="70.5351" y1="100.3652" x2="13.1514" y2="39.0816">
				<stop  offset="0.4" style="stop-color:#F39800"/>
				<stop  offset="0.9039" style="stop-color:#C42D1B"/>
			</linearGradient>
			<path style="fill:url(#SVGID_00000043441221298017625660000004866561122236657032_);" d="M29.8,69.3h-2.1c-1.6,0-2.9-1.3-2.9-2.9
				V45.1c0-1.6,1.3-2.9,2.9-2.9h2.1c1.6,0,2.9,1.3,2.9,2.9v21.3C32.7,68,31.4,69.3,29.8,69.3z M27.7,43.8c-0.7,0-1.3,0.6-1.3,1.3
				v21.3c0,0.7,0.6,1.3,1.3,1.3h2.1c0.7,0,1.3-0.6,1.3-1.3V45.1c0-0.7-0.6-1.3-1.3-1.3H27.7z"/>
		</g>
		<g>
			
				<linearGradient id="SVGID_00000080898174489302634050000009672154594142780591_" gradientUnits="userSpaceOnUse" x1="92.0666" y1="80.2039" x2="34.6829" y2="18.9204">
				<stop  offset="0.4" style="stop-color:#F39800"/>
				<stop  offset="0.9039" style="stop-color:#C42D1B"/>
			</linearGradient>
			<path style="fill:url(#SVGID_00000080898174489302634050000009672154594142780591_);" d="M70.2,69.3h-2.1c-1.6,0-2.9-1.3-2.9-2.9
				V45.1c0-1.6,1.3-2.9,2.9-2.9h2.1c1.6,0,2.9,1.3,2.9,2.9v21.3C73.1,68,71.8,69.3,70.2,69.3z M68.1,43.8c-0.7,0-1.3,0.6-1.3,1.3
				v21.3c0,0.7,0.6,1.3,1.3,1.3h2.1c0.7,0,1.3-0.6,1.3-1.3V45.1c0-0.7-0.6-1.3-1.3-1.3H68.1z"/>
		</g>
		<g>
			
				<linearGradient id="SVGID_00000011709525384455835760000011476925621741771702_" gradientUnits="userSpaceOnUse" x1="94.9924" y1="77.4643" x2="37.6087" y2="16.1807">
				<stop  offset="0.4" style="stop-color:#F39800"/>
				<stop  offset="0.9039" style="stop-color:#C42D1B"/>
			</linearGradient>
			<path style="fill:url(#SVGID_00000011709525384455835760000011476925621741771702_);" d="M72.3,67.2c-0.4,0-0.8-0.4-0.8-0.8V45.1
				c0-0.4,0.4-0.8,0.8-0.8c6.3,0,11.4,5.1,11.4,11.4S78.6,67.2,72.3,67.2z M73.1,45.9v19.6c5.1-0.4,9-4.6,9-9.8S78.2,46.3,73.1,45.9
				z"/>
		</g>
		<g>
			
				<linearGradient id="SVGID_00000070817159563088129830000002019932527819058088_" gradientUnits="userSpaceOnUse" x1="67.608" y1="103.1061" x2="10.2242" y2="41.8225">
				<stop  offset="0.4" style="stop-color:#F39800"/>
				<stop  offset="0.9039" style="stop-color:#C42D1B"/>
			</linearGradient>
			<path style="fill:url(#SVGID_00000070817159563088129830000002019932527819058088_);" d="M25.5,67.2c-6.3,0-11.4-5.1-11.4-11.4
				s5.1-11.4,11.4-11.4c0.4,0,0.8,0.4,0.8,0.8v21.3C26.3,66.8,26,67.2,25.5,67.2z M24.8,45.9c-5.1,0.4-9,4.6-9,9.8s4,9.4,9,9.8V45.9
				z"/>
		</g>
	</g>
	<g>
		
			<linearGradient id="SVGID_00000096056363973886949550000010193385419660051076_" gradientUnits="userSpaceOnUse" x1="84.7722" y1="87.0342" x2="27.3884" y2="25.7506">
			<stop  offset="0.4" style="stop-color:#F39800"/>
			<stop  offset="0.9039" style="stop-color:#C42D1B"/>
		</linearGradient>
		<path style="fill:url(#SVGID_00000096056363973886949550000010193385419660051076_);" d="M38.7,36.3h-4.3c-0.4,0-0.8-0.4-0.8-0.8
			c0-0.4,0.4-0.8,0.8-0.8h4.3c0.4,0,0.8,0.4,0.8,0.8C39.5,36,39.1,36.3,38.7,36.3z"/>
	</g>
	<g>
		
			<linearGradient id="SVGID_00000170966952246919431620000004145931897217982850_" gradientUnits="userSpaceOnUse" x1="84.7722" y1="87.0342" x2="27.3885" y2="25.7506">
			<stop  offset="0.4" style="stop-color:#F39800"/>
			<stop  offset="0.9039" style="stop-color:#C42D1B"/>
		</linearGradient>
		<path style="fill:url(#SVGID_00000170966952246919431620000004145931897217982850_);" d="M36.5,38.5c-0.4,0-0.8-0.4-0.8-0.8v-4.3
			c0-0.4,0.4-0.8,0.8-0.8c0.4,0,0.8,0.4,0.8,0.8v4.3C37.3,38.1,37,38.5,36.5,38.5z"/>
	</g>
	<g>
		
			<linearGradient id="SVGID_00000035521319801660609850000015780575676987058593_" gradientUnits="userSpaceOnUse" x1="57.9038" y1="112.1927" x2="0.5201" y2="50.9091">
			<stop  offset="0.4" style="stop-color:#F39800"/>
			<stop  offset="0.9039" style="stop-color:#C42D1B"/>
		</linearGradient>
		<path style="fill:url(#SVGID_00000035521319801660609850000015780575676987058593_);" d="M26.1,76.7h-4.3c-0.4,0-0.8-0.4-0.8-0.8
			s0.4-0.8,0.8-0.8h4.3c0.4,0,0.8,0.4,0.8,0.8S26.5,76.7,26.1,76.7z"/>
	</g>
	<g>
		
			<linearGradient id="SVGID_00000144306944902352227750000008856748960929207474_" gradientUnits="userSpaceOnUse" x1="57.9038" y1="112.1927" x2="0.5201" y2="50.9091">
			<stop  offset="0.4" style="stop-color:#F39800"/>
			<stop  offset="0.9039" style="stop-color:#C42D1B"/>
		</linearGradient>
		<path style="fill:url(#SVGID_00000144306944902352227750000008856748960929207474_);" d="M24,78.9c-0.4,0-0.8-0.4-0.8-0.8v-4.3
			c0-0.4,0.4-0.8,0.8-0.8c0.4,0,0.8,0.4,0.8,0.8v4.3C24.8,78.5,24.4,78.9,24,78.9z"/>
	</g>
	<g>
		
			<linearGradient id="SVGID_00000150093306302914835470000012776993910362280607_" gradientUnits="userSpaceOnUse" x1="114.1264" y1="59.5479" x2="56.7427" y2="-1.7357">
			<stop  offset="0.4" style="stop-color:#F39800"/>
			<stop  offset="0.9039" style="stop-color:#C42D1B"/>
		</linearGradient>
		<path style="fill:url(#SVGID_00000150093306302914835470000012776993910362280607_);" d="M78.7,20.3h-4.3c-0.4,0-0.8-0.4-0.8-0.8
			c0-0.4,0.4-0.8,0.8-0.8h4.3c0.4,0,0.8,0.4,0.8,0.8C79.5,19.9,79.2,20.3,78.7,20.3z"/>
	</g>
	<g>
		
			<linearGradient id="SVGID_00000079477855667140085780000013453334980877562780_" gradientUnits="userSpaceOnUse" x1="114.1264" y1="59.5479" x2="56.7427" y2="-1.7357">
			<stop  offset="0.4" style="stop-color:#F39800"/>
			<stop  offset="0.9039" style="stop-color:#C42D1B"/>
		</linearGradient>
		<path style="fill:url(#SVGID_00000079477855667140085780000013453334980877562780_);" d="M76.6,22.4c-0.4,0-0.8-0.4-0.8-0.8v-4.3
			c0-0.4,0.4-0.8,0.8-0.8c0.4,0,0.8,0.4,0.8,0.8v4.3C77.4,22,77,22.4,76.6,22.4z"/>
	</g>
	<g>
		
			<linearGradient id="SVGID_00000006702119749005962730000007384568028534951310_" gradientUnits="userSpaceOnUse" x1="97.1494" y1="75.4446" x2="39.7657" y2="14.161">
			<stop  offset="0.4" style="stop-color:#F39800"/>
			<stop  offset="0.9039" style="stop-color:#C42D1B"/>
		</linearGradient>
		<path style="fill:url(#SVGID_00000006702119749005962730000007384568028534951310_);" d="M64.3,38.9h-4.3c-0.4,0-0.8-0.4-0.8-0.8
			s0.4-0.8,0.8-0.8h4.3c0.4,0,0.8,0.4,0.8,0.8S64.8,38.9,64.3,38.9z"/>
	</g>
	<g>
		
			<linearGradient id="SVGID_00000099642123158843304440000000926285420621790348_" gradientUnits="userSpaceOnUse" x1="97.1494" y1="75.4446" x2="39.7657" y2="14.161">
			<stop  offset="0.4" style="stop-color:#F39800"/>
			<stop  offset="0.9039" style="stop-color:#C42D1B"/>
		</linearGradient>
		<path style="fill:url(#SVGID_00000099642123158843304440000000926285420621790348_);" d="M62.2,41c-0.4,0-0.8-0.4-0.8-0.8V36
			c0-0.4,0.4-0.8,0.8-0.8c0.4,0,0.8,0.4,0.8,0.8v4.3C63,40.7,62.6,41,62.2,41z"/>
	</g>
</g>
</svg>
