<?xml version="1.0" encoding="utf-8"?>
<!-- Generator: Adobe Illustrator 27.0.1, SVG Export Plug-In . SVG Version: 6.00 Build 0)  -->
<svg version="1.1" id="圖層_1" xmlns="http://www.w3.org/2000/svg" xmlns:xlink="http://www.w3.org/1999/xlink" x="0px" y="0px"
	 viewBox="0 0 100 100" style="enable-background:new 0 0 100 100;" xml:space="preserve">
<style type="text/css">
	.st0{fill:url(#SVGID_1_);}
	.st1{fill:url(#SVGID_00000133509154451794551710000002665470813694337455_);}
	.st2{fill:url(#SVGID_00000083078208261678714780000016309885218068967321_);}
	.st3{fill:url(#SVGID_00000105390547642285930990000011409473933886838916_);}
	.st4{fill:url(#SVGID_00000183237095121078080420000004691025400998596006_);}
	.st5{fill:url(#SVGID_00000134961876019796869180000015583759293094555045_);}
	.st6{fill:url(#SVGID_00000149343026552935090050000008584309441455324079_);}
	.st7{fill:url(#SVGID_00000114064877964029010580000013350012233788656540_);}
	.st8{fill:url(#SVGID_00000182487593237080971590000001722260155846499502_);}
	.st9{fill:url(#SVGID_00000052823987016851947070000016462043200766990267_);}
	.st10{fill:url(#SVGID_00000170255853646426018430000003645214765796958885_);}
	.st11{fill:url(#SVGID_00000051372396156768664260000014580162301797235356_);}
	.st12{fill:url(#SVGID_00000145029726205133750670000006556148458858529965_);}
	.st13{fill:url(#SVGID_00000065776669334851509900000008878806296147615385_);}
	.st14{fill:url(#SVGID_00000016043396506618801680000002971412109830446473_);}
	.st15{fill:url(#SVGID_00000173867946086545260870000008609219976790463898_);}
	.st16{fill:url(#SVGID_00000018944495135675625630000017163381652211004291_);}
	.st17{fill:url(#SVGID_00000152249245546999453990000006912611833882849685_);}
	.st18{fill:url(#SVGID_00000064353740530175090080000016166667168811053750_);}
	.st19{fill:url(#SVGID_00000133495431256905694920000010927862675975459503_);}
	.st20{fill:url(#SVGID_00000043449186766474038770000001677356263709440156_);}
	.st21{fill:url(#SVGID_00000088119577118942190420000005778812223013711255_);}
	.st22{fill:url(#SVGID_00000041254065964083383160000002808831351466666932_);}
	.st23{fill:url(#SVGID_00000034773261645054336700000003677379481102916508_);}
</style>
<g>
	<g>
		<linearGradient id="SVGID_1_" gradientUnits="userSpaceOnUse" x1="98.5408" y1="86.0082" x2="19.1508" y2="23.7496">
			<stop  offset="0.4" style="stop-color:#F39800"/>
			<stop  offset="0.9039" style="stop-color:#C42D1B"/>
		</linearGradient>
		<path class="st0" d="M84.3,75v-0.3c0,0,0,0,0,0C84.3,74.8,84.3,74.9,84.3,75z"/>
	</g>
	<g>
		
			<linearGradient id="SVGID_00000171693031705534049700000009936181164038826392_" gradientUnits="userSpaceOnUse" x1="112.0068" y1="68.8369" x2="32.6167" y2="6.5783">
			<stop  offset="0.4" style="stop-color:#F39800"/>
			<stop  offset="0.9039" style="stop-color:#C42D1B"/>
		</linearGradient>
		<path style="fill:url(#SVGID_00000171693031705534049700000009936181164038826392_);" d="M84.3,75.8c-0.4,0-0.8-0.4-0.8-0.8
			c0-4.3-3.5-7.8-7.8-7.8c-0.4,0-0.8-0.4-0.8-0.8V14.8c0-0.4,0.4-0.8,0.8-0.8c5.2,0,9.4,4.2,9.4,9.4V75
			C85.1,75.4,84.7,75.8,84.3,75.8z M76.5,65.6c2.9,0.2,5.4,1.8,7,4.1V23.4c0-4-3.1-7.3-7-7.7V65.6z"/>
	</g>
	<g>
		
			<linearGradient id="SVGID_00000087399285357591440430000014285375002896158121_" gradientUnits="userSpaceOnUse" x1="116.8214" y1="62.6973" x2="37.4314" y2="0.4388">
			<stop  offset="0.4" style="stop-color:#F39800"/>
			<stop  offset="0.9039" style="stop-color:#C42D1B"/>
		</linearGradient>
		<path style="fill:url(#SVGID_00000087399285357591440430000014285375002896158121_);" d="M58.5,19.9c-0.4,0-0.8-0.4-0.8-0.8v-4.3
			c0-0.4,0.4-0.8,0.8-0.8s0.8,0.4,0.8,0.8v4.3C59.3,19.6,59,19.9,58.5,19.9z"/>
	</g>
	<g>
		
			<linearGradient id="SVGID_00000180345053758696385030000012087759328751333556_" gradientUnits="userSpaceOnUse" x1="116.8214" y1="62.6973" x2="37.4314" y2="0.4388">
			<stop  offset="0.4" style="stop-color:#F39800"/>
			<stop  offset="0.9039" style="stop-color:#C42D1B"/>
		</linearGradient>
		<path style="fill:url(#SVGID_00000180345053758696385030000012087759328751333556_);" d="M60.7,17.8h-4.3c-0.4,0-0.8-0.4-0.8-0.8
			s0.4-0.8,0.8-0.8h4.3c0.4,0,0.8,0.4,0.8,0.8S61.1,17.8,60.7,17.8z"/>
	</g>
	<g>
		
			<linearGradient id="SVGID_00000104675775118480016790000012367099349987351737_" gradientUnits="userSpaceOnUse" x1="114.3677" y1="65.8263" x2="34.9776" y2="3.5677">
			<stop  offset="0.4" style="stop-color:#F39800"/>
			<stop  offset="0.9039" style="stop-color:#C42D1B"/>
		</linearGradient>
		<circle style="fill:url(#SVGID_00000104675775118480016790000012367099349987351737_);" cx="52.1" cy="17" r="0.8"/>
	</g>
	<g>
		
			<linearGradient id="SVGID_00000067926802059140185150000007729436460951708554_" gradientUnits="userSpaceOnUse" x1="113.1409" y1="67.3906" x2="33.7508" y2="5.1321">
			<stop  offset="0.4" style="stop-color:#F39800"/>
			<stop  offset="0.9039" style="stop-color:#C42D1B"/>
		</linearGradient>
		<path style="fill:url(#SVGID_00000067926802059140185150000007729436460951708554_);" d="M48.9,16.2c0.4,0,0.8,0.4,0.8,0.8
			s-0.4,0.8-0.8,0.8c-0.4,0-0.8-0.4-0.8-0.8S48.4,16.2,48.9,16.2z"/>
	</g>
	<g>
		
			<linearGradient id="SVGID_00000070095417758763995190000016598279392983432845_" gradientUnits="userSpaceOnUse" x1="111.505" y1="69.4767" x2="32.1149" y2="7.2182">
			<stop  offset="0.4" style="stop-color:#F39800"/>
			<stop  offset="0.9039" style="stop-color:#C42D1B"/>
		</linearGradient>
		<path style="fill:url(#SVGID_00000070095417758763995190000016598279392983432845_);" d="M44.6,16.2c0.4,0,0.8,0.4,0.8,0.8
			s-0.4,0.8-0.8,0.8c-0.4,0-0.8-0.4-0.8-0.8S44.1,16.2,44.6,16.2z"/>
	</g>
	<g>
		
			<linearGradient id="SVGID_00000114046039791584750270000011319000134934428078_" gradientUnits="userSpaceOnUse" x1="109.0513" y1="72.6056" x2="29.6612" y2="10.3471">
			<stop  offset="0.4" style="stop-color:#F39800"/>
			<stop  offset="0.9039" style="stop-color:#C42D1B"/>
		</linearGradient>
		<circle style="fill:url(#SVGID_00000114046039791584750270000011319000134934428078_);" cx="38.1" cy="17" r="0.8"/>
	</g>
	<g>
		
			<linearGradient id="SVGID_00000177454347417483509470000013789249888146411924_" gradientUnits="userSpaceOnUse" x1="74.0631" y1="117.2214" x2="-5.327" y2="54.9629">
			<stop  offset="0.4" style="stop-color:#F39800"/>
			<stop  offset="0.9039" style="stop-color:#C42D1B"/>
		</linearGradient>
		<path style="fill:url(#SVGID_00000177454347417483509470000013789249888146411924_);" d="M30.4,80.1h-9.4c-0.4,0-0.8-0.4-0.8-0.8
			c0-0.4,0.4-0.8,0.8-0.8h9.4c0.4,0,0.8,0.4,0.8,0.8C31.2,79.7,30.8,80.1,30.4,80.1z"/>
	</g>
	<g>
		
			<linearGradient id="SVGID_00000004539202299636426930000012056361908709368747_" gradientUnits="userSpaceOnUse" x1="77.9477" y1="112.2679" x2="-1.4423" y2="50.0093">
			<stop  offset="0.4" style="stop-color:#F39800"/>
			<stop  offset="0.9039" style="stop-color:#C42D1B"/>
		</linearGradient>
		<path style="fill:url(#SVGID_00000004539202299636426930000012056361908709368747_);" d="M37,80.1h-2.4c-0.4,0-0.8-0.4-0.8-0.8
			c0-0.4,0.4-0.8,0.8-0.8H37c0.4,0,0.8,0.4,0.8,0.8C37.9,79.7,37.5,80.1,37,80.1z"/>
	</g>
	<g>
		
			<linearGradient id="SVGID_00000127014893068905548870000002512024717661297562_" gradientUnits="userSpaceOnUse" x1="94.5739" y1="91.0667" x2="15.1838" y2="28.8082">
			<stop  offset="0.4" style="stop-color:#F39800"/>
			<stop  offset="0.9039" style="stop-color:#C42D1B"/>
		</linearGradient>
		<path style="fill:url(#SVGID_00000127014893068905548870000002512024717661297562_);" d="M78.9,77.9h-4.3c-0.4,0-0.8-0.4-0.8-0.8
			c0-0.4,0.4-0.8,0.8-0.8h4.3c0.4,0,0.8,0.4,0.8,0.8C79.7,77.6,79.4,77.9,78.9,77.9z"/>
	</g>
	<g>
		
			<linearGradient id="SVGID_00000018942754070916761440000001705826030946589102_" gradientUnits="userSpaceOnUse" x1="94.5739" y1="91.0667" x2="15.1838" y2="28.8082">
			<stop  offset="0.4" style="stop-color:#F39800"/>
			<stop  offset="0.9039" style="stop-color:#C42D1B"/>
		</linearGradient>
		<path style="fill:url(#SVGID_00000018942754070916761440000001705826030946589102_);" d="M76.8,80.1c-0.4,0-0.8-0.4-0.8-0.8V75
			c0-0.4,0.4-0.8,0.8-0.8c0.4,0,0.8,0.4,0.8,0.8v4.3C77.6,79.7,77.2,80.1,76.8,80.1z"/>
	</g>
	<g>
		
			<linearGradient id="SVGID_00000124863582206948960280000007690448231978631066_" gradientUnits="userSpaceOnUse" x1="92.979" y1="93.1005" x2="13.5889" y2="30.842">
			<stop  offset="0.4" style="stop-color:#F39800"/>
			<stop  offset="0.9039" style="stop-color:#C42D1B"/>
		</linearGradient>
		<path style="fill:url(#SVGID_00000124863582206948960280000007690448231978631066_);" d="M69.3,73.6H65c-0.4,0-0.8-0.4-0.8-0.8
			c0-0.4,0.4-0.8,0.8-0.8h4.3c0.4,0,0.8,0.4,0.8,0.8C70.1,73.3,69.7,73.6,69.3,73.6z"/>
	</g>
	<g>
		
			<linearGradient id="SVGID_00000049215312670168845470000006312312527209803433_" gradientUnits="userSpaceOnUse" x1="92.979" y1="93.1005" x2="13.5889" y2="30.842">
			<stop  offset="0.4" style="stop-color:#F39800"/>
			<stop  offset="0.9039" style="stop-color:#C42D1B"/>
		</linearGradient>
		<path style="fill:url(#SVGID_00000049215312670168845470000006312312527209803433_);" d="M67.1,75.8c-0.4,0-0.8-0.4-0.8-0.8v-4.3
			c0-0.4,0.4-0.8,0.8-0.8c0.4,0,0.8,0.4,0.8,0.8V75C67.9,75.4,67.6,75.8,67.1,75.8z"/>
	</g>
	<g>
		
			<linearGradient id="SVGID_00000070834920229845374080000011815532176262124219_" gradientUnits="userSpaceOnUse" x1="98.2983" y1="86.3174" x2="18.9082" y2="24.0589">
			<stop  offset="0.4" style="stop-color:#F39800"/>
			<stop  offset="0.9039" style="stop-color:#C42D1B"/>
		</linearGradient>
		<path style="fill:url(#SVGID_00000070834920229845374080000011815532176262124219_);" d="M28.5,30.7h-4.3c-0.4,0-0.8-0.4-0.8-0.8
			c0-0.4,0.4-0.8,0.8-0.8h4.3c0.4,0,0.8,0.4,0.8,0.8C29.3,30.3,28.9,30.7,28.5,30.7z"/>
	</g>
	<g>
		
			<linearGradient id="SVGID_00000163776504457311781990000010083370693355976861_" gradientUnits="userSpaceOnUse" x1="98.2983" y1="86.3174" x2="18.9082" y2="24.0589">
			<stop  offset="0.4" style="stop-color:#F39800"/>
			<stop  offset="0.9039" style="stop-color:#C42D1B"/>
		</linearGradient>
		<path style="fill:url(#SVGID_00000163776504457311781990000010083370693355976861_);" d="M26.3,32.8c-0.4,0-0.8-0.4-0.8-0.8v-4.3
			c0-0.4,0.4-0.8,0.8-0.8c0.4,0,0.8,0.4,0.8,0.8V32C27.1,32.5,26.8,32.8,26.3,32.8z"/>
	</g>
	<g>
		
			<linearGradient id="SVGID_00000051379836276830591810000005086229480492469677_" gradientUnits="userSpaceOnUse" x1="94.1868" y1="91.5603" x2="14.7968" y2="29.3017">
			<stop  offset="0.4" style="stop-color:#F39800"/>
			<stop  offset="0.9039" style="stop-color:#C42D1B"/>
		</linearGradient>
		<path style="fill:url(#SVGID_00000051379836276830591810000005086229480492469677_);" d="M47.4,77.9h-3.5c-1.1,0-2-0.9-2-2v-2.5
			c-1-0.2-2-0.5-3-0.8l-1.2,2.2c-0.5,0.9-1.8,1.3-2.7,0.7l-3.1-1.8c-0.5-0.3-0.8-0.7-0.9-1.2c-0.1-0.5-0.1-1,0.2-1.5l1.3-2.2
			c-0.8-0.7-1.5-1.4-2.2-2.2L28.1,68c-0.9,0.5-2.2,0.2-2.7-0.7l-1.8-3.1c-0.5-1-0.2-2.2,0.7-2.7l2.2-1.2c-0.3-1-0.6-2-0.8-3h-2.5
			c-1.1,0-2-0.9-2-2v-3.5c0-1.1,0.9-2,2-2h2.5c0.2-1,0.5-2,0.8-3l-2.2-1.2c-0.5-0.3-0.8-0.7-0.9-1.2c-0.1-0.5-0.1-1,0.2-1.5l1.8-3.1
			c0.5-0.9,1.8-1.3,2.7-0.7l2.2,1.3c0.7-0.8,1.4-1.5,2.2-2.2l-1.3-2.2c-0.5-0.9-0.2-2.2,0.7-2.7l3.1-1.8c0.5-0.3,1-0.3,1.5-0.2
			c0.5,0.1,0.9,0.5,1.2,0.9l1.2,2.2c1-0.3,2-0.6,3-0.8V31c0-1.1,0.9-2,2-2h3.5c1.1,0,2,0.9,2,2v2.5c1,0.2,2,0.5,3,0.8l1.2-2.2
			c0.5-0.9,1.8-1.3,2.7-0.7l3.1,1.8c0.9,0.5,1.3,1.8,0.7,2.7l-1.3,2.2c0.8,0.7,1.5,1.4,2.2,2.2l2.2-1.3c0.9-0.5,2.2-0.2,2.7,0.7
			l1.8,3.1c0.3,0.5,0.3,1,0.2,1.5c-0.1,0.5-0.5,0.9-0.9,1.2l-2.2,1.2c0.3,1,0.6,2,0.8,3h2.5c1.1,0,2,0.9,2,2v3.5c0,1.1-0.9,2-2,2
			h-2.5c-0.2,1-0.5,2-0.8,3l2.2,1.2c0.9,0.5,1.3,1.8,0.7,2.7l-1.8,3.1c-0.5,1-1.8,1.3-2.7,0.7L61,66.7c-0.7,0.8-1.4,1.5-2.2,2.2
			l1.3,2.2c0.3,0.5,0.3,1,0.2,1.5c-0.1,0.5-0.5,0.9-0.9,1.2l-3.1,1.8c-0.9,0.5-2.2,0.2-2.7-0.7l-1.2-2.2c-1,0.3-2,0.6-3,0.8v2.5
			C49.4,77,48.5,77.9,47.4,77.9z M38.6,70.8c0.1,0,0.2,0,0.3,0.1c1.3,0.5,2.6,0.9,4,1.1c0.4,0.1,0.7,0.4,0.7,0.8v3.2
			c0,0.2,0.2,0.4,0.4,0.4h3.5c0.2,0,0.4-0.2,0.4-0.4v-3.2c0-0.4,0.3-0.7,0.7-0.8c1.3-0.2,2.7-0.6,4-1.1c0.4-0.1,0.8,0,1,0.3L55,74
			c0.1,0.2,0.3,0.2,0.5,0.1l3.1-1.8c0.1-0.1,0.2-0.2,0.2-0.2c0-0.1,0-0.2,0-0.3l-1.6-2.8c-0.2-0.3-0.1-0.8,0.2-1
			c1.1-0.9,2-1.8,2.9-2.9c0.2-0.3,0.7-0.4,1-0.2l2.8,1.6c0.2,0.1,0.4,0,0.5-0.1l1.8-3.1c0.1-0.2,0-0.4-0.1-0.5l-2.8-1.6
			c-0.3-0.2-0.5-0.6-0.3-1c0.5-1.3,0.9-2.6,1.1-3.9c0.1-0.4,0.4-0.7,0.8-0.7h3.2c0.2,0,0.4-0.2,0.4-0.4v-3.5c0-0.2-0.2-0.4-0.4-0.4
			h-3.2c-0.4,0-0.7-0.3-0.8-0.7c-0.2-1.3-0.6-2.7-1.1-3.9c-0.1-0.4,0-0.8,0.3-1l2.8-1.6c0.1-0.1,0.2-0.2,0.2-0.2c0-0.1,0-0.2,0-0.3
			l-1.8-3.1c-0.1-0.2-0.3-0.2-0.5-0.1L61.2,42c-0.3,0.2-0.8,0.1-1-0.2c-0.9-1.1-1.8-2-2.9-2.9c-0.3-0.2-0.4-0.7-0.2-1l1.6-2.8
			c0.1-0.2,0-0.4-0.1-0.5l-3.1-1.8c-0.2-0.1-0.4,0-0.5,0.1l-1.6,2.8c-0.2,0.3-0.6,0.5-1,0.3c-1.3-0.5-2.6-0.9-4-1.1
			c-0.4-0.1-0.7-0.4-0.7-0.8V31c0-0.2-0.2-0.4-0.4-0.4h-3.5c-0.2,0-0.4,0.2-0.4,0.4v3.2c0,0.4-0.3,0.7-0.7,0.8
			c-1.3,0.2-2.7,0.6-4,1.1c-0.4,0.1-0.8,0-1-0.3L36.3,33c-0.1-0.1-0.2-0.2-0.2-0.2c-0.1,0-0.2,0-0.3,0l-3.1,1.8
			c-0.2,0.1-0.2,0.3-0.1,0.5l1.6,2.8c0.2,0.3,0.1,0.8-0.2,1c-1.1,0.9-2,1.8-2.9,2.9c-0.2,0.3-0.7,0.4-1,0.2l-2.8-1.6
			c-0.2-0.1-0.4,0-0.5,0.1L25,43.6c-0.1,0.1-0.1,0.2,0,0.3c0,0.1,0.1,0.2,0.2,0.2l2.8,1.6c0.3,0.2,0.5,0.6,0.3,1
			c-0.5,1.3-0.9,2.6-1.1,3.9c-0.1,0.4-0.4,0.7-0.8,0.7h-3.2c-0.2,0-0.4,0.2-0.4,0.4v3.5c0,0.2,0.2,0.4,0.4,0.4h3.2
			c0.4,0,0.7,0.3,0.8,0.7c0.2,1.3,0.6,2.7,1.1,3.9c0.1,0.4,0,0.8-0.3,1l-2.8,1.6C25,62.9,25,63,25,63.1c0,0.1,0,0.2,0,0.3l1.8,3.1
			c0.1,0.2,0.3,0.2,0.5,0.1L30,65c0.3-0.2,0.8-0.1,1,0.2c0.9,1.1,1.8,2,2.9,2.9c0.3,0.2,0.4,0.7,0.2,1l-1.6,2.8
			c-0.1,0.1-0.1,0.2,0,0.3c0,0.1,0.1,0.2,0.2,0.2l3.1,1.8c0.2,0.1,0.4,0,0.5-0.1l1.6-2.8C38,71,38.3,70.8,38.6,70.8z"/>
	</g>
	<g>
		
			<linearGradient id="SVGID_00000183938633741541471610000015257579208780209798_" gradientUnits="userSpaceOnUse" x1="94.1867" y1="91.5604" x2="14.7967" y2="29.3019">
			<stop  offset="0.4" style="stop-color:#F39800"/>
			<stop  offset="0.9039" style="stop-color:#C42D1B"/>
		</linearGradient>
		<path style="fill:url(#SVGID_00000183938633741541471610000015257579208780209798_);" d="M45.6,67.2c-7.5,0-13.7-6.1-13.7-13.7
			c0-7.5,6.1-13.7,13.7-13.7c7.5,0,13.7,6.1,13.7,13.7C59.3,61,53.2,67.2,45.6,67.2z M45.6,41.4c-6.7,0-12.1,5.4-12.1,12.1
			S39,65.6,45.6,65.6c6.7,0,12.1-5.4,12.1-12.1S52.3,41.4,45.6,41.4z"/>
	</g>
	<g>
		
			<linearGradient id="SVGID_00000124847794270943909560000003226534739788252314_" gradientUnits="userSpaceOnUse" x1="97.2532" y1="87.6501" x2="17.8631" y2="25.3916">
			<stop  offset="0.4" style="stop-color:#F39800"/>
			<stop  offset="0.9039" style="stop-color:#C42D1B"/>
		</linearGradient>
		<path style="fill:url(#SVGID_00000124847794270943909560000003226534739788252314_);" d="M54.8,53.5c0,0.6-0.5,1.1-1.1,1.1
			c-0.6,0-1.1-0.5-1.1-1.1c0-0.6,0.5-1.1,1.1-1.1C54.3,52.4,54.8,52.9,54.8,53.5z"/>
	</g>
	<g>
		
			<linearGradient id="SVGID_00000101103346271393504930000006590878626913638531_" gradientUnits="userSpaceOnUse" x1="91.1188" y1="95.4726" x2="11.7287" y2="33.214">
			<stop  offset="0.4" style="stop-color:#F39800"/>
			<stop  offset="0.9039" style="stop-color:#C42D1B"/>
		</linearGradient>
		<path style="fill:url(#SVGID_00000101103346271393504930000006590878626913638531_);" d="M38.7,53.5c0,0.6-0.5,1.1-1.1,1.1
			c-0.6,0-1.1-0.5-1.1-1.1c0-0.6,0.5-1.1,1.1-1.1C38.2,52.4,38.7,52.9,38.7,53.5z"/>
	</g>
	<g>
		
			<linearGradient id="SVGID_00000142155929483019238100000009479880962260484794_" gradientUnits="userSpaceOnUse" x1="94.1866" y1="91.5606" x2="14.7965" y2="29.3021">
			<stop  offset="0.4" style="stop-color:#F39800"/>
			<stop  offset="0.9039" style="stop-color:#C42D1B"/>
		</linearGradient>
		<path style="fill:url(#SVGID_00000142155929483019238100000009479880962260484794_);" d="M45.6,61.1c-1.9,0-3.6-1.1-4.2-2.7
			c-0.2-0.4,0-0.9,0.4-1.1c0.4-0.2,0.9,0,1.1,0.4c0.4,1,1.5,1.7,2.8,1.7c1.6,0,2.9-1.2,2.9-2.6c0-1.2-0.5-2.6-3-2.6
			c-3.4,0-4.6-2.2-4.6-4.2c0-2.3,2-4.2,4.6-4.2c1.9,0,3.6,1.1,4.2,2.7c0.2,0.4,0,0.9-0.4,1.1c-0.4,0.2-0.9,0-1.1-0.4
			c-0.4-1-1.5-1.7-2.8-1.7c-1.6,0-2.9,1.2-2.9,2.6c0,1.2,0.5,2.6,2.9,2.6c3.4,0,4.6,2.2,4.6,4.2C50.2,59.2,48.2,61.1,45.6,61.1z"/>
	</g>
	<g>
		
			<linearGradient id="SVGID_00000131325051015789370130000000478479993666287522_" gradientUnits="userSpaceOnUse" x1="97.9497" y1="86.762" x2="18.5596" y2="24.5034">
			<stop  offset="0.4" style="stop-color:#F39800"/>
			<stop  offset="0.9039" style="stop-color:#C42D1B"/>
		</linearGradient>
		<path style="fill:url(#SVGID_00000131325051015789370130000000478479993666287522_);" d="M45.6,47.5c-0.4,0-0.8-0.4-0.8-0.8v-1.9
			c0-0.4,0.4-0.8,0.8-0.8c0.4,0,0.8,0.4,0.8,0.8v1.9C46.4,47.1,46.1,47.5,45.6,47.5z"/>
	</g>
	<g>
		
			<linearGradient id="SVGID_00000010295267546623547010000007556836015076073383_" gradientUnits="userSpaceOnUse" x1="90.4184" y1="96.3657" x2="11.0283" y2="34.1072">
			<stop  offset="0.4" style="stop-color:#F39800"/>
			<stop  offset="0.9039" style="stop-color:#C42D1B"/>
		</linearGradient>
		<path style="fill:url(#SVGID_00000010295267546623547010000007556836015076073383_);" d="M45.6,63c-0.4,0-0.8-0.4-0.8-0.8v-1.9
			c0-0.4,0.4-0.8,0.8-0.8c0.4,0,0.8,0.4,0.8,0.8v1.9C46.4,62.6,46.1,63,45.6,63z"/>
	</g>
	
		<linearGradient id="SVGID_00000110444307662058459250000010316382115877621895_" gradientUnits="userSpaceOnUse" x1="96.221" y1="88.9663" x2="16.8309" y2="26.7078">
		<stop  offset="0.4" style="stop-color:#F39800"/>
		<stop  offset="0.9039" style="stop-color:#C42D1B"/>
	</linearGradient>
	<path style="fill:url(#SVGID_00000110444307662058459250000010316382115877621895_);" d="M84.4,22.6v8.2h-0.9V75
		c0,4.3-3.5,7.8-7.8,7.8H18.8c-1.3,0-2.4-1.1-2.4-2.4V26.6c0-1.3,1.1-2.4,2.4-2.4h57v-1.6h-57c-2.2,0-4,1.8-4,4v53.7
		c0,2.2,1.8,4,4,4h56.9c5.2,0,9.4-4.2,9.4-9.4V23.4C85.1,23,84.8,22.7,84.4,22.6z"/>
</g>
</svg>
