<?xml version="1.0" encoding="utf-8"?>
<!-- Generator: Adobe Illustrator 27.0.1, SVG Export Plug-In . SVG Version: 6.00 Build 0)  -->
<svg version="1.1" id="圖層_1" xmlns="http://www.w3.org/2000/svg" xmlns:xlink="http://www.w3.org/1999/xlink" x="0px" y="0px"
	 viewBox="0 0 100 100" style="enable-background:new 0 0 100 100;" xml:space="preserve">
<style type="text/css">
	.st0{fill:url(#SVGID_1_);}
	.st1{fill:url(#SVGID_00000102542742093637503990000014916402477085472129_);}
	.st2{fill:url(#SVGID_00000158715899193653810090000007119812412817735868_);}
	.st3{fill:url(#SVGID_00000174592665850249595650000017735803629450830515_);}
	.st4{fill:url(#SVGID_00000155128990973848983020000007056332966706378887_);}
	.st5{fill:url(#SVGID_00000163791614393039167670000002129830514660199064_);}
	.st6{fill:url(#SVGID_00000009563769095987698920000005339518578207086255_);}
	.st7{fill:url(#SVGID_00000133523187765789809240000000322987585754983870_);}
	.st8{fill:url(#SVGID_00000129193221105254854550000006239578361846264759_);}
	.st9{fill:url(#SVGID_00000097500051903954028480000016017245615101405572_);}
	.st10{fill:url(#SVGID_00000115489152540983801410000000742197037761022091_);}
	.st11{fill:url(#SVGID_00000033342153713066496620000016726356689216622515_);}
	.st12{fill:url(#SVGID_00000101097833613320444440000011774189223618593178_);}
	.st13{fill:url(#SVGID_00000000908026185588080250000010694223914505112236_);}
	.st14{fill:url(#SVGID_00000109724851815260868000000002664534663721195952_);}
	.st15{fill:url(#SVGID_00000070092599252591633520000008364389034829509300_);}
	.st16{fill:url(#SVGID_00000060021712013008818500000010469485956146335929_);}
	.st17{fill:url(#SVGID_00000009552820130630290370000001082150261316892852_);}
	.st18{fill:url(#SVGID_00000126309109536070741640000002360631756509071551_);}
	.st19{fill:url(#SVGID_00000028290207844532159980000015336783094995291063_);}
	.st20{fill:url(#SVGID_00000165931353664440999270000005527735082055551618_);}
	.st21{fill:url(#SVGID_00000173847417177059109460000002656129901464132031_);}
	.st22{fill:url(#SVGID_00000115489653096162204490000003790247750603128449_);}
	.st23{fill:url(#SVGID_00000165220545429810699170000014280626547623976877_);}
	.st24{fill:url(#SVGID_00000080898929589224276300000006989775176594639799_);}
	.st25{fill:url(#SVGID_00000107571228248332397110000016834697446503315388_);}
	.st26{fill:url(#SVGID_00000016074187409817679490000008777830867755891074_);}
	.st27{fill:url(#SVGID_00000158733388876599189320000010642471792793060516_);}
	.st28{fill:url(#SVGID_00000003074954220828108760000013026312466211988151_);}
	.st29{fill:url(#SVGID_00000048495675113119335240000002242387656776424850_);}
	.st30{fill:url(#SVGID_00000080908562384598674130000008415171558128949158_);}
	.st31{fill:url(#SVGID_00000029028466609183205510000018259205787859673510_);}
	.st32{fill:url(#SVGID_00000036232853207024791280000010735723478021036184_);}
	.st33{fill:url(#SVGID_00000000197783399951873510000006629261790283665046_);}
	.st34{fill:url(#SVGID_00000010275285638246015160000017000573633423807623_);}
	.st35{fill:url(#SVGID_00000052084464583296669810000006181287411696520126_);}
</style>
<g>
	<g>
		<g>
			<linearGradient id="SVGID_1_" gradientUnits="userSpaceOnUse" x1="84.9493" y1="95.6524" x2="15.5874" y2="31.3047">
				<stop  offset="0.4" style="stop-color:#F39800"/>
				<stop  offset="0.9039" style="stop-color:#C42D1B"/>
			</linearGradient>
			<path class="st0" d="M61.3,76.9c2-0.4,3.8-0.8,5.5-1.2c-1.3,0-2.4,0-3.4-0.1C63,76.1,62.3,76.5,61.3,76.9z"/>
		</g>
		<g>
			
				<linearGradient id="SVGID_00000000224389808461089230000013554755255472283022_" gradientUnits="userSpaceOnUse" x1="80.1225" y1="100.8554" x2="10.7606" y2="36.5076">
				<stop  offset="0.4" style="stop-color:#F39800"/>
				<stop  offset="0.9039" style="stop-color:#C42D1B"/>
			</linearGradient>
			<path style="fill:url(#SVGID_00000000224389808461089230000013554755255472283022_);" d="M46.9,87.6c-13,0-22.7-3.2-22.9-3.3
				c-0.3-0.1-0.6-0.4-0.6-0.8V63.9c0-0.2,0.1-0.4,0.2-0.6c0.2-0.2,0.4-0.2,0.6-0.2c16.5,0.1,19.3,1.7,21.8,3.1c2,1.2,3.8,2.2,14,2.1
				c0.1,0,2.1-0.1,3.5,1.4c1,1,1.4,2.5,1.3,4.3c0,0.4-0.1,0.9-0.4,1.4c6.2-1.4,10.6-3.2,13.6-4.5c3.5-1.4,5.5-2.2,6.8-1.1l0,0
				c1.1,0.9,1.3,1.9,1.3,2.6c-0.1,2-2.3,3.6-2.6,3.7C71.9,85.2,58.2,87.6,46.9,87.6z M25.1,82.9c4.5,1.3,34.6,9.5,57.6-8.2
				c0.5-0.3,1.9-1.5,1.9-2.5c0-0.2,0-0.6-0.7-1.2c-0.6-0.5-2.5,0.3-5.2,1.4c-3.6,1.5-9.1,3.8-17.3,5.3c-0.4,0.1-0.8-0.2-0.9-0.6
				c-0.1-0.4,0.1-0.8,0.5-1c1.4-0.5,2.2-1.3,2.3-2.3c0.1-1.4-0.2-2.4-0.8-3c-0.9-0.9-2.3-0.9-2.3-0.9c-10.7,0.1-12.6-1-14.9-2.3
				c-2.3-1.3-4.8-2.8-20.2-2.9V82.9z"/>
		</g>
		<g>
			
				<linearGradient id="SVGID_00000054231591258016828710000008953646231248381875_" gradientUnits="userSpaceOnUse" x1="79.3768" y1="101.6591" x2="10.0149" y2="37.3114">
				<stop  offset="0.4" style="stop-color:#F39800"/>
				<stop  offset="0.9039" style="stop-color:#C42D1B"/>
			</linearGradient>
			<path style="fill:url(#SVGID_00000054231591258016828710000008953646231248381875_);" d="M53.7,78.6c-2.8,0-5.9-0.2-9.5-0.7
				c-0.4-0.1-0.8-0.5-0.7-0.9c0.1-0.4,0.5-0.8,0.9-0.7c9.3,1.2,14.2,0.6,16.7-0.2c0.4-0.1,0.9,0.1,1,0.5c0.1,0.4-0.1,0.9-0.5,1
				C59.5,78.3,56.9,78.6,53.7,78.6z"/>
		</g>
		<g>
			
				<linearGradient id="SVGID_00000019661370001229298540000002421773409233803691_" gradientUnits="userSpaceOnUse" x1="65.7925" y1="116.302" x2="-3.5694" y2="51.9542">
				<stop  offset="0.4" style="stop-color:#F39800"/>
				<stop  offset="0.9039" style="stop-color:#C42D1B"/>
			</linearGradient>
			<path style="fill:url(#SVGID_00000019661370001229298540000002421773409233803691_);" d="M24.3,84.4h-8.7c-0.5,0-0.8-0.4-0.8-0.8
				V63.9c0-0.5,0.4-0.8,0.8-0.8h8.7c0.5,0,0.8,0.4,0.8,0.8v19.7C25.1,84,24.7,84.4,24.3,84.4z M16.4,82.7h7.1v-18h-7.1V82.7z"/>
		</g>
		<g>
			
				<linearGradient id="SVGID_00000066477372759861921050000014972517440079704484_" gradientUnits="userSpaceOnUse" x1="63.07" y1="119.2366" x2="-6.2919" y2="54.8889">
				<stop  offset="0.4" style="stop-color:#F39800"/>
				<stop  offset="0.9039" style="stop-color:#C42D1B"/>
			</linearGradient>
			<circle style="fill:url(#SVGID_00000066477372759861921050000014972517440079704484_);" cx="19.9" cy="79.2" r="1.1"/>
		</g>
		<g>
			
				<linearGradient id="SVGID_00000142862471552653726560000014350623812273096101_" gradientUnits="userSpaceOnUse" x1="99.3052" y1="80.1779" x2="29.9433" y2="15.8301">
				<stop  offset="0.4" style="stop-color:#F39800"/>
				<stop  offset="0.9039" style="stop-color:#C42D1B"/>
			</linearGradient>
			<path style="fill:url(#SVGID_00000142862471552653726560000014350623812273096101_);" d="M57,65.8c-13.7,0-24.8-11.1-24.8-24.8
				c0-13.7,11.1-24.8,24.8-24.8S81.9,27.3,81.9,41C81.9,54.7,70.7,65.8,57,65.8z M57,17.8c-12.8,0-23.2,10.4-23.2,23.2
				c0,12.8,10.4,23.2,23.2,23.2S80.3,53.8,80.3,41C80.3,28.2,69.8,17.8,57,17.8z"/>
		</g>
		<g>
			
				<linearGradient id="SVGID_00000135681957409958987440000005941721454950374561_" gradientUnits="userSpaceOnUse" x1="116.6863" y1="61.4424" x2="47.3244" y2="-2.9053">
				<stop  offset="0.4" style="stop-color:#F39800"/>
				<stop  offset="0.9039" style="stop-color:#C42D1B"/>
			</linearGradient>
			<path style="fill:url(#SVGID_00000135681957409958987440000005941721454950374561_);" d="M85,36.6c-0.4,0-0.7-0.3-0.8-0.7
				c-1-5.2-3.4-9.9-7-13.8c-0.3-0.3-0.3-0.8,0-1.2c0.3-0.3,0.8-0.3,1.2,0c3.8,4.1,6.4,9.1,7.4,14.6c0.1,0.4-0.2,0.9-0.7,1
				C85.1,36.6,85,36.6,85,36.6z"/>
		</g>
		<g>
			
				<linearGradient id="SVGID_00000037682667197395129990000002363110039968709274_" gradientUnits="userSpaceOnUse" x1="118.4186" y1="59.5751" x2="49.0568" y2="-4.7726">
				<stop  offset="0.4" style="stop-color:#F39800"/>
				<stop  offset="0.9039" style="stop-color:#C42D1B"/>
			</linearGradient>
			<path style="fill:url(#SVGID_00000037682667197395129990000002363110039968709274_);" d="M74.5,19.4c-0.2,0-0.4-0.1-0.5-0.2
				c-0.7-0.6-1.5-1.1-2.3-1.6c-0.4-0.2-0.5-0.7-0.3-1.1c0.2-0.4,0.7-0.5,1.1-0.3c0.8,0.5,1.6,1.1,2.4,1.7c0.4,0.3,0.4,0.8,0.1,1.1
				C75,19.3,74.8,19.4,74.5,19.4z"/>
		</g>
		<g>
			
				<linearGradient id="SVGID_00000058556090737798251180000012372258514429916860_" gradientUnits="userSpaceOnUse" x1="99.3052" y1="80.1779" x2="29.9433" y2="15.8301">
				<stop  offset="0.4" style="stop-color:#F39800"/>
				<stop  offset="0.9039" style="stop-color:#C42D1B"/>
			</linearGradient>
			<path style="fill:url(#SVGID_00000058556090737798251180000012372258514429916860_);" d="M57,59.3C47,59.3,38.7,51.1,38.7,41
				c0-10.1,8.2-18.3,18.3-18.3S75.3,30.9,75.3,41C75.3,51.1,67.1,59.3,57,59.3z M57,24.3c-9.2,0-16.7,7.5-16.7,16.7
				c0,9.2,7.5,16.7,16.7,16.7S73.7,50.2,73.7,41C73.7,31.8,66.2,24.3,57,24.3z"/>
		</g>
		<g>
			
				<linearGradient id="SVGID_00000181799875196544215410000014419273198230980015_" gradientUnits="userSpaceOnUse" x1="104.7559" y1="74.3024" x2="35.3941" y2="9.9547">
				<stop  offset="0.4" style="stop-color:#F39800"/>
				<stop  offset="0.9039" style="stop-color:#C42D1B"/>
			</linearGradient>
			<path style="fill:url(#SVGID_00000181799875196544215410000014419273198230980015_);" d="M68.8,47.5c-0.1,0-0.2,0-0.4-0.1
				c-0.4-0.2-0.6-0.7-0.4-1.1c0.8-1.7,1.2-3.5,1.2-5.4c0-1.9-0.4-3.7-1.2-5.4c-0.2-0.4,0-0.9,0.4-1.1c0.4-0.2,0.9,0,1.1,0.4
				c0.9,1.9,1.4,4,1.4,6.1c0,2.1-0.5,4.2-1.4,6.1C69.4,47.4,69.1,47.5,68.8,47.5z"/>
		</g>
		<g>
			
				<linearGradient id="SVGID_00000065043358177285914230000017790687806990950842_" gradientUnits="userSpaceOnUse" x1="93.8522" y1="86.0558" x2="24.4903" y2="21.7081">
				<stop  offset="0.4" style="stop-color:#F39800"/>
				<stop  offset="0.9039" style="stop-color:#C42D1B"/>
			</linearGradient>
			<path style="fill:url(#SVGID_00000065043358177285914230000017790687806990950842_);" d="M45.3,47.5c-0.3,0-0.6-0.2-0.7-0.5
				c-0.9-1.9-1.4-4-1.4-6.1c0-2.1,0.5-4.2,1.4-6.1c0.2-0.4,0.7-0.6,1.1-0.4c0.4,0.2,0.6,0.7,0.4,1.1c-0.8,1.7-1.2,3.5-1.2,5.4
				c0,1.9,0.4,3.7,1.2,5.4c0.2,0.4,0,0.9-0.4,1.1C45.5,47.5,45.4,47.5,45.3,47.5z"/>
		</g>
		<g>
			
				<linearGradient id="SVGID_00000026863788741469890340000006525132008868161701_" gradientUnits="userSpaceOnUse" x1="89.7057" y1="90.5254" x2="20.3438" y2="26.1777">
				<stop  offset="0.4" style="stop-color:#F39800"/>
				<stop  offset="0.9039" style="stop-color:#C42D1B"/>
			</linearGradient>
			<path style="fill:url(#SVGID_00000026863788741469890340000006525132008868161701_);" d="M37.1,41c0,0.5-0.4,0.8-0.8,0.8
				c-0.5,0-0.8-0.4-0.8-0.8c0-0.5,0.4-0.8,0.8-0.8C36.7,40.2,37.1,40.5,37.1,41z"/>
		</g>
		<g>
			
				<linearGradient id="SVGID_00000123433662198096546180000003558103196184161722_" gradientUnits="userSpaceOnUse" x1="108.9044" y1="69.8307" x2="39.5425" y2="5.483">
				<stop  offset="0.4" style="stop-color:#F39800"/>
				<stop  offset="0.9039" style="stop-color:#C42D1B"/>
			</linearGradient>
			<path style="fill:url(#SVGID_00000123433662198096546180000003558103196184161722_);" d="M78.6,41c0,0.5-0.4,0.8-0.8,0.8
				c-0.5,0-0.8-0.4-0.8-0.8c0-0.5,0.4-0.8,0.8-0.8C78.2,40.2,78.6,40.5,78.6,41z"/>
		</g>
		<g>
			
				<linearGradient id="SVGID_00000034049182941709015720000001999307664616162700_" gradientUnits="userSpaceOnUse" x1="88.9577" y1="91.3317" x2="19.5958" y2="26.984">
				<stop  offset="0.4" style="stop-color:#F39800"/>
				<stop  offset="0.9039" style="stop-color:#C42D1B"/>
			</linearGradient>
			<path style="fill:url(#SVGID_00000034049182941709015720000001999307664616162700_);" d="M57,60.9c0.5,0,0.8,0.4,0.8,0.8
				c0,0.5-0.4,0.8-0.8,0.8c-0.5,0-0.8-0.4-0.8-0.8C56.2,61.3,56.6,60.9,57,60.9z"/>
		</g>
		<g>
			
				<linearGradient id="SVGID_00000166649719548596300970000011797594107953580195_" gradientUnits="userSpaceOnUse" x1="109.6524" y1="69.0244" x2="40.2906" y2="4.6766">
				<stop  offset="0.4" style="stop-color:#F39800"/>
				<stop  offset="0.9039" style="stop-color:#C42D1B"/>
			</linearGradient>
			<path style="fill:url(#SVGID_00000166649719548596300970000011797594107953580195_);" d="M57,19.4c0.5,0,0.8,0.4,0.8,0.8
				c0,0.5-0.4,0.8-0.8,0.8c-0.5,0-0.8-0.4-0.8-0.8C56.2,19.8,56.6,19.4,57,19.4z"/>
		</g>
		<g>
			
				<linearGradient id="SVGID_00000176011701709423743830000012785706224230599843_" gradientUnits="userSpaceOnUse" x1="98.7759" y1="80.7484" x2="29.4141" y2="16.4006">
				<stop  offset="0.4" style="stop-color:#F39800"/>
				<stop  offset="0.9039" style="stop-color:#C42D1B"/>
			</linearGradient>
			<path style="fill:url(#SVGID_00000176011701709423743830000012785706224230599843_);" d="M71.1,55.1c0.3-0.3,0.8-0.3,1.2,0
				s0.3,0.8,0,1.2c-0.3,0.3-0.8,0.3-1.2,0C70.8,55.9,70.8,55.4,71.1,55.1z"/>
		</g>
		<g>
			
				<linearGradient id="SVGID_00000160154053549635901080000004026114993560112823_" gradientUnits="userSpaceOnUse" x1="99.834" y1="79.6079" x2="30.4721" y2="15.2601">
				<stop  offset="0.4" style="stop-color:#F39800"/>
				<stop  offset="0.9039" style="stop-color:#C42D1B"/>
			</linearGradient>
			<path style="fill:url(#SVGID_00000160154053549635901080000004026114993560112823_);" d="M41.8,25.7c0.3-0.3,0.8-0.3,1.2,0
				c0.3,0.3,0.3,0.8,0,1.2c-0.3,0.3-0.8,0.3-1.2,0C41.5,26.6,41.5,26,41.8,25.7z"/>
		</g>
		<g>
			
				<linearGradient id="SVGID_00000109718859225633747470000009461007356083716792_" gradientUnits="userSpaceOnUse" x1="113.4095" y1="64.9746" x2="44.0476" y2="0.6268">
				<stop  offset="0.4" style="stop-color:#F39800"/>
				<stop  offset="0.9039" style="stop-color:#C42D1B"/>
			</linearGradient>
			<path style="fill:url(#SVGID_00000109718859225633747470000009461007356083716792_);" d="M71.1,26.9c-0.3-0.3-0.3-0.8,0-1.2
				c0.3-0.3,0.8-0.3,1.2,0c0.3,0.3,0.3,0.8,0,1.2C72,27.2,71.5,27.2,71.1,26.9z"/>
		</g>
		<g>
			
				<linearGradient id="SVGID_00000104708182554864932580000006253724865313815199_" gradientUnits="userSpaceOnUse" x1="85.2004" y1="95.3817" x2="15.8386" y2="31.034">
				<stop  offset="0.4" style="stop-color:#F39800"/>
				<stop  offset="0.9039" style="stop-color:#C42D1B"/>
			</linearGradient>
			<path style="fill:url(#SVGID_00000104708182554864932580000006253724865313815199_);" d="M41.8,56.2c-0.3-0.3-0.3-0.8,0-1.2
				s0.8-0.3,1.2,0c0.3,0.3,0.3,0.8,0,1.2C42.6,56.5,42.1,56.5,41.8,56.2z"/>
		</g>
		<g>
			
				<linearGradient id="SVGID_00000148625775710736235360000012176770049592882584_" gradientUnits="userSpaceOnUse" x1="104.2142" y1="74.8863" x2="34.8524" y2="10.5386">
				<stop  offset="0.4" style="stop-color:#F39800"/>
				<stop  offset="0.9039" style="stop-color:#C42D1B"/>
			</linearGradient>
			<path style="fill:url(#SVGID_00000148625775710736235360000012176770049592882584_);" d="M75.5,48.6c0.2-0.4,0.7-0.6,1.1-0.4
				c0.4,0.2,0.6,0.7,0.4,1.1c-0.2,0.4-0.7,0.6-1.1,0.4C75.5,49.5,75.3,49,75.5,48.6z"/>
		</g>
		<g>
			
				<linearGradient id="SVGID_00000157283088173395550200000006673682519851494275_" gradientUnits="userSpaceOnUse" x1="94.3965" y1="85.469" x2="25.0347" y2="21.1213">
				<stop  offset="0.4" style="stop-color:#F39800"/>
				<stop  offset="0.9039" style="stop-color:#C42D1B"/>
			</linearGradient>
			<path style="fill:url(#SVGID_00000157283088173395550200000006673682519851494275_);" d="M37.1,32.7c0.2-0.4,0.7-0.6,1.1-0.4
				c0.4,0.2,0.6,0.7,0.4,1.1c-0.2,0.4-0.7,0.6-1.1,0.4C37.1,33.6,36.9,33.1,37.1,32.7z"/>
		</g>
		<g>
			
				<linearGradient id="SVGID_00000004530967138170774390000006928416502549851798_" gradientUnits="userSpaceOnUse" x1="112.5384" y1="65.9135" x2="43.1765" y2="1.5658">
				<stop  offset="0.4" style="stop-color:#F39800"/>
				<stop  offset="0.9039" style="stop-color:#C42D1B"/>
			</linearGradient>
			<path style="fill:url(#SVGID_00000004530967138170774390000006928416502549851798_);" d="M64.7,22.6c-0.4-0.2-0.6-0.7-0.4-1.1
				c0.2-0.4,0.7-0.6,1.1-0.4c0.4,0.2,0.6,0.7,0.4,1.1C65.6,22.5,65.1,22.7,64.7,22.6z"/>
		</g>
		<g>
			
				<linearGradient id="SVGID_00000098178519128973288010000015854634182285387438_" gradientUnits="userSpaceOnUse" x1="86.0723" y1="94.442" x2="16.7104" y2="30.0942">
				<stop  offset="0.4" style="stop-color:#F39800"/>
				<stop  offset="0.9039" style="stop-color:#C42D1B"/>
			</linearGradient>
			<path style="fill:url(#SVGID_00000098178519128973288010000015854634182285387438_);" d="M48.8,60.9c-0.4-0.2-0.6-0.7-0.4-1.1
				c0.2-0.4,0.7-0.6,1.1-0.4c0.4,0.2,0.6,0.7,0.4,1.1C49.7,60.9,49.2,61.1,48.8,60.9z"/>
		</g>
		<g>
			
				<linearGradient id="SVGID_00000003063086870189586560000015442482261658705843_" gradientUnits="userSpaceOnUse" x1="112.1335" y1="66.3499" x2="42.7717" y2="2.0022">
				<stop  offset="0.4" style="stop-color:#F39800"/>
				<stop  offset="0.9039" style="stop-color:#C42D1B"/>
			</linearGradient>
			<path style="fill:url(#SVGID_00000003063086870189586560000015442482261658705843_);" d="M75.5,33.3c-0.2-0.4,0-0.9,0.4-1.1
				c0.4-0.2,0.9,0,1.1,0.4c0.2,0.4,0,0.9-0.4,1.1C76.1,34,75.6,33.8,75.5,33.3z"/>
		</g>
		<g>
			
				<linearGradient id="SVGID_00000065784922115579815760000003992479003015647369_" gradientUnits="userSpaceOnUse" x1="86.4767" y1="94.006" x2="17.1149" y2="29.6582">
				<stop  offset="0.4" style="stop-color:#F39800"/>
				<stop  offset="0.9039" style="stop-color:#C42D1B"/>
			</linearGradient>
			<path style="fill:url(#SVGID_00000065784922115579815760000003992479003015647369_);" d="M37.1,49.2c-0.2-0.4,0-0.9,0.4-1.1
				c0.4-0.2,0.9,0,1.1,0.4c0.2,0.4,0,0.9-0.4,1.1C37.8,49.8,37.3,49.6,37.1,49.2z"/>
		</g>
		<g>
			
				<linearGradient id="SVGID_00000035515108758658082390000013220242766643292552_" gradientUnits="userSpaceOnUse" x1="105.1918" y1="73.8325" x2="35.83" y2="9.4848">
				<stop  offset="0.4" style="stop-color:#F39800"/>
				<stop  offset="0.9039" style="stop-color:#C42D1B"/>
			</linearGradient>
			<path style="fill:url(#SVGID_00000035515108758658082390000013220242766643292552_);" d="M49.4,22.6c-0.4,0.2-0.9,0-1.1-0.4
				c-0.2-0.4,0-0.9,0.4-1.1c0.4-0.2,0.9,0,1.1,0.4C50,21.9,49.8,22.4,49.4,22.6z"/>
		</g>
		<g>
			
				<linearGradient id="SVGID_00000129204261273267643820000003842072437155368588_" gradientUnits="userSpaceOnUse" x1="93.4192" y1="86.5225" x2="24.0574" y2="22.1747">
				<stop  offset="0.4" style="stop-color:#F39800"/>
				<stop  offset="0.9039" style="stop-color:#C42D1B"/>
			</linearGradient>
			<path style="fill:url(#SVGID_00000129204261273267643820000003842072437155368588_);" d="M65.3,60.9c-0.4,0.2-0.9,0-1.1-0.4
				c-0.2-0.4,0-0.9,0.4-1.1c0.4-0.2,0.9,0,1.1,0.4C65.9,60.2,65.7,60.7,65.3,60.9z"/>
		</g>
		<g>
			
				<linearGradient id="SVGID_00000053524058681791194940000005121850631754832823_" gradientUnits="userSpaceOnUse" x1="99.3053" y1="80.1778" x2="29.9434" y2="15.8301">
				<stop  offset="0.4" style="stop-color:#F39800"/>
				<stop  offset="0.9039" style="stop-color:#C42D1B"/>
			</linearGradient>
			<path style="fill:url(#SVGID_00000053524058681791194940000005121850631754832823_);" d="M57.1,52.2c-3,0-5.7-1.5-6.9-3.8
				c-0.2-0.4,0-0.9,0.4-1.1c0.4-0.2,0.9,0,1.1,0.4c0.8,1.7,3,2.9,5.4,2.9c3.2,0,5.7-2,5.7-4.4c0-2.8-2-4.4-5.7-4.4
				c-4.6,0-7.4-2.2-7.4-6c0-3.3,3.3-6,7.4-6c3,0,5.7,1.5,6.9,3.8c0.2,0.4,0,0.9-0.4,1.1c-0.4,0.2-0.9,0-1.1-0.4
				c-0.8-1.7-3-2.9-5.4-2.9c-3.2,0-5.7,2-5.7,4.4c0,2.8,2,4.4,5.7,4.4c4.6,0,7.4,2.2,7.4,6C64.4,49.5,61.1,52.2,57.1,52.2z"/>
		</g>
		<g>
			
				<linearGradient id="SVGID_00000150074550942507257460000002022420776963015100_" gradientUnits="userSpaceOnUse" x1="99.3008" y1="80.1826" x2="29.9389" y2="15.8349">
				<stop  offset="0.4" style="stop-color:#F39800"/>
				<stop  offset="0.9039" style="stop-color:#C42D1B"/>
			</linearGradient>
			<path style="fill:url(#SVGID_00000150074550942507257460000002022420776963015100_);" d="M57,55.4c-0.5,0-0.8-0.4-0.8-0.8V27.3
				c0-0.5,0.4-0.8,0.8-0.8c0.5,0,0.8,0.4,0.8,0.8v27.3C57.9,55.1,57.5,55.4,57,55.4z"/>
		</g>
	</g>
	<g>
		
			<linearGradient id="SVGID_00000163050848840982276380000000130890631107383479_" gradientUnits="userSpaceOnUse" x1="79.0925" y1="101.9656" x2="9.7306" y2="37.6179">
			<stop  offset="0.4" style="stop-color:#F39800"/>
			<stop  offset="0.9039" style="stop-color:#C42D1B"/>
		</linearGradient>
		<path style="fill:url(#SVGID_00000163050848840982276380000000130890631107383479_);" d="M28.6,58.2c-1.7,0-3-1.3-3-3
			c0-1.7,1.3-3,3-3c1.7,0,3,1.3,3,3C31.7,56.8,30.3,58.2,28.6,58.2z M28.6,53.8c-0.8,0-1.4,0.6-1.4,1.4c0,0.8,0.6,1.4,1.4,1.4
			c0.8,0,1.4-0.6,1.4-1.4C30,54.4,29.4,53.8,28.6,53.8z"/>
	</g>
	<g>
		
			<linearGradient id="SVGID_00000039834118070563332160000002999264377072971397_" gradientUnits="userSpaceOnUse" x1="102.175" y1="77.0845" x2="32.8131" y2="12.7367">
			<stop  offset="0.4" style="stop-color:#F39800"/>
			<stop  offset="0.9039" style="stop-color:#C42D1B"/>
		</linearGradient>
		<path style="fill:url(#SVGID_00000039834118070563332160000002999264377072971397_);" d="M83.3,62.5c-1.7,0-3-1.3-3-3
			c0-1.7,1.3-3,3-3c1.7,0,3,1.3,3,3C86.3,61.2,84.9,62.5,83.3,62.5z M83.3,58.2c-0.8,0-1.4,0.6-1.4,1.4c0,0.8,0.6,1.4,1.4,1.4
			c0.8,0,1.4-0.6,1.4-1.4C84.6,58.8,84,58.2,83.3,58.2z"/>
	</g>
	<g>
		
			<linearGradient id="SVGID_00000079487651356482498920000000876162020853229502_" gradientUnits="userSpaceOnUse" x1="78.3966" y1="102.7157" x2="9.0347" y2="38.368">
			<stop  offset="0.4" style="stop-color:#F39800"/>
			<stop  offset="0.9039" style="stop-color:#C42D1B"/>
		</linearGradient>
		<path style="fill:url(#SVGID_00000079487651356482498920000000876162020853229502_);" d="M17.7,49.4c-1.7,0-3-1.3-3-3
			c0-1.7,1.3-3,3-3c1.7,0,3,1.3,3,3C20.7,48.1,19.4,49.4,17.7,49.4z M17.7,45.1c-0.8,0-1.4,0.6-1.4,1.4c0,0.8,0.6,1.4,1.4,1.4
			c0.8,0,1.4-0.6,1.4-1.4C19.1,45.7,18.5,45.1,17.7,45.1z"/>
	</g>
	<g>
		
			<linearGradient id="SVGID_00000164481313495013648310000001449463315653899648_" gradientUnits="userSpaceOnUse" x1="88.4292" y1="91.9013" x2="19.0674" y2="27.5536">
			<stop  offset="0.4" style="stop-color:#F39800"/>
			<stop  offset="0.9039" style="stop-color:#C42D1B"/>
		</linearGradient>
		<path style="fill:url(#SVGID_00000164481313495013648310000001449463315653899648_);" d="M26.5,37.4c-1.7,0-3-1.3-3-3
			c0-1.7,1.3-3,3-3s3,1.3,3,3C29.5,36.1,28.1,37.4,26.5,37.4z M26.5,33c-0.8,0-1.4,0.6-1.4,1.4c0,0.8,0.6,1.4,1.4,1.4
			c0.8,0,1.4-0.6,1.4-1.4C27.8,33.7,27.2,33,26.5,33z"/>
	</g>
	<g>
		
			<linearGradient id="SVGID_00000093143051637486777510000012398723502845071015_" gradientUnits="userSpaceOnUse" x1="91.8934" y1="88.1672" x2="22.5316" y2="23.8194">
			<stop  offset="0.4" style="stop-color:#F39800"/>
			<stop  offset="0.9039" style="stop-color:#C42D1B"/>
		</linearGradient>
		<path style="fill:url(#SVGID_00000093143051637486777510000012398723502845071015_);" d="M21,25.4c-1.7,0-3-1.3-3-3
			c0-1.7,1.3-3,3-3c1.7,0,3,1.3,3,3C24,24.1,22.7,25.4,21,25.4z M21,21c-0.8,0-1.4,0.6-1.4,1.4c0,0.8,0.6,1.4,1.4,1.4
			c0.8,0,1.4-0.6,1.4-1.4C22.4,21.6,21.8,21,21,21z"/>
	</g>
	<g>
		
			<linearGradient id="SVGID_00000035528745171273291520000015412733641322950793_" gradientUnits="userSpaceOnUse" x1="100.0951" y1="79.3264" x2="30.7333" y2="14.9787">
			<stop  offset="0.4" style="stop-color:#F39800"/>
			<stop  offset="0.9039" style="stop-color:#C42D1B"/>
		</linearGradient>
		<path style="fill:url(#SVGID_00000035528745171273291520000015412733641322950793_);" d="M35.2,22.1c-1.7,0-3-1.3-3-3
			c0-1.7,1.3-3,3-3c1.7,0,3,1.3,3,3C38.2,20.8,36.9,22.1,35.2,22.1z M35.2,17.8c-0.8,0-1.4,0.6-1.4,1.4s0.6,1.4,1.4,1.4
			c0.8,0,1.4-0.6,1.4-1.4S36,17.8,35.2,17.8z"/>
	</g>
	
		<linearGradient id="SVGID_00000093160223274851928600000009960160744925029790_" gradientUnits="userSpaceOnUse" x1="92.4842" y1="87.5303" x2="23.1224" y2="23.1826">
		<stop  offset="0.4" style="stop-color:#F39800"/>
		<stop  offset="0.9039" style="stop-color:#C42D1B"/>
	</linearGradient>
	<path style="fill:url(#SVGID_00000093160223274851928600000009960160744925029790_);" d="M73.3,68.4c2.2-0.8,3.9-1.5,5.1-1.5
		c0,0,0,0,0,0c0.8,0,1.4,0.3,1.9,0.8c0.5,0.6,0.7,1.6,0.4,2.6c0,0,0,0,0,0.1c0,0.2-0.1,0.4-0.2,0.6l1.8-0.6c0.2-1.4,0-2.7-0.8-3.6
		c-0.7-0.9-1.9-1.4-3.2-1.4c-1.5,0-3.3,0.7-5.6,1.6c-2.5,0.9-5.6,2.1-9.6,3L62.5,70l1.1,1.4C67.6,70.5,70.7,69.3,73.3,68.4z"/>
</g>
</svg>
