<?xml version="1.0" encoding="utf-8"?>
<!-- Generator: Adobe Illustrator 27.0.1, SVG Export Plug-In . SVG Version: 6.00 Build 0)  -->
<svg version="1.1" id="圖層_1" xmlns="http://www.w3.org/2000/svg" xmlns:xlink="http://www.w3.org/1999/xlink" x="0px" y="0px"
	 viewBox="0 0 100 100" style="enable-background:new 0 0 100 100;" xml:space="preserve">
<style type="text/css">
	.st0{fill:url(#SVGID_1_);}
	.st1{fill:url(#SVGID_00000182512127022048801650000009666739361759257770_);}
	.st2{fill:url(#SVGID_00000008861464824006590220000005186092946984341389_);}
	.st3{fill:url(#SVGID_00000065053143828337837270000010932979125560026012_);}
	.st4{fill:url(#SVGID_00000145765580437260359730000013585379631008905110_);}
	.st5{fill:url(#SVGID_00000115490442621235790700000018119609363751432636_);}
	.st6{fill:url(#SVGID_00000077326780965583609340000017310600613237424276_);}
	.st7{fill:url(#SVGID_00000052802573283818398730000018265047446616935814_);}
	.st8{fill:url(#SVGID_00000038403141056716678260000006543855019588673947_);}
	.st9{fill:url(#SVGID_00000064330375713945062960000002410435859239684280_);}
	.st10{fill:url(#SVGID_00000178921017474284856080000008087902351355954053_);}
	.st11{fill:url(#SVGID_00000142876605995133612710000006457570750558100612_);}
	.st12{fill:url(#SVGID_00000127745612999254181630000002798294520292002221_);}
	.st13{fill:url(#SVGID_00000150100577704475895130000008939076190415387055_);}
	.st14{fill:url(#SVGID_00000103241283703202209380000004811061691926587276_);}
	.st15{fill:url(#SVGID_00000140008032283593372380000012970318075043620242_);}
	.st16{fill:url(#SVGID_00000152260885763872164940000012940929403715435168_);}
	.st17{fill:url(#SVGID_00000168830753000089537870000008735734685628151992_);}
	.st18{fill:url(#SVGID_00000165942187572117603360000018005261580121149570_);}
	.st19{fill:url(#SVGID_00000034807609057618494660000008584223370649345679_);}
	.st20{fill:url(#SVGID_00000163058345715515274010000016620838653540279193_);}
	.st21{fill:url(#SVGID_00000036235380501154331500000006540920058355484347_);}
	.st22{fill:url(#SVGID_00000084503756671072676980000005476401020188552082_);}
	.st23{fill:url(#SVGID_00000051369619963136339440000010977170188022615452_);}
	.st24{fill:url(#SVGID_00000133521456121114932310000010467533948651387019_);}
	.st25{fill:url(#SVGID_00000057851054408982210550000014962128760779063741_);}
	.st26{fill:url(#SVGID_00000103987089793880557970000013301112686265476770_);}
	.st27{fill:url(#SVGID_00000085208895578165932760000010689530457960531591_);}
	.st28{fill:url(#SVGID_00000153673163927071301410000007549978874632726449_);}
	.st29{fill:url(#SVGID_00000029027874339264027110000014899412579681775281_);}
	.st30{fill:url(#SVGID_00000129904373012445853030000001554380597571268273_);}
	.st31{fill:url(#SVGID_00000108298318846456922260000001640748942061169063_);}
	.st32{fill:url(#SVGID_00000183941316012630799350000016455401342868252078_);}
	.st33{fill:url(#SVGID_00000173880229218186438710000012218558613200648593_);}
	.st34{fill:url(#SVGID_00000131351197768034288980000016053489123282196119_);}
	.st35{fill:url(#SVGID_00000042730924945218191070000016264534793859346828_);}
	.st36{fill:url(#SVGID_00000116945990518751620720000005502226929244279478_);}
</style>
<g>
	<g>
		<linearGradient id="SVGID_1_" gradientUnits="userSpaceOnUse" x1="107.6575" y1="80.2442" x2="33.003" y2="9.3502">
			<stop  offset="0.4" style="stop-color:#F39800"/>
			<stop  offset="0.9039" style="stop-color:#C42D1B"/>
		</linearGradient>
		<path class="st0" d="M81.7,84.9H71.3c-1.6,0-2.9-1.3-2.9-2.9V19.3c0-1.6,1.3-2.9,2.9-2.9h10.5c1.6,0,2.9,1.3,2.9,2.9V82
			C84.6,83.6,83.3,84.9,81.7,84.9z M71.3,18c-0.7,0-1.3,0.6-1.3,1.3V82c0,0.7,0.6,1.3,1.3,1.3h10.5c0.7,0,1.3-0.6,1.3-1.3V19.3
			c0-0.7-0.6-1.3-1.3-1.3H71.3z"/>
	</g>
	<g>
		
			<linearGradient id="SVGID_00000140713470639705049750000013494149979467664778_" gradientUnits="userSpaceOnUse" x1="96.0323" y1="92.486" x2="21.3778" y2="21.5921">
			<stop  offset="0.4" style="stop-color:#F39800"/>
			<stop  offset="0.9039" style="stop-color:#C42D1B"/>
		</linearGradient>
		<path style="fill:url(#SVGID_00000140713470639705049750000013494149979467664778_);" d="M83.8,79.7h-4.2c-0.4,0-0.8-0.4-0.8-0.8
			c0-0.4,0.4-0.8,0.8-0.8h4.2c0.4,0,0.8,0.4,0.8,0.8C84.6,79.3,84.3,79.7,83.8,79.7z"/>
	</g>
	<g>
		
			<linearGradient id="SVGID_00000182489184742551971920000005183802409432901527_" gradientUnits="userSpaceOnUse" x1="99.1667" y1="89.1854" x2="24.5122" y2="18.2915">
			<stop  offset="0.4" style="stop-color:#F39800"/>
			<stop  offset="0.9039" style="stop-color:#C42D1B"/>
		</linearGradient>
		<path style="fill:url(#SVGID_00000182489184742551971920000005183802409432901527_);" d="M83.8,73.4h-4.2c-0.4,0-0.8-0.4-0.8-0.8
			c0-0.4,0.4-0.8,0.8-0.8h4.2c0.4,0,0.8,0.4,0.8,0.8C84.6,73.1,84.3,73.4,83.8,73.4z"/>
	</g>
	<g>
		
			<linearGradient id="SVGID_00000164491746665065228460000001683000339602713510_" gradientUnits="userSpaceOnUse" x1="102.301" y1="85.8848" x2="27.6465" y2="14.9908">
			<stop  offset="0.4" style="stop-color:#F39800"/>
			<stop  offset="0.9039" style="stop-color:#C42D1B"/>
		</linearGradient>
		<path style="fill:url(#SVGID_00000164491746665065228460000001683000339602713510_);" d="M83.8,67.1h-4.2c-0.4,0-0.8-0.4-0.8-0.8
			c0-0.4,0.4-0.8,0.8-0.8h4.2c0.4,0,0.8,0.4,0.8,0.8C84.6,66.8,84.3,67.1,83.8,67.1z"/>
	</g>
	<g>
		
			<linearGradient id="SVGID_00000003104579161566282660000002811293272044036522_" gradientUnits="userSpaceOnUse" x1="105.4364" y1="82.5831" x2="30.7818" y2="11.6892">
			<stop  offset="0.4" style="stop-color:#F39800"/>
			<stop  offset="0.9039" style="stop-color:#C42D1B"/>
		</linearGradient>
		<path style="fill:url(#SVGID_00000003104579161566282660000002811293272044036522_);" d="M83.8,60.9h-4.2c-0.4,0-0.8-0.4-0.8-0.8
			c0-0.4,0.4-0.8,0.8-0.8h4.2c0.4,0,0.8,0.4,0.8,0.8C84.6,60.5,84.3,60.9,83.8,60.9z"/>
	</g>
	<g>
		
			<linearGradient id="SVGID_00000039107377637009766810000004750335125116501944_" gradientUnits="userSpaceOnUse" x1="108.5707" y1="79.2825" x2="33.9162" y2="8.3886">
			<stop  offset="0.4" style="stop-color:#F39800"/>
			<stop  offset="0.9039" style="stop-color:#C42D1B"/>
		</linearGradient>
		<path style="fill:url(#SVGID_00000039107377637009766810000004750335125116501944_);" d="M83.8,54.6h-4.2c-0.4,0-0.8-0.4-0.8-0.8
			c0-0.4,0.4-0.8,0.8-0.8h4.2c0.4,0,0.8,0.4,0.8,0.8C84.6,54.2,84.3,54.6,83.8,54.6z"/>
	</g>
	<g>
		
			<linearGradient id="SVGID_00000054982614477866575230000000661822329715327888_" gradientUnits="userSpaceOnUse" x1="111.7051" y1="75.9819" x2="37.0505" y2="5.088">
			<stop  offset="0.4" style="stop-color:#F39800"/>
			<stop  offset="0.9039" style="stop-color:#C42D1B"/>
		</linearGradient>
		<path style="fill:url(#SVGID_00000054982614477866575230000000661822329715327888_);" d="M83.8,48.3h-4.2c-0.4,0-0.8-0.4-0.8-0.8
			c0-0.4,0.4-0.8,0.8-0.8h4.2c0.4,0,0.8,0.4,0.8,0.8C84.6,48,84.3,48.3,83.8,48.3z"/>
	</g>
	<g>
		
			<linearGradient id="SVGID_00000047757492389166454660000005745736216951381899_" gradientUnits="userSpaceOnUse" x1="114.8394" y1="72.6813" x2="40.1849" y2="1.7874">
			<stop  offset="0.4" style="stop-color:#F39800"/>
			<stop  offset="0.9039" style="stop-color:#C42D1B"/>
		</linearGradient>
		<path style="fill:url(#SVGID_00000047757492389166454660000005745736216951381899_);" d="M83.8,42h-4.2c-0.4,0-0.8-0.4-0.8-0.8
			c0-0.4,0.4-0.8,0.8-0.8h4.2c0.4,0,0.8,0.4,0.8,0.8C84.6,41.7,84.3,42,83.8,42z"/>
	</g>
	<g>
		
			<linearGradient id="SVGID_00000057848587935301993800000014895175787624091272_" gradientUnits="userSpaceOnUse" x1="117.9748" y1="69.3796" x2="43.3203" y2="-1.5143">
			<stop  offset="0.4" style="stop-color:#F39800"/>
			<stop  offset="0.9039" style="stop-color:#C42D1B"/>
		</linearGradient>
		<path style="fill:url(#SVGID_00000057848587935301993800000014895175787624091272_);" d="M83.8,35.7h-4.2c-0.4,0-0.8-0.4-0.8-0.8
			c0-0.4,0.4-0.8,0.8-0.8h4.2c0.4,0,0.8,0.4,0.8,0.8C84.6,35.4,84.3,35.7,83.8,35.7z"/>
	</g>
	<g>
		
			<linearGradient id="SVGID_00000042728694773675604990000007077170174924232347_" gradientUnits="userSpaceOnUse" x1="121.1092" y1="66.079" x2="46.4546" y2="-4.8149">
			<stop  offset="0.4" style="stop-color:#F39800"/>
			<stop  offset="0.9039" style="stop-color:#C42D1B"/>
		</linearGradient>
		<path style="fill:url(#SVGID_00000042728694773675604990000007077170174924232347_);" d="M83.8,29.5h-4.2c-0.4,0-0.8-0.4-0.8-0.8
			c0-0.4,0.4-0.8,0.8-0.8h4.2c0.4,0,0.8,0.4,0.8,0.8C84.6,29.1,84.3,29.5,83.8,29.5z"/>
	</g>
	<g>
		
			<linearGradient id="SVGID_00000067233854209766243760000007022960261142072506_" gradientUnits="userSpaceOnUse" x1="124.2435" y1="62.7784" x2="49.589" y2="-8.1156">
			<stop  offset="0.4" style="stop-color:#F39800"/>
			<stop  offset="0.9039" style="stop-color:#C42D1B"/>
		</linearGradient>
		<path style="fill:url(#SVGID_00000067233854209766243760000007022960261142072506_);" d="M83.8,23.2h-4.2c-0.4,0-0.8-0.4-0.8-0.8
			c0-0.4,0.4-0.8,0.8-0.8h4.2c0.4,0,0.8,0.4,0.8,0.8C84.6,22.8,84.3,23.2,83.8,23.2z"/>
	</g>
	<g>
		
			<linearGradient id="SVGID_00000019667764320703189030000009330194453970221211_" gradientUnits="userSpaceOnUse" x1="83.7616" y1="105.4076" x2="9.1071" y2="34.5137">
			<stop  offset="0.4" style="stop-color:#F39800"/>
			<stop  offset="0.9039" style="stop-color:#C42D1B"/>
		</linearGradient>
		<path style="fill:url(#SVGID_00000019667764320703189030000009330194453970221211_);" d="M58.7,76.6H42c-1.6,0-2.9-1.3-2.9-2.9
			c0-1.6,1.3-2.9,2.9-2.9h16.7c1.6,0,2.9,1.3,2.9,2.9C61.6,75.3,60.3,76.6,58.7,76.6z M42,72.4c-0.7,0-1.3,0.6-1.3,1.3
			S41.3,75,42,75h16.7c0.7,0,1.3-0.6,1.3-1.3s-0.6-1.3-1.3-1.3H42z"/>
	</g>
	<g>
		
			<linearGradient id="SVGID_00000140726946972893287800000013408378532665937328_" gradientUnits="userSpaceOnUse" x1="81.6721" y1="107.608" x2="7.0175" y2="36.7141">
			<stop  offset="0.4" style="stop-color:#F39800"/>
			<stop  offset="0.9039" style="stop-color:#C42D1B"/>
		</linearGradient>
		<path style="fill:url(#SVGID_00000140726946972893287800000013408378532665937328_);" d="M58.7,80.7H42c-1.6,0-2.9-1.3-2.9-2.9
			c0-1.6,1.3-2.9,2.9-2.9h16.7c1.6,0,2.9,1.3,2.9,2.9C61.6,79.4,60.3,80.7,58.7,80.7z M42,76.6c-0.7,0-1.3,0.6-1.3,1.3
			s0.6,1.3,1.3,1.3h16.7c0.7,0,1.3-0.6,1.3-1.3s-0.6-1.3-1.3-1.3H42z"/>
	</g>
	<g>
		
			<linearGradient id="SVGID_00000129904695914107982390000003239329863870838437_" gradientUnits="userSpaceOnUse" x1="86.1498" y1="102.8927" x2="11.4953" y2="31.9988">
			<stop  offset="0.4" style="stop-color:#F39800"/>
			<stop  offset="0.9039" style="stop-color:#C42D1B"/>
		</linearGradient>
		<path style="fill:url(#SVGID_00000129904695914107982390000003239329863870838437_);" d="M58.7,72.4H42c-1.6,0-2.9-1.3-2.9-2.9
			v-2.1c0-0.4,0.4-0.8,0.8-0.8h20.9c0.4,0,0.8,0.4,0.8,0.8v2.1C61.6,71.1,60.3,72.4,58.7,72.4z M40.7,68.2v1.3
			c0,0.7,0.6,1.3,1.3,1.3h16.7c0.7,0,1.3-0.6,1.3-1.3v-1.3H40.7z"/>
	</g>
	<g>
		
			<linearGradient id="SVGID_00000079481209576921060140000009021880246874771123_" gradientUnits="userSpaceOnUse" x1="78.5381" y1="110.9082" x2="3.8836" y2="40.0143">
			<stop  offset="0.4" style="stop-color:#F39800"/>
			<stop  offset="0.9039" style="stop-color:#C42D1B"/>
		</linearGradient>
		<path style="fill:url(#SVGID_00000079481209576921060140000009021880246874771123_);" d="M56.6,84.9H44.1c-0.4,0-0.8-0.4-0.8-0.8
			c0-0.4,0.4-0.8,0.8-0.8h12.6c0.4,0,0.8,0.4,0.8,0.8C57.4,84.6,57.1,84.9,56.6,84.9z"/>
	</g>
	<g>
		
			<linearGradient id="SVGID_00000177442851302399182140000012770579694183872429_" gradientUnits="userSpaceOnUse" x1="81.2842" y1="108.0165" x2="6.6297" y2="37.1225">
			<stop  offset="0.4" style="stop-color:#F39800"/>
			<stop  offset="0.9039" style="stop-color:#C42D1B"/>
		</linearGradient>
		<path style="fill:url(#SVGID_00000177442851302399182140000012770579694183872429_);" d="M31.5,78.6H16.9c-0.4,0-0.8-0.4-0.8-0.8
			V29.7c0-0.2,0.1-0.5,0.3-0.6c0.2-0.1,0.5-0.2,0.7-0.1l7.1,2l7.1-2c0.2-0.1,0.5,0,0.7,0.1c0.2,0.1,0.3,0.4,0.3,0.6v48.1
			C32.3,78.3,31.9,78.6,31.5,78.6z M17.6,77.1h13.1V30.8l-6.3,1.8c-0.1,0-0.3,0-0.4,0l-6.3-1.8V77.1z"/>
	</g>
	<g>
		
			<linearGradient id="SVGID_00000114762705099577022470000018084599638866654862_" gradientUnits="userSpaceOnUse" x1="68.0002" y1="122.0051" x2="-6.6543" y2="51.1112">
			<stop  offset="0.4" style="stop-color:#F39800"/>
			<stop  offset="0.9039" style="stop-color:#C42D1B"/>
		</linearGradient>
		<path style="fill:url(#SVGID_00000114762705099577022470000018084599638866654862_);" d="M29.4,84.9H19c-1.6,0-2.9-1.3-2.9-2.9
			v-4.2c0-0.4,0.4-0.8,0.8-0.8h14.6c0.4,0,0.8,0.4,0.8,0.8V82C32.3,83.6,31,84.9,29.4,84.9z M17.6,78.6V82c0,0.7,0.6,1.3,1.3,1.3
			h10.5c0.7,0,1.3-0.6,1.3-1.3v-3.4H17.6z"/>
	</g>
	<g>
		
			<linearGradient id="SVGID_00000169522629244190957630000000037412039359470748_" gradientUnits="userSpaceOnUse" x1="94.6962" y1="93.893" x2="20.0417" y2="22.9991">
			<stop  offset="0.4" style="stop-color:#F39800"/>
			<stop  offset="0.9039" style="stop-color:#C42D1B"/>
		</linearGradient>
		<path style="fill:url(#SVGID_00000169522629244190957630000000037412039359470748_);" d="M24.2,32.6c-0.1,0-0.1,0-0.2,0l-7.3-2.1
			c-0.2-0.1-0.4-0.2-0.5-0.5c-0.1-0.2-0.1-0.5,0.1-0.7l7.3-12.6c0.3-0.5,1.1-0.5,1.4,0l7.3,12.6c0.1,0.2,0.1,0.5,0.1,0.7
			c-0.1,0.2-0.3,0.4-0.5,0.5l-7.3,2.1C24.3,32.6,24.3,32.6,24.2,32.6z M18.1,29.3l6.1,1.8l6.1-1.8l-6.1-10.5L18.1,29.3z"/>
	</g>
	<g>
		
			<linearGradient id="SVGID_00000173128593082173203580000011583417299672030601_" gradientUnits="userSpaceOnUse" x1="80.762" y1="108.5663" x2="6.1075" y2="37.6724">
			<stop  offset="0.4" style="stop-color:#F39800"/>
			<stop  offset="0.9039" style="stop-color:#C42D1B"/>
		</linearGradient>
		<path style="fill:url(#SVGID_00000173128593082173203580000011583417299672030601_);" d="M24.2,78.6c-0.4,0-0.8-0.4-0.8-0.8v-46
			c0-0.4,0.4-0.8,0.8-0.8c0.4,0,0.8,0.4,0.8,0.8v46C25,78.3,24.6,78.6,24.2,78.6z"/>
	</g>
	<g>
		
			<linearGradient id="SVGID_00000183246092275197144490000014399732192571055526_" gradientUnits="userSpaceOnUse" x1="100.4704" y1="87.8126" x2="25.8158" y2="16.9186">
			<stop  offset="0.4" style="stop-color:#F39800"/>
			<stop  offset="0.9039" style="stop-color:#C42D1B"/>
		</linearGradient>
		<path style="fill:url(#SVGID_00000183246092275197144490000014399732192571055526_);" d="M50.3,45.9c-3.1,0-5.7-2.5-5.7-5.7
			c0-3.1,2.5-5.7,5.7-5.7c3.1,0,5.7,2.5,5.7,5.7C56,43.3,53.5,45.9,50.3,45.9z M50.3,36.1c-2.3,0-4.1,1.8-4.1,4.1
			c0,2.3,1.8,4.1,4.1,4.1c2.3,0,4.1-1.8,4.1-4.1C54.4,38,52.6,36.1,50.3,36.1z"/>
	</g>
	<g>
		
			<linearGradient id="SVGID_00000072272681450005522450000006419243885612096694_" gradientUnits="userSpaceOnUse" x1="100.4686" y1="87.8144" x2="25.8141" y2="16.9205">
			<stop  offset="0.4" style="stop-color:#F39800"/>
			<stop  offset="0.9039" style="stop-color:#C42D1B"/>
		</linearGradient>
		<path style="fill:url(#SVGID_00000072272681450005522450000006419243885612096694_);" d="M50.3,55.6c-0.8,0-1.7-0.1-2.5-0.2
			c-0.3-0.1-0.6-0.3-0.6-0.6l-0.7-4.5c-0.2-0.1-0.3-0.1-0.5-0.2l-3.7,2.7c-0.3,0.2-0.6,0.2-0.9,0c-1.4-1-2.6-2.2-3.5-3.5
			c-0.2-0.3-0.2-0.6,0-0.9l2.7-3.7c-0.1-0.2-0.1-0.3-0.2-0.5l-4.5-0.7c-0.3-0.1-0.6-0.3-0.6-0.6c-0.1-0.8-0.2-1.7-0.2-2.5
			c0-0.8,0.1-1.7,0.2-2.5c0.1-0.3,0.3-0.6,0.6-0.6l4.5-0.7c0.1-0.2,0.1-0.3,0.2-0.5l-2.7-3.7c-0.2-0.3-0.2-0.6,0-0.9
			c1-1.4,2.2-2.6,3.5-3.5c0.3-0.2,0.6-0.2,0.9,0l3.7,2.7c0.2-0.1,0.3-0.1,0.5-0.2l0.7-4.5c0.1-0.3,0.3-0.6,0.6-0.6
			c1.7-0.3,3.4-0.3,5,0c0.3,0.1,0.6,0.3,0.6,0.6l0.7,4.5c0.2,0.1,0.3,0.1,0.5,0.2l3.7-2.7c0.3-0.2,0.6-0.2,0.9,0
			c1.4,1,2.6,2.2,3.5,3.5c0.2,0.3,0.2,0.6,0,0.9l-2.7,3.7c0.1,0.2,0.1,0.3,0.2,0.5l4.5,0.7c0.3,0.1,0.6,0.3,0.7,0.6
			c0.1,0.8,0.2,1.7,0.2,2.5c0,0.8-0.1,1.7-0.2,2.5c-0.1,0.3-0.3,0.6-0.7,0.6l-4.5,0.7c-0.1,0.2-0.1,0.3-0.2,0.5l2.7,3.7
			c0.2,0.3,0.2,0.6,0,0.9c-1,1.4-2.2,2.6-3.5,3.5c-0.3,0.2-0.6,0.2-0.9,0l-3.7-2.7c-0.2,0.1-0.3,0.1-0.5,0.2l-0.7,4.5
			c-0.1,0.3-0.3,0.6-0.6,0.6C52,55.6,51.2,55.6,50.3,55.6z M48.7,54c1.1,0.1,2.3,0.1,3.4,0l0.7-4.4c0-0.3,0.2-0.5,0.5-0.6
			c0.4-0.1,0.8-0.3,1.2-0.5c0.3-0.1,0.6-0.1,0.8,0.1l3.6,2.6c0.9-0.7,1.7-1.5,2.4-2.4l-2.6-3.6c-0.2-0.2-0.2-0.5-0.1-0.8
			c0.2-0.4,0.4-0.8,0.5-1.2c0.1-0.3,0.3-0.5,0.6-0.5l4.4-0.7c0.1-0.6,0.1-1.1,0.1-1.7c0-0.6,0-1.1-0.1-1.7l-4.4-0.7
			c-0.3,0-0.5-0.2-0.6-0.5c-0.1-0.4-0.3-0.8-0.5-1.2c-0.1-0.3-0.1-0.6,0.1-0.8l2.6-3.6c-0.7-0.9-1.5-1.7-2.4-2.4l-3.6,2.6
			c-0.2,0.2-0.5,0.2-0.8,0.1c-0.4-0.2-0.8-0.4-1.2-0.5c-0.3-0.1-0.5-0.3-0.5-0.6L52,26.5c-1.1-0.1-2.3-0.1-3.4,0l-0.7,4.4
			c0,0.3-0.2,0.5-0.5,0.6c-0.4,0.1-0.8,0.3-1.2,0.5c-0.3,0.1-0.6,0.1-0.8-0.1l-3.6-2.6c-0.9,0.7-1.7,1.5-2.4,2.4l2.6,3.6
			c0.2,0.2,0.2,0.6,0.1,0.8c-0.2,0.4-0.4,0.8-0.5,1.2c-0.1,0.3-0.3,0.5-0.6,0.5l-4.4,0.7c-0.1,0.6-0.1,1.1-0.1,1.7
			c0,0.6,0,1.1,0.1,1.7l4.4,0.7c0.3,0,0.5,0.2,0.6,0.5c0.1,0.4,0.3,0.8,0.5,1.2c0.1,0.3,0.1,0.6-0.1,0.8l-2.6,3.6
			c0.7,0.9,1.5,1.7,2.4,2.4l3.6-2.6c0.2-0.2,0.6-0.2,0.8-0.1c0.4,0.2,0.7,0.3,1.2,0.5c0.3,0.1,0.5,0.3,0.5,0.6L48.7,54z M64.8,42.6
			L64.8,42.6L64.8,42.6z"/>
	</g>
	<g>
		
			<linearGradient id="SVGID_00000077312382944242879460000016584046322425614246_" gradientUnits="userSpaceOnUse" x1="94.8533" y1="93.7276" x2="20.1987" y2="22.8337">
			<stop  offset="0.4" style="stop-color:#F39800"/>
			<stop  offset="0.9039" style="stop-color:#C42D1B"/>
		</linearGradient>
		<path style="fill:url(#SVGID_00000077312382944242879460000016584046322425614246_);" d="M73.4,79.7c-0.4,0-0.8-0.4-0.8-0.8V67.7
			c0-0.4,0.4-0.8,0.8-0.8c0.4,0,0.8,0.4,0.8,0.8V79C74.1,79.4,73.8,79.7,73.4,79.7z"/>
	</g>
	<g>
		
			<linearGradient id="SVGID_00000031183740656668930620000004265021563364168834_" gradientUnits="userSpaceOnUse" x1="100.3384" y1="87.9516" x2="25.6839" y2="17.0576">
			<stop  offset="0.4" style="stop-color:#F39800"/>
			<stop  offset="0.9039" style="stop-color:#C42D1B"/>
		</linearGradient>
		<path style="fill:url(#SVGID_00000031183740656668930620000004265021563364168834_);" d="M73.4,64.3c-0.4,0-0.8-0.4-0.8-0.8v-2.3
			c0-0.4,0.4-0.8,0.8-0.8c0.4,0,0.8,0.4,0.8,0.8v2.3C74.1,63.9,73.8,64.3,73.4,64.3z"/>
	</g>
	<g>
		
			<linearGradient id="SVGID_00000172410516814477129700000004257904975682935441_" gradientUnits="userSpaceOnUse" x1="101.5956" y1="86.6277" x2="26.941" y2="15.7338">
			<stop  offset="0.4" style="stop-color:#F39800"/>
			<stop  offset="0.9039" style="stop-color:#C42D1B"/>
		</linearGradient>
		<path style="fill:url(#SVGID_00000172410516814477129700000004257904975682935441_);" d="M91.1,75.5H87c-0.4,0-0.8-0.4-0.8-0.8
			c0-0.4,0.4-0.8,0.8-0.8h4.2c0.4,0,0.8,0.4,0.8,0.8C91.9,75.2,91.6,75.5,91.1,75.5z"/>
	</g>
	<g>
		
			<linearGradient id="SVGID_00000175282422534499067250000005596657772957234852_" gradientUnits="userSpaceOnUse" x1="101.5956" y1="86.6277" x2="26.941" y2="15.7338">
			<stop  offset="0.4" style="stop-color:#F39800"/>
			<stop  offset="0.9039" style="stop-color:#C42D1B"/>
		</linearGradient>
		<path style="fill:url(#SVGID_00000175282422534499067250000005596657772957234852_);" d="M89.1,77.6c-0.4,0-0.8-0.4-0.8-0.8v-4.2
			c0-0.4,0.4-0.8,0.8-0.8c0.4,0,0.8,0.4,0.8,0.8v4.2C89.8,77.2,89.5,77.6,89.1,77.6z"/>
	</g>
	<g>
		
			<linearGradient id="SVGID_00000062871590199934045760000002584746545142080147_" gradientUnits="userSpaceOnUse" x1="104.7298" y1="83.3272" x2="30.0752" y2="12.4333">
			<stop  offset="0.4" style="stop-color:#F39800"/>
			<stop  offset="0.9039" style="stop-color:#C42D1B"/>
		</linearGradient>
		<path style="fill:url(#SVGID_00000062871590199934045760000002584746545142080147_);" d="M89.8,68.4c0,0.4-0.4,0.8-0.8,0.8
			c-0.4,0-0.8-0.4-0.8-0.8c0-0.4,0.4-0.8,0.8-0.8C89.5,67.7,89.8,68,89.8,68.4z"/>
	</g>
	<g>
		
			<linearGradient id="SVGID_00000163760959863278486640000002945743754912880033_" gradientUnits="userSpaceOnUse" x1="106.8193" y1="81.1268" x2="32.1648" y2="10.2329">
			<stop  offset="0.4" style="stop-color:#F39800"/>
			<stop  offset="0.9039" style="stop-color:#C42D1B"/>
		</linearGradient>
		<path style="fill:url(#SVGID_00000163760959863278486640000002945743754912880033_);" d="M89.8,64.3c0,0.4-0.4,0.8-0.8,0.8
			c-0.4,0-0.8-0.4-0.8-0.8c0-0.4,0.4-0.8,0.8-0.8C89.5,63.5,89.8,63.8,89.8,64.3z"/>
	</g>
	<g>
		
			<linearGradient id="SVGID_00000163057153057820568220000014409998136177522603_" gradientUnits="userSpaceOnUse" x1="109.4322" y1="78.3754" x2="34.7776" y2="7.4815">
			<stop  offset="0.4" style="stop-color:#F39800"/>
			<stop  offset="0.9039" style="stop-color:#C42D1B"/>
		</linearGradient>
		<path style="fill:url(#SVGID_00000163057153057820568220000014409998136177522603_);" d="M89.8,59c0,0.4-0.4,0.8-0.8,0.8
			c-0.4,0-0.8-0.3-0.8-0.8c0-0.4,0.4-0.8,0.8-0.8C89.5,58.2,89.8,58.6,89.8,59z"/>
	</g>
	<g>
		
			<linearGradient id="SVGID_00000133500017425517378670000002448886868448122557_" gradientUnits="userSpaceOnUse" x1="113.0891" y1="74.5245" x2="38.4345" y2="3.6306">
			<stop  offset="0.4" style="stop-color:#F39800"/>
			<stop  offset="0.9039" style="stop-color:#C42D1B"/>
		</linearGradient>
		<path style="fill:url(#SVGID_00000133500017425517378670000002448886868448122557_);" d="M89.8,51.7c0,0.4-0.4,0.8-0.8,0.8
			c-0.4,0-0.8-0.4-0.8-0.8c0-0.4,0.4-0.8,0.8-0.8C89.5,50.9,89.8,51.3,89.8,51.7z"/>
	</g>
	<g>
		
			<linearGradient id="SVGID_00000120555859545315426520000016540124306107683248_" gradientUnits="userSpaceOnUse" x1="83.0383" y1="106.1693" x2="8.3838" y2="35.2754">
			<stop  offset="0.4" style="stop-color:#F39800"/>
			<stop  offset="0.9039" style="stop-color:#C42D1B"/>
		</linearGradient>
		<path style="fill:url(#SVGID_00000120555859545315426520000016540124306107683248_);" d="M13.7,39.1H9.5c-0.4,0-0.8-0.4-0.8-0.8
			c0-0.4,0.4-0.8,0.8-0.8h4.2c0.4,0,0.8,0.4,0.8,0.8C14.5,38.8,14.2,39.1,13.7,39.1z"/>
	</g>
	<g>
		
			<linearGradient id="SVGID_00000168111927487277885730000007578858796105531296_" gradientUnits="userSpaceOnUse" x1="83.0383" y1="106.1693" x2="8.3838" y2="35.2754">
			<stop  offset="0.4" style="stop-color:#F39800"/>
			<stop  offset="0.9039" style="stop-color:#C42D1B"/>
		</linearGradient>
		<path style="fill:url(#SVGID_00000168111927487277885730000007578858796105531296_);" d="M11.6,41.2c-0.4,0-0.8-0.4-0.8-0.8v-4.2
			c0-0.4,0.4-0.8,0.8-0.8c0.4,0,0.8,0.4,0.8,0.8v4.2C12.4,40.9,12.1,41.2,11.6,41.2z"/>
	</g>
	<g>
		
			<linearGradient id="SVGID_00000100359369858742065300000008642334056751017663_" gradientUnits="userSpaceOnUse" x1="79.3802" y1="110.0214" x2="4.7257" y2="39.1275">
			<stop  offset="0.4" style="stop-color:#F39800"/>
			<stop  offset="0.9039" style="stop-color:#C42D1B"/>
		</linearGradient>
		<path style="fill:url(#SVGID_00000100359369858742065300000008642334056751017663_);" d="M10.8,45.7c0-0.4,0.4-0.8,0.8-0.8
			c0.4,0,0.8,0.4,0.8,0.8c0,0.4-0.4,0.8-0.8,0.8C11.2,46.5,10.8,46.1,10.8,45.7z"/>
	</g>
	<g>
		
			<linearGradient id="SVGID_00000054249182993118660910000001505133077209824643_" gradientUnits="userSpaceOnUse" x1="76.7683" y1="112.7719" x2="2.1138" y2="41.878">
			<stop  offset="0.4" style="stop-color:#F39800"/>
			<stop  offset="0.9039" style="stop-color:#C42D1B"/>
		</linearGradient>
		<path style="fill:url(#SVGID_00000054249182993118660910000001505133077209824643_);" d="M10.8,50.9c0-0.4,0.4-0.8,0.8-0.8
			c0.4,0,0.8,0.4,0.8,0.8c0,0.4-0.4,0.8-0.8,0.8C11.2,51.7,10.8,51.4,10.8,50.9z"/>
	</g>
	<g>
		
			<linearGradient id="SVGID_00000178203317189876106300000015599648543299659913_" gradientUnits="userSpaceOnUse" x1="73.6339" y1="116.0725" x2="-1.0206" y2="45.1786">
			<stop  offset="0.4" style="stop-color:#F39800"/>
			<stop  offset="0.9039" style="stop-color:#C42D1B"/>
		</linearGradient>
		<path style="fill:url(#SVGID_00000178203317189876106300000015599648543299659913_);" d="M10.8,57.2c0-0.4,0.4-0.8,0.8-0.8
			c0.4,0,0.8,0.4,0.8,0.8c0,0.4-0.4,0.8-0.8,0.8C11.2,58,10.8,57.6,10.8,57.2z"/>
	</g>
	<g>
		
			<linearGradient id="SVGID_00000113330881930295241000000011847667903032837027_" gradientUnits="userSpaceOnUse" x1="69.4538" y1="120.4744" x2="-5.2007" y2="49.5805">
			<stop  offset="0.4" style="stop-color:#F39800"/>
			<stop  offset="0.9039" style="stop-color:#C42D1B"/>
		</linearGradient>
		<path style="fill:url(#SVGID_00000113330881930295241000000011847667903032837027_);" d="M10.8,65.6c0-0.4,0.4-0.8,0.8-0.8
			c0.4,0,0.8,0.4,0.8,0.8c0,0.4-0.4,0.8-0.8,0.8C11.2,66.4,10.8,66,10.8,65.6z"/>
	</g>
	
		<linearGradient id="SVGID_00000082335259871102700590000017142889061296718503_" gradientUnits="userSpaceOnUse" x1="106.8439" y1="81.101" x2="32.1894" y2="10.207">
		<stop  offset="0.4" style="stop-color:#F39800"/>
		<stop  offset="0.9039" style="stop-color:#C42D1B"/>
	</linearGradient>
	<path style="fill:url(#SVGID_00000082335259871102700590000017142889061296718503_);" d="M66.7,22.9c-4.8-4.5-11.1-6.8-17.7-6.5
		c-7.9,0.4-14.8,4.8-18.8,11.2l0.8,1.6c3.7-6.4,10.4-10.8,18.1-11.2c6.2-0.3,12,1.8,16.5,6.1c1.4,1.4,2.7,2.9,3.7,4.6v-2.8
		C68.5,24.8,67.7,23.8,66.7,22.9z"/>
	
		<linearGradient id="SVGID_00000016072770129808056740000016087859284904603281_" gradientUnits="userSpaceOnUse" x1="92.169" y1="96.5543" x2="17.5145" y2="25.6603">
		<stop  offset="0.4" style="stop-color:#F39800"/>
		<stop  offset="0.9039" style="stop-color:#C42D1B"/>
	</linearGradient>
	<path style="fill:url(#SVGID_00000016072770129808056740000016087859284904603281_);" d="M65.9,56.1c-2.8,2.7-4.3,6.2-4.3,9.8v0.8
		H39.1v-0.5c0-3.8-1.5-7.4-4.1-9.9c-1.3-1.3-2.5-2.7-3.4-4.3l0,2.7c0.7,1,1.5,1.9,2.4,2.7c2.3,2.2,3.6,5.4,3.6,8.8v1.3
		c0,0.4,0.4,0.8,0.8,0.8h24.1c0.4,0,0.8-0.4,0.8-0.8v-1.6c0-3.2,1.3-6.3,3.8-8.7c0.9-0.8,1.6-1.7,2.3-2.7v-2.8
		C68.4,53.3,67.2,54.8,65.9,56.1z"/>
</g>
</svg>
