<?xml version="1.0" encoding="utf-8"?>
<!-- Generator: Adobe Illustrator 27.0.1, SVG Export Plug-In . SVG Version: 6.00 Build 0)  -->
<svg version="1.1" id="圖層_1" xmlns="http://www.w3.org/2000/svg" xmlns:xlink="http://www.w3.org/1999/xlink" x="0px" y="0px"
	 viewBox="0 0 100 100" style="enable-background:new 0 0 100 100;" xml:space="preserve">
<style type="text/css">
	.st0{fill:url(#SVGID_1_);}
	.st1{fill:url(#SVGID_00000174576435475137676730000002081882503098578840_);}
	.st2{fill:url(#SVGID_00000060746226324832690750000006889736749407179187_);}
	.st3{fill:url(#SVGID_00000060726991112801763330000012792818603470774658_);}
	.st4{fill:url(#SVGID_00000045592244783038349540000005110876784104954268_);}
	.st5{fill:url(#SVGID_00000078015775570041124430000010220187616167322299_);}
	.st6{fill:url(#SVGID_00000106147226199994744760000006493459738280001973_);}
	.st7{fill:url(#SVGID_00000073712424879332997060000016820101471204074923_);}
	.st8{fill:url(#SVGID_00000011746837054919677270000013232347940095734696_);}
	.st9{fill:url(#SVGID_00000026131315411678945810000014197602267027025287_);}
	.st10{fill:url(#SVGID_00000085929428724431475070000008393253884974047904_);}
	.st11{fill:url(#SVGID_00000085947754685161483280000004262132565178426790_);}
	.st12{fill:url(#SVGID_00000060014946716673291460000014832714270130228615_);}
	.st13{fill:url(#SVGID_00000036936749842084061230000009269711358161737104_);}
	.st14{fill:url(#SVGID_00000158007220339053405620000008092967446902988212_);}
	.st15{fill:url(#SVGID_00000103235091173357187310000017120157127029065346_);}
	.st16{fill:url(#SVGID_00000055667388019266257870000007904114790917024400_);}
	.st17{fill:url(#SVGID_00000074400681756329091980000005474414883978109346_);}
	.st18{fill:url(#SVGID_00000085929525474387540880000006770579194243557027_);}
	.st19{fill:url(#SVGID_00000040562907299072601630000012634866166738394036_);}
	.st20{fill:url(#SVGID_00000099661556579640037370000018255683434303600534_);}
	.st21{fill:url(#SVGID_00000132805610639580998410000012427393126822632894_);}
	.st22{fill:url(#SVGID_00000071543703945341799890000012265319108185382847_);}
	.st23{fill:url(#SVGID_00000081630602309665520710000009398093509008584327_);}
	.st24{fill:url(#SVGID_00000051376207255411609420000003805371578344082325_);}
	.st25{fill:url(#SVGID_00000077291250608888523110000006816326489795013522_);}
	.st26{fill:url(#SVGID_00000013186785805337755010000014491070906473551545_);}
	.st27{fill:url(#SVGID_00000100376326588622094610000005705104925616033710_);}
	.st28{fill:url(#SVGID_00000085973485827290350180000000292829606564467603_);}
	.st29{fill:url(#SVGID_00000034769266749994882570000004349977146245397927_);}
</style>
<g>
	<g>
		<linearGradient id="SVGID_1_" gradientUnits="userSpaceOnUse" x1="121.598" y1="96.4855" x2="35.801" y2="11.2456">
			<stop  offset="0.4" style="stop-color:#F39800"/>
			<stop  offset="0.9039" style="stop-color:#C42D1B"/>
		</linearGradient>
		<path class="st0" d="M56.6,27.4H35.7c-2.2,0-3.9-1.8-3.9-3.9v-5.2c0-0.4,0.3-0.8,0.8-0.8h27.1c0.4,0,0.8,0.3,0.8,0.8v5.2
			C60.5,25.6,58.7,27.4,56.6,27.4z M33.4,19.1v4.4c0,1.3,1.1,2.3,2.3,2.3h20.8c1.3,0,2.3-1.1,2.3-2.3v-4.4H33.4z"/>
	</g>
	<g>
		
			<linearGradient id="SVGID_00000095298538179906291460000012179890624698985886_" gradientUnits="userSpaceOnUse" x1="114.8354" y1="103.2924" x2="29.0384" y2="18.0525">
			<stop  offset="0.4" style="stop-color:#F39800"/>
			<stop  offset="0.9039" style="stop-color:#C42D1B"/>
		</linearGradient>
		<path style="fill:url(#SVGID_00000095298538179906291460000012179890624698985886_);" d="M65.9,76.3c-11.9,0-21.6-9.7-21.6-21.6
			S54,33.1,65.9,33.1c11.9,0,21.6,9.7,21.6,21.6S77.8,76.3,65.9,76.3z M65.9,34.7c-11,0-20,9-20,20c0,11,9,20,20,20c11,0,20-9,20-20
			C85.9,43.6,77,34.7,65.9,34.7z"/>
	</g>
	<g>
		
			<linearGradient id="SVGID_00000172439023969676676220000005800060449046253204_" gradientUnits="userSpaceOnUse" x1="114.5959" y1="103.5334" x2="28.7989" y2="18.2935">
			<stop  offset="0.4" style="stop-color:#F39800"/>
			<stop  offset="0.9039" style="stop-color:#C42D1B"/>
		</linearGradient>
		<path style="fill:url(#SVGID_00000172439023969676676220000005800060449046253204_);" d="M50.2,50c-0.1,0-0.2,0-0.3,0
			c-0.4-0.1-0.6-0.6-0.5-1c1.6-4.8,5.3-8.6,9.9-10.5c0.4-0.2,0.9,0,1,0.4c0.2,0.4,0,0.9-0.4,1c-4.3,1.7-7.5,5.2-9,9.5
			C50.8,49.8,50.5,50,50.2,50z"/>
	</g>
	<g>
		
			<linearGradient id="SVGID_00000145042533831457806950000013853943302667001749_" gradientUnits="userSpaceOnUse" x1="106.824" y1="111.3561" x2="21.027" y2="26.1163">
			<stop  offset="0.4" style="stop-color:#F39800"/>
			<stop  offset="0.9039" style="stop-color:#C42D1B"/>
		</linearGradient>
		<path style="fill:url(#SVGID_00000145042533831457806950000013853943302667001749_);" d="M49.3,56.3c-0.4,0-0.8-0.3-0.8-0.7
			c0-0.3,0-0.6,0-0.9c0-0.6,0-1.2,0.1-1.8c0-0.4,0.4-0.7,0.9-0.7c0.4,0,0.7,0.4,0.7,0.9c-0.1,0.6-0.1,1.1-0.1,1.7c0,0.3,0,0.5,0,0.8
			C50.1,55.9,49.8,56.3,49.3,56.3C49.3,56.3,49.3,56.3,49.3,56.3z"/>
	</g>
	<g>
		
			<linearGradient id="SVGID_00000073696425647550841000000011538642330086885773_" gradientUnits="userSpaceOnUse" x1="114.8351" y1="103.2926" x2="29.0381" y2="18.0527">
			<stop  offset="0.4" style="stop-color:#F39800"/>
			<stop  offset="0.9039" style="stop-color:#C42D1B"/>
		</linearGradient>
		<path style="fill:url(#SVGID_00000073696425647550841000000011538642330086885773_);" d="M65.9,64.9c-5.6,0-10.2-4.6-10.2-10.2
			s4.6-10.2,10.2-10.2c5.6,0,10.2,4.6,10.2,10.2S71.6,64.9,65.9,64.9z M65.9,46c-4.8,0-8.7,3.9-8.7,8.7s3.9,8.7,8.7,8.7
			c4.8,0,8.7-3.9,8.7-8.7S70.7,46,65.9,46z"/>
	</g>
	<g>
		
			<linearGradient id="SVGID_00000169540566649014008920000005109705486795872188_" gradientUnits="userSpaceOnUse" x1="106.1094" y1="112.0753" x2="20.3124" y2="26.8354">
			<stop  offset="0.4" style="stop-color:#F39800"/>
			<stop  offset="0.9039" style="stop-color:#C42D1B"/>
		</linearGradient>
		<path style="fill:url(#SVGID_00000169540566649014008920000005109705486795872188_);" d="M31.6,39.9h-4.2c-1,0-1.8-0.8-1.8-1.8
			v-4.2c0-1,0.8-1.8,1.8-1.8h4.2c1,0,1.8,0.8,1.8,1.8V38C33.4,39,32.6,39.9,31.6,39.9z M27.4,33.6c-0.1,0-0.3,0.1-0.3,0.3V38
			c0,0.1,0.1,0.3,0.3,0.3h4.2c0.1,0,0.3-0.1,0.3-0.3v-4.2c0-0.1-0.1-0.3-0.3-0.3H27.4z"/>
	</g>
	<g>
		
			<linearGradient id="SVGID_00000183949420612047506890000003991995331207242885_" gradientUnits="userSpaceOnUse" x1="99.8667" y1="118.3588" x2="14.0697" y2="33.1189">
			<stop  offset="0.4" style="stop-color:#F39800"/>
			<stop  offset="0.9039" style="stop-color:#C42D1B"/>
		</linearGradient>
		<path style="fill:url(#SVGID_00000183949420612047506890000003991995331207242885_);" d="M31.6,52.4h-4.2c-1,0-1.8-0.8-1.8-1.8
			v-4.2c0-1,0.8-1.8,1.8-1.8h4.2c1,0,1.8,0.8,1.8,1.8v4.2C33.4,51.5,32.6,52.4,31.6,52.4z M27.4,46.1c-0.1,0-0.3,0.1-0.3,0.3v4.2
			c0,0.1,0.1,0.3,0.3,0.3h4.2c0.1,0,0.3-0.1,0.3-0.3v-4.2c0-0.1-0.1-0.3-0.3-0.3H27.4z"/>
	</g>
	<g>
		
			<linearGradient id="SVGID_00000039107074436228926240000005581158281304334742_" gradientUnits="userSpaceOnUse" x1="93.624" y1="124.6424" x2="7.827" y2="39.4025">
			<stop  offset="0.4" style="stop-color:#F39800"/>
			<stop  offset="0.9039" style="stop-color:#C42D1B"/>
		</linearGradient>
		<path style="fill:url(#SVGID_00000039107074436228926240000005581158281304334742_);" d="M31.6,64.8h-4.2c-1,0-1.8-0.8-1.8-1.8
			v-4.2c0-1,0.8-1.8,1.8-1.8h4.2c1,0,1.8,0.8,1.8,1.8V63C33.4,64,32.6,64.8,31.6,64.8z M27.4,58.6c-0.1,0-0.3,0.1-0.3,0.3V63
			c0,0.1,0.1,0.3,0.3,0.3h4.2c0.1,0,0.3-0.1,0.3-0.3v-4.2c0-0.1-0.1-0.3-0.3-0.3H27.4z"/>
	</g>
	<g>
		
			<linearGradient id="SVGID_00000062873038428516235790000015115007523131557813_" gradientUnits="userSpaceOnUse" x1="87.3813" y1="130.9259" x2="1.5843" y2="45.686">
			<stop  offset="0.4" style="stop-color:#F39800"/>
			<stop  offset="0.9039" style="stop-color:#C42D1B"/>
		</linearGradient>
		<path style="fill:url(#SVGID_00000062873038428516235790000015115007523131557813_);" d="M31.6,77.3h-4.2c-1,0-1.8-0.8-1.8-1.8
			v-4.2c0-1,0.8-1.8,1.8-1.8h4.2c1,0,1.8,0.8,1.8,1.8v4.2C33.4,76.5,32.6,77.3,31.6,77.3z M27.4,71.1c-0.1,0-0.3,0.1-0.3,0.3v4.2
			c0,0.1,0.1,0.3,0.3,0.3h4.2c0.1,0,0.3-0.1,0.3-0.3v-4.2c0-0.1-0.1-0.3-0.3-0.3H27.4z"/>
	</g>
	<g>
		
			<linearGradient id="SVGID_00000101087315632126448700000011576566629550949783_" gradientUnits="userSpaceOnUse" x1="116.6067" y1="101.5094" x2="30.8097" y2="16.2695">
			<stop  offset="0.4" style="stop-color:#F39800"/>
			<stop  offset="0.9039" style="stop-color:#C42D1B"/>
		</linearGradient>
		<path style="fill:url(#SVGID_00000101087315632126448700000011576566629550949783_);" d="M52.4,34.7h-7.7c-0.4,0-0.8-0.3-0.8-0.8
			s0.3-0.8,0.8-0.8h7.7c0.4,0,0.8,0.3,0.8,0.8S52.8,34.7,52.4,34.7z"/>
	</g>
	<g>
		
			<linearGradient id="SVGID_00000109750140577686419600000006233370329596315549_" gradientUnits="userSpaceOnUse" x1="111.6972" y1="106.451" x2="25.9002" y2="21.2111">
			<stop  offset="0.4" style="stop-color:#F39800"/>
			<stop  offset="0.9039" style="stop-color:#C42D1B"/>
		</linearGradient>
		<path style="fill:url(#SVGID_00000109750140577686419600000006233370329596315549_);" d="M40.5,34.7h-3.7c-0.4,0-0.8-0.3-0.8-0.8
			s0.3-0.8,0.8-0.8h3.7c0.4,0,0.8,0.3,0.8,0.8S41,34.7,40.5,34.7z"/>
	</g>
	<g>
		
			<linearGradient id="SVGID_00000003798380107707225910000015621114249363709875_" gradientUnits="userSpaceOnUse" x1="111.5297" y1="106.6197" x2="25.7327" y2="21.3798">
			<stop  offset="0.4" style="stop-color:#F39800"/>
			<stop  offset="0.9039" style="stop-color:#C42D1B"/>
		</linearGradient>
		<path style="fill:url(#SVGID_00000003798380107707225910000015621114249363709875_);" d="M48.2,38.8H36.8c-0.4,0-0.8-0.3-0.8-0.8
			c0-0.4,0.3-0.8,0.8-0.8h11.4c0.4,0,0.8,0.3,0.8,0.8C49,38.5,48.7,38.8,48.2,38.8z"/>
	</g>
	<g>
		
			<linearGradient id="SVGID_00000132775340491305219220000005553367704144845965_" gradientUnits="userSpaceOnUse" x1="106.075" y1="112.1099" x2="20.278" y2="26.8701">
			<stop  offset="0.4" style="stop-color:#F39800"/>
			<stop  offset="0.9039" style="stop-color:#C42D1B"/>
		</linearGradient>
		<path style="fill:url(#SVGID_00000132775340491305219220000005553367704144845965_);" d="M43,47.1h-6.2c-0.4,0-0.8-0.3-0.8-0.8
			c0-0.4,0.3-0.8,0.8-0.8H43c0.4,0,0.8,0.3,0.8,0.8C43.8,46.8,43.5,47.1,43,47.1z"/>
	</g>
	<g>
		
			<linearGradient id="SVGID_00000093857755763141890430000005887248965210584752_" gradientUnits="userSpaceOnUse" x1="103.7358" y1="114.4645" x2="17.9388" y2="29.2246">
			<stop  offset="0.4" style="stop-color:#F39800"/>
			<stop  offset="0.9039" style="stop-color:#C42D1B"/>
		</linearGradient>
		<path style="fill:url(#SVGID_00000093857755763141890430000005887248965210584752_);" d="M42,51.3h-5.2c-0.4,0-0.8-0.3-0.8-0.8
			c0-0.4,0.3-0.8,0.8-0.8H42c0.4,0,0.8,0.3,0.8,0.8C42.8,51,42.4,51.3,42,51.3z"/>
	</g>
	<g>
		
			<linearGradient id="SVGID_00000155133588872924215890000011305587621422169535_" gradientUnits="userSpaceOnUse" x1="99.5743" y1="118.6531" x2="13.7773" y2="33.4133">
			<stop  offset="0.4" style="stop-color:#F39800"/>
			<stop  offset="0.9039" style="stop-color:#C42D1B"/>
		</linearGradient>
		<path style="fill:url(#SVGID_00000155133588872924215890000011305587621422169535_);" d="M42,59.6h-5.2c-0.4,0-0.8-0.3-0.8-0.8
			c0-0.4,0.3-0.8,0.8-0.8H42c0.4,0,0.8,0.3,0.8,0.8C42.8,59.3,42.4,59.6,42,59.6z"/>
	</g>
	<g>
		
			<linearGradient id="SVGID_00000150804922915834575600000012682483369265028001_" gradientUnits="userSpaceOnUse" x1="97.7511" y1="120.4883" x2="11.9541" y2="35.2484">
			<stop  offset="0.4" style="stop-color:#F39800"/>
			<stop  offset="0.9039" style="stop-color:#C42D1B"/>
		</linearGradient>
		<path style="fill:url(#SVGID_00000150804922915834575600000012682483369265028001_);" d="M43,63.8h-6.2c-0.4,0-0.8-0.3-0.8-0.8
			s0.3-0.8,0.8-0.8H43c0.4,0,0.8,0.3,0.8,0.8S43.5,63.8,43,63.8z"/>
	</g>
	<g>
		
			<linearGradient id="SVGID_00000152233702056426800210000012070558348200044448_" gradientUnits="userSpaceOnUse" x1="94.8817" y1="123.3764" x2="9.0847" y2="38.1365">
			<stop  offset="0.4" style="stop-color:#F39800"/>
			<stop  offset="0.9039" style="stop-color:#C42D1B"/>
		</linearGradient>
		<path style="fill:url(#SVGID_00000152233702056426800210000012070558348200044448_);" d="M48.2,72.1H36.8c-0.4,0-0.8-0.3-0.8-0.8
			c0-0.4,0.3-0.8,0.8-0.8h11.4c0.4,0,0.8,0.3,0.8,0.8C49,71.8,48.7,72.1,48.2,72.1z"/>
	</g>
	<g>
		
			<linearGradient id="SVGID_00000122684305524641850020000011046893664350361512_" gradientUnits="userSpaceOnUse" x1="96.4184" y1="121.8297" x2="10.6214" y2="36.5898">
			<stop  offset="0.4" style="stop-color:#F39800"/>
			<stop  offset="0.9039" style="stop-color:#C42D1B"/>
		</linearGradient>
		<path style="fill:url(#SVGID_00000122684305524641850020000011046893664350361512_);" d="M52.4,76.3h-5.2c-0.4,0-0.8-0.3-0.8-0.8
			s0.3-0.8,0.8-0.8h5.2c0.4,0,0.8,0.3,0.8,0.8S52.8,76.3,52.4,76.3z"/>
	</g>
	<g>
		
			<linearGradient id="SVGID_00000047036404386324369620000001151200076497338545_" gradientUnits="userSpaceOnUse" x1="91.5089" y1="126.7713" x2="5.7119" y2="41.5314">
			<stop  offset="0.4" style="stop-color:#F39800"/>
			<stop  offset="0.9039" style="stop-color:#C42D1B"/>
		</linearGradient>
		<path style="fill:url(#SVGID_00000047036404386324369620000001151200076497338545_);" d="M43,76.3h-6.2c-0.4,0-0.8-0.3-0.8-0.8
			s0.3-0.8,0.8-0.8H43c0.4,0,0.8,0.3,0.8,0.8S43.5,76.3,43,76.3z"/>
	</g>
	<g>
		
			<linearGradient id="SVGID_00000134216937924134804790000011888205684020364477_" gradientUnits="userSpaceOnUse" x1="136.6428" y1="81.3424" x2="50.8458" y2="-3.8975">
			<stop  offset="0.4" style="stop-color:#F39800"/>
			<stop  offset="0.9039" style="stop-color:#C42D1B"/>
		</linearGradient>
		<path style="fill:url(#SVGID_00000134216937924134804790000011888205684020364477_);" d="M80.5,24.3h-4.2c-0.4,0-0.8-0.3-0.8-0.8
			c0-0.4,0.3-0.8,0.8-0.8h4.2c0.4,0,0.8,0.3,0.8,0.8C81.3,23.9,80.9,24.3,80.5,24.3z"/>
	</g>
	<g>
		
			<linearGradient id="SVGID_00000000221534966475018950000015894132125213015201_" gradientUnits="userSpaceOnUse" x1="136.6427" y1="81.3424" x2="50.8457" y2="-3.8974">
			<stop  offset="0.4" style="stop-color:#F39800"/>
			<stop  offset="0.9039" style="stop-color:#C42D1B"/>
		</linearGradient>
		<path style="fill:url(#SVGID_00000000221534966475018950000015894132125213015201_);" d="M78.4,26.3c-0.4,0-0.8-0.3-0.8-0.8v-4.2
			c0-0.4,0.3-0.8,0.8-0.8c0.4,0,0.8,0.3,0.8,0.8v4.2C79.2,26,78.8,26.3,78.4,26.3z"/>
	</g>
	<g>
		
			<linearGradient id="SVGID_00000168093426240932030040000002894020122042919095_" gradientUnits="userSpaceOnUse" x1="135.0622" y1="82.9333" x2="49.2652" y2="-2.3065">
			<stop  offset="0.4" style="stop-color:#F39800"/>
			<stop  offset="0.9039" style="stop-color:#C42D1B"/>
		</linearGradient>
		<path style="fill:url(#SVGID_00000168093426240932030040000002894020122042919095_);" d="M86.7,33.6h-4.2c-0.4,0-0.8-0.3-0.8-0.8
			c0-0.4,0.3-0.8,0.8-0.8h4.2c0.4,0,0.8,0.3,0.8,0.8C87.5,33.3,87.2,33.6,86.7,33.6z"/>
	</g>
	<g>
		
			<linearGradient id="SVGID_00000091727008706361829580000015363957783377383553_" gradientUnits="userSpaceOnUse" x1="135.0622" y1="82.9333" x2="49.2652" y2="-2.3066">
			<stop  offset="0.4" style="stop-color:#F39800"/>
			<stop  offset="0.9039" style="stop-color:#C42D1B"/>
		</linearGradient>
		<path style="fill:url(#SVGID_00000091727008706361829580000015363957783377383553_);" d="M84.6,35.7c-0.4,0-0.8-0.3-0.8-0.8v-4.2
			c0-0.4,0.3-0.8,0.8-0.8c0.4,0,0.8,0.3,0.8,0.8v4.2C85.4,35.4,85.1,35.7,84.6,35.7z"/>
	</g>
	<g>
		
			<linearGradient id="SVGID_00000172421637522862339340000006267554180284076727_" gradientUnits="userSpaceOnUse" x1="110.6248" y1="107.5304" x2="24.8278" y2="22.2906">
			<stop  offset="0.4" style="stop-color:#F39800"/>
			<stop  offset="0.9039" style="stop-color:#C42D1B"/>
		</linearGradient>
		<path style="fill:url(#SVGID_00000172421637522862339340000006267554180284076727_);" d="M82.6,78.4h-4.2c-0.4,0-0.8-0.3-0.8-0.8
			c0-0.4,0.3-0.8,0.8-0.8h4.2c0.4,0,0.8,0.3,0.8,0.8C83.3,78,83,78.4,82.6,78.4z"/>
	</g>
	<g>
		
			<linearGradient id="SVGID_00000170266703032871123140000016785606447153570186_" gradientUnits="userSpaceOnUse" x1="110.6249" y1="107.5304" x2="24.8279" y2="22.2905">
			<stop  offset="0.4" style="stop-color:#F39800"/>
			<stop  offset="0.9039" style="stop-color:#C42D1B"/>
		</linearGradient>
		<path style="fill:url(#SVGID_00000170266703032871123140000016785606447153570186_);" d="M80.5,80.4c-0.4,0-0.8-0.3-0.8-0.8v-4.2
			c0-0.4,0.3-0.8,0.8-0.8c0.4,0,0.8,0.3,0.8,0.8v4.2C81.3,80.1,80.9,80.4,80.5,80.4z"/>
	</g>
	
		<linearGradient id="SVGID_00000009578474351691818740000007931724463092732852_" gradientUnits="userSpaceOnUse" x1="106.5756" y1="111.6061" x2="20.7786" y2="26.3663">
		<stop  offset="0.4" style="stop-color:#F39800"/>
		<stop  offset="0.9039" style="stop-color:#C42D1B"/>
	</linearGradient>
	<path style="fill:url(#SVGID_00000009578474351691818740000007931724463092732852_);" d="M71.4,81.7c0,1.3-1,2.3-2.3,2.3H23.3
		c-1.3,0-2.3-1.1-2.3-2.3V21.4c0-1.3,1.1-2.3,2.3-2.3H69c1.3,0,2.3,1.1,2.3,2.3V35h1.6V21.4c0-2.2-1.8-3.9-3.9-3.9H23.3
		c-2.2,0-3.9,1.7-3.9,3.9v60.3c0,2.2,1.8,3.9,3.9,3.9H69c2.2,0,3.9-1.7,3.9-3.9v-7.5h-1.6V81.7z"/>
	
		<linearGradient id="SVGID_00000084516627894675660150000006062822790419979938_" gradientUnits="userSpaceOnUse" x1="122.5273" y1="95.5502" x2="36.7303" y2="10.3103">
		<stop  offset="0.4" style="stop-color:#F39800"/>
		<stop  offset="0.9039" style="stop-color:#C42D1B"/>
	</linearGradient>
	<path style="fill:url(#SVGID_00000084516627894675660150000006062822790419979938_);" d="M66.7,45V33.9c0-0.4-0.3-0.8-0.8-0.8
		c-0.4,0-0.8,0.3-0.8,0.8v11.2c0.3,0,0.7-0.1,1-0.1C66.3,45,66.5,45,66.7,45z"/>
	
		<linearGradient id="SVGID_00000092424477161240458830000017748790745460488119_" gradientUnits="userSpaceOnUse" x1="125.896" y1="92.1594" x2="40.099" y2="6.9195">
		<stop  offset="0.4" style="stop-color:#F39800"/>
		<stop  offset="0.9039" style="stop-color:#C42D1B"/>
	</linearGradient>
	<path style="fill:url(#SVGID_00000092424477161240458830000017748790745460488119_);" d="M73.4,48.3l7.8-7.8c0.3-0.3,0.3-0.8,0-1.1
		c-0.3-0.3-0.8-0.3-1.1,0l-7.8,7.8C72.7,47.6,73.1,47.9,73.4,48.3z"/>
	
		<linearGradient id="SVGID_00000012469579834077703390000007243661605490664102_" gradientUnits="userSpaceOnUse" x1="103.9779" y1="114.2208" x2="18.1809" y2="28.9809">
		<stop  offset="0.4" style="stop-color:#F39800"/>
		<stop  offset="0.9039" style="stop-color:#C42D1B"/>
	</linearGradient>
	<path style="fill:url(#SVGID_00000012469579834077703390000007243661605490664102_);" d="M59.2,61.3l-7.5,8.7
		c-0.3,0.3-0.2,0.8,0.1,1.1c0.1,0.1,0.3,0.2,0.5,0.2c0.2,0,0.4-0.1,0.6-0.3l7.5-8.7C60,62,59.6,61.6,59.2,61.3z"/>
	
		<linearGradient id="SVGID_00000082363292888334374510000010722827873254329501_" gradientUnits="userSpaceOnUse" x1="117.594" y1="100.5157" x2="31.797" y2="15.2758">
		<stop  offset="0.4" style="stop-color:#F39800"/>
		<stop  offset="0.9039" style="stop-color:#C42D1B"/>
	</linearGradient>
	<path style="fill:url(#SVGID_00000082363292888334374510000010722827873254329501_);" d="M84.3,64.4l-9.6-5.5
		c-0.2,0.5-0.5,0.9-0.8,1.3l9.6,5.5c0.4,0.2,0.9,0.1,1.1-0.3C84.8,65.1,84.7,64.6,84.3,64.4z"/>
</g>
</svg>
