<?xml version="1.0" encoding="utf-8"?>
<!-- Generator: Adobe Illustrator 26.5.0, SVG Export Plug-In . SVG Version: 6.00 Build 0)  -->
<svg version="1.1" id="圖層_1" xmlns="http://www.w3.org/2000/svg" xmlns:xlink="http://www.w3.org/1999/xlink" x="0px" y="0px"
	 viewBox="0 0 100 100" style="enable-background:new 0 0 100 100;" xml:space="preserve">
<style type="text/css">
	.st0{fill:url(#SVGID_1_);}
	.st1{fill:url(#SVGID_00000103256554778763445730000002040059224530736296_);}
	.st2{fill:url(#SVGID_00000178175312256909813830000000172989940921969584_);}
	.st3{fill:url(#SVGID_00000150073986021345631930000017707762676823540620_);}
	.st4{fill:url(#SVGID_00000154422237174507700230000013328873027169943987_);}
	.st5{fill:url(#SVGID_00000147183451512759172610000018010915557362827198_);}
	.st6{fill:url(#SVGID_00000182524636445192527300000009884851163090985383_);}
	.st7{fill:url(#SVGID_00000169520078300549283600000011071831881057066150_);}
	.st8{fill:url(#SVGID_00000172441751877296131120000017799330728661202102_);}
	.st9{fill:url(#SVGID_00000134223378485060245060000015026213350840125094_);}
	.st10{fill:url(#SVGID_00000033330923864806113490000017670419685636618880_);}
	.st11{fill:url(#SVGID_00000087394726219082649700000003180366042308176043_);}
	.st12{fill:url(#SVGID_00000098212360101652418790000006998277528619463343_);}
	.st13{fill:url(#SVGID_00000152956968774948872120000007293460867748836269_);}
	.st14{fill:url(#SVGID_00000144312891346964986860000004483955094953632183_);}
	.st15{fill:url(#SVGID_00000045583705616167119310000004857081716256292023_);}
	.st16{fill:url(#SVGID_00000073681148851564019180000010105483808604437418_);}
	.st17{fill:url(#SVGID_00000119813820831574766640000001795184887589801397_);}
	.st18{fill:url(#SVGID_00000078011516301886137200000014475279328858122659_);}
	.st19{fill:url(#SVGID_00000110438420065127344270000016036484930234105994_);}
	.st20{fill:url(#SVGID_00000156569534440657038470000008760624639022121131_);}
	.st21{fill:url(#SVGID_00000066500257710602723820000002125314652849888439_);}
	.st22{fill:url(#SVGID_00000155839189738267427010000006591238541328662402_);}
	.st23{fill:url(#SVGID_00000132048586347744126960000010228949503545978763_);}
	.st24{fill:url(#SVGID_00000145772331497601337760000001139161658901357715_);}
	.st25{fill:url(#SVGID_00000116936196626915684170000015893259788348522647_);}
	.st26{fill:url(#SVGID_00000088826057801579674760000005170510275472816049_);}
	.st27{fill:url(#SVGID_00000142870670370116227970000000549180467711885201_);}
	.st28{fill:url(#SVGID_00000147938951909931014930000016591240975911657654_);}
	.st29{fill:url(#SVGID_00000059277670663130450160000003225943691327951260_);}
	.st30{fill:url(#SVGID_00000136371584939669738570000011675356153779403693_);}
	.st31{fill:url(#SVGID_00000038407015874060618400000001755310834481934245_);}
	.st32{fill:url(#SVGID_00000022541685205636293360000015194993626958514324_);}
	.st33{fill:url(#SVGID_00000164474972945729251100000000620758336154967210_);}
	.st34{fill:url(#SVGID_00000137812789639417068550000002260520029311931034_);}
	.st35{fill:url(#SVGID_00000175289885419042795810000001376185461955413904_);}
	.st36{fill:url(#SVGID_00000078015241570263950710000011545536176381340575_);}
	.st37{fill:url(#SVGID_00000112592806113947324070000003057761884206288261_);}
	.st38{fill:url(#SVGID_00000067227745970691830380000004248617499575253936_);}
	.st39{fill:url(#SVGID_00000052075599264524038680000010831501281258902930_);}
	.st40{fill:url(#SVGID_00000085936702926774886030000004168268679937212551_);}
	.st41{fill:url(#SVGID_00000122688307264633482850000009466521073526648711_);}
	.st42{fill:url(#SVGID_00000029023323112408366100000005601733711560325018_);}
	.st43{fill:url(#SVGID_00000101091410254303041430000014092849562583931311_);}
	.st44{fill:url(#SVGID_00000094588546927117454320000005990709121855798966_);}
	.st45{fill:url(#SVGID_00000056389675269582034840000001183035664430785166_);}
	.st46{fill:url(#SVGID_00000042017675839141528090000009804713061042269085_);}
	.st47{fill:url(#SVGID_00000093173748106176104960000007509190817100929417_);}
	.st48{fill:url(#SVGID_00000054969100629086751350000002262240077628429469_);}
	.st49{fill:url(#SVGID_00000071561155452383096240000015072013464264544656_);}
	.st50{fill:url(#SVGID_00000003819173051610425450000002193682199860507802_);}
	.st51{fill:url(#SVGID_00000043433191490848782410000012548042776348820104_);}
	.st52{fill:url(#SVGID_00000093148884243267872590000010186791131312031873_);}
	.st53{fill:url(#SVGID_00000067938746297494923900000010976376970755422599_);}
	.st54{fill:url(#SVGID_00000003800127647853651260000002103159242642555824_);}
	.st55{fill:url(#SVGID_00000045577565297504968960000008701050620679708342_);}
	.st56{fill:url(#SVGID_00000016035383173753844990000010192979919532710290_);}
	.st57{fill:url(#SVGID_00000049929094026434423120000000851087729249945232_);}
	.st58{fill:url(#SVGID_00000098201866013325352660000009156705035255100068_);}
	.st59{fill:url(#SVGID_00000050647696649063370550000018215222086134033596_);}
	.st60{fill:url(#SVGID_00000013895927054739550630000006546287018570451342_);}
	.st61{fill:url(#SVGID_00000003067033247278097360000009387613312267220153_);}
	.st62{fill:url(#SVGID_00000124140484234162546140000014093189969431274928_);}
	.st63{fill:url(#SVGID_00000166675874759416283920000002522642031612219046_);}
	.st64{fill:url(#SVGID_00000097480029231567252980000002803260979523921845_);}
	.st65{fill:url(#SVGID_00000005967955487190011110000008727938839595124893_);}
	.st66{fill:url(#SVGID_00000036962032114025202440000006789426690370928783_);}
	.st67{fill:url(#SVGID_00000096752673987450591150000015609125715061348005_);}
	.st68{fill:url(#SVGID_00000008848369925462987150000011188692656390608565_);}
	.st69{fill:url(#SVGID_00000150810611642656641850000013964969886499780268_);}
	.st70{fill:url(#SVGID_00000071518514460857431960000016711330544366325634_);}
	.st71{fill:url(#SVGID_00000059309836149435657710000013013398166028302476_);}
	.st72{fill:url(#SVGID_00000065771041927929578930000017847888784932520361_);}
	.st73{fill:url(#SVGID_00000181770160436373689700000008522547961113268112_);}
	.st74{fill:url(#SVGID_00000058589174912323287020000000031115500583503801_);}
	.st75{fill:url(#SVGID_00000163070214153879109730000018318109047773117876_);}
	.st76{fill:url(#SVGID_00000169539845183383843670000009403877581252912002_);}
	.st77{fill:url(#SVGID_00000071520381616277689310000012663771600799917956_);}
	.st78{fill:url(#SVGID_00000103965516586843009480000001066524033194366368_);}
	.st79{fill:url(#SVGID_00000135681437844264649550000011859844499577216944_);}
	.st80{fill:url(#SVGID_00000044884946466937460520000018422530825154179495_);}
	.st81{fill:url(#SVGID_00000049901371450016874270000000028535339839014558_);}
	.st82{fill:url(#SVGID_00000127019967976909650130000009554879556186326433_);}
	.st83{fill:url(#SVGID_00000065071062957538007370000001823350728564411531_);}
	.st84{fill:url(#SVGID_00000059291743071246396740000000325053494932289968_);}
	.st85{fill:url(#SVGID_00000149366040364800377190000007140303980736944812_);}
	.st86{fill:url(#SVGID_00000031904139915945331810000003941278298847706247_);}
	.st87{fill:url(#SVGID_00000103259734419929293830000017365296880132273294_);}
	.st88{fill:url(#SVGID_00000122713286080186023570000000460480701299889082_);}
	.st89{fill:url(#SVGID_00000025426826078747557480000014952763566422967995_);}
	.st90{fill:url(#SVGID_00000177481426360994260960000015025516313255627957_);}
	.st91{fill:url(#SVGID_00000025411564523618480840000015212817512925193354_);}
	.st92{fill:url(#SVGID_00000080899735547680844280000014852250186548713355_);}
	.st93{fill:url(#SVGID_00000155847784283519211300000011775234154981732278_);}
	.st94{fill:url(#SVGID_00000087381038300261118830000000058684147695011207_);}
	.st95{fill:url(#SVGID_00000164491703634001860790000007265874463583082653_);}
	.st96{fill:url(#SVGID_00000021813380912832050010000014087936467405731725_);}
	.st97{fill:url(#SVGID_00000059996705372756932430000003617779203998633861_);}
	.st98{fill:url(#SVGID_00000141456366462927557040000006838274097547221146_);}
	.st99{fill:url(#SVGID_00000089551466350801273620000000765549252153018270_);}
	.st100{fill:url(#SVGID_00000082361126121021125140000010598661041553392518_);}
	.st101{fill:url(#SVGID_00000071527564819194089370000000196767984691695525_);}
	.st102{fill:url(#SVGID_00000075153365378037767170000018387605424974740145_);}
	.st103{fill:url(#SVGID_00000008136133372806161490000016028034647494525833_);}
	.st104{fill:url(#SVGID_00000175317537480278351870000014619173795689243037_);}
	.st105{fill:url(#SVGID_00000006699951532217256130000003054401755578125219_);}
	.st106{fill:url(#SVGID_00000155849334204955065530000005415111704570593723_);}
	.st107{fill:url(#SVGID_00000072242313389546509820000007525041326749517718_);}
	.st108{fill:url(#SVGID_00000049915998204347610470000007901485111812767888_);}
	.st109{fill:url(#SVGID_00000067923821871617156530000005439727187336045759_);}
	.st110{fill:url(#SVGID_00000110442520686138726850000014860168418647346311_);}
	.st111{fill:url(#SVGID_00000119111872487432534350000003486668551950486401_);}
	.st112{fill:url(#SVGID_00000013165780177998197630000010484474229676447624_);}
	.st113{fill:url(#SVGID_00000146464349327630633520000006282791408952423045_);}
	.st114{fill:url(#SVGID_00000007403300329369308680000008807719166318143632_);}
	.st115{fill:url(#SVGID_00000113315865946057008400000005217635709385801090_);}
	.st116{fill:url(#SVGID_00000166646625333609483060000006036752472488382104_);}
	.st117{fill:url(#SVGID_00000093882247071733506180000012963911023374190483_);}
	.st118{fill:url(#SVGID_00000008122244184052631260000010817341028058334907_);}
	.st119{fill:url(#SVGID_00000063601125293009812740000007074665113629198782_);}
	.st120{fill:url(#SVGID_00000069393302705114977090000012737682901807111066_);}
	.st121{fill:url(#SVGID_00000061454010729798112400000007401084475451567265_);}
	.st122{fill:url(#SVGID_00000045604323014390479150000001074461420611299201_);}
	.st123{fill:url(#SVGID_00000150815940690587344730000009881298291793033895_);}
	.st124{fill:url(#SVGID_00000067946133040247664920000018161203294308845447_);}
	.st125{fill:url(#SVGID_00000008834671118961555950000001580047543794512016_);}
	.st126{fill:url(#SVGID_00000094613909496638878640000012533028257375684258_);}
	.st127{fill:#2C4F80;}
	.st128{fill:url(#SVGID_00000168097989222542197120000018344074515365392539_);}
	.st129{fill:url(#SVGID_00000132088215005778423160000008459881120264643987_);}
	.st130{fill:url(#SVGID_00000065753646328353574900000008334873050688838797_);}
	.st131{fill:url(#SVGID_00000082352153990263644440000010164599122391688586_);}
	.st132{fill:url(#SVGID_00000182509776308111225840000001735033674208423095_);}
	.st133{fill:url(#SVGID_00000088100660713069581670000012098853530220650372_);}
	.st134{fill:url(#SVGID_00000155834421185126911330000001738060276516126117_);}
	.st135{fill:url(#SVGID_00000041267807164546537260000018281963912982625705_);}
	.st136{fill:url(#SVGID_00000132075417603372249710000008907057986625732998_);}
	.st137{fill:url(#SVGID_00000052075823500202803790000014467854400904147110_);}
	.st138{fill:url(#SVGID_00000101812384020457759480000004792131045121569679_);}
	.st139{fill:url(#SVGID_00000024719276603472087820000012153653764683805089_);}
	.st140{fill:url(#SVGID_00000080180533965379592240000001413687404568053680_);}
	.st141{fill:url(#SVGID_00000149380525664334774130000016365502368148447881_);}
	.st142{fill:url(#SVGID_00000111166106988010114770000003750832115855424153_);}
	.st143{fill:url(#SVGID_00000052078905478959097510000010685258213831890365_);}
	.st144{fill:url(#SVGID_00000085225992617194972660000010540274368231249285_);}
	.st145{fill:url(#SVGID_00000173865788207175386310000001370913351172399783_);}
	.st146{fill:url(#SVGID_00000168808604114424041640000007213162824893101460_);}
	.st147{fill:url(#SVGID_00000031172432702772697180000014196061380929441155_);}
	.st148{fill:url(#SVGID_00000021102508610633384920000004403754769218182544_);}
	.st149{fill:url(#SVGID_00000156580336035348444620000008984954570033126833_);}
	.st150{fill:url(#SVGID_00000133528355949320794700000016617075523290837438_);}
	.st151{fill:url(#SVGID_00000049908093669060602460000013984677052886281653_);}
	.st152{fill:url(#SVGID_00000167388593113925299330000016586497179640188800_);}
	.st153{fill:url(#SVGID_00000047756289946223725460000015668132822271867821_);}
	.st154{fill:url(#SVGID_00000070119314193701911960000016429090794045031070_);}
	.st155{fill:url(#SVGID_00000024683624757598485520000014279342070894118033_);}
	.st156{fill:url(#SVGID_00000082329645137833161170000000751974218581888428_);}
	.st157{fill:url(#SVGID_00000087398153022561671920000007737485905081052804_);}
	.st158{fill:url(#SVGID_00000123443356189242144630000006235309409529881217_);}
	.st159{fill:url(#SVGID_00000095333140587529438710000016263529630624461749_);}
	.st160{fill:url(#SVGID_00000104707244293243074530000008514139087270377605_);}
	.st161{fill:url(#SVGID_00000163777586784750797480000011892426346670824613_);}
	.st162{fill:url(#SVGID_00000177445387904338581730000018111462628962520973_);}
	.st163{fill:url(#SVGID_00000040541479337926093360000005249222769159249297_);}
	.st164{fill:url(#SVGID_00000021076890555082394660000002243026585503873727_);}
	.st165{fill:url(#SVGID_00000081616256489803414340000007394574659697943186_);}
	.st166{fill:url(#SVGID_00000110456612516909508860000004920010962243857063_);}
	.st167{fill:url(#SVGID_00000070816816882857119620000014474519958046479033_);}
	.st168{fill:url(#SVGID_00000160157782218665461290000000849880378917226884_);}
	.st169{fill:url(#SVGID_00000044163837062204577290000003580805543677331356_);}
	.st170{fill:url(#SVGID_00000157310287641838521670000012670235603857226625_);}
	.st171{fill:url(#SVGID_00000111186697624119433810000007064835383852453811_);}
	.st172{fill:url(#SVGID_00000167382594636674724870000001844721874447542444_);}
	.st173{fill:url(#SVGID_00000063597418259583313000000012247877636796371102_);}
	.st174{fill:url(#SVGID_00000097490485016835487970000008587595097106130364_);}
	.st175{fill:url(#SVGID_00000085231187055070039020000016868618490279102372_);}
	.st176{fill:url(#SVGID_00000181802182645555885210000008280072241184277644_);}
	.st177{fill:url(#SVGID_00000076568619177689449110000008493681009852962211_);}
	.st178{fill:url(#SVGID_00000008833293521007420180000015054505683788479419_);}
	.st179{fill:url(#SVGID_00000154426876799510430750000005212625350333798589_);}
	.st180{fill:url(#SVGID_00000137814774212823920120000002526145493608512391_);}
	.st181{fill:url(#SVGID_00000017509905134987833110000012842249174423769522_);}
	.st182{fill:url(#SVGID_00000000939804991611563510000009435062149514221502_);}
	.st183{fill:url(#SVGID_00000031899766877997126270000015091770613533907128_);}
	.st184{fill:url(#SVGID_00000106115792644240349800000004116025073448799142_);}
	.st185{fill:url(#SVGID_00000149375035145204428250000003512670968716443548_);}
	.st186{fill:url(#SVGID_00000152232335724523189380000005513459349789189031_);}
	.st187{fill:url(#SVGID_00000021797676397426427840000017027921258214891964_);}
	.st188{fill:url(#SVGID_00000166638408780474665550000005185030792242657938_);}
	.st189{fill:url(#SVGID_00000017495481143341501000000006118362450438497664_);}
	.st190{fill:url(#SVGID_00000166660493140999024950000008083333890453417905_);}
	.st191{fill:url(#SVGID_00000057147503940280663360000010493028394754966713_);}
	.st192{fill:url(#SVGID_00000113319076797088668110000007665796043478875538_);}
	.st193{fill:url(#SVGID_00000043433217663499115270000002030266521731071897_);}
	.st194{fill:url(#SVGID_00000106830826860566697710000007429914579352203198_);}
	.st195{fill:url(#SVGID_00000014593434621401328400000012038006877979195271_);}
	.st196{fill:url(#SVGID_00000054225424105697869920000017237086418210997917_);}
	.st197{fill:url(#SVGID_00000134930179557871316930000011060165312229064338_);}
	.st198{fill:url(#SVGID_00000154408499283163675430000017148887097330384791_);}
	.st199{fill:url(#SVGID_00000041282062796279234630000000681132183364248453_);}
	.st200{fill:url(#SVGID_00000002351373520089002340000004228198724978483089_);}
	.st201{fill:url(#SVGID_00000069382149710869752980000009282120124903314865_);}
	.st202{fill:url(#SVGID_00000103234201144680738860000009188770506501923510_);}
	.st203{fill:url(#SVGID_00000039113377217716692390000005302692170007400079_);}
	.st204{fill:url(#SVGID_00000060739109962958025050000017437818753265188752_);}
	.st205{fill:url(#SVGID_00000101795793311771667930000013347833988149105077_);}
	.st206{fill:url(#SVGID_00000051346737759580037790000014148072376436141481_);}
	.st207{fill:url(#SVGID_00000067943455861425461410000005465811259460197514_);}
	.st208{fill:url(#SVGID_00000145774203810148299820000004578831392856041890_);}
	.st209{fill:url(#SVGID_00000023990533002041229910000002043362608902887354_);}
	.st210{fill:url(#SVGID_00000005965866908327244740000013173494981168027017_);}
	.st211{fill:url(#SVGID_00000075853986351558274560000007274561362467245222_);}
	.st212{fill:url(#SVGID_00000179640931038473174940000000522627367870773178_);}
	.st213{fill:url(#SVGID_00000011753510800258808150000006496464189535667085_);}
	.st214{fill:url(#SVGID_00000080925671105641427270000012620551923619951747_);}
	.st215{fill:url(#SVGID_00000155854323973308112450000009295558475609198988_);}
	.st216{fill:url(#SVGID_00000029767510886032387140000007946435197964650380_);}
	.st217{fill:url(#SVGID_00000010273930854725868950000012062667520985409187_);}
	.st218{fill:url(#SVGID_00000111884077878460706330000003473945824659803801_);}
	.st219{fill:url(#SVGID_00000083797221696126550090000017475327874770918803_);}
	.st220{fill:url(#SVGID_00000042715737188278661620000018032977822483733183_);}
	.st221{fill:url(#SVGID_00000036229443808411987670000008871282460710507937_);}
	.st222{fill:url(#SVGID_00000072962323073365975910000007576362235056662692_);}
	.st223{fill:url(#SVGID_00000129202937304984275530000015729054111821959596_);}
	.st224{fill:url(#SVGID_00000003802962924694162110000017449794930424199069_);}
	.st225{fill:url(#SVGID_00000170984837775283997440000009789755259058133649_);}
	.st226{fill:url(#SVGID_00000151502928764559134330000008072155705160623769_);}
	.st227{fill:url(#SVGID_00000101076857423373594880000002709388683414992531_);}
	.st228{fill:url(#SVGID_00000081605288364062081900000001065610620426323346_);}
</style>
<g>
	<linearGradient id="SVGID_1_" gradientUnits="userSpaceOnUse" x1="82.1631" y1="74.8515" x2="17.647" y2="22.4086">
		<stop  offset="0.4" style="stop-color:#F39800"/>
		<stop  offset="0.9039" style="stop-color:#C42D1B"/>
	</linearGradient>
	<path class="st0" d="M50.48,84.33c-19.43,0-35.23-15.8-35.23-35.23s15.8-35.23,35.23-35.23s35.23,15.8,35.23,35.23
		S69.91,84.33,50.48,84.33z M50.48,15.48c-18.54,0-33.62,15.08-33.62,33.62c0,18.54,15.08,33.62,33.62,33.62
		c18.54,0,33.62-15.08,33.62-33.62C84.1,30.56,69.02,15.48,50.48,15.48z"/>
	
		<linearGradient id="SVGID_00000129190041555982307560000010109397223783105420_" gradientUnits="userSpaceOnUse" x1="89.3361" y1="66.0272" x2="24.82" y2="13.5843">
		<stop  offset="0.4" style="stop-color:#F39800"/>
		<stop  offset="0.9039" style="stop-color:#C42D1B"/>
	</linearGradient>
	<path style="fill:url(#SVGID_00000129190041555982307560000010109397223783105420_);" d="M67.69,51.09c-2.54,0-5.09-0.69-6.52-2.08
		c-0.32-0.31-0.33-0.82-0.02-1.14c0.31-0.32,0.82-0.33,1.14-0.02c2.27,2.2,8.52,2.2,10.79,0c0.32-0.31,0.83-0.3,1.14,0.02
		c0.31,0.32,0.3,0.83-0.02,1.14C72.78,50.39,70.24,51.09,67.69,51.09z"/>
	
		<linearGradient id="SVGID_00000059273433716565130030000007014825235212375742_" gradientUnits="userSpaceOnUse" x1="93.2358" y1="61.2297" x2="28.7197" y2="8.7867">
		<stop  offset="0.4" style="stop-color:#F39800"/>
		<stop  offset="0.9039" style="stop-color:#C42D1B"/>
	</linearGradient>
	<path style="fill:url(#SVGID_00000059273433716565130030000007014825235212375742_);" d="M67.7,51.09c-0.08,0-0.17,0-0.25,0
		c-0.44-0.01-0.79-0.37-0.79-0.81v-8.77c0-0.24,0.11-0.47,0.29-0.62c0.18-0.15,0.43-0.22,0.66-0.17c5.77,1.1,9.38-2.52,9.53-2.67
		c0.27-0.28,0.7-0.32,1.02-0.11c0.32,0.21,0.45,0.62,0.3,0.98l-4.08,9.81c-0.04,0.1-0.1,0.19-0.18,0.27
		C72.85,50.32,70.43,51.09,67.7,51.09z M68.27,42.46v7.01c1.98-0.09,3.72-0.65,4.7-1.51l2.91-7C74.15,41.92,71.55,42.85,68.27,42.46
		z"/>
	
		<linearGradient id="SVGID_00000036962068274885634390000009594651148728241296_" gradientUnits="userSpaceOnUse" x1="81.6459" y1="75.4877" x2="17.1298" y2="23.0448">
		<stop  offset="0.4" style="stop-color:#F39800"/>
		<stop  offset="0.9039" style="stop-color:#C42D1B"/>
	</linearGradient>
	<path style="fill:url(#SVGID_00000036962068274885634390000009594651148728241296_);" d="M41.88,46.28c-3.12,0-6.25-0.85-8.01-2.55
		c-0.32-0.31-0.33-0.82-0.02-1.14c0.31-0.32,0.82-0.33,1.14-0.02c2.89,2.8,10.87,2.8,13.76,0c0.32-0.31,0.83-0.3,1.14,0.02
		c0.31,0.32,0.3,0.83-0.02,1.14C48.12,45.43,45,46.28,41.88,46.28z"/>
	
		<linearGradient id="SVGID_00000032642360011125332840000015772414589449773471_" gradientUnits="userSpaceOnUse" x1="86.5207" y1="69.4907" x2="22.0046" y2="17.0477">
		<stop  offset="0.4" style="stop-color:#F39800"/>
		<stop  offset="0.9039" style="stop-color:#C42D1B"/>
	</linearGradient>
	<path style="fill:url(#SVGID_00000032642360011125332840000015772414589449773471_);" d="M41.89,46.28c-0.1,0-0.21,0-0.31,0
		c-0.44-0.01-0.79-0.37-0.79-0.81V34.51c0-0.24,0.11-0.47,0.29-0.62c0.19-0.15,0.43-0.22,0.66-0.17c7.36,1.4,12.05-3.34,12.1-3.39
		c0.27-0.28,0.7-0.33,1.02-0.11c0.32,0.21,0.45,0.63,0.3,0.98l-5.1,12.26c-0.04,0.1-0.1,0.19-0.18,0.27
		C48.22,45.34,45.25,46.28,41.89,46.28z M42.4,35.46v9.2c2.62-0.09,4.95-0.82,6.25-1.98l3.89-9.34
		C50.37,34.64,46.88,36.05,42.4,35.46z"/>
	
		<linearGradient id="SVGID_00000049191896534388933870000005290618660167681968_" gradientUnits="userSpaceOnUse" x1="72.5554" y1="86.6711" x2="8.0392" y2="34.2282">
		<stop  offset="0.4" style="stop-color:#F39800"/>
		<stop  offset="0.9039" style="stop-color:#C42D1B"/>
	</linearGradient>
	<path style="fill:url(#SVGID_00000049191896534388933870000005290618660167681968_);" d="M50.48,84.33
		c-13.51,0-25.63-7.54-31.61-19.67c-0.08-0.17-0.1-0.36-0.06-0.55C22.18,50.08,33.52,42.77,34,42.47c0.32-0.2,0.72-0.16,0.99,0.1
		c2.89,2.8,10.87,2.8,13.76,0c0.27-0.26,0.68-0.3,0.99-0.1c0.16,0.1,16.35,10.55,16.11,29.87l0,0c-0.03,2.01,0.71,4.05,2.14,5.89
		c0.05,0.07,0.1,0.14,0.15,0.22c0.13,0.18,0.2,0.46,0.16,0.68c-0.05,0.22-0.16,0.45-0.36,0.57C62.63,82.73,56.6,84.33,50.48,84.33z
		 M20.45,64.21c5.75,11.43,17.23,18.51,30.03,18.51c5.54,0,11.01-1.38,15.87-3.99c-1.43-2.05-2.14-4.23-2.11-6.41
		c0.21-16.53-12.22-26.27-14.87-28.15c-3.63,2.82-11.37,2.82-15,0C32.19,45.71,23.35,52.61,20.45,64.21z M65.05,72.33h0.01H65.05z"
		/>
	
		<linearGradient id="SVGID_00000054230477433090091190000007627776844001757606_" gradientUnits="userSpaceOnUse" x1="71.3672" y1="88.1328" x2="6.851" y2="35.6899">
		<stop  offset="0.4" style="stop-color:#F39800"/>
		<stop  offset="0.9039" style="stop-color:#C42D1B"/>
	</linearGradient>
	<path style="fill:url(#SVGID_00000054230477433090091190000007627776844001757606_);" d="M41.88,75.72
		c-6.38,0-11.56-5.19-11.56-11.56c0-6.38,5.19-11.56,11.56-11.56s11.56,5.19,11.56,11.56C53.44,70.54,48.25,75.72,41.88,75.72z
		 M41.88,54.21c-5.49,0-9.95,4.46-9.95,9.95c0,5.49,4.46,9.95,9.95,9.95s9.95-4.46,9.95-9.95C51.83,58.67,47.36,54.21,41.88,54.21z"
		/>
	
		<linearGradient id="SVGID_00000134935914668806348560000010249157555280526770_" gradientUnits="userSpaceOnUse" x1="71.367" y1="88.133" x2="6.8509" y2="35.69">
		<stop  offset="0.4" style="stop-color:#F39800"/>
		<stop  offset="0.9039" style="stop-color:#C42D1B"/>
	</linearGradient>
	<path style="fill:url(#SVGID_00000134935914668806348560000010249157555280526770_);" d="M41.88,70.03c-1.49,0-2.8-0.83-3.35-2.12
		c-0.17-0.41,0.02-0.88,0.43-1.06c0.41-0.17,0.88,0.02,1.06,0.43c0.29,0.68,1.03,1.13,1.86,1.13c1.09,0,1.98-0.77,1.98-1.72
		c0-1.14-0.67-1.72-1.99-1.72c-2.65,0-3.59-1.72-3.59-3.34c0-1.84,1.61-3.34,3.59-3.34c1.49,0,2.8,0.83,3.35,2.12
		c0.17,0.41-0.02,0.88-0.43,1.06c-0.41,0.17-0.88-0.02-1.06-0.43c-0.29-0.68-1.03-1.13-1.86-1.13c-1.09,0-1.98,0.77-1.98,1.72
		c0,1.14,0.67,1.72,1.98,1.72c2.66,0,3.6,1.72,3.6,3.34C45.47,68.53,43.86,70.03,41.88,70.03z"/>
	
		<linearGradient id="SVGID_00000011011626009822382580000016763398459048852370_" gradientUnits="userSpaceOnUse" x1="74.1834" y1="84.6682" x2="9.6673" y2="32.2253">
		<stop  offset="0.4" style="stop-color:#F39800"/>
		<stop  offset="0.9039" style="stop-color:#C42D1B"/>
	</linearGradient>
	<path style="fill:url(#SVGID_00000011011626009822382580000016763398459048852370_);" d="M41.87,59.91c-0.45,0-0.81-0.36-0.81-0.81
		v-1.39c0-0.45,0.36-0.81,0.81-0.81c0.45,0,0.81,0.36,0.81,0.81v1.39C42.68,59.54,42.32,59.91,41.87,59.91z"/>
	
		<linearGradient id="SVGID_00000090283887491440099930000004457794152582493615_" gradientUnits="userSpaceOnUse" x1="68.5469" y1="91.6024" x2="4.0307" y2="39.1595">
		<stop  offset="0.4" style="stop-color:#F39800"/>
		<stop  offset="0.9039" style="stop-color:#C42D1B"/>
	</linearGradient>
	<path style="fill:url(#SVGID_00000090283887491440099930000004457794152582493615_);" d="M41.87,71.42c-0.45,0-0.81-0.36-0.81-0.81
		v-1.39c0-0.45,0.36-0.81,0.81-0.81c0.45,0,0.81,0.36,0.81,0.81v1.39C42.68,71.06,42.32,71.42,41.87,71.42z"/>
	
		<linearGradient id="SVGID_00000104686372041358154220000008247586044776414888_" gradientUnits="userSpaceOnUse" x1="87.3034" y1="68.5278" x2="22.7873" y2="16.0849">
		<stop  offset="0.4" style="stop-color:#F39800"/>
		<stop  offset="0.9039" style="stop-color:#C42D1B"/>
	</linearGradient>
	<path style="fill:url(#SVGID_00000104686372041358154220000008247586044776414888_);" d="M36.62,27.53h-1.49
		c-0.45,0-0.81-0.36-0.81-0.81s0.36-0.81,0.81-0.81h1.49c0.45,0,0.81,0.36,0.81,0.81S37.07,27.53,36.62,27.53z"/>
	
		<linearGradient id="SVGID_00000180336180761633160160000009214107998384754621_" gradientUnits="userSpaceOnUse" x1="89.2787" y1="66.0977" x2="24.7626" y2="13.6548">
		<stop  offset="0.4" style="stop-color:#F39800"/>
		<stop  offset="0.9039" style="stop-color:#C42D1B"/>
	</linearGradient>
	<path style="fill:url(#SVGID_00000180336180761633160160000009214107998384754621_);" d="M41.59,27.53H40.1
		c-0.45,0-0.81-0.36-0.81-0.81s0.36-0.81,0.81-0.81h1.49c0.45,0,0.81,0.36,0.81,0.81S42.03,27.53,41.59,27.53z"/>
	
		<linearGradient id="SVGID_00000181085348255112080090000004414794676441306527_" gradientUnits="userSpaceOnUse" x1="87.076" y1="68.8075" x2="22.5599" y2="16.3646">
		<stop  offset="0.4" style="stop-color:#F39800"/>
		<stop  offset="0.9039" style="stop-color:#C42D1B"/>
	</linearGradient>
	<path style="fill:url(#SVGID_00000181085348255112080090000004414794676441306527_);" d="M38.36,30.76c-0.45,0-0.81-0.36-0.81-0.81
		v-1.49c0-0.45,0.36-0.81,0.81-0.81c0.45,0,0.81,0.36,0.81,0.81v1.49C39.17,30.4,38.81,30.76,38.36,30.76z"/>
	
		<linearGradient id="SVGID_00000182489085663018070030000003408604287373148330_" gradientUnits="userSpaceOnUse" x1="89.506" y1="65.8182" x2="24.9899" y2="13.3752">
		<stop  offset="0.4" style="stop-color:#F39800"/>
		<stop  offset="0.9039" style="stop-color:#C42D1B"/>
	</linearGradient>
	<path style="fill:url(#SVGID_00000182489085663018070030000003408604287373148330_);" d="M38.36,25.8c-0.45,0-0.81-0.36-0.81-0.81
		V23.5c0-0.45,0.36-0.81,0.81-0.81c0.45,0,0.81,0.36,0.81,0.81v1.49C39.17,25.43,38.81,25.8,38.36,25.8z"/>
	
		<linearGradient id="SVGID_00000080165850812402679390000000370869897564686774_" gradientUnits="userSpaceOnUse" x1="97.1247" y1="56.4455" x2="32.6085" y2="4.0026">
		<stop  offset="0.4" style="stop-color:#F39800"/>
		<stop  offset="0.9039" style="stop-color:#C42D1B"/>
	</linearGradient>
	<path style="fill:url(#SVGID_00000080165850812402679390000000370869897564686774_);" d="M66.43,31.7h-1.49
		c-0.45,0-0.81-0.36-0.81-0.81s0.36-0.81,0.81-0.81h1.49c0.45,0,0.81,0.36,0.81,0.81S66.88,31.7,66.43,31.7z"/>
	
		<linearGradient id="SVGID_00000156578170098542716600000013422823249828754075_" gradientUnits="userSpaceOnUse" x1="99.1" y1="54.0154" x2="34.5839" y2="1.5725">
		<stop  offset="0.4" style="stop-color:#F39800"/>
		<stop  offset="0.9039" style="stop-color:#C42D1B"/>
	</linearGradient>
	<path style="fill:url(#SVGID_00000156578170098542716600000013422823249828754075_);" d="M71.4,31.7h-1.49
		c-0.45,0-0.81-0.36-0.81-0.81s0.36-0.81,0.81-0.81h1.49c0.45,0,0.81,0.36,0.81,0.81S71.84,31.7,71.4,31.7z"/>
	
		<linearGradient id="SVGID_00000075154649645179911020000001622215645342209967_" gradientUnits="userSpaceOnUse" x1="96.8973" y1="56.7252" x2="32.3812" y2="4.2823">
		<stop  offset="0.4" style="stop-color:#F39800"/>
		<stop  offset="0.9039" style="stop-color:#C42D1B"/>
	</linearGradient>
	<path style="fill:url(#SVGID_00000075154649645179911020000001622215645342209967_);" d="M68.17,34.92c-0.45,0-0.81-0.36-0.81-0.81
		v-1.49c0-0.45,0.36-0.81,0.81-0.81c0.45,0,0.81,0.36,0.81,0.81v1.49C68.97,34.56,68.61,34.92,68.17,34.92z"/>
	
		<linearGradient id="SVGID_00000027599942817059782380000014805695611169622423_" gradientUnits="userSpaceOnUse" x1="99.3273" y1="53.7359" x2="34.8111" y2="1.2929">
		<stop  offset="0.4" style="stop-color:#F39800"/>
		<stop  offset="0.9039" style="stop-color:#C42D1B"/>
	</linearGradient>
	<path style="fill:url(#SVGID_00000027599942817059782380000014805695611169622423_);" d="M68.17,29.96c-0.45,0-0.81-0.36-0.81-0.81
		v-1.49c0-0.45,0.36-0.81,0.81-0.81c0.45,0,0.81,0.36,0.81,0.81v1.49C68.97,29.6,68.61,29.96,68.17,29.96z"/>
	
		<linearGradient id="SVGID_00000084489056845347796440000009639244359999114388_" gradientUnits="userSpaceOnUse" x1="95.3449" y1="58.635" x2="30.8288" y2="6.1921">
		<stop  offset="0.4" style="stop-color:#F39800"/>
		<stop  offset="0.9039" style="stop-color:#C42D1B"/>
	</linearGradient>
	<path style="fill:url(#SVGID_00000084489056845347796440000009639244359999114388_);" d="M51.37,23.09h-1.49
		c-0.45,0-0.81-0.36-0.81-0.81c0-0.45,0.36-0.81,0.81-0.81h1.49c0.45,0,0.81,0.36,0.81,0.81C52.18,22.73,51.81,23.09,51.37,23.09z"
		/>
	
		<linearGradient id="SVGID_00000111903457405932933550000010327648453046178983_" gradientUnits="userSpaceOnUse" x1="97.3202" y1="56.205" x2="32.8041" y2="3.762">
		<stop  offset="0.4" style="stop-color:#F39800"/>
		<stop  offset="0.9039" style="stop-color:#C42D1B"/>
	</linearGradient>
	<path style="fill:url(#SVGID_00000111903457405932933550000010327648453046178983_);" d="M56.33,23.09h-1.49
		c-0.45,0-0.81-0.36-0.81-0.81c0-0.45,0.36-0.81,0.81-0.81h1.49c0.45,0,0.81,0.36,0.81,0.81C57.14,22.73,56.78,23.09,56.33,23.09z"
		/>
	
		<linearGradient id="SVGID_00000016759312505575382230000007215550443005879212_" gradientUnits="userSpaceOnUse" x1="95.1175" y1="58.9148" x2="30.6014" y2="6.4718">
		<stop  offset="0.4" style="stop-color:#F39800"/>
		<stop  offset="0.9039" style="stop-color:#C42D1B"/>
	</linearGradient>
	<path style="fill:url(#SVGID_00000016759312505575382230000007215550443005879212_);" d="M53.11,26.32c-0.45,0-0.81-0.36-0.81-0.81
		v-1.49c0-0.45,0.36-0.81,0.81-0.81c0.45,0,0.81,0.36,0.81,0.81v1.49C53.91,25.96,53.55,26.32,53.11,26.32z"/>
	
		<linearGradient id="SVGID_00000067942613583277840570000007850223440577670078_" gradientUnits="userSpaceOnUse" x1="97.5475" y1="55.9254" x2="33.0314" y2="3.4824">
		<stop  offset="0.4" style="stop-color:#F39800"/>
		<stop  offset="0.9039" style="stop-color:#C42D1B"/>
	</linearGradient>
	<path style="fill:url(#SVGID_00000067942613583277840570000007850223440577670078_);" d="M53.11,21.35c-0.45,0-0.81-0.36-0.81-0.81
		v-1.49c0-0.45,0.36-0.81,0.81-0.81c0.45,0,0.81,0.36,0.81,0.81v1.49C53.91,20.99,53.55,21.35,53.11,21.35z"/>
	
		<linearGradient id="SVGID_00000155867761546765466250000007969498874516777622_" gradientUnits="userSpaceOnUse" x1="83.1329" y1="73.6584" x2="18.6168" y2="21.2154">
		<stop  offset="0.4" style="stop-color:#F39800"/>
		<stop  offset="0.9039" style="stop-color:#C42D1B"/>
	</linearGradient>
	<path style="fill:url(#SVGID_00000155867761546765466250000007969498874516777622_);" d="M84.04,59.07
		c-3.77-7.36-9.71-11.17-9.96-11.33c-0.31-0.2-0.72-0.16-0.99,0.1c-2.27,2.2-8.52,2.2-10.79,0c-0.27-0.26-0.68-0.3-0.99-0.1
		c-0.04,0.03-1.4,0.91-3.22,2.59l0.02,0l0.56,1.68c1.31-1.27,2.43-2.14,3.03-2.57c2.96,2.19,9.05,2.19,12.01,0
		c1.44,1.03,5.79,4.47,8.75,10.08c-2.58,7.93-8.13,14.61-15.26,18.73l0.51,1.57c7.71-4.36,13.7-11.56,16.39-20.13
		C84.15,59.48,84.14,59.26,84.04,59.07z"/>
	
		<linearGradient id="SVGID_00000171690439913082135590000008789786009711163266_" gradientUnits="userSpaceOnUse" x1="83.1522" y1="73.6347" x2="18.636" y2="21.1918">
		<stop  offset="0.4" style="stop-color:#F39800"/>
		<stop  offset="0.9039" style="stop-color:#C42D1B"/>
	</linearGradient>
	<path style="fill:url(#SVGID_00000171690439913082135590000008789786009711163266_);" d="M41.92,43.52
		c-0.23,0.4-0.47,0.78-0.73,1.13c-2.58-0.11-4.82-0.84-6.09-1.98l-4.12-9.63c2.34,1.24,6.19,2.48,10.4,0.58
		c1.2-0.54,2.02-0.55,2.44-0.02c0.15,0.18,0.25,0.42,0.33,0.7l1.6-0.12c-0.13-0.62-0.34-1.17-0.67-1.58
		c-0.65-0.82-1.93-1.56-4.37-0.45c-5.75,2.61-10.79-1.68-11.01-1.87c-0.28-0.24-0.7-0.26-1-0.04c-0.3,0.22-0.41,0.62-0.27,0.97
		l5.25,12.26c0.04,0.1,0.1,0.19,0.18,0.26c1.59,1.54,4.47,2.49,7.71,2.55c0,0,0.01,0,0.01,0c0.25,0,0.49-0.12,0.64-0.31
		c0.25-0.32,0.49-0.67,0.72-1.04l-1.03-0.42L41.92,43.52z"/>
	
		<linearGradient id="SVGID_00000071552084569605239680000002517222037248095121_" gradientUnits="userSpaceOnUse" x1="90.627" y1="64.4391" x2="26.1109" y2="11.9962">
		<stop  offset="0.4" style="stop-color:#F39800"/>
		<stop  offset="0.9039" style="stop-color:#C42D1B"/>
	</linearGradient>
	<path style="fill:url(#SVGID_00000071552084569605239680000002517222037248095121_);" d="M66.99,46.77l0.03-0.41
		c-0.15,0.98-0.28,2.01-0.33,3.08c-1.81-0.15-3.36-0.68-4.27-1.49l-3.08-7.19c1.81,0.86,4.49,1.44,7.41-0.26
		c0.82-0.48,1.25-0.62,1.44-0.66c0.03,0.27-0.04,0.78-0.15,1.35l1.63,0.03c0.23-1.35,0.19-2.24-0.48-2.74
		c-0.84-0.61-2.06-0.06-3.25,0.63c-4.19,2.43-7.68-0.92-7.83-1.07c-0.27-0.27-0.7-0.31-1.02-0.09c-0.32,0.22-0.44,0.63-0.29,0.98
		l4.2,9.81c0.04,0.1,0.1,0.19,0.18,0.26c1.32,1.28,3.61,2.04,6.27,2.08c0,0,0.01,0,0.01,0c0.21,0,0.41-0.08,0.56-0.23
		c0.14-0.14,0.22-0.32,0.23-0.51c-0.49-0.17-1-0.35-1.03-0.41C67.16,49.82,66.99,46.77,66.99,46.77z"/>
	
		<linearGradient id="SVGID_00000114074904893750609590000009713305323121744002_" gradientUnits="userSpaceOnUse" x1="91.5491" y1="63.3047" x2="27.033" y2="10.8618">
		<stop  offset="0.4" style="stop-color:#F39800"/>
		<stop  offset="0.9039" style="stop-color:#C42D1B"/>
	</linearGradient>
	<path style="fill:url(#SVGID_00000114074904893750609590000009713305323121744002_);" d="M67.02,46.36
		c0.21-1.32,0.46-2.53,0.69-3.54c0.12-0.52,0.24-1.1,0.34-1.62l-0.7-0.01L67.02,46.36z"/>
</g>
</svg>
