<?xml version="1.0" encoding="utf-8"?>
<!-- Generator: Adobe Illustrator 26.5.0, SVG Export Plug-In . SVG Version: 6.00 Build 0)  -->
<svg version="1.1" id="圖層_1" xmlns="http://www.w3.org/2000/svg" xmlns:xlink="http://www.w3.org/1999/xlink" x="0px" y="0px"
	 viewBox="0 0 100 100" style="enable-background:new 0 0 100 100;" xml:space="preserve">
<style type="text/css">
	.st0{fill:url(#SVGID_1_);}
	.st1{fill:url(#SVGID_00000026849911521272924910000016423814320388410770_);}
	.st2{fill:url(#SVGID_00000044879533386536783690000010528662656717884590_);}
	.st3{fill:url(#SVGID_00000104705307774953140480000006100133216584622504_);}
	.st4{fill:url(#SVGID_00000137824630120322389990000004267018694575678600_);}
	.st5{fill:url(#SVGID_00000029037973966904889290000002044294535743706034_);}
	.st6{fill:url(#SVGID_00000082349846782001476720000006674127079006093467_);}
	.st7{fill:url(#SVGID_00000065050066127791397120000006311188761904132268_);}
	.st8{fill:url(#SVGID_00000176741400824582654220000011899825796141466019_);}
	.st9{fill:url(#SVGID_00000027595053592103192250000014295255036540848558_);}
	.st10{fill:url(#SVGID_00000146461256464437084640000017679716208831711912_);}
	.st11{fill:url(#SVGID_00000041262730973393025240000000104853749318893223_);}
	.st12{fill:url(#SVGID_00000084497898349947573120000014349915689208801933_);}
	.st13{fill:url(#SVGID_00000126283392796396007880000010274111950799742358_);}
	.st14{fill:url(#SVGID_00000046309251142115843410000018061643312619492482_);}
	.st15{fill:url(#SVGID_00000116206136530966138200000013820803555854390697_);}
	.st16{fill:url(#SVGID_00000154394153045382729100000013015380549358853019_);}
	.st17{fill:url(#SVGID_00000066495887280107847090000004900547394273664399_);}
	.st18{fill:url(#SVGID_00000125572430438848612140000002885449076545639597_);}
	.st19{fill:url(#SVGID_00000097472206317539193550000013091044109465027510_);}
	.st20{fill:url(#SVGID_00000000207273889225485930000005794907936740954046_);}
	.st21{fill:url(#SVGID_00000116231690493335922940000002476210221756513964_);}
	.st22{fill:url(#SVGID_00000090986347447772120590000017670781947698470807_);}
	.st23{fill:url(#SVGID_00000062878716267606927160000014703573893207333258_);}
	.st24{fill:url(#SVGID_00000115512453687708899780000004063946439512639879_);}
	.st25{fill:url(#SVGID_00000000915070166026439550000007182343862307011247_);}
	.st26{fill:url(#SVGID_00000087412633500279390060000005130076311685182103_);}
	.st27{fill:url(#SVGID_00000038392889200649013920000014944565985573245323_);}
	.st28{fill:url(#SVGID_00000099661712657009370250000015889555409362943143_);}
	.st29{fill:url(#SVGID_00000000201350425858921640000012500634801971045047_);}
	.st30{fill:url(#SVGID_00000157992705666130929470000018095923918390523818_);}
	.st31{fill:url(#SVGID_00000026847938682551672280000005032203915315595664_);}
	.st32{fill:url(#SVGID_00000003793930821724152740000009362630478977993096_);}
	.st33{fill:url(#SVGID_00000163774248605753243150000012681855709154043326_);}
	.st34{fill:url(#SVGID_00000183956644335288835120000015250469096632532395_);}
	.st35{fill:url(#SVGID_00000111894973749282421900000003267132722694232239_);}
	.st36{fill:url(#SVGID_00000124142194642770033690000002198231100186046895_);}
	.st37{fill:url(#SVGID_00000109000429532516667050000015255601318050621842_);}
	.st38{fill:url(#SVGID_00000083784301463412614210000012528723680964830908_);}
	.st39{fill:url(#SVGID_00000106136088707176277280000000148631997270811282_);}
	.st40{fill:url(#SVGID_00000016062360928835843550000010406447294913394569_);}
	.st41{fill:url(#SVGID_00000008125033618417762900000017855219179226374784_);}
	.st42{fill:url(#SVGID_00000091693974108381567950000004573991750618265990_);}
	.st43{fill:url(#SVGID_00000104678120116961790970000012406497381108091326_);}
	.st44{fill:url(#SVGID_00000090988450996927872160000011790411062087963038_);}
	.st45{fill:url(#SVGID_00000098912790821354220680000012319828009192906649_);}
	.st46{fill:url(#SVGID_00000119827643764927384370000002437825085278486975_);}
	.st47{fill:url(#SVGID_00000050629344475908390700000011806168491815958713_);}
	.st48{fill:url(#SVGID_00000114043988936970167390000013673534145477019320_);}
	.st49{fill:url(#SVGID_00000077306862988461624930000004273166313390503570_);}
	.st50{fill:url(#SVGID_00000042734483728495445040000001608387448998436237_);}
	.st51{fill:url(#SVGID_00000127021441504276276780000013473060871655779212_);}
	.st52{fill:url(#SVGID_00000062154560669840528240000014385757592404983467_);}
	.st53{fill:url(#SVGID_00000160167447889659039160000017930360487993079945_);}
	.st54{fill:url(#SVGID_00000074440983654013064700000017444286106194852002_);}
	.st55{fill:url(#SVGID_00000129907252876734182910000006318741286517282745_);}
	.st56{fill:url(#SVGID_00000013177761276072131610000002503865746857965215_);}
	.st57{fill:url(#SVGID_00000124852694219298585160000010513551165773781940_);}
	.st58{fill:url(#SVGID_00000005975270204966765220000001726446883008447677_);}
	.st59{fill:url(#SVGID_00000042709351655735022720000003019999990415008391_);}
	.st60{fill:url(#SVGID_00000158707115711235467490000000840392700512661641_);}
	.st61{fill:url(#SVGID_00000123420947338107020780000009060748533411280546_);}
	.st62{fill:url(#SVGID_00000047751795436271623120000004121618328761525129_);}
	.st63{fill:url(#SVGID_00000137811329120645916580000002067337970208871861_);}
	.st64{fill:url(#SVGID_00000066510269299322177980000008967872524853227953_);}
	.st65{fill:url(#SVGID_00000044163651836711440120000007804335862404441243_);}
	.st66{fill:url(#SVGID_00000075845881589876689750000018083477498298081170_);}
	.st67{fill:url(#SVGID_00000110467920198807364200000010059824331025812097_);}
	.st68{fill:url(#SVGID_00000142886274209352687490000005131647019100940963_);}
	.st69{fill:url(#SVGID_00000178899482471557358270000006072072117541917600_);}
	.st70{fill:url(#SVGID_00000097483965612870169200000001775302785242112661_);}
	.st71{fill:url(#SVGID_00000016786092872864199640000001738218638692815536_);}
	.st72{fill:url(#SVGID_00000080924641488055663670000010242809549115192962_);}
	.st73{fill:url(#SVGID_00000086687598693585148020000004383425551318224272_);}
	.st74{fill:url(#SVGID_00000170984114760297370310000005899892669998404482_);}
	.st75{fill:url(#SVGID_00000145758259885763812150000010299496879892364689_);}
	.st76{fill:url(#SVGID_00000130605182815845586070000010169270177711830176_);}
	.st77{fill:url(#SVGID_00000010297354833709680320000013889976940454203320_);}
	.st78{fill:url(#SVGID_00000173158322378804955470000005175996800207979952_);}
	.st79{fill:url(#SVGID_00000010273728545404218060000013521049044816709032_);}
	.st80{fill:url(#SVGID_00000121242613138783496880000000757941803810236304_);}
	.st81{fill:url(#SVGID_00000004529236170114517660000005093665922140772267_);}
	.st82{fill:url(#SVGID_00000140696041096483708280000011870738435339982777_);}
	.st83{fill:url(#SVGID_00000050641709257916608600000012677437889596160175_);}
	.st84{fill:url(#SVGID_00000165234594195584357620000000974515239549951143_);}
	.st85{fill:url(#SVGID_00000175286974951871021640000013315479899497015695_);}
	.st86{fill:url(#SVGID_00000090292431285665183190000002367988972582811566_);}
	.st87{fill:url(#SVGID_00000127740382333684743590000008184946810647644800_);}
	.st88{fill:url(#SVGID_00000039134650633561164670000005996021673839260853_);}
	.st89{fill:url(#SVGID_00000042014596822312141870000011837227646422061208_);}
	.st90{fill:url(#SVGID_00000171706239123104627060000018348228184867917467_);}
	.st91{fill:url(#SVGID_00000027575344793866618640000008356143382981148068_);}
	.st92{fill:url(#SVGID_00000046332285638021554370000000402293371058136490_);}
	.st93{fill:url(#SVGID_00000010301121090594319110000012273603251213878461_);}
	.st94{fill:url(#SVGID_00000054985220409382282900000010807065516103448205_);}
	.st95{fill:url(#SVGID_00000081625233612053498350000008063109941414293439_);}
	.st96{fill:url(#SVGID_00000044153773015686510640000014353970369749725881_);}
	.st97{fill:url(#SVGID_00000163779243216328798440000008994342010060417691_);}
	.st98{fill:url(#SVGID_00000001627051786303680370000007137106838167837317_);}
	.st99{fill:url(#SVGID_00000129928280771697858320000018043807149831453596_);}
	.st100{fill:url(#SVGID_00000155868522790966726890000018097609576839938715_);}
	.st101{fill:url(#SVGID_00000148637198531335672650000012554167678674408125_);}
	.st102{fill:url(#SVGID_00000170990854255045965970000001804999286170563978_);}
	.st103{fill:url(#SVGID_00000160898179379149272710000010032514545674758814_);}
	.st104{fill:url(#SVGID_00000047056309976354131650000005690393835242228159_);}
	.st105{fill:url(#SVGID_00000177457475695677464940000011162401796800990623_);}
	.st106{fill:url(#SVGID_00000129921957054308920340000005100722590800638392_);}
	.st107{fill:url(#SVGID_00000091723856534785171070000016152107754346920846_);}
	.st108{fill:url(#SVGID_00000045589432833119146000000011011552723011325833_);}
	.st109{fill:url(#SVGID_00000008848145029325884300000010278662256031151538_);}
	.st110{fill:url(#SVGID_00000057147185427926394760000013993412660910619577_);}
	.st111{fill:url(#SVGID_00000146490875526800493040000002771975935728550827_);}
	.st112{fill:url(#SVGID_00000129909012788488664090000005474779651486923175_);}
	.st113{fill:url(#SVGID_00000008847864878073040050000008261801670218083243_);}
	.st114{fill:url(#SVGID_00000091003274519414211540000011300190757307722679_);}
	.st115{fill:url(#SVGID_00000132779471875860797290000016299586879764913586_);}
	.st116{fill:url(#SVGID_00000181774496000792096280000003088206595040566699_);}
	.st117{fill:url(#SVGID_00000069374232817385189280000014484762797877596862_);}
	.st118{fill:url(#SVGID_00000075884042283898906100000001959690049250285213_);}
	.st119{fill:url(#SVGID_00000126283706145634807870000007148064004838099104_);}
	.st120{fill:url(#SVGID_00000157309691970620072550000011611772878504758413_);}
	.st121{fill:url(#SVGID_00000108307776513290847030000008427881344032977591_);}
	.st122{fill:url(#SVGID_00000129198510649860058700000002773901838373083299_);}
	.st123{fill:url(#SVGID_00000000905716935924212360000004161086144002997427_);}
	.st124{fill:url(#SVGID_00000099652139395412532610000011069484561064506550_);}
	.st125{fill:url(#SVGID_00000158000231559041134290000008052166306352251540_);}
	.st126{fill:url(#SVGID_00000002376510109926972800000016174215605007255947_);}
	.st127{fill:#2C4F80;}
	.st128{fill:url(#SVGID_00000153664424541948838350000008043431878028048062_);}
	.st129{fill:url(#SVGID_00000091701226684610862950000012958027731555375764_);}
	.st130{fill:url(#SVGID_00000026862457103998761020000000999001178122012595_);}
	.st131{fill:url(#SVGID_00000077310218490409522590000001075738484190066321_);}
	.st132{fill:url(#SVGID_00000079482218863597830650000005999421310900671406_);}
	.st133{fill:url(#SVGID_00000052791177176359376070000006454653159440407696_);}
	.st134{fill:url(#SVGID_00000178185385815372702640000000508958732107996861_);}
	.st135{fill:url(#SVGID_00000083804357390024281150000014290862590638339999_);}
	.st136{fill:url(#SVGID_00000046302697962046137040000000756541253512248460_);}
	.st137{fill:url(#SVGID_00000172408476203061004390000008442734031774624947_);}
	.st138{fill:url(#SVGID_00000183970049848713956010000000076252672490378409_);}
	.st139{fill:url(#SVGID_00000126297701672526034230000016634509486504226476_);}
	.st140{fill:url(#SVGID_00000102511836487431773710000005093749683582361740_);}
	.st141{fill:url(#SVGID_00000074414563424016722480000012083513810588240020_);}
	.st142{fill:url(#SVGID_00000161609645689616317060000002188662031785844096_);}
	.st143{fill:url(#SVGID_00000141447458606702744540000007566874682614257036_);}
	.st144{fill:url(#SVGID_00000152223559815673111030000015633855310073562797_);}
	.st145{fill:url(#SVGID_00000036237355813251080970000013361759730178062747_);}
	.st146{fill:url(#SVGID_00000018951924915507092010000008002411170896881554_);}
	.st147{fill:url(#SVGID_00000053521859136729304490000002215135735090496385_);}
	.st148{fill:url(#SVGID_00000178174992872082234100000014573647155541241020_);}
	.st149{fill:url(#SVGID_00000011021937007681390260000016494388514672509625_);}
	.st150{fill:url(#SVGID_00000118367995954948915380000015171748516750107051_);}
	.st151{fill:url(#SVGID_00000164501105986353390770000012275860022568224649_);}
	.st152{fill:url(#SVGID_00000114055351900647418080000010541920393591334583_);}
	.st153{fill:url(#SVGID_00000162336756079373165030000001140021669695943601_);}
	.st154{fill:url(#SVGID_00000103955927335134873120000015026912533817912496_);}
	.st155{fill:url(#SVGID_00000100358033952192864940000013732713525681139869_);}
	.st156{fill:url(#SVGID_00000127042047273089349280000007691637860808907945_);}
	.st157{fill:url(#SVGID_00000142176203367972781670000011426697932504579004_);}
	.st158{fill:url(#SVGID_00000073702508470794636940000011548623474861245886_);}
	.st159{fill:url(#SVGID_00000142889220762587181260000013689550387043404676_);}
	.st160{fill:url(#SVGID_00000159432555877705439990000016957964667916285591_);}
	.st161{fill:url(#SVGID_00000065071313479940806570000014182551695595977105_);}
	.st162{fill:url(#SVGID_00000047019971663378103820000001867537950023294346_);}
	.st163{fill:url(#SVGID_00000047746374167127556740000005572149849104633494_);}
	.st164{fill:url(#SVGID_00000083808200155639409010000009681788099978846105_);}
	.st165{fill:url(#SVGID_00000109710122501825092950000000863868026758790051_);}
	.st166{fill:url(#SVGID_00000057133427216247735310000008088255052324285075_);}
	.st167{fill:url(#SVGID_00000104667700825030696360000013483493778030768782_);}
	.st168{fill:url(#SVGID_00000107567366257490089640000017228629368667196091_);}
	.st169{fill:url(#SVGID_00000054983667492091744140000010488924694031048341_);}
	.st170{fill:url(#SVGID_00000034090169872985476190000005420324170648844708_);}
	.st171{fill:url(#SVGID_00000036247581467752560700000000838037500949091723_);}
	.st172{fill:url(#SVGID_00000064356003272643695830000005048004981713572766_);}
	.st173{fill:url(#SVGID_00000087400590171732302990000009981589841547939768_);}
	.st174{fill:url(#SVGID_00000011739567673017390200000010825463361453816467_);}
	.st175{fill:url(#SVGID_00000062892661753058930170000011896395514951505599_);}
	.st176{fill:url(#SVGID_00000072247623988643399440000001518752500002079925_);}
	.st177{fill:url(#SVGID_00000039835580397513767190000004414986961081625733_);}
	.st178{fill:url(#SVGID_00000013905315706391323920000016829272260373039534_);}
	.st179{fill:url(#SVGID_00000088839442156118090070000005551747718597860026_);}
	.st180{fill:url(#SVGID_00000147199620571265679690000004416185904837290401_);}
	.st181{fill:url(#SVGID_00000169526305306183227940000006073000409555642766_);}
	.st182{fill:url(#SVGID_00000119111545008687234020000015698972974177814950_);}
	.st183{fill:url(#SVGID_00000183221473090020728730000004515382808893875120_);}
	.st184{fill:url(#SVGID_00000114063496045603639160000006969427760509880503_);}
	.st185{fill:url(#SVGID_00000113341263964570570400000012808087679452045215_);}
	.st186{fill:url(#SVGID_00000116922985343475412830000010556270417728763826_);}
	.st187{fill:url(#SVGID_00000030446806105316076450000009267637621143463080_);}
	.st188{fill:url(#SVGID_00000152964323508207048010000016982451121097209780_);}
	.st189{fill:url(#SVGID_00000038382030016634548890000006521951027585720504_);}
	.st190{fill:url(#SVGID_00000067936227865202624510000001772334737119727762_);}
	.st191{fill:url(#SVGID_00000075846980497226747360000016068062331083659401_);}
	.st192{fill:url(#SVGID_00000160878607281000773730000010369781131921362104_);}
	.st193{fill:url(#SVGID_00000162311416804497779170000001896749262250034095_);}
	.st194{fill:url(#SVGID_00000094613807557040422340000015634094636808613288_);}
	.st195{fill:url(#SVGID_00000011710918413113535300000010371379978346475927_);}
	.st196{fill:url(#SVGID_00000131345497016203471920000003874071042524064136_);}
	.st197{fill:url(#SVGID_00000095313968397056395430000003004499388074292382_);}
	.st198{fill:url(#SVGID_00000049179389213908096780000011258016226544885907_);}
	.st199{fill:url(#SVGID_00000149379622826973671230000016901783453162446237_);}
	.st200{fill:url(#SVGID_00000098186164847006581380000002809732750958921870_);}
	.st201{fill:url(#SVGID_00000040536272694149546330000012089248658459702696_);}
	.st202{fill:url(#SVGID_00000163753621735746477630000017195125167673662648_);}
	.st203{fill:url(#SVGID_00000130618489138274298770000008541435762157842820_);}
	.st204{fill:url(#SVGID_00000170991246965263349540000012816055946525073812_);}
	.st205{fill:url(#SVGID_00000043457256339317539300000001190484105261763485_);}
	.st206{fill:url(#SVGID_00000047021718947274225260000017781799396279703180_);}
	.st207{fill:url(#SVGID_00000088106368527591530240000002347085205203884715_);}
	.st208{fill:url(#SVGID_00000062906938256738031790000006488902821299991721_);}
	.st209{fill:url(#SVGID_00000016059991583673959230000000639429534295079844_);}
	.st210{fill:url(#SVGID_00000016755018676814147880000007566950825910085762_);}
	.st211{fill:url(#SVGID_00000069355870491897410030000008181006969732626339_);}
	.st212{fill:url(#SVGID_00000090991508521436941350000007233554486397652878_);}
	.st213{fill:url(#SVGID_00000167387540225148820510000001475276332943168404_);}
	.st214{fill:url(#SVGID_00000087411561894388685460000013561091649152807556_);}
	.st215{fill:url(#SVGID_00000072999662323856034420000008990168813406430393_);}
	.st216{fill:url(#SVGID_00000109723435274074470270000006411724025962844060_);}
	.st217{fill:url(#SVGID_00000011731239186356862550000016250755582332107395_);}
	.st218{fill:url(#SVGID_00000072264590234376799280000016352399869974288815_);}
	.st219{fill:url(#SVGID_00000060717262679166013410000003727276736003548081_);}
	.st220{fill:url(#SVGID_00000170236731886416089890000009180659782072328326_);}
	.st221{fill:url(#SVGID_00000123431603855194684780000005040452078955863221_);}
	.st222{fill:url(#SVGID_00000145765296748709887020000013739680130591565952_);}
	.st223{fill:url(#SVGID_00000038380417287057823740000016882833050664224393_);}
	.st224{fill:url(#SVGID_00000172421736193510165560000006220125794729231770_);}
	.st225{fill:url(#SVGID_00000145749236576147914100000013145225648242409390_);}
	.st226{fill:url(#SVGID_00000172421160471692763080000010088970489077547682_);}
	.st227{fill:url(#SVGID_00000035529535138020706150000008946438860392513920_);}
	.st228{fill:url(#SVGID_00000013159152547909614150000002100108576605448622_);}
</style>
<g>
	<g>
		<linearGradient id="SVGID_1_" gradientUnits="userSpaceOnUse" x1="103.7375" y1="68.2502" x2="24.6986" y2="11.6">
			<stop  offset="0.4" style="stop-color:#F39800"/>
			<stop  offset="0.9039" style="stop-color:#C42D1B"/>
		</linearGradient>
		<path class="st0" d="M81.55,60.53c-4.51,0-8.18-3.67-8.18-8.18c0-4.51,3.67-8.18,8.18-8.18c4.51,0,8.18,3.67,8.18,8.18
			C89.73,56.86,86.06,60.53,81.55,60.53z M81.55,45.87c-3.57,0-6.48,2.91-6.48,6.48c0,3.57,2.91,6.48,6.48,6.48
			c3.57,0,6.48-2.9,6.48-6.48C88.03,48.78,85.12,45.87,81.55,45.87z"/>
		
			<linearGradient id="SVGID_00000122703427923027491750000009927255360398325177_" gradientUnits="userSpaceOnUse" x1="83.2526" y1="96.8309" x2="4.2137" y2="40.1807">
			<stop  offset="0.4" style="stop-color:#F39800"/>
			<stop  offset="0.9039" style="stop-color:#C42D1B"/>
		</linearGradient>
		<path style="fill:url(#SVGID_00000122703427923027491750000009927255360398325177_);" d="M21.19,57.47c-2.82,0-5.12-2.3-5.12-5.12
			c0-2.82,2.3-5.12,5.12-5.12c2.82,0,5.12,2.3,5.12,5.12C26.31,55.17,24.01,57.47,21.19,57.47z M21.19,48.84
			c-1.93,0-3.5,1.57-3.5,3.5c0,1.93,1.57,3.5,3.5,3.5c1.93,0,3.5-1.57,3.5-3.5C24.69,50.42,23.12,48.84,21.19,48.84z"/>
		
			<linearGradient id="SVGID_00000116931504990873384600000015502233665314801293_" gradientUnits="userSpaceOnUse" x1="107.7854" y1="62.6026" x2="28.7465" y2="5.9524">
			<stop  offset="0.4" style="stop-color:#F39800"/>
			<stop  offset="0.9039" style="stop-color:#C42D1B"/>
		</linearGradient>
		<path style="fill:url(#SVGID_00000116931504990873384600000015502233665314801293_);" d="M51.37,27.29c-2.82,0-5.12-2.3-5.12-5.12
			c0-2.82,2.3-5.12,5.12-5.12c2.82,0,5.12,2.3,5.12,5.12C56.49,24.99,54.19,27.29,51.37,27.29z M51.37,18.66
			c-1.93,0-3.5,1.57-3.5,3.5c0,1.93,1.57,3.5,3.5,3.5c1.93,0,3.5-1.57,3.5-3.5C54.87,20.24,53.3,18.66,51.37,18.66z"/>
		
			<linearGradient id="SVGID_00000161609482247381164810000011056868843781444993_" gradientUnits="userSpaceOnUse" x1="79.2047" y1="102.4786" x2="0.1658" y2="45.8284">
			<stop  offset="0.4" style="stop-color:#F39800"/>
			<stop  offset="0.9039" style="stop-color:#C42D1B"/>
		</linearGradient>
		<path style="fill:url(#SVGID_00000161609482247381164810000011056868843781444993_);" d="M51.37,87.65c-2.82,0-5.12-2.3-5.12-5.12
			c0-2.82,2.3-5.12,5.12-5.12c2.82,0,5.12,2.3,5.12,5.12C56.49,85.35,54.19,87.65,51.37,87.65z M51.37,79.03
			c-1.93,0-3.5,1.57-3.5,3.5c0,1.93,1.57,3.5,3.5,3.5c1.93,0,3.5-1.57,3.5-3.5C54.87,80.6,53.3,79.03,51.37,79.03z"/>
		
			<linearGradient id="SVGID_00000065787500085241410480000011238485831515324082_" gradientUnits="userSpaceOnUse" x1="90.9219" y1="86.1306" x2="11.883" y2="29.4805">
			<stop  offset="0.4" style="stop-color:#F39800"/>
			<stop  offset="0.9039" style="stop-color:#C42D1B"/>
		</linearGradient>
		<path style="fill:url(#SVGID_00000065787500085241410480000011238485831515324082_);" d="M70.55,76.65c-2.82,0-5.12-2.3-5.12-5.12
			c0-2.82,2.3-5.12,5.12-5.12c2.82,0,5.12,2.3,5.12,5.12C75.67,74.36,73.38,76.65,70.55,76.65z M70.55,68.03
			c-1.93,0-3.5,1.57-3.5,3.5c0,1.93,1.57,3.5,3.5,3.5s3.5-1.57,3.5-3.5C74.06,69.6,72.49,68.03,70.55,68.03z"/>
		
			<linearGradient id="SVGID_00000051344983143373080030000007952270318422842753_" gradientUnits="userSpaceOnUse" x1="96.0682" y1="78.9505" x2="17.0293" y2="22.3003">
			<stop  offset="0.4" style="stop-color:#F39800"/>
			<stop  offset="0.9039" style="stop-color:#C42D1B"/>
		</linearGradient>
		<path style="fill:url(#SVGID_00000051344983143373080030000007952270318422842753_);" d="M32.19,38.28c-2.82,0-5.12-2.3-5.12-5.12
			c0-2.82,2.3-5.12,5.12-5.12c2.82,0,5.12,2.3,5.12,5.12C37.31,35.99,35.01,38.28,32.19,38.28z M32.19,29.66
			c-1.93,0-3.5,1.57-3.5,3.5c0,1.93,1.57,3.5,3.5,3.5s3.5-1.57,3.5-3.5C35.69,31.23,34.12,29.66,32.19,29.66z"/>
		
			<linearGradient id="SVGID_00000025439925764242320790000001456921343298421405_" gradientUnits="userSpaceOnUse" x1="109.0899" y1="60.7825" x2="30.051" y2="4.1324">
			<stop  offset="0.4" style="stop-color:#F39800"/>
			<stop  offset="0.9039" style="stop-color:#C42D1B"/>
		</linearGradient>
		<path style="fill:url(#SVGID_00000025439925764242320790000001456921343298421405_);" d="M70.55,38.28c-2.82,0-5.12-2.3-5.12-5.12
			c0-2.82,2.3-5.12,5.12-5.12c2.82,0,5.12,2.3,5.12,5.12C75.67,35.99,73.38,38.28,70.55,38.28z M70.55,29.66
			c-1.93,0-3.5,1.57-3.5,3.5c0,1.93,1.57,3.5,3.5,3.5s3.5-1.57,3.5-3.5C74.06,31.23,72.49,29.66,70.55,29.66z"/>
		
			<linearGradient id="SVGID_00000023970183553841888660000009202813190098108339_" gradientUnits="userSpaceOnUse" x1="77.3024" y1="105.1326" x2="-1.7364" y2="48.4825">
			<stop  offset="0.4" style="stop-color:#F39800"/>
			<stop  offset="0.9039" style="stop-color:#C42D1B"/>
		</linearGradient>
		<path style="fill:url(#SVGID_00000023970183553841888660000009202813190098108339_);" d="M31.26,80.07
			c-4.38,0-7.94-3.56-7.94-7.94c0-4.38,3.56-7.94,7.94-7.94c4.38,0,7.94,3.56,7.94,7.94C39.2,76.51,35.63,80.07,31.26,80.07z
			 M31.26,65.69c-3.55,0-6.44,2.89-6.44,6.44c0,3.55,2.89,6.44,6.44,6.44s6.44-2.89,6.44-6.44C37.7,68.58,34.81,65.69,31.26,65.69z"
			/>
		<g>
			
				<linearGradient id="SVGID_00000147922015638196085520000000337346042963448230_" gradientUnits="userSpaceOnUse" x1="103.2982" y1="68.8631" x2="24.2593" y2="12.2129">
				<stop  offset="0.4" style="stop-color:#F39800"/>
				<stop  offset="0.9039" style="stop-color:#C42D1B"/>
			</linearGradient>
			<path style="fill:url(#SVGID_00000147922015638196085520000000337346042963448230_);" d="M77.81,56.33
				c-0.11-0.11-0.16-0.24-0.16-0.4c0-0.06,0.02-0.14,0.06-0.24l3.12-7.37c0.07-0.16,0.17-0.29,0.29-0.38s0.27-0.13,0.43-0.13h0.12
				c0.16,0,0.31,0.04,0.43,0.13s0.22,0.22,0.29,0.38l3.12,7.37c0.04,0.11,0.06,0.19,0.06,0.24c0,0.16-0.05,0.29-0.16,0.4
				c-0.11,0.11-0.24,0.16-0.4,0.16c-0.12,0-0.23-0.03-0.32-0.09c-0.09-0.06-0.17-0.15-0.21-0.26l-0.8-1.9h-4.14l-0.8,1.9
				c-0.05,0.11-0.12,0.2-0.21,0.26c-0.09,0.06-0.2,0.09-0.32,0.09C78.05,56.49,77.91,56.44,77.81,56.33z M81.62,49.4
				c-0.04,0-0.07,0.03-0.1,0.09l-1.54,3.71h3.28l-1.54-3.71C81.69,49.43,81.66,49.4,81.62,49.4z"/>
		</g>
		<g>
			<g>
				
					<linearGradient id="SVGID_00000017496191750593472740000012409195479997577091_" gradientUnits="userSpaceOnUse" x1="76.9664" y1="105.6014" x2="-2.0724" y2="48.9512">
					<stop  offset="0.4" style="stop-color:#F39800"/>
					<stop  offset="0.9039" style="stop-color:#C42D1B"/>
				</linearGradient>
				<path style="fill:url(#SVGID_00000017496191750593472740000012409195479997577091_);" d="M27.12,76.07
					c0-0.11,0.05-0.2,0.14-0.27c0.09-0.07,0.24-0.13,0.43-0.18c1.25-0.26,2.3-0.72,3.16-1.39v-0.02c-0.63-0.59-1.11-1.23-1.43-1.93
					c-0.33-0.72-0.5-1.19-0.5-1.4c0-0.22,0.14-0.33,0.41-0.33c0.1,0,0.19,0.03,0.27,0.1c0.08,0.07,0.13,0.16,0.17,0.29
					c0.32,1.06,0.88,1.98,1.67,2.75h0.02c0.86-0.92,1.4-2.11,1.63-3.56h-5.38c-0.33,0-0.5-0.13-0.5-0.38c0-0.26,0.17-0.39,0.5-0.39
					h3.27v-0.92c0-0.36,0.14-0.54,0.42-0.54c0.15,0,0.25,0.04,0.32,0.13c0.07,0.09,0.1,0.22,0.1,0.41v0.92h3.36
					c0.32,0,0.49,0.13,0.49,0.39c0,0.26-0.16,0.38-0.49,0.38h-1.21c-0.36,1.7-1,3.04-1.92,4.02v0.02c0.89,0.64,1.96,1.1,3.21,1.38
					c0.35,0.08,0.53,0.23,0.53,0.46c0,0.32-0.14,0.48-0.42,0.48c-0.04,0-0.11-0.01-0.18-0.03c-0.08-0.02-0.13-0.04-0.17-0.05
					c-1.45-0.4-2.64-0.96-3.55-1.68h-0.02c-0.56,0.49-1.25,0.91-2.07,1.27c-0.8,0.35-1.42,0.53-1.84,0.53
					C27.26,76.52,27.12,76.37,27.12,76.07z"/>
				
					<linearGradient id="SVGID_00000115472461566867273660000007697745215231902344_" gradientUnits="userSpaceOnUse" x1="76.9663" y1="105.6017" x2="-2.0726" y2="48.9515">
					<stop  offset="0.4" style="stop-color:#F39800"/>
					<stop  offset="0.9039" style="stop-color:#C42D1B"/>
				</linearGradient>
				<path style="fill:url(#SVGID_00000115472461566867273660000007697745215231902344_);" d="M27.53,76.79
					c-0.43,0-0.68-0.27-0.68-0.72c0-0.19,0.08-0.36,0.24-0.49c0.12-0.1,0.3-0.17,0.54-0.23c1.09-0.23,2.03-0.62,2.81-1.16
					c-0.54-0.55-0.97-1.15-1.27-1.8c-0.46-1.01-0.52-1.34-0.52-1.52c0-0.18,0.07-0.36,0.23-0.48h-1.16c-0.72,0-0.77-0.5-0.77-0.66
					c0-0.16,0.06-0.66,0.77-0.66h2.99v-0.64c0-0.75,0.53-0.81,0.69-0.81c0.29,0,0.45,0.13,0.54,0.24c0.11,0.13,0.16,0.32,0.16,0.57
					v0.64h3.09c0.71,0,0.76,0.51,0.76,0.66c0,0.15-0.06,0.66-0.76,0.66H34.2c-0.35,1.52-0.93,2.77-1.74,3.71
					c0.8,0.53,1.77,0.92,2.87,1.16c0.64,0.14,0.74,0.51,0.74,0.73c0,0.47-0.26,0.75-0.69,0.75c-0.07,0-0.14-0.01-0.24-0.04
					c-0.09-0.02-0.15-0.04-0.2-0.05c-1.38-0.38-2.55-0.91-3.47-1.6c-0.55,0.45-1.21,0.84-1.98,1.18
					C28.64,76.61,28,76.79,27.53,76.79z M29.34,70.82c-0.1,0-0.14,0.02-0.14,0.02c0,0.12,0.04,0.4,0.47,1.33
					c0.31,0.66,0.77,1.28,1.37,1.84l0.09,0.08v0.25l-0.11,0.1c-0.89,0.68-1.99,1.17-3.27,1.44c-0.2,0.04-0.29,0.1-0.32,0.12
					l-0.04,0.06c0,0.18,0.04,0.18,0.14,0.18c0.39,0,0.97-0.17,1.73-0.5c0.79-0.34,1.47-0.76,2-1.23l0.08-0.07h0.2l0.09,0.06
					c0.88,0.7,2.05,1.25,3.46,1.63c0.05,0.02,0.1,0.03,0.17,0.05c0.08,0.02,0.11,0.02,0.11,0.02c0.09,0,0.15,0,0.15-0.2
					c0-0.08-0.1-0.15-0.31-0.19c-1.29-0.28-2.4-0.76-3.31-1.42l-0.11-0.08v-0.25l0.07-0.1c0.88-0.94,1.51-2.25,1.85-3.89l0.05-0.22
					h1.44c0.21,0,0.21-0.05,0.21-0.11c0-0.07,0-0.12-0.21-0.12h-3.64v-1.19c0-0.18-0.04-0.23-0.04-0.24
					c-0.01-0.02-0.05-0.02-0.1-0.02c-0.08,0-0.15,0-0.15,0.26v1.19h-3.54c-0.22,0-0.22,0.05-0.22,0.12c0,0.06,0,0.11,0.22,0.11h5.7
					l-0.05,0.32c-0.24,1.5-0.81,2.75-1.7,3.71l-0.08,0.09h-0.23l-0.1-0.08c-0.83-0.8-1.41-1.77-1.74-2.87
					c-0.02-0.08-0.05-0.13-0.09-0.16C29.4,70.83,29.37,70.82,29.34,70.82z M29.73,70.4c0.02,0.01,0.04,0.03,0.05,0.04
					c0.11,0.1,0.2,0.24,0.25,0.42c0.28,0.93,0.75,1.75,1.41,2.44c0.66-0.78,1.1-1.75,1.33-2.9H29.73z"/>
			</g>
		</g>
		
			<linearGradient id="SVGID_00000121985316878092549120000008733904474741690770_" gradientUnits="userSpaceOnUse" x1="93.9249" y1="81.9408" x2="14.8861" y2="25.2906">
			<stop  offset="0.4" style="stop-color:#F39800"/>
			<stop  offset="0.9039" style="stop-color:#C42D1B"/>
		</linearGradient>
		<path style="fill:url(#SVGID_00000121985316878092549120000008733904474741690770_);" d="M74.04,51.54h-4.65
			c-0.19-4.28-1.87-8.17-4.54-11.17l3.19-3.22c0.32-0.32,0.32-0.83,0-1.14c-0.32-0.32-0.83-0.32-1.14,0l-3.18,3.2
			c-3.05-2.87-7.08-4.68-11.54-4.88V26.9c0-0.45-0.36-0.81-0.81-0.81c-0.45,0-0.81,0.36-0.81,0.81v7.44
			c-4.38,0.2-8.35,1.95-11.38,4.73l-3.4-3.39c-0.32-0.32-0.83-0.32-1.14,0c-0.32,0.32-0.32,0.83,0,1.14l3.4,3.39
			c-2.75,3.02-4.49,6.97-4.69,11.33h-7.07c-0.45,0-0.81,0.36-0.81,0.81c0,0.45,0.36,0.81,0.81,0.81h7.07
			c0.2,4.51,2.05,8.59,4.98,11.65l-2.07,2.04c-0.32,0.32-0.32,0.83,0,1.14c0.16,0.16,0.36,0.24,0.57,0.24s0.41-0.08,0.57-0.24
			l2.09-2.07c2.99,2.61,6.83,4.25,11.06,4.44v7.15c0,0.45,0.36,0.81,0.81,0.81c0.45,0,0.81-0.36,0.81-0.81v-7.15
			c4.36-0.19,8.32-1.94,11.35-4.7l3.37,3.36c0.16,0.16,0.36,0.24,0.57,0.24s0.41-0.08,0.57-0.24c0.32-0.32,0.32-0.83,0-1.14
			l-3.37-3.36c2.77-3.03,4.52-6.99,4.71-11.36h4.65c0.45,0,0.81-0.36,0.81-0.81C74.84,51.9,74.48,51.54,74.04,51.54z M53.67,68.6
			c-0.02,0-0.04,0.01-0.06,0.01c-0.36,0.05-0.73,0.08-1.1,0.1c-0.11,0.01-0.22,0.03-0.33,0.03v-0.01c-0.24,0.01-0.47,0.04-0.71,0.04
			c-0.31,0-0.6-0.03-0.91-0.05v0.02c-0.2-0.01-0.39-0.04-0.58-0.05c-0.11-0.01-0.22-0.02-0.32-0.03c-3.42-0.36-6.54-1.75-9.01-3.89
			l0.05-0.05c-0.41-0.35-0.8-0.73-1.17-1.12l-0.05,0.05c-2.63-2.77-4.3-6.44-4.5-10.5h0.09c-0.01-0.28-0.04-0.55-0.04-0.83
			c0-0.27,0.03-0.52,0.04-0.79h-0.09c0.19-3.91,1.75-7.46,4.21-10.19l0.03,0.03c0.36-0.4,0.74-0.79,1.14-1.15l-0.03-0.03
			c0.22-0.2,0.45-0.38,0.68-0.57c0,0,0,0,0,0c0.37-0.3,0.74-0.58,1.13-0.85c0.07-0.04,0.13-0.09,0.19-0.14
			c0.3-0.2,0.62-0.39,0.94-0.57c0.15-0.09,0.29-0.18,0.44-0.26c0.06-0.03,0.13-0.06,0.19-0.09c2.26-1.18,4.83-1.85,7.56-1.85
			c9.08,0,16.44,7.36,16.44,16.44C67.91,60.66,61.7,67.52,53.67,68.6z"/>
		
			<linearGradient id="SVGID_00000135676973405710978600000010984528245133098922_" gradientUnits="userSpaceOnUse" x1="90.4236" y1="86.8258" x2="11.3848" y2="30.1757">
			<stop  offset="0.4" style="stop-color:#F39800"/>
			<stop  offset="0.9039" style="stop-color:#C42D1B"/>
		</linearGradient>
		<path style="fill:url(#SVGID_00000135676973405710978600000010984528245133098922_);" d="M80.74,59.42v20.96
			c0,0.74-0.6,1.35-1.35,1.35H55.38v1.62h24.02c1.63,0,2.96-1.33,2.96-2.96V59.42H80.74z"/>
		
			<linearGradient id="SVGID_00000125562543508369672510000016846006112039103391_" gradientUnits="userSpaceOnUse" x1="75.352" y1="107.8539" x2="-3.6868" y2="51.2037">
			<stop  offset="0.4" style="stop-color:#F39800"/>
			<stop  offset="0.9039" style="stop-color:#C42D1B"/>
		</linearGradient>
		<path style="fill:url(#SVGID_00000125562543508369672510000016846006112039103391_);" d="M23.35,81.72c-0.74,0-1.35-0.6-1.35-1.35
			v-24.2h-1.62v24.2c0,1.64,1.33,2.96,2.96,2.96h24.23v-1.62H23.35z"/>
		
			<linearGradient id="SVGID_00000031925456432476702860000004380387862952919975_" gradientUnits="userSpaceOnUse" x1="95.8442" y1="79.263" x2="16.8054" y2="22.6128">
			<stop  offset="0.4" style="stop-color:#F39800"/>
			<stop  offset="0.9039" style="stop-color:#C42D1B"/>
		</linearGradient>
		<path style="fill:url(#SVGID_00000031925456432476702860000004380387862952919975_);" d="M23.35,21.36
			c-1.63,0-2.96,1.33-2.96,2.96v23.64H22V24.32c0-0.74,0.6-1.35,1.35-1.35h23.51v-1.62H23.35z"/>
		
			<linearGradient id="SVGID_00000099654913447159324390000012596465106466663836_" gradientUnits="userSpaceOnUse" x1="112.3616" y1="56.2177" x2="33.3227" y2="-0.4324">
			<stop  offset="0.4" style="stop-color:#F39800"/>
			<stop  offset="0.9039" style="stop-color:#C42D1B"/>
		</linearGradient>
		<path style="fill:url(#SVGID_00000099654913447159324390000012596465106466663836_);" d="M79.39,21.36H56.02v1.62h23.38
			c0.74,0,1.35,0.6,1.35,1.35v21.14h1.62V24.32C82.36,22.69,81.03,21.36,79.39,21.36z"/>
	</g>
	
		<linearGradient id="SVGID_00000086677251980840321930000000910442509132554641_" gradientUnits="userSpaceOnUse" x1="93.5757" y1="82.4281" x2="14.5368" y2="25.7779">
		<stop  offset="0.4" style="stop-color:#F39800"/>
		<stop  offset="0.9039" style="stop-color:#C42D1B"/>
	</linearGradient>
	<path style="fill:url(#SVGID_00000086677251980840321930000000910442509132554641_);" d="M52.7,66.97c-0.74,0-1.47,0-2.21,0
		c-0.12-0.03-0.24-0.08-0.37-0.1c-6.03-0.66-10.89-4.7-12.58-10.52c-0.27-0.95-0.39-1.94-0.58-2.91c0-0.74,0-1.47,0-2.21
		c0.04-0.17,0.09-0.33,0.11-0.5c0.78-5.74,3.86-9.75,9.17-11.97c1.33-0.56,2.82-0.72,4.24-1.06c0.74,0,1.47,0,2.21,0
		c0.14,0.04,0.29,0.09,0.43,0.1c5.75,0.57,10.77,4.66,12.42,10.21c0.31,1.05,0.45,2.14,0.67,3.22c0,0.74,0,1.47,0,2.21
		c-0.04,0.17-0.09,0.33-0.11,0.5c-0.86,6.09-4.2,10.18-9.96,12.26C55.06,66.6,53.86,66.72,52.7,66.97z M50.53,48.67
		c-1.56,0.17-3.04,0.32-4.52,0.51c-0.13,0.02-0.32,0.28-0.32,0.43c-0.02,1.81-0.03,3.62,0.01,5.44c0,0.16,0.27,0.42,0.44,0.46
		c0.59,0.13,1.19,0.2,1.79,0.25c0.85,0.07,1.7,0.11,2.59,0.16C50.53,53.5,50.53,51.17,50.53,48.67z M52.67,55.97
		c1.55-0.16,3.03-0.31,4.51-0.48c0.12-0.01,0.32-0.2,0.32-0.31c0.02-1.9,0.02-3.8,0-5.7c0-0.11-0.15-0.29-0.24-0.3
		c-1.51-0.18-3.02-0.34-4.59-0.51C52.67,51.16,52.67,53.49,52.67,55.97z M52.67,64.58c1.92-0.67,4.41-4.73,4.28-6.91
		c-1.42,0.12-2.83,0.24-4.28,0.37C52.67,60.22,52.67,62.39,52.67,64.58z M52.62,46.61c1.5,0.12,2.93,0.24,4.37,0.35
		c-0.31-2.33-2.31-6.51-4.37-6.86C52.62,42.26,52.62,44.42,52.62,46.61z M46.24,57.67c-0.04,2.4,2.62,6.61,4.32,6.88
		c0-2.16,0-4.32,0-6.5C49.12,57.92,47.7,57.79,46.24,57.67z M50.5,40.05c-1.98,0.82-4.44,4.89-4.24,6.92
		c1.41-0.12,2.82-0.23,4.24-0.35C50.5,44.42,50.5,42.26,50.5,40.05z M56.88,41.03c1.17,1.92,1.9,4,2.35,6.19
		c0.02,0.11,0.19,0.22,0.31,0.26c1.34,0.45,2.69,0.88,4.08,1.33C62.51,45.24,60.28,42.64,56.88,41.03z M39.6,55.86
		c0.83,3.35,3.92,6.75,6.75,7.72c-1.23-1.9-1.92-3.94-2.39-6.07c-0.03-0.15-0.22-0.32-0.37-0.37C42.27,56.7,40.94,56.29,39.6,55.86z
		 M56.87,63.58c2.8-0.88,6.12-4.66,6.7-7.71c-1.32,0.42-2.66,0.85-4,1.3c-0.15,0.05-0.31,0.25-0.34,0.4
		C58.79,59.7,58.05,61.71,56.87,63.58z M39.54,48.82c1.39-0.45,2.72-0.88,4.04-1.34c0.17-0.06,0.35-0.3,0.39-0.48
		c0.42-1.84,1-3.62,1.95-5.26c0.13-0.23,0.27-0.45,0.4-0.68C42.9,42.65,40.69,45.25,39.54,48.82z M59.68,54.95
		c1.39-0.37,2.72-0.8,3.82-1.72c0.87-0.73,0.85-1.23-0.04-1.92c-1.11-0.86-2.41-1.29-3.78-1.65C59.68,51.42,59.68,53.14,59.68,54.95
		z M43.51,49.72c-1.38,0.27-3,0.97-3.85,1.67c-0.79,0.65-0.82,1.14-0.04,1.8c1.13,0.96,2.49,1.41,3.89,1.79
		C43.51,53.21,43.51,51.49,43.51,49.72z"/>
</g>
</svg>
