<?xml version="1.0" encoding="utf-8"?>
<!-- Generator: Adobe Illustrator 26.5.0, SVG Export Plug-In . SVG Version: 6.00 Build 0)  -->
<svg version="1.1" id="圖層_1" xmlns="http://www.w3.org/2000/svg" xmlns:xlink="http://www.w3.org/1999/xlink" x="0px" y="0px"
	 viewBox="0 0 100 100" style="enable-background:new 0 0 100 100;" xml:space="preserve">
<style type="text/css">
	.st0{fill:url(#SVGID_1_);}
	.st1{fill:url(#SVGID_00000132080104918654641840000006830627080643812524_);}
	.st2{fill:url(#SVGID_00000173859737262402436990000006475730593180162970_);}
	.st3{fill:url(#SVGID_00000042709593954352924750000012809148677591939982_);}
	.st4{fill:url(#SVGID_00000065045301762662349560000012304538475620396721_);}
	.st5{fill:url(#SVGID_00000060032326102070316790000001229152688148319623_);}
	.st6{fill:url(#SVGID_00000084532259866890202090000000512091426401326486_);}
	.st7{fill:url(#SVGID_00000074417759234913628960000002897625682495175322_);}
	.st8{fill:url(#SVGID_00000112590443848767969250000002213167577401107860_);}
	.st9{fill:url(#SVGID_00000156571597170057264920000017728077769870015394_);}
	.st10{fill:url(#SVGID_00000084503052115179909480000016420471960316314047_);}
	.st11{fill:url(#SVGID_00000099631391013315605630000011960905701828247215_);}
	.st12{fill:url(#SVGID_00000003806255852400403120000017712249378788194990_);}
	.st13{fill:url(#SVGID_00000082330738170802264840000001793403877284723589_);}
	.st14{fill:url(#SVGID_00000140707292162746309270000000055822608456649653_);}
	.st15{fill:url(#SVGID_00000073687777893675031700000018436723767992057251_);}
	.st16{fill:url(#SVGID_00000017476132228846827250000015503331353939949980_);}
	.st17{fill:url(#SVGID_00000012445408142429933180000015449136182858480568_);}
	.st18{fill:url(#SVGID_00000086688767211671413420000009363473082677533077_);}
	.st19{fill:url(#SVGID_00000108995307949815683780000003767952604680125587_);}
	.st20{fill:url(#SVGID_00000137844079731543780140000006240707932021821324_);}
	.st21{fill:url(#SVGID_00000102513026322100041590000012489547408054602685_);}
	.st22{fill:url(#SVGID_00000147203036711454556400000013791073195100594603_);}
	.st23{fill:url(#SVGID_00000034054580270785687980000009585236345664074906_);}
	.st24{fill:url(#SVGID_00000012439893362983666230000012526163738737507725_);}
	.st25{fill:url(#SVGID_00000086652465362172911860000002307807908048296608_);}
	.st26{fill:url(#SVGID_00000026161524113120729830000007823272236047917758_);}
	.st27{fill:url(#SVGID_00000124156902406783463250000004026607421238542464_);}
	.st28{fill:url(#SVGID_00000036964009510140369060000003603905376001998268_);}
	.st29{fill:url(#SVGID_00000093864724843891721530000005591805446653750176_);}
	.st30{fill:url(#SVGID_00000165927029299408186090000004877490772237586865_);}
	.st31{fill:url(#SVGID_00000084530663282520936460000008113753209499382423_);}
	.st32{fill:url(#SVGID_00000107550361488530748740000003063523475536994231_);}
	.st33{fill:url(#SVGID_00000062905922065385673270000015980648934217932479_);}
	.st34{fill:url(#SVGID_00000009552996258187105660000006743905057960359071_);}
	.st35{fill:url(#SVGID_00000035507111839342654760000018307479500491276202_);}
	.st36{fill:url(#SVGID_00000088097958703106019560000002871345461716373138_);}
	.st37{fill:url(#SVGID_00000057111684704498278220000009641127403111263640_);}
	.st38{fill:url(#SVGID_00000003089249087159782020000000457372027688631735_);}
	.st39{fill:url(#SVGID_00000123399471744313157610000016817964605161806493_);}
	.st40{fill:url(#SVGID_00000040558765534556751880000013309139488379189912_);}
	.st41{fill:url(#SVGID_00000177447485260055368260000008100766537909837994_);}
	.st42{fill:url(#SVGID_00000058572651087237195580000009151580500484672899_);}
	.st43{fill:url(#SVGID_00000179621351871539431680000010650925969770824884_);}
	.st44{fill:url(#SVGID_00000087390354711039633300000017838768831057470907_);}
	.st45{fill:url(#SVGID_00000017496154525745553340000001339342348311910804_);}
	.st46{fill:url(#SVGID_00000060001190169115201490000013184266292046347922_);}
	.st47{fill:url(#SVGID_00000064319305589401499930000017867987459240162478_);}
	.st48{fill:url(#SVGID_00000016034398912698074730000006338835846368223892_);}
	.st49{fill:url(#SVGID_00000170980163490272072000000003017526101062029220_);}
	.st50{fill:url(#SVGID_00000002383265745969993910000014485117341182691767_);}
	.st51{fill:url(#SVGID_00000114774759533283939510000008074503990547668123_);}
	.st52{fill:url(#SVGID_00000076594346629907648460000017560358532678644118_);}
	.st53{fill:url(#SVGID_00000149342122261333773980000007008106766004475530_);}
	.st54{fill:url(#SVGID_00000163071261098555223900000014886112404425822388_);}
	.st55{fill:url(#SVGID_00000093855516394559368400000013572482225713070243_);}
	.st56{fill:url(#SVGID_00000024703090595039697200000011203826454258822579_);}
	.st57{fill:url(#SVGID_00000098927321291539552990000009029860564145440385_);}
	.st58{fill:url(#SVGID_00000048484981402568029140000016586914180763332757_);}
	.st59{fill:url(#SVGID_00000068661796136189223620000001160554174989462203_);}
	.st60{fill:url(#SVGID_00000042707954897477421420000009535224541625741476_);}
	.st61{fill:url(#SVGID_00000013896123672295502270000000757714308851190710_);}
	.st62{fill:url(#SVGID_00000019649766019748047090000010176407870893894583_);}
	.st63{fill:url(#SVGID_00000180334047037159784800000011226183523339919515_);}
	.st64{fill:url(#SVGID_00000176753295350443301460000012675411738423656337_);}
	.st65{fill:url(#SVGID_00000160180910610396536430000005497710148109935034_);}
	.st66{fill:url(#SVGID_00000170980348678565212270000002118379745836966047_);}
	.st67{fill:url(#SVGID_00000034807874490133934320000000077186778132413620_);}
	.st68{fill:url(#SVGID_00000136374725555514095270000008213468060897141678_);}
	.st69{fill:url(#SVGID_00000066504038593886330570000012257080330976695996_);}
	.st70{fill:url(#SVGID_00000076588276599470332260000001723543939374373779_);}
	.st71{fill:url(#SVGID_00000129900035921031501570000018322229089091828627_);}
	.st72{fill:url(#SVGID_00000046331152589686365800000008386221312765081012_);}
	.st73{fill:url(#SVGID_00000046315186806860561260000000054787305240058288_);}
	.st74{fill:url(#SVGID_00000115496112691601044320000006451406278895271063_);}
	.st75{fill:url(#SVGID_00000057837895940924974630000015590478452579470212_);}
	.st76{fill:url(#SVGID_00000169528008672338208440000011578778095411900302_);}
	.st77{fill:url(#SVGID_00000111890093021173491730000017589528067266922673_);}
	.st78{fill:url(#SVGID_00000176731295103013094680000004216510665820020146_);}
	.st79{fill:url(#SVGID_00000065067380725787298560000008820648423698891448_);}
	.st80{fill:url(#SVGID_00000060749186524682650480000005699258346694385561_);}
	.st81{fill:url(#SVGID_00000127040893919143598110000001414947406759795120_);}
	.st82{fill:url(#SVGID_00000158023950274230176720000011766393785366873007_);}
	.st83{fill:url(#SVGID_00000045620455898758056140000013035837874250436235_);}
	.st84{fill:url(#SVGID_00000115490286599692000190000002310871132773516179_);}
	.st85{fill:url(#SVGID_00000136386756625047470350000015629966512687907224_);}
	.st86{fill:url(#SVGID_00000061433196465865095530000008104350956042641054_);}
	.st87{fill:url(#SVGID_00000103235504760721919090000013370503441794500269_);}
	.st88{fill:url(#SVGID_00000157992741936898813090000016959444170715207342_);}
	.st89{fill:url(#SVGID_00000054261341304601971480000001666945567031125653_);}
	.st90{fill:url(#SVGID_00000101067672006483608140000006146974081904417467_);}
	.st91{fill:url(#SVGID_00000085228695867204337960000006415875879330495933_);}
	.st92{fill:url(#SVGID_00000129898314678262269240000005929597477606247064_);}
	.st93{fill:url(#SVGID_00000073697086063209489330000013417164585240759726_);}
	.st94{fill:url(#SVGID_00000150088456736251081590000006875633770082237356_);}
	.st95{fill:url(#SVGID_00000026882575376295907180000005881437308626778777_);}
	.st96{fill:url(#SVGID_00000158706859966108798540000013485500352056849300_);}
	.st97{fill:url(#SVGID_00000024691671338652644240000007129492651248775595_);}
	.st98{fill:url(#SVGID_00000096779336608525080750000013064768499591171489_);}
	.st99{fill:url(#SVGID_00000067203000679079112180000001678526476498683568_);}
	.st100{fill:url(#SVGID_00000138541898787723873680000007372683983451077282_);}
	.st101{fill:url(#SVGID_00000126302929235299668750000000829057145240236689_);}
	.st102{fill:url(#SVGID_00000077320740138118533290000001832010543383734409_);}
	.st103{fill:url(#SVGID_00000139278130078669917610000013066733955867406522_);}
	.st104{fill:url(#SVGID_00000163752260338535937640000017107071344257923483_);}
	.st105{fill:url(#SVGID_00000170264938862827027930000004285731051128370315_);}
	.st106{fill:url(#SVGID_00000113343546525575502370000001260343409662549403_);}
	.st107{fill:url(#SVGID_00000090256954302186588520000011380192982707197619_);}
	.st108{fill:url(#SVGID_00000072962808134015455740000017635961376057421715_);}
	.st109{fill:url(#SVGID_00000060027036476824665690000006403752279887147175_);}
	.st110{fill:url(#SVGID_00000173162848163498393010000008578144055172466845_);}
	.st111{fill:url(#SVGID_00000176005375734198684400000004197403131494786438_);}
	.st112{fill:url(#SVGID_00000147218596906158124990000012183365704436820125_);}
	.st113{fill:url(#SVGID_00000041288916758209865580000010880587816818456993_);}
	.st114{fill:url(#SVGID_00000168098057089814849570000014368767578038290876_);}
	.st115{fill:url(#SVGID_00000147222487907113534640000007934581667620944769_);}
	.st116{fill:url(#SVGID_00000022548979143369589480000016310679283173212584_);}
	.st117{fill:url(#SVGID_00000165916876080983358620000016769322578990369686_);}
	.st118{fill:url(#SVGID_00000037678432887730442850000004303402372548881028_);}
	.st119{fill:url(#SVGID_00000050651568144943634030000005382821995668578179_);}
	.st120{fill:url(#SVGID_00000050636421300657473250000004142541587087459991_);}
	.st121{fill:url(#SVGID_00000154391302173536266670000006922161041610747044_);}
	.st122{fill:url(#SVGID_00000122693897546255523230000001171916541403519368_);}
	.st123{fill:url(#SVGID_00000131325467607508234250000003635816900871318938_);}
	.st124{fill:url(#SVGID_00000137118565001554524400000014219275420322642310_);}
	.st125{fill:url(#SVGID_00000155847771867600425770000008645020572802178690_);}
	.st126{fill:url(#SVGID_00000181088899338589460130000000798314339642268345_);}
	.st127{fill:#2C4F80;}
	.st128{fill:url(#SVGID_00000110433828143316155030000017265548174406334116_);}
	.st129{fill:url(#SVGID_00000042730672903163678690000012392230471120285850_);}
	.st130{fill:url(#SVGID_00000021802301954531611710000009030246767887980683_);}
	.st131{fill:url(#SVGID_00000114044857962502394630000013263524692343097237_);}
	.st132{fill:url(#SVGID_00000016771085700846709060000011620124572719502991_);}
	.st133{fill:url(#SVGID_00000174568169602205244280000007617620630071188661_);}
	.st134{fill:url(#SVGID_00000033363761486324963750000004634815200561950108_);}
	.st135{fill:url(#SVGID_00000145032609270320478470000008449297065194068134_);}
	.st136{fill:url(#SVGID_00000104666005378732192450000010298364468301697664_);}
	.st137{fill:url(#SVGID_00000021094445639703370090000008202852929206888837_);}
	.st138{fill:url(#SVGID_00000018235468723373751590000018361972642396243110_);}
	.st139{fill:url(#SVGID_00000036943939967053394970000007236324264615274373_);}
	.st140{fill:url(#SVGID_00000035489531316998982890000009443815732981120434_);}
	.st141{fill:url(#SVGID_00000116206216646316368620000005012909248821584536_);}
	.st142{fill:url(#SVGID_00000031190498086180405560000012014761624296761758_);}
	.st143{fill:url(#SVGID_00000115501857979985970240000016988396029110574761_);}
	.st144{fill:url(#SVGID_00000106143636492313239660000014426506806446065282_);}
	.st145{fill:url(#SVGID_00000108989431517598537810000013834871598041489540_);}
	.st146{fill:url(#SVGID_00000027564207996312782780000011922229671013868734_);}
	.st147{fill:url(#SVGID_00000008123871339435106380000000161428607208088970_);}
	.st148{fill:url(#SVGID_00000144336609753111000830000015446184915383453863_);}
	.st149{fill:url(#SVGID_00000126281539716847605860000003410665220501493662_);}
	.st150{fill:url(#SVGID_00000183948323924434704420000017115339603819917738_);}
	.st151{fill:url(#SVGID_00000053543049468381970900000004373227335674267553_);}
	.st152{fill:url(#SVGID_00000170970011792656666570000006315518057773771923_);}
	.st153{fill:url(#SVGID_00000122001805285595983310000007411627334344293794_);}
	.st154{fill:url(#SVGID_00000075123041045229298750000011046142146314676159_);}
	.st155{fill:url(#SVGID_00000031207511165614721380000005372714999535782276_);}
	.st156{fill:url(#SVGID_00000169522462703743178280000003289954011543044741_);}
	.st157{fill:url(#SVGID_00000113313786743687483470000017588640752655962776_);}
	.st158{fill:url(#SVGID_00000049903002530427401750000013383964589274987399_);}
	.st159{fill:url(#SVGID_00000023271190624819519020000005349229062891458197_);}
	.st160{fill:url(#SVGID_00000010292519905503463340000013082930672092407205_);}
	.st161{fill:url(#SVGID_00000178919631482261813070000015732414928284635556_);}
	.st162{fill:url(#SVGID_00000140004930604770240890000005720118499032633750_);}
	.st163{fill:url(#SVGID_00000181776148679655401420000004797426558693019783_);}
	.st164{fill:url(#SVGID_00000155853984491082690940000016776997106337575862_);}
	.st165{fill:url(#SVGID_00000054971338266393555490000002613834775712770219_);}
	.st166{fill:url(#SVGID_00000162345905211919061140000005183578546769928329_);}
	.st167{fill:url(#SVGID_00000065756522865809031950000000183126921254696842_);}
	.st168{fill:url(#SVGID_00000134946990803958334340000004438237102560064930_);}
	.st169{fill:url(#SVGID_00000124879414231015037140000010664185679865031301_);}
	.st170{fill:url(#SVGID_00000153701445187411868810000013357135002132023995_);}
	.st171{fill:url(#SVGID_00000140005986870377162850000008859988067904260497_);}
	.st172{fill:url(#SVGID_00000084515539430928568730000008401532850048523683_);}
	.st173{fill:url(#SVGID_00000145742250727864907670000017152239866346674829_);}
	.st174{fill:url(#SVGID_00000047044626732577733770000007212843863573202605_);}
	.st175{fill:url(#SVGID_00000034769413124910914300000005115741615107803819_);}
	.st176{fill:url(#SVGID_00000156588917846053043890000017768642766209312675_);}
	.st177{fill:url(#SVGID_00000082329399690466891360000014240489921478349238_);}
	.st178{fill:url(#SVGID_00000148620852713861054660000002980220592345577892_);}
	.st179{fill:url(#SVGID_00000159433447903315151040000006405902316407660963_);}
	.st180{fill:url(#SVGID_00000114048802478487065470000010744667419625165734_);}
	.st181{fill:url(#SVGID_00000084518437500207397240000016882439226512362674_);}
	.st182{fill:url(#SVGID_00000162335465874906831850000016790834125169355160_);}
	.st183{fill:url(#SVGID_00000088114315328556287280000017687059551270280632_);}
	.st184{fill:url(#SVGID_00000171682594413038116460000008145857266971095179_);}
	.st185{fill:url(#SVGID_00000065075044204014747670000001908536817330411933_);}
	.st186{fill:url(#SVGID_00000007386218682900075070000013796471321350697902_);}
	.st187{fill:url(#SVGID_00000013191561139281313480000000394555870040602548_);}
	.st188{fill:url(#SVGID_00000153685223101606787560000001400895668722779014_);}
	.st189{fill:url(#SVGID_00000012464696394177786760000005405939372299803048_);}
	.st190{fill:url(#SVGID_00000047782251495938453840000016830422004156979617_);}
	.st191{fill:url(#SVGID_00000155145204310663845750000008279920035599140258_);}
	.st192{fill:url(#SVGID_00000006672724463968358380000002410426715889650357_);}
	.st193{fill:url(#SVGID_00000152226647253591318370000018088001193524199331_);}
	.st194{fill:url(#SVGID_00000012463667444225119030000016855316728175582093_);}
	.st195{fill:url(#SVGID_00000147916311810971551980000007466876223711722394_);}
	.st196{fill:url(#SVGID_00000026858834125677970420000002942151123411453058_);}
	.st197{fill:url(#SVGID_00000085232698137551991710000003441441211662970292_);}
	.st198{fill:url(#SVGID_00000057122912030014048080000010037873636859065528_);}
	.st199{fill:url(#SVGID_00000152221903203180940940000016154495212184815524_);}
	.st200{fill:url(#SVGID_00000089560695317975440380000015017329068730232450_);}
	.st201{fill:url(#SVGID_00000031177029088895129940000013582126858912897684_);}
	.st202{fill:url(#SVGID_00000107582542510777474460000013147800311477221010_);}
	.st203{fill:url(#SVGID_00000132801029936916398150000012805421963398946460_);}
	.st204{fill:url(#SVGID_00000171721363988402848020000009063396545866303407_);}
	.st205{fill:url(#SVGID_00000137846559048535555110000017283405229840062081_);}
	.st206{fill:url(#SVGID_00000133529817525442396090000003142727513892008382_);}
	.st207{fill:url(#SVGID_00000043424956380910388930000012746575423693804165_);}
	.st208{fill:url(#SVGID_00000150819431569627362600000016201841394318405308_);}
	.st209{fill:url(#SVGID_00000109031307475555955640000008835761388524719797_);}
	.st210{fill:url(#SVGID_00000170993138055135294110000000349070181608242312_);}
	.st211{fill:url(#SVGID_00000060725367969201539240000008007158597218451599_);}
	.st212{fill:url(#SVGID_00000170977924729270684340000006820037261441734019_);}
	.st213{fill:url(#SVGID_00000089548371563372006090000016643294549956173240_);}
	.st214{fill:url(#SVGID_00000156569583406930667080000001232583041620040125_);}
	.st215{fill:url(#SVGID_00000126325882465326091800000013727931240211817885_);}
	.st216{fill:url(#SVGID_00000000916615747678414210000002237163266399091113_);}
	.st217{fill:url(#SVGID_00000047768736377074799790000007457097013444833413_);}
	.st218{fill:url(#SVGID_00000124862882213056111450000012234994001385546896_);}
	.st219{fill:url(#SVGID_00000075853499578105344520000017112184546278419103_);}
	.st220{fill:url(#SVGID_00000121259447783016946480000013456769410689098382_);}
	.st221{fill:url(#SVGID_00000077310982026127634910000017474885452907754888_);}
	.st222{fill:url(#SVGID_00000042001661392457091780000009322210105612518533_);}
	.st223{fill:url(#SVGID_00000089543113160779971980000014607099828970510752_);}
	.st224{fill:url(#SVGID_00000072971026372649223690000013713257088380948101_);}
	.st225{fill:url(#SVGID_00000129175913052654459850000007592589569753872024_);}
	.st226{fill:url(#SVGID_00000142176390521420243570000008067426227534189206_);}
	.st227{fill:url(#SVGID_00000162341592550705637190000011341375699918192556_);}
	.st228{fill:url(#SVGID_00000167394609030618941890000003498584216454842282_);}
</style>
<g>
	<linearGradient id="SVGID_1_" gradientUnits="userSpaceOnUse" x1="100.4786" y1="96.5184" x2="22.9716" y2="33.8532">
		<stop  offset="0.4" style="stop-color:#F39800"/>
		<stop  offset="0.9039" style="stop-color:#C42D1B"/>
	</linearGradient>
	<path class="st0" d="M20.13,85.15c-0.2,0-0.4-0.08-0.54-0.22c-0.14-0.14-0.22-0.34-0.22-0.54V72.53c0-0.42,0.34-0.77,0.77-0.77
		h4.35v-4.35c0-0.42,0.34-0.77,0.77-0.77h4.35v-4.35c0-0.42,0.34-0.77,0.77-0.77h4.35v-4.35c0-0.2,0.08-0.4,0.22-0.54l2.97-2.97
		c-1.43-3.23-2.16-6.67-2.16-10.24c0-13.97,11.36-25.34,25.34-25.34s25.34,11.36,25.34,25.34S75.06,68.76,61.09,68.76
		c-3.14,0-6.21-0.57-9.12-1.7L34.11,84.91c-0.14,0.14-0.34,0.22-0.54,0.22L20.13,85.15C20.13,85.15,20.13,85.15,20.13,85.15z
		 M20.9,73.3v10.32l12.35-0.01l17.98-17.98c0.22-0.22,0.55-0.28,0.83-0.17c2.87,1.18,5.91,1.78,9.02,1.78
		c13.12,0,23.8-10.68,23.8-23.8s-10.68-23.8-23.8-23.8s-23.8,10.68-23.8,23.8c0,3.52,0.75,6.91,2.24,10.08
		c0.14,0.29,0.08,0.64-0.15,0.87l-3.12,3.12v4.8c0,0.42-0.34,0.77-0.77,0.77h-4.35v4.35c0,0.42-0.34,0.77-0.77,0.77h-4.35v4.35
		c0,0.42-0.34,0.77-0.77,0.77H20.9z"/>
	
		<linearGradient id="SVGID_00000141447095388704884560000007916405795844957361_" gradientUnits="userSpaceOnUse" x1="91.6094" y1="107.4882" x2="14.1024" y2="44.823">
		<stop  offset="0.4" style="stop-color:#F39800"/>
		<stop  offset="0.9039" style="stop-color:#C42D1B"/>
	</linearGradient>
	<path style="fill:url(#SVGID_00000141447095388704884560000007916405795844957361_);" d="M36.95,75.62c-0.2,0-0.39-0.07-0.54-0.22
		c-0.3-0.3-0.3-0.79,0-1.09l12.78-12.78c0.3-0.3,0.79-0.3,1.09,0s0.3,0.79,0,1.09L37.49,75.39C37.34,75.54,37.14,75.62,36.95,75.62z
		"/>
	
		<linearGradient id="SVGID_00000091712474989029667130000007212612154892039333_" gradientUnits="userSpaceOnUse" x1="82.2697" y1="119.0399" x2="4.7627" y2="56.3747">
		<stop  offset="0.4" style="stop-color:#F39800"/>
		<stop  offset="0.9039" style="stop-color:#C42D1B"/>
	</linearGradient>
	<path style="fill:url(#SVGID_00000091712474989029667130000007212612154892039333_);" d="M31.52,81.04c-0.2,0-0.39-0.08-0.54-0.22
		c-0.3-0.3-0.3-0.79,0-1.09l2.51-2.51c0.3-0.3,0.79-0.3,1.09,0c0.3,0.3,0.3,0.79,0,1.09l-2.51,2.51
		C31.92,80.97,31.72,81.04,31.52,81.04z"/>
	
		<linearGradient id="SVGID_00000029755814662514717990000012812802212978284179_" gradientUnits="userSpaceOnUse" x1="110.8645" y1="83.6727" x2="33.3575" y2="21.0075">
		<stop  offset="0.4" style="stop-color:#F39800"/>
		<stop  offset="0.9039" style="stop-color:#C42D1B"/>
	</linearGradient>
	<path style="fill:url(#SVGID_00000029755814662514717990000012812802212978284179_);" d="M61.09,61.6
		c-10.02,0-18.17-8.15-18.17-18.17s8.15-18.17,18.17-18.17s18.17,8.15,18.17,18.17S71.11,61.6,61.09,61.6z M61.09,26.79
		c-9.17,0-16.63,7.46-16.63,16.63s7.46,16.63,16.63,16.63s16.63-7.46,16.63-16.63S70.26,26.79,61.09,26.79z"/>
	
		<linearGradient id="SVGID_00000104681877203035938680000000118576689185834628_" gradientUnits="userSpaceOnUse" x1="108.5754" y1="86.5039" x2="31.0684" y2="23.8387">
		<stop  offset="0.4" style="stop-color:#F39800"/>
		<stop  offset="0.9039" style="stop-color:#C42D1B"/>
	</linearGradient>
	<path style="fill:url(#SVGID_00000104681877203035938680000000118576689185834628_);" d="M70.86,48.2l-4.32-1.13
		c-0.83-0.44-1.43-1.21-1.63-2.07c1.77-1.43,2.93-3.83,2.93-6.54c0-4.11-2.77-6.98-6.74-6.98c-3.97,0-6.74,2.87-6.74,6.98
		c0,2.71,1.16,5.11,2.93,6.54c-0.19,0.89-0.78,1.64-1.63,2.07l-4.33,1.14c-2.02,0.53-3.43,2.36-3.43,4.44v2.95
		c0,0.2,0.08,0.39,0.22,0.54c3.45,3.52,8.06,5.47,12.98,5.47c0,0,0,0,0,0c0,0,0,0,0,0c0,0,0,0,0,0c4.92,0,9.53-1.94,12.98-5.47
		c0.14-0.14,0.22-0.34,0.22-0.54v-2.95C74.29,50.56,72.88,48.73,70.86,48.2z M55.88,38.46c0-3.26,2.09-5.45,5.21-5.45
		c3.11,0,5.21,2.19,5.21,5.45c0,1.83-0.63,3.47-1.63,4.64c-0.42,0.49-0.9,0.89-1.43,1.18c-0.66,0.37-1.38,0.58-2.15,0.58
		c-0.77,0-1.49-0.21-2.15-0.57c-0.53-0.3-1.02-0.7-1.43-1.19C56.51,41.93,55.88,40.28,55.88,38.46z M60.32,60.03
		c-4.11-0.19-7.94-1.84-10.9-4.75v-2.64c0-1.39,0.94-2.6,2.28-2.96l3.7-0.97c0.82,1.73,3.63,3.08,4.91,3.62V60.03z M57.11,48.55
		c-0.12-0.13-0.22-0.26-0.29-0.39c0.47-0.31,0.86-0.7,1.18-1.14c0.26-0.36,0.45-0.76,0.6-1.18c0.77,0.36,1.6,0.56,2.48,0.56
		c0.87,0,1.7-0.2,2.47-0.56c0.16,0.42,0.37,0.81,0.64,1.18c0.32,0.43,0.7,0.83,1.16,1.14c-0.07,0.13-0.17,0.26-0.29,0.4
		c-0.78,0.88-2.57,1.87-3.98,2.44C59.68,50.41,57.9,49.43,57.11,48.55z M72.75,55.28c-2.95,2.91-6.78,4.56-10.89,4.75v-7.69
		c1.29-0.54,4.1-1.88,4.92-3.62l3.7,0.97c1.34,0.35,2.28,1.57,2.28,2.96V55.28z"/>
	
		<linearGradient id="SVGID_00000128450849086419270620000001356284811697395127_" gradientUnits="userSpaceOnUse" x1="92.4731" y1="106.4199" x2="14.9661" y2="43.7547">
		<stop  offset="0.4" style="stop-color:#F39800"/>
		<stop  offset="0.9039" style="stop-color:#C42D1B"/>
	</linearGradient>
	<path style="fill:url(#SVGID_00000128450849086419270620000001356284811697395127_);" d="M26.67,53.41h-1.42
		c-0.42,0-0.77-0.34-0.77-0.77c0-0.42,0.34-0.77,0.77-0.77h1.42c0.42,0,0.77,0.34,0.77,0.77C27.44,53.07,27.09,53.41,26.67,53.41z"
		/>
	
		<linearGradient id="SVGID_00000177485310668871457910000002787299336705926810_" gradientUnits="userSpaceOnUse" x1="94.3408" y1="104.1099" x2="16.8338" y2="41.4447">
		<stop  offset="0.4" style="stop-color:#F39800"/>
		<stop  offset="0.9039" style="stop-color:#C42D1B"/>
	</linearGradient>
	<path style="fill:url(#SVGID_00000177485310668871457910000002787299336705926810_);" d="M31.39,53.41h-1.42
		c-0.42,0-0.77-0.34-0.77-0.77c0-0.42,0.34-0.77,0.77-0.77h1.42c0.42,0,0.77,0.34,0.77,0.77C32.16,53.07,31.82,53.41,31.39,53.41z"
		/>
	
		<linearGradient id="SVGID_00000072968465034745301750000009215702046338875024_" gradientUnits="userSpaceOnUse" x1="92.2517" y1="106.6937" x2="14.7447" y2="44.0285">
		<stop  offset="0.4" style="stop-color:#F39800"/>
		<stop  offset="0.9039" style="stop-color:#C42D1B"/>
	</linearGradient>
	<path style="fill:url(#SVGID_00000072968465034745301750000009215702046338875024_);" d="M28.32,56.48c-0.42,0-0.77-0.34-0.77-0.77
		V54.3c0-0.42,0.34-0.77,0.77-0.77s0.77,0.34,0.77,0.77v1.42C29.09,56.14,28.75,56.48,28.32,56.48z"/>
	
		<linearGradient id="SVGID_00000018936879309160198760000001353525696903365283_" gradientUnits="userSpaceOnUse" x1="94.5617" y1="103.8366" x2="17.0548" y2="41.1714">
		<stop  offset="0.4" style="stop-color:#F39800"/>
		<stop  offset="0.9039" style="stop-color:#C42D1B"/>
	</linearGradient>
	<path style="fill:url(#SVGID_00000018936879309160198760000001353525696903365283_);" d="M28.32,51.76c-0.42,0-0.77-0.34-0.77-0.77
		v-1.42c0-0.42,0.34-0.77,0.77-0.77s0.77,0.34,0.77,0.77v1.42C29.09,51.41,28.75,51.76,28.32,51.76z"/>
	
		<linearGradient id="SVGID_00000039107057717547018500000014338126134728706968_" gradientUnits="userSpaceOnUse" x1="93.41" y1="105.2611" x2="15.9031" y2="42.5958">
		<stop  offset="0.4" style="stop-color:#F39800"/>
		<stop  offset="0.9039" style="stop-color:#C42D1B"/>
	</linearGradient>
	<path style="fill:url(#SVGID_00000039107057717547018500000014338126134728706968_);" d="M59.43,77.98h-1.42
		c-0.42,0-0.77-0.34-0.77-0.77c0-0.42,0.34-0.77,0.77-0.77h1.42c0.42,0,0.77,0.34,0.77,0.77C60.2,77.64,59.85,77.98,59.43,77.98z"/>
	
		<linearGradient id="SVGID_00000013891725973080598090000017375046552556539551_" gradientUnits="userSpaceOnUse" x1="95.2777" y1="102.951" x2="17.7708" y2="40.2858">
		<stop  offset="0.4" style="stop-color:#F39800"/>
		<stop  offset="0.9039" style="stop-color:#C42D1B"/>
	</linearGradient>
	<path style="fill:url(#SVGID_00000013891725973080598090000017375046552556539551_);" d="M64.15,77.98h-1.42
		c-0.42,0-0.77-0.34-0.77-0.77c0-0.42,0.34-0.77,0.77-0.77h1.42c0.42,0,0.77,0.34,0.77,0.77C64.92,77.64,64.58,77.98,64.15,77.98z"
		/>
	
		<linearGradient id="SVGID_00000051356909322456828470000008638440180044691841_" gradientUnits="userSpaceOnUse" x1="93.1891" y1="105.5343" x2="15.6821" y2="42.8691">
		<stop  offset="0.4" style="stop-color:#F39800"/>
		<stop  offset="0.9039" style="stop-color:#C42D1B"/>
	</linearGradient>
	<path style="fill:url(#SVGID_00000051356909322456828470000008638440180044691841_);" d="M61.08,81.05c-0.42,0-0.77-0.34-0.77-0.77
		v-1.42c0-0.42,0.34-0.77,0.77-0.77c0.42,0,0.77,0.34,0.77,0.77v1.42C61.85,80.71,61.51,81.05,61.08,81.05z"/>
	
		<linearGradient id="SVGID_00000133512056878910526930000002614893921647725242_" gradientUnits="userSpaceOnUse" x1="95.4989" y1="102.6775" x2="17.9919" y2="40.0123">
		<stop  offset="0.4" style="stop-color:#F39800"/>
		<stop  offset="0.9039" style="stop-color:#C42D1B"/>
	</linearGradient>
	<path style="fill:url(#SVGID_00000133512056878910526930000002614893921647725242_);" d="M61.08,76.33c-0.42,0-0.77-0.34-0.77-0.77
		v-1.42c0-0.42,0.34-0.77,0.77-0.77c0.42,0,0.77,0.34,0.77,0.77v1.42C61.85,75.98,61.51,76.33,61.08,76.33z"/>
	
		<linearGradient id="SVGID_00000018239105487483410820000016124929757161926789_" gradientUnits="userSpaceOnUse" x1="104.6027" y1="91.4175" x2="27.0958" y2="28.7523">
		<stop  offset="0.4" style="stop-color:#F39800"/>
		<stop  offset="0.9039" style="stop-color:#C42D1B"/>
	</linearGradient>
	<path style="fill:url(#SVGID_00000018239105487483410820000016124929757161926789_);" d="M78.88,70.82h-1.42
		c-0.42,0-0.77-0.34-0.77-0.77c0-0.42,0.34-0.77,0.77-0.77h1.42c0.42,0,0.77,0.34,0.77,0.77C79.65,70.47,79.3,70.82,78.88,70.82z"/>
	
		<linearGradient id="SVGID_00000165226722283569624220000004747002536888363450_" gradientUnits="userSpaceOnUse" x1="106.4704" y1="89.1074" x2="28.9634" y2="26.4422">
		<stop  offset="0.4" style="stop-color:#F39800"/>
		<stop  offset="0.9039" style="stop-color:#C42D1B"/>
	</linearGradient>
	<path style="fill:url(#SVGID_00000165226722283569624220000004747002536888363450_);" d="M83.61,70.82h-1.42
		c-0.42,0-0.77-0.34-0.77-0.77c0-0.42,0.34-0.77,0.77-0.77h1.42c0.42,0,0.77,0.34,0.77,0.77C84.37,70.47,84.03,70.82,83.61,70.82z"
		/>
	
		<linearGradient id="SVGID_00000139268772366422187520000002996628167858660534_" gradientUnits="userSpaceOnUse" x1="104.3818" y1="91.6908" x2="26.8748" y2="29.0255">
		<stop  offset="0.4" style="stop-color:#F39800"/>
		<stop  offset="0.9039" style="stop-color:#C42D1B"/>
	</linearGradient>
	<path style="fill:url(#SVGID_00000139268772366422187520000002996628167858660534_);" d="M80.53,73.89c-0.42,0-0.77-0.34-0.77-0.77
		V71.7c0-0.42,0.34-0.77,0.77-0.77c0.42,0,0.77,0.34,0.77,0.77v1.42C81.3,73.54,80.96,73.89,80.53,73.89z"/>
	
		<linearGradient id="SVGID_00000021093797430952643410000016142090874074694559_" gradientUnits="userSpaceOnUse" x1="106.6916" y1="88.8339" x2="29.1846" y2="26.1687">
		<stop  offset="0.4" style="stop-color:#F39800"/>
		<stop  offset="0.9039" style="stop-color:#C42D1B"/>
	</linearGradient>
	<path style="fill:url(#SVGID_00000021093797430952643410000016142090874074694559_);" d="M80.53,69.16c-0.42,0-0.77-0.34-0.77-0.77
		v-1.42c0-0.42,0.34-0.77,0.77-0.77c0.42,0,0.77,0.34,0.77,0.77v1.42C81.3,68.82,80.96,69.16,80.53,69.16z"/>
	
		<linearGradient id="SVGID_00000006696591699840802610000005737510252894356656_" gradientUnits="userSpaceOnUse" x1="96.456" y1="101.4937" x2="18.9491" y2="38.8284">
		<stop  offset="0.4" style="stop-color:#F39800"/>
		<stop  offset="0.9039" style="stop-color:#C42D1B"/>
	</linearGradient>
	<path style="fill:url(#SVGID_00000006696591699840802610000005737510252894356656_);" d="M21.55,41.13h-1.42
		c-0.42,0-0.77-0.34-0.77-0.77c0-0.42,0.34-0.77,0.77-0.77h1.42c0.42,0,0.77,0.34,0.77,0.77C22.32,40.78,21.97,41.13,21.55,41.13z"
		/>
	
		<linearGradient id="SVGID_00000047024318342788999740000012005749278364276367_" gradientUnits="userSpaceOnUse" x1="98.3235" y1="99.1839" x2="20.8166" y2="36.5186">
		<stop  offset="0.4" style="stop-color:#F39800"/>
		<stop  offset="0.9039" style="stop-color:#C42D1B"/>
	</linearGradient>
	<path style="fill:url(#SVGID_00000047024318342788999740000012005749278364276367_);" d="M26.28,41.13h-1.42
		c-0.42,0-0.77-0.34-0.77-0.77c0-0.42,0.34-0.77,0.77-0.77h1.42c0.42,0,0.77,0.34,0.77,0.77C27.04,40.78,26.7,41.13,26.28,41.13z"/>
	
		<linearGradient id="SVGID_00000102531103836734528840000012777625019933360521_" gradientUnits="userSpaceOnUse" x1="96.2349" y1="101.7672" x2="18.7279" y2="39.102">
		<stop  offset="0.4" style="stop-color:#F39800"/>
		<stop  offset="0.9039" style="stop-color:#C42D1B"/>
	</linearGradient>
	<path style="fill:url(#SVGID_00000102531103836734528840000012777625019933360521_);" d="M23.2,44.2c-0.42,0-0.77-0.34-0.77-0.77
		v-1.42c0-0.42,0.34-0.77,0.77-0.77s0.77,0.34,0.77,0.77v1.42C23.97,43.85,23.63,44.2,23.2,44.2z"/>
	
		<linearGradient id="SVGID_00000091697831783718607470000004928273641317171356_" gradientUnits="userSpaceOnUse" x1="98.5447" y1="98.9103" x2="21.0377" y2="36.2451">
		<stop  offset="0.4" style="stop-color:#F39800"/>
		<stop  offset="0.9039" style="stop-color:#C42D1B"/>
	</linearGradient>
	<path style="fill:url(#SVGID_00000091697831783718607470000004928273641317171356_);" d="M23.2,39.47c-0.42,0-0.77-0.34-0.77-0.77
		v-1.42c0-0.42,0.34-0.77,0.77-0.77s0.77,0.34,0.77,0.77v1.42C23.97,39.13,23.63,39.47,23.2,39.47z"/>
	
		<linearGradient id="SVGID_00000181077094867394693780000007622468834430556033_" gradientUnits="userSpaceOnUse" x1="110.7262" y1="83.8437" x2="33.2192" y2="21.1785">
		<stop  offset="0.4" style="stop-color:#F39800"/>
		<stop  offset="0.9039" style="stop-color:#C42D1B"/>
	</linearGradient>
	<path style="fill:url(#SVGID_00000181077094867394693780000007622468834430556033_);" d="M34.86,22.7h-1.42
		c-0.42,0-0.77-0.34-0.77-0.77s0.34-0.77,0.77-0.77h1.42c0.42,0,0.77,0.34,0.77,0.77S35.28,22.7,34.86,22.7z"/>
	
		<linearGradient id="SVGID_00000076563754596797403060000014490931028407947171_" gradientUnits="userSpaceOnUse" x1="112.5937" y1="81.534" x2="35.0867" y2="18.8687">
		<stop  offset="0.4" style="stop-color:#F39800"/>
		<stop  offset="0.9039" style="stop-color:#C42D1B"/>
	</linearGradient>
	<path style="fill:url(#SVGID_00000076563754596797403060000014490931028407947171_);" d="M39.58,22.7h-1.42
		c-0.42,0-0.77-0.34-0.77-0.77s0.34-0.77,0.77-0.77h1.42c0.42,0,0.77,0.34,0.77,0.77S40.01,22.7,39.58,22.7z"/>
	
		<linearGradient id="SVGID_00000142892225756657749350000017681675515152148925_" gradientUnits="userSpaceOnUse" x1="110.5048" y1="84.1176" x2="32.9978" y2="21.4523">
		<stop  offset="0.4" style="stop-color:#F39800"/>
		<stop  offset="0.9039" style="stop-color:#C42D1B"/>
	</linearGradient>
	<path style="fill:url(#SVGID_00000142892225756657749350000017681675515152148925_);" d="M36.51,25.77c-0.42,0-0.77-0.34-0.77-0.77
		v-1.42c0-0.42,0.34-0.77,0.77-0.77c0.42,0,0.77,0.34,0.77,0.77V25C37.28,25.43,36.94,25.77,36.51,25.77z"/>
	
		<linearGradient id="SVGID_00000003812493590288276140000011302693793846243770_" gradientUnits="userSpaceOnUse" x1="112.8148" y1="81.2604" x2="35.3078" y2="18.5952">
		<stop  offset="0.4" style="stop-color:#F39800"/>
		<stop  offset="0.9039" style="stop-color:#C42D1B"/>
	</linearGradient>
	<path style="fill:url(#SVGID_00000003812493590288276140000011302693793846243770_);" d="M36.51,21.05c-0.42,0-0.77-0.34-0.77-0.77
		v-1.42c0-0.42,0.34-0.77,0.77-0.77c0.42,0,0.77,0.34,0.77,0.77v1.42C37.28,20.7,36.94,21.05,36.51,21.05z"/>
</g>
</svg>
