<?xml version="1.0" encoding="utf-8"?>
<!-- Generator: Adobe Illustrator 26.5.0, SVG Export Plug-In . SVG Version: 6.00 Build 0)  -->
<svg version="1.1" id="圖層_1" xmlns="http://www.w3.org/2000/svg" xmlns:xlink="http://www.w3.org/1999/xlink" x="0px" y="0px"
	 viewBox="0 0 100 100" style="enable-background:new 0 0 100 100;" xml:space="preserve">
<style type="text/css">
	.st0{fill:url(#SVGID_1_);}
	.st1{fill:url(#SVGID_00000110435705911369812750000003449289053516635816_);}
	.st2{fill:url(#SVGID_00000142885891878321182900000010336836768878950797_);}
	.st3{fill:url(#SVGID_00000074420728712396900660000010608437900274623167_);}
	.st4{fill:url(#SVGID_00000075124571737219820690000009455334376540127393_);}
	.st5{fill:url(#SVGID_00000170992750267143040380000017484807975979429284_);}
	.st6{fill:url(#SVGID_00000075855652951005112070000009067631199691135927_);}
	.st7{fill:url(#SVGID_00000000224747835106678330000014323149650447364501_);}
	.st8{fill:url(#SVGID_00000092436373741313723890000001584494948875467711_);}
	.st9{fill:url(#SVGID_00000139275722442183487580000007249071335056958346_);}
	.st10{fill:url(#SVGID_00000059990646764677218490000001291850606716530826_);}
	.st11{fill:url(#SVGID_00000148636312900427573710000001788922794361838486_);}
	.st12{fill:url(#SVGID_00000066488794475624743200000007789803295934706335_);}
	.st13{fill:url(#SVGID_00000055679621575439550510000008374311255514224017_);}
	.st14{fill:url(#SVGID_00000013873209921023257380000013362553353604531637_);}
	.st15{fill:url(#SVGID_00000181085252559605177190000018251755166106238393_);}
	.st16{fill:url(#SVGID_00000170254204027155553210000006780126048273675709_);}
	.st17{fill:url(#SVGID_00000134963740739617060580000003677510480428302988_);}
	.st18{fill:url(#SVGID_00000138551686487456852480000012882001269108706490_);}
	.st19{fill:url(#SVGID_00000031928213597680738430000008517959771181915286_);}
	.st20{fill:url(#SVGID_00000116928534389072491670000014282895291871477912_);}
	.st21{fill:url(#SVGID_00000098935453694665110050000002842588649362420406_);}
	.st22{fill:url(#SVGID_00000176033787879511734520000015830399681311212683_);}
	.st23{fill:url(#SVGID_00000066505881438804192620000002855582823025915571_);}
	.st24{fill:url(#SVGID_00000107556307045476909660000007357921266839192223_);}
	.st25{fill:url(#SVGID_00000113313003233054116410000013963088567249014451_);}
	.st26{fill:url(#SVGID_00000077289788196634948350000000553741418792072845_);}
	.st27{fill:url(#SVGID_00000139981122810265036370000000650721935692091067_);}
	.st28{fill:url(#SVGID_00000127039300762191287380000001661269681757038767_);}
	.st29{fill:url(#SVGID_00000173849083039620366500000015471978098953998776_);}
	.st30{fill:url(#SVGID_00000031929396949371116070000002694177312070990765_);}
	.st31{fill:url(#SVGID_00000039820594286545811640000013632074407628950940_);}
	.st32{fill:url(#SVGID_00000056427731272699455560000000904467026132286894_);}
	.st33{fill:url(#SVGID_00000163787538361949776260000003124911569734293412_);}
	.st34{fill:url(#SVGID_00000100381941944078590630000012182577146607641989_);}
	.st35{fill:url(#SVGID_00000088135338581125742370000009993615321381746855_);}
	.st36{fill:url(#SVGID_00000054262342800572109450000008639900929188390826_);}
	.st37{fill:url(#SVGID_00000106831837850803791840000012590960727632911006_);}
	.st38{fill:url(#SVGID_00000005225126345071794190000012200312190079465115_);}
	.st39{fill:url(#SVGID_00000124159413440877673530000004911204101554120892_);}
	.st40{fill:url(#SVGID_00000016064784087206140030000006045047387839191937_);}
	.st41{fill:url(#SVGID_00000030475817584967913630000017489235527378290365_);}
	.st42{fill:url(#SVGID_00000121257210873074052430000010066296338118687363_);}
	.st43{fill:url(#SVGID_00000083049120291209679860000012710477681825225613_);}
	.st44{fill:url(#SVGID_00000106142091168633291420000011207204040903764144_);}
	.st45{fill:url(#SVGID_00000101814950829126612500000007790434975552821430_);}
	.st46{fill:url(#SVGID_00000072239551583034254130000014304975546068421016_);}
	.st47{fill:url(#SVGID_00000082346494761359875770000015825378290384339093_);}
	.st48{fill:url(#SVGID_00000010302945026848905860000003358569248681775034_);}
	.st49{fill:url(#SVGID_00000166669512502267874300000017677694260198627464_);}
	.st50{fill:url(#SVGID_00000109006160549289527400000014472905579664840605_);}
	.st51{fill:url(#SVGID_00000156553879711429079130000011908282027562063274_);}
	.st52{fill:url(#SVGID_00000091014420282057417800000005229322979406018999_);}
	.st53{fill:url(#SVGID_00000060745946737080020600000008302773021570720150_);}
	.st54{fill:url(#SVGID_00000084503520598651871230000000445425609691407515_);}
	.st55{fill:url(#SVGID_00000041979380824496990170000013896567293338016912_);}
	.st56{fill:url(#SVGID_00000079477027653410606200000016467416972192713144_);}
	.st57{fill:url(#SVGID_00000047029044649860994260000004174444071871526291_);}
	.st58{fill:url(#SVGID_00000073694952194739933360000016506063378861963912_);}
	.st59{fill:url(#SVGID_00000032611081146889399720000001548614150989277601_);}
	.st60{fill:url(#SVGID_00000140728949804098206390000014256158034573796227_);}
	.st61{fill:url(#SVGID_00000056425155769406545490000003178991727936605627_);}
	.st62{fill:url(#SVGID_00000051359994999780174570000005112857036651384751_);}
	.st63{fill:url(#SVGID_00000080192114021185542900000005837341227790885053_);}
	.st64{fill:url(#SVGID_00000076572063634713903000000007889881103406399120_);}
	.st65{fill:url(#SVGID_00000037672344217879661400000007062093453821011626_);}
	.st66{fill:url(#SVGID_00000039114847223936084420000008077031522764041912_);}
	.st67{fill:url(#SVGID_00000005963102495995133280000010295894305717015707_);}
	.st68{fill:url(#SVGID_00000050639029785788735760000009644661660941922472_);}
	.st69{fill:url(#SVGID_00000160152770091924951400000010117473257707817913_);}
	.st70{fill:url(#SVGID_00000121248060293980258170000016456123698748988557_);}
	.st71{fill:url(#SVGID_00000138572794746904282760000009381328822043413641_);}
	.st72{fill:url(#SVGID_00000049941753999187437420000004032202563429770906_);}
	.st73{fill:url(#SVGID_00000046309054062208774300000003940894697264665492_);}
	.st74{fill:url(#SVGID_00000003788263145031911140000005217303170403535517_);}
	.st75{fill:url(#SVGID_00000075872759581046534170000009021922266917142188_);}
	.st76{fill:url(#SVGID_00000019643051487751556990000007888590540390497160_);}
	.st77{fill:url(#SVGID_00000167366607247825970250000000687060941289656974_);}
	.st78{fill:url(#SVGID_00000103266290935439618440000009318812791787615884_);}
	.st79{fill:url(#SVGID_00000172411060337087349320000011772060413210823576_);}
	.st80{fill:url(#SVGID_00000021805167039063072740000004597385046411691399_);}
	.st81{fill:url(#SVGID_00000048483554227695240380000016205764015451864239_);}
	.st82{fill:url(#SVGID_00000086694279785658908560000010012273033019260606_);}
	.st83{fill:url(#SVGID_00000150817627770500432360000007972997102373458322_);}
	.st84{fill:url(#SVGID_00000168812760587638086710000012527539608998224549_);}
	.st85{fill:url(#SVGID_00000180325932830998756350000010646299729932998023_);}
	.st86{fill:url(#SVGID_00000018957401298227035050000006830037829168945598_);}
	.st87{fill:url(#SVGID_00000131329222843631970310000015771061141679786140_);}
	.st88{fill:url(#SVGID_00000098213983582031517880000000419352768644413109_);}
	.st89{fill:url(#SVGID_00000144337822684292924280000006407208016751137983_);}
	.st90{fill:url(#SVGID_00000023988087261209330530000001277921743136554135_);}
	.st91{fill:url(#SVGID_00000153703270719100699990000000770738508811326120_);}
	.st92{fill:url(#SVGID_00000134223420035372126030000009770808604458345913_);}
	.st93{fill:url(#SVGID_00000117672074036757961800000014600404924400240550_);}
	.st94{fill:url(#SVGID_00000078745717846429897410000012850582951357575555_);}
	.st95{fill:url(#SVGID_00000075158685351108271410000003959980717695297699_);}
	.st96{fill:url(#SVGID_00000114757392717093864800000005551830601221533110_);}
	.st97{fill:url(#SVGID_00000153671466936225646500000004383717457140808589_);}
	.st98{fill:url(#SVGID_00000124850442348248586600000004219030304418725818_);}
	.st99{fill:url(#SVGID_00000093162594220208703230000014227291325983099529_);}
	.st100{fill:url(#SVGID_00000120537256580782294720000017299186050342942903_);}
	.st101{fill:url(#SVGID_00000083807560441843824630000002813726524236390305_);}
	.st102{fill:url(#SVGID_00000093154042804567402760000001061874309369432253_);}
	.st103{fill:url(#SVGID_00000054242677349231293010000002362253206913652106_);}
	.st104{fill:url(#SVGID_00000001665538636438094080000009068572908845819828_);}
	.st105{fill:url(#SVGID_00000173849315298228307730000013207323226514720697_);}
	.st106{fill:url(#SVGID_00000096057124652388990310000017269105213379763104_);}
	.st107{fill:url(#SVGID_00000156545961852969948910000008301381077159375242_);}
	.st108{fill:url(#SVGID_00000129888495877049861280000012128978487483889568_);}
	.st109{fill:url(#SVGID_00000015342562335867898650000002863135735171285927_);}
	.st110{fill:url(#SVGID_00000062184793468983859160000002863734601579463835_);}
	.st111{fill:url(#SVGID_00000078040162491888828080000012165866086810729359_);}
	.st112{fill:url(#SVGID_00000012429965688940029470000001209323178418319541_);}
	.st113{fill:url(#SVGID_00000052811956901773449450000018442151421942549633_);}
	.st114{fill:url(#SVGID_00000044879578252176331160000004756897599058901396_);}
	.st115{fill:url(#SVGID_00000158023998568966947510000009671659147640928902_);}
	.st116{fill:url(#SVGID_00000169533412696894233250000005487495053518802872_);}
	.st117{fill:url(#SVGID_00000132780323049452463420000002585890010257042622_);}
	.st118{fill:url(#SVGID_00000150795323380029569260000017417103103207869833_);}
	.st119{fill:url(#SVGID_00000135652342046208610880000017351126877385277831_);}
	.st120{fill:url(#SVGID_00000039833797654784225160000013532242424382050957_);}
	.st121{fill:url(#SVGID_00000132046129613987229020000010407783557455424160_);}
	.st122{fill:url(#SVGID_00000064352010416844821010000003567688450091755188_);}
	.st123{fill:url(#SVGID_00000085950962217534597620000010269828886641477279_);}
	.st124{fill:url(#SVGID_00000143586333094125743550000011347213043339710874_);}
	.st125{fill:url(#SVGID_00000057109220430496776200000011483236306773995919_);}
	.st126{fill:url(#SVGID_00000016786824524654463790000016241644269726077608_);}
	.st127{fill:#2C4F80;}
	.st128{fill:url(#SVGID_00000155114296761197302640000007425760839442469019_);}
	.st129{fill:url(#SVGID_00000155825513191820160100000006006835878111413176_);}
	.st130{fill:url(#SVGID_00000063594630068979945360000014650123656650195330_);}
	.st131{fill:url(#SVGID_00000027581851423946723480000003881025577191234971_);}
	.st132{fill:url(#SVGID_00000132796183039364121180000006411647809484252567_);}
	.st133{fill:url(#SVGID_00000119838091643302882340000016567734518855421824_);}
	.st134{fill:url(#SVGID_00000099625633703719082590000012964872457934865814_);}
	.st135{fill:url(#SVGID_00000052097717805756343870000012485775175120550568_);}
	.st136{fill:url(#SVGID_00000164499018605845964850000010464930476801797786_);}
	.st137{fill:url(#SVGID_00000031897698635912707590000003612439385862455212_);}
	.st138{fill:url(#SVGID_00000101782068266285127660000006290875724397264270_);}
	.st139{fill:url(#SVGID_00000063618539922252801830000004370072011703253123_);}
	.st140{fill:url(#SVGID_00000042715550309876297130000006456059540924435375_);}
	.st141{fill:url(#SVGID_00000167387457561519847960000001031154933633208998_);}
	.st142{fill:url(#SVGID_00000140736147937327332880000003341842908399315846_);}
	.st143{fill:url(#SVGID_00000166668089063200124320000005911578122124568250_);}
	.st144{fill:url(#SVGID_00000029730407738199430620000011522621524080556163_);}
	.st145{fill:url(#SVGID_00000142888499862526438510000005499391793775597189_);}
	.st146{fill:url(#SVGID_00000059302017187074071050000004740314756639251095_);}
	.st147{fill:url(#SVGID_00000148650732689560474330000012281885580372520104_);}
	.st148{fill:url(#SVGID_00000042005521387741147210000008239371305786837902_);}
	.st149{fill:url(#SVGID_00000039847605791944757530000001181410552378551738_);}
	.st150{fill:url(#SVGID_00000154389281537660231510000014368897591200367753_);}
	.st151{fill:url(#SVGID_00000057136178589803702620000007167912901293928618_);}
	.st152{fill:url(#SVGID_00000108279533952644808620000012002079941343280776_);}
	.st153{fill:url(#SVGID_00000116228727337594656240000004914747016447722146_);}
	.st154{fill:url(#SVGID_00000013881945035988459030000008407116049327277224_);}
	.st155{fill:url(#SVGID_00000113342901802671146900000002645825899497514891_);}
	.st156{fill:url(#SVGID_00000052791550196247469140000014449996572362550926_);}
	.st157{fill:url(#SVGID_00000140015528496455897880000015992163701200557220_);}
	.st158{fill:url(#SVGID_00000052789501799640039160000012984279136515910535_);}
	.st159{fill:url(#SVGID_00000026850143729575014090000005395453622588230791_);}
	.st160{fill:url(#SVGID_00000071550138548564584620000017596178632459668872_);}
	.st161{fill:url(#SVGID_00000170984843093165009930000004183313795219050148_);}
	.st162{fill:url(#SVGID_00000183238495557531866830000001098588119515783824_);}
	.st163{fill:url(#SVGID_00000167361462032789074650000013964522167728146079_);}
	.st164{fill:url(#SVGID_00000145767635217358416440000017000468004549503640_);}
	.st165{fill:url(#SVGID_00000145759725317309276400000011985649233948284857_);}
	.st166{fill:url(#SVGID_00000051344691934836773510000006433762468107124876_);}
	.st167{fill:url(#SVGID_00000164485209336849945910000003980542650444563892_);}
	.st168{fill:url(#SVGID_00000016763338150717733570000003707763235772388249_);}
	.st169{fill:url(#SVGID_00000084514739247006342630000016075261516615526072_);}
	.st170{fill:url(#SVGID_00000132802104747663965710000013560704404274349701_);}
	.st171{fill:url(#SVGID_00000094589848284184191330000009628645171268980121_);}
	.st172{fill:url(#SVGID_00000093878424285779753070000008280485932277633212_);}
	.st173{fill:url(#SVGID_00000078748517943410159770000005660977831315560085_);}
	.st174{fill:url(#SVGID_00000183215602061779654510000015892553831315523768_);}
	.st175{fill:url(#SVGID_00000124861600683520449620000017885163738750284430_);}
	.st176{fill:url(#SVGID_00000052788827630030973050000006185634758200585356_);}
	.st177{fill:url(#SVGID_00000063591808296605376810000002721763796424753540_);}
	.st178{fill:url(#SVGID_00000181050774749489808410000017388918900666347415_);}
	.st179{fill:url(#SVGID_00000117660296874806813310000013299167522025479566_);}
	.st180{fill:url(#SVGID_00000057831759766091959120000014494104439118303116_);}
	.st181{fill:url(#SVGID_00000131361285297463251780000005518550817902752407_);}
	.st182{fill:url(#SVGID_00000024003268903325832270000007411029331912741514_);}
	.st183{fill:url(#SVGID_00000139990612362015530750000010664267802842182026_);}
	.st184{fill:url(#SVGID_00000157290676247240483390000009116384695473165247_);}
	.st185{fill:url(#SVGID_00000114768949612139288150000010081899934699004299_);}
	.st186{fill:url(#SVGID_00000048467133227323170950000004226909092720556689_);}
	.st187{fill:url(#SVGID_00000134243136648745537100000001458379992002745219_);}
	.st188{fill:url(#SVGID_00000061445492944447334240000016740491695571786142_);}
	.st189{fill:url(#SVGID_00000029030763024142434280000012957959784081665170_);}
	.st190{fill:url(#SVGID_00000068658716176158065940000009263110087792279220_);}
	.st191{fill:url(#SVGID_00000000201065130312511330000008739016239250437760_);}
	.st192{fill:url(#SVGID_00000022531040175670026730000014502412678063103669_);}
	.st193{fill:url(#SVGID_00000082340587701647272420000015334475900120521897_);}
	.st194{fill:url(#SVGID_00000113337968098506870500000011657369181042822073_);}
	.st195{fill:url(#SVGID_00000097476544326207990940000018313416071716085655_);}
	.st196{fill:url(#SVGID_00000006706288968591486120000008364732612134012583_);}
	.st197{fill:url(#SVGID_00000145026031642252986890000009938795863709759129_);}
	.st198{fill:url(#SVGID_00000092441399337525532330000001979764374089967496_);}
	.st199{fill:url(#SVGID_00000033354941389840912960000002083732433578274190_);}
	.st200{fill:url(#SVGID_00000014624103747561142010000016823244964219633587_);}
	.st201{fill:url(#SVGID_00000168820399346710486050000010293580781530663833_);}
	.st202{fill:url(#SVGID_00000179617757645359457670000006207747962327377833_);}
	.st203{fill:url(#SVGID_00000118393696212426076270000006344928672836318123_);}
	.st204{fill:url(#SVGID_00000025409328531265886300000010462550063571054517_);}
	.st205{fill:url(#SVGID_00000093879244759151285270000014728152010123966364_);}
	.st206{fill:url(#SVGID_00000044159898914368728580000012936692856564259217_);}
	.st207{fill:url(#SVGID_00000129904450454448573090000005540955045008165003_);}
	.st208{fill:url(#SVGID_00000145049995875057462510000009918929150697354396_);}
	.st209{fill:url(#SVGID_00000062153853275378232460000009774904836337818757_);}
	.st210{fill:url(#SVGID_00000103983710093894896260000008616491754180701608_);}
	.st211{fill:url(#SVGID_00000119828156221255104020000003120040942227463096_);}
	.st212{fill:url(#SVGID_00000054262906027380592680000007781234377086847166_);}
	.st213{fill:url(#SVGID_00000006696275576838284930000013533419031864363444_);}
	.st214{fill:url(#SVGID_00000026882668636129323750000001643205419552411799_);}
	.st215{fill:url(#SVGID_00000171714266512312776000000015532304447199418780_);}
	.st216{fill:url(#SVGID_00000029746978109849667820000007485235048059334043_);}
	.st217{fill:url(#SVGID_00000075131691614449960270000014983074615467463100_);}
	.st218{fill:url(#SVGID_00000084523785435607523280000017917253840779259021_);}
	.st219{fill:url(#SVGID_00000064322657263195269960000012352917407980546485_);}
	.st220{fill:url(#SVGID_00000052065548325501890740000014691549462212521093_);}
	.st221{fill:url(#SVGID_00000155838559805418707020000013307347067648891009_);}
	.st222{fill:url(#SVGID_00000182517384393634369530000014907236931885452679_);}
	.st223{fill:url(#SVGID_00000109712344585681098600000005604328831135277990_);}
	.st224{fill:url(#SVGID_00000152248988127103364790000007854671906031737223_);}
	.st225{fill:url(#SVGID_00000181806030326805095540000001969866402135509160_);}
	.st226{fill:url(#SVGID_00000111904074523744328390000015680142257160694676_);}
	.st227{fill:url(#SVGID_00000112596300655874009060000001159945147055558830_);}
	.st228{fill:url(#SVGID_00000088091630107712831540000017442126932381589947_);}
</style>
<g>
	<linearGradient id="SVGID_1_" gradientUnits="userSpaceOnUse" x1="86.1647" y1="69.5096" x2="25.626" y2="13.2007">
		<stop  offset="0.4" style="stop-color:#F39800"/>
		<stop  offset="0.9039" style="stop-color:#C42D1B"/>
	</linearGradient>
	<circle class="st0" cx="52.27" cy="37.99" r="1.8"/>
	
		<linearGradient id="SVGID_00000168823951167092726110000005434783108585914013_" gradientUnits="userSpaceOnUse" x1="75.7408" y1="80.7165" x2="15.2021" y2="24.4076">
		<stop  offset="0.4" style="stop-color:#F39800"/>
		<stop  offset="0.9039" style="stop-color:#C42D1B"/>
	</linearGradient>
	<circle style="fill:url(#SVGID_00000168823951167092726110000005434783108585914013_);" cx="29.8" cy="37.99" r="1.8"/>
	
		<linearGradient id="SVGID_00000176724476161011832540000016849957571028180136_" gradientUnits="userSpaceOnUse" x1="99.4334" y1="55.2442" x2="38.8947" y2="-1.0647">
		<stop  offset="0.4" style="stop-color:#F39800"/>
		<stop  offset="0.9039" style="stop-color:#C42D1B"/>
	</linearGradient>
	<path style="fill:url(#SVGID_00000176724476161011832540000016849957571028180136_);" d="M75.31,41.24c-0.19,0-0.37-0.07-0.51-0.21
		l-6.91-6.91c-0.21-0.21-0.27-0.52-0.16-0.79c0.11-0.27,0.38-0.45,0.67-0.45h3.02c-1.38-9.47-14.88-13.32-15.02-13.36
		c-0.35-0.1-0.57-0.44-0.53-0.8c0.05-0.36,0.36-0.63,0.72-0.63c8.68,0,15.03,2.08,18.86,6.2c3.1,3.33,3.61,7.01,3.68,8.58h3.1
		c0.29,0,0.56,0.18,0.67,0.45s0.05,0.58-0.16,0.79l-6.91,6.91C75.68,41.17,75.5,41.24,75.31,41.24z M70.15,34.32l5.16,5.16
		l5.16-5.16H78.4c-0.2,0-0.39-0.08-0.53-0.23c-0.14-0.15-0.21-0.34-0.19-0.55c0-0.04,0.25-4.48-3.31-8.29
		c-2.86-3.06-7.3-4.9-13.24-5.5c4.61,2.12,11.3,6.44,11.83,13.79c0.01,0.2-0.06,0.4-0.19,0.55c-0.14,0.15-0.33,0.23-0.53,0.23H70.15
		z"/>
	
		<linearGradient id="SVGID_00000054243863796772995170000001402368420070492065_" gradientUnits="userSpaceOnUse" x1="60.1796" y1="97.4466" x2="-0.359" y2="41.1377">
		<stop  offset="0.4" style="stop-color:#F39800"/>
		<stop  offset="0.9039" style="stop-color:#C42D1B"/>
	</linearGradient>
	<path style="fill:url(#SVGID_00000054243863796772995170000001402368420070492065_);" d="M45.92,81.48
		c-8.68,0-15.03-2.09-18.86-6.2c-3.1-3.33-3.61-7.01-3.68-8.58h-3.1c-0.29,0-0.56-0.18-0.67-0.45c-0.11-0.27-0.05-0.58,0.16-0.79
		l6.91-6.91c0.27-0.27,0.75-0.27,1.03,0l6.91,6.91c0.21,0.21,0.27,0.52,0.16,0.79c-0.11,0.27-0.38,0.45-0.67,0.45h-3.02
		c1.38,9.48,14.88,13.32,15.02,13.36c0.35,0.1,0.57,0.44,0.53,0.8C46.59,81.21,46.28,81.48,45.92,81.48z M22.04,65.25h2.07
		c0.2,0,0.39,0.08,0.53,0.23c0.14,0.15,0.21,0.34,0.19,0.54c0,0.04-0.25,4.48,3.31,8.29c2.86,3.06,7.3,4.9,13.24,5.5
		c-4.61-2.12-11.3-6.44-11.83-13.79c-0.01-0.2,0.06-0.4,0.19-0.55c0.14-0.15,0.33-0.23,0.53-0.23h2.07l-5.16-5.16L22.04,65.25z"/>
	
		<linearGradient id="SVGID_00000092422119355679426470000015148219147544896910_" gradientUnits="userSpaceOnUse" x1="80.8184" y1="75.2575" x2="20.2797" y2="18.9486">
		<stop  offset="0.4" style="stop-color:#F39800"/>
		<stop  offset="0.9039" style="stop-color:#C42D1B"/>
	</linearGradient>
	<path style="fill:url(#SVGID_00000092422119355679426470000015148219147544896910_);" d="M22.22,23.41c-1.47,0-2.66-1.19-2.66-2.66
		c0-1.47,1.19-2.66,2.66-2.66s2.66,1.19,2.66,2.66C24.88,22.22,23.69,23.41,22.22,23.41z M22.22,19.54c-0.67,0-1.21,0.54-1.21,1.21
		c0,0.67,0.54,1.21,1.21,1.21c0.67,0,1.21-0.54,1.21-1.21C23.43,20.09,22.89,19.54,22.22,19.54z"/>
	
		<linearGradient id="SVGID_00000080185516104284075430000001899411062712583575_" gradientUnits="userSpaceOnUse" x1="106.9893" y1="47.1207" x2="46.4507" y2="-9.1882">
		<stop  offset="0.4" style="stop-color:#F39800"/>
		<stop  offset="0.9039" style="stop-color:#C42D1B"/>
	</linearGradient>
	<path style="fill:url(#SVGID_00000080185516104284075430000001899411062712583575_);" d="M74.48,19.54c-1.47,0-2.66-1.19-2.66-2.66
		s1.19-2.66,2.66-2.66s2.66,1.19,2.66,2.66S75.95,19.54,74.48,19.54z M74.48,15.67c-0.67,0-1.21,0.54-1.21,1.21
		c0,0.67,0.54,1.21,1.21,1.21c0.67,0,1.21-0.54,1.21-1.21C75.69,16.21,75.15,15.67,74.48,15.67z"/>
	
		<linearGradient id="SVGID_00000029033023129120909970000013878886518210568363_" gradientUnits="userSpaceOnUse" x1="106.6522" y1="47.4832" x2="46.1135" y2="-8.8257">
		<stop  offset="0.4" style="stop-color:#F39800"/>
		<stop  offset="0.9039" style="stop-color:#C42D1B"/>
	</linearGradient>
	<path style="fill:url(#SVGID_00000029033023129120909970000013878886518210568363_);" d="M84.16,29.22c-1.47,0-2.66-1.19-2.66-2.66
		s1.19-2.66,2.66-2.66s2.66,1.19,2.66,2.66S85.63,29.22,84.16,29.22z M84.16,25.35c-0.67,0-1.21,0.54-1.21,1.21
		c0,0.67,0.54,1.21,1.21,1.21c0.67,0,1.21-0.54,1.21-1.21C85.37,25.89,84.83,25.35,84.16,25.35z"/>
	
		<linearGradient id="SVGID_00000149354436219851759690000007180583397469719721_" gradientUnits="userSpaceOnUse" x1="51.9625" y1="106.2809" x2="-8.5761" y2="49.972">
		<stop  offset="0.4" style="stop-color:#F39800"/>
		<stop  offset="0.9039" style="stop-color:#C42D1B"/>
	</linearGradient>
	<path style="fill:url(#SVGID_00000149354436219851759690000007180583397469719721_);" d="M19.32,78.58c-1.47,0-2.66-1.19-2.66-2.66
		c0-1.47,1.19-2.66,2.66-2.66s2.66,1.19,2.66,2.66C21.98,77.38,20.78,78.58,19.32,78.58z M19.32,74.71c-0.67,0-1.21,0.54-1.21,1.21
		c0,0.67,0.54,1.21,1.21,1.21c0.67,0,1.21-0.54,1.21-1.21C20.53,75.25,19.98,74.71,19.32,74.71z"/>
	
		<linearGradient id="SVGID_00000165945923879240301380000005002506340189545104_" gradientUnits="userSpaceOnUse" x1="52.6578" y1="105.5334" x2="-7.8809" y2="49.2245">
		<stop  offset="0.4" style="stop-color:#F39800"/>
		<stop  offset="0.9039" style="stop-color:#C42D1B"/>
	</linearGradient>
	<path style="fill:url(#SVGID_00000165945923879240301380000005002506340189545104_);" d="M27.06,84.39c-1.47,0-2.66-1.19-2.66-2.66
		c0-1.47,1.19-2.66,2.66-2.66s2.66,1.19,2.66,2.66C29.72,83.19,28.53,84.39,27.06,84.39z M27.06,80.51c-0.67,0-1.21,0.54-1.21,1.21
		c0,0.67,0.54,1.21,1.21,1.21c0.67,0,1.21-0.54,1.21-1.21C28.27,81.06,27.73,80.51,27.06,80.51z"/>
	
		<linearGradient id="SVGID_00000099663343514329126450000014460776402789137050_" gradientUnits="userSpaceOnUse" x1="82.039" y1="73.9452" x2="21.5003" y2="17.6363">
		<stop  offset="0.4" style="stop-color:#F39800"/>
		<stop  offset="0.9039" style="stop-color:#C42D1B"/>
	</linearGradient>
	<path style="fill:url(#SVGID_00000099663343514329126450000014460776402789137050_);" d="M84.16,78.58c-1.47,0-2.66-1.19-2.66-2.66
		c0-1.47,1.19-2.66,2.66-2.66s2.66,1.19,2.66,2.66C86.82,77.38,85.63,78.58,84.16,78.58z M84.16,74.71c-0.67,0-1.21,0.54-1.21,1.21
		c0,0.67,0.54,1.21,1.21,1.21c0.67,0,1.21-0.54,1.21-1.21C85.37,75.25,84.83,74.71,84.16,74.71z"/>
	
		<linearGradient id="SVGID_00000080202367995562554210000006936833005634727584_" gradientUnits="userSpaceOnUse" x1="79.4118" y1="76.7698" x2="18.8731" y2="20.4609">
		<stop  offset="0.4" style="stop-color:#F39800"/>
		<stop  offset="0.9039" style="stop-color:#C42D1B"/>
	</linearGradient>
	<path style="fill:url(#SVGID_00000080202367995562554210000006936833005634727584_);" d="M61.39,43.78c-0.66,0-1.31,0.03-1.96,0.1
		c0.6-1.86,0.92-3.83,0.92-5.89c0-10.66-8.67-19.32-19.32-19.32s-19.32,8.67-19.32,19.32c0,10.66,8.67,19.32,19.32,19.32
		c0.66,0,1.31-0.03,1.96-0.1c-0.6,1.86-0.92,3.83-0.92,5.89c0,10.66,8.67,19.32,19.32,19.32s19.32-8.67,19.32-19.32
		C80.72,52.44,72.05,43.78,61.39,43.78z M41.04,55.46c-9.64,0-17.47-7.84-17.47-17.47c0-9.64,7.84-17.47,17.47-17.47
		s17.47,7.84,17.47,17.47c0,2.19-0.42,4.29-1.17,6.22c-6.08,1.3-11.1,5.47-13.58,11.02C42.87,55.37,41.97,55.46,41.04,55.46z
		 M61.39,80.58c-9.64,0-17.47-7.84-17.47-17.47c0-2.19,0.42-4.29,1.17-6.22c0.29-0.74,0.61-1.47,0.99-2.16
		c2.18-3.98,5.87-7.01,10.29-8.34c0.75-0.23,1.52-0.39,2.31-0.51c0.89-0.14,1.8-0.23,2.73-0.23c9.64,0,17.47,7.84,17.47,17.47
		C78.87,72.74,71.03,80.58,61.39,80.58z"/>
	
		<linearGradient id="SVGID_00000165235258155214857710000009662410946270741393_" gradientUnits="userSpaceOnUse" x1="83.0824" y1="72.8234" x2="22.5437" y2="16.5145">
		<stop  offset="0.4" style="stop-color:#F39800"/>
		<stop  offset="0.9039" style="stop-color:#C42D1B"/>
	</linearGradient>
	<circle style="fill:url(#SVGID_00000165235258155214857710000009662410946270741393_);" cx="72.63" cy="63.1" r="1.8"/>
	
		<linearGradient id="SVGID_00000034800941377851410000000004093577273121597058_" gradientUnits="userSpaceOnUse" x1="72.6585" y1="84.0303" x2="12.1198" y2="27.7214">
		<stop  offset="0.4" style="stop-color:#F39800"/>
		<stop  offset="0.9039" style="stop-color:#C42D1B"/>
	</linearGradient>
	<circle style="fill:url(#SVGID_00000034800941377851410000000004093577273121597058_);" cx="50.16" cy="63.1" r="1.8"/>
	
		<linearGradient id="SVGID_00000173133724270458208390000009651109730356286598_" gradientUnits="userSpaceOnUse" x1="77.8698" y1="78.4276" x2="17.3311" y2="22.1187">
		<stop  offset="0.4" style="stop-color:#F39800"/>
		<stop  offset="0.9039" style="stop-color:#C42D1B"/>
	</linearGradient>
	<path style="fill:url(#SVGID_00000173133724270458208390000009651109730356286598_);" d="M61.4,73.96c-2.73,0-5.14-1.52-6.13-3.88
		c-0.29-0.69,0.03-1.48,0.72-1.77c0.69-0.29,1.48,0.04,1.77,0.72c0.56,1.34,2.03,2.23,3.65,2.23c2.14,0,3.89-1.53,3.89-3.41
		c0-2.23-1.35-3.41-3.9-3.41c-4.85,0-6.58-3.15-6.58-6.1c0-3.37,2.95-6.1,6.58-6.1c2.73,0,5.14,1.52,6.13,3.88
		c0.29,0.69-0.03,1.48-0.72,1.77c-0.69,0.29-1.48-0.04-1.77-0.72c-0.56-1.34-2.03-2.23-3.65-2.23c-2.14,0-3.89,1.53-3.89,3.41
		c0,2.26,1.31,3.41,3.89,3.41c4.87,0,6.6,3.15,6.6,6.1C67.98,71.22,65.03,73.96,61.4,73.96z"/>
	
		<linearGradient id="SVGID_00000027605269376098478160000013516610985493187206_" gradientUnits="userSpaceOnUse" x1="83.2612" y1="72.6312" x2="22.7225" y2="16.3223">
		<stop  offset="0.4" style="stop-color:#F39800"/>
		<stop  offset="0.9039" style="stop-color:#C42D1B"/>
	</linearGradient>
	<path style="fill:url(#SVGID_00000027605269376098478160000013516610985493187206_);" d="M61.38,54.94c-0.74,0-1.35-0.6-1.35-1.35
		v-2.62c0-0.74,0.6-1.35,1.35-1.35c0.74,0,1.35,0.6,1.35,1.35v2.62C62.73,54.34,62.13,54.94,61.38,54.94z"/>
	
		<linearGradient id="SVGID_00000024688994348516176580000000296691232483541173_" gradientUnits="userSpaceOnUse" x1="72.4698" y1="84.2332" x2="11.9311" y2="27.9243">
		<stop  offset="0.4" style="stop-color:#F39800"/>
		<stop  offset="0.9039" style="stop-color:#C42D1B"/>
	</linearGradient>
	<path style="fill:url(#SVGID_00000024688994348516176580000000296691232483541173_);" d="M61.38,76.58c-0.74,0-1.35-0.6-1.35-1.35
		v-2.62c0-0.74,0.6-1.35,1.35-1.35c0.74,0,1.35,0.6,1.35,1.35v2.62C62.73,75.97,62.13,76.58,61.38,76.58z"/>
	<g>
		
			<linearGradient id="SVGID_00000183955468185881410870000008241181586133440928_" gradientUnits="userSpaceOnUse" x1="82.0002" y1="73.9869" x2="21.4616" y2="17.678">
			<stop  offset="0.4" style="stop-color:#F39800"/>
			<stop  offset="0.9039" style="stop-color:#C42D1B"/>
		</linearGradient>
		<path style="fill:url(#SVGID_00000183955468185881410870000008241181586133440928_);" d="M40.49,48.89
			c-0.27-0.26-0.4-0.57-0.4-0.93v-3.18h-4.02c-0.31,0-0.56-0.1-0.77-0.31c-0.21-0.21-0.32-0.47-0.32-0.77s0.1-0.57,0.32-0.79
			c0.21-0.22,0.47-0.33,0.77-0.33h4.02v-1.78h-4.02c-0.31,0-0.56-0.11-0.77-0.32c-0.21-0.21-0.32-0.47-0.32-0.77
			c0-0.31,0.1-0.57,0.32-0.79c0.21-0.22,0.47-0.33,0.77-0.33h2.75l-4.79-7.8c-0.15-0.31-0.23-0.56-0.23-0.77
			c0-0.4,0.13-0.73,0.4-0.99c0.27-0.26,0.6-0.39,1-0.39c0.52,0,0.94,0.28,1.26,0.83l4.93,8.63l4.93-8.63
			c0.33-0.56,0.75-0.83,1.26-0.83c0.4,0,0.74,0.13,1,0.39c0.27,0.26,0.4,0.59,0.4,0.99c0,0.21-0.08,0.47-0.23,0.77l-4.79,7.8h2.75
			c0.31,0,0.56,0.11,0.77,0.33c0.21,0.22,0.32,0.48,0.32,0.79c0,0.31-0.11,0.56-0.32,0.77c-0.21,0.21-0.47,0.32-0.77,0.32h-4.02
			v1.78h4.02c0.31,0,0.56,0.11,0.77,0.33c0.21,0.22,0.32,0.48,0.32,0.79s-0.11,0.56-0.32,0.77c-0.21,0.21-0.47,0.31-0.77,0.31h-4.02
			v3.18c0,0.36-0.13,0.67-0.4,0.93c-0.27,0.26-0.57,0.39-0.92,0.39C41.07,49.28,40.76,49.15,40.49,48.89z"/>
	</g>
</g>
</svg>
