<?xml version="1.0" encoding="utf-8"?>
<!-- Generator: Adobe Illustrator 26.5.0, SVG Export Plug-In . SVG Version: 6.00 Build 0)  -->
<svg version="1.1" id="圖層_1" xmlns="http://www.w3.org/2000/svg" xmlns:xlink="http://www.w3.org/1999/xlink" x="0px" y="0px"
	 viewBox="0 0 100 100" style="enable-background:new 0 0 100 100;" xml:space="preserve">
<style type="text/css">
	.st0{fill:url(#SVGID_1_);}
	.st1{fill:url(#SVGID_00000031187161518289481430000011164862111314196624_);}
	.st2{fill:url(#SVGID_00000160175514768880618650000010449443205680072586_);}
	.st3{fill:url(#SVGID_00000062163075655382415580000010853701366033622718_);}
	.st4{fill:url(#SVGID_00000004516974981146702870000001127405690357447583_);}
	.st5{fill:url(#SVGID_00000138532034905588846650000000472875785356195715_);}
	.st6{fill:url(#SVGID_00000070084273592488395650000001595024944060593036_);}
	.st7{fill:url(#SVGID_00000038406957469707509760000008276588835633356419_);}
	.st8{fill:url(#SVGID_00000021813683239810012700000003042421419287889830_);}
	.st9{fill:url(#SVGID_00000117677099268698567170000003157863173760521148_);}
	.st10{fill:url(#SVGID_00000093138126339652114870000004320113647825634751_);}
	.st11{fill:url(#SVGID_00000121972040293427001510000005203508565172412035_);}
	.st12{fill:url(#SVGID_00000013892830207081185120000003205188241248470687_);}
	.st13{fill:url(#SVGID_00000177482616557504711440000017337508830435318186_);}
	.st14{fill:url(#SVGID_00000008140685260355369080000015313561874044809398_);}
	.st15{fill:url(#SVGID_00000132053455308581135130000009420074587580801455_);}
	.st16{fill:url(#SVGID_00000036222931884928590790000004072084828320694162_);}
	.st17{fill:url(#SVGID_00000150075600624015058450000016546502944722477740_);}
	.st18{fill:url(#SVGID_00000052096415945336679960000005101878912416321159_);}
	.st19{fill:url(#SVGID_00000018953408168228462400000001476817238716718763_);}
	.st20{fill:url(#SVGID_00000080199994618198803530000009281590196450566564_);}
	.st21{fill:url(#SVGID_00000064349246370947684620000018317676510291748541_);}
	.st22{fill:url(#SVGID_00000181798114367335755980000011595853766076174507_);}
	.st23{fill:url(#SVGID_00000175281142533844249860000018134807027573093045_);}
	.st24{fill:url(#SVGID_00000071530742662203964660000018092963596914139795_);}
	.st25{fill:url(#SVGID_00000036965917314351162290000014595784125299812543_);}
	.st26{fill:url(#SVGID_00000170977824808249756420000005265280024613402790_);}
	.st27{fill:url(#SVGID_00000036936326785352646040000007310688517923812779_);}
	.st28{fill:url(#SVGID_00000098941435661417783950000008789397590925907593_);}
	.st29{fill:url(#SVGID_00000075142511077616815440000005066103997857119377_);}
	.st30{fill:url(#SVGID_00000045613478402751614760000012246544444435757222_);}
	.st31{fill:url(#SVGID_00000128456643872623924000000006015401937377441959_);}
	.st32{fill:url(#SVGID_00000165200611950485720680000011866029965661201580_);}
	.st33{fill:url(#SVGID_00000121251743135335212830000016252026152075291786_);}
	.st34{fill:url(#SVGID_00000171718219484115629200000005098639106545194154_);}
	.st35{fill:url(#SVGID_00000011723686722726496900000012627399097422985126_);}
	.st36{fill:url(#SVGID_00000088108320696660509980000014048415273521501852_);}
	.st37{fill:url(#SVGID_00000067223074672432926030000002792825078842122393_);}
	.st38{fill:url(#SVGID_00000151528761590925412780000000423591741810622640_);}
	.st39{fill:url(#SVGID_00000018222319802654293760000013031782430456699033_);}
	.st40{fill:url(#SVGID_00000031174693883701016610000006105575104378409906_);}
	.st41{fill:url(#SVGID_00000101076403987115379640000016626802579914506885_);}
	.st42{fill:url(#SVGID_00000033357665109499090190000014232686921556324233_);}
	.st43{fill:url(#SVGID_00000159469605870378249490000017841074621340198838_);}
	.st44{fill:url(#SVGID_00000141414284986704542140000018372659862253119415_);}
	.st45{fill:url(#SVGID_00000147202241822988213880000005016427749659937172_);}
	.st46{fill:url(#SVGID_00000056399674211488106860000005472927876852200326_);}
	.st47{fill:url(#SVGID_00000176754926840844981540000003901657103745192833_);}
	.st48{fill:url(#SVGID_00000162309928907019706440000018041932246221831081_);}
	.st49{fill:url(#SVGID_00000117674863200507245990000014354451836008335245_);}
	.st50{fill:url(#SVGID_00000022523533906407698320000001158305923681860229_);}
	.st51{fill:url(#SVGID_00000137112644256725735900000013698558201988453818_);}
	.st52{fill:url(#SVGID_00000111166281603126532900000002489459245670744971_);}
	.st53{fill:url(#SVGID_00000013874988905443782070000013458810369633888168_);}
	.st54{fill:url(#SVGID_00000160192914297450034130000016331602597072377478_);}
	.st55{fill:url(#SVGID_00000109728006441283980700000011537511060642211231_);}
	.st56{fill:url(#SVGID_00000085225343006628425690000012225476118669840821_);}
	.st57{fill:url(#SVGID_00000001637392621285648010000007242995885113210801_);}
	.st58{fill:url(#SVGID_00000174602184740459497880000010380107328202622358_);}
	.st59{fill:url(#SVGID_00000130640784310531125820000003060158668897257386_);}
	.st60{fill:url(#SVGID_00000078746164827509259440000002864398730285317556_);}
	.st61{fill:url(#SVGID_00000121280639868653605460000008303847729732057992_);}
	.st62{fill:url(#SVGID_00000052818943967563518370000012485932888698198191_);}
	.st63{fill:url(#SVGID_00000088134707658161803560000013793473907850609028_);}
	.st64{fill:url(#SVGID_00000137108920971048088990000001698713528557966996_);}
	.st65{fill:url(#SVGID_00000038414844831740351340000013444675759021494964_);}
	.st66{fill:url(#SVGID_00000062878003987629058520000017201136486773254563_);}
	.st67{fill:url(#SVGID_00000105416593879516034590000014011370290734704784_);}
	.st68{fill:url(#SVGID_00000119819676291077890450000018364958223062376864_);}
	.st69{fill:url(#SVGID_00000163035008017032641170000000749147751782360253_);}
	.st70{fill:url(#SVGID_00000029045398214326577590000008708791895676007828_);}
	.st71{fill:url(#SVGID_00000085946904355017528100000003924898652626097799_);}
	.st72{fill:url(#SVGID_00000101085117327193569130000014489185173602935995_);}
	.st73{fill:url(#SVGID_00000080891368720835133630000010935443420996352408_);}
	.st74{fill:url(#SVGID_00000069398187728090147280000013576380486499353772_);}
	.st75{fill:url(#SVGID_00000070810162835529870050000016653024710867992991_);}
	.st76{fill:url(#SVGID_00000146471198615328658810000009386844468842715284_);}
	.st77{fill:url(#SVGID_00000113352659985240739190000013262928079810280879_);}
	.st78{fill:url(#SVGID_00000109750006625211388550000000616211546495160466_);}
	.st79{fill:url(#SVGID_00000029045705702492347370000011619220411002638767_);}
	.st80{fill:url(#SVGID_00000165198099524241674400000017035852095986408858_);}
	.st81{fill:url(#SVGID_00000075854734075118305160000016813067266142254244_);}
	.st82{fill:url(#SVGID_00000114052773674876438480000017779376449468894388_);}
	.st83{fill:url(#SVGID_00000115507881635720889360000015995074766484440709_);}
	.st84{fill:url(#SVGID_00000008106549003423366040000011085278019654995600_);}
	.st85{fill:url(#SVGID_00000176750431991120545760000006357324598532523702_);}
	.st86{fill:url(#SVGID_00000026162025169407581340000007102621479151343291_);}
	.st87{fill:url(#SVGID_00000163754279576343111870000009273600230119890097_);}
	.st88{fill:url(#SVGID_00000060017821673322613480000004859641376036210094_);}
	.st89{fill:url(#SVGID_00000169535084375989947470000014653079090663184572_);}
	.st90{fill:url(#SVGID_00000072965501657931911340000002252327370031807142_);}
	.st91{fill:url(#SVGID_00000048465509831860383050000005703017054622578350_);}
	.st92{fill:url(#SVGID_00000166656072169951225830000007454966597401286541_);}
	.st93{fill:url(#SVGID_00000103952436895649336080000008226663924044563126_);}
	.st94{fill:url(#SVGID_00000171715886168284341560000017942901472768080790_);}
	.st95{fill:url(#SVGID_00000009556161970533807040000007643824851931146657_);}
	.st96{fill:url(#SVGID_00000112594704179793898870000014103978184782736263_);}
	.st97{fill:url(#SVGID_00000142871502753308881860000015828593132504294591_);}
	.st98{fill:url(#SVGID_00000145770117020628310700000015303484828288551838_);}
	.st99{fill:url(#SVGID_00000013913125119554411540000018185876870114862750_);}
	.st100{fill:url(#SVGID_00000064325487398096992020000014655104015252935571_);}
	.st101{fill:url(#SVGID_00000130639144864635135870000001504460351719256214_);}
	.st102{fill:url(#SVGID_00000060027800256263290400000000903947830260821146_);}
	.st103{fill:url(#SVGID_00000011735877516180325950000008889293465168021678_);}
	.st104{fill:url(#SVGID_00000090995473302615531460000012383998832050439081_);}
	.st105{fill:url(#SVGID_00000088837967563450720260000000302662735809055395_);}
	.st106{fill:url(#SVGID_00000129927849358736885740000007174273823254118554_);}
	.st107{fill:url(#SVGID_00000029030055832027770420000005275521776513366695_);}
	.st108{fill:url(#SVGID_00000124855752188575095460000004992301349129626032_);}
	.st109{fill:url(#SVGID_00000166678170468598019570000003330844986903970186_);}
	.st110{fill:url(#SVGID_00000083782098743401892180000014588741082826820521_);}
	.st111{fill:url(#SVGID_00000062180489785114428740000011059515695796496003_);}
	.st112{fill:url(#SVGID_00000132808770281585289020000010858323092822133156_);}
	.st113{fill:url(#SVGID_00000041982467077791950740000004931573261119082637_);}
	.st114{fill:url(#SVGID_00000113352397859937317890000010154829580299446695_);}
	.st115{fill:url(#SVGID_00000116207955338509249980000017472805561692641946_);}
	.st116{fill:url(#SVGID_00000178201106106494864720000013912206737941869236_);}
	.st117{fill:url(#SVGID_00000031929175976347764470000017247483515590228908_);}
	.st118{fill:url(#SVGID_00000146465868189324777420000007222177915919439251_);}
	.st119{fill:url(#SVGID_00000156568729911546012680000014582031368535250589_);}
	.st120{fill:url(#SVGID_00000166658066314744946160000010484488150446801287_);}
	.st121{fill:url(#SVGID_00000105406730284288371440000015067279568763517851_);}
	.st122{fill:url(#SVGID_00000029764456715933607950000005758866430719301804_);}
	.st123{fill:url(#SVGID_00000023961672505208585410000016725078999085058715_);}
	.st124{fill:url(#SVGID_00000137132584508671219520000012570178386869696662_);}
	.st125{fill:url(#SVGID_00000133490751347826410760000012171139952373422219_);}
	.st126{fill:url(#SVGID_00000040536176310551959440000001070397803193957049_);}
	.st127{fill:#2C4F80;}
	.st128{fill:url(#SVGID_00000019647212808558441420000010851804112553546174_);}
	.st129{fill:url(#SVGID_00000005234169587696083110000008474958538417973675_);}
	.st130{fill:url(#SVGID_00000061456489539993543600000003826313831231493026_);}
	.st131{fill:url(#SVGID_00000171689658034718535300000001277058144383401142_);}
	.st132{fill:url(#SVGID_00000128472968597217518340000012716812759412568767_);}
	.st133{fill:url(#SVGID_00000167390853638655865320000011808370285985310881_);}
	.st134{fill:url(#SVGID_00000075135235611208111770000015984448459085194915_);}
	.st135{fill:url(#SVGID_00000023240548859957503840000016641444558618133912_);}
	.st136{fill:url(#SVGID_00000032617349302069014480000007149764237830274949_);}
	.st137{fill:url(#SVGID_00000091017110650788272800000005359587495234027954_);}
	.st138{fill:url(#SVGID_00000144302076649016488920000005402228298562647999_);}
	.st139{fill:url(#SVGID_00000033368423516901878890000004807808683554055596_);}
	.st140{fill:url(#SVGID_00000045583740840238547340000016532547023449170306_);}
	.st141{fill:url(#SVGID_00000164496911579965045990000007738585632407784844_);}
	.st142{fill:url(#SVGID_00000075864544882106857500000016859541510591151525_);}
	.st143{fill:url(#SVGID_00000147193039359353463550000008179402536109170313_);}
	.st144{fill:url(#SVGID_00000026159230707831975200000009684563106339689392_);}
	.st145{fill:url(#SVGID_00000106135594257375393080000012592588264336438712_);}
	.st146{fill:url(#SVGID_00000160878545152027180650000013328128597236015530_);}
	.st147{fill:url(#SVGID_00000028286191519814506310000005226636385649070218_);}
	.st148{fill:url(#SVGID_00000016788159408637766380000010815269741362771079_);}
	.st149{fill:url(#SVGID_00000061439711117193657420000001102373004789017745_);}
	.st150{fill:url(#SVGID_00000008151341781031666070000007507547687666280605_);}
	.st151{fill:url(#SVGID_00000041265106257053397810000000567017305271866796_);}
	.st152{fill:url(#SVGID_00000060715178164696639670000001083344215445923473_);}
	.st153{fill:url(#SVGID_00000129913157751697528240000014826535349937453486_);}
	.st154{fill:url(#SVGID_00000007418569375821361780000004387918394140497058_);}
	.st155{fill:url(#SVGID_00000054262888388617744080000016319473430314585256_);}
	.st156{fill:url(#SVGID_00000143575768582548949600000012638995423174788231_);}
	.st157{fill:url(#SVGID_00000170236261416134014540000000842987022313664956_);}
	.st158{fill:url(#SVGID_00000137134302476589641270000017122129798644592771_);}
	.st159{fill:url(#SVGID_00000175297417285784779280000000734325813692804754_);}
	.st160{fill:url(#SVGID_00000084509668067208394080000015184817328980771200_);}
	.st161{fill:url(#SVGID_00000116950442766690876470000006539629165424549045_);}
	.st162{fill:url(#SVGID_00000111906090329676517450000018341682624347189141_);}
	.st163{fill:url(#SVGID_00000058548491538910916620000007617904490066192786_);}
	.st164{fill:url(#SVGID_00000000941149977460480550000008250453158258047910_);}
	.st165{fill:url(#SVGID_00000105407105503507315160000006289383051506042765_);}
	.st166{fill:url(#SVGID_00000029017943376625121460000007255735508319863427_);}
	.st167{fill:url(#SVGID_00000099635676217904783820000009753954883089454754_);}
	.st168{fill:url(#SVGID_00000162326863403981542600000001533913296214011290_);}
	.st169{fill:url(#SVGID_00000150809660370944666990000006226187865642823050_);}
	.st170{fill:url(#SVGID_00000181046840654820758420000009027734677595982484_);}
	.st171{fill:url(#SVGID_00000029724035605462218900000012882591485662499757_);}
	.st172{fill:url(#SVGID_00000095338399119820881800000018151602965844816822_);}
	.st173{fill:url(#SVGID_00000148650820511620284370000018003806198367753910_);}
	.st174{fill:url(#SVGID_00000098899828007163873670000015040606528625650061_);}
	.st175{fill:url(#SVGID_00000156580396848529364280000004338555510378727071_);}
	.st176{fill:url(#SVGID_00000058574736162013274420000017951027754060455559_);}
	.st177{fill:url(#SVGID_00000007412704998412131240000016988530126656085923_);}
	.st178{fill:url(#SVGID_00000035514625054242146340000013799403852390253488_);}
	.st179{fill:url(#SVGID_00000076589257891149441540000014539665362685003665_);}
	.st180{fill:url(#SVGID_00000125604588849062937400000007412736709810573444_);}
	.st181{fill:url(#SVGID_00000003792691947693099650000011460825196987447972_);}
	.st182{fill:url(#SVGID_00000131349708181468232410000010163822200534366911_);}
	.st183{fill:url(#SVGID_00000113341520197577010900000018210133622574421423_);}
	.st184{fill:url(#SVGID_00000145752977572922654100000008672146253433521327_);}
	.st185{fill:url(#SVGID_00000144332124513337228250000012193988815702977717_);}
	.st186{fill:url(#SVGID_00000145757103664434316150000001043659875220995991_);}
	.st187{fill:url(#SVGID_00000014616029901500943800000004663861401450288291_);}
	.st188{fill:url(#SVGID_00000075882189514029217730000015332353033340514743_);}
	.st189{fill:url(#SVGID_00000008868107441043189130000003277302581802275512_);}
	.st190{fill:url(#SVGID_00000072250517420324884650000003928678603014247341_);}
	.st191{fill:url(#SVGID_00000080894774561600036260000007739651530788424617_);}
	.st192{fill:url(#SVGID_00000063593039098283787390000004807876873392594089_);}
	.st193{fill:url(#SVGID_00000097463550123277873270000000989783333490962616_);}
	.st194{fill:url(#SVGID_00000102530416630753952790000012144272003835451042_);}
	.st195{fill:url(#SVGID_00000039815829979554050980000009872839431219093439_);}
	.st196{fill:url(#SVGID_00000155826913143671329330000016482098199714765703_);}
	.st197{fill:url(#SVGID_00000058553969398271650430000017094687435042450359_);}
	.st198{fill:url(#SVGID_00000090990848811931785490000014649930975173248188_);}
	.st199{fill:url(#SVGID_00000126283042650814976090000008872680777427153282_);}
	.st200{fill:url(#SVGID_00000118375125757035737170000002122378965243400121_);}
	.st201{fill:url(#SVGID_00000008866535879245346580000008264150957097020350_);}
	.st202{fill:url(#SVGID_00000078738787487311841340000000970730488026903451_);}
	.st203{fill:url(#SVGID_00000165199460896360769660000017486080175541983138_);}
	.st204{fill:url(#SVGID_00000027564244348375710220000011114549568755242408_);}
	.st205{fill:url(#SVGID_00000162328927617506903840000012135811254868064664_);}
	.st206{fill:url(#SVGID_00000151510525605468360610000008626898753491185581_);}
	.st207{fill:url(#SVGID_00000180338129349767351850000003232414984610718893_);}
	.st208{fill:url(#SVGID_00000032638530703710591160000017464618719815821487_);}
	.st209{fill:url(#SVGID_00000165201544304787451790000014357428275593227157_);}
	.st210{fill:url(#SVGID_00000009553658297617760370000017769676837843463810_);}
	.st211{fill:url(#SVGID_00000080928634332262443190000015447670532370663576_);}
	.st212{fill:url(#SVGID_00000007418883633487430500000013196235047461060505_);}
	.st213{fill:url(#SVGID_00000016038327303046754510000005710601836721004729_);}
	.st214{fill:url(#SVGID_00000086651880724504169920000007761962008208673928_);}
	.st215{fill:url(#SVGID_00000039131955941441611830000002555050490950285718_);}
	.st216{fill:url(#SVGID_00000147901343716537210310000002268037514431804563_);}
	.st217{fill:url(#SVGID_00000051352963915465684670000005390146743852091556_);}
	.st218{fill:url(#SVGID_00000154400460851638115630000017064782969053030076_);}
	.st219{fill:url(#SVGID_00000106859593063339991590000008925843430171830686_);}
	.st220{fill:url(#SVGID_00000183930349877759757930000017906363994343155345_);}
	.st221{fill:url(#SVGID_00000000927622442664134250000009779532398497140366_);}
	.st222{fill:url(#SVGID_00000174574574532580870920000014379986735659527056_);}
	.st223{fill:url(#SVGID_00000162339425208081549330000018026448314166412952_);}
	.st224{fill:url(#SVGID_00000009572675120810175510000005572745216550326715_);}
	.st225{fill:url(#SVGID_00000085223047485713230280000004354384369650511783_);}
	.st226{fill:url(#SVGID_00000054944354195606537780000004556904830038205097_);}
	.st227{fill:url(#SVGID_00000169538974726091446170000013123624261682153607_);}
	.st228{fill:url(#SVGID_00000057107901954123619430000004559136761967831428_);}
</style>
<g>
	<linearGradient id="SVGID_1_" gradientUnits="userSpaceOnUse" x1="84.7361" y1="74.9037" x2="22.556" y2="29.1485">
		<stop  offset="0.4" style="stop-color:#F39800"/>
		<stop  offset="0.9039" style="stop-color:#C42D1B"/>
	</linearGradient>
	<path class="st0" d="M50.31,55.51c-0.46,0-0.92-0.05-1.39-0.16c-3.18-0.77-5.15-3.98-4.38-7.16c0.77-3.18,3.97-5.15,7.16-4.38
		c3.18,0.77,5.15,3.98,4.38,7.16C55.43,53.68,52.99,55.51,50.31,55.51z M50.31,45.18c-1.98,0-3.78,1.35-4.27,3.36
		c-0.57,2.35,0.89,4.73,3.24,5.3c2.36,0.56,4.73-0.89,5.29-3.24c0.27-1.14,0.09-2.32-0.52-3.32c-0.61-1-1.58-1.7-2.72-1.98
		C51,45.22,50.65,45.18,50.31,45.18z"/>
	
		<linearGradient id="SVGID_00000044887085403705050280000002507049756650306992_" gradientUnits="userSpaceOnUse" x1="62.3262" y1="105.3582" x2="0.146" y2="59.603">
		<stop  offset="0.4" style="stop-color:#F39800"/>
		<stop  offset="0.9039" style="stop-color:#C42D1B"/>
	</linearGradient>
	<circle style="fill:url(#SVGID_00000044887085403705050280000002507049756650306992_);" cx="21.49" cy="75.31" r="1.03"/>
	
		<linearGradient id="SVGID_00000042014212568753307360000002714150712816791955_" gradientUnits="userSpaceOnUse" x1="84.7349" y1="74.9053" x2="22.5548" y2="29.1501">
		<stop  offset="0.4" style="stop-color:#F39800"/>
		<stop  offset="0.9039" style="stop-color:#C42D1B"/>
	</linearGradient>
	<path style="fill:url(#SVGID_00000042014212568753307360000002714150712816791955_);" d="M82.84,66.43
		c-0.64-0.53-1.41-0.61-2.44-0.39c-0.01-0.95-0.29-1.85-0.84-2.53c-0.7-0.88-1.77-1.33-3.03-1.34c-1.41,0.02-3.13,0.67-5.31,1.49
		c-2.23,0.84-4.99,1.88-8.51,2.67c-0.01-0.01-0.01-0.02-0.02-0.02c-1.36-1.38-3.29-1.29-3.34-1.29c-4.55,0.05-7.3-0.13-9.16-0.46
		l1.56-3.76c0.21-0.03,0.42-0.06,0.62-0.1l3.17,3.71c0.22,0.25,0.57,0.34,0.88,0.21c1.64-0.67,3.16-1.6,4.5-2.76
		c0.25-0.22,0.34-0.57,0.21-0.88l-1.86-4.51c0.13-0.17,0.26-0.34,0.37-0.51l4.86,0.38c0.33,0.03,0.64-0.16,0.77-0.47
		c0.35-0.83,0.63-1.67,0.83-2.51c0.2-0.84,0.34-1.72,0.4-2.62c0.02-0.33-0.17-0.64-0.47-0.77l-4.51-1.87
		c-0.03-0.2-0.06-0.41-0.1-0.62l3.71-3.17c0.25-0.22,0.34-0.57,0.21-0.88c-0.66-1.64-1.59-3.16-2.75-4.51
		c-0.22-0.25-0.57-0.34-0.88-0.21l-4.51,1.86c-0.17-0.13-0.34-0.26-0.51-0.37l0.23-2.96c2.56,0.92,7.12,1.7,18.06,1.75c0,0,0,0,0,0
		c0,0,0,0,0,0h8.24c0.43,0,0.77-0.35,0.77-0.77V19.72c0-0.43-0.35-0.77-0.77-0.77h-8.19c-2.68-0.85-33.04-9.85-56.02,7.84
		c-0.24,0.16-2.34,1.62-2.44,3.52c-0.03,0.62,0.15,1.55,1.19,2.41c0.64,0.53,1.41,0.61,2.44,0.39c0.01,0.95,0.29,1.85,0.84,2.53
		c0.69,0.86,1.75,1.34,2.97,1.34c0.02,0,0.04,0,0.06,0c1.41-0.02,3.13-0.67,5.3-1.49c2.23-0.84,4.99-1.88,8.51-2.67
		c0.01,0.01,0.01,0.02,0.02,0.02c1.36,1.38,3.29,1.29,3.34,1.29c4.55-0.05,7.3,0.13,9.16,0.46l-1.56,3.76
		c-0.2,0.03-0.41,0.06-0.62,0.1l-3.17-3.71c-0.22-0.25-0.57-0.34-0.88-0.21c-1.65,0.67-3.16,1.6-4.5,2.76
		c-0.25,0.22-0.33,0.57-0.21,0.88l1.86,4.51c-0.13,0.17-0.25,0.34-0.37,0.51l-4.86-0.38c-0.33-0.03-0.64,0.16-0.77,0.47
		c-0.34,0.81-0.62,1.66-0.83,2.52c-0.21,0.86-0.34,1.74-0.4,2.62c-0.02,0.33,0.17,0.64,0.47,0.77l4.5,1.87
		c0.03,0.21,0.06,0.42,0.1,0.62l-3.71,3.17c-0.25,0.22-0.34,0.57-0.21,0.88c0.67,1.64,1.59,3.15,2.75,4.5
		c0.22,0.25,0.57,0.33,0.88,0.21l4.51-1.86c0.16,0.13,0.33,0.25,0.51,0.37l-0.23,2.96c-2.56-0.92-7.12-1.7-18.06-1.75c0,0,0,0,0,0
		h-8.24c-0.43,0-0.77,0.35-0.77,0.77v18.53c0,0.43,0.35,0.77,0.77,0.77h8.19c1.37,0.43,10.1,3.04,21.4,3.04
		c10.62,0,23.49-2.3,34.62-10.88c0.24-0.16,2.34-1.62,2.44-3.52C84.05,68.22,83.87,67.3,82.84,66.43z M75.78,20.49h6.69v16.99h-6.69
		V20.49z M24.83,78.65h-6.69V61.67h6.69V78.65z M63.57,67.72c3.35-0.79,6.02-1.79,8.2-2.62c2.03-0.77,3.64-1.38,4.78-1.39
		c0.02,0,0.03,0,0.04,0c0.77,0,1.36,0.26,1.76,0.76c0.41,0.51,0.57,1.26,0.47,2.04c-0.71,0.26-1.51,0.58-2.43,0.96
		c-2.88,1.18-7.02,2.88-12.85,4.24c0.25-0.47,0.35-0.93,0.38-1.34C64,69.36,63.86,68.48,63.57,67.72z M37.05,31.42
		c-3.35,0.79-6.02,1.79-8.2,2.62c-2.03,0.77-3.64,1.38-4.78,1.39c-0.84,0.01-1.4-0.25-1.81-0.76c-0.41-0.51-0.57-1.26-0.47-2.04
		c0.71-0.26,1.51-0.58,2.43-0.96c2.88-1.18,7.01-2.88,12.85-4.24c-0.25,0.47-0.35,0.93-0.38,1.34
		C36.62,29.79,36.76,30.67,37.05,31.42z M42.71,32.57c-0.48,0-0.97,0-1.49,0.01c-0.01,0-0.73,0.02-1.46-0.31
		c-0.26-0.12-0.52-0.29-0.75-0.52c-0.19-0.2-0.34-0.44-0.46-0.71c-0.26-0.57-0.38-1.28-0.32-2.16c0.06-0.91,0.78-1.63,2.12-2.14
		c0.53-0.16,1.18-0.32,1.97-0.45c0.47-0.08,0.99-0.15,1.57-0.2c2.7-0.26,6.59-0.24,12.18,0.49c0.42,0.05,0.81-0.24,0.87-0.66
		c0.06-0.42-0.24-0.81-0.66-0.87c-5.36-0.71-9.75-0.85-13.13-0.44c-0.63,0.08-1.23,0.17-1.78,0.29c-0.5,0.1-0.97,0.22-1.41,0.35
		c-7.69,1.45-12.88,3.59-16.31,5c-0.45,0.19-0.87,0.36-1.27,0.52c-0.73,0.29-1.38,0.54-1.93,0.7c-0.81,0.24-1.38,0.3-1.67,0.07
		c-0.66-0.55-0.64-1-0.63-1.14c0.05-0.96,1.31-2.02,1.79-2.35c21.66-16.67,50.11-8.99,54.31-7.73v17.16
		c-10.82-0.09-14.9-0.89-17.17-1.81c-0.76-0.31-1.32-0.63-1.86-0.94c-0.81-0.46-1.58-0.9-2.77-1.26
		C50.67,32.93,47.95,32.57,42.71,32.57z M43.23,56.94l-4.41,1.82c-0.77-0.96-1.41-2.02-1.92-3.14l3.63-3.1
		c0.22-0.19,0.32-0.48,0.25-0.77c-0.1-0.44-0.18-0.89-0.21-1.33c-0.02-0.29-0.21-0.54-0.47-0.65l-4.4-1.83
		c0.07-0.61,0.17-1.22,0.32-1.82c0.14-0.6,0.33-1.19,0.54-1.76l4.75,0.37c0.28,0.02,0.56-0.12,0.72-0.36
		c0.23-0.37,0.5-0.74,0.8-1.09c0.19-0.22,0.24-0.53,0.12-0.79l-1.82-4.41c0.96-0.77,2.01-1.41,3.14-1.92l3.1,3.63
		c0.19,0.22,0.48,0.32,0.76,0.25c0.48-0.11,0.92-0.18,1.34-0.21c0.29-0.02,0.54-0.21,0.65-0.47l1.83-4.41
		c0.05,0.01,0.09,0.02,0.14,0.02c0.56,0.07,1.12,0.16,1.67,0.29c0.6,0.14,1.19,0.33,1.76,0.54l-0.06,0.81l-0.31,3.95
		c-0.02,0.29,0.12,0.56,0.36,0.72c0.36,0.23,0.73,0.49,1.1,0.8c0.22,0.18,0.53,0.23,0.79,0.12l4.41-1.82
		c0.77,0.97,1.41,2.02,1.92,3.14l-3.63,3.1c-0.22,0.19-0.31,0.48-0.25,0.76c0.11,0.47,0.18,0.92,0.22,1.35
		c0.03,0.29,0.21,0.53,0.47,0.65l4.4,1.83c-0.07,0.62-0.17,1.23-0.32,1.82c-0.14,0.59-0.32,1.18-0.55,1.76l-4.75-0.38
		c-0.29-0.02-0.56,0.12-0.71,0.36c-0.23,0.36-0.5,0.73-0.8,1.09c-0.19,0.22-0.23,0.53-0.12,0.79l1.82,4.41
		c-0.96,0.77-2.01,1.41-3.14,1.92l-3.1-3.63c-0.19-0.22-0.49-0.32-0.76-0.25c-0.44,0.1-0.89,0.18-1.34,0.22
		c-0.29,0.03-0.53,0.21-0.65,0.47l-1.83,4.4c-0.05-0.01-0.1-0.02-0.14-0.03c-0.56-0.07-1.12-0.16-1.67-0.3
		c-0.6-0.15-1.19-0.33-1.76-0.54l0.06-0.81l0.31-3.94c0.02-0.29-0.12-0.56-0.36-0.72c-0.4-0.25-0.77-0.52-1.09-0.8
		C43.81,56.88,43.5,56.83,43.23,56.94z M80.69,71.11c-21.66,16.67-50.11,8.99-54.31,7.72V61.67c10.82,0.09,14.9,0.89,17.17,1.81
		c0.76,0.31,1.32,0.63,1.86,0.94c0.81,0.46,1.57,0.9,2.77,1.26c1.94,0.58,5.01,0.96,11.23,0.89c0.02,0,0.73-0.02,1.45,0.32
		c0.26,0.12,0.52,0.29,0.75,0.52c0.19,0.2,0.34,0.44,0.46,0.71c0.26,0.57,0.38,1.28,0.32,2.16c-0.06,0.91-0.78,1.63-2.12,2.14
		c-0.53,0.16-1.18,0.32-1.97,0.45c-0.47,0.08-0.99,0.15-1.57,0.2c-2.7,0.26-6.59,0.24-12.18-0.5c-0.42-0.05-0.81,0.24-0.87,0.67
		c-0.06,0.42,0.24,0.81,0.66,0.87c3.38,0.45,6.39,0.67,8.99,0.67c1.52,0,2.9-0.08,4.14-0.23c0.63-0.08,1.22-0.17,1.78-0.29
		c0.5-0.1,0.98-0.22,1.43-0.35c7.68-1.45,12.86-3.58,16.29-4.99c0.45-0.19,0.87-0.36,1.27-0.52c0.73-0.29,1.38-0.54,1.93-0.7
		c0.81-0.24,1.38-0.3,1.67-0.07c0.66,0.55,0.64,1,0.63,1.14C82.43,69.72,81.17,70.78,80.69,71.11z"/>
	
		<linearGradient id="SVGID_00000149340101912851177410000010090837430081205402_" gradientUnits="userSpaceOnUse" x1="107.1431" y1="44.4531" x2="44.963" y2="-1.3021">
		<stop  offset="0.4" style="stop-color:#F39800"/>
		<stop  offset="0.9039" style="stop-color:#C42D1B"/>
	</linearGradient>
	<circle style="fill:url(#SVGID_00000149340101912851177410000010090837430081205402_);" cx="79.13" cy="23.84" r="1.03"/>
	
		<linearGradient id="SVGID_00000159460215278901014040000010773868678374014104_" gradientUnits="userSpaceOnUse" x1="86.8394" y1="72.0454" x2="24.6592" y2="26.2902">
		<stop  offset="0.4" style="stop-color:#F39800"/>
		<stop  offset="0.9039" style="stop-color:#C42D1B"/>
	</linearGradient>
	<path style="fill:url(#SVGID_00000159460215278901014040000010773868678374014104_);" d="M68.21,58.58h-1.43
		c-0.43,0-0.77-0.35-0.77-0.77c0-0.43,0.35-0.77,0.77-0.77h1.43c0.43,0,0.77,0.35,0.77,0.77C68.98,58.24,68.63,58.58,68.21,58.58z"
		/>
	
		<linearGradient id="SVGID_00000060008172442222467320000006597803055418191527_" gradientUnits="userSpaceOnUse" x1="88.5084" y1="69.7772" x2="26.3283" y2="24.022">
		<stop  offset="0.4" style="stop-color:#F39800"/>
		<stop  offset="0.9039" style="stop-color:#C42D1B"/>
	</linearGradient>
	<path style="fill:url(#SVGID_00000060008172442222467320000006597803055418191527_);" d="M72.96,58.58h-1.42
		c-0.43,0-0.77-0.35-0.77-0.77c0-0.43,0.35-0.77,0.77-0.77h1.42c0.43,0,0.77,0.35,0.77,0.77C73.73,58.24,73.38,58.58,72.96,58.58z"
		/>
	
		<linearGradient id="SVGID_00000108988765661599141540000002810696788903655614_" gradientUnits="userSpaceOnUse" x1="86.5396" y1="72.4528" x2="24.3595" y2="26.6976">
		<stop  offset="0.4" style="stop-color:#F39800"/>
		<stop  offset="0.9039" style="stop-color:#C42D1B"/>
	</linearGradient>
	<path style="fill:url(#SVGID_00000108988765661599141540000002810696788903655614_);" d="M69.87,61.67c-0.43,0-0.77-0.35-0.77-0.77
		v-1.42c0-0.43,0.35-0.77,0.77-0.77c0.43,0,0.77,0.35,0.77,0.77v1.42C70.64,61.33,70.3,61.67,69.87,61.67z"/>
	
		<linearGradient id="SVGID_00000048492632114372312220000016542152799646344886_" gradientUnits="userSpaceOnUse" x1="88.8078" y1="69.3704" x2="26.6276" y2="23.6152">
		<stop  offset="0.4" style="stop-color:#F39800"/>
		<stop  offset="0.9039" style="stop-color:#C42D1B"/>
	</linearGradient>
	<path style="fill:url(#SVGID_00000048492632114372312220000016542152799646344886_);" d="M69.87,56.92c-0.43,0-0.77-0.35-0.77-0.77
		v-1.43c0-0.43,0.35-0.77,0.77-0.77c0.43,0,0.77,0.35,0.77,0.77v1.43C70.64,56.57,70.3,56.92,69.87,56.92z"/>
	
		<linearGradient id="SVGID_00000123414750293603349030000005825504480871652784_" gradientUnits="userSpaceOnUse" x1="94.0253" y1="62.2799" x2="31.8452" y2="16.5247">
		<stop  offset="0.4" style="stop-color:#F39800"/>
		<stop  offset="0.9039" style="stop-color:#C42D1B"/>
	</linearGradient>
	<path style="fill:url(#SVGID_00000123414750293603349030000005825504480871652784_);" d="M77.47,50.35h-1.43
		c-0.43,0-0.77-0.35-0.77-0.77c0-0.43,0.35-0.77,0.77-0.77h1.43c0.43,0,0.77,0.35,0.77,0.77C78.25,50,77.9,50.35,77.47,50.35z"/>
	
		<linearGradient id="SVGID_00000058554786837425170050000015563708276296784287_" gradientUnits="userSpaceOnUse" x1="95.6942" y1="60.0119" x2="33.514" y2="14.2567">
		<stop  offset="0.4" style="stop-color:#F39800"/>
		<stop  offset="0.9039" style="stop-color:#C42D1B"/>
	</linearGradient>
	<path style="fill:url(#SVGID_00000058554786837425170050000015563708276296784287_);" d="M82.22,50.35H80.8
		c-0.43,0-0.77-0.35-0.77-0.77c0-0.43,0.35-0.77,0.77-0.77h1.43c0.43,0,0.77,0.35,0.77,0.77C83,50,82.65,50.35,82.22,50.35z"/>
	
		<linearGradient id="SVGID_00000067950237865561012660000016592472137867078804_" gradientUnits="userSpaceOnUse" x1="93.7258" y1="62.6869" x2="31.5456" y2="16.9317">
		<stop  offset="0.4" style="stop-color:#F39800"/>
		<stop  offset="0.9039" style="stop-color:#C42D1B"/>
	</linearGradient>
	<path style="fill:url(#SVGID_00000067950237865561012660000016592472137867078804_);" d="M79.14,53.44c-0.43,0-0.77-0.35-0.77-0.77
		v-1.43c0-0.43,0.35-0.77,0.77-0.77c0.43,0,0.77,0.35,0.77,0.77v1.43C79.91,53.09,79.56,53.44,79.14,53.44z"/>
	
		<linearGradient id="SVGID_00000132782419472471152310000013778387453870940327_" gradientUnits="userSpaceOnUse" x1="95.9937" y1="59.6049" x2="33.8136" y2="13.8497">
		<stop  offset="0.4" style="stop-color:#F39800"/>
		<stop  offset="0.9039" style="stop-color:#C42D1B"/>
	</linearGradient>
	<path style="fill:url(#SVGID_00000132782419472471152310000013778387453870940327_);" d="M79.14,48.68c-0.43,0-0.77-0.35-0.77-0.77
		v-1.43c0-0.43,0.35-0.77,0.77-0.77c0.43,0,0.77,0.35,0.77,0.77v1.43C79.91,48.34,79.56,48.68,79.14,48.68z"/>
	
		<linearGradient id="SVGID_00000117641213491671198940000015537699945504695436_" gradientUnits="userSpaceOnUse" x1="74.4695" y1="88.8558" x2="12.2893" y2="43.1006">
		<stop  offset="0.4" style="stop-color:#F39800"/>
		<stop  offset="0.9039" style="stop-color:#C42D1B"/>
	</linearGradient>
	<path style="fill:url(#SVGID_00000117641213491671198940000015537699945504695436_);" d="M26,53.44h-1.43
		c-0.43,0-0.77-0.35-0.77-0.77c0-0.43,0.35-0.77,0.77-0.77H26c0.43,0,0.77,0.35,0.77,0.77C26.77,53.09,26.42,53.44,26,53.44z"/>
	
		<linearGradient id="SVGID_00000032635735240157967920000004943094343948719536_" gradientUnits="userSpaceOnUse" x1="76.1383" y1="86.5879" x2="13.9582" y2="40.8327">
		<stop  offset="0.4" style="stop-color:#F39800"/>
		<stop  offset="0.9039" style="stop-color:#C42D1B"/>
	</linearGradient>
	<path style="fill:url(#SVGID_00000032635735240157967920000004943094343948719536_);" d="M30.75,53.44h-1.43
		c-0.43,0-0.77-0.35-0.77-0.77c0-0.43,0.35-0.77,0.77-0.77h1.43c0.43,0,0.77,0.35,0.77,0.77C31.52,53.09,31.18,53.44,30.75,53.44z"
		/>
	
		<linearGradient id="SVGID_00000002359215411261613480000013653146412344184229_" gradientUnits="userSpaceOnUse" x1="74.1699" y1="89.2629" x2="11.9898" y2="43.5077">
		<stop  offset="0.4" style="stop-color:#F39800"/>
		<stop  offset="0.9039" style="stop-color:#C42D1B"/>
	</linearGradient>
	<path style="fill:url(#SVGID_00000002359215411261613480000013653146412344184229_);" d="M27.66,56.52c-0.43,0-0.77-0.35-0.77-0.77
		v-1.43c0-0.43,0.35-0.77,0.77-0.77c0.43,0,0.77,0.35,0.77,0.77v1.43C28.43,56.18,28.09,56.52,27.66,56.52z"/>
	
		<linearGradient id="SVGID_00000155134345685014669150000008600195882532969397_" gradientUnits="userSpaceOnUse" x1="76.4379" y1="86.1808" x2="14.2577" y2="40.4256">
		<stop  offset="0.4" style="stop-color:#F39800"/>
		<stop  offset="0.9039" style="stop-color:#C42D1B"/>
	</linearGradient>
	<path style="fill:url(#SVGID_00000155134345685014669150000008600195882532969397_);" d="M27.66,51.77c-0.43,0-0.77-0.35-0.77-0.77
		v-1.43c0-0.43,0.35-0.77,0.77-0.77c0.43,0,0.77,0.35,0.77,0.77V51C28.43,51.43,28.09,51.77,27.66,51.77z"/>
	
		<linearGradient id="SVGID_00000013875810596522618560000000890421627813950633_" gradientUnits="userSpaceOnUse" x1="76.8524" y1="85.6174" x2="14.6723" y2="39.8622">
		<stop  offset="0.4" style="stop-color:#F39800"/>
		<stop  offset="0.9039" style="stop-color:#C42D1B"/>
	</linearGradient>
	<path style="fill:url(#SVGID_00000013875810596522618560000000890421627813950633_);" d="M18.79,43.14h-1.43
		c-0.43,0-0.77-0.35-0.77-0.77c0-0.43,0.35-0.77,0.77-0.77h1.43c0.43,0,0.77,0.35,0.77,0.77C19.56,42.79,19.22,43.14,18.79,43.14z"
		/>
	
		<linearGradient id="SVGID_00000089543090899056265700000007854415035680967563_" gradientUnits="userSpaceOnUse" x1="78.5215" y1="83.3492" x2="16.3413" y2="37.594">
		<stop  offset="0.4" style="stop-color:#F39800"/>
		<stop  offset="0.9039" style="stop-color:#C42D1B"/>
	</linearGradient>
	<path style="fill:url(#SVGID_00000089543090899056265700000007854415035680967563_);" d="M23.54,43.14h-1.42
		c-0.43,0-0.77-0.35-0.77-0.77c0-0.43,0.35-0.77,0.77-0.77h1.42c0.43,0,0.77,0.35,0.77,0.77C24.31,42.79,23.97,43.14,23.54,43.14z"
		/>
	
		<linearGradient id="SVGID_00000014603271384815992150000008238318503581173437_" gradientUnits="userSpaceOnUse" x1="76.5526" y1="86.0248" x2="14.3725" y2="40.2696">
		<stop  offset="0.4" style="stop-color:#F39800"/>
		<stop  offset="0.9039" style="stop-color:#C42D1B"/>
	</linearGradient>
	<path style="fill:url(#SVGID_00000014603271384815992150000008238318503581173437_);" d="M20.45,46.23c-0.43,0-0.77-0.35-0.77-0.77
		v-1.42c0-0.43,0.35-0.77,0.77-0.77c0.43,0,0.77,0.35,0.77,0.77v1.42C21.23,45.88,20.88,46.23,20.45,46.23z"/>
	
		<linearGradient id="SVGID_00000113319253632674788420000007523113761336500920_" gradientUnits="userSpaceOnUse" x1="78.8208" y1="82.9424" x2="16.6407" y2="37.1872">
		<stop  offset="0.4" style="stop-color:#F39800"/>
		<stop  offset="0.9039" style="stop-color:#C42D1B"/>
	</linearGradient>
	<path style="fill:url(#SVGID_00000113319253632674788420000007523113761336500920_);" d="M20.45,41.48c-0.43,0-0.77-0.35-0.77-0.77
		v-1.43c0-0.43,0.35-0.77,0.77-0.77c0.43,0,0.77,0.35,0.77,0.77v1.43C21.23,41.13,20.88,41.48,20.45,41.48z"/>
</g>
</svg>
