<?xml version="1.0" encoding="utf-8"?>
<!-- Generator: Adobe Illustrator 26.5.0, SVG Export Plug-In . SVG Version: 6.00 Build 0)  -->
<svg version="1.1" id="圖層_1" xmlns="http://www.w3.org/2000/svg" xmlns:xlink="http://www.w3.org/1999/xlink" x="0px" y="0px"
	 viewBox="0 0 100 100" style="enable-background:new 0 0 100 100;" xml:space="preserve">
<style type="text/css">
	.st0{fill:url(#SVGID_1_);}
	.st1{fill:url(#SVGID_00000055700352452054874260000008625860849088180925_);}
	.st2{fill:url(#SVGID_00000170998402067891552640000003692552763470854274_);}
	.st3{fill:url(#SVGID_00000020372315317567563090000001369709772715707279_);}
	.st4{fill:url(#SVGID_00000129206511636661434810000010928095133827103902_);}
	.st5{fill:url(#SVGID_00000008831993489887018830000012076509999682654853_);}
	.st6{fill:url(#SVGID_00000002351236934641476080000015135526018300351154_);}
	.st7{fill:url(#SVGID_00000017478486850716874410000011747610497768093853_);}
	.st8{fill:url(#SVGID_00000038391158475025346150000002702075452644677526_);}
	.st9{fill:url(#SVGID_00000003063854679259224340000011744109232200164487_);}
	.st10{fill:url(#SVGID_00000122691657877081581160000011416874554951887016_);}
	.st11{fill:url(#SVGID_00000039824025255485886320000003436963115526079647_);}
	.st12{fill:url(#SVGID_00000085248977718476723560000010416239310178481849_);}
	.st13{fill:url(#SVGID_00000078756475170723994040000004974127000059123637_);}
	.st14{fill:url(#SVGID_00000021110779146112636510000011269452473983608744_);}
	.st15{fill:url(#SVGID_00000005230921061449463480000008924059279113363869_);}
	.st16{fill:url(#SVGID_00000015319219326368354200000011463381713165519272_);}
	.st17{fill:url(#SVGID_00000017494274425975264700000009536580322030305961_);}
	.st18{fill:url(#SVGID_00000144332761558112751230000000469059113676829858_);}
	.st19{fill:url(#SVGID_00000165913914136396107850000002381862427918245055_);}
	.st20{fill:url(#SVGID_00000163057981780787624330000001057549486009089169_);}
	.st21{fill:url(#SVGID_00000080901671541925341540000017218298848347977095_);}
	.st22{fill:url(#SVGID_00000140015925483475421170000006449441961185475483_);}
	.st23{fill:url(#SVGID_00000153676514008475171070000004957454018579233158_);}
	.st24{fill:url(#SVGID_00000166644189750338977600000001703718993693880240_);}
	.st25{fill:url(#SVGID_00000049193325654918794170000013258873786638855043_);}
	.st26{fill:url(#SVGID_00000104678777559082003870000009859932625021684666_);}
	.st27{fill:url(#SVGID_00000086684032475333930180000016190521586616458425_);}
	.st28{fill:url(#SVGID_00000013911010239100020650000014541117548521755063_);}
	.st29{fill:url(#SVGID_00000013173529894462935190000016804052981499752343_);}
	.st30{fill:url(#SVGID_00000007400761203919163140000001118075952367504525_);}
	.st31{fill:url(#SVGID_00000113314561150630476460000006433000265856581808_);}
	.st32{fill:url(#SVGID_00000170252108880701290130000015416679727112674709_);}
	.st33{fill:url(#SVGID_00000018948904143616787250000015411198392592310698_);}
	.st34{fill:url(#SVGID_00000082341676866041726030000014777276512241106362_);}
	.st35{fill:url(#SVGID_00000128482508461591027920000006690915841659157638_);}
	.st36{fill:url(#SVGID_00000119118249686419221020000012460495911990206116_);}
	.st37{fill:url(#SVGID_00000048492475313859750460000002160826575005790392_);}
	.st38{fill:url(#SVGID_00000065766619019055425440000016157962565064728236_);}
	.st39{fill:url(#SVGID_00000142161616790773318190000008111139452934124203_);}
	.st40{fill:url(#SVGID_00000037680540818617371200000014023147889980481469_);}
	.st41{fill:url(#SVGID_00000059989851292167746290000000640517252725916047_);}
	.st42{fill:url(#SVGID_00000103986511010190240570000001008009155680498569_);}
	.st43{fill:url(#SVGID_00000043455881131329020220000013284965319171766173_);}
	.st44{fill:url(#SVGID_00000063610290782768334840000001445542959507640244_);}
	.st45{fill:url(#SVGID_00000153684476498511277760000016914906312998978696_);}
	.st46{fill:url(#SVGID_00000063596931500808237660000013888174926404989887_);}
	.st47{fill:url(#SVGID_00000139291102683822174240000010816343955004775049_);}
	.st48{fill:url(#SVGID_00000085233670559262360030000004060926744784781739_);}
	.st49{fill:url(#SVGID_00000036252597061927582350000010718500986732250045_);}
	.st50{fill:url(#SVGID_00000181048421791265375390000003624756345382221194_);}
	.st51{fill:url(#SVGID_00000085228076112957195970000004438764660549447101_);}
	.st52{fill:url(#SVGID_00000122697859686123971930000016651888870853333946_);}
	.st53{fill:url(#SVGID_00000129925717826392187430000015834852668267949719_);}
	.st54{fill:url(#SVGID_00000096748854325206903500000017497299746405173162_);}
	.st55{fill:url(#SVGID_00000127003365100619915320000016200383189158339500_);}
	.st56{fill:url(#SVGID_00000138572263677566445900000018194478115400316810_);}
	.st57{fill:url(#SVGID_00000002366942489542944990000011899662187588248969_);}
	.st58{fill:url(#SVGID_00000062889310433824470640000003878695895692259470_);}
	.st59{fill:url(#SVGID_00000146476470774128468040000013426395296408756362_);}
	.st60{fill:url(#SVGID_00000010273929287261499070000010116225572364600463_);}
	.st61{fill:url(#SVGID_00000182500401456432442130000014182203467718256526_);}
	.st62{fill:url(#SVGID_00000059277761663712041100000017849527173515345301_);}
	.st63{fill:url(#SVGID_00000086674963038222804910000007774688885901416844_);}
	.st64{fill:url(#SVGID_00000028326814103244785110000015395330942253513648_);}
	.st65{fill:url(#SVGID_00000005962746194130050380000013726804596569518219_);}
	.st66{fill:url(#SVGID_00000087399945966212275800000002787503186685069986_);}
	.st67{fill:url(#SVGID_00000147211193453730120760000017298720160225971873_);}
	.st68{fill:url(#SVGID_00000087371735278760574780000006163138177100535991_);}
	.st69{fill:url(#SVGID_00000159432918037604996210000005377434641876117179_);}
	.st70{fill:url(#SVGID_00000092441927542403409910000013726405447788022701_);}
	.st71{fill:url(#SVGID_00000067920983973926242220000000839878117674907052_);}
	.st72{fill:url(#SVGID_00000034081651354352178310000009870639374569350276_);}
	.st73{fill:url(#SVGID_00000091003209992442398740000009018010452109080225_);}
	.st74{fill:url(#SVGID_00000029725453927352723360000007395113082607137466_);}
	.st75{fill:url(#SVGID_00000067236942770990375990000012324055000761395094_);}
	.st76{fill:url(#SVGID_00000164480169872763052880000007912263364504098724_);}
	.st77{fill:url(#SVGID_00000103228146174317535230000011675597002558121377_);}
	.st78{fill:url(#SVGID_00000093165882689963128470000015379625525829450675_);}
	.st79{fill:url(#SVGID_00000018234243714428887490000005863756526934772129_);}
	.st80{fill:url(#SVGID_00000140004447359178007350000002543347247272830399_);}
	.st81{fill:url(#SVGID_00000074414588907917295810000005802335558992100768_);}
	.st82{fill:url(#SVGID_00000172401066050137481430000015174186020435857796_);}
	.st83{fill:url(#SVGID_00000044142390573427239230000016545993410326406275_);}
	.st84{fill:url(#SVGID_00000176022562517339737300000004106200991376757890_);}
	.st85{fill:url(#SVGID_00000142135521553225988360000005535430037211217797_);}
	.st86{fill:url(#SVGID_00000041272238083267620330000009545371850463908508_);}
	.st87{fill:url(#SVGID_00000176751162822917255890000005008238292275273100_);}
	.st88{fill:url(#SVGID_00000163783174494031201240000009533764976074432413_);}
	.st89{fill:url(#SVGID_00000148643029396448005720000001086717972928213638_);}
	.st90{fill:url(#SVGID_00000031193746125826542940000006143471037985195141_);}
	.st91{fill:url(#SVGID_00000116920594655735110990000009274670894324327345_);}
	.st92{fill:url(#SVGID_00000093877672719992915650000013470832755614856333_);}
	.st93{fill:url(#SVGID_00000072246016207765155890000000656686029380921758_);}
	.st94{fill:url(#SVGID_00000092449328630185971880000007317990034156666501_);}
	.st95{fill:url(#SVGID_00000035499890581392567190000002186544475430814879_);}
	.st96{fill:url(#SVGID_00000095328427054166439490000005879489542472920990_);}
	.st97{fill:url(#SVGID_00000059309168183420804870000012116750564113771963_);}
	.st98{fill:url(#SVGID_00000134958099406539795840000006951889370909745550_);}
	.st99{fill:url(#SVGID_00000008129050459372960110000007376316191961006772_);}
	.st100{fill:url(#SVGID_00000133512532965883040180000017714138979387919009_);}
	.st101{fill:url(#SVGID_00000115514661283034030320000005395028554370320516_);}
	.st102{fill:url(#SVGID_00000022522779676198849850000002043374091764098191_);}
	.st103{fill:url(#SVGID_00000124132130711878258820000000659734822764430725_);}
	.st104{fill:url(#SVGID_00000114771009624669563840000011949381814089672098_);}
	.st105{fill:url(#SVGID_00000026873105139407154340000002706938432783236008_);}
	.st106{fill:url(#SVGID_00000145777192350669853240000014026643381468977046_);}
	.st107{fill:url(#SVGID_00000078737402573511052630000002491393754335941785_);}
	.st108{fill:url(#SVGID_00000066512793798094722750000009464286410469653642_);}
	.st109{fill:url(#SVGID_00000082366491798783745900000008014785200881834133_);}
	.st110{fill:url(#SVGID_00000027567542762318699600000001896759694836405644_);}
	.st111{fill:url(#SVGID_00000005947466342953523270000011211093537034446486_);}
	.st112{fill:url(#SVGID_00000127767001416285916000000002714307739534935449_);}
	.st113{fill:url(#SVGID_00000007427943740968611840000011689426846684872863_);}
	.st114{fill:url(#SVGID_00000052081279127030979100000006981158532061511814_);}
	.st115{fill:url(#SVGID_00000169529064040418267680000001979088316041641393_);}
	.st116{fill:url(#SVGID_00000036211763846511237350000017199634971677719482_);}
	.st117{fill:url(#SVGID_00000096053887894261993170000005294356895204379311_);}
	.st118{fill:url(#SVGID_00000176029397157965531110000012047273283017940367_);}
	.st119{fill:url(#SVGID_00000022553107124389439230000016672986839089222839_);}
	.st120{fill:url(#SVGID_00000128467226771990743810000014055410399350114946_);}
	.st121{fill:url(#SVGID_00000165195130301297222730000007033511912030365859_);}
	.st122{fill:url(#SVGID_00000079480419179309598200000011996110450841019799_);}
	.st123{fill:url(#SVGID_00000163757384402925838080000003805292278651130789_);}
	.st124{fill:url(#SVGID_00000134932820199027926660000010159852326661484204_);}
	.st125{fill:url(#SVGID_00000069357549288320138000000016393207754240913299_);}
	.st126{fill:url(#SVGID_00000095319597751053675150000017276614575602143662_);}
	.st127{fill:#2C4F80;}
	.st128{fill:url(#SVGID_00000153672599896744261140000004207516819219729578_);}
	.st129{fill:url(#SVGID_00000176032944913005124110000013699632385206464642_);}
	.st130{fill:url(#SVGID_00000115478841922506066390000011318793184042316173_);}
	.st131{fill:url(#SVGID_00000036209083196597879980000013906605653908028811_);}
	.st132{fill:url(#SVGID_00000145020806201771130520000016013240436005397684_);}
	.st133{fill:url(#SVGID_00000107588604280458730120000001095905307370252469_);}
	.st134{fill:url(#SVGID_00000023245232177823601550000004314463320310120331_);}
	.st135{fill:url(#SVGID_00000103244544334233131110000006660881959582065820_);}
	.st136{fill:url(#SVGID_00000054265504646696918840000014878710711742864542_);}
	.st137{fill:url(#SVGID_00000073697410666732618900000002001123369782064058_);}
	.st138{fill:url(#SVGID_00000058554731282851541150000005493857796150989195_);}
	.st139{fill:url(#SVGID_00000046337064711323842020000009166638918487823256_);}
	.st140{fill:url(#SVGID_00000031921961276585408020000010778193172028447654_);}
	.st141{fill:url(#SVGID_00000039131452423451243120000011720400776947455640_);}
	.st142{fill:url(#SVGID_00000165917416373320377400000004875407613187056289_);}
	.st143{fill:url(#SVGID_00000155138237172302688880000001752683357668459648_);}
	.st144{fill:url(#SVGID_00000061460916759308694740000016150382259147650701_);}
	.st145{fill:url(#SVGID_00000168828284265059410910000006169938646189682828_);}
	.st146{fill:url(#SVGID_00000101811564103464708640000014362526902170011811_);}
	.st147{fill:url(#SVGID_00000091013356960620698100000015853220991901426574_);}
	.st148{fill:url(#SVGID_00000021838956326064389970000010309112416050495106_);}
	.st149{fill:url(#SVGID_00000098190426630453825510000016608478716298741913_);}
	.st150{fill:url(#SVGID_00000065046459806675978010000004506068743381230521_);}
	.st151{fill:url(#SVGID_00000158732540401626567630000013953407257037098426_);}
	.st152{fill:url(#SVGID_00000078015992295044384400000017323467877148029597_);}
	.st153{fill:url(#SVGID_00000073680604370732501270000006995908252356111006_);}
	.st154{fill:url(#SVGID_00000027583592693199782810000011960961548220737459_);}
	.st155{fill:url(#SVGID_00000037684694748187468150000009978815058589565615_);}
	.st156{fill:url(#SVGID_00000063607393164556208750000004563961673287423418_);}
	.st157{fill:url(#SVGID_00000159442537887104660410000016970914214404307842_);}
	.st158{fill:url(#SVGID_00000111168176262650228560000015877255237904748462_);}
	.st159{fill:url(#SVGID_00000032636899281481389330000015332354125322819465_);}
	.st160{fill:url(#SVGID_00000165208761099303880720000007080301809113070723_);}
	.st161{fill:url(#SVGID_00000062898432872847761880000004277337801554662057_);}
	.st162{fill:url(#SVGID_00000120547354363419000690000012996530543716781200_);}
	.st163{fill:url(#SVGID_00000178164486896996655660000017562012983020547215_);}
	.st164{fill:url(#SVGID_00000026121781653552370240000009111017365889174923_);}
	.st165{fill:url(#SVGID_00000121280084682759798220000009089822210173517443_);}
	.st166{fill:url(#SVGID_00000031206300266453429160000018226601013688907147_);}
	.st167{fill:url(#SVGID_00000034798362628564195430000010684604939627076785_);}
	.st168{fill:url(#SVGID_00000131343994210115339370000013435086949144295822_);}
	.st169{fill:url(#SVGID_00000150063272947593131280000004043256281833155753_);}
	.st170{fill:url(#SVGID_00000122681426209940081140000005254395350624168376_);}
	.st171{fill:url(#SVGID_00000059989879251943931280000015066288031063022730_);}
	.st172{fill:url(#SVGID_00000047029256839417559390000017268400069505073052_);}
	.st173{fill:url(#SVGID_00000162348409385847719160000011640652467001716360_);}
	.st174{fill:url(#SVGID_00000037653269183195286740000014264696375226322106_);}
	.st175{fill:url(#SVGID_00000171703632245993326720000011225669157178687631_);}
	.st176{fill:url(#SVGID_00000037668977541853432570000017044114316585977224_);}
	.st177{fill:url(#SVGID_00000089558557408772735350000000482890971783118721_);}
	.st178{fill:url(#SVGID_00000065051326015505041700000003402096163347928767_);}
	.st179{fill:url(#SVGID_00000065070042337420368240000002690604371541552263_);}
	.st180{fill:url(#SVGID_00000082346057632492495560000004794244429920054165_);}
	.st181{fill:url(#SVGID_00000013875430978384980340000017253977985425192323_);}
	.st182{fill:url(#SVGID_00000089537346277689304400000014833033319136653990_);}
	.st183{fill:url(#SVGID_00000038380409554415327200000001218150261233855934_);}
	.st184{fill:url(#SVGID_00000056411732336352548990000018381246633855584959_);}
	.st185{fill:url(#SVGID_00000170984195040947256750000000705147972023733131_);}
	.st186{fill:url(#SVGID_00000059296292489840240720000009979335260529928064_);}
	.st187{fill:url(#SVGID_00000055670144080020542530000002923642089988482991_);}
	.st188{fill:url(#SVGID_00000009574371794331651620000003125644819045313175_);}
	.st189{fill:url(#SVGID_00000067946792117573741040000012469507252517088392_);}
	.st190{fill:url(#SVGID_00000118363701867353819700000013632114021108114351_);}
	.st191{fill:url(#SVGID_00000109744078846420991580000007298279361473314471_);}
	.st192{fill:url(#SVGID_00000023246858716996573120000002031144673544648074_);}
	.st193{fill:url(#SVGID_00000055684897435220251000000008949126227606356404_);}
	.st194{fill:url(#SVGID_00000039821245100861297540000002594633405323029427_);}
	.st195{fill:url(#SVGID_00000065760767747878634230000014903434461267326387_);}
	.st196{fill:url(#SVGID_00000081640290379123257830000010595363512196732842_);}
	.st197{fill:url(#SVGID_00000021118787394885157820000001055089098930857097_);}
	.st198{fill:url(#SVGID_00000026842644605929138360000012065355007061125271_);}
	.st199{fill:url(#SVGID_00000039856348651882156610000001318838484499416763_);}
	.st200{fill:url(#SVGID_00000106113580025163293200000017320023991709163929_);}
	.st201{fill:url(#SVGID_00000138570678686296386930000004809795418910774945_);}
	.st202{fill:url(#SVGID_00000166660676336912795020000017717821675718619053_);}
	.st203{fill:url(#SVGID_00000006686609037227133430000000034515657697234308_);}
	.st204{fill:url(#SVGID_00000178201489075981116690000006116559618329030833_);}
	.st205{fill:url(#SVGID_00000122002105199205182100000010839826465815002557_);}
	.st206{fill:url(#SVGID_00000139255130558279872140000014874953715348090538_);}
	.st207{fill:url(#SVGID_00000170273497940813421020000005541377070150063784_);}
	.st208{fill:url(#SVGID_00000035509415315641858840000011397519691581257627_);}
	.st209{fill:url(#SVGID_00000078045022829344199240000003922737479439111304_);}
	.st210{fill:url(#SVGID_00000010303847639498165470000005302030410097676203_);}
	.st211{fill:url(#SVGID_00000044169887414696354330000010657340904566004149_);}
	.st212{fill:url(#SVGID_00000152260380804276334590000004417877688618001550_);}
	.st213{fill:url(#SVGID_00000070114467522145362450000000575594413647617726_);}
	.st214{fill:url(#SVGID_00000139272008815094122990000007319557770860841133_);}
	.st215{fill:url(#SVGID_00000122695602857236636840000001768778159684376471_);}
	.st216{fill:url(#SVGID_00000070100785850571210270000007749810376849296017_);}
	.st217{fill:url(#SVGID_00000044163552917857433610000002203200576794572444_);}
	.st218{fill:url(#SVGID_00000048472622375034488400000006978351562039359148_);}
	.st219{fill:url(#SVGID_00000155844472806420380480000008882947112331083432_);}
	.st220{fill:url(#SVGID_00000002367023311916241630000014296064349762468791_);}
	.st221{fill:url(#SVGID_00000088098189677188922810000004614358245736748964_);}
	.st222{fill:url(#SVGID_00000120537822975489220820000002030052411631712412_);}
	.st223{fill:url(#SVGID_00000075884818283910030160000001060337014597494163_);}
	.st224{fill:url(#SVGID_00000160907582715319670230000010132390863252989847_);}
	.st225{fill:url(#SVGID_00000021115900956616580210000001152992351718265516_);}
	.st226{fill:url(#SVGID_00000128480047404936913630000014046055809481414030_);}
	.st227{fill:url(#SVGID_00000039833089339351877970000011228769543792833691_);}
	.st228{fill:url(#SVGID_00000131351718455921865500000001212338697629659564_);}
</style>
<g>
	<linearGradient id="SVGID_1_" gradientUnits="userSpaceOnUse" x1="88.5413" y1="93.1898" x2="11.1986" y2="40.2711">
		<stop  offset="0.4" style="stop-color:#F39800"/>
		<stop  offset="0.9039" style="stop-color:#C42D1B"/>
	</linearGradient>
	<path class="st0" d="M84.7,85.1H47.18c-0.25,0-0.48-0.12-0.63-0.32c-0.15-0.2-0.19-0.46-0.12-0.7l5.21-16.74
		c0.1-0.33,0.41-0.55,0.75-0.55h27.1c0.34,0,0.65,0.22,0.75,0.55l5.21,16.74c0.07,0.24,0.03,0.5-0.12,0.7
		C85.19,84.98,84.95,85.1,84.7,85.1z M48.25,83.53h35.39l-4.72-15.17H52.97L48.25,83.53z"/>
	
		<linearGradient id="SVGID_00000045585893109230860670000008612629239331090878_" gradientUnits="userSpaceOnUse" x1="97.9969" y1="79.3701" x2="20.6541" y2="26.4514">
		<stop  offset="0.4" style="stop-color:#F39800"/>
		<stop  offset="0.9039" style="stop-color:#C42D1B"/>
	</linearGradient>
	<path style="fill:url(#SVGID_00000045585893109230860670000008612629239331090878_);" d="M74.32,68.36h-4.69
		c-0.37,0-0.69-0.26-0.77-0.62l-2.91-13.8l-2.91,13.8c-0.08,0.36-0.4,0.62-0.77,0.62h-4.69c-0.22,0-0.44-0.1-0.59-0.26
		c-0.15-0.17-0.22-0.39-0.19-0.61l2.5-21.98c0.05-0.4,0.38-0.7,0.78-0.7h11.74c0.4,0,0.73,0.3,0.78,0.7l2.5,21.98
		c0.03,0.22-0.05,0.44-0.19,0.61C74.75,68.26,74.54,68.36,74.32,68.36z M70.26,66.79h3.18l-2.32-20.41H60.77l-2.32,20.41h3.18
		l3.55-16.82c0.08-0.36,0.4-0.62,0.77-0.62c0.37,0,0.69,0.26,0.77,0.62L70.26,66.79z"/>
	
		<linearGradient id="SVGID_00000054964926009533013970000016250495239247441067_" gradientUnits="userSpaceOnUse" x1="111.4135" y1="59.7613" x2="34.0707" y2="6.8425">
		<stop  offset="0.4" style="stop-color:#F39800"/>
		<stop  offset="0.9039" style="stop-color:#C42D1B"/>
	</linearGradient>
	<path style="fill:url(#SVGID_00000054964926009533013970000016250495239247441067_);" d="M71.81,46.38H60.07
		c-0.43,0-0.78-0.35-0.78-0.78v-8.16c0-0.92-0.33-1.79-0.91-2.38L47.3,23.93c-0.62-0.62-0.94-1.47-0.9-2.34
		c0.04-0.87,0.46-1.69,1.14-2.24c1.21-0.99,3.07-0.86,4.23,0.31l7.46,7.46c0.75,0.75,1.75,1.17,2.82,1.17h7.78
		c1.07,0,2.07-0.41,2.82-1.17l7.46-7.46c1.16-1.16,3.02-1.29,4.23-0.31v0c0.68,0.56,1.09,1.37,1.14,2.24
		c0.04,0.87-0.29,1.73-0.9,2.34L73.53,35.04c-0.6,0.61-0.93,1.48-0.93,2.39v8.16C72.6,46.03,72.25,46.38,71.81,46.38z M60.86,44.81
		h10.17v-7.37c0-1.35,0.48-2.58,1.36-3.48l11.08-11.14c0.3-0.3,0.47-0.73,0.45-1.15c-0.02-0.44-0.22-0.83-0.56-1.11l0,0
		c-0.59-0.49-1.53-0.4-2.13,0.2l-7.46,7.46c-1.05,1.05-2.45,1.63-3.93,1.63h-7.78c-1.49,0-2.88-0.58-3.93-1.63l-7.46-7.46
		c-0.6-0.6-1.53-0.69-2.13-0.2c-0.34,0.28-0.54,0.67-0.56,1.11c-0.02,0.43,0.14,0.85,0.44,1.15l11.06,11.11
		c0.9,0.92,1.39,2.16,1.39,3.5V44.81z"/>
	
		<linearGradient id="SVGID_00000018219034096603985140000004252620905772485286_" gradientUnits="userSpaceOnUse" x1="114.7342" y1="54.9079" x2="37.3914" y2="1.9892">
		<stop  offset="0.4" style="stop-color:#F39800"/>
		<stop  offset="0.9039" style="stop-color:#C42D1B"/>
	</linearGradient>
	<path style="fill:url(#SVGID_00000018219034096603985140000004252620905772485286_);" d="M65.94,26.5c-2.51,0-4.55-2.23-4.55-4.97
		c0-2.74,2.04-4.97,4.55-4.97c2.51,0,4.55,2.23,4.55,4.97C70.49,24.27,68.45,26.5,65.94,26.5z M65.94,18.12
		c-1.64,0-2.98,1.53-2.98,3.4c0,1.88,1.34,3.4,2.98,3.4c1.64,0,2.98-1.52,2.98-3.4C68.93,19.65,67.59,18.12,65.94,18.12z"/>
	
		<linearGradient id="SVGID_00000054958583910644274500000017145104220297878199_" gradientUnits="userSpaceOnUse" x1="80.7744" y1="104.5415" x2="3.4316" y2="51.6227">
		<stop  offset="0.4" style="stop-color:#F39800"/>
		<stop  offset="0.9039" style="stop-color:#C42D1B"/>
	</linearGradient>
	<path style="fill:url(#SVGID_00000054958583910644274500000017145104220297878199_);" d="M17.73,85.1c-0.43,0-0.78-0.35-0.78-0.78
		c0-0.43,0.35-0.78,0.78-0.78l66.98,0c0.43,0,0.78,0.35,0.78,0.78c0,0.43-0.35,0.78-0.78,0.78L17.73,85.1z"/>
	
		<linearGradient id="SVGID_00000121958718447284213220000011671312630852795538_" gradientUnits="userSpaceOnUse" x1="88.8488" y1="92.7404" x2="11.506" y2="39.8217">
		<stop  offset="0.4" style="stop-color:#F39800"/>
		<stop  offset="0.9039" style="stop-color:#C42D1B"/>
	</linearGradient>
	<path style="fill:url(#SVGID_00000121958718447284213220000011671312630852795538_);" d="M37.21,57.89H24.65
		c-0.24,0-0.46-0.11-0.61-0.29c-0.15-0.19-0.21-0.43-0.15-0.66l2.09-9.42c0.05-0.22,0.2-0.42,0.4-0.52l4.19-2.2
		c0.23-0.12,0.5-0.12,0.73,0l4.19,2.2c0.2,0.11,0.35,0.3,0.4,0.52l2.09,9.42c0.05,0.23-0.01,0.48-0.15,0.66
		C37.67,57.78,37.45,57.89,37.21,57.89z M25.63,56.32h10.6l-1.8-8.11l-3.5-1.84l-3.5,1.84L25.63,56.32z"/>
	
		<linearGradient id="SVGID_00000083062543310329778080000002999549819779694977_" gradientUnits="userSpaceOnUse" x1="80.6471" y1="104.7275" x2="3.3043" y2="51.8088">
		<stop  offset="0.4" style="stop-color:#F39800"/>
		<stop  offset="0.9039" style="stop-color:#C42D1B"/>
	</linearGradient>
	<path style="fill:url(#SVGID_00000083062543310329778080000002999549819779694977_);" d="M40.35,85.1H21.51
		c-0.43,0-0.78-0.35-0.78-0.78V57.11c0-0.43,0.35-0.78,0.78-0.78h18.84c0.43,0,0.78,0.35,0.78,0.78v27.21
		C41.13,84.75,40.78,85.1,40.35,85.1z M22.3,83.53h17.27V57.89H22.3V83.53z"/>
	
		<linearGradient id="SVGID_00000150060202644022609920000008695474049174903958_" gradientUnits="userSpaceOnUse" x1="80.6469" y1="104.7278" x2="3.3041" y2="51.8091">
		<stop  offset="0.4" style="stop-color:#F39800"/>
		<stop  offset="0.9039" style="stop-color:#C42D1B"/>
	</linearGradient>
	<path style="fill:url(#SVGID_00000150060202644022609920000008695474049174903958_);" d="M33.02,79.87h-4.19
		c-0.43,0-0.78-0.35-0.78-0.78c0-0.72-0.59-1.31-1.31-1.31c-0.43,0-0.78-0.35-0.78-0.78V64.43c0-0.43,0.35-0.78,0.78-0.78
		c0.72,0,1.31-0.59,1.31-1.31c0-0.43,0.35-0.78,0.78-0.78h4.19c0.43,0,0.78,0.35,0.78,0.78c0,0.72,0.59,1.31,1.31,1.31
		c0.43,0,0.78,0.35,0.78,0.78v12.56c0,0.43-0.35,0.78-0.78,0.78c-0.72,0-1.31,0.59-1.31,1.31C33.81,79.52,33.46,79.87,33.02,79.87z
		 M29.51,78.3h2.83c0.27-0.96,1.03-1.71,1.98-1.98V65.11c-0.96-0.27-1.71-1.03-1.98-1.98h-2.83c-0.27,0.96-1.03,1.71-1.98,1.98
		v11.21C28.49,76.59,29.24,77.34,29.51,78.3z"/>
	
		<linearGradient id="SVGID_00000080195582360648895630000012655515409443062717_" gradientUnits="userSpaceOnUse" x1="86.9878" y1="95.4603" x2="9.645" y2="42.5416">
		<stop  offset="0.4" style="stop-color:#F39800"/>
		<stop  offset="0.9039" style="stop-color:#C42D1B"/>
	</linearGradient>
	<path style="fill:url(#SVGID_00000080195582360648895630000012655515409443062717_);" d="M42.44,57.89H19.42
		c-0.43,0-0.78-0.35-0.78-0.78c0-0.43,0.35-0.78,0.78-0.78h23.02c0.43,0,0.78,0.35,0.78,0.78C43.23,57.54,42.88,57.89,42.44,57.89z"
		/>
	
		<linearGradient id="SVGID_00000021111419233866071710000015435867287137651595_" gradientUnits="userSpaceOnUse" x1="109.6805" y1="62.294" x2="32.3378" y2="9.3753">
		<stop  offset="0.4" style="stop-color:#F39800"/>
		<stop  offset="0.9039" style="stop-color:#C42D1B"/>
	</linearGradient>
	<path style="fill:url(#SVGID_00000021111419233866071710000015435867287137651595_);" d="M79.87,42.19h-1.45
		c-0.43,0-0.78-0.35-0.78-0.78c0-0.43,0.35-0.78,0.78-0.78h1.45c0.43,0,0.78,0.35,0.78,0.78C80.66,41.84,80.31,42.19,79.87,42.19z"
		/>
	
		<linearGradient id="SVGID_00000001632107175634187640000000705206424542161536_" gradientUnits="userSpaceOnUse" x1="111.2209" y1="60.0428" x2="33.8781" y2="7.124">
		<stop  offset="0.4" style="stop-color:#F39800"/>
		<stop  offset="0.9039" style="stop-color:#C42D1B"/>
	</linearGradient>
	<path style="fill:url(#SVGID_00000001632107175634187640000000705206424542161536_);" d="M84.7,42.19h-1.45
		c-0.43,0-0.78-0.35-0.78-0.78c0-0.43,0.35-0.78,0.78-0.78h1.45c0.43,0,0.78,0.35,0.78,0.78C85.49,41.84,85.14,42.19,84.7,42.19z"/>
	
		<linearGradient id="SVGID_00000045592881386863334420000006859396004601439911_" gradientUnits="userSpaceOnUse" x1="109.3253" y1="62.8132" x2="31.9826" y2="9.8945">
		<stop  offset="0.4" style="stop-color:#F39800"/>
		<stop  offset="0.9039" style="stop-color:#C42D1B"/>
	</linearGradient>
	<path style="fill:url(#SVGID_00000045592881386863334420000006859396004601439911_);" d="M81.57,45.33c-0.43,0-0.78-0.35-0.78-0.78
		v-1.45c0-0.43,0.35-0.78,0.78-0.78s0.78,0.35,0.78,0.78v1.45C82.35,44.98,82,45.33,81.57,45.33z"/>
	
		<linearGradient id="SVGID_00000164516357135367105400000014066279977003026079_" gradientUnits="userSpaceOnUse" x1="111.5765" y1="59.5229" x2="34.2338" y2="6.6042">
		<stop  offset="0.4" style="stop-color:#F39800"/>
		<stop  offset="0.9039" style="stop-color:#C42D1B"/>
	</linearGradient>
	<path style="fill:url(#SVGID_00000164516357135367105400000014066279977003026079_);" d="M81.57,40.5c-0.43,0-0.78-0.35-0.78-0.78
		v-1.45c0-0.43,0.35-0.78,0.78-0.78s0.78,0.35,0.78,0.78v1.45C82.35,40.15,82,40.5,81.57,40.5z"/>
	
		<linearGradient id="SVGID_00000109011742766273299930000002918147054857467811_" gradientUnits="userSpaceOnUse" x1="94.4569" y1="84.5439" x2="17.1142" y2="31.6251">
		<stop  offset="0.4" style="stop-color:#F39800"/>
		<stop  offset="0.9039" style="stop-color:#C42D1B"/>
	</linearGradient>
	<path style="fill:url(#SVGID_00000109011742766273299930000002918147054857467811_);" d="M47.43,52.66h-1.45
		c-0.43,0-0.78-0.35-0.78-0.78c0-0.43,0.35-0.78,0.78-0.78h1.45c0.43,0,0.78,0.35,0.78,0.78C48.21,52.3,47.86,52.66,47.43,52.66z"/>
	
		<linearGradient id="SVGID_00000181803336682589690640000008616894473273189038_" gradientUnits="userSpaceOnUse" x1="95.9972" y1="82.2927" x2="18.6545" y2="29.3739">
		<stop  offset="0.4" style="stop-color:#F39800"/>
		<stop  offset="0.9039" style="stop-color:#C42D1B"/>
	</linearGradient>
	<path style="fill:url(#SVGID_00000181803336682589690640000008616894473273189038_);" d="M52.26,52.66h-1.45
		c-0.43,0-0.78-0.35-0.78-0.78c0-0.43,0.35-0.78,0.78-0.78h1.45c0.43,0,0.78,0.35,0.78,0.78C53.04,52.3,52.69,52.66,52.26,52.66z"/>
	
		<linearGradient id="SVGID_00000172418961133950781080000009303619431113941181_" gradientUnits="userSpaceOnUse" x1="94.1017" y1="85.0631" x2="16.7589" y2="32.1444">
		<stop  offset="0.4" style="stop-color:#F39800"/>
		<stop  offset="0.9039" style="stop-color:#C42D1B"/>
	</linearGradient>
	<path style="fill:url(#SVGID_00000172418961133950781080000009303619431113941181_);" d="M49.12,55.8c-0.43,0-0.78-0.35-0.78-0.78
		v-1.45c0-0.43,0.35-0.78,0.78-0.78c0.43,0,0.78,0.35,0.78,0.78v1.45C49.9,55.44,49.55,55.8,49.12,55.8z"/>
	
		<linearGradient id="SVGID_00000145775793411361566370000005819523256824504236_" gradientUnits="userSpaceOnUse" x1="96.3529" y1="81.7729" x2="19.0101" y2="28.8541">
		<stop  offset="0.4" style="stop-color:#F39800"/>
		<stop  offset="0.9039" style="stop-color:#C42D1B"/>
	</linearGradient>
	<path style="fill:url(#SVGID_00000145775793411361566370000005819523256824504236_);" d="M49.12,50.96c-0.43,0-0.78-0.35-0.78-0.78
		v-1.45c0-0.43,0.35-0.78,0.78-0.78c0.43,0,0.78,0.35,0.78,0.78v1.45C49.9,50.61,49.55,50.96,49.12,50.96z"/>
	
		<linearGradient id="SVGID_00000096052802890608546250000014588950922872570250_" gradientUnits="userSpaceOnUse" x1="100.0781" y1="76.3283" x2="22.7354" y2="23.4095">
		<stop  offset="0.4" style="stop-color:#F39800"/>
		<stop  offset="0.9039" style="stop-color:#C42D1B"/>
	</linearGradient>
	<path style="fill:url(#SVGID_00000096052802890608546250000014588950922872570250_);" d="M19.17,21.26h-1.45
		c-0.43,0-0.78-0.35-0.78-0.78c0-0.43,0.35-0.78,0.78-0.78h1.45c0.43,0,0.78,0.35,0.78,0.78C19.96,20.91,19.61,21.26,19.17,21.26z"
		/>
	
		<linearGradient id="SVGID_00000008144984277326243360000012452883553295113105_" gradientUnits="userSpaceOnUse" x1="101.6185" y1="74.077" x2="24.2757" y2="21.1583">
		<stop  offset="0.4" style="stop-color:#F39800"/>
		<stop  offset="0.9039" style="stop-color:#C42D1B"/>
	</linearGradient>
	<path style="fill:url(#SVGID_00000008144984277326243360000012452883553295113105_);" d="M24.01,21.26h-1.45
		c-0.43,0-0.78-0.35-0.78-0.78c0-0.43,0.35-0.78,0.78-0.78h1.45c0.43,0,0.78,0.35,0.78,0.78C24.79,20.91,24.44,21.26,24.01,21.26z"
		/>
	
		<linearGradient id="SVGID_00000176037420786340510650000007786754454973881524_" gradientUnits="userSpaceOnUse" x1="99.7227" y1="76.8478" x2="22.3799" y2="23.9291">
		<stop  offset="0.4" style="stop-color:#F39800"/>
		<stop  offset="0.9039" style="stop-color:#C42D1B"/>
	</linearGradient>
	<path style="fill:url(#SVGID_00000176037420786340510650000007786754454973881524_);" d="M20.87,24.4c-0.43,0-0.78-0.35-0.78-0.78
		v-1.45c0-0.43,0.35-0.78,0.78-0.78c0.43,0,0.78,0.35,0.78,0.78v1.45C21.65,24.05,21.3,24.4,20.87,24.4z"/>
	
		<linearGradient id="SVGID_00000079448868217328211780000013265996237001996931_" gradientUnits="userSpaceOnUse" x1="101.9739" y1="73.5576" x2="24.6311" y2="20.6389">
		<stop  offset="0.4" style="stop-color:#F39800"/>
		<stop  offset="0.9039" style="stop-color:#C42D1B"/>
	</linearGradient>
	<path style="fill:url(#SVGID_00000079448868217328211780000013265996237001996931_);" d="M20.87,19.57c-0.43,0-0.78-0.35-0.78-0.78
		v-1.45c0-0.43,0.35-0.78,0.78-0.78c0.43,0,0.78,0.35,0.78,0.78v1.45C21.65,19.22,21.3,19.57,20.87,19.57z"/>
	
		<linearGradient id="SVGID_00000036212285488788235910000001015131396723074946_" gradientUnits="userSpaceOnUse" x1="94.9505" y1="83.8225" x2="17.6077" y2="30.9038">
		<stop  offset="0.4" style="stop-color:#F39800"/>
		<stop  offset="0.9039" style="stop-color:#C42D1B"/>
	</linearGradient>
	<path style="fill:url(#SVGID_00000036212285488788235910000001015131396723074946_);" d="M39.09,50.56c-0.12,0-0.25-0.03-0.36-0.09
		l-7.8-4.1l-7.8,4.1c-0.26,0.14-0.59,0.12-0.83-0.06c-0.24-0.18-0.36-0.47-0.31-0.77l1.49-8.68l-6.31-6.15
		c-0.21-0.21-0.29-0.52-0.2-0.8c0.09-0.28,0.34-0.49,0.63-0.53l8.72-1.27l3.9-7.9c0.27-0.54,1.14-0.54,1.41,0l3.9,7.9l8.72,1.27
		c0.3,0.04,0.54,0.25,0.63,0.53c0.09,0.28,0.02,0.6-0.2,0.8l-6.31,6.15l1.49,8.68c0.05,0.29-0.07,0.59-0.31,0.77
		C39.42,50.51,39.25,50.56,39.09,50.56z M30.93,44.7c0.13,0,0.25,0.03,0.36,0.09l6.75,3.55l-1.29-7.52
		c-0.04-0.25,0.04-0.52,0.23-0.7l5.46-5.33l-7.55-1.1c-0.26-0.04-0.48-0.2-0.59-0.43l-3.38-6.84l-3.38,6.84
		c-0.11,0.23-0.34,0.39-0.59,0.43l-7.55,1.1l5.46,5.33c0.19,0.18,0.27,0.44,0.23,0.7l-1.29,7.52l6.75-3.55
		C30.68,44.73,30.81,44.7,30.93,44.7z"/>
</g>
</svg>
