<?xml version="1.0" encoding="utf-8"?>
<!-- Generator: Adobe Illustrator 26.5.0, SVG Export Plug-In . SVG Version: 6.00 Build 0)  -->
<svg version="1.1" id="圖層_1" xmlns="http://www.w3.org/2000/svg" xmlns:xlink="http://www.w3.org/1999/xlink" x="0px" y="0px"
	 viewBox="0 0 100 100" style="enable-background:new 0 0 100 100;" xml:space="preserve">
<style type="text/css">
	.st0{fill:url(#SVGID_1_);}
	.st1{fill:url(#SVGID_00000049189229321827211100000016876517047469587077_);}
	.st2{fill:url(#SVGID_00000097498898818742108870000015234891533394655876_);}
	.st3{fill:url(#SVGID_00000155859682819366275060000016317254707586048145_);}
	.st4{fill:url(#SVGID_00000172427664113412401690000007800372351357810317_);}
	.st5{fill:url(#SVGID_00000136377499968057843820000014777400622599440034_);}
	.st6{fill:url(#SVGID_00000158024634391522067610000009444400515822655382_);}
	.st7{fill:url(#SVGID_00000062893807869655779180000016110703819138683801_);}
	.st8{fill:url(#SVGID_00000167392601833688202540000009083176993582579900_);}
	.st9{fill:url(#SVGID_00000106107059356446975020000018429801484918805144_);}
	.st10{fill:url(#SVGID_00000065768227378192652740000015708315610267533217_);}
	.st11{fill:url(#SVGID_00000172404045635469333630000018247295753024464779_);}
	.st12{fill:url(#SVGID_00000092458231828382458170000011775949435542183849_);}
	.st13{fill:url(#SVGID_00000096045385167846637390000008548613906853771946_);}
	.st14{fill:url(#SVGID_00000096045843848846402370000012613090248108534167_);}
	.st15{fill:url(#SVGID_00000175323450142945423870000005318219270495246726_);}
	.st16{fill:url(#SVGID_00000042726720458200153850000009402038715346259895_);}
	.st17{fill:url(#SVGID_00000013897751184812224050000008634705986216382115_);}
	.st18{fill:url(#SVGID_00000170258468922071601460000015369524405721361287_);}
	.st19{fill:url(#SVGID_00000168839419771330537700000011183128470554799776_);}
	.st20{fill:url(#SVGID_00000098181833669031748430000007997109157571729563_);}
	.st21{fill:url(#SVGID_00000173149562267283934690000013983279469293420676_);}
	.st22{fill:url(#SVGID_00000010311759738449237870000016014164447694876086_);}
	.st23{fill:url(#SVGID_00000002378297202853151360000018217515296468845232_);}
	.st24{fill:url(#SVGID_00000018948209151021011960000001896797274300784055_);}
	.st25{fill:url(#SVGID_00000173862739308380302930000012369391672887789736_);}
	.st26{fill:url(#SVGID_00000041281775627483080500000016956699428216714928_);}
	.st27{fill:url(#SVGID_00000178903888589959649180000011426040867365287827_);}
	.st28{fill:url(#SVGID_00000071541503556175644260000003534078901245179818_);}
	.st29{fill:url(#SVGID_00000140713209447564737970000000347934620129200028_);}
	.st30{fill:url(#SVGID_00000179625259708286356730000007264780567444664727_);}
	.st31{fill:url(#SVGID_00000103959382596055296490000016965497983703353000_);}
	.st32{fill:url(#SVGID_00000178914138622499449420000011580256165956085645_);}
	.st33{fill:url(#SVGID_00000041991320000375233900000004356770410707878022_);}
	.st34{fill:url(#SVGID_00000159465325797447326260000011003996327532792752_);}
	.st35{fill:url(#SVGID_00000056407098406998072420000003130235441841315764_);}
	.st36{fill:url(#SVGID_00000181056598534633225870000015866666259972667062_);}
	.st37{fill:url(#SVGID_00000104699417058211002550000016719248094632858506_);}
	.st38{fill:url(#SVGID_00000084514886708389671700000005128626633002826943_);}
	.st39{fill:url(#SVGID_00000002358383220219511190000016106389706292688553_);}
	.st40{fill:url(#SVGID_00000178166454492380571400000005177966291257603740_);}
	.st41{fill:url(#SVGID_00000180361571661201973010000003073364217238023576_);}
	.st42{fill:url(#SVGID_00000011728447828414270930000015073499437541156785_);}
	.st43{fill:url(#SVGID_00000175285806509146743300000004087373249192667808_);}
	.st44{fill:url(#SVGID_00000058547648596880337500000011957338552211509175_);}
	.st45{fill:url(#SVGID_00000164506300876086371690000013700362297964734393_);}
	.st46{fill:url(#SVGID_00000183951627582964318680000012361728598332389799_);}
	.st47{fill:url(#SVGID_00000020359190416901317630000012463439549691954869_);}
	.st48{fill:url(#SVGID_00000162350745094783914120000005350879668412560059_);}
	.st49{fill:url(#SVGID_00000096769853083056019250000007638143625088734374_);}
	.st50{fill:url(#SVGID_00000099643030892510018380000003453240523045125788_);}
	.st51{fill:url(#SVGID_00000167377867395813646450000010378697368555320458_);}
	.st52{fill:url(#SVGID_00000122679326590488382720000007318312595094193281_);}
	.st53{fill:url(#SVGID_00000081641672798553344810000014143873729119447185_);}
	.st54{fill:url(#SVGID_00000178164462380123150190000004412690441573180584_);}
	.st55{fill:url(#SVGID_00000143575523937496201380000016969040410863361671_);}
	.st56{fill:url(#SVGID_00000176726609290396845760000014821875662915900318_);}
	.st57{fill:url(#SVGID_00000175281239873201620310000004301164366011181215_);}
	.st58{fill:url(#SVGID_00000126291228088267089630000003843623092394305972_);}
	.st59{fill:url(#SVGID_00000046315523544306770390000011333327957391176869_);}
	.st60{fill:url(#SVGID_00000031893890586967398640000010798877944086983859_);}
	.st61{fill:url(#SVGID_00000013179025713808456710000017561421693068526241_);}
	.st62{fill:url(#SVGID_00000177479109707972662030000002477802198224942011_);}
	.st63{fill:url(#SVGID_00000181786573759353220430000008571988731589124744_);}
	.st64{fill:url(#SVGID_00000046307744955506157230000008223488278581770411_);}
	.st65{fill:url(#SVGID_00000100348157362477357630000000098790011259066807_);}
	.st66{fill:url(#SVGID_00000005952813058677717690000011550912718299236494_);}
	.st67{fill:url(#SVGID_00000140003412587663816880000003637457858912188061_);}
	.st68{fill:url(#SVGID_00000024703138335656744040000009222968633260388270_);}
	.st69{fill:url(#SVGID_00000112611266619655981700000004284664280811767712_);}
	.st70{fill:url(#SVGID_00000114034496084325990710000013769333639404735676_);}
	.st71{fill:url(#SVGID_00000151523996901540731620000002716177376913660583_);}
	.st72{fill:url(#SVGID_00000067933735964269819020000014633252979303909017_);}
	.st73{fill:url(#SVGID_00000062183258844822771070000002109321500681235879_);}
	.st74{fill:url(#SVGID_00000183210664115136117530000012199886494863313814_);}
	.st75{fill:url(#SVGID_00000145741309495029184540000014638927332287742909_);}
	.st76{fill:url(#SVGID_00000127748396599964496000000003816341459942566044_);}
	.st77{fill:url(#SVGID_00000163039913040494913420000011764354195863073722_);}
	.st78{fill:url(#SVGID_00000011744242098187047650000008786517636172716447_);}
	.st79{fill:url(#SVGID_00000116916638480244254370000013714412451888511677_);}
	.st80{fill:url(#SVGID_00000018227772402591700730000011327284430331166136_);}
	.st81{fill:url(#SVGID_00000017511179756641622010000003858897858936175788_);}
	.st82{fill:url(#SVGID_00000130628091978748170170000013495328138918421921_);}
	.st83{fill:url(#SVGID_00000046325193941382614760000006830970915667370677_);}
	.st84{fill:url(#SVGID_00000055701703965202131010000006856684078453261720_);}
	.st85{fill:url(#SVGID_00000127018355883107319460000012184988395125067951_);}
	.st86{fill:url(#SVGID_00000109730529588280188780000004328907270506181010_);}
	.st87{fill:url(#SVGID_00000051363352142552972330000010761106595131420845_);}
	.st88{fill:url(#SVGID_00000054237358529495282470000007219415865555318666_);}
	.st89{fill:url(#SVGID_00000023265034911911936190000008898047651361171330_);}
	.st90{fill:url(#SVGID_00000012465048061268811480000004610664926806825118_);}
	.st91{fill:url(#SVGID_00000024714321353430347190000015139352137314072736_);}
	.st92{fill:url(#SVGID_00000033326678787334130500000003274920500482384002_);}
	.st93{fill:url(#SVGID_00000140000855892631814570000014799670289083618233_);}
	.st94{fill:url(#SVGID_00000080899421678459589720000005010898038068746930_);}
	.st95{fill:url(#SVGID_00000082355385071722484570000003077643777784144789_);}
	.st96{fill:url(#SVGID_00000004543632870059804810000001429796999824414096_);}
	.st97{fill:url(#SVGID_00000088127407991276110500000006459704510818286745_);}
	.st98{fill:url(#SVGID_00000073689842828774215290000005058140336952680076_);}
	.st99{fill:url(#SVGID_00000165221446727136469060000013263100104220891818_);}
	.st100{fill:url(#SVGID_00000116953520864605883720000014064489735057877900_);}
	.st101{fill:url(#SVGID_00000036969832218930184700000016709952470788796084_);}
	.st102{fill:url(#SVGID_00000161620397476267910970000004254931936046105768_);}
	.st103{fill:url(#SVGID_00000168820723099926989300000005209793875675282075_);}
	.st104{fill:url(#SVGID_00000166662984879665229240000002451502179419314610_);}
	.st105{fill:url(#SVGID_00000064334187634322780820000007437574198339958144_);}
	.st106{fill:url(#SVGID_00000076583849682210240230000016197431939419444150_);}
	.st107{fill:url(#SVGID_00000163778794935353104910000017300028425777826980_);}
	.st108{fill:url(#SVGID_00000064350828614149372850000007429487534171130246_);}
	.st109{fill:url(#SVGID_00000108990702319827540160000010472155116240250554_);}
	.st110{fill:url(#SVGID_00000088101718773612026690000013173973003816596352_);}
	.st111{fill:url(#SVGID_00000136406279414168521530000000403531757079112337_);}
	.st112{fill:url(#SVGID_00000111186587790817768600000010199663549341036441_);}
	.st113{fill:url(#SVGID_00000004528170233776266930000015401960084983884431_);}
	.st114{fill:url(#SVGID_00000153677812674069437690000000979382890423635096_);}
	.st115{fill:url(#SVGID_00000158001086453948070320000013661449525270713508_);}
	.st116{fill:url(#SVGID_00000062168579563112027070000016142872393176511664_);}
	.st117{fill:url(#SVGID_00000156586739180216864960000015636793079122891187_);}
	.st118{fill:url(#SVGID_00000015351216353284458420000005454979169258463660_);}
	.st119{fill:url(#SVGID_00000029726248966527479600000003262702942293398918_);}
	.st120{fill:url(#SVGID_00000126303354361977097610000015765792905565881002_);}
	.st121{fill:url(#SVGID_00000023969217596752076570000014716930584422952087_);}
	.st122{fill:url(#SVGID_00000177470169401175491710000004778749694559311491_);}
	.st123{fill:url(#SVGID_00000131351732611466462630000001511214915392532146_);}
	.st124{fill:url(#SVGID_00000129186352835033627980000000399766378169288355_);}
	.st125{fill:url(#SVGID_00000009572029718337931250000014755573896055841449_);}
	.st126{fill:url(#SVGID_00000132771143845026259790000016947419048977961887_);}
	.st127{fill:#2C4F80;}
	.st128{fill:url(#SVGID_00000094576757457084959060000006649693466048220321_);}
	.st129{fill:url(#SVGID_00000047755554843904605180000011362765540408627360_);}
	.st130{fill:url(#SVGID_00000043440001720379863760000017477628352454758059_);}
	.st131{fill:url(#SVGID_00000112631323663482443230000016969362330269538238_);}
	.st132{fill:url(#SVGID_00000076581585139906516000000002207809660059988136_);}
	.st133{fill:url(#SVGID_00000112601713205130944480000015913204276815266194_);}
	.st134{fill:url(#SVGID_00000134939398128978421410000017663883678449330608_);}
	.st135{fill:url(#SVGID_00000017504098056081660280000000901938558788169914_);}
	.st136{fill:url(#SVGID_00000148619231759988060420000001794707905096598207_);}
	.st137{fill:url(#SVGID_00000085242551274520641610000003731853698263892647_);}
	.st138{fill:url(#SVGID_00000136407358267854877230000004511682924471913346_);}
	.st139{fill:url(#SVGID_00000018919638584396469610000014590441244203720331_);}
	.st140{fill:url(#SVGID_00000180344941966777992370000017850838286360927623_);}
	.st141{fill:url(#SVGID_00000181783190197911643620000001341120893202541717_);}
	.st142{fill:url(#SVGID_00000029768274201366253450000016122796508952488596_);}
	.st143{fill:url(#SVGID_00000065772923061865422660000006951874604834067073_);}
	.st144{fill:url(#SVGID_00000128463809603131109130000004354515121554759296_);}
	.st145{fill:url(#SVGID_00000116946200902623198870000005813093594132647855_);}
	.st146{fill:url(#SVGID_00000180360451781480219110000001599952690904005556_);}
	.st147{fill:url(#SVGID_00000048486439155356721970000017591038090175832993_);}
	.st148{fill:url(#SVGID_00000105407889487817924050000004027525929260207287_);}
	.st149{fill:url(#SVGID_00000182506409454839153770000018151850410437273220_);}
	.st150{fill:url(#SVGID_00000086690061611358888160000001407822622188217228_);}
	.st151{fill:url(#SVGID_00000061471057926637345390000012067275844188995237_);}
	.st152{fill:url(#SVGID_00000171684190875949825860000000327053576019638951_);}
	.st153{fill:url(#SVGID_00000040547649986445613670000008478012458190057649_);}
	.st154{fill:url(#SVGID_00000091723375948584456290000016750822719638918800_);}
	.st155{fill:url(#SVGID_00000005231940022979831260000007651954605196619936_);}
	.st156{fill:url(#SVGID_00000142157533475891718090000015503849517976811651_);}
	.st157{fill:url(#SVGID_00000071560967638848716550000002668511203311524232_);}
	.st158{fill:url(#SVGID_00000140693745523161747090000016721557996961748407_);}
	.st159{fill:url(#SVGID_00000149360979366722414160000007936839569659851939_);}
	.st160{fill:url(#SVGID_00000157268020771486054040000007998884479140974742_);}
	.st161{fill:url(#SVGID_00000137842811308198210480000012451632554626556035_);}
	.st162{fill:url(#SVGID_00000169554908467709679190000004289582201052758704_);}
	.st163{fill:url(#SVGID_00000140733878484589577610000002662043611869940137_);}
	.st164{fill:url(#SVGID_00000115481236586146387440000004641427881204042423_);}
	.st165{fill:url(#SVGID_00000124137020262078154220000005435920789184172222_);}
	.st166{fill:url(#SVGID_00000063610024567868491300000001196052879980115888_);}
	.st167{fill:url(#SVGID_00000145037807700625675120000004554331556669955727_);}
	.st168{fill:url(#SVGID_00000062873592416235305140000017681413417621745329_);}
	.st169{fill:url(#SVGID_00000092416344631493552100000011417813969767464618_);}
	.st170{fill:url(#SVGID_00000103972620588297439830000018079460642793310901_);}
	.st171{fill:url(#SVGID_00000071517506428648360200000000118376894782445201_);}
	.st172{fill:url(#SVGID_00000170980443376396616610000001891987263097795231_);}
	.st173{fill:url(#SVGID_00000090264848502917471940000008751980934297299629_);}
	.st174{fill:url(#SVGID_00000117647075198587990020000006324832334211023239_);}
	.st175{fill:url(#SVGID_00000134940645318322185290000000726867055746858116_);}
	.st176{fill:url(#SVGID_00000073721911305695706940000012234955019217074340_);}
	.st177{fill:url(#SVGID_00000116214998986960884910000003650227255253876614_);}
	.st178{fill:url(#SVGID_00000037672629710795866310000014249817863444424101_);}
	.st179{fill:url(#SVGID_00000150092015980819728150000002126138372932634007_);}
	.st180{fill:url(#SVGID_00000008128099179014200250000015569903051630096571_);}
	.st181{fill:url(#SVGID_00000008871916769067472990000012113942694017250230_);}
	.st182{fill:url(#SVGID_00000165954448051701652860000007891835615374568325_);}
	.st183{fill:url(#SVGID_00000087384321444471063610000008075003393035978399_);}
	.st184{fill:url(#SVGID_00000109752665210768136580000003324551523554183830_);}
	.st185{fill:url(#SVGID_00000175306879772382777710000008861500910936648071_);}
	.st186{fill:url(#SVGID_00000153666775447778174700000001051591279110663073_);}
	.st187{fill:url(#SVGID_00000100381677529391496030000015589788752914967983_);}
	.st188{fill:url(#SVGID_00000136395626013422371070000012825152406901728646_);}
	.st189{fill:url(#SVGID_00000118391812493899375900000008577516683745062540_);}
	.st190{fill:url(#SVGID_00000165214333287747460410000016075020034557085569_);}
	.st191{fill:url(#SVGID_00000102541608924611946400000002984455778155032997_);}
	.st192{fill:url(#SVGID_00000031891369663692112620000002427555349188034440_);}
	.st193{fill:url(#SVGID_00000152265668189041562160000004854233312595042722_);}
	.st194{fill:url(#SVGID_00000100365877439602428540000007530785313559981995_);}
	.st195{fill:url(#SVGID_00000084498906711630354500000016774880236570130078_);}
	.st196{fill:url(#SVGID_00000096744027309845773910000005762881503468559797_);}
	.st197{fill:url(#SVGID_00000061438070656501308050000018270339561900787347_);}
	.st198{fill:url(#SVGID_00000008870618596552086170000002799759601411535542_);}
	.st199{fill:url(#SVGID_00000078009033829743967230000007810995900519869075_);}
	.st200{fill:url(#SVGID_00000120522253186961278540000005884023376851577478_);}
	.st201{fill:url(#SVGID_00000049943487629603425180000006395310257399129504_);}
	.st202{fill:url(#SVGID_00000057114476479418697670000016035922745494736030_);}
	.st203{fill:url(#SVGID_00000020362034315399413610000000732199543003730596_);}
	.st204{fill:url(#SVGID_00000156576367809439246780000009282626193772115623_);}
	.st205{fill:url(#SVGID_00000048503599013697662190000000123196684372097724_);}
	.st206{fill:url(#SVGID_00000173869856874092390540000012914704457046727571_);}
	.st207{fill:url(#SVGID_00000113339333578435154740000004555843684038940583_);}
	.st208{fill:url(#SVGID_00000089573887169549475450000013820962573103717767_);}
	.st209{fill:url(#SVGID_00000113335006035626698570000005287203795886716341_);}
	.st210{fill:url(#SVGID_00000086667978672603657150000017366576499725565835_);}
	.st211{fill:url(#SVGID_00000085932904866234763950000013492747799487220909_);}
	.st212{fill:url(#SVGID_00000041985557426329486400000010678936969951005097_);}
	.st213{fill:url(#SVGID_00000052104698458830966670000015109607523643968446_);}
	.st214{fill:url(#SVGID_00000178207188613178204620000015889303463869936801_);}
	.st215{fill:url(#SVGID_00000086691592921639295080000010068062482026528169_);}
	.st216{fill:url(#SVGID_00000113317376700628717800000000129743482624620464_);}
	.st217{fill:url(#SVGID_00000093144777818556733740000013949760480044934054_);}
	.st218{fill:url(#SVGID_00000073696085796368914220000014275120746385919667_);}
	.st219{fill:url(#SVGID_00000183958705011141376610000017891327288405654958_);}
	.st220{fill:url(#SVGID_00000005227209908522220750000004578736057282480538_);}
	.st221{fill:url(#SVGID_00000002346476387093934990000014186225041764754090_);}
	.st222{fill:url(#SVGID_00000027578178049747454310000002435583495890674828_);}
	.st223{fill:url(#SVGID_00000093170372520307980570000010692021962858299801_);}
	.st224{fill:url(#SVGID_00000172400226068870105910000014972475627760757943_);}
	.st225{fill:url(#SVGID_00000148663288965948407120000007571223418402168253_);}
	.st226{fill:url(#SVGID_00000049183100185786065980000010914510925760151942_);}
	.st227{fill:url(#SVGID_00000178201485452058109650000001863534043360662400_);}
	.st228{fill:url(#SVGID_00000060739508530351487040000002865890112995396285_);}
</style>
<g>
	<linearGradient id="SVGID_1_" gradientUnits="userSpaceOnUse" x1="116.9901" y1="85.4091" x2="20.6053" y2="14.5491">
		<stop  offset="0.4" style="stop-color:#F39800"/>
		<stop  offset="0.9039" style="stop-color:#C42D1B"/>
	</linearGradient>
	<path class="st0" d="M28.83,18.27h-1.31v-1.31c0-0.43-0.35-0.79-0.79-0.79c-0.43,0-0.79,0.35-0.79,0.79v1.31h-1.31
		c-0.43,0-0.79,0.35-0.79,0.79c0,0.43,0.35,0.79,0.79,0.79h1.31v1.31c0,0.43,0.35,0.79,0.79,0.79c0.43,0,0.79-0.35,0.79-0.79v-1.31
		h1.31c0.43,0,0.79-0.35,0.79-0.79C29.62,18.62,29.27,18.27,28.83,18.27z"/>
	
		<linearGradient id="SVGID_00000028318186046652581990000002925671948924710307_" gradientUnits="userSpaceOnUse" x1="133.7752" y1="62.5778" x2="37.3904" y2="-8.2822">
		<stop  offset="0.4" style="stop-color:#F39800"/>
		<stop  offset="0.9039" style="stop-color:#C42D1B"/>
	</linearGradient>
	<path style="fill:url(#SVGID_00000028318186046652581990000002925671948924710307_);" d="M78.1,19.32h-1.31v-1.31
		c0-0.43-0.35-0.79-0.79-0.79c-0.43,0-0.79,0.35-0.79,0.79v1.31h-1.31c-0.43,0-0.79,0.35-0.79,0.79c0,0.43,0.35,0.79,0.79,0.79h1.31
		v1.31c0,0.43,0.35,0.79,0.79,0.79c0.43,0,0.79-0.35,0.79-0.79v-1.31h1.31c0.43,0,0.79-0.35,0.79-0.79
		C78.89,19.67,78.53,19.32,78.1,19.32z"/>
	
		<linearGradient id="SVGID_00000178897968083967148140000014832467871600430980_" gradientUnits="userSpaceOnUse" x1="105.7314" y1="100.7233" x2="9.3466" y2="29.8633">
		<stop  offset="0.4" style="stop-color:#F39800"/>
		<stop  offset="0.9039" style="stop-color:#C42D1B"/>
	</linearGradient>
	<path style="fill:url(#SVGID_00000178897968083967148140000014832467871600430980_);" d="M82.29,81.17h-1.31v-1.31
		c0-0.43-0.35-0.79-0.79-0.79c-0.43,0-0.79,0.35-0.79,0.79v1.31H78.1c-0.43,0-0.79,0.35-0.79,0.79c0,0.43,0.35,0.79,0.79,0.79h1.31
		v1.31c0,0.43,0.35,0.79,0.79,0.79c0.43,0,0.79-0.35,0.79-0.79v-1.31h1.31c0.43,0,0.79-0.35,0.79-0.79
		C83.08,81.52,82.73,81.17,82.29,81.17z"/>
	
		<linearGradient id="SVGID_00000063631698712245600720000011078624511958278028_" gradientUnits="userSpaceOnUse" x1="84.9004" y1="129.058" x2="-11.4844" y2="58.1981">
		<stop  offset="0.4" style="stop-color:#F39800"/>
		<stop  offset="0.9039" style="stop-color:#C42D1B"/>
	</linearGradient>
	<path style="fill:url(#SVGID_00000063631698712245600720000011078624511958278028_);" d="M21.5,80.12h-1.31v-1.31
		c0-0.43-0.35-0.79-0.79-0.79c-0.43,0-0.79,0.35-0.79,0.79v1.31H17.3c-0.43,0-0.79,0.35-0.79,0.79c0,0.43,0.35,0.79,0.79,0.79h1.31
		V83c0,0.43,0.35,0.79,0.79,0.79c0.43,0,0.79-0.35,0.79-0.79v-1.31h1.31c0.43,0,0.79-0.35,0.79-0.79
		C22.28,80.47,21.93,80.12,21.5,80.12z"/>
	
		<linearGradient id="SVGID_00000137124740364044914510000001192420172015788699_" gradientUnits="userSpaceOnUse" x1="110.9135" y1="93.6746" x2="14.5287" y2="22.8146">
		<stop  offset="0.4" style="stop-color:#F39800"/>
		<stop  offset="0.9039" style="stop-color:#C42D1B"/>
	</linearGradient>
	<path style="fill:url(#SVGID_00000137124740364044914510000001192420172015788699_);" d="M21.5,25.61h-1.31V24.3
		c0-0.43-0.35-0.79-0.79-0.79c-0.43,0-0.79,0.35-0.79,0.79v1.31H17.3c-0.43,0-0.79,0.35-0.79,0.79c0,0.43,0.35,0.79,0.79,0.79h1.31
		v1.31c0,0.43,0.35,0.79,0.79,0.79c0.43,0,0.79-0.35,0.79-0.79v-1.31h1.31c0.43,0,0.79-0.35,0.79-0.79
		C22.28,25.96,21.93,25.61,21.5,25.61z"/>
	
		<linearGradient id="SVGID_00000001622862862670113050000003387269554774985862_" gradientUnits="userSpaceOnUse" x1="121.6604" y1="79.0565" x2="25.2756" y2="8.1965">
		<stop  offset="0.4" style="stop-color:#F39800"/>
		<stop  offset="0.9039" style="stop-color:#C42D1B"/>
	</linearGradient>
	<path style="fill:url(#SVGID_00000001622862862670113050000003387269554774985862_);" d="M50.85,32.58c-2.84,0-5.15-2.5-5.15-5.58
		c0-3.08,2.31-5.58,5.15-5.58c2.84,0,5.15,2.5,5.15,5.58C55.99,30.07,53.68,32.58,50.85,32.58z M50.85,22.99
		c-1.97,0-3.57,1.8-3.57,4.01c0,2.21,1.6,4.01,3.57,4.01s3.57-1.8,3.57-4.01C54.42,24.78,52.82,22.99,50.85,22.99z"/>
	
		<linearGradient id="SVGID_00000031188976304305044570000015438438902316012429_" gradientUnits="userSpaceOnUse" x1="114.2014" y1="89.2023" x2="17.8166" y2="18.3424">
		<stop  offset="0.4" style="stop-color:#F39800"/>
		<stop  offset="0.9039" style="stop-color:#C42D1B"/>
	</linearGradient>
	<path style="fill:url(#SVGID_00000031188976304305044570000015438438902316012429_);" d="M50.06,46.57c0-0.44,0.36-0.79,0.79-0.79
		l0,0c0.44,0,0.79,0.35,0.79,0.79l0,0c0,0.43-0.35,0.79-0.79,0.79l0,0C50.41,47.35,50.06,47,50.06,46.57z M50.06,42.62
		c0-0.43,0.36-0.79,0.79-0.79l0,0c0.44,0,0.79,0.36,0.79,0.79l0,0c0,0.44-0.35,0.79-0.79,0.79l0,0
		C50.41,43.41,50.06,43.06,50.06,42.62z M50.06,38.68c0-0.43,0.36-0.79,0.79-0.79l0,0c0.44,0,0.79,0.36,0.79,0.79l0,0
		c0,0.44-0.35,0.79-0.79,0.79l0,0C50.41,39.47,50.06,39.12,50.06,38.68z"/>
	
		<linearGradient id="SVGID_00000078732338022455194330000004930228831972624543_" gradientUnits="userSpaceOnUse" x1="101.923" y1="105.9037" x2="5.5382" y2="35.0437">
		<stop  offset="0.4" style="stop-color:#F39800"/>
		<stop  offset="0.9039" style="stop-color:#C42D1B"/>
	</linearGradient>
	<path style="fill:url(#SVGID_00000078732338022455194330000004930228831972624543_);" d="M34.07,61.6c2.84,0,5.15-2.5,5.15-5.58
		c0-3.08-2.31-5.58-5.15-5.58c-2.84,0-5.15,2.5-5.15,5.58C28.93,59.1,31.24,61.6,34.07,61.6z M34.07,52.01
		c1.97,0,3.57,1.8,3.57,4.01c0,2.21-1.6,4.01-3.57,4.01s-3.57-1.8-3.57-4.01C30.5,53.81,32.1,52.01,34.07,52.01z"/>
	
		<linearGradient id="SVGID_00000062877712241772395770000003716145309137272224_" gradientUnits="userSpaceOnUse" x1="113.6931" y1="89.8938" x2="17.3083" y2="19.0338">
		<stop  offset="0.4" style="stop-color:#F39800"/>
		<stop  offset="0.9039" style="stop-color:#C42D1B"/>
	</linearGradient>
	<path style="fill:url(#SVGID_00000062877712241772395770000003716145309137272224_);" d="M67.62,50.44c-2.84,0-5.15,2.5-5.15,5.58
		c0,3.08,2.31,5.58,5.15,5.58c2.84,0,5.15-2.5,5.15-5.58C72.77,52.94,70.46,50.44,67.62,50.44z M67.62,60.03
		c-1.97,0-3.57-1.8-3.57-4.01c0-2.21,1.6-4.01,3.57-4.01c1.97,0,3.57,1.8,3.57,4.01C71.19,58.23,69.59,60.03,67.62,60.03z"/>
	
		<linearGradient id="SVGID_00000024684452634444048420000012400453259202870144_" gradientUnits="userSpaceOnUse" x1="109.5465" y1="95.534" x2="13.1617" y2="24.6741">
		<stop  offset="0.4" style="stop-color:#F39800"/>
		<stop  offset="0.9039" style="stop-color:#C42D1B"/>
	</linearGradient>
	<path style="fill:url(#SVGID_00000024684452634444048420000012400453259202870144_);" d="M85.18,50.5
		c0-18.93-15.4-34.33-34.33-34.33S16.51,31.57,16.51,50.5c0,2.46,0.26,4.85,0.76,7.16c-0.49,1.61-0.76,3.32-0.76,5.09
		c0,5.15,2.24,9.78,5.79,12.99c0.05,0.05,0.11,0.1,0.16,0.15c0.29,0.26,0.59,0.51,0.9,0.74c0.12,0.1,0.25,0.19,0.38,0.28
		c0.29,0.21,0.58,0.42,0.89,0.61c0.16,0.1,0.32,0.2,0.49,0.3c0.29,0.17,0.58,0.34,0.87,0.5c0.18,0.09,0.36,0.18,0.54,0.26
		c0.3,0.14,0.61,0.29,0.92,0.42c0.11,0.05,0.23,0.08,0.34,0.12c0.42,0.16,0.84,0.31,1.26,0.44c0.14,0.04,0.29,0.07,0.44,0.11
		c0.39,0.11,0.79,0.21,1.18,0.29c0.26,0.05,0.53,0.08,0.79,0.12c0.29,0.04,0.59,0.1,0.88,0.13c0.49,0.05,0.99,0.07,1.49,0.08
		c5.02,2.88,10.83,4.53,17.02,4.53c6.19,0,12-1.65,17.02-4.53c-0.08,0-0.16,0.01-0.24,0.01c0.08,0,0.16-0.01,0.24-0.01
		c0.5-0.01,1-0.03,1.49-0.08c0.3-0.03,0.59-0.08,0.89-0.13c0.26-0.04,0.53-0.07,0.78-0.12c0.4-0.08,0.8-0.19,1.19-0.29
		c0.14-0.04,0.29-0.07,0.43-0.11c0.43-0.13,0.85-0.28,1.27-0.44c0.11-0.04,0.23-0.08,0.34-0.12c0.31-0.13,0.61-0.27,0.91-0.42
		c0.18-0.09,0.37-0.17,0.55-0.26c0.3-0.16,0.59-0.33,0.88-0.5c0.16-0.1,0.33-0.19,0.48-0.29c0.3-0.19,0.6-0.4,0.89-0.61
		c0.13-0.09,0.25-0.18,0.37-0.28c0.31-0.24,0.6-0.48,0.9-0.74c0.05-0.05,0.11-0.1,0.16-0.15c3.55-3.21,5.79-7.84,5.79-12.99
		c0-1.77-0.27-3.48-0.76-5.09C84.91,55.36,85.18,52.96,85.18,50.5z M66.83,33.73c0,3.98-1.47,7.6-3.88,10.4v-3.69
		c0-2.24-1.43-4.21-3.57-4.9c-2.57-0.83-5.24-1.25-7.95-1.25h-0.7c-2.78,0-5.54,0.42-8.19,1.26c-2.15,0.68-3.6,2.65-3.6,4.91v3.88
		c-0.03-0.03-0.07-0.06-0.1-0.09c-2.47-2.81-3.98-6.49-3.98-10.52c0-8.81,7.17-15.99,15.99-15.99
		C59.66,17.75,66.83,24.92,66.83,33.73z M57.92,48.05v-5.32c0-0.43-0.35-0.79-0.79-0.79c-0.43,0-0.79,0.35-0.79,0.79v6v0.01
		c-0.09,0.03-0.19,0.06-0.28,0.09c-0.28,0.1-0.56,0.19-0.85,0.27c-0.19,0.06-0.39,0.1-0.59,0.15c-0.28,0.07-0.56,0.14-0.85,0.19
		c-0.22,0.04-0.44,0.07-0.65,0.1c-0.27,0.04-0.54,0.08-0.82,0.11c-0.29,0.03-0.58,0.03-0.87,0.04c-0.2,0.01-0.39,0.03-0.59,0.03
		c-0.2,0-0.4-0.02-0.59-0.03c-0.29-0.01-0.58-0.02-0.87-0.04c-0.28-0.03-0.55-0.07-0.82-0.11c-0.22-0.03-0.43-0.06-0.65-0.1
		c-0.29-0.05-0.57-0.12-0.85-0.19c-0.19-0.05-0.39-0.09-0.58-0.15c-0.29-0.08-0.57-0.17-0.86-0.27c-0.09-0.03-0.18-0.05-0.27-0.09
		v-0.01v-6c0-0.43-0.35-0.79-0.79-0.79c-0.43,0-0.79,0.35-0.79,0.79v5.32v0.01c-0.05-0.02-0.09-0.05-0.14-0.08
		c-1.13-0.57-2.18-1.28-3.13-2.09v-5.43c0-1.57,1.01-2.94,2.5-3.41c2.5-0.79,5.1-1.18,7.72-1.18h0.7c2.54,0,5.05,0.39,7.46,1.17
		c1.48,0.48,2.48,1.84,2.48,3.4v5.28c-0.03,0.03-0.06,0.07-0.1,0.09v0c0,0-0.01,0.01-0.01,0.01c-0.98,0.84-2.05,1.56-3.21,2.15
		c-0.05,0.02-0.09,0.06-0.14,0.08V48.05z M55.44,50.66c-0.22,0.06-0.44,0.12-0.67,0.17c-1.77,1.91-3.14,4.19-3.92,6.73
		c-0.79-2.54-2.15-4.83-3.92-6.73c-0.23-0.05-0.45-0.11-0.68-0.17c0.22,0.06,0.44,0.11,0.67,0.16c0.18,0.04,0.35,0.1,0.53,0.13
		c0.26,0.05,0.52,0.08,0.78,0.12c0.3,0.05,0.59,0.1,0.89,0.13c0.56,0.05,1.12,0.08,1.7,0.09c0.01,0,0.02,0,0.03,0
		c0.01,0,0.01,0,0.02,0c0.58,0,1.15-0.03,1.71-0.09c0.3-0.03,0.59-0.08,0.89-0.13c0.26-0.04,0.53-0.07,0.79-0.12
		c0.18-0.04,0.35-0.09,0.53-0.13C55,50.77,55.22,50.72,55.44,50.66z M44.55,50.1c-0.09-0.04-0.19-0.06-0.28-0.1c0,0,0,0,0,0
		c-0.02-0.01-0.03-0.01-0.05-0.02C44.33,50.02,44.44,50.06,44.55,50.1z M39.26,46.89c-0.05-0.04-0.11-0.08-0.16-0.13
		c-0.01-0.01-0.02-0.03-0.03-0.04C39.13,46.77,39.19,46.83,39.26,46.89z M40.86,19.31c-4.57,3.17-7.57,8.45-7.57,14.42
		c0,4.61,1.8,8.79,4.71,11.93c-1.26-0.29-2.57-0.46-3.92-0.46c-6.86,0-12.79,3.96-15.68,9.71c-0.19-1.44-0.3-2.91-0.3-4.4
		C18.09,35.92,27.67,23.54,40.86,19.31z M22.55,66.99c-0.31,0.66-0.49,1.4-0.49,2.17v0.03v4.09c-2.47-2.81-3.98-6.49-3.98-10.52
		c0-0.58,0.03-1.14,0.09-1.7c0.12-1.14,0.37-2.25,0.72-3.31c2.11-6.36,8.11-10.97,15.17-10.97c8.81,0,15.99,7.17,15.99,15.99
		c0,4.03-1.51,7.71-3.98,10.52v-4.14c0-2.24-1.44-4.21-3.57-4.9c-2.57-0.83-5.24-1.25-7.95-1.25h-0.49h-0.21
		c-2.78,0-5.54,0.42-8.19,1.26C24.25,64.69,23.15,65.71,22.55,66.99z M35.55,78.67c-0.23,0.02-0.46,0.03-0.69,0.04
		c-0.11,0.01-0.22,0.01-0.33,0.01c-0.09,0-0.18,0.01-0.27,0.01c-0.06,0-0.12,0.01-0.18,0.01c-0.15,0-0.3-0.02-0.45-0.02
		c-0.11,0-0.23-0.01-0.34-0.01c-0.23-0.01-0.46-0.02-0.69-0.04c-0.26-0.02-0.51-0.07-0.77-0.1c-0.23-0.03-0.47-0.06-0.7-0.11
		c-0.07-0.01-0.15-0.02-0.22-0.03c-0.01-0.01-0.02-0.02-0.03-0.02c-0.19-0.04-0.38-0.08-0.57-0.13c-0.2-0.05-0.4-0.1-0.6-0.15
		c-0.29-0.08-0.57-0.17-0.85-0.27c-0.09-0.03-0.18-0.05-0.27-0.09v-0.01V76.6v-2.1v-2.75c0-0.43-0.35-0.79-0.79-0.79
		c-0.43,0-0.79,0.35-0.79,0.79v1.19v2.24v1.9v0.01c-0.05-0.02-0.09-0.05-0.13-0.08c-1.16-0.59-2.24-1.31-3.22-2.16
		c0,0-0.01-0.01-0.01-0.01v0v-3.43v-2.25c0-0.13,0.02-0.25,0.03-0.38c0.15-1.41,1.1-2.6,2.47-3.03c2.32-0.73,4.72-1.11,7.15-1.16
		v13.55v0.57c0.11,0.01,0.23,0.01,0.34,0.02c0.21,0.01,0.42,0.01,0.63,0.01c0.09,0,0.18-0.01,0.27-0.01c0.11,0,0.22-0.01,0.33-0.02
		V64.57c2.44,0.03,4.85,0.41,7.17,1.16c1.48,0.48,2.48,1.84,2.48,3.4v5.71v0c-0.01,0-0.01,0.01-0.02,0.01
		c-0.98,0.84-2.05,1.56-3.21,2.15c-0.05,0.02-0.09,0.05-0.14,0.08v-0.01v-5.32c0-0.43-0.35-0.79-0.79-0.79
		c-0.43,0-0.79,0.35-0.79,0.79v6v0.01c-0.09,0.03-0.17,0.05-0.26,0.08c-0.29,0.1-0.58,0.19-0.87,0.28c-0.19,0.06-0.39,0.1-0.58,0.15
		c-0.28,0.07-0.56,0.13-0.84,0.19c-0.23,0.04-0.46,0.07-0.69,0.11C36.06,78.6,35.81,78.64,35.55,78.67z M64.91,80.08
		c-4.26,2.04-9.03,3.18-14.06,3.18c-5.03,0-9.8-1.14-14.06-3.18c-0.03,0-0.06,0.01-0.09,0.01c0.03,0,0.06-0.01,0.09-0.01
		c0.23-0.04,0.47-0.06,0.69-0.11c0.4-0.08,0.8-0.19,1.19-0.29c0.14-0.04,0.29-0.07,0.43-0.11c0.43-0.13,0.85-0.28,1.27-0.45
		c0.11-0.04,0.22-0.08,0.33-0.12c0.31-0.13,0.61-0.27,0.92-0.42c0.18-0.09,0.37-0.17,0.54-0.26c0.3-0.16,0.59-0.33,0.88-0.5
		c0.16-0.1,0.32-0.19,0.48-0.29c0.3-0.2,0.6-0.4,0.89-0.62c0.12-0.09,0.25-0.18,0.37-0.27c0.31-0.24,0.61-0.49,0.9-0.74
		c0.06-0.05,0.11-0.1,0.16-0.15c2.3-2.09,4.06-4.76,5-7.8c0.94,3.04,2.7,5.71,5,7.8c0.06,0.05,0.11,0.1,0.17,0.15
		c0.29,0.26,0.59,0.5,0.89,0.74c0.12,0.09,0.25,0.19,0.37,0.28c0.29,0.21,0.59,0.42,0.89,0.62c0.16,0.1,0.32,0.19,0.48,0.29
		c0.29,0.17,0.58,0.35,0.89,0.5c0.17,0.09,0.35,0.17,0.53,0.26c0.31,0.15,0.61,0.3,0.93,0.42c0.1,0.04,0.21,0.08,0.32,0.12
		c0.43,0.16,0.85,0.32,1.29,0.45c0.14,0.04,0.28,0.07,0.43,0.11c0.4,0.11,0.8,0.21,1.2,0.29C64.45,80.02,64.68,80.05,64.91,80.08
		c0.03,0,0.06,0.01,0.09,0.01C64.97,80.09,64.94,80.09,64.91,80.08z M78.05,71.41v3.43v0c0,0-0.01,0-0.01,0.01
		c-0.98,0.84-2.06,1.57-3.22,2.16c-0.05,0.02-0.09,0.05-0.13,0.08v-0.01v-1.9v-2.24v-1.19c0-0.43-0.35-0.79-0.79-0.79
		c-0.43,0-0.79,0.35-0.79,0.79v2.75v2.1v1.15v0.01c-0.09,0.03-0.18,0.06-0.27,0.09c-0.28,0.1-0.56,0.19-0.85,0.27
		c-0.2,0.06-0.4,0.11-0.6,0.16c-0.2,0.05-0.4,0.11-0.6,0.15c-0.07,0.01-0.15,0.02-0.22,0.03c-0.23,0.04-0.47,0.07-0.71,0.11
		c-0.25,0.04-0.5,0.08-0.76,0.1c-0.34,0.03-0.69,0.04-1.04,0.05c-0.15,0-0.29,0.02-0.44,0.02c-0.06,0-0.12-0.01-0.18-0.01
		c-0.09,0-0.18-0.01-0.27-0.01c-0.34-0.01-0.68-0.02-1.02-0.05c-0.26-0.02-0.52-0.07-0.78-0.1c-0.23-0.03-0.46-0.06-0.69-0.11
		c-0.28-0.05-0.56-0.12-0.84-0.19c-0.19-0.05-0.39-0.1-0.58-0.15c-0.29-0.08-0.58-0.18-0.87-0.28c-0.09-0.03-0.18-0.05-0.26-0.08
		v-0.01v-6c0-0.43-0.35-0.79-0.79-0.79c-0.43,0-0.79,0.35-0.79,0.79v5.32v0.01c-0.05-0.02-0.09-0.06-0.14-0.08
		c-1.16-0.59-2.24-1.31-3.21-2.15c0,0-0.01-0.01-0.01-0.01v0v-5.69c0-1.57,1.01-2.94,2.5-3.41c2.32-0.73,4.72-1.11,7.15-1.16v3.31
		c0,0.43,0.35,0.79,0.79,0.79c0.43,0,0.79-0.35,0.79-0.79v-3.32c2.44,0.03,4.85,0.41,7.17,1.16c1.37,0.44,2.31,1.64,2.45,3.04
		c0.01,0.12,0.03,0.24,0.03,0.36V71.41z M79.63,73.28v-4.09v-0.06c0-0.76-0.18-1.49-0.48-2.15c-0.59-1.28-1.68-2.29-3.09-2.74
		c-2.57-0.83-5.24-1.25-7.95-1.25h-0.49h-0.21c-2.78,0-5.54,0.42-8.19,1.26c-2.15,0.68-3.6,2.65-3.6,4.91v4.12
		c-2.47-2.81-3.98-6.49-3.98-10.52c0-8.81,7.17-15.99,15.99-15.99c7.06,0,13.06,4.61,15.17,10.97c0.35,1.06,0.6,2.17,0.72,3.31
		c0.06,0.56,0.09,1.13,0.09,1.7C83.61,66.79,82.1,70.46,79.63,73.28z M83.3,54.9c-2.89-5.75-8.82-9.71-15.68-9.71
		c-1.35,0-2.66,0.17-3.92,0.46c2.91-3.14,4.71-7.32,4.71-11.93c0-5.97-3-11.25-7.57-14.42c13.19,4.23,22.77,16.62,22.77,31.2
		C83.61,52,83.5,53.46,83.3,54.9z"/>
</g>
</svg>
