<?xml version="1.0" encoding="utf-8"?>
<!-- Generator: Adobe Illustrator 26.5.0, SVG Export Plug-In . SVG Version: 6.00 Build 0)  -->
<svg version="1.1" id="圖層_1" xmlns="http://www.w3.org/2000/svg" xmlns:xlink="http://www.w3.org/1999/xlink" x="0px" y="0px"
	 viewBox="0 0 100 100" style="enable-background:new 0 0 100 100;" xml:space="preserve">
<style type="text/css">
	.st0{fill:url(#SVGID_1_);}
	.st1{fill:url(#SVGID_00000169520680348263852440000012010912009513298362_);}
	.st2{fill:url(#SVGID_00000169522664579968762470000006118295142322133642_);}
	.st3{fill:url(#SVGID_00000109023347358196367640000001406004671986052278_);}
	.st4{fill:url(#SVGID_00000110437473459794353940000008640228751073329296_);}
	.st5{fill:url(#SVGID_00000084531028001522965870000018183417440397951115_);}
	.st6{fill:url(#SVGID_00000083807385202274907580000006416632379289947058_);}
	.st7{fill:url(#SVGID_00000135666867129449168330000010102678174950518186_);}
	.st8{fill:url(#SVGID_00000174569521259749927440000007835629600984645792_);}
	.st9{fill:url(#SVGID_00000101103910542375671860000015484174735451689377_);}
	.st10{fill:url(#SVGID_00000057125548523598138270000016468387853352729993_);}
	.st11{fill:url(#SVGID_00000000218675867296457450000017492020572448143771_);}
	.st12{fill:url(#SVGID_00000042709120617487444910000009707109950986096284_);}
	.st13{fill:url(#SVGID_00000087375034645135177640000017780110007934262191_);}
	.st14{fill:url(#SVGID_00000168102403397982324660000009605958822834326165_);}
	.st15{fill:url(#SVGID_00000159466974644070108760000002580840189409110173_);}
	.st16{fill:url(#SVGID_00000117638482133274935860000007531756794784599439_);}
	.st17{fill:url(#SVGID_00000058567043829364459660000011942960884456525742_);}
	.st18{fill:url(#SVGID_00000148661282341060042990000004240418990862877604_);}
	.st19{fill:url(#SVGID_00000005988802978063437530000017789093854274457241_);}
	.st20{fill:url(#SVGID_00000080886923295579129850000016118544320470124440_);}
	.st21{fill:url(#SVGID_00000111163796783804140340000010749432480437205157_);}
	.st22{fill:url(#SVGID_00000142888541780902105070000011676681889281259926_);}
	.st23{fill:url(#SVGID_00000044897010971922845530000000057666563057924018_);}
	.st24{fill:url(#SVGID_00000002357825363440668400000007969218653289585855_);}
	.st25{fill:url(#SVGID_00000055699106163387490300000015184795957991057797_);}
	.st26{fill:url(#SVGID_00000001653305203270854400000001063675032030048943_);}
	.st27{fill:url(#SVGID_00000085249445554992801130000005729674259450795151_);}
	.st28{fill:url(#SVGID_00000001626986255690071620000011095414383126225312_);}
	.st29{fill:url(#SVGID_00000057132913433205898900000004433370208002771338_);}
	.st30{fill:url(#SVGID_00000175319615872717985450000006261046757628325767_);}
	.st31{fill:url(#SVGID_00000155122677968885241610000003392481128670668196_);}
	.st32{fill:url(#SVGID_00000091007622795166107730000008043897692089775264_);}
	.st33{fill:url(#SVGID_00000113349161304294446720000009268990055797356695_);}
	.st34{fill:url(#SVGID_00000121964168968107795480000012552097862435635124_);}
	.st35{fill:url(#SVGID_00000067228858316374197600000013068909395217923242_);}
	.st36{fill:url(#SVGID_00000182520457967818016210000004070044674827972763_);}
	.st37{fill:url(#SVGID_00000091727986121720814410000006081688128233198004_);}
	.st38{fill:url(#SVGID_00000145042867501177695740000009351966183239618718_);}
	.st39{fill:url(#SVGID_00000111164498293835101930000017548345129768553112_);}
	.st40{fill:url(#SVGID_00000168828693026257893670000008720286413906513587_);}
	.st41{fill:url(#SVGID_00000069356410947362201870000007384233636081007029_);}
	.st42{fill:url(#SVGID_00000025436763291459579770000003858841551901878171_);}
	.st43{fill:url(#SVGID_00000060743546376245950810000005519279669423014034_);}
	.st44{fill:url(#SVGID_00000170245736159677154280000008844955509192389822_);}
	.st45{fill:url(#SVGID_00000000903070844852495110000010334497403880937652_);}
	.st46{fill:url(#SVGID_00000139258447593413519250000010945494271977726118_);}
	.st47{fill:url(#SVGID_00000159441742395231407680000001149821306407662223_);}
	.st48{fill:url(#SVGID_00000060028600131574363200000013399702819374006406_);}
	.st49{fill:url(#SVGID_00000051362275911442406570000017466491880233351322_);}
	.st50{fill:url(#SVGID_00000181769076124554022390000011488351950397354393_);}
	.st51{fill:url(#SVGID_00000045601418459095793620000008238696072722074814_);}
	.st52{fill:url(#SVGID_00000168118289704814025560000015277434231332321205_);}
	.st53{fill:url(#SVGID_00000167372968764232045490000009320595701646956949_);}
	.st54{fill:url(#SVGID_00000066485708329549180580000008011564603238016897_);}
	.st55{fill:url(#SVGID_00000102542646484873185680000014810631270855126418_);}
	.st56{fill:url(#SVGID_00000018213592253255237930000001153391709387723964_);}
	.st57{fill:url(#SVGID_00000067199888828121366680000002172358800154143135_);}
	.st58{fill:url(#SVGID_00000025408352150188021760000012769943116435442079_);}
	.st59{fill:url(#SVGID_00000037654197940917054210000002630626537433860027_);}
	.st60{fill:url(#SVGID_00000110447389494747731850000006668044467275897734_);}
	.st61{fill:url(#SVGID_00000106863567813442197400000006375432682927492754_);}
	.st62{fill:url(#SVGID_00000072980896184076558970000017310661323065907109_);}
	.st63{fill:url(#SVGID_00000180340190967791667210000014463628716784763033_);}
	.st64{fill:url(#SVGID_00000152242845608352201020000006517224429129885590_);}
	.st65{fill:url(#SVGID_00000111178758905802484970000002331445975446949788_);}
	.st66{fill:url(#SVGID_00000065043603576950646350000001485039787703101865_);}
	.st67{fill:url(#SVGID_00000050627382610953602800000015595273198707977100_);}
	.st68{fill:url(#SVGID_00000134952603487763375700000012846147718329504923_);}
	.st69{fill:url(#SVGID_00000116222879510877097040000003697839392859617193_);}
	.st70{fill:url(#SVGID_00000033342923195162189570000014578782858723084972_);}
	.st71{fill:url(#SVGID_00000094608200347064214150000007042695027699437464_);}
	.st72{fill:url(#SVGID_00000142871348318773931430000014516053959921093514_);}
	.st73{fill:url(#SVGID_00000171682776221461279510000005882655558240591243_);}
	.st74{fill:url(#SVGID_00000021089006393115854140000011637586809357464492_);}
	.st75{fill:url(#SVGID_00000039096140163381649320000002422021917027761573_);}
	.st76{fill:url(#SVGID_00000038388674047941658570000009785190737920075427_);}
	.st77{fill:url(#SVGID_00000101817923388923895590000004239705635516524712_);}
	.st78{fill:url(#SVGID_00000178919365057915985950000006735831178424383166_);}
	.st79{fill:url(#SVGID_00000080174200123581263540000013688345719424809351_);}
	.st80{fill:url(#SVGID_00000075883274101146996170000013777250053803859898_);}
	.st81{fill:url(#SVGID_00000114766424893359395600000004350649148586396811_);}
	.st82{fill:url(#SVGID_00000084523578240588401840000013825719335944540296_);}
	.st83{fill:url(#SVGID_00000031923602692234863280000009096648397590810796_);}
	.st84{fill:url(#SVGID_00000137828740092186805810000015292223010953368472_);}
	.st85{fill:url(#SVGID_00000136403507392217088880000004391891730499260578_);}
	.st86{fill:url(#SVGID_00000125566651598955268070000009985127416504988066_);}
	.st87{fill:url(#SVGID_00000097501657665153425400000007655561383726494348_);}
	.st88{fill:url(#SVGID_00000128455572036502481770000002794316646410392458_);}
	.st89{fill:url(#SVGID_00000064320578375040301350000006834542225051502978_);}
	.st90{fill:url(#SVGID_00000150075795520703742860000006406475392982640043_);}
	.st91{fill:url(#SVGID_00000116922802591973683570000015878492334285319332_);}
	.st92{fill:url(#SVGID_00000110454261324546235260000003006759508018913945_);}
	.st93{fill:url(#SVGID_00000152258114390482845960000010441392442769108610_);}
	.st94{fill:url(#SVGID_00000110442254890390520990000010128422115945225399_);}
	.st95{fill:url(#SVGID_00000043418973199583577920000000597779779651505587_);}
	.st96{fill:url(#SVGID_00000093167972634179569340000007550667831321629568_);}
	.st97{fill:url(#SVGID_00000100373908081039279360000013883088365951679673_);}
	.st98{fill:url(#SVGID_00000047037527726118461900000013961943600136711305_);}
	.st99{fill:url(#SVGID_00000060712098584276689560000003470181354350406332_);}
	.st100{fill:url(#SVGID_00000051373518005119468850000013964722479036347523_);}
	.st101{fill:url(#SVGID_00000134970372868861015890000017921177034708975745_);}
	.st102{fill:url(#SVGID_00000072966826940443202240000015365854488540337811_);}
	.st103{fill:url(#SVGID_00000107582950926645122240000005262771551843005825_);}
	.st104{fill:url(#SVGID_00000165213574610103980580000011360350137778643108_);}
	.st105{fill:url(#SVGID_00000096038342756885378110000005688373781731969161_);}
	.st106{fill:url(#SVGID_00000162349545197587384530000007948174230344582319_);}
	.st107{fill:url(#SVGID_00000162326489261894796430000001304705800804142764_);}
	.st108{fill:url(#SVGID_00000049911997894929433450000002471974005749282471_);}
	.st109{fill:url(#SVGID_00000073716560077306140030000007252968758646907278_);}
	.st110{fill:url(#SVGID_00000005235172404653129850000013732306667046487219_);}
	.st111{fill:url(#SVGID_00000147204587894347268270000001059335629426776493_);}
	.st112{fill:url(#SVGID_00000062170691918527694130000011993252978983318417_);}
	.st113{fill:url(#SVGID_00000139263369461900874680000000479504504727955376_);}
	.st114{fill:url(#SVGID_00000081611879330811844750000006883931231018417818_);}
	.st115{fill:url(#SVGID_00000003820597269355688430000001716708909984901028_);}
	.st116{fill:url(#SVGID_00000016041466401813489940000009412326578620396465_);}
	.st117{fill:url(#SVGID_00000168839910782230805720000016869049008032095163_);}
	.st118{fill:url(#SVGID_00000155830157927238279330000018011979762734820779_);}
	.st119{fill:url(#SVGID_00000175282262189479453740000006253246995979548341_);}
	.st120{fill:url(#SVGID_00000062901836942510334950000001265878090757181345_);}
	.st121{fill:url(#SVGID_00000018208408506993985070000016627042948781107864_);}
	.st122{fill:url(#SVGID_00000001644760441002685540000007573106651417980045_);}
	.st123{fill:url(#SVGID_00000028316957254103167840000006563123817966192569_);}
	.st124{fill:url(#SVGID_00000128452843177642507290000006102910643324934535_);}
	.st125{fill:url(#SVGID_00000053509773033536955910000013196732232184253101_);}
	.st126{fill:url(#SVGID_00000178200098954842642760000010578204523927472034_);}
	.st127{fill:#2C4F80;}
	.st128{fill:url(#SVGID_00000183242270943394755650000004214699407906463617_);}
	.st129{fill:url(#SVGID_00000070082354953658260490000001717702161717907854_);}
	.st130{fill:url(#SVGID_00000179618400800110445700000013691886843130489991_);}
	.st131{fill:url(#SVGID_00000001655487564000191760000011428810227250719118_);}
	.st132{fill:url(#SVGID_00000147205251802030002380000004161908813945578653_);}
	.st133{fill:url(#SVGID_00000157278488968968450080000002035150131814196874_);}
	.st134{fill:url(#SVGID_00000109722600411413705640000015429653334126983584_);}
	.st135{fill:url(#SVGID_00000094619758619834514730000001592369119753227181_);}
	.st136{fill:url(#SVGID_00000138572664941278191100000001156726554749511355_);}
	.st137{fill:url(#SVGID_00000150101969013070235510000017822014197892893608_);}
	.st138{fill:url(#SVGID_00000129907061493160566780000015818493883121799091_);}
	.st139{fill:url(#SVGID_00000111898116931225822920000001144698569822278837_);}
	.st140{fill:url(#SVGID_00000136384387796265122400000011386759531579267459_);}
	.st141{fill:url(#SVGID_00000052810478707424506760000016195588598312882579_);}
	.st142{fill:url(#SVGID_00000149352217294766810330000009177686370921947791_);}
	.st143{fill:url(#SVGID_00000105392654792568345970000013370299008931697799_);}
	.st144{fill:url(#SVGID_00000156572696671799995730000008441257676245441170_);}
	.st145{fill:url(#SVGID_00000113325332372830691400000008716884727316780688_);}
	.st146{fill:url(#SVGID_00000052089594769911813610000018376529354990891922_);}
	.st147{fill:url(#SVGID_00000062871810641929245280000001922552283319483794_);}
	.st148{fill:url(#SVGID_00000125587104236882257370000015304429311714300345_);}
	.st149{fill:url(#SVGID_00000129199405110197699690000015206019796592864400_);}
	.st150{fill:url(#SVGID_00000155841590414775830620000007959152165243967921_);}
	.st151{fill:url(#SVGID_00000172423606149141946620000018004057090168531363_);}
	.st152{fill:url(#SVGID_00000027572852061875596900000005608394104506564797_);}
	.st153{fill:url(#SVGID_00000084524714255785081940000013005820547322967472_);}
	.st154{fill:url(#SVGID_00000159451437624662246230000005725402940864981641_);}
	.st155{fill:url(#SVGID_00000099629426911001821910000000110456486311744436_);}
	.st156{fill:url(#SVGID_00000050661639321922206290000006944580973043676310_);}
	.st157{fill:url(#SVGID_00000056410811400106976120000012042383533501055158_);}
	.st158{fill:url(#SVGID_00000086691798439703501200000011601233646325626288_);}
	.st159{fill:url(#SVGID_00000181771446376024614250000011429758079823733901_);}
	.st160{fill:url(#SVGID_00000040575817509447200230000000015876461760280719_);}
	.st161{fill:url(#SVGID_00000033342568507591022600000005933625364622911670_);}
	.st162{fill:url(#SVGID_00000005977686096975443510000000840024307877220224_);}
	.st163{fill:url(#SVGID_00000143606927394477337950000008134477554179287981_);}
	.st164{fill:url(#SVGID_00000034073521315183590690000002233347221520576440_);}
	.st165{fill:url(#SVGID_00000084527338004337852470000008003125011721831048_);}
	.st166{fill:url(#SVGID_00000005945166776658411850000011933058542698124166_);}
	.st167{fill:url(#SVGID_00000179632357034927499530000007575074841761741696_);}
	.st168{fill:url(#SVGID_00000127729704869507759550000017496993870312701598_);}
	.st169{fill:url(#SVGID_00000044147384880961178330000008489785723220283562_);}
	.st170{fill:url(#SVGID_00000021085163374180907810000004852026839857048467_);}
	.st171{fill:url(#SVGID_00000012440138367046226760000010806158809207440274_);}
	.st172{fill:url(#SVGID_00000061465864518581042830000015643212171451569328_);}
	.st173{fill:url(#SVGID_00000041985593359338927610000007654407921078468538_);}
	.st174{fill:url(#SVGID_00000083058555186870707620000015288429331287581623_);}
	.st175{fill:url(#SVGID_00000012447122219709341710000017185660709621201578_);}
	.st176{fill:url(#SVGID_00000000191314362678370770000005070779056461651094_);}
	.st177{fill:url(#SVGID_00000027604869948672771940000008318313670398820017_);}
	.st178{fill:url(#SVGID_00000054267524406378973700000007141183032979282097_);}
	.st179{fill:url(#SVGID_00000109746818224670983310000010073343666851070849_);}
	.st180{fill:url(#SVGID_00000178205067456865579650000006969641024586018473_);}
	.st181{fill:url(#SVGID_00000011732121755473430270000008907663450919207052_);}
	.st182{fill:url(#SVGID_00000098899100308123032520000003264081400978947757_);}
	.st183{fill:url(#SVGID_00000175300732534638509270000000692730535608021918_);}
	.st184{fill:url(#SVGID_00000024685724165265402080000011532779473656767137_);}
	.st185{fill:url(#SVGID_00000059304304971571763980000000565469660655882903_);}
	.st186{fill:url(#SVGID_00000155832459517699834060000013700572040075068583_);}
	.st187{fill:url(#SVGID_00000139989402469732596920000000685482536480124049_);}
	.st188{fill:url(#SVGID_00000072980675156331380920000017296937709824557471_);}
	.st189{fill:url(#SVGID_00000062152520795486535520000009404367984572927664_);}
	.st190{fill:url(#SVGID_00000005231970217564945910000007053886331580060578_);}
	.st191{fill:url(#SVGID_00000052823042016698806660000006212590841413632944_);}
	.st192{fill:url(#SVGID_00000179641233017088108240000008700745946084163720_);}
	.st193{fill:url(#SVGID_00000137126352656344062690000010538197007486932873_);}
	.st194{fill:url(#SVGID_00000006676414010369227720000000422099181203091104_);}
	.st195{fill:url(#SVGID_00000168814883077039392580000014730789455477481641_);}
	.st196{fill:url(#SVGID_00000078740135372766500440000013149216787550827410_);}
	.st197{fill:url(#SVGID_00000012452471357827016000000004704948742224463027_);}
	.st198{fill:url(#SVGID_00000017503711374696107640000010384695898476765824_);}
	.st199{fill:url(#SVGID_00000116230300767177920370000008639194803578230432_);}
	.st200{fill:url(#SVGID_00000029747790680218787440000003305406046348507789_);}
	.st201{fill:url(#SVGID_00000016753672780565138330000004515964080046351497_);}
	.st202{fill:url(#SVGID_00000138567242972302267410000002806712004351707548_);}
	.st203{fill:url(#SVGID_00000016037534061006641300000013422145238235983756_);}
	.st204{fill:url(#SVGID_00000033344576465704587050000017791797716359171471_);}
	.st205{fill:url(#SVGID_00000042703303825744646920000016466558324318590337_);}
	.st206{fill:url(#SVGID_00000151514185685138697090000008219587531448281019_);}
	.st207{fill:url(#SVGID_00000054260045967725997640000012623672475495912376_);}
	.st208{fill:url(#SVGID_00000000930119451343071440000008490161698448095644_);}
	.st209{fill:url(#SVGID_00000088113752515048576610000003758379413055769754_);}
	.st210{fill:url(#SVGID_00000101816675589859200700000008996811662273838526_);}
	.st211{fill:url(#SVGID_00000020381520348999627100000005891029461178930837_);}
	.st212{fill:url(#SVGID_00000117661269908867438360000001218169723130389889_);}
	.st213{fill:url(#SVGID_00000067930356085716839730000007941103027106315697_);}
	.st214{fill:url(#SVGID_00000008108652903640261010000017581662292166315710_);}
	.st215{fill:url(#SVGID_00000020389928988314941720000016055020874952990598_);}
	.st216{fill:url(#SVGID_00000162343402336741496000000005357236716203349130_);}
	.st217{fill:url(#SVGID_00000044135381567178722200000002598179099572878734_);}
	.st218{fill:url(#SVGID_00000151517599349729543660000008611121723099099528_);}
	.st219{fill:url(#SVGID_00000044893362436577965160000005001928535260716421_);}
	.st220{fill:url(#SVGID_00000070834631950161750070000009726940849371173267_);}
	.st221{fill:url(#SVGID_00000060002381395284232520000008759011067595099298_);}
	.st222{fill:url(#SVGID_00000112630451856929619550000015109227514156985275_);}
	.st223{fill:url(#SVGID_00000000902122436146058770000015820223276526912645_);}
	.st224{fill:url(#SVGID_00000072972140704018580060000002101862356095558049_);}
	.st225{fill:url(#SVGID_00000018230221480079947780000015989392211040861064_);}
	.st226{fill:url(#SVGID_00000117666390104948444790000006705372053208433577_);}
	.st227{fill:url(#SVGID_00000088134696643718434160000004406384717235701144_);}
	.st228{fill:url(#SVGID_00000073698580932552859880000002735462267806255785_);}
</style>
<g>
	<g>
		<linearGradient id="SVGID_1_" gradientUnits="userSpaceOnUse" x1="90.0305" y1="75.0915" x2="17.776" y2="21.6639">
			<stop  offset="0.4" style="stop-color:#F39800"/>
			<stop  offset="0.9039" style="stop-color:#C42D1B"/>
		</linearGradient>
		<path class="st0" d="M82.16,71.61h-64c-0.41,0-0.75-0.34-0.75-0.75v-49c0-2.07,1.68-3.75,3.75-3.75h58c2.07,0,3.75,1.68,3.75,3.75
			v49C82.91,71.28,82.57,71.61,82.16,71.61z M18.91,70.11h62.5V21.86c0-1.24-1.01-2.25-2.25-2.25h-58c-1.24,0-2.25,1.01-2.25,2.25
			V70.11z"/>
		
			<linearGradient id="SVGID_00000176042967545622025190000000006727026684194211_" gradientUnits="userSpaceOnUse" x1="73.6629" y1="97.2266" x2="1.4085" y2="43.7991">
			<stop  offset="0.4" style="stop-color:#F39800"/>
			<stop  offset="0.9039" style="stop-color:#C42D1B"/>
		</linearGradient>
		<path style="fill:url(#SVGID_00000176042967545622025190000000006727026684194211_);" d="M63.16,83.61h-26
			c-0.41,0-0.75-0.33-0.75-0.74l-0.05-6c0-0.2,0.08-0.39,0.22-0.53c0.14-0.14,0.33-0.22,0.53-0.22h26.1c0.2,0,0.39,0.08,0.53,0.22
			c0.14,0.14,0.22,0.33,0.22,0.53l-0.05,6C63.9,83.28,63.57,83.61,63.16,83.61z M37.9,82.11h24.51l0.04-4.5H37.87L37.9,82.11z"/>
		
			<linearGradient id="SVGID_00000071544165405555890790000015254874150806175659_" gradientUnits="userSpaceOnUse" x1="72.2208" y1="99.1769" x2="-0.0336" y2="45.7493">
			<stop  offset="0.4" style="stop-color:#F39800"/>
			<stop  offset="0.9039" style="stop-color:#C42D1B"/>
		</linearGradient>
		<path style="fill:url(#SVGID_00000071544165405555890790000015254874150806175659_);" d="M70.16,83.61h-40
			c-0.41,0-0.75-0.34-0.75-0.75c0-0.41,0.34-0.75,0.75-0.75h40c0.41,0,0.75,0.34,0.75,0.75C70.91,83.28,70.57,83.61,70.16,83.61z"/>
		
			<linearGradient id="SVGID_00000115506484761959206800000014533626514182528682_" gradientUnits="userSpaceOnUse" x1="76.8787" y1="92.8776" x2="4.6243" y2="39.4501">
			<stop  offset="0.4" style="stop-color:#F39800"/>
			<stop  offset="0.9039" style="stop-color:#C42D1B"/>
		</linearGradient>
		<path style="fill:url(#SVGID_00000115506484761959206800000014533626514182528682_);" d="M79.16,77.61h-58
			c-2.07,0-3.75-1.68-3.75-3.75v-3c0-0.41,0.34-0.75,0.75-0.75h64c0.41,0,0.75,0.34,0.75,0.75v3
			C82.91,75.93,81.23,77.61,79.16,77.61z M18.91,71.61v2.25c0,1.24,1.01,2.25,2.25,2.25h58c1.24,0,2.25-1.01,2.25-2.25v-2.25H18.91z
			"/>
		
			<linearGradient id="SVGID_00000080201361481083935520000011213295992156557214_" gradientUnits="userSpaceOnUse" x1="86.8077" y1="79.4499" x2="14.5533" y2="26.0223">
			<stop  offset="0.4" style="stop-color:#F39800"/>
			<stop  offset="0.9039" style="stop-color:#C42D1B"/>
		</linearGradient>
		<path style="fill:url(#SVGID_00000080201361481083935520000011213295992156557214_);" d="M27.16,37.61h-4
			c-0.96,0-1.75-0.79-1.75-1.75v-4c0-0.96,0.79-1.75,1.75-1.75h4c0.96,0,1.75,0.79,1.75,1.75v4C28.91,36.83,28.12,37.61,27.16,37.61
			z M23.16,31.61c-0.14,0-0.25,0.11-0.25,0.25v4c0,0.14,0.11,0.25,0.25,0.25h4c0.14,0,0.25-0.11,0.25-0.25v-4
			c0-0.14-0.11-0.25-0.25-0.25H23.16z"/>
		
			<linearGradient id="SVGID_00000165225182380406927510000001780641557453914522_" gradientUnits="userSpaceOnUse" x1="99.9479" y1="61.6793" x2="27.6935" y2="8.2517">
			<stop  offset="0.4" style="stop-color:#F39800"/>
			<stop  offset="0.9039" style="stop-color:#C42D1B"/>
		</linearGradient>
		<path style="fill:url(#SVGID_00000165225182380406927510000001780641557453914522_);" d="M77.16,27.61h-54
			c-0.96,0-1.75-0.79-1.75-1.75v-2c0-0.96,0.79-1.75,1.75-1.75h54c0.96,0,1.75,0.79,1.75,1.75v2
			C78.91,26.83,78.12,27.61,77.16,27.61z M23.16,23.61c-0.14,0-0.25,0.11-0.25,0.25v2c0,0.14,0.11,0.25,0.25,0.25h54
			c0.14,0,0.25-0.11,0.25-0.25v-2c0-0.14-0.11-0.25-0.25-0.25H23.16z"/>
		
			<linearGradient id="SVGID_00000181069274137209039360000011702562827851818152_" gradientUnits="userSpaceOnUse" x1="82.0267" y1="85.9156" x2="9.7723" y2="32.488">
			<stop  offset="0.4" style="stop-color:#F39800"/>
			<stop  offset="0.9039" style="stop-color:#C42D1B"/>
		</linearGradient>
		<path style="fill:url(#SVGID_00000181069274137209039360000011702562827851818152_);" d="M27.16,47.61h-4
			c-0.96,0-1.75-0.79-1.75-1.75v-4c0-0.96,0.79-1.75,1.75-1.75h4c0.96,0,1.75,0.79,1.75,1.75v4C28.91,46.83,28.12,47.61,27.16,47.61
			z M23.16,41.61c-0.14,0-0.25,0.11-0.25,0.25v4c0,0.14,0.11,0.25,0.25,0.25h4c0.14,0,0.25-0.11,0.25-0.25v-4
			c0-0.14-0.11-0.25-0.25-0.25H23.16z"/>
		
			<linearGradient id="SVGID_00000168803621863664089240000015308218517481126310_" gradientUnits="userSpaceOnUse" x1="77.2457" y1="92.3813" x2="4.9913" y2="38.9538">
			<stop  offset="0.4" style="stop-color:#F39800"/>
			<stop  offset="0.9039" style="stop-color:#C42D1B"/>
		</linearGradient>
		<path style="fill:url(#SVGID_00000168803621863664089240000015308218517481126310_);" d="M27.16,57.62h-4
			c-0.96,0-1.75-0.79-1.75-1.75v-4c0-0.96,0.79-1.75,1.75-1.75h4c0.96,0,1.75,0.79,1.75,1.75v4C28.91,56.83,28.12,57.62,27.16,57.62
			z M23.16,51.62c-0.14,0-0.25,0.11-0.25,0.25v4c0,0.14,0.11,0.25,0.25,0.25h4c0.14,0,0.25-0.11,0.25-0.25v-4
			c0-0.14-0.11-0.25-0.25-0.25H23.16z"/>
		
			<linearGradient id="SVGID_00000162335710117963755900000006950550846312709045_" gradientUnits="userSpaceOnUse" x1="72.4647" y1="98.847" x2="0.2103" y2="45.4195">
			<stop  offset="0.4" style="stop-color:#F39800"/>
			<stop  offset="0.9039" style="stop-color:#C42D1B"/>
		</linearGradient>
		<path style="fill:url(#SVGID_00000162335710117963755900000006950550846312709045_);" d="M27.16,67.62h-4
			c-0.96,0-1.75-0.79-1.75-1.75v-4c0-0.96,0.79-1.75,1.75-1.75h4c0.96,0,1.75,0.79,1.75,1.75v4C28.91,66.83,28.12,67.62,27.16,67.62
			z M23.16,61.62c-0.14,0-0.25,0.11-0.25,0.25v4c0,0.14,0.11,0.25,0.25,0.25h4c0.14,0,0.25-0.11,0.25-0.25v-4
			c0-0.14-0.11-0.25-0.25-0.25H23.16z"/>
		
			<linearGradient id="SVGID_00000059292526025603168450000004087946907132014479_" gradientUnits="userSpaceOnUse" x1="93.5853" y1="70.284" x2="21.3308" y2="16.8565">
			<stop  offset="0.4" style="stop-color:#F39800"/>
			<stop  offset="0.9039" style="stop-color:#C42D1B"/>
		</linearGradient>
		<path style="fill:url(#SVGID_00000059292526025603168450000004087946907132014479_);" d="M32.16,27.61
			c-0.41,0-0.75-0.34-0.75-0.75v-4c0-0.41,0.34-0.75,0.75-0.75c0.41,0,0.75,0.34,0.75,0.75v4C32.91,27.28,32.57,27.61,32.16,27.61z"
			/>
		
			<linearGradient id="SVGID_00000019637015647726403640000011901621566769747626_" gradientUnits="userSpaceOnUse" x1="98.5347" y1="63.5905" x2="26.2803" y2="10.1629">
			<stop  offset="0.4" style="stop-color:#F39800"/>
			<stop  offset="0.9039" style="stop-color:#C42D1B"/>
		</linearGradient>
		<path style="fill:url(#SVGID_00000019637015647726403640000011901621566769747626_);" d="M46.16,27.61
			c-0.41,0-0.75-0.34-0.75-0.75v-4c0-0.41,0.34-0.75,0.75-0.75c0.41,0,0.75,0.34,0.75,0.75v4C46.91,27.28,46.57,27.61,46.16,27.61z"
			/>
		
			<linearGradient id="SVGID_00000092435492818209456510000003064609615374224814_" gradientUnits="userSpaceOnUse" x1="101.3629" y1="59.7657" x2="29.1085" y2="6.3381">
			<stop  offset="0.4" style="stop-color:#F39800"/>
			<stop  offset="0.9039" style="stop-color:#C42D1B"/>
		</linearGradient>
		<path style="fill:url(#SVGID_00000092435492818209456510000003064609615374224814_);" d="M54.16,27.61
			c-0.41,0-0.75-0.34-0.75-0.75v-4c0-0.41,0.34-0.75,0.75-0.75c0.41,0,0.75,0.34,0.75,0.75v4C54.91,27.28,54.57,27.61,54.16,27.61z"
			/>
		
			<linearGradient id="SVGID_00000078035621848656500200000007558085004661785525_" gradientUnits="userSpaceOnUse" x1="104.8981" y1="54.9847" x2="32.6437" y2="1.5571">
			<stop  offset="0.4" style="stop-color:#F39800"/>
			<stop  offset="0.9039" style="stop-color:#C42D1B"/>
		</linearGradient>
		<path style="fill:url(#SVGID_00000078035621848656500200000007558085004661785525_);" d="M64.16,27.61
			c-0.41,0-0.75-0.34-0.75-0.75v-4c0-0.41,0.34-0.75,0.75-0.75c0.41,0,0.75,0.34,0.75,0.75v4C64.91,27.28,64.58,27.61,64.16,27.61z"
			/>
		
			<linearGradient id="SVGID_00000130628376326222710610000013224816594066350979_" gradientUnits="userSpaceOnUse" x1="84.7733" y1="82.2012" x2="12.5189" y2="28.7736">
			<stop  offset="0.4" style="stop-color:#F39800"/>
			<stop  offset="0.9039" style="stop-color:#C42D1B"/>
		</linearGradient>
		<path style="fill:url(#SVGID_00000130628376326222710610000013224816594066350979_);" d="M49.16,66.62c-0.22,0-0.44-0.1-0.59-0.28
			l-16-20c-0.18-0.23-0.22-0.53-0.09-0.79c0.12-0.26,0.39-0.42,0.68-0.42h16c0.41,0,0.75,0.34,0.75,0.75v20c0,0.32-0.2,0.6-0.5,0.71
			C49.32,66.6,49.24,66.62,49.16,66.62z M34.72,46.62l13.69,17.11V46.62H34.72z"/>
		
			<linearGradient id="SVGID_00000057142448173933122990000003800637726680522112_" gradientUnits="userSpaceOnUse" x1="95.5442" y1="67.6348" x2="23.2898" y2="14.2072">
			<stop  offset="0.4" style="stop-color:#F39800"/>
			<stop  offset="0.9039" style="stop-color:#C42D1B"/>
		</linearGradient>
		<path style="fill:url(#SVGID_00000057142448173933122990000003800637726680522112_);" d="M70.16,51.62
			c-1.52,0-2.75-1.23-2.75-2.75s1.23-2.75,2.75-2.75s2.75,1.23,2.75,2.75S71.68,51.62,70.16,51.62z M70.16,47.62
			c-0.69,0-1.25,0.56-1.25,1.25c0,0.69,0.56,1.25,1.25,1.25c0.69,0,1.25-0.56,1.25-1.25C71.41,48.18,70.85,47.62,70.16,47.62z"/>
		
			<linearGradient id="SVGID_00000037689273070490988810000003872381631711162770_" gradientUnits="userSpaceOnUse" x1="92.4725" y1="71.789" x2="20.218" y2="18.3614">
			<stop  offset="0.4" style="stop-color:#F39800"/>
			<stop  offset="0.9039" style="stop-color:#C42D1B"/>
		</linearGradient>
		<path style="fill:url(#SVGID_00000037689273070490988810000003872381631711162770_);" d="M89.16,68.61h-4
			c-0.41,0-0.75-0.34-0.75-0.75c0-0.41,0.34-0.75,0.75-0.75h4c0.41,0,0.75,0.34,0.75,0.75C89.91,68.28,89.58,68.61,89.16,68.61z"/>
		
			<linearGradient id="SVGID_00000039833143556718668110000009494998612826155181_" gradientUnits="userSpaceOnUse" x1="92.4725" y1="71.789" x2="20.218" y2="18.3614">
			<stop  offset="0.4" style="stop-color:#F39800"/>
			<stop  offset="0.9039" style="stop-color:#C42D1B"/>
		</linearGradient>
		<path style="fill:url(#SVGID_00000039833143556718668110000009494998612826155181_);" d="M87.16,70.61
			c-0.41,0-0.75-0.34-0.75-0.75v-4c0-0.41,0.34-0.75,0.75-0.75c0.41,0,0.75,0.34,0.75,0.75v4C87.91,70.28,87.58,70.61,87.16,70.61z"
			/>
		
			<linearGradient id="SVGID_00000127041892794543964600000011102991558541509010_" gradientUnits="userSpaceOnUse" x1="95.3408" y1="67.9099" x2="23.0864" y2="14.4823">
			<stop  offset="0.4" style="stop-color:#F39800"/>
			<stop  offset="0.9039" style="stop-color:#C42D1B"/>
		</linearGradient>
		<circle style="fill:url(#SVGID_00000127041892794543964600000011102991558541509010_);" cx="87.16" cy="61.86" r="0.75"/>
		
			<linearGradient id="SVGID_00000079450094779881359440000011792781970722051754_" gradientUnits="userSpaceOnUse" x1="96.775" y1="65.9703" x2="24.5205" y2="12.5428">
			<stop  offset="0.4" style="stop-color:#F39800"/>
			<stop  offset="0.9039" style="stop-color:#C42D1B"/>
		</linearGradient>
		<circle style="fill:url(#SVGID_00000079450094779881359440000011792781970722051754_);" cx="87.16" cy="58.86" r="0.75"/>
		
			<linearGradient id="SVGID_00000179645005463050272510000007274767458610220462_" gradientUnits="userSpaceOnUse" x1="98.6876" y1="63.3837" x2="26.4332" y2="9.9561">
			<stop  offset="0.4" style="stop-color:#F39800"/>
			<stop  offset="0.9039" style="stop-color:#C42D1B"/>
		</linearGradient>
		<circle style="fill:url(#SVGID_00000179645005463050272510000007274767458610220462_);" cx="87.16" cy="54.86" r="0.75"/>
		
			<linearGradient id="SVGID_00000042697724205535623040000000191157617425001655_" gradientUnits="userSpaceOnUse" x1="101.556" y1="59.5046" x2="29.3015" y2="6.077">
			<stop  offset="0.4" style="stop-color:#F39800"/>
			<stop  offset="0.9039" style="stop-color:#C42D1B"/>
		</linearGradient>
		<circle style="fill:url(#SVGID_00000042697724205535623040000000191157617425001655_);" cx="87.16" cy="48.86" r="0.75"/>
		
			<linearGradient id="SVGID_00000148645876063737277360000013044782257980983700_" gradientUnits="userSpaceOnUse" x1="75.9284" y1="94.1629" x2="3.6739" y2="40.7353">
			<stop  offset="0.4" style="stop-color:#F39800"/>
			<stop  offset="0.9039" style="stop-color:#C42D1B"/>
		</linearGradient>
		<path style="fill:url(#SVGID_00000148645876063737277360000013044782257980983700_);" d="M14.16,53.63
			c-0.41,0-0.75-0.34-0.75-0.75v-8.78c0-0.41,0.34-0.75,0.75-0.75c0.41,0,0.75,0.34,0.75,0.75v8.78
			C14.91,53.29,14.57,53.63,14.16,53.63z"/>
		
			<linearGradient id="SVGID_00000093160706567784544840000017217644978449768893_" gradientUnits="userSpaceOnUse" x1="80.4696" y1="88.0214" x2="8.2152" y2="34.5938">
			<stop  offset="0.4" style="stop-color:#F39800"/>
			<stop  offset="0.9039" style="stop-color:#C42D1B"/>
		</linearGradient>
		<path style="fill:url(#SVGID_00000093160706567784544840000017217644978449768893_);" d="M14.16,40.84
			c-0.41,0-0.75-0.34-0.75-0.75v-2.21c0-0.41,0.34-0.75,0.75-0.75c0.41,0,0.75,0.34,0.75,0.75v2.21
			C14.91,40.51,14.57,40.84,14.16,40.84z"/>
		
			<linearGradient id="SVGID_00000072988170809888588780000013886624802357012400_" gradientUnits="userSpaceOnUse" x1="90.2179" y1="74.838" x2="17.9635" y2="21.4104">
			<stop  offset="0.4" style="stop-color:#F39800"/>
			<stop  offset="0.9039" style="stop-color:#C42D1B"/>
		</linearGradient>
		<path style="fill:url(#SVGID_00000072988170809888588780000013886624802357012400_);" d="M38.16,35.61h-4
			c-0.41,0-0.75-0.34-0.75-0.75c0-0.41,0.34-0.75,0.75-0.75h4c0.41,0,0.75,0.34,0.75,0.75C38.91,35.28,38.57,35.61,38.16,35.61z"/>
		
			<linearGradient id="SVGID_00000092447100467702969030000010075690730320771749_" gradientUnits="userSpaceOnUse" x1="90.2179" y1="74.838" x2="17.9635" y2="21.4104">
			<stop  offset="0.4" style="stop-color:#F39800"/>
			<stop  offset="0.9039" style="stop-color:#C42D1B"/>
		</linearGradient>
		<path style="fill:url(#SVGID_00000092447100467702969030000010075690730320771749_);" d="M36.16,37.61
			c-0.41,0-0.75-0.34-0.75-0.75v-4c0-0.41,0.34-0.75,0.75-0.75c0.41,0,0.75,0.34,0.75,0.75v4C36.91,37.28,36.57,37.61,36.16,37.61z"
			/>
	</g>
	
		<linearGradient id="SVGID_00000102512238920724764730000001687341249981057152_" gradientUnits="userSpaceOnUse" x1="93.2705" y1="70.7096" x2="21.0161" y2="17.2821">
		<stop  offset="0.4" style="stop-color:#F39800"/>
		<stop  offset="0.9039" style="stop-color:#C42D1B"/>
	</linearGradient>
	<path style="fill:url(#SVGID_00000102512238920724764730000001687341249981057152_);" d="M66.71,40.82c-0.67,0-1.31,0.07-1.95,0.18
		v-6.08c0-1.52-1.23-2.75-2.75-2.75h-16c-1.52,0-2.75,1.23-2.75,2.75v10c0,0.41,0.34,0.75,0.75,0.75c0.41,0,0.75-0.34,0.75-0.75v-10
		c0-0.69,0.56-1.25,1.25-1.25h16c0.69,0,1.25,0.56,1.25,1.25v6.42v1.59v7.98c0,0.69-0.56,1.25-1.25,1.25h-5.53h-1.5h-4.97
		c-0.41,0-0.75,0.34-0.75,0.75c0,0.41,0.34,0.75,0.75,0.75h5.01c0.55,5.97,5.59,10.66,11.69,10.66c6.48,0,11.75-5.27,11.75-11.75
		C78.46,46.09,73.19,40.82,66.71,40.82z M66.71,62.82c-5.28,0-9.64-4.02-10.19-9.16h5.49c1.52,0,2.75-1.23,2.75-2.75v-8.4
		c0.63-0.12,1.28-0.19,1.95-0.19c5.65,0,10.25,4.6,10.25,10.25C76.96,58.22,72.36,62.82,66.71,62.82z"/>
</g>
</svg>
