<?xml version="1.0" encoding="utf-8"?>
<!-- Generator: Adobe Illustrator 26.5.0, SVG Export Plug-In . SVG Version: 6.00 Build 0)  -->
<svg version="1.1" id="圖層_1" xmlns="http://www.w3.org/2000/svg" xmlns:xlink="http://www.w3.org/1999/xlink" x="0px" y="0px"
	 viewBox="0 0 100 100" style="enable-background:new 0 0 100 100;" xml:space="preserve">
<style type="text/css">
	.st0{fill:url(#SVGID_1_);}
	.st1{fill:url(#SVGID_00000049192589883663584870000004929076983289835453_);}
	.st2{fill:url(#SVGID_00000029030056360166950810000015246568970570960769_);}
	.st3{fill:url(#SVGID_00000025443836174571901410000011715976718104497284_);}
	.st4{fill:url(#SVGID_00000032617062951782330080000008962896172921913526_);}
	.st5{fill:url(#SVGID_00000146465107689572068960000013386598137678333871_);}
	.st6{fill:url(#SVGID_00000070086678482038585100000010488374187929981084_);}
	.st7{fill:url(#SVGID_00000046310356123965758650000011807578087590845353_);}
	.st8{fill:url(#SVGID_00000070826144800524625200000005291132453981135265_);}
	.st9{fill:url(#SVGID_00000038396235708183061790000009687618903778098082_);}
	.st10{fill:url(#SVGID_00000050641306636621957200000016744729358218165179_);}
	.st11{fill:url(#SVGID_00000160190777874082073050000006564765636289913500_);}
	.st12{fill:url(#SVGID_00000111893103496750436190000015886916069928115636_);}
	.st13{fill:url(#SVGID_00000178906030257442696790000001724201243279023501_);}
	.st14{fill:url(#SVGID_00000160185860300151751420000005322158883512277396_);}
	.st15{fill:url(#SVGID_00000150068313687729196950000012870670711981085363_);}
	.st16{fill:url(#SVGID_00000177462967882662298330000009578252102892766888_);}
	.st17{fill:url(#SVGID_00000149368203171024844360000013919065902416919185_);}
	.st18{fill:url(#SVGID_00000139980984057033943690000003868127104876434320_);}
	.st19{fill:url(#SVGID_00000020370551437565016650000015589517542194468738_);}
	.st20{fill:url(#SVGID_00000109011162017242270920000015365667208308976515_);}
	.st21{fill:url(#SVGID_00000008146237704469460370000011495384329737837497_);}
	.st22{fill:url(#SVGID_00000067941193853049478180000014945892682017042323_);}
	.st23{fill:url(#SVGID_00000079461549856158159290000004376256933025641620_);}
	.st24{fill:url(#SVGID_00000048480601517582343300000008271741285859791491_);}
	.st25{fill:url(#SVGID_00000159465826746535058080000008136156993600228763_);}
	.st26{fill:url(#SVGID_00000145774378335149163470000003575274622024549031_);}
	.st27{fill:url(#SVGID_00000003821228041212425850000010894441121435088048_);}
	.st28{fill:url(#SVGID_00000153684421410507622580000001325015052710856869_);}
	.st29{fill:url(#SVGID_00000152967150788269264980000017489861853458266009_);}
	.st30{fill:url(#SVGID_00000060711974929092076520000001472998177803511971_);}
	.st31{fill:url(#SVGID_00000129906586859816543420000008655330319625353611_);}
	.st32{fill:url(#SVGID_00000005244053524459882840000011660756958974665139_);}
	.st33{fill:url(#SVGID_00000039845550168972774500000017840053862872193155_);}
	.st34{fill:url(#SVGID_00000183213675896957898820000002339210546131650982_);}
	.st35{fill:url(#SVGID_00000070810183497151338460000013582666073648026776_);}
	.st36{fill:url(#SVGID_00000144304351205443180210000015192916513576192903_);}
	.st37{fill:url(#SVGID_00000040570906287655552470000001926125072034876596_);}
	.st38{fill:url(#SVGID_00000066501864552052325460000014110104788065098416_);}
	.st39{fill:url(#SVGID_00000062156670069006841250000006052256704918028211_);}
	.st40{fill:url(#SVGID_00000134938347579779702860000014838429485117599890_);}
	.st41{fill:url(#SVGID_00000010288719986251002690000003997906616828344487_);}
	.st42{fill:url(#SVGID_00000004535012747073458620000017378098324739440539_);}
	.st43{fill:url(#SVGID_00000040548190102305025420000006396492243457255062_);}
	.st44{fill:url(#SVGID_00000009588695432451759660000001999984132998939783_);}
	.st45{fill:url(#SVGID_00000053533364790711805250000000775214651487548557_);}
	.st46{fill:url(#SVGID_00000119809495194302242150000015202273741384730554_);}
	.st47{fill:url(#SVGID_00000084498392183041454080000008260519231804664225_);}
	.st48{fill:url(#SVGID_00000170238442792253266550000006481725800950458283_);}
	.st49{fill:url(#SVGID_00000091010498612982592350000003777501704388478651_);}
	.st50{fill:url(#SVGID_00000152246523744835870740000012222916253418465973_);}
	.st51{fill:url(#SVGID_00000139975396089803499010000000173175637617128115_);}
	.st52{fill:url(#SVGID_00000091730021899583114670000009719241088813412799_);}
	.st53{fill:url(#SVGID_00000125589962583690838840000011194121703462143911_);}
	.st54{fill:url(#SVGID_00000145760876514829649220000013317152165154826146_);}
	.st55{fill:url(#SVGID_00000036239410220446807960000000814681860309663922_);}
	.st56{fill:url(#SVGID_00000109015410538368045680000009502915104399052477_);}
	.st57{fill:url(#SVGID_00000031175824708908827110000008693508132507716237_);}
	.st58{fill:url(#SVGID_00000023249306460969628740000015744180355226763671_);}
	.st59{fill:url(#SVGID_00000036950767480996122440000005878851289056809120_);}
	.st60{fill:url(#SVGID_00000134967852700069012870000013633541855218186419_);}
	.st61{fill:url(#SVGID_00000127035217563651780170000001180950949303175338_);}
	.st62{fill:url(#SVGID_00000148657464781504160830000014186555450604362936_);}
	.st63{fill:url(#SVGID_00000072256141057056614300000006781734079482715814_);}
	.st64{fill:url(#SVGID_00000100357568203670274840000013803807310189776800_);}
	.st65{fill:url(#SVGID_00000148662286388842905740000002688051163066985092_);}
	.st66{fill:url(#SVGID_00000083060797306354675170000012373234946479781009_);}
	.st67{fill:url(#SVGID_00000098180593826854375520000017780466576481098393_);}
	.st68{fill:url(#SVGID_00000097491975599321666720000010561114594421923483_);}
	.st69{fill:url(#SVGID_00000082355512758128906260000013331729388996979099_);}
	.st70{fill:url(#SVGID_00000097474412983341942190000017895285240266124184_);}
	.st71{fill:url(#SVGID_00000166659030023384204490000011332751773297587349_);}
	.st72{fill:url(#SVGID_00000000922590566776263550000017629435274970236856_);}
	.st73{fill:url(#SVGID_00000008866306239370827990000003980185951290762631_);}
	.st74{fill:url(#SVGID_00000035511243516691742200000017302956113364865671_);}
	.st75{fill:url(#SVGID_00000156566771098892785470000012746768353769053881_);}
	.st76{fill:url(#SVGID_00000127764444719544993270000003730278487840801166_);}
	.st77{fill:url(#SVGID_00000024692579007915973550000016158646464645164207_);}
	.st78{fill:url(#SVGID_00000165227299419458575760000002664131234453853571_);}
	.st79{fill:url(#SVGID_00000082327201422004362750000010764865918560445572_);}
	.st80{fill:url(#SVGID_00000150801254997346036320000003242383130193158831_);}
	.st81{fill:url(#SVGID_00000005265346581497802220000000060059142561438141_);}
	.st82{fill:url(#SVGID_00000137095697992315362400000010935027452540754856_);}
	.st83{fill:url(#SVGID_00000116234404419556593050000007382275667110761344_);}
	.st84{fill:url(#SVGID_00000157298126331029872400000009188724675341687734_);}
	.st85{fill:url(#SVGID_00000056388764360502476300000007335015849017195171_);}
	.st86{fill:url(#SVGID_00000165220670325987277500000015959533468815877764_);}
	.st87{fill:url(#SVGID_00000137854474405213733880000018105515983671506351_);}
	.st88{fill:url(#SVGID_00000163070538585795901780000004262875811576073614_);}
	.st89{fill:url(#SVGID_00000099619730341944621880000006260210134178915007_);}
	.st90{fill:url(#SVGID_00000140015476275182397720000003800782245387244428_);}
	.st91{fill:url(#SVGID_00000052079806546951774690000014552395069227068559_);}
	.st92{fill:url(#SVGID_00000084500527367651786280000001778028882911887265_);}
	.st93{fill:url(#SVGID_00000141434846655195254220000007653276134026091930_);}
	.st94{fill:url(#SVGID_00000119833261486809763970000018382161709996916916_);}
	.st95{fill:url(#SVGID_00000065754372409126360400000016050087891398767039_);}
	.st96{fill:url(#SVGID_00000178182886301815333170000008164674365006455217_);}
	.st97{fill:url(#SVGID_00000042013020630849067710000002137217150591211931_);}
	.st98{fill:url(#SVGID_00000031927581929986996300000004989829664372745657_);}
	.st99{fill:url(#SVGID_00000152974842439163489720000000425801221311890064_);}
	.st100{fill:url(#SVGID_00000098219989848975059790000010592299851314466701_);}
	.st101{fill:url(#SVGID_00000044179653150265152270000002163072838852059805_);}
	.st102{fill:url(#SVGID_00000087402476983340812460000016580768603303726765_);}
	.st103{fill:url(#SVGID_00000134942395746528336460000016886212297356539522_);}
	.st104{fill:url(#SVGID_00000034088682063121997840000000188369439822459306_);}
	.st105{fill:url(#SVGID_00000151504823616527128780000005270534134614602940_);}
	.st106{fill:url(#SVGID_00000132779015428413875180000010639130263099919011_);}
	.st107{fill:url(#SVGID_00000004546019896555131620000009248167247415327663_);}
	.st108{fill:url(#SVGID_00000125595367330222234350000011235457111652004281_);}
	.st109{fill:url(#SVGID_00000073002099311446854600000015027742444405361581_);}
	.st110{fill:url(#SVGID_00000048470695910317668080000017381067460600204165_);}
	.st111{fill:url(#SVGID_00000036973006863623311560000018182081908641389705_);}
	.st112{fill:url(#SVGID_00000012469694386648478210000002686738521427518132_);}
	.st113{fill:url(#SVGID_00000067238449026317639680000015228397836861295027_);}
	.st114{fill:url(#SVGID_00000123436905578632519410000000838172517541037226_);}
	.st115{fill:url(#SVGID_00000183938124710921950690000009338207135986853783_);}
	.st116{fill:url(#SVGID_00000111895387760824486070000012779816055205495993_);}
	.st117{fill:url(#SVGID_00000121960815457806636590000010938791963922171029_);}
	.st118{fill:url(#SVGID_00000085216467511575847480000008367822780755098769_);}
	.st119{fill:url(#SVGID_00000119110092906594023040000010968160319589181873_);}
	.st120{fill:url(#SVGID_00000025420858160610866830000000987678944437776551_);}
	.st121{fill:url(#SVGID_00000147901611306314160070000017181551928658440581_);}
	.st122{fill:url(#SVGID_00000177475945832515047490000004813514553484542610_);}
	.st123{fill:url(#SVGID_00000026124265698357422460000000925689146620418199_);}
	.st124{fill:url(#SVGID_00000132058693133902863880000002884902650768660646_);}
	.st125{fill:url(#SVGID_00000183250241187618310250000001755588825374976686_);}
	.st126{fill:url(#SVGID_00000093858805497503187770000005473368543944419244_);}
	.st127{fill:#2C4F80;}
	.st128{fill:url(#SVGID_00000180330731245515833140000003638833121643030438_);}
	.st129{fill:url(#SVGID_00000042738203013205428640000008242018615435238070_);}
	.st130{fill:url(#SVGID_00000097466438455031130600000014537665434835705523_);}
	.st131{fill:url(#SVGID_00000120521453035624942500000008926817243453076111_);}
	.st132{fill:url(#SVGID_00000019638181201279502110000005293145836931437457_);}
	.st133{fill:url(#SVGID_00000172418559704207227950000007801477392341842863_);}
	.st134{fill:url(#SVGID_00000136374322422010136750000003198766897599870870_);}
	.st135{fill:url(#SVGID_00000013157463942595601310000014851879358785310094_);}
	.st136{fill:url(#SVGID_00000024684508169679335270000017725671543837259443_);}
	.st137{fill:url(#SVGID_00000122696445105941143210000005162046954253246607_);}
	.st138{fill:url(#SVGID_00000090282812712068201850000001696918889535734675_);}
	.st139{fill:url(#SVGID_00000158012369185687121550000017509295469495243685_);}
	.st140{fill:url(#SVGID_00000052788094189130037900000003364015254374114202_);}
	.st141{fill:url(#SVGID_00000042018565486703255700000004511257934627705246_);}
	.st142{fill:url(#SVGID_00000070089073136786374500000005261537354567329430_);}
	.st143{fill:url(#SVGID_00000149358828674356576710000012694779073557178025_);}
	.st144{fill:url(#SVGID_00000080895974112960913560000002776783663556738959_);}
	.st145{fill:url(#SVGID_00000140718945232292360360000000539396120116030621_);}
	.st146{fill:url(#SVGID_00000035520557276388272960000007351854971870356610_);}
	.st147{fill:url(#SVGID_00000052088469465373440720000000402092057168482452_);}
	.st148{fill:url(#SVGID_00000124872715895568731610000007167710247416647852_);}
	.st149{fill:url(#SVGID_00000081626285324206160500000017306771026120551603_);}
	.st150{fill:url(#SVGID_00000088822843991270815230000008616182405901514404_);}
	.st151{fill:url(#SVGID_00000166668598578720113800000011645063047818612656_);}
	.st152{fill:url(#SVGID_00000179625396320489423450000005790072908585404318_);}
	.st153{fill:url(#SVGID_00000070116382908858501390000007820796147911895178_);}
	.st154{fill:url(#SVGID_00000106139223642657618980000007853762960975673750_);}
	.st155{fill:url(#SVGID_00000158006766155054745640000004448778072192084927_);}
	.st156{fill:url(#SVGID_00000022520795564633976940000007499059512536103855_);}
	.st157{fill:url(#SVGID_00000036210869859941893860000012230068160207910033_);}
	.st158{fill:url(#SVGID_00000085235970305821035100000008056396522188315315_);}
	.st159{fill:url(#SVGID_00000013889616080623522790000010989348156818625938_);}
	.st160{fill:url(#SVGID_00000090280952875837181520000008869851450045184149_);}
	.st161{fill:url(#SVGID_00000160896208754198291930000013389651811048439956_);}
	.st162{fill:url(#SVGID_00000109030048653040827970000013770445336365800333_);}
	.st163{fill:url(#SVGID_00000145031973738017149860000000145756592178143906_);}
	.st164{fill:url(#SVGID_00000090294565756647880470000009735337427865833628_);}
	.st165{fill:url(#SVGID_00000052093823828892070410000013380985703381185721_);}
	.st166{fill:url(#SVGID_00000080921131101392958120000010982705687752232095_);}
	.st167{fill:url(#SVGID_00000093148246640182159040000000133697557825888667_);}
	.st168{fill:url(#SVGID_00000018238295693279075500000011299075968236175769_);}
	.st169{fill:url(#SVGID_00000154391979169084121340000008936258111747265179_);}
	.st170{fill:url(#SVGID_00000049180460278025223370000006704838164881374112_);}
	.st171{fill:url(#SVGID_00000084526977117150905420000015013136072078983599_);}
	.st172{fill:url(#SVGID_00000057140663833918331950000010496559142387861914_);}
	.st173{fill:url(#SVGID_00000027589496557802576200000007241436592756387721_);}
	.st174{fill:url(#SVGID_00000035519013035318756140000017813496736121394048_);}
	.st175{fill:url(#SVGID_00000081619741538103646510000014212457584748863909_);}
	.st176{fill:url(#SVGID_00000147185001013474937450000013613581723761374340_);}
	.st177{fill:url(#SVGID_00000159449261356052570300000009344027475470537394_);}
	.st178{fill:url(#SVGID_00000107568512834420379680000013530933895174118066_);}
	.st179{fill:url(#SVGID_00000018919500554202948040000011592330594467816877_);}
	.st180{fill:url(#SVGID_00000141419659730893662110000012755263369063464075_);}
	.st181{fill:url(#SVGID_00000068660212959125441450000014451893547463132547_);}
	.st182{fill:url(#SVGID_00000050641885447031380800000005456965262864849853_);}
	.st183{fill:url(#SVGID_00000079482477956042094150000000021044572892257207_);}
	.st184{fill:url(#SVGID_00000023246615975600450920000010469656432899238549_);}
	.st185{fill:url(#SVGID_00000042007546094827978270000005404391302451485586_);}
	.st186{fill:url(#SVGID_00000176016542762871666790000015858511934181276573_);}
	.st187{fill:url(#SVGID_00000072991182865244384670000009399236346461416127_);}
	.st188{fill:url(#SVGID_00000101819029246093432280000004966962149032215961_);}
	.st189{fill:url(#SVGID_00000158725975244736543940000016249648967598477237_);}
	.st190{fill:url(#SVGID_00000091006813721273731650000009828774250774592946_);}
	.st191{fill:url(#SVGID_00000176009262948387473040000015032067340364309644_);}
	.st192{fill:url(#SVGID_00000086668533418773316290000013216510908586769293_);}
	.st193{fill:url(#SVGID_00000156588699663028043270000017458507776525856172_);}
	.st194{fill:url(#SVGID_00000071523082593794168890000000572554583807123358_);}
	.st195{fill:url(#SVGID_00000070804329272823240170000008431519469182992549_);}
	.st196{fill:url(#SVGID_00000105388671283649035040000007115027106405719972_);}
	.st197{fill:url(#SVGID_00000113341003645870532910000008021373706103656345_);}
	.st198{fill:url(#SVGID_00000173860089178119129270000009882687293714754448_);}
	.st199{fill:url(#SVGID_00000019675543867224642400000014653545939194277538_);}
	.st200{fill:url(#SVGID_00000040548761518022494820000015839703412889012882_);}
	.st201{fill:url(#SVGID_00000147930555434021302150000016539145360454498947_);}
	.st202{fill:url(#SVGID_00000089574154766045982180000004585106553245858996_);}
	.st203{fill:url(#SVGID_00000052082254166170907680000017959419986459803013_);}
	.st204{fill:url(#SVGID_00000052809863893909261670000007564924728582022569_);}
	.st205{fill:url(#SVGID_00000062882157680618620420000000184712611625652887_);}
	.st206{fill:url(#SVGID_00000183239392113062200930000007854926763248428164_);}
	.st207{fill:url(#SVGID_00000052090670927111292410000016171487070268227003_);}
	.st208{fill:url(#SVGID_00000162333614736572516610000008680572139876126382_);}
	.st209{fill:url(#SVGID_00000157992871692296551250000006915426545185865609_);}
	.st210{fill:url(#SVGID_00000091724498245936624690000003373027020842053535_);}
	.st211{fill:url(#SVGID_00000065783008933812353950000009967188066296063147_);}
	.st212{fill:url(#SVGID_00000072265993038416459920000012342489609852257926_);}
	.st213{fill:url(#SVGID_00000177465085701185359390000014910566826977398674_);}
	.st214{fill:url(#SVGID_00000155861718823796741210000014954168511601294262_);}
	.st215{fill:url(#SVGID_00000158025595280783508620000010028726888983386294_);}
	.st216{fill:url(#SVGID_00000010282196510988112900000011034568834452694202_);}
	.st217{fill:url(#SVGID_00000094592530545526467330000012401626564429970823_);}
	.st218{fill:url(#SVGID_00000043456318114727664720000007317763399930886806_);}
	.st219{fill:url(#SVGID_00000124875624340687265150000015436122544189933975_);}
	.st220{fill:url(#SVGID_00000172438455522216594080000015653057404448536986_);}
	.st221{fill:url(#SVGID_00000107558301009554296210000011225306260498027920_);}
	.st222{fill:url(#SVGID_00000060740614037523470160000016303640205056142495_);}
	.st223{fill:url(#SVGID_00000171718560233621504210000018445871629673444260_);}
	.st224{fill:url(#SVGID_00000003076834329999962860000004998413924020371626_);}
	.st225{fill:url(#SVGID_00000160902864507181631590000011602940672013413008_);}
	.st226{fill:url(#SVGID_00000147212897578307172760000000883277404157595297_);}
	.st227{fill:url(#SVGID_00000098935291646209135980000016792324801885595046_);}
	.st228{fill:url(#SVGID_00000147221381389270754200000001080568137543867545_);}
</style>
<g>
	<linearGradient id="SVGID_1_" gradientUnits="userSpaceOnUse" x1="90.5579" y1="80.8284" x2="19.6331" y2="26.6574">
		<stop  offset="0.4" style="stop-color:#F39800"/>
		<stop  offset="0.9039" style="stop-color:#C42D1B"/>
	</linearGradient>
	<path class="st0" d="M84.07,44.1c0-0.03-0.01-0.05-0.01-0.08c-0.15-0.9-0.33-1.8-0.55-2.68c0-0.01,0-0.02-0.01-0.03
		c-0.22-0.89-0.48-1.77-0.78-2.64c-0.01-0.04-0.03-0.08-0.04-0.13c-0.89-2.61-2.1-5.12-3.58-7.45c-0.05-0.07-0.09-0.14-0.14-0.21
		c-0.47-0.72-0.96-1.43-1.48-2.12c-0.08-0.1-0.16-0.2-0.23-0.29c-0.45-0.59-0.93-1.16-1.42-1.72c-0.1-0.12-0.2-0.24-0.31-0.36
		c-0.51-0.56-1.04-1.1-1.58-1.62c-0.13-0.12-0.25-0.24-0.38-0.36c-6.21-5.83-14.56-9.42-23.74-9.42c-1.91,0-3.78,0.16-5.61,0.46
		c-0.03,0-0.05,0.01-0.08,0.01c-0.9,0.15-1.8,0.33-2.69,0.55c0,0-0.01,0-0.01,0c-0.9,0.22-1.78,0.49-2.66,0.78
		c-0.03,0.01-0.07,0.02-0.1,0.03c-2.62,0.89-5.13,2.1-7.47,3.59c-0.07,0.04-0.13,0.08-0.2,0.13c-0.73,0.47-1.44,0.97-2.13,1.49
		c-0.1,0.07-0.19,0.15-0.29,0.23c-0.59,0.46-1.16,0.93-1.72,1.43c-0.12,0.1-0.24,0.2-0.36,0.31c-0.56,0.51-1.09,1.04-1.62,1.58
		c-0.12,0.13-0.24,0.25-0.36,0.38c-5.83,6.21-9.42,14.56-9.42,23.74c0,1.91,0.16,3.78,0.46,5.6c0.01,0.03,0.01,0.06,0.02,0.09
		c0.15,0.89,0.33,1.78,0.55,2.65c0,0.02,0.01,0.03,0.01,0.05c0.22,0.89,0.48,1.76,0.77,2.63c0.02,0.04,0.03,0.09,0.05,0.13
		c0.89,2.61,2.1,5.11,3.58,7.44c0.05,0.07,0.1,0.15,0.14,0.22c0.47,0.72,0.96,1.42,1.47,2.11c0.08,0.11,0.16,0.21,0.25,0.31
		c0.45,0.58,0.91,1.14,1.4,1.69c0.11,0.13,0.22,0.26,0.33,0.38c0.5,0.55,1.03,1.08,1.56,1.6c0.13,0.13,0.26,0.25,0.4,0.38
		c6.21,5.83,14.56,9.41,23.73,9.41c1.9,0,3.77-0.16,5.58-0.46c0.04-0.01,0.09-0.02,0.13-0.02c0.88-0.15,1.75-0.32,2.62-0.54
		c0.02-0.01,0.04-0.01,0.07-0.02c0.88-0.22,1.76-0.48,2.62-0.77c0.05-0.02,0.1-0.03,0.14-0.05c2.61-0.89,5.11-2.09,7.43-3.57
		c0.08-0.05,0.15-0.1,0.23-0.15c0.72-0.46,1.42-0.95,2.1-1.47c0.11-0.08,0.22-0.17,0.32-0.25c0.57-0.44,1.13-0.91,1.68-1.39
		c0.13-0.11,0.26-0.22,0.39-0.34c0.55-0.5,1.08-1.03,1.6-1.56c0.13-0.13,0.25-0.26,0.38-0.4c5.83-6.21,9.41-14.56,9.41-23.74
		C84.53,47.8,84.37,45.93,84.07,44.1z M74.4,27.53c0.12,0.14,0.24,0.28,0.37,0.42c0.42,0.48,0.83,0.98,1.22,1.48
		c0.07,0.09,0.15,0.19,0.22,0.28c0.47,0.62,0.92,1.26,1.35,1.92c0.04,0.06,0.08,0.12,0.12,0.18c0.89,1.38,1.68,2.84,2.36,4.35
		c0,0.01,0.01,0.01,0.01,0.02c0.68,1.51,1.24,3.07,1.69,4.68c0.01,0.05,0.03,0.09,0.04,0.13c0.21,0.78,0.4,1.57,0.55,2.37
		c0,0.02,0.01,0.04,0.01,0.05h0h-5.04c-0.41-0.46-0.93-0.8-1.54-0.93c-0.72-0.16-1.46-0.04-2.09,0.32l0-6.67
		c0-1.43-1.01-2.67-2.35-2.89c-0.58-0.09-1.17-0.01-1.69,0.24v-0.49c0-0.82-0.36-1.6-0.99-2.14c-0.63-0.54-1.46-0.77-2.28-0.64
		c-0.27,0.04-0.53,0.14-0.77,0.26v-3.85v-0.83h7.14h0.02c0.08,0.08,0.16,0.17,0.24,0.25C73.48,26.55,73.95,27.03,74.4,27.53z
		 M68.21,62.22c-0.21-1.34-1.45-2.36-2.89-2.36h-0.39c0.25-0.51,0.34-1.1,0.24-1.68c-0.21-1.34-1.46-2.36-2.89-2.36h-4.1
		c-0.43-2.72-0.67-5.49-0.67-8.24v-5.58v-4.78c0-0.16,0.03-0.32,0.08-0.47c0.15-0.44,0.51-0.78,0.94-0.85
		c0.37-0.05,0.72,0.04,1,0.28c0.26,0.22,0.41,0.54,0.43,0.87v0.06c0,0,0,0.01,0,0.01v7.49c0,0.44,0.36,0.8,0.8,0.8
		c0.44,0,0.8-0.36,0.8-0.8v-7.49v-2.92c0-0.66,0.44-1.23,1.02-1.32c0.37-0.06,0.72,0.04,1,0.28c0.27,0.23,0.43,0.57,0.43,0.93l0,9.9
		c0,0.44,0.36,0.8,0.8,0.8c0.44,0,0.8-0.36,0.8-0.8v-0.56h0v-9.34v-0.96c0-0.65,0.45-1.23,1.02-1.32c0.37-0.06,0.72,0.04,1,0.28
		c0.27,0.23,0.43,0.57,0.43,0.93l0,2.94c0,0.03,0,0.05,0,0.08c0,0,0,0,0,0v7.31c0,0.03,0.01,0.05,0.01,0.07
		c0.04,0.4,0.37,0.72,0.78,0.72c0.41,0,0.74-0.32,0.78-0.72c0-0.03,0.01-0.05,0.01-0.07v-7.32c0,0,0,0,0,0l0,0
		c0-0.36,0.16-0.7,0.43-0.93c0.28-0.24,0.63-0.33,1-0.27c0.58,0.09,1.01,0.66,1.01,1.32l0,7.28l0,1.59l0,0.65c0,0,0,0,0,0.01l0,4.06
		c0,0.34-0.13,0.67-0.34,0.91l-0.9,0.98c-0.3,0.32-0.28,0.83,0.04,1.12c0.15,0.14,0.35,0.21,0.54,0.21c0.21,0,0.43-0.09,0.58-0.26
		l0.9-0.98c0.49-0.54,0.77-1.24,0.77-1.99l0-4.07c0,0,0,0,0,0c0-0.23,0.05-0.44,0.13-0.64c0.1-0.27,0.27-0.52,0.49-0.69
		c0.33-0.26,0.73-0.36,1.14-0.27c0.45,0.1,0.81,0.48,1,0.97c0.09,0.23,0.16,0.47,0.16,0.74v7.34c0,0.94-0.35,1.85-0.94,2.49
		l-2.31,2.34c-0.81,0.82-1.26,1.91-1.26,3.07v2.9h-4.12C68.2,63.38,68.3,62.8,68.21,62.22z M70.96,24.23H64.8
		c-0.44,0-0.8,0.36-0.8,0.8v0.83h-2.9c-0.74,0-1.43-0.28-1.95-0.8l-2.36-2.33c-0.96-0.89-2.24-1.38-3.59-1.38h-7.34
		c-0.25,0-0.5,0.03-0.74,0.08v-4.52c1.53-0.22,3.1-0.34,4.69-0.34C57.84,16.58,65.22,19.46,70.96,24.23z M25.93,26.78v-0.02
		c0.08-0.08,0.17-0.16,0.25-0.24c0.47-0.48,0.96-0.95,1.46-1.41c0.14-0.12,0.28-0.24,0.42-0.36c0.48-0.42,0.98-0.83,1.48-1.22
		c0.09-0.07,0.18-0.15,0.28-0.22c0.62-0.47,1.26-0.92,1.92-1.35c0.06-0.04,0.12-0.08,0.18-0.12c1.38-0.89,2.84-1.68,4.35-2.36
		c0.01,0,0.01-0.01,0.02-0.01c1.5-0.68,3.07-1.24,4.68-1.69c0.05-0.01,0.1-0.03,0.14-0.04c0.78-0.21,1.56-0.4,2.36-0.55
		c0.02,0,0.04-0.01,0.06-0.01v0v5.04c-0.46,0.41-0.8,0.93-0.93,1.54c-0.16,0.72-0.04,1.46,0.32,2.09h-6.67
		c-1.43,0-2.67,1.01-2.89,2.34c-0.1,0.58-0.01,1.17,0.24,1.69h-0.49c-0.82,0-1.6,0.36-2.14,0.99c-0.54,0.63-0.77,1.46-0.64,2.28
		c0.04,0.27,0.14,0.53,0.26,0.77l2.62,0c-0.65,0-1.23-0.45-1.32-1.02c-0.06-0.37,0.04-0.72,0.28-1c0.23-0.27,0.57-0.43,0.93-0.43
		l2.94,0c0.02,0,0.03-0.01,0.05-0.01c0.01,0,0.02,0.01,0.03,0.01h7.32c0.03,0,0.05-0.01,0.07-0.01c0.4-0.04,0.72-0.37,0.72-0.78
		c0-0.41-0.32-0.74-0.72-0.78c-0.03,0-0.05-0.01-0.07-0.01h-7.32c0,0,0,0,0,0c-0.36,0-0.7-0.16-0.93-0.43
		c-0.24-0.28-0.33-0.63-0.27-1c0.09-0.58,0.66-1.01,1.32-1.01h7.28h1.59h0.65c0,0,0,0,0.01,0h4.06c0.34,0,0.67,0.13,0.91,0.34
		l0.98,0.9c0.15,0.14,0.35,0.21,0.54,0.21c0.21,0,0.43-0.09,0.58-0.26c0.3-0.32,0.28-0.83-0.04-1.12l-0.97-0.9
		c-0.53-0.49-1.24-0.77-1.99-0.77h-4.07c0,0,0,0,0,0c-0.23,0-0.44-0.05-0.64-0.13c-0.27-0.1-0.52-0.27-0.69-0.49
		c-0.26-0.33-0.36-0.73-0.27-1.14c0.1-0.45,0.48-0.81,0.97-1c0.23-0.09,0.47-0.16,0.74-0.16h7.34c0.94,0,1.85,0.35,2.49,0.94
		l2.34,2.31c0.82,0.81,1.91,1.26,3.07,1.26H64v4.1v0.01c-0.03-0.01-0.05-0.03-0.08-0.04c-0.04-0.02-0.09-0.03-0.13-0.05
		c-0.11-0.04-0.22-0.08-0.34-0.11c-0.05-0.01-0.09-0.02-0.14-0.03c-0.12-0.02-0.25-0.04-0.37-0.05c-0.04,0-0.08-0.01-0.12-0.01
		c-0.17,0-0.33,0-0.5,0.03c-1.34,0.21-2.36,1.45-2.36,2.89v0.39c-0.42-0.2-0.89-0.29-1.37-0.27c-0.1,0.01-0.21,0.01-0.31,0.03h0
		c-1.34,0.21-2.36,1.45-2.36,2.89v4.11c-2.74,0.44-5.51,0.66-8.24,0.66h-4.91h-1.62h-3.84c-0.66,0-1.23-0.44-1.32-1.01
		c-0.06-0.37,0.04-0.72,0.28-1c0.22-0.26,0.53-0.41,0.86-0.43h0.07h0c0,0,0.01,0,0.01,0h7.48c0.44,0,0.8-0.36,0.8-0.8
		c0-0.44-0.36-0.8-0.8-0.8h-7.49H34.3c-0.65,0-1.23-0.45-1.32-1.01c-0.06-0.37,0.04-0.73,0.28-1c0.23-0.27,0.57-0.43,0.93-0.43h0
		h7.44l0,0l2.46,0c0.44,0,0.8-0.36,0.8-0.8c0-0.44-0.36-0.8-0.8-0.8l-3.41,0c0,0,0,0,0,0h-6.5c0,0,0,0,0,0c0,0,0,0,0,0h-0.95H30.6
		h-3.85h-0.83V26.78z M43.04,43.58h4.65c2.74,0,5.5-0.23,8.24-0.65v4.66c0,2.75,0.23,5.52,0.65,8.24h-4.65
		c-2.75,0-5.52,0.23-8.24,0.65v-4.65C43.69,49.07,43.46,46.31,43.04,43.58z M16.68,49.71c0-8.04,2.88-15.41,7.65-21.15v6.17
		c0,0.44,0.36,0.8,0.8,0.8h0.83v2.9c0,0.74-0.28,1.43-0.8,1.95l-2.33,2.36c-0.89,0.96-1.38,2.24-1.38,3.59v7.34
		c0,0.25,0.03,0.5,0.08,0.74h-4.52C16.8,52.86,16.68,51.3,16.68,49.71z M54.5,82.5c-1.53,0.22-3.1,0.34-4.69,0.34
		c-8.04,0-15.41-2.88-21.15-7.65h6.16c0.44,0,0.8-0.36,0.8-0.8v-0.83h2.9c0.73,0,1.43,0.28,1.95,0.8l2.36,2.33
		c0.96,0.89,2.24,1.38,3.59,1.38h7.34c0.25,0,0.5-0.03,0.74-0.08V82.5z M46.82,71.89l0.98,0.9c0.53,0.49,1.24,0.77,1.99,0.77h4.07
		c0,0,0,0,0,0c0,0,0,0,0.01,0c0.11,0,0.22,0.02,0.33,0.04c0.11,0.02,0.21,0.05,0.31,0.09c0,0,0,0,0,0c0.13,0.05,0.25,0.12,0.37,0.19
		c0.01,0,0.01,0.01,0.02,0.01c0.12,0.08,0.22,0.17,0.31,0.28c0.26,0.33,0.36,0.73,0.27,1.14c-0.03,0.14-0.1,0.27-0.18,0.39
		c-0.03,0.05-0.07,0.1-0.11,0.14c-0.05,0.06-0.11,0.11-0.16,0.16c-0.15,0.13-0.32,0.24-0.51,0.31c0,0,0,0,0,0c0,0,0,0,0,0
		c-0.09,0.04-0.19,0.06-0.28,0.09c-0.15,0.03-0.3,0.07-0.46,0.07h-7.34c-0.94,0-1.86-0.35-2.49-0.94l-2.34-2.31
		c-0.82-0.81-1.91-1.26-3.07-1.26h-2.9l0-4.12l0-2.52v0v0c0,0,0,0,0,0l0-5.82l0,0v-1.62l0,0l0-2.46c0-0.44-0.36-0.8-0.8-0.8
		c-0.44,0-0.8,0.36-0.8,0.8l0,3.41c0,0,0,0,0,0v6.49v0.96v2.63v3.85v0.83h-7.14h-0.02c-0.09-0.08-0.16-0.18-0.25-0.26
		c-0.48-0.47-0.94-0.95-1.39-1.44c-0.13-0.15-0.26-0.3-0.39-0.45c-0.41-0.47-0.81-0.95-1.19-1.45c-0.08-0.1-0.16-0.2-0.24-0.31
		c-0.47-0.62-0.91-1.25-1.33-1.9c-0.05-0.07-0.09-0.14-0.13-0.21c-0.88-1.37-1.67-2.82-2.35-4.32c-0.01-0.02-0.01-0.03-0.02-0.05
		c-0.67-1.5-1.23-3.05-1.68-4.65c-0.02-0.05-0.03-0.11-0.05-0.16c-0.21-0.78-0.4-1.56-0.55-2.35c0-0.02-0.01-0.04-0.01-0.06h0h5.04
		c0.41,0.46,0.93,0.8,1.54,0.93c0.72,0.16,1.46,0.04,2.09-0.32v6.67c0,1.43,1.01,2.67,2.35,2.89c0.58,0.09,1.17,0.01,1.69-0.24v0.49
		c0,0.82,0.36,1.6,0.99,2.14c0.51,0.44,1.16,0.67,1.83,0.67c0.15,0,0.3-0.01,0.45-0.03c0.27-0.04,0.53-0.14,0.77-0.26l0-2.63
		c0,0.5-0.25,0.94-0.61,1.17c-0.12,0.08-0.26,0.13-0.4,0.15c-0.37,0.06-0.72-0.04-1-0.28c-0.27-0.23-0.43-0.57-0.43-0.93l0-2.94
		c0-0.03,0-0.05,0-0.08c0,0,0-0.01,0-0.01v-7.31c0-0.44-0.36-0.8-0.8-0.8s-0.8,0.36-0.8,0.8v7.32c0,0,0,0,0,0v0
		c0,0.03-0.02,0.06-0.02,0.09c-0.01,0.15-0.03,0.29-0.09,0.42c-0.07,0.16-0.18,0.3-0.32,0.42c-0.28,0.24-0.64,0.33-1,0.27
		c-0.58-0.09-1.01-0.66-1.01-1.32v-7.28V54.4v-0.65c0,0,0,0,0,0v-4.06c0-0.34,0.13-0.67,0.34-0.91l0.9-0.98
		c0.3-0.32,0.28-0.83-0.04-1.12c-0.32-0.3-0.82-0.28-1.12,0.04l-0.9,0.98c-0.49,0.53-0.77,1.24-0.77,1.99v4.07c0,0,0,0,0,0v0
		c0,0.12-0.01,0.23-0.04,0.34c-0.02,0.11-0.05,0.21-0.09,0.31c0,0,0,0,0,0c0,0,0,0,0,0c-0.05,0.13-0.11,0.25-0.19,0.37
		c0,0.01-0.01,0.01-0.01,0.02c-0.08,0.12-0.17,0.22-0.28,0.31c-0.33,0.26-0.73,0.36-1.14,0.27c-0.14-0.03-0.27-0.1-0.39-0.18
		c-0.05-0.03-0.1-0.07-0.14-0.11c-0.06-0.05-0.11-0.11-0.16-0.16c-0.12-0.13-0.21-0.29-0.28-0.46c-0.01-0.02-0.02-0.03-0.03-0.05
		c-0.04-0.09-0.06-0.19-0.09-0.28c-0.03-0.15-0.07-0.3-0.07-0.46v-7.34c0-0.94,0.35-1.85,0.94-2.49l2.31-2.34
		c0.81-0.82,1.26-1.91,1.26-3.07v-2.9l4.12,0c-0.01,0.01-0.01,0.02-0.01,0.04c-0.05,0.12-0.1,0.24-0.14,0.36
		c-0.02,0.05-0.02,0.11-0.04,0.16c-0.06,0.22-0.09,0.45-0.09,0.68c0,0.14,0.01,0.29,0.03,0.44c0.21,1.34,1.45,2.36,2.89,2.36h0.39
		c-0.25,0.51-0.34,1.1-0.24,1.68c0.21,1.34,1.45,2.36,2.89,2.36h4.1c0.43,2.72,0.67,5.49,0.67,8.24v4.91v1.62v3.84
		c0,0.66-0.44,1.23-1.01,1.32c-0.37,0.06-0.72-0.04-1-0.28c-0.26-0.22-0.41-0.54-0.43-0.87V62.3c0,0,0,0,0-0.01V54.8
		c0-0.44-0.36-0.8-0.8-0.8c-0.44,0-0.8,0.36-0.8,0.8v7.49v2.92c0,0.65-0.45,1.23-1.02,1.32c-0.37,0.06-0.72-0.04-1-0.28
		c-0.27-0.23-0.43-0.57-0.43-0.93v2.52c0.51,0.25,1.1,0.34,1.68,0.26c1.34-0.21,2.36-1.45,2.36-2.89v-0.39
		c0.51,0.25,1.1,0.34,1.68,0.24c1.34-0.21,2.36-1.45,2.36-2.89v-4.1c2.72-0.44,5.49-0.67,8.24-0.67h4.91h1.62h3.84
		c0.66,0,1.23,0.44,1.32,1.01c0.06,0.37-0.04,0.72-0.28,1c-0.22,0.26-0.54,0.42-0.88,0.43H62.4h0c0,0,0,0-0.01,0
		c-0.22,0-0.42,0.09-0.56,0.23c0.14-0.14,0.34-0.23,0.56-0.23h-3.51h-1.62h-2.37c-0.44,0-0.8,0.36-0.8,0.8c0,0.44,0.36,0.8,0.8,0.8
		h2.65h1.62h3.23h2.92c0.65,0,1.23,0.45,1.32,1.02c0.06,0.37-0.04,0.72-0.28,1c-0.23,0.27-0.57,0.43-0.93,0.43h-5.82h-1.62h-2.46
		c-0.44,0-0.8,0.36-0.8,0.8c0,0.44,0.36,0.8,0.8,0.8h3.41h6.49h0.96h0c0.65,0,1.23,0.45,1.32,1.02c0.06,0.37-0.04,0.72-0.28,1
		c-0.23,0.27-0.57,0.43-0.93,0.43l-2.94,0c-0.03,0-0.06,0-0.08,0c0,0,0,0-0.01,0h-7.31c-0.03,0-0.05,0.01-0.07,0.01
		c-0.4,0.04-0.72,0.37-0.72,0.78c0,0.41,0.32,0.74,0.72,0.78c0.03,0,0.05,0.01,0.07,0.01h7.32c0,0,0,0,0,0h0l0,0c0,0,0,0,0,0
		c0.36,0,0.69,0.16,0.93,0.43c0.24,0.28,0.33,0.63,0.27,1c-0.09,0.58-0.66,1.01-1.32,1.01l-8.65,0H54.5l-0.65,0c0,0,0,0,0,0h-4.06
		c-0.34,0-0.68-0.13-0.91-0.34l-0.98-0.9c-0.32-0.3-0.83-0.28-1.12,0.04C46.48,71.09,46.5,71.59,46.82,71.89z M73.69,72.63v0.02
		c-0.08,0.09-0.18,0.17-0.26,0.25c-0.47,0.48-0.94,0.94-1.44,1.38c-0.15,0.14-0.31,0.26-0.46,0.4c-0.46,0.4-0.94,0.8-1.42,1.17
		c-0.11,0.09-0.22,0.17-0.33,0.26c-0.61,0.46-1.24,0.9-1.88,1.32c-0.08,0.05-0.15,0.1-0.23,0.15c-1.37,0.88-2.8,1.66-4.3,2.33
		c-0.02,0.01-0.05,0.02-0.07,0.03c-1.49,0.67-3.03,1.23-4.62,1.67c-0.07,0.02-0.13,0.04-0.2,0.06c-0.76,0.21-1.54,0.39-2.31,0.54
		c-0.03,0.01-0.05,0.01-0.08,0.02v0v-5.04c0.46-0.41,0.8-0.93,0.93-1.54c0.16-0.72,0.04-1.46-0.32-2.09l6.67,0
		c1.43,0,2.67-1.01,2.89-2.35c0.1-0.58,0.01-1.17-0.24-1.69h0.49c0.82,0,1.6-0.36,2.14-0.99c0.54-0.63,0.77-1.46,0.64-2.28
		c-0.04-0.27-0.14-0.53-0.26-0.77h3.85h0.83V72.63z M75.28,70.86v-6.16c0-0.44-0.36-0.8-0.8-0.8h-0.83V61c0-0.73,0.28-1.43,0.8-1.95
		l2.33-2.36c0.89-0.96,1.38-2.24,1.38-3.59v-7.34c0-0.25-0.03-0.5-0.08-0.74h4.52c0.22,1.53,0.34,3.1,0.34,4.69
		C82.94,57.74,80.06,65.12,75.28,70.86z"/>
	
		<linearGradient id="SVGID_00000166654732803282046000000015894296353173595302_" gradientUnits="userSpaceOnUse" x1="93.8191" y1="76.5585" x2="22.8943" y2="22.3876">
		<stop  offset="0.4" style="stop-color:#F39800"/>
		<stop  offset="0.9039" style="stop-color:#C42D1B"/>
	</linearGradient>
	<path style="fill:url(#SVGID_00000166654732803282046000000015894296353173595302_);" d="M21.19,24c1.61,0,2.92-1.31,2.92-2.92
		c0-1.61-1.31-2.92-2.92-2.92c-1.61,0-2.92,1.31-2.92,2.92C18.27,22.69,19.58,24,21.19,24z M21.19,19.76c0.73,0,1.33,0.59,1.33,1.33
		c0,0.73-0.59,1.33-1.33,1.33c-0.73,0-1.33-0.59-1.33-1.33C19.86,20.35,20.46,19.76,21.19,19.76z"/>
	
		<linearGradient id="SVGID_00000170956981015326288110000001207692225395457203_" gradientUnits="userSpaceOnUse" x1="115.2723" y1="48.4703" x2="44.3475" y2="-5.7006">
		<stop  offset="0.4" style="stop-color:#F39800"/>
		<stop  offset="0.9039" style="stop-color:#C42D1B"/>
	</linearGradient>
	<path style="fill:url(#SVGID_00000170956981015326288110000001207692225395457203_);" d="M75.25,20.82c1.61,0,2.92-1.31,2.92-2.92
		c0-1.61-1.31-2.92-2.92-2.92c-1.61,0-2.92,1.31-2.92,2.92C72.34,19.51,73.64,20.82,75.25,20.82z M75.25,16.58
		c0.73,0,1.33,0.59,1.33,1.33c0,0.73-0.59,1.33-1.33,1.33c-0.73,0-1.33-0.59-1.33-1.33C73.93,17.17,74.52,16.58,75.25,16.58z"/>
	
		<linearGradient id="SVGID_00000117643154926605658200000016584029496977216656_" gradientUnits="userSpaceOnUse" x1="114.0361" y1="50.0889" x2="43.1113" y2="-4.0821">
		<stop  offset="0.4" style="stop-color:#F39800"/>
		<stop  offset="0.9039" style="stop-color:#C42D1B"/>
	</linearGradient>
	<path style="fill:url(#SVGID_00000117643154926605658200000016584029496977216656_);" d="M81.61,28.24c1.61,0,2.92-1.31,2.92-2.92
		c0-1.61-1.31-2.92-2.92-2.92c-1.61,0-2.92,1.31-2.92,2.92C78.7,26.93,80,28.24,81.61,28.24z M81.61,24c0.73,0,1.33,0.59,1.33,1.33
		c0,0.73-0.59,1.33-1.33,1.33c-0.73,0-1.33-0.59-1.33-1.33C80.29,24.59,80.88,24,81.61,24z"/>
	
		<linearGradient id="SVGID_00000024698290016969155170000016898726972362205862_" gradientUnits="userSpaceOnUse" x1="66.5678" y1="112.2381" x2="-4.357" y2="58.0672">
		<stop  offset="0.4" style="stop-color:#F39800"/>
		<stop  offset="0.9039" style="stop-color:#C42D1B"/>
	</linearGradient>
	<path style="fill:url(#SVGID_00000024698290016969155170000016898726972362205862_);" d="M18.01,72.23c-1.61,0-2.92,1.31-2.92,2.92
		c0,1.61,1.31,2.92,2.92,2.92c1.61,0,2.92-1.31,2.92-2.92C20.92,73.54,19.61,72.23,18.01,72.23z M18.01,76.47
		c-0.73,0-1.33-0.59-1.33-1.33c0-0.73,0.59-1.33,1.33-1.33c0.73,0,1.33,0.59,1.33,1.33C19.33,75.88,18.74,76.47,18.01,76.47z"/>
	
		<linearGradient id="SVGID_00000082339225789359747260000002826630259997689476_" gradientUnits="userSpaceOnUse" x1="66.6246" y1="112.1638" x2="-4.3003" y2="57.9928">
		<stop  offset="0.4" style="stop-color:#F39800"/>
		<stop  offset="0.9039" style="stop-color:#C42D1B"/>
	</linearGradient>
	<path style="fill:url(#SVGID_00000082339225789359747260000002826630259997689476_);" d="M26.49,78.59c-1.61,0-2.92,1.31-2.92,2.92
		s1.31,2.92,2.92,2.92c1.61,0,2.92-1.31,2.92-2.92S28.1,78.59,26.49,78.59z M26.49,82.83c-0.73,0-1.33-0.59-1.33-1.33
		c0-0.73,0.59-1.33,1.33-1.33c0.73,0,1.33,0.59,1.33,1.33C27.81,82.24,27.22,82.83,26.49,82.83z"/>
	
		<linearGradient id="SVGID_00000085968919120408405370000000279678554776172716_" gradientUnits="userSpaceOnUse" x1="89.1001" y1="82.7371" x2="18.1752" y2="28.5661">
		<stop  offset="0.4" style="stop-color:#F39800"/>
		<stop  offset="0.9039" style="stop-color:#C42D1B"/>
	</linearGradient>
	<path style="fill:url(#SVGID_00000085968919120408405370000000279678554776172716_);" d="M80.55,73.29c-1.61,0-2.92,1.31-2.92,2.92
		c0,1.61,1.31,2.92,2.92,2.92c1.61,0,2.92-1.31,2.92-2.92C83.47,74.6,82.16,73.29,80.55,73.29z M80.55,77.53
		c-0.73,0-1.33-0.59-1.33-1.33c0-0.73,0.59-1.33,1.33-1.33c0.73,0,1.33,0.59,1.33,1.33C81.88,76.94,81.28,77.53,80.55,77.53z"/>
</g>
</svg>
