<?xml version="1.0" encoding="utf-8"?>
<!-- Generator: Adobe Illustrator 26.5.0, SVG Export Plug-In . SVG Version: 6.00 Build 0)  -->
<svg version="1.1" id="圖層_1" xmlns="http://www.w3.org/2000/svg" xmlns:xlink="http://www.w3.org/1999/xlink" x="0px" y="0px"
	 viewBox="0 0 100 100" style="enable-background:new 0 0 100 100;" xml:space="preserve">
<style type="text/css">
	.st0{fill:url(#SVGID_1_);}
	.st1{fill:url(#SVGID_00000069382635448088049250000000234693388291071412_);}
	.st2{fill:url(#SVGID_00000029745603258728265190000006906760989181057209_);}
	.st3{fill:url(#SVGID_00000124870321039299871390000018127753475633904530_);}
	.st4{fill:url(#SVGID_00000034771800540796582410000014053142746875029893_);}
	.st5{fill:url(#SVGID_00000132769868078517724980000008927178616091501724_);}
	.st6{fill:url(#SVGID_00000083772706652258406070000006857654885660725161_);}
	.st7{fill:url(#SVGID_00000011018631638782426040000013601014792101230750_);}
	.st8{fill:url(#SVGID_00000118354684507482042620000017570472416394742181_);}
	.st9{fill:url(#SVGID_00000098941902815745896920000004432121441174970021_);}
	.st10{fill:url(#SVGID_00000000913003345398850580000016215812622652920236_);}
	.st11{fill:url(#SVGID_00000054984717113175545540000014640411013944821402_);}
	.st12{fill:url(#SVGID_00000052807498759047667890000010577976984454202771_);}
	.st13{fill:url(#SVGID_00000067204654543949904580000009508664940016233368_);}
	.st14{fill:url(#SVGID_00000061473828741261509390000000154312870298434477_);}
	.st15{fill:url(#SVGID_00000052095474291062694090000008690779455419026606_);}
	.st16{fill:url(#SVGID_00000021820277147561914560000014719053741003097266_);}
	.st17{fill:url(#SVGID_00000163047449249205871090000001697180966003699879_);}
	.st18{fill:url(#SVGID_00000080896416114941071280000002946004226387806909_);}
	.st19{fill:url(#SVGID_00000165234446056020535410000004367960855572356003_);}
	.st20{fill:url(#SVGID_00000134945599955311415720000001068763108247628983_);}
	.st21{fill:url(#SVGID_00000032620803687540557630000017870896633833321880_);}
	.st22{fill:url(#SVGID_00000120531640472999451310000005895311655802266004_);}
	.st23{fill:url(#SVGID_00000178186485763598703860000007919950303681389710_);}
	.st24{fill:url(#SVGID_00000167369482482302730510000016507861674028385976_);}
	.st25{fill:url(#SVGID_00000095332781914717166260000012477232269633825682_);}
	.st26{fill:url(#SVGID_00000049189590837838909090000001485617286343687345_);}
	.st27{fill:url(#SVGID_00000093878859379001429990000009147912319203821997_);}
	.st28{fill:url(#SVGID_00000083070508426490203130000006881697790919076249_);}
	.st29{fill:url(#SVGID_00000025420077335091646350000014946138695660641946_);}
	.st30{fill:url(#SVGID_00000047753409707420687080000003246247883934301341_);}
	.st31{fill:url(#SVGID_00000123412620024372436180000015007732223301972613_);}
	.st32{fill:url(#SVGID_00000133510285879293927760000015566701930367189178_);}
	.st33{fill:url(#SVGID_00000033343864963342423820000013085695143873271231_);}
	.st34{fill:url(#SVGID_00000013178792747770781110000016609184721165920414_);}
	.st35{fill:url(#SVGID_00000072279645201414894500000004682099564808806538_);}
	.st36{fill:url(#SVGID_00000009584815799800992520000003449136469931892105_);}
	.st37{fill:url(#SVGID_00000077315190637802609040000016358837583691366825_);}
	.st38{fill:url(#SVGID_00000078004561422226724840000015994198441822012855_);}
	.st39{fill:url(#SVGID_00000024002024230931948460000016523449995794928052_);}
	.st40{fill:url(#SVGID_00000026881536549534256780000000973902421990803112_);}
	.st41{fill:url(#SVGID_00000018946281057297649330000016792784907849599925_);}
	.st42{fill:url(#SVGID_00000124879972327410195450000008103063960197527190_);}
	.st43{fill:url(#SVGID_00000098191535991878574650000012420357348595795114_);}
	.st44{fill:url(#SVGID_00000016057735518926524250000011084453117272489104_);}
	.st45{fill:url(#SVGID_00000099635143577714057090000013123117652898009248_);}
	.st46{fill:url(#SVGID_00000087387978917151800320000004954052174479884729_);}
	.st47{fill:url(#SVGID_00000028311631345284851790000005217723298209056401_);}
	.st48{fill:url(#SVGID_00000040572962282151272800000015583537535257210019_);}
	.st49{fill:url(#SVGID_00000109727655064064786670000010148361702393900718_);}
	.st50{fill:url(#SVGID_00000119098751277661956080000009116038440934111675_);}
	.st51{fill:url(#SVGID_00000026850515623150160500000004293361322597441681_);}
	.st52{fill:url(#SVGID_00000081631586850226142620000007195240143246813081_);}
	.st53{fill:url(#SVGID_00000009564308264078469760000002802214789020400810_);}
	.st54{fill:url(#SVGID_00000134216181058880847640000010118515977067322810_);}
	.st55{fill:url(#SVGID_00000022523937461694107300000003398565872772837274_);}
	.st56{fill:url(#SVGID_00000105407510305307305100000002390173759594540715_);}
	.st57{fill:url(#SVGID_00000127014160622357189200000015354445856308823483_);}
	.st58{fill:url(#SVGID_00000053532419728535003430000011829571806764074119_);}
	.st59{fill:url(#SVGID_00000088126293214158988940000002114081966676931218_);}
	.st60{fill:url(#SVGID_00000024720895756688152070000005228697129836949888_);}
	.st61{fill:url(#SVGID_00000083074546375769367970000004186362571280375981_);}
	.st62{fill:url(#SVGID_00000000206734942491761820000002253711658095028914_);}
	.st63{fill:url(#SVGID_00000050658213907486671170000007208102205840994212_);}
	.st64{fill:url(#SVGID_00000016761300281427965210000003338060888813940147_);}
	.st65{fill:url(#SVGID_00000178925844913178654440000013554540892304263826_);}
	.st66{fill:url(#SVGID_00000139265829659347447890000006983299220212862616_);}
	.st67{fill:url(#SVGID_00000101784048561100310850000007062419330756606142_);}
	.st68{fill:url(#SVGID_00000135666310952104740850000016981359186904396963_);}
	.st69{fill:url(#SVGID_00000114793726492194770750000008428945550067750051_);}
	.st70{fill:url(#SVGID_00000044866326167591953420000005514929216791439793_);}
	.st71{fill:url(#SVGID_00000010300484141925457210000001446223914037923733_);}
	.st72{fill:url(#SVGID_00000065060088285946217010000002216828871792408993_);}
	.st73{fill:url(#SVGID_00000170990124589814949440000009151210865921042332_);}
	.st74{fill:url(#SVGID_00000133503852456539744170000010655898992734689417_);}
	.st75{fill:url(#SVGID_00000063622228882569722030000007730482108868733349_);}
	.st76{fill:url(#SVGID_00000129905622499919658660000016324023441736500886_);}
	.st77{fill:url(#SVGID_00000062877971911322967150000017256537164711209898_);}
	.st78{fill:url(#SVGID_00000080199717440813057590000005587340652187906715_);}
	.st79{fill:url(#SVGID_00000124844000472459078720000004717472320919682225_);}
	.st80{fill:url(#SVGID_00000090984794006501573530000017208066554573115273_);}
	.st81{fill:url(#SVGID_00000173858695013515896620000003132396349610195379_);}
	.st82{fill:url(#SVGID_00000148636102101318440860000008152005638866720186_);}
	.st83{fill:url(#SVGID_00000082349964906612385910000012754914076754679231_);}
	.st84{fill:url(#SVGID_00000077308840369167844360000009486341034746301882_);}
	.st85{fill:url(#SVGID_00000165194936400080085080000013687151159970873270_);}
	.st86{fill:url(#SVGID_00000124881405233873277130000007541974027455239868_);}
	.st87{fill:url(#SVGID_00000086650891678037460620000000909081656743097999_);}
	.st88{fill:url(#SVGID_00000052814375430895705600000007454739372372307353_);}
	.st89{fill:url(#SVGID_00000066492403863749470000000017417474519083501972_);}
	.st90{fill:url(#SVGID_00000029038680973105509920000014218966107154647216_);}
	.st91{fill:url(#SVGID_00000128458733853887354870000006807185364990902408_);}
	.st92{fill:url(#SVGID_00000053520234948002200080000009951444951003695796_);}
	.st93{fill:url(#SVGID_00000107574419299320664450000006704347827213182098_);}
	.st94{fill:url(#SVGID_00000106136634109016811310000000658982372605430701_);}
	.st95{fill:url(#SVGID_00000141443977470671089910000006433453661069899166_);}
	.st96{fill:url(#SVGID_00000093155216535094444900000007063651954986843018_);}
	.st97{fill:url(#SVGID_00000057109680834913301850000010850065536548601262_);}
	.st98{fill:url(#SVGID_00000108995875603762424130000005026686053656897932_);}
	.st99{fill:url(#SVGID_00000174587635729838923200000003757685342887779727_);}
	.st100{fill:url(#SVGID_00000085943483307817541040000007247003668267751335_);}
	.st101{fill:url(#SVGID_00000021801899573782859900000004742285128805128603_);}
	.st102{fill:url(#SVGID_00000054945070474479952100000001178322615744889017_);}
	.st103{fill:url(#SVGID_00000042700146019200255960000010793686995813833901_);}
	.st104{fill:url(#SVGID_00000141439091440441363760000013415663648908311712_);}
	.st105{fill:url(#SVGID_00000097470353197028033770000009582213215339075500_);}
	.st106{fill:url(#SVGID_00000148640566497438948480000006872058166979688892_);}
	.st107{fill:url(#SVGID_00000084501999053756611330000013025306328262535311_);}
	.st108{fill:url(#SVGID_00000179611447087359807530000001752593621158396560_);}
	.st109{fill:url(#SVGID_00000096751082885134045770000017586801853613741499_);}
	.st110{fill:url(#SVGID_00000101818687650972941190000007097903615944596158_);}
	.st111{fill:url(#SVGID_00000004542629516113463930000014289511974344668344_);}
	.st112{fill:url(#SVGID_00000093897703346298012390000015461415517640789894_);}
	.st113{fill:url(#SVGID_00000098188911927353979090000013026966288538994319_);}
	.st114{fill:url(#SVGID_00000040573968387678690480000008847789065714977454_);}
	.st115{fill:url(#SVGID_00000105403746173877318190000016206153395473303693_);}
	.st116{fill:url(#SVGID_00000030455397852493933330000001237021675349641113_);}
	.st117{fill:url(#SVGID_00000140699086903498108000000006398955521083818373_);}
	.st118{fill:url(#SVGID_00000100356914841962799260000015281903135209442735_);}
	.st119{fill:url(#SVGID_00000079470026769473023940000006271792211285383330_);}
	.st120{fill:url(#SVGID_00000157296142253150154360000005208002118329669556_);}
	.st121{fill:url(#SVGID_00000176739444548157386720000009444474376231987860_);}
	.st122{fill:url(#SVGID_00000058551317506608973840000010357315678899511965_);}
	.st123{fill:url(#SVGID_00000135681992359707356900000007044317417268335237_);}
	.st124{fill:url(#SVGID_00000074419840536089385180000002413248661224538515_);}
	.st125{fill:url(#SVGID_00000067237409614361529260000006550497600979518620_);}
	.st126{fill:url(#SVGID_00000001642171203754369370000018441364202689427103_);}
	.st127{fill:#2C4F80;}
	.st128{fill:url(#SVGID_00000150062177313865454460000010301960061072953259_);}
	.st129{fill:url(#SVGID_00000112604785023859682390000000158902658638503096_);}
	.st130{fill:url(#SVGID_00000161614647532862167880000006330009837482155659_);}
	.st131{fill:url(#SVGID_00000182492653809509918280000004206598051486823345_);}
	.st132{fill:url(#SVGID_00000071535437591303333030000016976819176128044698_);}
	.st133{fill:url(#SVGID_00000061442476207161303090000005970547481355158931_);}
	.st134{fill:url(#SVGID_00000175323590178194615920000015286983203699529097_);}
	.st135{fill:url(#SVGID_00000075870754749791197170000002246606781323106198_);}
	.st136{fill:url(#SVGID_00000154388545597336936120000004712749481290886577_);}
	.st137{fill:url(#SVGID_00000010288696282243075470000007528084577427756680_);}
	.st138{fill:url(#SVGID_00000085953317731460870460000003314746516163876520_);}
	.st139{fill:url(#SVGID_00000044880606991744302210000016823566754731223718_);}
	.st140{fill:url(#SVGID_00000051373549382326601990000004501098795618373822_);}
	.st141{fill:url(#SVGID_00000006681874424228657210000002920457130121703861_);}
	.st142{fill:url(#SVGID_00000134237591869187501470000006387915765263248303_);}
	.st143{fill:url(#SVGID_00000168113446943022227040000013655599568576729997_);}
	.st144{fill:url(#SVGID_00000074423939945099800030000000048747588810467252_);}
	.st145{fill:url(#SVGID_00000146492867712372868280000004641161180835510678_);}
	.st146{fill:url(#SVGID_00000176017174628394622430000001046186900333812870_);}
	.st147{fill:url(#SVGID_00000074416116984097628640000000997660031821353129_);}
	.st148{fill:url(#SVGID_00000088839919969900228480000018233731738796224134_);}
	.st149{fill:url(#SVGID_00000141426518362994226790000004594993802043831216_);}
	.st150{fill:url(#SVGID_00000005231780904395057020000006886616981136864685_);}
	.st151{fill:url(#SVGID_00000148629845245551635100000013211738957755844022_);}
	.st152{fill:url(#SVGID_00000016779111491691777020000016694943320312457120_);}
	.st153{fill:url(#SVGID_00000047031570367239348120000007628768811694372243_);}
	.st154{fill:url(#SVGID_00000129885726220692629300000005566429253152586937_);}
	.st155{fill:url(#SVGID_00000133522127951664592440000004008586812829723044_);}
	.st156{fill:url(#SVGID_00000096056273579707619160000012689501107226794629_);}
	.st157{fill:url(#SVGID_00000170264467264559026190000010236098969338200487_);}
	.st158{fill:url(#SVGID_00000154403060607528526230000014964775905379976127_);}
	.st159{fill:url(#SVGID_00000147195685493631633020000011281255900705981613_);}
	.st160{fill:url(#SVGID_00000171719261785754506540000017170060242715768747_);}
	.st161{fill:url(#SVGID_00000119827503321941304060000008224482474788236474_);}
	.st162{fill:url(#SVGID_00000038414104461474745030000001093781829693058238_);}
	.st163{fill:url(#SVGID_00000147932463006374780130000007662740734488913048_);}
	.st164{fill:url(#SVGID_00000165937296988915250270000013147723709596455613_);}
	.st165{fill:url(#SVGID_00000089537696793331818530000002800906558600973726_);}
	.st166{fill:url(#SVGID_00000150079585297355384680000006580543226831630486_);}
	.st167{fill:url(#SVGID_00000100344853684242575600000004170355579803306401_);}
	.st168{fill:url(#SVGID_00000174594289851552684520000000639586555931683260_);}
	.st169{fill:url(#SVGID_00000150070140689926642070000002320346294800660387_);}
	.st170{fill:url(#SVGID_00000082329487461043558770000012435733899118589336_);}
	.st171{fill:url(#SVGID_00000072991510677740104100000007637952016291419811_);}
	.st172{fill:url(#SVGID_00000054248324266325702220000003588309393045786766_);}
	.st173{fill:url(#SVGID_00000047052356428658731850000017191433283617517219_);}
	.st174{fill:url(#SVGID_00000100365810280249412790000000477896013740551556_);}
	.st175{fill:url(#SVGID_00000063594357895918431790000002312144476755347902_);}
	.st176{fill:url(#SVGID_00000122722589301074446340000005897896081324910998_);}
	.st177{fill:url(#SVGID_00000060715233803826959590000014772115297880648619_);}
	.st178{fill:url(#SVGID_00000140725665423215322250000007604633620987805621_);}
	.st179{fill:url(#SVGID_00000000224314539605766190000008915794662198304137_);}
	.st180{fill:url(#SVGID_00000121965766101907493180000004295281467737895871_);}
	.st181{fill:url(#SVGID_00000115479385131173522130000000119989331035694248_);}
	.st182{fill:url(#SVGID_00000018917407853950971990000017648378994639003268_);}
	.st183{fill:url(#SVGID_00000173871954069462520900000001268044882972078998_);}
	.st184{fill:url(#SVGID_00000031892550449935282610000009703460459944016555_);}
	.st185{fill:url(#SVGID_00000034053435586903333590000005218472902489788596_);}
	.st186{fill:url(#SVGID_00000055684712791788473790000006961261489375317424_);}
	.st187{fill:url(#SVGID_00000014597764374658966350000003526998907652807571_);}
	.st188{fill:url(#SVGID_00000023240396148249738090000001107224402653885329_);}
	.st189{fill:url(#SVGID_00000124876897551211626850000001492049505583523986_);}
	.st190{fill:url(#SVGID_00000012437524595337267370000011238384625809128856_);}
	.st191{fill:url(#SVGID_00000019678874191161783670000017113674627863291810_);}
	.st192{fill:url(#SVGID_00000024002115048807350920000001013479504727917495_);}
	.st193{fill:url(#SVGID_00000089564757122977245940000015438886410986921088_);}
	.st194{fill:url(#SVGID_00000080927057275795448620000009272663757915163782_);}
	.st195{fill:url(#SVGID_00000081646713536591063400000005980987682407790224_);}
	.st196{fill:url(#SVGID_00000029731434035402712320000017420559436959807104_);}
	.st197{fill:url(#SVGID_00000176034362557217632410000007970719078588115085_);}
	.st198{fill:url(#SVGID_00000065776441654481941030000016864211145979529612_);}
	.st199{fill:url(#SVGID_00000062171138725696140620000000909768194732964246_);}
	.st200{fill:url(#SVGID_00000041262571498064230120000002322737074035668369_);}
	.st201{fill:url(#SVGID_00000080183541805811584570000010138027939912569493_);}
	.st202{fill:url(#SVGID_00000139984617152865596000000005339556097747401867_);}
	.st203{fill:url(#SVGID_00000059300703500103707470000012169127781210650262_);}
	.st204{fill:url(#SVGID_00000009553918163034744920000008417921608486425999_);}
	.st205{fill:url(#SVGID_00000105385120947983483040000007306814371320231605_);}
	.st206{fill:url(#SVGID_00000070841047965170911700000002958655330879422139_);}
	.st207{fill:url(#SVGID_00000074423162670542337860000010576000767772214678_);}
	.st208{fill:url(#SVGID_00000145057874330027651190000007085507544499293318_);}
	.st209{fill:url(#SVGID_00000098197354629275459130000015467674377176989583_);}
	.st210{fill:url(#SVGID_00000121960524902766098840000011222025109352594857_);}
	.st211{fill:url(#SVGID_00000157299596196405797370000000522404182203829429_);}
	.st212{fill:url(#SVGID_00000059991768621359337810000016052649859021566137_);}
	.st213{fill:url(#SVGID_00000152221742504456923380000007788064523249015214_);}
	.st214{fill:url(#SVGID_00000067955022464772356300000009343768465617358985_);}
	.st215{fill:url(#SVGID_00000173132395390386907170000013477197447186125723_);}
	.st216{fill:url(#SVGID_00000182507102690854754710000006779649493159707838_);}
	.st217{fill:url(#SVGID_00000133487471831483155680000012587818739336673441_);}
	.st218{fill:url(#SVGID_00000005227762144606413400000013085454183291534982_);}
	.st219{fill:url(#SVGID_00000116212613785971155740000014245233929482476423_);}
	.st220{fill:url(#SVGID_00000059306084996043230550000010742093948419671969_);}
	.st221{fill:url(#SVGID_00000165933336113590157260000004060735342380549793_);}
	.st222{fill:url(#SVGID_00000126284742538963693010000009687428797497513882_);}
	.st223{fill:url(#SVGID_00000105421122454719336910000005132605506351099013_);}
	.st224{fill:url(#SVGID_00000010296831613561660700000006969031128593643137_);}
	.st225{fill:url(#SVGID_00000124141291255063640910000015168242484058304432_);}
	.st226{fill:url(#SVGID_00000121976819711540384690000016813148769536612270_);}
	.st227{fill:url(#SVGID_00000156556971047913903410000016248298704104624051_);}
	.st228{fill:url(#SVGID_00000116221837508538724180000004443062061878361256_);}
</style>
<g>
	<linearGradient id="SVGID_1_" gradientUnits="userSpaceOnUse" x1="77.2976" y1="91.8303" x2="13.0149" y2="38.7419">
		<stop  offset="0.4" style="stop-color:#F39800"/>
		<stop  offset="0.9039" style="stop-color:#C42D1B"/>
	</linearGradient>
	<path class="st0" d="M42.53,70.67c-0.57,0-1.13-0.14-1.64-0.41c-1.46-0.77-2.15-2.6-1.61-4.25l2.62-7.96l-5.14-5.02l-5.03,5.83
		c-1.02,1.18-2.54,1.78-4.09,1.6l-8.18-0.93c-1.7-0.19-3.03-1.52-3.16-3.15c-0.08-1.05,0.3-2.06,1.04-2.78
		c0.75-0.72,1.76-1.07,2.79-0.95l7.35,0.84l3.11-3.81c0.35-0.43,0.53-0.97,0.5-1.53v0l-0.05-0.99c-0.02-0.41,0.29-0.76,0.7-0.78
		l9.29-0.51c0.19-0.02,0.39,0.06,0.54,0.19c0.15,0.13,0.24,0.32,0.25,0.51l0.05,0.99c0.03,0.55,0.26,1.07,0.65,1.46l5.19,5.19
		c1.26,1.26,1.7,3.09,1.14,4.79l-3.04,9.3c-0.45,1.36-1.66,2.29-3.1,2.37C42.65,70.67,42.59,70.67,42.53,70.67z M36.71,51.21
		c0.19,0,0.38,0.08,0.52,0.21l6.04,5.9c0.2,0.2,0.28,0.5,0.19,0.76l-2.77,8.4c-0.32,0.97,0.07,2.03,0.89,2.47
		c0.33,0.17,0.68,0.26,1.04,0.23c0.82-0.04,1.51-0.58,1.76-1.35l3.04-9.3c0.38-1.16,0.08-2.41-0.78-3.27l-5.19-5.19
		c-0.65-0.65-1.03-1.51-1.08-2.42l-0.01-0.24l-7.8,0.43l0.01,0.25c0.05,0.93-0.25,1.83-0.83,2.55l-3.37,4.12
		c-0.16,0.2-0.41,0.29-0.66,0.27l-7.76-0.88c-0.59-0.07-1.17,0.13-1.59,0.54c-0.43,0.42-0.64,0.98-0.6,1.59
		c0.07,0.91,0.86,1.68,1.84,1.79l8.18,0.93c1.06,0.12,2.1-0.29,2.8-1.09l5.55-6.43c0.13-0.15,0.33-0.25,0.53-0.26
		C36.69,51.21,36.7,51.21,36.71,51.21z"/>
	
		<linearGradient id="SVGID_00000111159136952697136910000018412055342856439683_" gradientUnits="userSpaceOnUse" x1="88.0282" y1="78.8369" x2="23.7455" y2="25.7486">
		<stop  offset="0.4" style="stop-color:#F39800"/>
		<stop  offset="0.9039" style="stop-color:#C42D1B"/>
	</linearGradient>
	<path style="fill:url(#SVGID_00000111159136952697136910000018412055342856439683_);" d="M31.79,47.88c-0.18,0-0.36-0.07-0.5-0.19
		c-0.15-0.13-0.24-0.32-0.25-0.51l-0.53-9.79l-2.31,1.39c-0.22,0.13-0.4,0.34-0.5,0.58l-2.22,5.27c-0.41,1.12-1.48,1.9-2.7,1.97
		c-0.57,0.03-1.14-0.1-1.64-0.38c-1.32-0.72-1.91-2.39-1.35-3.88l2.63-6.19c0.36-0.85,0.96-1.57,1.73-2.08
		c1.69-1.12,4.74-3.1,6.07-3.8c3.09-1.62,7.1-1.53,10.73,0.25l4.65,2.28c0.49,0.24,1.06,0.23,1.54-0.03l5.65-3.07
		c1.43-0.78,3.24-0.39,4.11,0.9c0,0,0,0,0,0c0.49,0.72,0.66,1.61,0.45,2.45c-0.2,0.84-0.76,1.56-1.52,1.98l-7.08,3.85
		c-1.31,0.71-2.89,0.76-4.24,0.13l-3.19-1.49l0.49,9.07c0.02,0.41-0.29,0.76-0.7,0.78l-9.29,0.51
		C31.81,47.88,31.8,47.88,31.79,47.88z M31.19,35.37c0.12,0,0.24,0.03,0.35,0.09c0.23,0.12,0.38,0.36,0.39,0.62l0.56,10.28l7.8-0.43
		l-0.52-9.57c-0.01-0.26,0.11-0.51,0.33-0.66c0.22-0.15,0.49-0.17,0.73-0.06l4.32,2.02c0.92,0.43,2.01,0.4,2.9-0.09l7.08-3.85
		c0.39-0.21,0.68-0.58,0.78-1.02c0.11-0.44,0.02-0.89-0.24-1.27c-0.45-0.66-1.41-0.85-2.18-0.43l-5.65,3.07
		c-0.9,0.49-1.98,0.51-2.9,0.06l-4.65-2.28c-3.21-1.57-6.72-1.67-9.39-0.27c-1.28,0.67-4.27,2.62-5.94,3.72
		c-0.53,0.35-0.94,0.84-1.18,1.42l-2.62,6.16c-0.28,0.77,0,1.65,0.69,2.02c0.26,0.14,0.56,0.22,0.85,0.2
		c0.63-0.03,1.18-0.44,1.4-1.03l2.23-5.3c0.22-0.53,0.61-0.98,1.1-1.27l3.37-2.03C30.92,35.4,31.06,35.37,31.19,35.37z"/>
	
		<linearGradient id="SVGID_00000093876461208426904230000015484445688105436575_" gradientUnits="userSpaceOnUse" x1="94.3518" y1="71.1799" x2="30.0691" y2="18.0915">
		<stop  offset="0.4" style="stop-color:#F39800"/>
		<stop  offset="0.9039" style="stop-color:#C42D1B"/>
	</linearGradient>
	<path style="fill:url(#SVGID_00000093876461208426904230000015484445688105436575_);" d="M35.46,27.4c-1.2,0-2.33-0.43-3.23-1.24
		c-0.96-0.86-1.53-2.05-1.6-3.35c-0.07-1.29,0.37-2.53,1.23-3.5c0.86-0.96,2.05-1.53,3.34-1.6c2.67-0.14,4.96,1.91,5.1,4.58
		c0.14,2.67-1.91,4.96-4.58,5.1l0,0C35.64,27.39,35.55,27.4,35.46,27.4z M35.69,26.65L35.69,26.65L35.69,26.65z M35.47,19.19
		c-0.06,0-0.12,0-0.18,0c-0.9,0.05-1.72,0.44-2.32,1.11c-0.6,0.67-0.9,1.53-0.85,2.42c0.05,0.9,0.44,1.72,1.11,2.32
		c0.67,0.6,1.53,0.91,2.43,0.85l0,0c1.85-0.1,3.27-1.69,3.17-3.54C38.73,20.58,37.24,19.19,35.47,19.19z"/>
	
		<linearGradient id="SVGID_00000099654249888604992070000012988721007458358912_" gradientUnits="userSpaceOnUse" x1="106.8743" y1="56.0169" x2="42.5916" y2="2.9285">
		<stop  offset="0.4" style="stop-color:#F39800"/>
		<stop  offset="0.9039" style="stop-color:#C42D1B"/>
	</linearGradient>
	<path style="fill:url(#SVGID_00000099654249888604992070000012988721007458358912_);" d="M77.37,34.26c-0.12,0-0.24-0.03-0.35-0.09
		l-4.55-2.39l-4.55,2.39c-0.25,0.13-0.55,0.11-0.78-0.06c-0.23-0.17-0.34-0.45-0.3-0.73l0.87-5.07l-3.68-3.59
		c-0.2-0.2-0.28-0.49-0.19-0.76c0.09-0.27,0.32-0.47,0.6-0.51l5.09-0.74l2.28-4.61c0.25-0.51,1.08-0.51,1.33,0l2.28,4.61l5.09,0.74
		c0.28,0.04,0.51,0.24,0.6,0.51c0.09,0.27,0.01,0.56-0.19,0.76l-3.68,3.59l0.87,5.07c0.05,0.28-0.07,0.56-0.3,0.73
		C77.68,34.21,77.52,34.26,77.37,34.26z M72.47,30.2c0.12,0,0.24,0.03,0.35,0.09l3.56,1.87l-0.68-3.97
		c-0.04-0.24,0.04-0.49,0.21-0.66l2.88-2.81l-3.98-0.58c-0.24-0.03-0.45-0.19-0.56-0.41l-1.78-3.61l-1.78,3.61
		c-0.11,0.22-0.32,0.37-0.56,0.41l-3.98,0.58l2.88,2.81c0.17,0.17,0.25,0.42,0.21,0.66l-0.68,3.97l3.56-1.87
		C72.24,30.22,72.36,30.2,72.47,30.2z"/>
	
		<linearGradient id="SVGID_00000116233755805604478210000008739259492631433614_" gradientUnits="userSpaceOnUse" x1="62.3726" y1="109.9023" x2="-1.91" y2="56.8139">
		<stop  offset="0.4" style="stop-color:#F39800"/>
		<stop  offset="0.9039" style="stop-color:#C42D1B"/>
	</linearGradient>
	<path style="fill:url(#SVGID_00000116233755805604478210000008739259492631433614_);" d="M32.87,82.56H17.03
		c-0.25,0-0.48-0.12-0.61-0.33c-0.14-0.2-0.17-0.46-0.07-0.69l1.98-4.95c0.11-0.28,0.39-0.47,0.69-0.47H33.7
		c0.22,0,0.43,0.1,0.57,0.26c0.14,0.17,0.2,0.39,0.17,0.6l-0.83,4.95C33.54,82.29,33.23,82.56,32.87,82.56z M18.13,81.07h14.12
		l0.58-3.47H19.51L18.13,81.07z"/>
	
		<linearGradient id="SVGID_00000050662255628157103670000009037568031854800028_" gradientUnits="userSpaceOnUse" x1="71.3432" y1="99.0402" x2="7.0605" y2="45.9518">
		<stop  offset="0.4" style="stop-color:#F39800"/>
		<stop  offset="0.9039" style="stop-color:#C42D1B"/>
	</linearGradient>
	<path style="fill:url(#SVGID_00000050662255628157103670000009037568031854800028_);" d="M52.67,82.56h-19.8
		c-0.22,0-0.43-0.1-0.57-0.26c-0.14-0.17-0.2-0.39-0.17-0.6l1.98-11.88c0.06-0.36,0.37-0.62,0.73-0.62h18.86
		c0.21,0,0.41,0.09,0.55,0.24c0.14,0.15,0.21,0.36,0.19,0.57l-1.03,11.88C53.38,82.26,53.06,82.56,52.67,82.56z M33.75,81.07h18.25
		l0.9-10.4H35.48L33.75,81.07z"/>
	
		<linearGradient id="SVGID_00000108309579890144717230000008084023422665859231_" gradientUnits="userSpaceOnUse" x1="80.4376" y1="88.0281" x2="16.1549" y2="34.9398">
		<stop  offset="0.4" style="stop-color:#F39800"/>
		<stop  offset="0.9039" style="stop-color:#C42D1B"/>
	</linearGradient>
	<path style="fill:url(#SVGID_00000108309579890144717230000008084023422665859231_);" d="M64.56,82.56H52.67
		c-0.21,0-0.41-0.09-0.55-0.24c-0.14-0.15-0.21-0.36-0.19-0.57l1.98-22.77c0.03-0.38,0.35-0.68,0.74-0.68h10.92
		c0.2,0,0.4,0.08,0.54,0.23c0.14,0.15,0.21,0.34,0.2,0.55L65.3,81.85C65.28,82.24,64.95,82.56,64.56,82.56z M53.48,81.07h10.36
		l0.95-21.29h-9.46L53.48,81.07z"/>
	
		<linearGradient id="SVGID_00000160880421229088394180000014920819344054783380_" gradientUnits="userSpaceOnUse" x1="90.7451" y1="75.5472" x2="26.4624" y2="22.4588">
		<stop  offset="0.4" style="stop-color:#F39800"/>
		<stop  offset="0.9039" style="stop-color:#C42D1B"/>
	</linearGradient>
	<path style="fill:url(#SVGID_00000160880421229088394180000014920819344054783380_);" d="M80.4,82.56H64.56
		c-0.2,0-0.4-0.08-0.54-0.23c-0.14-0.15-0.21-0.34-0.2-0.55l1.98-44.34c0.02-0.4,0.34-0.71,0.74-0.71h11.88
		c0.4,0,0.72,0.31,0.74,0.71l1.98,44.34c0.01,0.2-0.06,0.4-0.2,0.55C80.79,82.47,80.6,82.56,80.4,82.56z M65.33,81.07h14.29
		l-1.91-42.85H67.25L65.33,81.07z"/>
	
		<linearGradient id="SVGID_00000003097730708244378340000003924319165914105503_" gradientUnits="userSpaceOnUse" x1="66.5534" y1="104.8399" x2="2.2708" y2="51.7516">
		<stop  offset="0.4" style="stop-color:#F39800"/>
		<stop  offset="0.9039" style="stop-color:#C42D1B"/>
	</linearGradient>
	<path style="fill:url(#SVGID_00000003097730708244378340000003924319165914105503_);" d="M21.37,67.7H20
		c-0.41,0-0.74-0.33-0.74-0.74c0-0.41,0.33-0.74,0.74-0.74h1.37c0.41,0,0.74,0.33,0.74,0.74C22.11,67.37,21.78,67.7,21.37,67.7z"/>
	
		<linearGradient id="SVGID_00000119817669192897807950000010485198269949223591_" gradientUnits="userSpaceOnUse" x1="68.4064" y1="102.5962" x2="4.1237" y2="49.5079">
		<stop  offset="0.4" style="stop-color:#F39800"/>
		<stop  offset="0.9039" style="stop-color:#C42D1B"/>
	</linearGradient>
	<path style="fill:url(#SVGID_00000119817669192897807950000010485198269949223591_);" d="M25.94,67.7h-1.37
		c-0.41,0-0.74-0.33-0.74-0.74c0-0.41,0.33-0.74,0.74-0.74h1.37c0.41,0,0.74,0.33,0.74,0.74C26.68,67.37,26.35,67.7,25.94,67.7z"/>
	
		<linearGradient id="SVGID_00000115506597003330383670000004221754666845011595_" gradientUnits="userSpaceOnUse" x1="66.358" y1="105.0766" x2="2.0753" y2="51.9883">
		<stop  offset="0.4" style="stop-color:#F39800"/>
		<stop  offset="0.9039" style="stop-color:#C42D1B"/>
	</linearGradient>
	<path style="fill:url(#SVGID_00000115506597003330383670000004221754666845011595_);" d="M22.97,70.67c-0.41,0-0.74-0.33-0.74-0.74
		v-1.37c0-0.41,0.33-0.74,0.74-0.74c0.41,0,0.74,0.33,0.74,0.74v1.37C23.71,70.34,23.38,70.67,22.97,70.67z"/>
	
		<linearGradient id="SVGID_00000159453491393652751700000001588881795154653835_" gradientUnits="userSpaceOnUse" x1="68.6018" y1="102.3597" x2="4.3191" y2="49.2713">
		<stop  offset="0.4" style="stop-color:#F39800"/>
		<stop  offset="0.9039" style="stop-color:#C42D1B"/>
	</linearGradient>
	<path style="fill:url(#SVGID_00000159453491393652751700000001588881795154653835_);" d="M22.97,66.1c-0.41,0-0.74-0.33-0.74-0.74
		v-1.37c0-0.41,0.33-0.74,0.74-0.74c0.41,0,0.74,0.33,0.74,0.74v1.37C23.71,65.77,23.38,66.1,22.97,66.1z"/>
	
		<linearGradient id="SVGID_00000031910647638847516290000003782892678964655277_" gradientUnits="userSpaceOnUse" x1="89.1877" y1="77.4329" x2="24.905" y2="24.3446">
		<stop  offset="0.4" style="stop-color:#F39800"/>
		<stop  offset="0.9039" style="stop-color:#C42D1B"/>
	</linearGradient>
	<path style="fill:url(#SVGID_00000031910647638847516290000003782892678964655277_);" d="M58.01,51.86h-1.37
		c-0.41,0-0.74-0.33-0.74-0.74c0-0.41,0.33-0.74,0.74-0.74h1.37c0.41,0,0.74,0.33,0.74,0.74C58.75,51.53,58.42,51.86,58.01,51.86z"
		/>
	
		<linearGradient id="SVGID_00000084521841120919628540000001579198391191580053_" gradientUnits="userSpaceOnUse" x1="91.0407" y1="75.1892" x2="26.758" y2="22.1009">
		<stop  offset="0.4" style="stop-color:#F39800"/>
		<stop  offset="0.9039" style="stop-color:#C42D1B"/>
	</linearGradient>
	<path style="fill:url(#SVGID_00000084521841120919628540000001579198391191580053_);" d="M62.58,51.86h-1.37
		c-0.41,0-0.74-0.33-0.74-0.74c0-0.41,0.33-0.74,0.74-0.74h1.37c0.41,0,0.74,0.33,0.74,0.74C63.32,51.53,62.99,51.86,62.58,51.86z"
		/>
	
		<linearGradient id="SVGID_00000085966498057510507590000012309979383859245188_" gradientUnits="userSpaceOnUse" x1="88.9924" y1="77.6695" x2="24.7097" y2="24.5811">
		<stop  offset="0.4" style="stop-color:#F39800"/>
		<stop  offset="0.9039" style="stop-color:#C42D1B"/>
	</linearGradient>
	<path style="fill:url(#SVGID_00000085966498057510507590000012309979383859245188_);" d="M59.61,54.83c-0.41,0-0.74-0.33-0.74-0.74
		v-1.37c0-0.41,0.33-0.74,0.74-0.74c0.41,0,0.74,0.33,0.74,0.74v1.37C60.35,54.5,60.02,54.83,59.61,54.83z"/>
	
		<linearGradient id="SVGID_00000045616755219997418470000003730283782223609483_" gradientUnits="userSpaceOnUse" x1="91.2362" y1="74.9525" x2="26.9535" y2="21.8642">
		<stop  offset="0.4" style="stop-color:#F39800"/>
		<stop  offset="0.9039" style="stop-color:#C42D1B"/>
	</linearGradient>
	<path style="fill:url(#SVGID_00000045616755219997418470000003730283782223609483_);" d="M59.61,50.26c-0.41,0-0.74-0.33-0.74-0.74
		v-1.37c0-0.41,0.33-0.74,0.74-0.74c0.41,0,0.74,0.33,0.74,0.74v1.37C60.35,49.93,60.02,50.26,59.61,50.26z"/>
	
		<linearGradient id="SVGID_00000044135968246773434060000013330579488476340898_" gradientUnits="userSpaceOnUse" x1="88.9775" y1="77.6875" x2="24.6948" y2="24.5992">
		<stop  offset="0.4" style="stop-color:#F39800"/>
		<stop  offset="0.9039" style="stop-color:#C42D1B"/>
	</linearGradient>
	<path style="fill:url(#SVGID_00000044135968246773434060000013330579488476340898_);" d="M49.1,44.93h-1.37
		c-0.41,0-0.74-0.33-0.74-0.74c0-0.41,0.33-0.74,0.74-0.74h1.37c0.41,0,0.74,0.33,0.74,0.74C49.84,44.6,49.51,44.93,49.1,44.93z"/>
	
		<linearGradient id="SVGID_00000059297801314574773620000010722609204051716539_" gradientUnits="userSpaceOnUse" x1="90.8304" y1="75.4438" x2="26.5477" y2="22.3555">
		<stop  offset="0.4" style="stop-color:#F39800"/>
		<stop  offset="0.9039" style="stop-color:#C42D1B"/>
	</linearGradient>
	<path style="fill:url(#SVGID_00000059297801314574773620000010722609204051716539_);" d="M53.67,44.93H52.3
		c-0.41,0-0.74-0.33-0.74-0.74c0-0.41,0.33-0.74,0.74-0.74h1.37c0.41,0,0.74,0.33,0.74,0.74C54.41,44.6,54.08,44.93,53.67,44.93z"/>
	
		<linearGradient id="SVGID_00000170247536163838571330000014503337820532183689_" gradientUnits="userSpaceOnUse" x1="88.7821" y1="77.924" x2="24.4994" y2="24.8357">
		<stop  offset="0.4" style="stop-color:#F39800"/>
		<stop  offset="0.9039" style="stop-color:#C42D1B"/>
	</linearGradient>
	<path style="fill:url(#SVGID_00000170247536163838571330000014503337820532183689_);" d="M50.7,47.9c-0.41,0-0.74-0.33-0.74-0.74
		v-1.37c0-0.41,0.33-0.74,0.74-0.74c0.41,0,0.74,0.33,0.74,0.74v1.37C51.44,47.57,51.11,47.9,50.7,47.9z"/>
	
		<linearGradient id="SVGID_00000044858441825380175890000017508422939223008896_" gradientUnits="userSpaceOnUse" x1="91.0257" y1="75.2074" x2="26.743" y2="22.119">
		<stop  offset="0.4" style="stop-color:#F39800"/>
		<stop  offset="0.9039" style="stop-color:#C42D1B"/>
	</linearGradient>
	<path style="fill:url(#SVGID_00000044858441825380175890000017508422939223008896_);" d="M50.7,43.33c-0.41,0-0.74-0.33-0.74-0.74
		v-1.37c0-0.41,0.33-0.74,0.74-0.74c0.41,0,0.74,0.33,0.74,0.74v1.37C51.44,43,51.11,43.33,50.7,43.33z"/>
	
		<linearGradient id="SVGID_00000114071191851267757590000017164961155246742952_" gradientUnits="userSpaceOnUse" x1="101.7653" y1="62.2032" x2="37.4826" y2="9.1148">
		<stop  offset="0.4" style="stop-color:#F39800"/>
		<stop  offset="0.9039" style="stop-color:#C42D1B"/>
	</linearGradient>
	<path style="fill:url(#SVGID_00000114071191851267757590000017164961155246742952_);" d="M53.06,22.15h-1.37
		c-0.41,0-0.74-0.33-0.74-0.74s0.33-0.74,0.74-0.74h1.37c0.41,0,0.74,0.33,0.74,0.74S53.47,22.15,53.06,22.15z"/>
	
		<linearGradient id="SVGID_00000019640492017525179600000004492961449665487491_" gradientUnits="userSpaceOnUse" x1="103.6183" y1="59.9595" x2="39.3356" y2="6.8711">
		<stop  offset="0.4" style="stop-color:#F39800"/>
		<stop  offset="0.9039" style="stop-color:#C42D1B"/>
	</linearGradient>
	<path style="fill:url(#SVGID_00000019640492017525179600000004492961449665487491_);" d="M57.63,22.15h-1.37
		c-0.41,0-0.74-0.33-0.74-0.74s0.33-0.74,0.74-0.74h1.37c0.41,0,0.74,0.33,0.74,0.74S58.04,22.15,57.63,22.15z"/>
	
		<linearGradient id="SVGID_00000105403844335239331400000009848937098719329461_" gradientUnits="userSpaceOnUse" x1="101.57" y1="62.4397" x2="37.2873" y2="9.3514">
		<stop  offset="0.4" style="stop-color:#F39800"/>
		<stop  offset="0.9039" style="stop-color:#C42D1B"/>
	</linearGradient>
	<path style="fill:url(#SVGID_00000105403844335239331400000009848937098719329461_);" d="M54.66,25.12c-0.41,0-0.74-0.33-0.74-0.74
		v-1.37c0-0.41,0.33-0.74,0.74-0.74c0.41,0,0.74,0.33,0.74,0.74v1.37C55.4,24.79,55.07,25.12,54.66,25.12z"/>
	
		<linearGradient id="SVGID_00000146486833457795436850000004121046320089852583_" gradientUnits="userSpaceOnUse" x1="103.8138" y1="59.7227" x2="39.5311" y2="6.6344">
		<stop  offset="0.4" style="stop-color:#F39800"/>
		<stop  offset="0.9039" style="stop-color:#C42D1B"/>
	</linearGradient>
	<path style="fill:url(#SVGID_00000146486833457795436850000004121046320089852583_);" d="M54.66,20.55c-0.41,0-0.74-0.33-0.74-0.74
		v-1.37c0-0.41,0.33-0.74,0.74-0.74c0.41,0,0.74,0.33,0.74,0.74v1.37C55.4,20.22,55.07,20.55,54.66,20.55z"/>
</g>
</svg>
