<?xml version="1.0" encoding="utf-8"?>
<!-- Generator: Adobe Illustrator 26.5.0, SVG Export Plug-In . SVG Version: 6.00 Build 0)  -->
<svg version="1.1" id="圖層_1" xmlns="http://www.w3.org/2000/svg" xmlns:xlink="http://www.w3.org/1999/xlink" x="0px" y="0px"
	 viewBox="0 0 100 100" style="enable-background:new 0 0 100 100;" xml:space="preserve">
<style type="text/css">
	.st0{fill:url(#SVGID_1_);}
	.st1{fill:url(#SVGID_00000103254665099538132670000016593218816451161251_);}
	.st2{fill:url(#SVGID_00000160153431747069235440000012001182284804383903_);}
	.st3{fill:url(#SVGID_00000026850723246980812790000010246801454896314272_);}
	.st4{fill:url(#SVGID_00000008834963781090443240000002936861000314800288_);}
	.st5{fill:url(#SVGID_00000062167901744169970970000012971649161392769212_);}
	.st6{fill:url(#SVGID_00000009564472101181425910000003513077878678512783_);}
	.st7{fill:url(#SVGID_00000083056459801675151030000000747139431724201865_);}
	.st8{fill:url(#SVGID_00000007420792453241514260000013019430904721315501_);}
	.st9{fill:url(#SVGID_00000159433014415108979740000011926146139566602155_);}
	.st10{fill:url(#SVGID_00000055681334870889981510000006692823914045048765_);}
	.st11{fill:url(#SVGID_00000167397134981249119310000000848381719338041263_);}
	.st12{fill:url(#SVGID_00000176040915915322813550000006816757444742448814_);}
	.st13{fill:url(#SVGID_00000021117383433772111130000012645333161907015553_);}
	.st14{fill:url(#SVGID_00000047054149553426130370000014396153924670421133_);}
	.st15{fill:url(#SVGID_00000181072338027741540950000000201008050394538931_);}
	.st16{fill:url(#SVGID_00000079481332217868228710000008691196899661014410_);}
	.st17{fill:url(#SVGID_00000145031671897765287740000017581306690346994841_);}
	.st18{fill:url(#SVGID_00000168092483349697812780000010786170189015445121_);}
	.st19{fill:url(#SVGID_00000010998065618485766220000016119900167276153001_);}
	.st20{fill:url(#SVGID_00000155116475422431260740000018164073402027793331_);}
	.st21{fill:url(#SVGID_00000098906480259337731130000009593992048271490239_);}
	.st22{fill:url(#SVGID_00000107547814176313308030000006987439455367534012_);}
	.st23{fill:url(#SVGID_00000154387663603532465830000012307668567456022446_);}
	.st24{fill:url(#SVGID_00000067934535512486455120000004173446841248757678_);}
	.st25{fill:url(#SVGID_00000109741302855427322440000004584360649839447470_);}
	.st26{fill:url(#SVGID_00000124882671312281161070000016595798268262503075_);}
	.st27{fill:url(#SVGID_00000096023260759632551690000017075250228235154566_);}
	.st28{fill:url(#SVGID_00000107555342134451293200000018187816356410829214_);}
	.st29{fill:url(#SVGID_00000137815932238779408740000010692639138802986643_);}
	.st30{fill:url(#SVGID_00000127008467817529839750000010307011255344705695_);}
	.st31{fill:url(#SVGID_00000066500413507490498610000000553174076157377202_);}
	.st32{fill:url(#SVGID_00000133495961484358081000000004866715122803001736_);}
	.st33{fill:url(#SVGID_00000018941234088372317020000000586488476903318183_);}
	.st34{fill:url(#SVGID_00000080927364676863949300000010454697824414706315_);}
	.st35{fill:url(#SVGID_00000017512020289069949190000008072879875343670409_);}
	.st36{fill:url(#SVGID_00000019662976094714033030000016555597866724674459_);}
	.st37{fill:url(#SVGID_00000124126687798934529600000010538676848218750630_);}
	.st38{fill:url(#SVGID_00000039815596547023985160000007541992777043077271_);}
	.st39{fill:url(#SVGID_00000096772437567275552330000017748554284872460471_);}
	.st40{fill:url(#SVGID_00000077315233176188328840000015490787203503443612_);}
	.st41{fill:url(#SVGID_00000128460802086203820460000004703920312813449407_);}
	.st42{fill:url(#SVGID_00000066504314627934491210000012014209132140091568_);}
	.st43{fill:url(#SVGID_00000032625887128170724840000004062237443956219296_);}
	.st44{fill:url(#SVGID_00000087370899730286434270000002933945345371429536_);}
	.st45{fill:url(#SVGID_00000128451648311346387760000013266894478631386533_);}
	.st46{fill:url(#SVGID_00000140008295213293707980000008598715791354402455_);}
	.st47{fill:url(#SVGID_00000086660749182709841340000018275773301651367325_);}
	.st48{fill:url(#SVGID_00000059301281529205484430000001186707244407772598_);}
	.st49{fill:url(#SVGID_00000029032196293376524360000003560982712949771393_);}
	.st50{fill:url(#SVGID_00000139289375841036210720000003302506945037170580_);}
	.st51{fill:url(#SVGID_00000106136784564330148310000004503815031818918562_);}
	.st52{fill:url(#SVGID_00000008850849966998912380000018003731348685129609_);}
	.st53{fill:url(#SVGID_00000152227036219133971470000011606126409041907082_);}
	.st54{fill:url(#SVGID_00000094608605554396784270000013652381059496585651_);}
	.st55{fill:url(#SVGID_00000157306565621509199440000012658516761905006780_);}
	.st56{fill:url(#SVGID_00000067937838165834942660000012855986243666684824_);}
	.st57{fill:url(#SVGID_00000137840970113834740780000006044361579246803086_);}
	.st58{fill:url(#SVGID_00000080196148581127260960000006925658756269847171_);}
	.st59{fill:url(#SVGID_00000015340214284258951170000001648645040159387266_);}
	.st60{fill:url(#SVGID_00000062164247128828503000000002167130902689948548_);}
	.st61{fill:url(#SVGID_00000101801959672915429430000014390798596205912764_);}
	.st62{fill:url(#SVGID_00000104663721693407889440000009958814351104789662_);}
	.st63{fill:url(#SVGID_00000093173806484565557470000008788778910594636707_);}
	.st64{fill:url(#SVGID_00000041256279301887904840000013093077996966272437_);}
	.st65{fill:url(#SVGID_00000158018917133009537520000010065061990145381778_);}
	.st66{fill:url(#SVGID_00000126307697685371109580000009572647277531350948_);}
	.st67{fill:url(#SVGID_00000169538850175372370550000010679829821696357020_);}
	.st68{fill:url(#SVGID_00000147900713206546474140000016358533045386360731_);}
	.st69{fill:url(#SVGID_00000080897624220626947110000013765834862146143415_);}
	.st70{fill:url(#SVGID_00000058565413535109171690000013232681014962298513_);}
	.st71{fill:url(#SVGID_00000105406587303929877460000003061139432661844614_);}
	.st72{fill:url(#SVGID_00000173155062957182331190000012497507438740916140_);}
	.st73{fill:url(#SVGID_00000122712677683817868870000017729464980593480580_);}
	.st74{fill:url(#SVGID_00000017498896607039317450000005708720536460122254_);}
	.st75{fill:url(#SVGID_00000101101709300984265600000010047069655279952305_);}
	.st76{fill:url(#SVGID_00000055701563990039224280000002906489721432086183_);}
	.st77{fill:url(#SVGID_00000088123052900100654730000009854066293905319866_);}
	.st78{fill:url(#SVGID_00000128463458938882984630000002185017680238851234_);}
	.st79{fill:url(#SVGID_00000178916482380876288150000003909890117566109581_);}
	.st80{fill:url(#SVGID_00000121971807206073476140000013878398526886202544_);}
	.st81{fill:url(#SVGID_00000170962391543221951390000003647421182670912956_);}
	.st82{fill:url(#SVGID_00000096052371113453785980000016901348758158806706_);}
	.st83{fill:url(#SVGID_00000165938129879802081710000003259000480427794068_);}
	.st84{fill:url(#SVGID_00000129193994801533336660000012638829001465204667_);}
	.st85{fill:url(#SVGID_00000075123555347179009910000002734676760075935123_);}
	.st86{fill:url(#SVGID_00000104704846433169658070000011401269641914879650_);}
	.st87{fill:url(#SVGID_00000153689735611416058950000005906555226012132250_);}
	.st88{fill:url(#SVGID_00000132803202666369063080000006633353017084883365_);}
	.st89{fill:url(#SVGID_00000086661008205185901330000013175734326740319361_);}
	.st90{fill:url(#SVGID_00000099644116511065924360000007849678352381641603_);}
	.st91{fill:url(#SVGID_00000155110350094970161560000013386103129930094511_);}
	.st92{fill:url(#SVGID_00000147935417668712008480000002684921155037564590_);}
	.st93{fill:url(#SVGID_00000179629484805811705820000007579616010613824158_);}
	.st94{fill:url(#SVGID_00000182492068081229590680000012955986252982419095_);}
	.st95{fill:url(#SVGID_00000176726633565623241440000013594736568075718548_);}
	.st96{fill:url(#SVGID_00000100362674210018402980000002365402233283824531_);}
	.st97{fill:url(#SVGID_00000005968816574688551650000000077682994589184655_);}
	.st98{fill:url(#SVGID_00000142868419659483398490000000619852256187979649_);}
	.st99{fill:url(#SVGID_00000021085750370426594670000011075804223223980967_);}
	.st100{fill:url(#SVGID_00000052802721697075020750000001752455393366757769_);}
	.st101{fill:url(#SVGID_00000116206617896336304120000014181800197384391820_);}
	.st102{fill:url(#SVGID_00000034789195509918431350000015428800951906099344_);}
	.st103{fill:url(#SVGID_00000142871894805894474630000010580172989063293077_);}
	.st104{fill:url(#SVGID_00000133509426291593158470000000309139499861221013_);}
	.st105{fill:url(#SVGID_00000153689294249632713480000017570239906564332203_);}
	.st106{fill:url(#SVGID_00000031168809501873660410000010967440930692799667_);}
	.st107{fill:url(#SVGID_00000052800887577103215020000014713545203240358293_);}
	.st108{fill:url(#SVGID_00000042726684633655100820000004960186781368777878_);}
	.st109{fill:url(#SVGID_00000009557995459450662520000003415615455811926914_);}
	.st110{fill:url(#SVGID_00000078738970395112278220000006598571213107104673_);}
	.st111{fill:url(#SVGID_00000144299376075133043460000003686468814143288717_);}
	.st112{fill:url(#SVGID_00000142866241461241767800000011140305137873856387_);}
	.st113{fill:url(#SVGID_00000073718161261839677470000003528711688274833806_);}
	.st114{fill:url(#SVGID_00000072961045859841277540000006309112340954379191_);}
	.st115{fill:url(#SVGID_00000104675176758334420140000009574619404802707340_);}
	.st116{fill:url(#SVGID_00000137099640711986325410000016909834366877942975_);}
	.st117{fill:url(#SVGID_00000055684200027027870210000012254522715720218270_);}
	.st118{fill:url(#SVGID_00000124132512415100236570000007530815819688411577_);}
	.st119{fill:url(#SVGID_00000023974228358791583070000012959750051051515326_);}
	.st120{fill:url(#SVGID_00000160892380456883971080000002310249963785014706_);}
	.st121{fill:url(#SVGID_00000018208967966054352920000000983675654929623436_);}
	.st122{fill:url(#SVGID_00000146464168744913693510000000288977082431821187_);}
	.st123{fill:url(#SVGID_00000095323505539820219370000006629369715276815776_);}
	.st124{fill:url(#SVGID_00000086666741408610951500000003404237915783612083_);}
	.st125{fill:url(#SVGID_00000103224174892981745090000001396155918434953615_);}
	.st126{fill:url(#SVGID_00000072238400880167215880000009868629289205948047_);}
	.st127{fill:#2C4F80;}
	.st128{fill:url(#SVGID_00000130644582959934686150000009320537361526427286_);}
	.st129{fill:url(#SVGID_00000077312947017776639230000004251277407527466882_);}
	.st130{fill:url(#SVGID_00000121964818390825572140000014443846006030236856_);}
	.st131{fill:url(#SVGID_00000057860194655059667190000004055738726619386031_);}
	.st132{fill:url(#SVGID_00000134217657104897198570000013988856039167680397_);}
	.st133{fill:url(#SVGID_00000093161642313325611390000006847726992357405850_);}
	.st134{fill:url(#SVGID_00000010272695136076208800000009553934345766087554_);}
	.st135{fill:url(#SVGID_00000139978220246298562660000000481359428991057588_);}
	.st136{fill:url(#SVGID_00000013154591658224979180000018156740775576122772_);}
	.st137{fill:url(#SVGID_00000026850521596478780540000002646749019588539838_);}
	.st138{fill:url(#SVGID_00000092420905022685900350000011954334570466338181_);}
	.st139{fill:url(#SVGID_00000126309568955246025250000015200881372163006343_);}
	.st140{fill:url(#SVGID_00000152234984383892157900000004765050321308406175_);}
	.st141{fill:url(#SVGID_00000126318546391323429850000006767962154943119795_);}
	.st142{fill:url(#SVGID_00000165953388394253158040000002008179001707216300_);}
	.st143{fill:url(#SVGID_00000030458106094804288140000008007858932644138141_);}
	.st144{fill:url(#SVGID_00000124852538218806293180000010011353160006198191_);}
	.st145{fill:url(#SVGID_00000043430786197871308120000003740313464776339880_);}
	.st146{fill:url(#SVGID_00000148628811171179691190000009985275750576558229_);}
	.st147{fill:url(#SVGID_00000151534839457797320390000009051652519337425083_);}
	.st148{fill:url(#SVGID_00000057137232602063438660000012316862494477597866_);}
	.st149{fill:url(#SVGID_00000021823688696033197860000009264554376457174944_);}
	.st150{fill:url(#SVGID_00000071522774228686950720000006408322683781571245_);}
	.st151{fill:url(#SVGID_00000080886022998567931610000012576301843380754860_);}
	.st152{fill:url(#SVGID_00000098920144281624808460000018317186101669725625_);}
	.st153{fill:url(#SVGID_00000091718816625758480300000006138013187944513440_);}
	.st154{fill:url(#SVGID_00000040553042407103892910000005252247196214487981_);}
	.st155{fill:url(#SVGID_00000075875329773876267440000003938288990815204524_);}
	.st156{fill:url(#SVGID_00000141450727006068644270000017221303968047155600_);}
	.st157{fill:url(#SVGID_00000039848454248201493860000003700018205093709229_);}
	.st158{fill:url(#SVGID_00000052104523960881322320000014253982510580609203_);}
	.st159{fill:url(#SVGID_00000076600421340727927710000013876180354945586619_);}
	.st160{fill:url(#SVGID_00000047031168418082802730000014266954916669790124_);}
	.st161{fill:url(#SVGID_00000049926204023477939980000007984293198385360294_);}
	.st162{fill:url(#SVGID_00000116953997966547525060000016705200616492034954_);}
	.st163{fill:url(#SVGID_00000005985321331614203120000009181293621654032521_);}
	.st164{fill:url(#SVGID_00000036970592082311251400000018378998455698115969_);}
	.st165{fill:url(#SVGID_00000098923913603686320720000002790102614643198382_);}
	.st166{fill:url(#SVGID_00000136381387097115293750000017189024331598570157_);}
	.st167{fill:url(#SVGID_00000138572859269229881350000010224757353766881934_);}
	.st168{fill:url(#SVGID_00000077289756862882959630000003313190666276182658_);}
	.st169{fill:url(#SVGID_00000094578894089076061230000000592967849046934440_);}
	.st170{fill:url(#SVGID_00000061473277457025179510000006801180191844475062_);}
	.st171{fill:url(#SVGID_00000086685286220105858350000007349761636190913958_);}
	.st172{fill:url(#SVGID_00000037669191074042399440000011750214622653338285_);}
	.st173{fill:url(#SVGID_00000016033300106644731210000015194214977814473611_);}
	.st174{fill:url(#SVGID_00000173851671900853240390000014798234368960412326_);}
	.st175{fill:url(#SVGID_00000090275698150473499580000012118604385164389250_);}
	.st176{fill:url(#SVGID_00000059268101127212611250000016752493413393150596_);}
	.st177{fill:url(#SVGID_00000044872041927898941800000007791375001062809245_);}
	.st178{fill:url(#SVGID_00000071528943803204408860000000003843404326239665_);}
	.st179{fill:url(#SVGID_00000080197883363868419120000010400180103763443871_);}
	.st180{fill:url(#SVGID_00000138553100329367602760000005454143737441849741_);}
	.st181{fill:url(#SVGID_00000096044859116429076220000005558411959322547110_);}
	.st182{fill:url(#SVGID_00000163770198188373432960000018135216928398533041_);}
	.st183{fill:url(#SVGID_00000054966340834511655220000016112781190320621503_);}
	.st184{fill:url(#SVGID_00000028293126621497715060000009200971809779379873_);}
	.st185{fill:url(#SVGID_00000160177028094660270370000000770200024090377626_);}
	.st186{fill:url(#SVGID_00000055700213824862518570000005124557225721180857_);}
	.st187{fill:url(#SVGID_00000064342553411496982620000002239894509196545672_);}
	.st188{fill:url(#SVGID_00000016059879152852759750000005756182300920597898_);}
	.st189{fill:url(#SVGID_00000170261696676208910800000012587670679605841330_);}
	.st190{fill:url(#SVGID_00000042730433009162558190000016797393137036199058_);}
	.st191{fill:url(#SVGID_00000008862436045635632630000015982869087198912932_);}
	.st192{fill:url(#SVGID_00000168818606435011453930000000767911900027180715_);}
	.st193{fill:url(#SVGID_00000013169395534983193030000014055135720885151128_);}
	.st194{fill:url(#SVGID_00000180363231775561250140000011323795819167304096_);}
	.st195{fill:url(#SVGID_00000009567779998967591320000016794601086050605986_);}
	.st196{fill:url(#SVGID_00000057112056542790359720000002319942675090701715_);}
	.st197{fill:url(#SVGID_00000036221107172888193330000003737831730034730931_);}
	.st198{fill:url(#SVGID_00000176725754485922588730000012436005496220652479_);}
	.st199{fill:url(#SVGID_00000086683598711347667930000016167178626817784973_);}
	.st200{fill:url(#SVGID_00000005264225371549882530000011858061421173065398_);}
	.st201{fill:url(#SVGID_00000009561577831934824740000001926838886762154148_);}
	.st202{fill:url(#SVGID_00000038401148954868227730000006181025352806300347_);}
	.st203{fill:url(#SVGID_00000145740665418862095820000007256682174937408422_);}
	.st204{fill:url(#SVGID_00000141416498623513552180000017012930180510487220_);}
	.st205{fill:url(#SVGID_00000082325893098287610710000006321940905937668785_);}
	.st206{fill:url(#SVGID_00000036249940918648815380000014417130293934075057_);}
	.st207{fill:url(#SVGID_00000001634846716155469630000001792767143509786530_);}
	.st208{fill:url(#SVGID_00000091711952435551442600000017427609851138537650_);}
	.st209{fill:url(#SVGID_00000113334982765404850320000011785950281322430080_);}
	.st210{fill:url(#SVGID_00000060748123168074862890000014717104959893188227_);}
	.st211{fill:url(#SVGID_00000108310560273805486830000011505133708638535043_);}
	.st212{fill:url(#SVGID_00000033350888472754482930000012369015986945434541_);}
	.st213{fill:url(#SVGID_00000065796711165888662040000006813407003839753098_);}
	.st214{fill:url(#SVGID_00000130610934339049926670000011905321771174203325_);}
	.st215{fill:url(#SVGID_00000029735168392757450500000010391157045296549814_);}
	.st216{fill:url(#SVGID_00000069395751527670814230000013176491073239148417_);}
	.st217{fill:url(#SVGID_00000036962179509397475190000009119927355386841999_);}
	.st218{fill:url(#SVGID_00000183215929404386059300000005150716759587164062_);}
	.st219{fill:url(#SVGID_00000091738147273424539000000016133689785586429107_);}
	.st220{fill:url(#SVGID_00000016040670410753872630000008530873042955786653_);}
	.st221{fill:url(#SVGID_00000150810481076018931870000010864501475652029841_);}
	.st222{fill:url(#SVGID_00000065767902103721543170000005589639597950642839_);}
	.st223{fill:url(#SVGID_00000132055435450034276760000006905111980987633324_);}
	.st224{fill:url(#SVGID_00000151530891344727195100000017417648472629067904_);}
	.st225{fill:url(#SVGID_00000052092469945821260840000011418369701713573309_);}
	.st226{fill:url(#SVGID_00000150792028759087580120000007821913868067177917_);}
	.st227{fill:url(#SVGID_00000065793271433756354370000006313077629180165790_);}
	.st228{fill:url(#SVGID_00000084508961616451635660000010532948301849580186_);}
</style>
<g>
	<linearGradient id="SVGID_1_" gradientUnits="userSpaceOnUse" x1="90.461" y1="69.5772" x2="12.8761" y2="28.8405">
		<stop  offset="0.4" style="stop-color:#F39800"/>
		<stop  offset="0.9039" style="stop-color:#C42D1B"/>
	</linearGradient>
	<polygon class="st0" points="74.48,61.4 74.48,61.4 74.36,60.91 	"/>
	
		<linearGradient id="SVGID_00000071558057869695996250000005544109380505682564_" gradientUnits="userSpaceOnUse" x1="88.1579" y1="73.9635" x2="10.573" y2="33.2268">
		<stop  offset="0.4" style="stop-color:#F39800"/>
		<stop  offset="0.9039" style="stop-color:#C42D1B"/>
	</linearGradient>
	<polygon style="fill:url(#SVGID_00000071558057869695996250000005544109380505682564_);" points="63.7,61.4 63.7,61.4 63.82,60.91 
			"/>
	
		<linearGradient id="SVGID_00000060004370152821402040000015411801321486642825_" gradientUnits="userSpaceOnUse" x1="96.7877" y1="57.5278" x2="19.2027" y2="16.7911">
		<stop  offset="0.4" style="stop-color:#F39800"/>
		<stop  offset="0.9039" style="stop-color:#C42D1B"/>
	</linearGradient>
	<path style="fill:url(#SVGID_00000060004370152821402040000015411801321486642825_);" d="M44.02,29.24H38.8
		c-0.43,0-0.78-0.35-0.78-0.78c0-0.43,0.35-0.78,0.78-0.78h5.22c0.43,0,0.78,0.35,0.78,0.78C44.81,28.89,44.46,29.24,44.02,29.24z"
		/>
	
		<linearGradient id="SVGID_00000007422005986589481390000001613350563716266375_" gradientUnits="userSpaceOnUse" x1="94.8696" y1="61.1807" x2="17.2847" y2="20.444">
		<stop  offset="0.4" style="stop-color:#F39800"/>
		<stop  offset="0.9039" style="stop-color:#C42D1B"/>
	</linearGradient>
	<path style="fill:url(#SVGID_00000007422005986589481390000001613350563716266375_);" d="M34.63,29.24h-4.18
		c-0.43,0-0.78-0.35-0.78-0.78c0-0.43,0.35-0.78,0.78-0.78h4.18c0.43,0,0.78,0.35,0.78,0.78C35.41,28.89,35.06,29.24,34.63,29.24z"
		/>
	
		<linearGradient id="SVGID_00000089543023781285369880000003804615865536112553_" gradientUnits="userSpaceOnUse" x1="93.285" y1="64.1988" x2="15.7001" y2="23.4621">
		<stop  offset="0.4" style="stop-color:#F39800"/>
		<stop  offset="0.9039" style="stop-color:#C42D1B"/>
	</linearGradient>
	<path style="fill:url(#SVGID_00000089543023781285369880000003804615865536112553_);" d="M39.85,34.46h-9.4
		c-0.43,0-0.78-0.35-0.78-0.78c0-0.43,0.35-0.78,0.78-0.78h9.4c0.43,0,0.78,0.35,0.78,0.78C40.63,34.11,40.28,34.46,39.85,34.46z"/>
	
		<linearGradient id="SVGID_00000058584311356654644430000010355546881810630589_" gradientUnits="userSpaceOnUse" x1="101.3584" y1="48.8225" x2="23.7735" y2="8.0858">
		<stop  offset="0.4" style="stop-color:#F39800"/>
		<stop  offset="0.9039" style="stop-color:#C42D1B"/>
	</linearGradient>
	<path style="fill:url(#SVGID_00000058584311356654644430000010355546881810630589_);" d="M65.22,28.16h-9.4
		c-0.43,0-0.78-0.35-0.78-0.78c0-0.43,0.35-0.78,0.78-0.78h9.4c0.43,0,0.78,0.35,0.78,0.78C66,27.81,65.65,28.16,65.22,28.16z"/>
	
		<linearGradient id="SVGID_00000143589395804506809800000017957125624383297945_" gradientUnits="userSpaceOnUse" x1="105.2126" y1="41.482" x2="27.6277" y2="0.7453">
		<stop  offset="0.4" style="stop-color:#F39800"/>
		<stop  offset="0.9039" style="stop-color:#C42D1B"/>
	</linearGradient>
	<path style="fill:url(#SVGID_00000143589395804506809800000017957125624383297945_);" d="M70.13,21.93h-7.31
		c-0.43,0-0.78-0.35-0.78-0.78c0-0.43,0.35-0.78,0.78-0.78h7.31c0.43,0,0.78,0.35,0.78,0.78C70.91,21.58,70.56,21.93,70.13,21.93z"
		/>
	
		<linearGradient id="SVGID_00000052795691473436154870000000182003224738451086_" gradientUnits="userSpaceOnUse" x1="102.9561" y1="45.7798" x2="25.3712" y2="5.0431">
		<stop  offset="0.4" style="stop-color:#F39800"/>
		<stop  offset="0.9039" style="stop-color:#C42D1B"/>
	</linearGradient>
	<path style="fill:url(#SVGID_00000052795691473436154870000000182003224738451086_);" d="M58.65,21.93h-5.22
		c-0.43,0-0.78-0.35-0.78-0.78c0-0.43,0.35-0.78,0.78-0.78h5.22c0.43,0,0.78,0.35,0.78,0.78C59.43,21.58,59.08,21.93,58.65,21.93z"
		/>
	
		<linearGradient id="SVGID_00000052102625305091266740000013232816528231133630_" gradientUnits="userSpaceOnUse" x1="90.8661" y1="68.8056" x2="13.2812" y2="28.0689">
		<stop  offset="0.4" style="stop-color:#F39800"/>
		<stop  offset="0.9039" style="stop-color:#C42D1B"/>
	</linearGradient>
	<path style="fill:url(#SVGID_00000052102625305091266740000013232816528231133630_);" d="M77.18,26.76V16.44
		c0-1.58-1.29-2.87-2.87-2.87H50.3c-1.58,0-2.87,1.29-2.87,2.87v4.44H26.28c-1.58,0-2.87,1.29-2.87,2.87v3
		c-4.26,1.59-7.31,5.7-7.31,10.51v32.37c0,1.45,0.29,2.84,0.79,4.11c0.01,0.03,0,0.05,0.01,0.08c1.71,4.29,5.8,7.06,10.41,7.07H50.3
		h4.17h18.8c6.18,0,11.22-5.04,11.22-11.22v-0.03v-3.24V37.26C84.49,32.45,81.44,28.35,77.18,26.76z M48.99,16.44
		c0-0.72,0.58-1.31,1.31-1.31h24.01c0.72,0,1.31,0.59,1.31,1.31v21.34l-6.56-5.25c-0.14-0.11-0.31-0.17-0.49-0.17H53.16V29.2v-0.49
		v-4.96c0-1.58-1.29-2.87-2.87-2.87h-1.3V16.44z M24.97,29.8v-0.79v-5.26c0-0.72,0.58-1.31,1.31-1.31h21.15h1.57h1.3
		c0.72,0,1.31,0.59,1.31,1.31v4.96v0.49v3.16v1.57v4.44c0,0.72-0.59,1.31-1.31,1.31H32.02c-0.18,0-0.35,0.06-0.49,0.17l-6.56,5.25
		V29.8z M49.51,72.29v7H27.32c-3.59,0-6.72-1.97-8.38-4.88c-0.08-0.14-0.16-0.29-0.24-0.44c-0.07-0.13-0.13-0.26-0.19-0.4
		c0.83-1.33,2.16-2.24,3.7-2.51l5.21-0.9c0.27-0.05,0.53-0.12,0.78-0.21c1.25,0.76,5.31,3.12,7.48,3.12c2.16,0,6.22-2.36,7.47-3.12
		c0.25,0.09,0.51,0.16,0.78,0.21l5.22,0.9c0.16,0.03,0.32,0.08,0.47,0.13C49.55,71.55,49.51,71.91,49.51,72.29z M37.6,53.28
		c1.31-0.33,2.46-0.68,3.47-1c0.82-0.25,1.55-0.48,2.25-0.66c0.02,0.06,0.04,0.12,0.05,0.17c0.13,0.41,0.23,0.84,0.3,1.29
		c0.01,0.07,0.02,0.14,0.03,0.21c0.07,0.49,0.11,1,0.11,1.53c0,0.41-0.03,0.82-0.07,1.22c-0.01,0.12-0.03,0.23-0.04,0.34
		c-0.04,0.3-0.08,0.59-0.14,0.88c-0.02,0.11-0.04,0.21-0.07,0.32c-0.08,0.37-0.18,0.73-0.3,1.08c0,0.01,0,0.01-0.01,0.02
		c-0.13,0.38-0.28,0.75-0.44,1.11c-0.02,0.03-0.03,0.07-0.05,0.1c-0.15,0.32-0.32,0.64-0.5,0.93c-0.02,0.03-0.04,0.07-0.06,0.1
		c-0.61,0.99-1.37,1.84-2.23,2.5c-1.24,0.94-2.68,1.49-4.23,1.49c-1.55,0-3-0.55-4.24-1.49c-0.86-0.66-1.62-1.5-2.23-2.5
		c-0.02-0.03-0.04-0.07-0.06-0.1c-0.18-0.3-0.35-0.61-0.5-0.93c-0.02-0.03-0.03-0.07-0.05-0.1c-0.16-0.36-0.31-0.73-0.44-1.11
		c0-0.01,0-0.01-0.01-0.02c-0.12-0.35-0.21-0.71-0.3-1.08c-0.02-0.11-0.04-0.21-0.07-0.32c-0.06-0.29-0.11-0.58-0.14-0.88
		c-0.01-0.11-0.03-0.23-0.04-0.34c-0.04-0.4-0.07-0.8-0.07-1.22c0-0.39,0.02-0.77,0.06-1.15c0.01-0.08,0.02-0.17,0.03-0.25
		c0.04-0.32,0.09-0.63,0.16-0.94c0.01-0.04,0.01-0.07,0.02-0.11C30.06,53.26,33.74,54.25,37.6,53.28z M28.31,50.88
		c1.23-2.79,3.85-4.45,7.36-4.45c3.21,0,5.67,1.39,7.01,3.76c-0.67,0.18-1.35,0.38-2.07,0.6c-0.99,0.31-2.12,0.65-3.39,0.97
		C33.72,52.64,30.35,51.7,28.31,50.88z M30.58,68.19c0.08-0.11,0.17-0.22,0.24-0.34c0.07-0.11,0.12-0.23,0.18-0.35
		c0.05-0.1,0.11-0.2,0.15-0.3c0.1-0.23,0.18-0.47,0.24-0.71l0.27-1.06c1.22,0.67,2.58,1.05,4.01,1.05c1.43,0,2.78-0.38,4.01-1.05
		l0.27,1.06c0.06,0.25,0.14,0.48,0.24,0.71c0.04,0.11,0.1,0.2,0.15,0.3c0.06,0.12,0.11,0.24,0.18,0.35
		c0.07,0.12,0.16,0.23,0.24,0.35c0.06,0.08,0.12,0.17,0.18,0.24c0.09,0.11,0.19,0.21,0.3,0.32c0.07,0.07,0.14,0.15,0.22,0.21
		c0.04,0.03,0.07,0.07,0.11,0.1c-1.76,1.01-4.55,2.44-5.89,2.45c-1.35,0-4.14-1.43-5.9-2.45c0.04-0.03,0.07-0.07,0.11-0.1
		c0.08-0.07,0.15-0.14,0.22-0.22c0.1-0.1,0.2-0.2,0.29-0.31C30.47,68.36,30.52,68.27,30.58,68.19z M68.31,79.29H51.08v-7
		c0-0.15,0.03-0.3,0.04-0.45c0.05-0.56,0.16-1.09,0.36-1.59c0.69-1.72,2.22-3.03,4.14-3.36l5.21-0.9c0.26-0.04,0.5-0.11,0.75-0.19
		l6.72,4.82V79.29z M63.11,64.96c0.05-0.04,0.09-0.09,0.14-0.13c0.09-0.08,0.18-0.17,0.27-0.25c0.09-0.09,0.18-0.19,0.27-0.28
		c0.08-0.09,0.15-0.19,0.22-0.29c0.07-0.1,0.15-0.2,0.22-0.31c0.08-0.12,0.14-0.26,0.21-0.39c0.05-0.09,0.1-0.18,0.14-0.28
		c0.1-0.23,0.18-0.48,0.25-0.73l0.25-1.01c1.23,0.67,2.59,1.06,4.02,1.06c1.43,0,2.79-0.39,4.02-1.06l0.25,1.01
		c0.06,0.25,0.15,0.49,0.25,0.72c0.05,0.11,0.11,0.21,0.16,0.32c0.06,0.12,0.12,0.23,0.18,0.34c0.07,0.12,0.16,0.23,0.24,0.34
		c0.06,0.09,0.13,0.17,0.2,0.26c0.09,0.11,0.19,0.21,0.29,0.31c0.08,0.08,0.16,0.16,0.25,0.23c0.05,0.04,0.09,0.09,0.14,0.14
		l-5.97,4.28L63.11,64.96z M71.86,48.19c0.33-0.1,0.54-0.4,0.54-0.75v-0.98l1.36,0.82c0.2,0.12,0.45,0.14,0.67,0.07
		c0.14-0.05,1.07-0.39,1.9-0.87c0.35,0.72,0.6,1.52,0.75,2.39c0,0,0,0.01,0,0.01c0.04,0.27,0.08,0.54,0.1,0.83
		c0.02,0.21,0.02,0.42,0.03,0.63c0,0.11,0.01,0.22,0.01,0.33c0,0.44-0.02,0.87-0.07,1.3c0,0.02-0.01,0.04-0.01,0.06
		c-0.34,3.06-1.79,5.67-3.83,7.22c-1.24,0.94-2.68,1.49-4.23,1.49c-1.55,0-3-0.55-4.23-1.49c-2.04-1.55-3.49-4.16-3.83-7.22
		c0-0.02-0.01-0.04-0.01-0.06c-0.05-0.42-0.07-0.86-0.07-1.3c0-1.24,0.2-2.37,0.56-3.37C63.07,48.29,66.63,49.87,71.86,48.19z
		 M62.19,45.87c1.36-2.24,3.79-3.56,6.9-3.56c2.77,0,4.99,1.04,6.41,2.84c-0.42,0.24-0.9,0.45-1.25,0.6l-2.22-1.34
		c-0.24-0.15-0.54-0.15-0.79-0.01c-0.24,0.14-0.4,0.4-0.4,0.68v1.78C66.27,48.15,63.31,46.63,62.19,45.87z M82.92,69.63
		c0,5.33-4.33,9.66-9.66,9.66h-3.39v-8.67l6.72-4.82c0.24,0.08,0.49,0.15,0.75,0.19l5.21,0.9c0.12,0.02,0.24,0.05,0.37,0.08V69.63z
		 M82.92,65.36c-0.03-0.01-0.07-0.02-0.1-0.02l-5.21-0.9c-0.3-0.05-0.59-0.15-0.86-0.27c-0.2-0.09-0.39-0.21-0.56-0.33
		c-0.05-0.03-0.09-0.07-0.14-0.11c-0.14-0.11-0.27-0.24-0.39-0.37c-0.03-0.04-0.07-0.07-0.1-0.11c-0.13-0.16-0.25-0.34-0.35-0.53
		c-0.03-0.05-0.05-0.11-0.08-0.16c-0.1-0.2-0.18-0.41-0.24-0.64l-0.39-1.54c2.27-1.83,3.85-4.78,4.22-8.18
		c0-0.03,0.01-0.06,0.01-0.09c0.05-0.46,0.08-0.93,0.08-1.4c0-0.01,0-0.02,0-0.03c0-0.01,0-0.02,0-0.03c0-0.05-0.01-0.09-0.01-0.14
		c-0.01-0.38-0.03-0.76-0.07-1.13c-0.02-0.24-0.06-0.48-0.09-0.71c-0.02-0.1-0.04-0.2-0.06-0.29c-0.23-1.27-0.64-2.44-1.28-3.45
		c-0.05-0.09-0.13-0.15-0.21-0.21c-1.68-2.48-4.49-3.96-8.01-3.96c-3.87,0-6.88,1.78-8.47,4.72c-0.07,0.07-0.14,0.15-0.18,0.24
		c-0.42,0.86-0.7,1.81-0.87,2.83c-0.01,0.03-0.01,0.07-0.02,0.1c-0.05,0.3-0.09,0.59-0.12,0.9c-0.02,0.27-0.03,0.54-0.04,0.81
		c0,0.1-0.01,0.2-0.01,0.3c0,0.01,0,0.02,0,0.03c0,0.01,0,0.02,0,0.03c0,0.48,0.03,0.94,0.08,1.4c0,0.03,0.01,0.06,0.01,0.09
		c0.36,3.4,1.95,6.35,4.22,8.18l-0.39,1.54c-0.06,0.22-0.14,0.43-0.24,0.64c-0.03,0.05-0.05,0.11-0.08,0.16
		c-0.1,0.19-0.22,0.37-0.35,0.53c-0.03,0.04-0.07,0.08-0.11,0.11c-0.12,0.13-0.25,0.25-0.38,0.36c-0.05,0.04-0.09,0.08-0.14,0.11
		c-0.18,0.13-0.36,0.24-0.56,0.33c-0.27,0.13-0.55,0.22-0.85,0.27l-5.21,0.9c-2.48,0.43-4.46,2.12-5.34,4.34
		c-0.21-0.05-0.4-0.13-0.62-0.16l-5.22-0.9c-0.3-0.05-0.59-0.15-0.86-0.27c-0.2-0.09-0.39-0.2-0.56-0.33
		c-0.05-0.04-0.09-0.07-0.14-0.11c-0.14-0.11-0.27-0.23-0.39-0.37c-0.04-0.04-0.07-0.07-0.11-0.12c-0.13-0.16-0.25-0.34-0.35-0.52
		c-0.03-0.05-0.06-0.11-0.08-0.17c-0.1-0.2-0.18-0.41-0.24-0.63l-0.4-1.59c0,0,0,0,0,0c0.31-0.25,0.6-0.52,0.88-0.8
		c0.06-0.06,0.12-0.13,0.18-0.2c0.21-0.22,0.41-0.46,0.6-0.7c0.07-0.09,0.14-0.19,0.22-0.29c0.18-0.24,0.34-0.49,0.5-0.75
		c0.06-0.09,0.12-0.19,0.18-0.28c0.2-0.35,0.4-0.71,0.57-1.09c0,0,0-0.01,0.01-0.01c0.17-0.38,0.33-0.78,0.46-1.19
		c0.04-0.12,0.07-0.23,0.11-0.35c0.09-0.29,0.17-0.59,0.24-0.9c0.03-0.14,0.06-0.29,0.09-0.44c0.06-0.3,0.11-0.61,0.15-0.92
		c0.02-0.14,0.04-0.27,0.05-0.41c0.04-0.45,0.07-0.9,0.07-1.36c0-0.38-0.02-0.76-0.05-1.13c-0.02-0.19-0.05-0.37-0.07-0.55
		c-0.02-0.17-0.04-0.34-0.07-0.51c-0.04-0.23-0.09-0.45-0.15-0.67c-0.03-0.11-0.05-0.22-0.08-0.33c-0.07-0.24-0.14-0.47-0.22-0.7
		c-0.03-0.08-0.06-0.17-0.09-0.25c-0.03-0.09-0.06-0.19-0.1-0.28c-0.02-0.04-0.05-0.07-0.07-0.11c-1.47-3.36-4.64-5.43-8.81-5.43
		c-4.45,0-7.78,2.36-9.09,6.14c-0.01,0.02-0.02,0.03-0.03,0.05c-0.04,0.12-0.07,0.25-0.11,0.38c-0.04,0.13-0.08,0.25-0.11,0.38
		c-0.05,0.18-0.08,0.36-0.12,0.54c-0.03,0.14-0.06,0.28-0.09,0.43c-0.03,0.2-0.06,0.41-0.08,0.61c-0.01,0.13-0.03,0.26-0.05,0.39
		c-0.03,0.34-0.04,0.69-0.04,1.04c0,0.46,0.03,0.91,0.07,1.36c0.01,0.14,0.03,0.27,0.05,0.41c0.04,0.31,0.09,0.62,0.15,0.92
		c0.03,0.15,0.06,0.29,0.09,0.43c0.07,0.31,0.15,0.61,0.25,0.9c0.04,0.12,0.07,0.24,0.11,0.35c0.14,0.41,0.29,0.8,0.46,1.19
		c0,0,0,0.01,0,0.01c0.17,0.38,0.37,0.74,0.57,1.09c0.06,0.1,0.12,0.19,0.18,0.29c0.16,0.26,0.33,0.51,0.5,0.75
		c0.07,0.1,0.14,0.19,0.22,0.29c0.19,0.24,0.39,0.48,0.6,0.7c0.06,0.07,0.12,0.14,0.18,0.2c0.28,0.28,0.58,0.54,0.88,0.79
		l-0.41,1.61c-0.06,0.22-0.14,0.44-0.24,0.64c-0.02,0.05-0.05,0.1-0.08,0.15c-0.1,0.19-0.22,0.37-0.36,0.54
		c-0.03,0.04-0.07,0.07-0.1,0.1c-0.12,0.14-0.25,0.26-0.4,0.38c-0.04,0.04-0.09,0.07-0.13,0.11c-0.18,0.13-0.36,0.24-0.56,0.33
		c-0.27,0.13-0.56,0.22-0.86,0.27l-5.22,0.9c-1.58,0.27-2.99,1.07-4.04,2.25c-0.16-0.69-0.25-1.4-0.25-2.14V37.26
		c0-3.93,2.36-7.32,5.74-8.82v1.11v0.72v16.45c0,0.3,0.17,0.58,0.44,0.71c0.11,0.05,0.22,0.08,0.34,0.08c0.17,0,0.35-0.06,0.49-0.17
		l7.61-6.09h18c1.58,0,2.87-1.29,2.87-2.87v-4.44h15.13l7.61,6.09c0.14,0.11,0.32,0.17,0.49,0.17c0.11,0,0.23-0.03,0.34-0.08
		c0.27-0.13,0.44-0.4,0.44-0.71v-9.86v-1.11c3.38,1.51,5.74,4.89,5.74,8.82V65.36z"/>
	
		<linearGradient id="SVGID_00000068655351687199625310000018165762837234086528_" gradientUnits="userSpaceOnUse" x1="96.0007" y1="59.0265" x2="18.4158" y2="18.2898">
		<stop  offset="0.4" style="stop-color:#F39800"/>
		<stop  offset="0.9039" style="stop-color:#C42D1B"/>
	</linearGradient>
	<path style="fill:url(#SVGID_00000068655351687199625310000018165762837234086528_);" d="M60.73,40.19h-4.18
		c-0.43,0-0.78-0.35-0.78-0.78c0-0.43,0.35-0.78,0.78-0.78h4.18c0.43,0,0.78,0.35,0.78,0.78C61.51,39.84,61.16,40.19,60.73,40.19z"
		/>
	
		<linearGradient id="SVGID_00000030476642546059604460000006210563076263743932_" gradientUnits="userSpaceOnUse" x1="96.0007" y1="59.0265" x2="18.4158" y2="18.2898">
		<stop  offset="0.4" style="stop-color:#F39800"/>
		<stop  offset="0.9039" style="stop-color:#C42D1B"/>
	</linearGradient>
	<path style="fill:url(#SVGID_00000030476642546059604460000006210563076263743932_);" d="M58.64,42.28c-0.43,0-0.78-0.35-0.78-0.78
		v-4.18c0-0.43,0.35-0.78,0.78-0.78c0.43,0,0.78,0.35,0.78,0.78v4.18C59.42,41.93,59.07,42.28,58.64,42.28z"/>
	
		<linearGradient id="SVGID_00000047782646588929152400000006626851738175388078_" gradientUnits="userSpaceOnUse" x1="90.5313" y1="69.4434" x2="12.9463" y2="28.7067">
		<stop  offset="0.4" style="stop-color:#F39800"/>
		<stop  offset="0.9039" style="stop-color:#C42D1B"/>
	</linearGradient>
	<path style="fill:url(#SVGID_00000047782646588929152400000006626851738175388078_);" d="M51.33,48.55h-4.18
		c-0.43,0-0.78-0.35-0.78-0.78c0-0.43,0.35-0.78,0.78-0.78h4.18c0.43,0,0.78,0.35,0.78,0.78C52.12,48.2,51.76,48.55,51.33,48.55z"/>
	
		<linearGradient id="SVGID_00000178190291859389237620000009637454229996199595_" gradientUnits="userSpaceOnUse" x1="90.5313" y1="69.4434" x2="12.9463" y2="28.7067">
		<stop  offset="0.4" style="stop-color:#F39800"/>
		<stop  offset="0.9039" style="stop-color:#C42D1B"/>
	</linearGradient>
	<path style="fill:url(#SVGID_00000178190291859389237620000009637454229996199595_);" d="M49.24,50.64c-0.43,0-0.78-0.35-0.78-0.78
		v-4.18c0-0.43,0.35-0.78,0.78-0.78c0.43,0,0.78,0.35,0.78,0.78v4.18C50.03,50.29,49.68,50.64,49.24,50.64z"/>
	
		<linearGradient id="SVGID_00000082366454954241780140000006307615277659373500_" gradientUnits="userSpaceOnUse" x1="87.1576" y1="75.8687" x2="9.5727" y2="35.132">
		<stop  offset="0.4" style="stop-color:#F39800"/>
		<stop  offset="0.9039" style="stop-color:#C42D1B"/>
	</linearGradient>
	<path style="fill:url(#SVGID_00000082366454954241780140000006307615277659373500_);" d="M57.6,60.03h-4.18
		c-0.43,0-0.78-0.35-0.78-0.78c0-0.43,0.35-0.78,0.78-0.78h4.18c0.43,0,0.78,0.35,0.78,0.78C58.38,59.68,58.03,60.03,57.6,60.03z"/>
	
		<linearGradient id="SVGID_00000016776575493545547700000001956937561742062473_" gradientUnits="userSpaceOnUse" x1="87.1576" y1="75.8687" x2="9.5727" y2="35.132">
		<stop  offset="0.4" style="stop-color:#F39800"/>
		<stop  offset="0.9039" style="stop-color:#C42D1B"/>
	</linearGradient>
	<path style="fill:url(#SVGID_00000016776575493545547700000001956937561742062473_);" d="M55.51,62.12c-0.43,0-0.78-0.35-0.78-0.78
		v-4.18c0-0.43,0.35-0.78,0.78-0.78c0.43,0,0.78,0.35,0.78,0.78v4.18C56.29,61.77,55.94,62.12,55.51,62.12z"/>
</g>
</svg>
