<?xml version="1.0" encoding="utf-8"?>
<!-- Generator: Adobe Illustrator 26.5.0, SVG Export Plug-In . SVG Version: 6.00 Build 0)  -->
<svg version="1.1" id="圖層_1" xmlns="http://www.w3.org/2000/svg" xmlns:xlink="http://www.w3.org/1999/xlink" x="0px" y="0px"
	 viewBox="0 0 100 100" style="enable-background:new 0 0 100 100;" xml:space="preserve">
<style type="text/css">
	.st0{fill:url(#SVGID_1_);}
	.st1{fill:url(#SVGID_00000115512259581387541390000005169167175066940057_);}
	.st2{fill:url(#SVGID_00000166673805591567381810000017472223035697361536_);}
	.st3{fill:url(#SVGID_00000123411341433951247750000016222613590134890418_);}
	.st4{fill:url(#SVGID_00000118387819253346075840000013070142805047035058_);}
	.st5{fill:url(#SVGID_00000131369223554269805720000009478466742142738819_);}
	.st6{fill:url(#SVGID_00000139271857865531034910000016361878132130716052_);}
	.st7{fill:url(#SVGID_00000050660770125886874360000005360367050662518714_);}
	.st8{fill:url(#SVGID_00000051362184490256086300000003910519578512788869_);}
	.st9{fill:url(#SVGID_00000020381581561849502850000011462899295609697449_);}
	.st10{fill:url(#SVGID_00000067202807476635523900000006832712484675220159_);}
	.st11{fill:url(#SVGID_00000105404679094070103480000018258267387952028557_);}
	.st12{fill:url(#SVGID_00000075862919975413896260000014166509960208988843_);}
	.st13{fill:url(#SVGID_00000078018725289284446990000006831836338365121922_);}
	.st14{fill:url(#SVGID_00000045594561054249908110000008118109817043007361_);}
	.st15{fill:url(#SVGID_00000148619592999447950570000005175416285793402244_);}
	.st16{fill:url(#SVGID_00000141413815451045901870000014049811932637591445_);}
	.st17{fill:url(#SVGID_00000016788453667422319830000006309809402474830239_);}
	.st18{fill:url(#SVGID_00000002370171604168501670000004758753825651289524_);}
	.st19{fill:url(#SVGID_00000106117219374677882220000010937408985771505846_);}
	.st20{fill:url(#SVGID_00000152228278198272493620000014735366108875233955_);}
	.st21{fill:url(#SVGID_00000092438506228353177900000012832974091550280091_);}
	.st22{fill:url(#SVGID_00000139990246418490542840000013803552676525829563_);}
	.st23{fill:url(#SVGID_00000097489338124983118370000009475282337305675927_);}
	.st24{fill:url(#SVGID_00000099634984923920878640000001470034846468072083_);}
	.st25{fill:url(#SVGID_00000046328287606569499650000017178907620319221150_);}
	.st26{fill:url(#SVGID_00000182524091023346146210000006483962467771429032_);}
	.st27{fill:url(#SVGID_00000113343380377733201400000004484059351283937966_);}
	.st28{fill:url(#SVGID_00000052819324996392491150000008979156874309133983_);}
	.st29{fill:url(#SVGID_00000172441573095988049990000013319418653147771779_);}
	.st30{fill:url(#SVGID_00000101790253834989750490000008646890309223704487_);}
	.st31{fill:url(#SVGID_00000088092826802154572750000011850718839598989739_);}
	.st32{fill:url(#SVGID_00000170256617187557582900000006285432138493819547_);}
	.st33{fill:url(#SVGID_00000148654002742094976890000011834580197209412765_);}
	.st34{fill:url(#SVGID_00000080920477510663971100000012020423645648598400_);}
	.st35{fill:url(#SVGID_00000001636726429023679810000017467794301349918082_);}
	.st36{fill:url(#SVGID_00000159452842741332148830000011430568263607355305_);}
	.st37{fill:url(#SVGID_00000139991598677723706250000013901060601704677300_);}
	.st38{fill:url(#SVGID_00000010297776852980697570000004171849522425286313_);}
	.st39{fill:url(#SVGID_00000096021205068747944840000001418769712263315858_);}
	.st40{fill:url(#SVGID_00000178178794992323339440000002022809303794588294_);}
	.st41{fill:url(#SVGID_00000129166450300028262110000015054824499696165263_);}
	.st42{fill:url(#SVGID_00000013181584556862525830000013333368017542004404_);}
	.st43{fill:url(#SVGID_00000142157174848541940030000006618636207522010502_);}
	.st44{fill:url(#SVGID_00000083090954051714261680000009184214818469865096_);}
	.st45{fill:url(#SVGID_00000111887167761358917820000008823997472370548634_);}
	.st46{fill:url(#SVGID_00000100350426281315629530000003683540970771359657_);}
	.st47{fill:url(#SVGID_00000083799017423587290890000005970412301049420440_);}
	.st48{fill:url(#SVGID_00000029042930858360088780000014315413967159774132_);}
	.st49{fill:url(#SVGID_00000134970982565915083840000011067930767331417513_);}
	.st50{fill:url(#SVGID_00000036950203651432880510000011853908173003574928_);}
	.st51{fill:url(#SVGID_00000062178875624035248440000012366722154882974615_);}
	.st52{fill:url(#SVGID_00000119819064813642991230000007511439632276047236_);}
	.st53{fill:url(#SVGID_00000095329870320776037640000010862319486748886671_);}
	.st54{fill:url(#SVGID_00000088816956619952186380000007546519759595934142_);}
	.st55{fill:url(#SVGID_00000023961578541273231580000017515953142266403458_);}
	.st56{fill:url(#SVGID_00000049208757132007991780000014213324792415740326_);}
	.st57{fill:url(#SVGID_00000066474735515990086790000009742381375804535427_);}
	.st58{fill:url(#SVGID_00000134947240779476513230000004744550559912387991_);}
	.st59{fill:url(#SVGID_00000156566990677577249310000002650005411845095051_);}
	.st60{fill:url(#SVGID_00000149380473870717826780000009043816097253940381_);}
	.st61{fill:url(#SVGID_00000142152144455550327560000007266909388137542276_);}
	.st62{fill:url(#SVGID_00000087413991481307036880000011255666923303225775_);}
	.st63{fill:url(#SVGID_00000117678718587814511940000017853537012494861212_);}
	.st64{fill:url(#SVGID_00000158733193344285237000000005047403882321380258_);}
	.st65{fill:url(#SVGID_00000174572322698092322730000013666990090602589860_);}
	.st66{fill:url(#SVGID_00000082364798560328006870000002017211109784487296_);}
	.st67{fill:url(#SVGID_00000103957962431158535260000011339451677451234223_);}
	.st68{fill:url(#SVGID_00000092458737428273714980000009050952365416929462_);}
	.st69{fill:url(#SVGID_00000084503919730110701400000001328565519966202770_);}
	.st70{fill:url(#SVGID_00000106106028186216628120000011377104250572894653_);}
	.st71{fill:url(#SVGID_00000037661101349625011800000013710200828987995293_);}
	.st72{fill:url(#SVGID_00000083788203594236598530000007850063581633077166_);}
	.st73{fill:url(#SVGID_00000134936614789543651650000010626422608436004998_);}
	.st74{fill:url(#SVGID_00000096771736926384173130000009957330306354702496_);}
	.st75{fill:url(#SVGID_00000132063321173663974870000008305561178545524373_);}
	.st76{fill:url(#SVGID_00000049191108143888077090000004106954728227761546_);}
	.st77{fill:url(#SVGID_00000098914023959368381160000003607625023119986613_);}
	.st78{fill:url(#SVGID_00000130615559187760828170000008775306394407668114_);}
	.st79{fill:url(#SVGID_00000183932138569289221760000006731721215707734659_);}
	.st80{fill:url(#SVGID_00000079453487304309482770000013401253319018112181_);}
	.st81{fill:url(#SVGID_00000153698741635743731700000002180287508634998685_);}
	.st82{fill:url(#SVGID_00000148649030756120656180000015500748076635241918_);}
	.st83{fill:url(#SVGID_00000156567832152275194290000006621193923594019737_);}
	.st84{fill:url(#SVGID_00000098899183642342924080000009851493021705978546_);}
	.st85{fill:url(#SVGID_00000167360874753639201190000012280884676050702778_);}
	.st86{fill:url(#SVGID_00000171698695718940771710000009836570599464087968_);}
	.st87{fill:url(#SVGID_00000068679656171325854000000000824855763473566367_);}
	.st88{fill:url(#SVGID_00000150098189220175647350000005183910542639199905_);}
	.st89{fill:url(#SVGID_00000118395542612676194780000006584685011333101751_);}
	.st90{fill:url(#SVGID_00000173848401503746432910000016618724069735033252_);}
	.st91{fill:url(#SVGID_00000183210954200049637010000005735249922750804625_);}
	.st92{fill:url(#SVGID_00000060751048146878579390000008568979382869534127_);}
	.st93{fill:url(#SVGID_00000138534885883709967880000013584531612018707344_);}
	.st94{fill:url(#SVGID_00000181774936134686309510000005676381583714812566_);}
	.st95{fill:url(#SVGID_00000049934993466718446050000007302863926771893930_);}
	.st96{fill:url(#SVGID_00000091716202616139345550000015845504510062881944_);}
	.st97{fill:url(#SVGID_00000150809678914189347200000001748262014247354520_);}
	.st98{fill:url(#SVGID_00000109031214986465639600000011635280837408153246_);}
	.st99{fill:url(#SVGID_00000077314657430450361260000002230506171040025247_);}
	.st100{fill:url(#SVGID_00000093150562835750830110000009728781709380163510_);}
	.st101{fill:url(#SVGID_00000119814238044730212680000004036702336782324372_);}
	.st102{fill:url(#SVGID_00000172420707760985461890000010128234984333600940_);}
	.st103{fill:url(#SVGID_00000048475383984552380100000011330704545917817014_);}
	.st104{fill:url(#SVGID_00000096046183045469266890000003865553364343598761_);}
	.st105{fill:url(#SVGID_00000048501306432352750470000018066422635112583040_);}
	.st106{fill:url(#SVGID_00000105419458402463729830000001378493563772285107_);}
	.st107{fill:url(#SVGID_00000179643921629866293360000003395300221491902595_);}
	.st108{fill:url(#SVGID_00000147207410325435790680000004476779847173913740_);}
	.st109{fill:url(#SVGID_00000067194336477111821750000008519334494164889000_);}
	.st110{fill:url(#SVGID_00000169541422930625022010000012770099937021678734_);}
	.st111{fill:url(#SVGID_00000067238689573529695030000008927721936682847885_);}
	.st112{fill:url(#SVGID_00000093883219574542300500000011264010808945331384_);}
	.st113{fill:url(#SVGID_00000007396446142152512890000005401715441402173606_);}
	.st114{fill:url(#SVGID_00000103264274267962189380000003928103329813461683_);}
	.st115{fill:url(#SVGID_00000067227129359762822970000014990283730163921573_);}
	.st116{fill:url(#SVGID_00000119110048230816421380000005710215099994215313_);}
	.st117{fill:url(#SVGID_00000045607298673044485230000012766287551899672741_);}
	.st118{fill:url(#SVGID_00000032631865888143164920000014715187403663210918_);}
	.st119{fill:url(#SVGID_00000133529501267239024540000008722931960474621363_);}
	.st120{fill:url(#SVGID_00000138558663967382298580000006432652417902345909_);}
	.st121{fill:url(#SVGID_00000010993741850008752810000014001292883472472449_);}
	.st122{fill:url(#SVGID_00000164474007793861782080000016538245903484285356_);}
	.st123{fill:url(#SVGID_00000121275347942107135170000016225211173526247085_);}
	.st124{fill:url(#SVGID_00000098912825608333394720000001713535261182612872_);}
	.st125{fill:url(#SVGID_00000012442473934518656980000008709873618403176379_);}
	.st126{fill:url(#SVGID_00000069367099340431931630000006002162563083131013_);}
	.st127{fill:#2C4F80;}
	.st128{fill:url(#SVGID_00000095341123911860948420000004752881561420897456_);}
	.st129{fill:url(#SVGID_00000100384943410043677460000006184221903926086323_);}
	.st130{fill:url(#SVGID_00000016036449623308250750000004139731141699560615_);}
	.st131{fill:url(#SVGID_00000055665561170835488530000000097735329213381555_);}
	.st132{fill:url(#SVGID_00000095309988998474459890000001405066505550338739_);}
	.st133{fill:url(#SVGID_00000138554435220963048460000015031763797257465481_);}
	.st134{fill:url(#SVGID_00000002382410514782430900000012873978049135164830_);}
	.st135{fill:url(#SVGID_00000026147510426336532260000015012810065036721025_);}
	.st136{fill:url(#SVGID_00000083803772432645570080000015781102005891421354_);}
	.st137{fill:url(#SVGID_00000016069458191534118250000000735746349321036470_);}
	.st138{fill:url(#SVGID_00000037683240587782658150000011066083061856251569_);}
	.st139{fill:url(#SVGID_00000163782401833690136700000005452523778404509628_);}
	.st140{fill:url(#SVGID_00000016762808353291494950000016425278810029012919_);}
	.st141{fill:url(#SVGID_00000066496853908650634560000007900048087676277691_);}
	.st142{fill:url(#SVGID_00000047046996971868306860000009088250011746785175_);}
	.st143{fill:url(#SVGID_00000149350048794238396980000010887296378815133580_);}
	.st144{fill:url(#SVGID_00000168802823919450164330000015996480073963549836_);}
	.st145{fill:url(#SVGID_00000003795474752989546010000003391533652866002318_);}
	.st146{fill:url(#SVGID_00000001636448964183982220000008667688743391107514_);}
	.st147{fill:url(#SVGID_00000171713601107427185050000015758555396827744435_);}
	.st148{fill:url(#SVGID_00000183969008096209650330000010359743161794517139_);}
	.st149{fill:url(#SVGID_00000010295887699523771210000013121666286725274036_);}
	.st150{fill:url(#SVGID_00000152959118989000415130000000659911556776827054_);}
	.st151{fill:url(#SVGID_00000035504634008330180630000008767475548027926939_);}
	.st152{fill:url(#SVGID_00000125602383001221239740000008942388203673056390_);}
	.st153{fill:url(#SVGID_00000039105721289815495270000012147835199591909547_);}
	.st154{fill:url(#SVGID_00000029760399705248173910000012829003149838753934_);}
	.st155{fill:url(#SVGID_00000047028888094447651860000015839262161972741534_);}
	.st156{fill:url(#SVGID_00000067232567688550077520000015142706174118495130_);}
	.st157{fill:url(#SVGID_00000000904662278820785890000010673974679936500149_);}
	.st158{fill:url(#SVGID_00000026872710895724210580000006216982308479415461_);}
	.st159{fill:url(#SVGID_00000173882959793683538220000015501328014495682737_);}
	.st160{fill:url(#SVGID_00000048488342781121977480000006915540282478257073_);}
	.st161{fill:url(#SVGID_00000070108492219052781520000006159429076384674729_);}
	.st162{fill:url(#SVGID_00000148640016897159708480000013462646705631510672_);}
	.st163{fill:url(#SVGID_00000145764170913120535740000012768468345825544374_);}
	.st164{fill:url(#SVGID_00000035510138655918742130000006332167335296864953_);}
	.st165{fill:url(#SVGID_00000121996526505349118540000016602115318726103960_);}
	.st166{fill:url(#SVGID_00000005976964867496886610000005585181746821695366_);}
	.st167{fill:url(#SVGID_00000066480366801810777100000002291479623968280762_);}
	.st168{fill:url(#SVGID_00000146488605972807589710000015288100058258175676_);}
	.st169{fill:url(#SVGID_00000119105763503757929980000010748028381773848753_);}
	.st170{fill:url(#SVGID_00000133507657901946300470000016449013710638140348_);}
	.st171{fill:url(#SVGID_00000127723665983903152580000010774730358419200930_);}
	.st172{fill:url(#SVGID_00000154402318962163847290000005119139716366012577_);}
	.st173{fill:url(#SVGID_00000173869426730422294170000009021103121533177753_);}
	.st174{fill:url(#SVGID_00000110451490746687673310000007476436199955919530_);}
	.st175{fill:url(#SVGID_00000073722626293899087460000002978607452865286553_);}
	.st176{fill:url(#SVGID_00000094618200428093083880000016954905432117836177_);}
	.st177{fill:url(#SVGID_00000116199336562343246020000011429736310812012417_);}
	.st178{fill:url(#SVGID_00000135673011624645720440000009845495898683191962_);}
	.st179{fill:url(#SVGID_00000120558904141067431260000014370156384941603974_);}
	.st180{fill:url(#SVGID_00000179627617518868529930000015906648805126096794_);}
	.st181{fill:url(#SVGID_00000073688205714414614340000006844460982755364485_);}
	.st182{fill:url(#SVGID_00000002352376437315768080000014121639131517772934_);}
	.st183{fill:url(#SVGID_00000140707101139930718170000015630011072672396446_);}
	.st184{fill:url(#SVGID_00000088101101583094943930000007636674268014109884_);}
	.st185{fill:url(#SVGID_00000172411992029903524970000001864940821201813392_);}
	.st186{fill:url(#SVGID_00000069364109288118479690000009366934254817724803_);}
	.st187{fill:url(#SVGID_00000043459697599548020630000009223511467564390024_);}
	.st188{fill:url(#SVGID_00000096041295232393016100000011321532723484498109_);}
	.st189{fill:url(#SVGID_00000082370454720480488900000011088923755559944894_);}
	.st190{fill:url(#SVGID_00000072267273611594240330000008760078135300363918_);}
	.st191{fill:url(#SVGID_00000142134502683880787450000005165098912609664426_);}
	.st192{fill:url(#SVGID_00000128445969728486519730000016303818004128191630_);}
	.st193{fill:url(#SVGID_00000138534867584645196600000005592608124857847455_);}
	.st194{fill:url(#SVGID_00000092419872710679056820000001979593307714767494_);}
	.st195{fill:url(#SVGID_00000153687333162794685880000010469295972564859794_);}
	.st196{fill:url(#SVGID_00000148663044599630623640000010860558766373498246_);}
	.st197{fill:url(#SVGID_00000058571177403878742510000009291021274345702334_);}
	.st198{fill:url(#SVGID_00000118389256491099477100000010445277800271855497_);}
	.st199{fill:url(#SVGID_00000064344953142364780210000010814238463608272028_);}
	.st200{fill:url(#SVGID_00000022535630496795373690000004382403139919574715_);}
	.st201{fill:url(#SVGID_00000047049913748927348870000016669759570800122527_);}
	.st202{fill:url(#SVGID_00000036937659410577340570000009598091712557482942_);}
	.st203{fill:url(#SVGID_00000023991645560895010040000001672003050531657615_);}
	.st204{fill:url(#SVGID_00000126308734482849094470000017785097929013357996_);}
	.st205{fill:url(#SVGID_00000093874117000089815680000017825496762629175687_);}
	.st206{fill:url(#SVGID_00000093161863859545400660000001876802172886499984_);}
	.st207{fill:url(#SVGID_00000182491726287899070300000000175154172964938375_);}
	.st208{fill:url(#SVGID_00000044874061573427619930000005720263424921175712_);}
	.st209{fill:url(#SVGID_00000003786810588739412790000015965355701045840289_);}
	.st210{fill:url(#SVGID_00000127025194960434610730000009122912670902739340_);}
	.st211{fill:url(#SVGID_00000140731949355363101760000017716888322575189913_);}
	.st212{fill:url(#SVGID_00000145036387830753985770000009397643462658448308_);}
	.st213{fill:url(#SVGID_00000013913456578189395030000010717028911043727032_);}
	.st214{fill:url(#SVGID_00000131345887095668365410000010793294518921038011_);}
	.st215{fill:url(#SVGID_00000116229040868303953160000007118063723802738816_);}
	.st216{fill:url(#SVGID_00000154398080766235427410000005523067850020990390_);}
	.st217{fill:url(#SVGID_00000031895050006633893780000010354505783822578867_);}
	.st218{fill:url(#SVGID_00000085217547794491511460000003552595678752752033_);}
	.st219{fill:url(#SVGID_00000085946278015788069990000005845530591867077775_);}
	.st220{fill:url(#SVGID_00000096050357891619914400000007214015231380961449_);}
	.st221{fill:url(#SVGID_00000075144701322182703060000016517740404797323963_);}
	.st222{fill:url(#SVGID_00000169549912503625612440000009237937181757639299_);}
	.st223{fill:url(#SVGID_00000002377737286719797420000006733029563064346303_);}
	.st224{fill:url(#SVGID_00000015352968389663958200000000326987897535777189_);}
	.st225{fill:url(#SVGID_00000148632338886117135590000000448050984851314840_);}
	.st226{fill:url(#SVGID_00000015317304009440846490000014888767910863221182_);}
	.st227{fill:url(#SVGID_00000091001664486941017080000010824793755528445879_);}
	.st228{fill:url(#SVGID_00000160878042483197525580000000475301202035864460_);}
</style>
<g>
	<linearGradient id="SVGID_1_" gradientUnits="userSpaceOnUse" x1="94.0831" y1="110.3744" x2="1.4753" y2="38.4592">
		<stop  offset="0.4" style="stop-color:#F39800"/>
		<stop  offset="0.9039" style="stop-color:#C42D1B"/>
	</linearGradient>
	<path class="st0" d="M61.32,82.41H40.02c-0.21,0-0.41-0.09-0.55-0.24c-0.14-0.15-0.22-0.35-0.21-0.56l0.37-10.24
		c0.01-0.41,0.35-0.74,0.77-0.74h20.57c0.41,0,0.75,0.33,0.77,0.74l0.37,10.24c0.01,0.21-0.07,0.41-0.22,0.56
		C61.73,82.32,61.53,82.41,61.32,82.41z M40.81,80.87h19.72l-0.31-8.71H41.13L40.81,80.87z"/>
	
		<linearGradient id="SVGID_00000140701786188320555830000010504304635754626746_" gradientUnits="userSpaceOnUse" x1="102.741" y1="99.2253" x2="10.1332" y2="27.3101">
		<stop  offset="0.4" style="stop-color:#F39800"/>
		<stop  offset="0.9039" style="stop-color:#C42D1B"/>
	</linearGradient>
	<path style="fill:url(#SVGID_00000140701786188320555830000010504304635754626746_);" d="M55.83,72.17H45.51
		c-0.41,0-0.75-0.32-0.77-0.73l-1.3-24.2c-0.01-0.21,0.07-0.42,0.21-0.57c0.15-0.15,0.35-0.24,0.56-0.24h12.93
		c0.21,0,0.41,0.09,0.56,0.24c0.15,0.15,0.22,0.36,0.21,0.57l-1.3,24.2C56.58,71.85,56.24,72.17,55.83,72.17z M51.44,70.63h3.67
		l1.22-22.67H45.02l1.22,22.67h3.66V53.25c0-0.42,0.34-0.77,0.77-0.77c0.42,0,0.77,0.34,0.77,0.77V70.63z"/>
	
		<linearGradient id="SVGID_00000066487187074702902730000004389682502057432501_" gradientUnits="userSpaceOnUse" x1="117.6924" y1="79.9717" x2="25.0847" y2="8.0565">
		<stop  offset="0.4" style="stop-color:#F39800"/>
		<stop  offset="0.9039" style="stop-color:#C42D1B"/>
	</linearGradient>
	<path style="fill:url(#SVGID_00000066487187074702902730000004389682502057432501_);" d="M57.13,47.96H44.21
		c-0.42,0-0.77-0.34-0.77-0.77v-8.98c0-1.04-0.38-2.01-1.03-2.69l-12.2-12.26c-0.66-0.66-1.01-1.57-0.97-2.5
		c0.05-0.93,0.49-1.81,1.22-2.4c1.29-1.06,3.29-0.92,4.53,0.33l8.22,8.22c0.85,0.85,1.98,1.32,3.18,1.32h8.57
		c1.2,0,2.33-0.47,3.18-1.32l8.22-8.22c1.24-1.25,3.24-1.39,4.53-0.33l0,0c0.73,0.59,1.17,1.47,1.22,2.4
		c0.05,0.93-0.31,1.84-0.97,2.51L58.95,35.5c-0.68,0.69-1.05,1.67-1.05,2.71v8.98C57.9,47.62,57.56,47.96,57.13,47.96z M44.98,46.42
		h11.39v-8.21c0-1.46,0.52-2.79,1.47-3.76l12.21-12.27c0.35-0.36,0.54-0.84,0.52-1.34c-0.03-0.51-0.26-0.96-0.66-1.29l0,0
		c-0.69-0.57-1.78-0.47-2.47,0.23L59.22,28c-1.14,1.14-2.65,1.77-4.26,1.77h-8.57c-1.61,0-3.12-0.63-4.26-1.77l-8.22-8.22
		c-0.69-0.69-1.78-0.79-2.47-0.23c-0.4,0.33-0.63,0.78-0.65,1.29c-0.02,0.5,0.16,0.99,0.52,1.34l12.18,12.24
		c0.98,1,1.5,2.33,1.5,3.79V46.42z"/>
	
		<linearGradient id="SVGID_00000003067930266720637850000011182137709595132846_" gradientUnits="userSpaceOnUse" x1="121.1993" y1="75.4558" x2="28.5916" y2="3.5406">
		<stop  offset="0.4" style="stop-color:#F39800"/>
		<stop  offset="0.9039" style="stop-color:#C42D1B"/>
	</linearGradient>
	<path style="fill:url(#SVGID_00000003067930266720637850000011182137709595132846_);" d="M50.67,26.06c-2.71,0-4.92-2.41-4.92-5.38
		c0-2.97,2.21-5.38,4.92-5.38c2.71,0,4.92,2.41,4.92,5.38C55.59,23.65,53.38,26.06,50.67,26.06z M50.67,16.84
		c-1.86,0-3.38,1.72-3.38,3.84c0,2.12,1.52,3.84,3.38,3.84c1.86,0,3.38-1.72,3.38-3.84C54.05,18.57,52.53,16.84,50.67,16.84z"/>
	
		<linearGradient id="SVGID_00000071561707358519637410000017462201726736067494_" gradientUnits="userSpaceOnUse" x1="105.4751" y1="95.7044" x2="12.8673" y2="23.7892">
		<stop  offset="0.4" style="stop-color:#F39800"/>
		<stop  offset="0.9039" style="stop-color:#C42D1B"/>
	</linearGradient>
	<path style="fill:url(#SVGID_00000071561707358519637410000017462201726736067494_);" d="M77.92,82.41L77.92,82.41H72.7h-5.22
		c-0.41,0-0.75-0.33-0.77-0.74l-0.8-22.16c-0.01-0.21,0.07-0.41,0.22-0.56c0.15-0.15,0.35-0.23,0.55-0.23h12.05
		c0.21,0,0.41,0.08,0.55,0.23c0.15,0.15,0.22,0.35,0.22,0.56l-0.8,22.16C78.67,82.08,78.33,82.41,77.92,82.41z M73.46,80.87h3.71
		l0.74-20.63H67.47l0.74,20.63h3.71v-16c0-0.42,0.34-0.77,0.77-0.77c0.42,0,0.77,0.34,0.77,0.77V80.87z"/>
	
		<linearGradient id="SVGID_00000144297301796386615180000006116322182053033125_" gradientUnits="userSpaceOnUse" x1="113.7617" y1="85.0335" x2="21.154" y2="13.1183">
		<stop  offset="0.4" style="stop-color:#F39800"/>
		<stop  offset="0.9039" style="stop-color:#C42D1B"/>
	</linearGradient>
	<path style="fill:url(#SVGID_00000144297301796386615180000006116322182053033125_);" d="M80.32,64.14h-1.74
		c-0.21,0-0.41-0.09-0.55-0.24c-0.14-0.15-0.22-0.35-0.22-0.56l0.11-3.1H67.47l0.12,3.1c0.01,0.21-0.07,0.41-0.21,0.56
		c-0.15,0.15-0.34,0.24-0.55,0.24h-1.74c-2.15,0-3.9-1.75-3.9-3.9V46.58c0-2.17,1.39-4.07,3.47-4.72c2.55-0.8,5.19-1.21,7.86-1.21
		h0.67c2.59,0,5.15,0.4,7.62,1.19c2.05,0.66,3.43,2.55,3.43,4.71v13.68C84.22,62.39,82.47,64.14,80.32,64.14z M79.38,62.61h0.94
		c1.3,0,2.37-1.06,2.37-2.37V46.56c0-1.49-0.95-2.79-2.37-3.25c-2.32-0.74-4.72-1.12-7.15-1.12h-0.67c-2.51,0-5,0.38-7.4,1.13
		c-1.43,0.45-2.39,1.76-2.39,3.25v13.66c0,1.3,1.06,2.37,2.37,2.37h0.95l-0.12-3.1c0-0.01,0-0.02,0-0.03V49.07
		c0-0.42,0.34-0.77,0.77-0.77c0.42,0,0.77,0.34,0.77,0.77v9.64h10.51v-9.64c0-0.42,0.34-0.77,0.77-0.77c0.42,0,0.77,0.34,0.77,0.77
		v10.41c0,0.02,0,0.04,0,0.06L79.38,62.61z"/>
	
		<linearGradient id="SVGID_00000166645921133331327500000008257939350313385122_" gradientUnits="userSpaceOnUse" x1="115.0935" y1="83.3184" x2="22.4858" y2="11.4033">
		<stop  offset="0.4" style="stop-color:#F39800"/>
		<stop  offset="0.9039" style="stop-color:#C42D1B"/>
	</linearGradient>
	<path style="fill:url(#SVGID_00000166645921133331327500000008257939350313385122_);" d="M72.77,60.25c-0.42,0-0.77-0.34-0.77-0.77
		V41.43c0-0.42,0.34-0.77,0.77-0.77c0.42,0,0.77,0.34,0.77,0.77v18.05C73.54,59.9,73.2,60.25,72.77,60.25z"/>
	
		<linearGradient id="SVGID_00000029028188080899652780000015031261066128591036_" gradientUnits="userSpaceOnUse" x1="123.0395" y1="73.0861" x2="30.4317" y2="1.1709">
		<stop  offset="0.4" style="stop-color:#F39800"/>
		<stop  offset="0.9039" style="stop-color:#C42D1B"/>
	</linearGradient>
	<path style="fill:url(#SVGID_00000029028188080899652780000015031261066128591036_);" d="M72.7,39.36c-2.73,0-4.95-2.41-4.95-5.37
		c0-2.96,2.22-5.37,4.95-5.37c2.73,0,4.95,2.41,4.95,5.37C77.64,36.95,75.42,39.36,72.7,39.36z M72.7,30.16
		c-1.88,0-3.41,1.72-3.41,3.83c0,2.11,1.53,3.83,3.41,3.83c1.88,0,3.41-1.72,3.41-3.83C76.11,31.88,74.58,30.16,72.7,30.16z"/>
	
		<linearGradient id="SVGID_00000080920955100029317390000008613179352091258814_" gradientUnits="userSpaceOnUse" x1="88.9034" y1="117.0444" x2="-3.7044" y2="45.1292">
		<stop  offset="0.4" style="stop-color:#F39800"/>
		<stop  offset="0.9039" style="stop-color:#C42D1B"/>
	</linearGradient>
	<path style="fill:url(#SVGID_00000080920955100029317390000008613179352091258814_);" d="M33.87,82.41L33.87,82.41h-5.22h-5.22
		c-0.41,0-0.75-0.33-0.77-0.74l-0.8-22.16c-0.01-0.21,0.07-0.41,0.22-0.56c0.15-0.15,0.35-0.23,0.55-0.23h12.05
		c0.21,0,0.41,0.08,0.55,0.23c0.15,0.15,0.22,0.35,0.22,0.56l-0.8,22.16C34.62,82.08,34.28,82.41,33.87,82.41z M29.41,80.87h3.71
		l0.74-20.63H23.42l0.74,20.63h3.71v-16c0-0.42,0.34-0.77,0.77-0.77c0.42,0,0.77,0.34,0.77,0.77V80.87z"/>
	
		<linearGradient id="SVGID_00000073703470879028620760000007338586004473740942_" gradientUnits="userSpaceOnUse" x1="97.19" y1="106.3734" x2="4.5822" y2="34.4582">
		<stop  offset="0.4" style="stop-color:#F39800"/>
		<stop  offset="0.9039" style="stop-color:#C42D1B"/>
	</linearGradient>
	<path style="fill:url(#SVGID_00000073703470879028620760000007338586004473740942_);" d="M36.27,64.14h-1.74
		c-0.21,0-0.41-0.09-0.55-0.24c-0.15-0.15-0.22-0.35-0.21-0.56l0.11-3.1H23.42l0.12,3.1c0.01,0.21-0.07,0.41-0.21,0.56
		c-0.15,0.15-0.34,0.24-0.55,0.24h-1.74c-2.15,0-3.9-1.75-3.9-3.9V46.58c0-2.17,1.39-4.07,3.46-4.72c2.55-0.8,5.19-1.21,7.86-1.21
		h0.67c2.59,0,5.15,0.4,7.62,1.19c2.05,0.66,3.43,2.55,3.43,4.71v13.68C40.17,62.39,38.42,64.14,36.27,64.14z M35.32,62.61h0.94
		c1.3,0,2.37-1.06,2.37-2.37V46.56c0-1.49-0.95-2.79-2.37-3.25c-2.32-0.74-4.72-1.12-7.15-1.12h-0.67c-2.51,0-5,0.38-7.4,1.13
		c-1.43,0.45-2.39,1.76-2.39,3.25v13.66c0,1.3,1.06,2.37,2.37,2.37h0.95l-0.12-3.1c0-0.01,0-0.02,0-0.03V49.07
		c0-0.42,0.34-0.77,0.77-0.77c0.42,0,0.77,0.34,0.77,0.77v9.64H33.9v-9.64c0-0.42,0.34-0.77,0.77-0.77c0.42,0,0.77,0.34,0.77,0.77
		v10.41c0,0.02,0,0.04,0,0.06L35.32,62.61z"/>
	
		<linearGradient id="SVGID_00000024001755283965964150000009836345517580865459_" gradientUnits="userSpaceOnUse" x1="98.5215" y1="104.6589" x2="5.9137" y2="32.7437">
		<stop  offset="0.4" style="stop-color:#F39800"/>
		<stop  offset="0.9039" style="stop-color:#C42D1B"/>
	</linearGradient>
	<path style="fill:url(#SVGID_00000024001755283965964150000009836345517580865459_);" d="M28.72,60.25c-0.42,0-0.77-0.34-0.77-0.77
		V41.43c0-0.42,0.34-0.77,0.77-0.77c0.42,0,0.77,0.34,0.77,0.77v18.05C29.49,59.9,29.14,60.25,28.72,60.25z"/>
	
		<linearGradient id="SVGID_00000078757144161711298600000017220734908088753080_" gradientUnits="userSpaceOnUse" x1="106.4678" y1="94.4261" x2="13.86" y2="22.5109">
		<stop  offset="0.4" style="stop-color:#F39800"/>
		<stop  offset="0.9039" style="stop-color:#C42D1B"/>
	</linearGradient>
	<path style="fill:url(#SVGID_00000078757144161711298600000017220734908088753080_);" d="M28.64,39.36c-2.73,0-4.95-2.41-4.95-5.37
		c0-2.96,2.22-5.37,4.95-5.37c2.73,0,4.95,2.41,4.95,5.37C33.59,36.95,31.37,39.36,28.64,39.36z M28.64,30.16
		c-1.88,0-3.41,1.72-3.41,3.83c0,2.11,1.53,3.83,3.41,3.83c1.88,0,3.41-1.72,3.41-3.83C32.06,31.88,30.52,30.16,28.64,30.16z"/>
	
		<linearGradient id="SVGID_00000053516577267070203840000011413458529341464739_" gradientUnits="userSpaceOnUse" x1="91.6706" y1="113.481" x2="-0.9372" y2="41.5658">
		<stop  offset="0.4" style="stop-color:#F39800"/>
		<stop  offset="0.9039" style="stop-color:#C42D1B"/>
	</linearGradient>
	<path style="fill:url(#SVGID_00000053516577267070203840000011413458529341464739_);" d="M83.45,82.41H17.89
		c-0.42,0-0.77-0.34-0.77-0.77c0-0.42,0.34-0.77,0.77-0.77h65.57c0.42,0,0.77,0.34,0.77,0.77C84.22,82.07,83.88,82.41,83.45,82.41z"
		/>
	
		<linearGradient id="SVGID_00000085236173413412431170000009513873251833622419_" gradientUnits="userSpaceOnUse" x1="106.4696" y1="94.4238" x2="13.8618" y2="22.5086">
		<stop  offset="0.4" style="stop-color:#F39800"/>
		<stop  offset="0.9039" style="stop-color:#C42D1B"/>
	</linearGradient>
	<path style="fill:url(#SVGID_00000085236173413412431170000009513873251833622419_);" d="M20.96,29.13c-0.2,0-0.39-0.07-0.54-0.22
		l-3.07-3.07c-0.3-0.3-0.3-0.79,0-1.09c0.3-0.3,0.79-0.3,1.09,0l3.07,3.07c0.3,0.3,0.3,0.79,0,1.09
		C21.35,29.06,21.16,29.13,20.96,29.13z"/>
	
		<linearGradient id="SVGID_00000049934630956494797900000013716004924291294127_" gradientUnits="userSpaceOnUse" x1="106.4696" y1="94.4238" x2="13.8618" y2="22.5086">
		<stop  offset="0.4" style="stop-color:#F39800"/>
		<stop  offset="0.9039" style="stop-color:#C42D1B"/>
	</linearGradient>
	<path style="fill:url(#SVGID_00000049934630956494797900000013716004924291294127_);" d="M17.89,29.13c-0.2,0-0.39-0.07-0.54-0.22
		c-0.3-0.3-0.3-0.79,0-1.09l3.07-3.07c0.3-0.3,0.79-0.3,1.09,0c0.3,0.3,0.3,0.79,0,1.09l-3.07,3.07
		C18.28,29.06,18.08,29.13,17.89,29.13z"/>
	
		<linearGradient id="SVGID_00000094605756078713692900000017124350802921340337_" gradientUnits="userSpaceOnUse" x1="112.8643" y1="86.1891" x2="20.2566" y2="14.2739">
		<stop  offset="0.4" style="stop-color:#F39800"/>
		<stop  offset="0.9039" style="stop-color:#C42D1B"/>
	</linearGradient>
	<path style="fill:url(#SVGID_00000094605756078713692900000017124350802921340337_);" d="M26.08,19.91c-0.2,0-0.39-0.08-0.54-0.23
		l-3.07-3.07c-0.3-0.3-0.3-0.79,0-1.09c0.3-0.3,0.79-0.3,1.09,0l3.07,3.07c0.3,0.3,0.3,0.79,0,1.09
		C26.48,19.84,26.28,19.91,26.08,19.91z"/>
	
		<linearGradient id="SVGID_00000073683272125635083860000007002019518192455863_" gradientUnits="userSpaceOnUse" x1="112.8643" y1="86.1891" x2="20.2566" y2="14.2739">
		<stop  offset="0.4" style="stop-color:#F39800"/>
		<stop  offset="0.9039" style="stop-color:#C42D1B"/>
	</linearGradient>
	<path style="fill:url(#SVGID_00000073683272125635083860000007002019518192455863_);" d="M23.01,19.91c-0.2,0-0.39-0.08-0.54-0.23
		c-0.3-0.3-0.3-0.79,0-1.09l3.07-3.07c0.3-0.3,0.79-0.3,1.09,0c0.3,0.3,0.3,0.79,0,1.09l-3.07,3.07
		C23.4,19.84,23.21,19.91,23.01,19.91z"/>
	
		<linearGradient id="SVGID_00000021802971231143058830000014448604937509363849_" gradientUnits="userSpaceOnUse" x1="130.8077" y1="63.0828" x2="38.1999" y2="-8.8324">
		<stop  offset="0.4" style="stop-color:#F39800"/>
		<stop  offset="0.9039" style="stop-color:#C42D1B"/>
	</linearGradient>
	<path style="fill:url(#SVGID_00000021802971231143058830000014448604937509363849_);" d="M80.38,25.03c-0.2,0-0.39-0.08-0.54-0.23
		l-3.07-3.07c-0.3-0.3-0.3-0.79,0-1.09c0.3-0.3,0.79-0.3,1.09,0l3.07,3.07c0.3,0.3,0.3,0.79,0,1.09
		C80.77,24.96,80.58,25.03,80.38,25.03z"/>
	
		<linearGradient id="SVGID_00000129180119928252342140000007688704130966451354_" gradientUnits="userSpaceOnUse" x1="130.8077" y1="63.0828" x2="38.1999" y2="-8.8324">
		<stop  offset="0.4" style="stop-color:#F39800"/>
		<stop  offset="0.9039" style="stop-color:#C42D1B"/>
	</linearGradient>
	<path style="fill:url(#SVGID_00000129180119928252342140000007688704130966451354_);" d="M77.31,25.03c-0.2,0-0.39-0.08-0.54-0.23
		c-0.3-0.3-0.3-0.79,0-1.09l3.07-3.07c0.3-0.3,0.79-0.3,1.09,0c0.3,0.3,0.3,0.79,0,1.09l-3.07,3.07
		C77.7,24.96,77.5,25.03,77.31,25.03z"/>
</g>
</svg>
