<svg id="圖層_1" data-name="圖層 1" xmlns="http://www.w3.org/2000/svg" xmlns:xlink="http://www.w3.org/1999/xlink" viewBox="0 0 437.98 206.3"><defs><style>.cls-1{fill:none;}.cls-2{fill:url(#未命名漸層_43);}.cls-3{fill:#fff;}</style><linearGradient id="未命名漸層_43" x1="18.38" y1="185.2" x2="188.85" y2="14.73" gradientUnits="userSpaceOnUse"><stop offset="0" stop-color="#ed9027"/><stop offset="0.6" stop-color="#e44f26"/><stop offset="1" stop-color="#de2726"/></linearGradient></defs><rect class="cls-1" x="-41.26" y="-41.26" width="515.75" height="288.82"/><path class="cls-2" d="M14.33,90.6C38.21,50.53,66.44,43,66.44,43S23,72.19,17.59,118.75s32.58,70.73,80.32,59.56c67.17-15.72,97.7-72,97.7-72S183.44,153.72,137,186.76c-48.3,34.34-99.31,16.6-118.53-1.52-18.84-17.76-28-54.57-4.13-94.64m162.8,9.69c-54.69,52.39-128.48,54-128.48,54L91.47,38.45l52.92,49.62A139.15,139.15,0,0,0,158.32,76.4c17.7-16.88,34.57-49.68-7.12-61.56C103.87,1.34,55.41,25,55.41,25,71.6,9.9,106.82,0,137.65,0c13.45,0,26.06,1.88,35.89,6.05C194.52,14.93,233.49,46.32,177.13,100.29Zm-54.93,1.5-24-22.86L85,116.35C102.53,111,113.69,106.25,122.2,101.79Z"/><path class="cls-3" d="M280.67,43.93h-8.26L190,171.12h15.85l25.85-39.78h47.73l11.21,39.78h26.1Zm-5,74.43H240L264.84,80Zm92.42-58.83L361.5,97h42l-2.27,12.89h-42l-8.52,48.35h62.84l-2.27,12.88H323.16L345.11,46.65h88.12L431,59.53Z"/></svg>