<?xml version="1.0" encoding="utf-8"?>
<!-- Generator: Adobe Illustrator 25.4.1, SVG Export Plug-In . SVG Version: 6.00 Build 0)  -->
<svg version="1.1" id="圖層_1" xmlns="http://www.w3.org/2000/svg" xmlns:xlink="http://www.w3.org/1999/xlink" x="0px" y="0px"
	 viewBox="0 0 113.4 113.4" style="enable-background:new 0 0 113.4 113.4;" xml:space="preserve">
<style type="text/css">
	.st0{display:none;}
	.st1{display:inline;}
	.st2{fill:#F3BE50;}
	.st3{fill:#FFFFFF;}
	.st4{fill:#998CC1;}
	.st5{fill:#5B2289;}
	.st6{fill:#BBC1D5;}
</style>
<g class="st0">
	<g class="st1">
		<circle class="st2" cx="85.8" cy="42.2" r="17.6"/>
	</g>
	<g class="st1">
		
			<ellipse transform="matrix(0.2298 -0.9732 0.9732 0.2298 -33.1466 141.0213)" class="st2" cx="72.5" cy="91.5" rx="15.1" ry="15.1"/>
	</g>
	<g class="st1">
		
			<ellipse transform="matrix(0.7071 -0.7071 0.7071 0.7071 -12.4992 34.6676)" class="st2" cx="35.6" cy="32.4" rx="25.1" ry="25.1"/>
	</g>
	<g class="st1">
		<path class="st3" d="M63.2,92.1h-10c-2.1,0-3.8-1.7-3.8-3.8l0,0c0-2.1,1.7-3.8,3.8-3.8h10c2.1,0,3.8,1.7,3.8,3.8l0,0
			C67,90.4,65.3,92.1,63.2,92.1z"/>
	</g>
	<g class="st1">
		<path class="st4" d="M67,88.3H57c-2.1,0-3.8,1.7-3.8,3.8h10C65.3,92.1,67,90.4,67,88.3z"/>
	</g>
	<g class="st1">
		<path class="st3" d="M93.4,56.9v-7.8c0-15.1-15.7-27.4-35.2-27.4l0,0C38.8,21.7,23,34,23,49.1v7.8v-10c0-19.4,15.7-35.2,35.2-35.2
			l0,0c19.4,0,35.2,15.7,35.2,35.2V56.9z"/>
	</g>
	<g class="st1">
		<path class="st4" d="M92,37.1c-1.8-6.4-5.5-12.1-10.3-16.4c-5.4-3.3-11.7-5.3-18.5-5.3l0,0c-10.5,0-19.9,4.6-26.4,11.9
			c5.9-3.5,13.3-5.6,21.3-5.6l0,0c10.7,0,20.4,3.7,26.8,9.7c5.2,4.8,8.4,10.9,8.4,17.7c0-1.3,0-2.2,0-2.2
			C93.4,43.5,92.9,40.2,92,37.1z"/>
	</g>
	<g class="st1">
		<g>
			<path class="st5" d="M80.8,89.3H67c-0.5,0-0.9-0.4-0.9-0.9s0.4-0.9,0.9-0.9h13.8c6.4,0,11.6-5.2,11.6-11.6V62
				c0-0.5,0.4-0.9,0.9-0.9c0.5,0,0.9,0.4,0.9,0.9v13.7C94.3,83.2,88.3,89.3,80.8,89.3z"/>
		</g>
		<g>
			<path class="st5" d="M93.4,57.8c-0.5,0-0.9-0.4-0.9-0.9v-7.8c0-14.6-15.4-26.4-34.2-26.4C39.3,22.7,24,34.5,24,49.1v7.8
				c0,0.5-0.4,0.9-0.9,0.9c-0.5,0-0.9-0.4-0.9-0.9v-10c0-19.9,16.2-36.1,36.1-36.1s36.1,16.2,36.1,36.1v10
				C94.3,57.4,93.9,57.8,93.4,57.8z M58.2,20.8c14.6,0,27.2,6.8,32.9,16.7C87,23.1,73.8,12.6,58.2,12.6c-15.6,0-28.8,10.5-32.9,24.8
				C31,27.6,43.6,20.8,58.2,20.8z"/>
		</g>
	</g>
	<g class="st1">
		<path class="st3" d="M36.4,74.5h-4c-1,0-1.8-0.8-1.8-1.8V46.1c0-1,0.8-1.8,1.8-1.8h4c1,0,1.8,0.8,1.8,1.8v26.6
			C38.1,73.7,37.3,74.5,36.4,74.5z"/>
	</g>
	<g class="st1">
		<path class="st3" d="M84.1,74.5h-4c-1,0-1.8-0.8-1.8-1.8V46.1c0-1,0.8-1.8,1.8-1.8h4c1,0,1.8,0.8,1.8,1.8v26.6
			C85.8,73.7,85.1,74.5,84.1,74.5z"/>
	</g>
	<g class="st1">
		<path class="st3" d="M67,73.2H54.8l-7.9,6.3V48.1c0-1.4,1.1-2.5,2.5-2.5H67c1.4,0,2.5,1.1,2.5,2.5v22.6
			C69.5,72.1,68.4,73.2,67,73.2z"/>
	</g>
	<g class="st1">
		<path class="st3" d="M30.6,72C23.6,72,18,66.4,18,59.4s5.6-12.6,12.6-12.6V72z"/>
	</g>
	<g class="st1">
		<path class="st3" d="M85.8,46.9c6.9,0,12.6,5.6,12.6,12.6S92.8,72,85.8,72V46.9z"/>
	</g>
	<g class="st1">
		<path class="st4" d="M67,73.2c1.4,0,2.5-1.1,2.5-2.5V50.6H54.4c-0.7,0-1.3,0.6-1.3,1.3v22.7l1.6-1.3H67z"/>
	</g>
	<g class="st1">
		<path class="st4" d="M38.1,72V49.4h-1.3c-1.4,0-2.5,1.1-2.5,2.5v22.6h1.3C37,74.5,38.1,73.4,38.1,72z"/>
	</g>
	<g class="st1">
		<path class="st4" d="M85.8,72V49.4h-1.3c-1.4,0-2.5,1.1-2.5,2.5v22.6h1.3C84.7,74.5,85.8,73.4,85.8,72z"/>
	</g>
	<g class="st1">
		<path class="st4" d="M85.8,64.4V72c6.9,0,12.6-5.6,12.6-12.6c0-1.3-0.2-2.6-0.6-3.8C96.2,60.7,91.5,64.4,85.8,64.4z"/>
	</g>
	<g class="st1">
		<path class="st6" d="M30.6,52.5c-5.1,1.6-8.8,6.4-8.8,12c0,1.7,0.3,3.3,0.9,4.8c2.2,1.7,4.9,2.8,7.8,2.8V52.5z"/>
	</g>
	<g class="st1">
		<g>
			<path class="st3" d="M58.2,67.9c-0.5,0-0.9-0.4-0.9-0.9v-10c0-0.5,0.4-0.9,0.9-0.9s0.9,0.4,0.9,0.9v10
				C59.2,67.5,58.7,67.9,58.2,67.9z"/>
		</g>
		<g>
			<path class="st3" d="M60.1,67.9h-3.8c-0.5,0-0.9-0.4-0.9-0.9c0-0.5,0.4-0.9,0.9-0.9h3.8c0.5,0,0.9,0.4,0.9,0.9
				C61,67.5,60.6,67.9,60.1,67.9z"/>
		</g>
		<g>
			<path class="st3" d="M60.1,57.8h-3.8c-0.5,0-0.9-0.4-0.9-0.9c0-0.5,0.4-0.9,0.9-0.9h3.8c0.5,0,0.9,0.4,0.9,0.9
				C61,57.4,60.6,57.8,60.1,57.8z"/>
		</g>
		<g>
			<path class="st3" d="M59.5,53.1c0,0.7-0.6,1.3-1.3,1.3S57,53.8,57,53.1c0-0.7,0.6-1.3,1.3-1.3S59.5,52.4,59.5,53.1z"/>
		</g>
	</g>
	<g class="st1">
		<g>
			<path class="st5" d="M63.2,93h-10c-2.6,0-4.7-2.1-4.7-4.7c0-2.6,2.1-4.7,4.7-4.7h10c2.6,0,4.7,2.1,4.7,4.7
				C67.9,90.9,65.8,93,63.2,93z M53.2,85.5c-1.6,0-2.8,1.3-2.8,2.8c0,1.6,1.3,2.8,2.8,2.8h10c1.6,0,2.8-1.3,2.8-2.8
				c0-1.6-1.3-2.8-2.8-2.8H53.2z"/>
		</g>
		<g>
			<path class="st5" d="M46.9,80.5c-0.1,0-0.3,0-0.4-0.1c-0.3-0.2-0.5-0.5-0.5-0.8V48.1c0-1.9,1.5-3.5,3.5-3.5H67
				c1.9,0,3.5,1.6,3.5,3.5v22.6c0,1.9-1.5,3.5-3.5,3.5H55.1l-7.7,6.1C47.3,80.4,47.1,80.5,46.9,80.5z M49.4,46.5
				c-0.9,0-1.6,0.7-1.6,1.6v29.5l6.4-5.1c0.2-0.1,0.4-0.2,0.6-0.2H67c0.9,0,1.6-0.7,1.6-1.6V48.1c0-0.9-0.7-1.6-1.6-1.6H49.4z"/>
		</g>
		<g>
			<path class="st5" d="M35.6,75.4h-2.5c-1.9,0-3.5-1.6-3.5-3.5V46.9c0-1.9,1.5-3.5,3.5-3.5h2.5c1.9,0,3.5,1.5,3.5,3.5V72
				C39.1,73.9,37.5,75.4,35.6,75.4z M33.1,45.3c-0.9,0-1.6,0.7-1.6,1.6V72c0,0.9,0.7,1.6,1.6,1.6h2.5c0.9,0,1.6-0.7,1.6-1.6V46.9
				c0-0.9-0.7-1.6-1.6-1.6H33.1z"/>
		</g>
		<g>
			<path class="st5" d="M83.3,75.4h-2.5c-1.9,0-3.5-1.6-3.5-3.5V46.9c0-1.9,1.5-3.5,3.5-3.5h2.5c1.9,0,3.5,1.5,3.5,3.5V72
				C86.8,73.9,85.2,75.4,83.3,75.4z M80.8,45.3c-0.9,0-1.6,0.7-1.6,1.6V72c0,0.9,0.7,1.6,1.6,1.6h2.5c0.9,0,1.6-0.7,1.6-1.6V46.9
				c0-0.9-0.7-1.6-1.6-1.6H80.8z"/>
		</g>
		<g>
			<path class="st5" d="M85.8,72.9c-0.5,0-0.9-0.4-0.9-0.9V46.9c0-0.5,0.4-0.9,0.9-0.9c7.4,0,13.5,6.1,13.5,13.5
				S93.3,72.9,85.8,72.9z M86.8,47.8V71c6-0.5,10.7-5.5,10.7-11.6S92.8,48.3,86.8,47.8z"/>
		</g>
		<g>
			<path class="st5" d="M30.6,72.9c-7.4,0-13.5-6.1-13.5-13.5s6.1-13.5,13.5-13.5c0.5,0,0.9,0.4,0.9,0.9V72
				C31.5,72.5,31.1,72.9,30.6,72.9z M29.6,47.8c-6,0.5-10.7,5.5-10.7,11.6S23.7,70.5,29.6,71V47.8z"/>
		</g>
	</g>
	<g class="st1">
		<path class="st3" d="M46.1,36.5h-5c-0.5,0-0.9-0.4-0.9-0.9c0-0.5,0.4-0.9,0.9-0.9h5c0.5,0,0.9,0.4,0.9,0.9
			C47,36.1,46.6,36.5,46.1,36.5z"/>
	</g>
	<g class="st1">
		<path class="st3" d="M43.6,39c-0.5,0-0.9-0.4-0.9-0.9v-5c0-0.5,0.4-0.9,0.9-0.9c0.5,0,0.9,0.4,0.9,0.9v5
			C44.5,38.6,44.1,39,43.6,39z"/>
	</g>
	<g class="st1">
		<path class="st3" d="M31.2,84.2h-5c-0.5,0-0.9-0.4-0.9-0.9c0-0.5,0.4-0.9,0.9-0.9h5c0.5,0,0.9,0.4,0.9,0.9
			C32.1,83.8,31.7,84.2,31.2,84.2z"/>
	</g>
	<g class="st1">
		<path class="st3" d="M28.7,86.7c-0.5,0-0.9-0.4-0.9-0.9v-5c0-0.5,0.4-0.9,0.9-0.9c0.5,0,0.9,0.4,0.9,0.9v5
			C29.6,86.3,29.2,86.7,28.7,86.7z"/>
	</g>
	<g class="st1">
		<path class="st3" d="M93.4,17.5h-5c-0.5,0-0.9-0.4-0.9-0.9c0-0.5,0.4-0.9,0.9-0.9h5c0.5,0,0.9,0.4,0.9,0.9
			C94.3,17.1,93.9,17.5,93.4,17.5z"/>
	</g>
	<g class="st1">
		<path class="st3" d="M90.9,20c-0.5,0-0.9-0.4-0.9-0.9v-5c0-0.5,0.4-0.9,0.9-0.9c0.5,0,0.9,0.4,0.9,0.9v5
			C91.8,19.6,91.4,20,90.9,20z"/>
	</g>
	<g class="st1">
		<path class="st3" d="M57.4,30.2h-5c-0.5,0-0.9-0.4-0.9-0.9s0.4-0.9,0.9-0.9h5c0.5,0,0.9,0.4,0.9,0.9S57.9,30.2,57.4,30.2z"/>
	</g>
	<g class="st1">
		<path class="st3" d="M54.9,32.7c-0.5,0-0.9-0.4-0.9-0.9v-5c0-0.5,0.4-0.9,0.9-0.9c0.5,0,0.9,0.4,0.9,0.9v5
			C55.8,32.3,55.4,32.7,54.9,32.7z"/>
	</g>
	<g class="st1">
		<path class="st3" d="M76.4,39.5h-5c-0.5,0-0.9-0.4-0.9-0.9s0.4-0.9,0.9-0.9h5c0.5,0,0.9,0.4,0.9,0.9S76.9,39.5,76.4,39.5z"/>
	</g>
	<g class="st1">
		<path class="st3" d="M73.9,42.1c-0.5,0-0.9-0.4-0.9-0.9v-5c0-0.5,0.4-0.9,0.9-0.9c0.5,0,0.9,0.4,0.9,0.9v5
			C74.8,41.6,74.4,42.1,73.9,42.1z"/>
	</g>
</g>
<g class="st0">
	<g class="st1">
		<circle class="st2" cx="33" cy="26.7" r="18.1"/>
	</g>
	<g class="st1">
		<circle class="st2" cx="89.2" cy="68.1" r="15.5"/>
	</g>
	<g class="st1">
		
			<ellipse transform="matrix(0.2298 -0.9732 0.9732 0.2298 -52.4855 93.0881)" class="st2" cx="32.6" cy="79.7" rx="25.8" ry="25.8"/>
	</g>
	<g class="st1">
		<path class="st3" d="M94,77.8L94,77.8c-0.3,2.1-1.8,3.9-3.8,4.7l-16.2,6.2c-3.3,1.2-6.9-0.6-7.8-3.9l0,0c-0.7-2.5,0.7-5,3.1-5.8
			l3.2-1c9-1.9,14.3-5.3,17.7-5.3C93.4,72.6,94.6,75.3,94,77.8z"/>
	</g>
	<g class="st1">
		<path class="st5" d="M72,90c-1.1,0-2.1-0.2-3.1-0.7c-1.7-0.9-3-2.4-3.5-4.3c-0.8-3,0.8-6,3.8-7l3.2-1c4.7-1,8.4-2.4,11.3-3.5
			c2.7-1,4.9-1.8,6.6-1.9c1.6,0,2.9,0.6,3.8,1.7c1,1.2,1.3,3,0.9,4.7c-0.4,2.4-2.1,4.5-4.4,5.4l-16.2,6.2C73.6,89.9,72.8,90,72,90z
			 M90.3,73.6C90.3,73.6,90.3,73.6,90.3,73.6c-1.5,0-3.5,0.8-6,1.7c-3,1.1-6.7,2.5-11.5,3.6l-3.1,1c-1.9,0.6-3,2.6-2.5,4.6
			c0.4,1.4,1.3,2.4,2.5,3.1c1.3,0.6,2.7,0.7,4,0.2l16.2-6.2c1.7-0.6,2.9-2.1,3.2-3.9c0,0,0-0.1,0-0.1c0.3-1.2,0.1-2.3-0.5-3.1
			C92.1,73.9,91.3,73.6,90.3,73.6z"/>
	</g>
	<g class="st1">
		<path class="st3" d="M97.5,77.7c-2.5-2.1-9.4,4.3-27.3,7.7c2.4-0.9,3.2-2.2,3.3-3.5c0.4-5.9-4.8-5.7-4.8-5.7
			c-26.5,0.3-6.3-6-42.3-6.1v23.2c0,0,39.6,13.5,69.6-9.6C96.1,83.6,100.8,80.4,97.5,77.7z"/>
	</g>
	<g class="st1">
		<path class="st4" d="M97.5,77.7c-2.2-1.8-7.7,2.8-20.9,6.2c-2,0.5-4.1,1-6.5,1.5c1.1-0.4,1.9-1,2.4-1.5c-4.4-0.2-6.7-0.7-8.3-1.3
			c-11.6-4.5-24,2-26.9,13.3c11.1,1.9,28.9,2.9,45.9-4.6c4.4-1.9,8.6-4.4,12.8-7.5C96.1,83.6,100.8,80.4,97.5,77.7z"/>
	</g>
	<g class="st1">
		<rect x="16.1" y="70.1" class="st3" width="10.3" height="23.2"/>
	</g>
	<g class="st1">
		<path class="st4" d="M26.4,93.3h-5.2V80.4c0-2.9,2.3-5.2,5.2-5.2l0,0V93.3z"/>
	</g>
	<g class="st1">
		<ellipse transform="matrix(0.9239 -0.3827 0.3827 0.9239 -11.4826 28.2011)" class="st3" cx="65.1" cy="43" rx="28.4" ry="28.4"/>
	</g>
	<g class="st1">
		<path class="st4" d="M93.5,43c0-5.2-1.4-10-3.8-14.2c-4.2-2.4-9-3.8-14.2-3.8c-15.7,0-28.4,12.7-28.4,28.4c0,5.2,1.4,10,3.8,14.2
			c4.2,2.4,9,3.8,14.2,3.8C80.8,71.3,93.5,58.6,93.5,43z"/>
	</g>
	<g class="st1">
		<ellipse transform="matrix(0.2298 -0.9732 0.9732 0.2298 8.3647 96.497)" class="st3" cx="65.1" cy="43" rx="20.6" ry="20.6"/>
	</g>
	<g class="st1">
		<path class="st4" d="M85.8,43c0-3-0.7-5.9-1.8-8.5c-2.6-1.2-5.5-1.8-8.5-1.8c-11.4,0-20.6,9.2-20.6,20.6c0,3,0.7,5.9,1.8,8.5
			c2.6,1.2,5.5,1.8,8.5,1.8C76.5,63.6,85.8,54.4,85.8,43z"/>
	</g>
	<g class="st1">
		<g>
			<path class="st5" d="M70.2,85.4c2.3-0.4,4.5-0.9,6.5-1.5c-1.5,0-2.9,0-4-0.1C72.1,84.4,71.4,85,70.2,85.4z"/>
		</g>
		<g>
			<path class="st5" d="M53.2,98.1c-15.3,0-26.9-3.8-27.1-3.9c-0.4-0.1-0.7-0.5-0.7-0.9V70.1c0-0.3,0.1-0.5,0.3-0.7
				c0.2-0.2,0.5-0.2,0.7-0.3c19.5,0.1,22.8,2,25.8,3.7c2.4,1.4,4.5,2.6,16.5,2.4c0.1,0,2.5-0.1,4.2,1.6c1.2,1.2,1.7,2.9,1.5,5.1
				c0,0.5-0.2,1.1-0.5,1.7c7.3-1.7,12.5-3.8,16.1-5.3c4.2-1.7,6.5-2.7,8.1-1.3l0,0c1.3,1.1,1.5,2.2,1.5,3c-0.1,2.4-2.8,4.2-3.1,4.4
				C82.6,95.2,66.5,98.1,53.2,98.1z M27.4,92.5c5.3,1.6,40.9,11.2,68.1-9.7c0.6-0.4,2.2-1.7,2.2-2.9c0-0.2,0-0.7-0.8-1.4
				c-0.7-0.6-3,0.3-6.1,1.6c-4.3,1.8-10.8,4.4-20.4,6.3c-0.5,0.1-1-0.2-1.1-0.7c-0.1-0.5,0.1-1,0.6-1.2c1.7-0.6,2.6-1.5,2.7-2.7
				c0.1-1.6-0.2-2.8-1-3.6c-1.1-1.1-2.7-1.1-2.8-1c-12.6,0.1-14.9-1.2-17.6-2.7c-2.7-1.5-5.7-3.3-23.8-3.4V92.5z"/>
		</g>
		<g>
			<path class="st5" d="M61.2,87.4c-3.3,0-7-0.3-11.3-0.8c-0.5-0.1-0.9-0.6-0.8-1.1c0.1-0.5,0.6-0.9,1.1-0.8
				c11,1.5,16.8,0.7,19.7-0.2c0.5-0.2,1.1,0.1,1.2,0.6c0.2,0.5-0.1,1.1-0.6,1.2C68.1,87.1,65,87.4,61.2,87.4z"/>
		</g>
		<g>
			<path class="st5" d="M26.4,94.3H16.1c-0.5,0-1-0.4-1-1V70.1c0-0.5,0.4-1,1-1h10.3c0.5,0,1,0.4,1,1v23.2
				C27.4,93.8,27,94.3,26.4,94.3z M17.1,92.3h8.4V71h-8.4V92.3z"/>
		</g>
		<g>
			<circle class="st5" cx="21.3" cy="88.1" r="1.3"/>
		</g>
		<g>
			<path class="st5" d="M65.1,72.3C49,72.3,35.8,59.1,35.8,43c0-16.2,13.2-29.4,29.4-29.4S94.5,26.8,94.5,43
				C94.5,59.1,81.3,72.3,65.1,72.3z M65.1,15.5C50,15.5,37.7,27.8,37.7,43c0,15.1,12.3,27.4,27.4,27.4S92.6,58.1,92.6,43
				C92.6,27.8,80.3,15.5,65.1,15.5z"/>
		</g>
		<g>
			<path class="st5" d="M98.1,37.8c-0.5,0-0.9-0.3-1-0.8c-1.1-6.1-4-11.7-8.2-16.3c-0.4-0.4-0.3-1,0-1.4c0.4-0.4,1-0.3,1.4,0
				c4.5,4.8,7.5,10.8,8.7,17.3c0.1,0.5-0.3,1-0.8,1.1C98.3,37.8,98.2,37.8,98.1,37.8z"/>
		</g>
		<g>
			<path class="st5" d="M85.8,17.5c-0.2,0-0.4-0.1-0.6-0.2c-0.9-0.7-1.8-1.3-2.7-1.9c-0.5-0.3-0.6-0.9-0.3-1.3
				c0.3-0.5,0.9-0.6,1.3-0.3c1,0.6,1.9,1.3,2.8,2c0.4,0.3,0.5,0.9,0.2,1.4C86.4,17.4,86.1,17.5,85.8,17.5z"/>
		</g>
		<g>
			<path class="st5" d="M65.1,64.6c-11.9,0-21.6-9.7-21.6-21.6c0-11.9,9.7-21.6,21.6-21.6S86.8,31,86.8,43
				C86.8,54.9,77.1,64.6,65.1,64.6z M65.1,23.3c-10.8,0-19.7,8.8-19.7,19.7c0,10.8,8.8,19.7,19.7,19.7S84.8,53.8,84.8,43
				C84.8,32.1,76,23.3,65.1,23.3z"/>
		</g>
		<g>
			<path class="st5" d="M79.1,50.7c-0.1,0-0.3,0-0.4-0.1c-0.5-0.2-0.7-0.8-0.4-1.3c1-2,1.5-4.1,1.5-6.4c0-2.2-0.5-4.4-1.5-6.4
				c-0.2-0.5,0-1.1,0.4-1.3c0.5-0.2,1.1,0,1.3,0.4c1.1,2.3,1.7,4.7,1.7,7.2c0,2.5-0.6,4.9-1.7,7.2C79.8,50.5,79.4,50.7,79.1,50.7z"
				/>
		</g>
		<g>
			<path class="st5" d="M51.2,50.7c-0.4,0-0.7-0.2-0.9-0.5c-1.1-2.3-1.7-4.7-1.7-7.2c0-2.5,0.6-5,1.7-7.2c0.2-0.5,0.8-0.7,1.3-0.4
				c0.5,0.2,0.7,0.8,0.4,1.3c-1,2-1.5,4.1-1.5,6.4c0,2.2,0.5,4.4,1.5,6.4c0.2,0.5,0,1.1-0.4,1.3C51.5,50.7,51.4,50.7,51.2,50.7z"/>
		</g>
		<g>
			<path class="st5" d="M41.6,43c0,0.5-0.4,1-1,1c-0.5,0-1-0.4-1-1c0-0.5,0.4-1,1-1C41.2,42,41.6,42.4,41.6,43z"/>
		</g>
		<g>
			<path class="st5" d="M90.6,43c0,0.5-0.4,1-1,1c-0.5,0-1-0.4-1-1c0-0.5,0.4-1,1-1C90.2,42,90.6,42.4,90.6,43z"/>
		</g>
		<g>
			<path class="st5" d="M65.1,66.5c0.5,0,1,0.4,1,1s-0.4,1-1,1c-0.5,0-1-0.4-1-1S64.6,66.5,65.1,66.5z"/>
		</g>
		<g>
			<path class="st5" d="M65.1,17.5c0.5,0,1,0.4,1,1c0,0.5-0.4,1-1,1c-0.5,0-1-0.4-1-1C64.2,17.9,64.6,17.5,65.1,17.5z"/>
		</g>
		<g>
			<path class="st5" d="M81.8,59.6c0.4-0.4,1-0.4,1.4,0s0.4,1,0,1.4c-0.4,0.4-1,0.4-1.4,0C81.4,60.6,81.4,60,81.8,59.6z"/>
		</g>
		<g>
			<path class="st5" d="M47.1,24.9c0.4-0.4,1-0.4,1.4,0c0.4,0.4,0.4,1,0,1.4c-0.4,0.4-1,0.4-1.4,0S46.7,25.3,47.1,24.9z"/>
		</g>
		<g>
			<path class="st5" d="M81.8,26.3c-0.4-0.4-0.4-1,0-1.4c0.4-0.4,1-0.4,1.4,0c0.4,0.4,0.4,1,0,1.4S82.2,26.7,81.8,26.3z"/>
		</g>
		<g>
			<path class="st5" d="M47.1,61c-0.4-0.4-0.4-1,0-1.4s1-0.4,1.4,0c0.4,0.4,0.4,1,0,1.4C48.1,61.4,47.5,61.4,47.1,61z"/>
		</g>
		<g>
			<path class="st5" d="M86.9,52c0.2-0.5,0.8-0.7,1.3-0.5c0.5,0.2,0.7,0.8,0.5,1.3c-0.2,0.5-0.8,0.7-1.3,0.5
				C86.9,53,86.7,52.5,86.9,52z"/>
		</g>
		<g>
			<path class="st5" d="M41.6,33.2c0.2-0.5,0.8-0.7,1.3-0.5c0.5,0.2,0.7,0.8,0.5,1.3c-0.2,0.5-0.8,0.7-1.3,0.5
				C41.6,34.3,41.4,33.7,41.6,33.2z"/>
		</g>
		<g>
			<path class="st5" d="M74.2,21.2c-0.5-0.2-0.7-0.8-0.5-1.3c0.2-0.5,0.8-0.7,1.3-0.5c0.5,0.2,0.7,0.8,0.5,1.3
				C75.2,21.2,74.7,21.4,74.2,21.2z"/>
		</g>
		<g>
			<path class="st5" d="M55.4,66.5c-0.5-0.2-0.7-0.8-0.5-1.3c0.2-0.5,0.8-0.7,1.3-0.5c0.5,0.2,0.7,0.8,0.5,1.3
				C56.5,66.5,55.9,66.7,55.4,66.5z"/>
		</g>
		<g>
			<path class="st5" d="M86.9,34c-0.2-0.5,0-1.1,0.5-1.3c0.5-0.2,1.1,0,1.3,0.5c0.2,0.5,0,1.1-0.5,1.3C87.7,34.7,87.1,34.4,86.9,34z
				"/>
		</g>
		<g>
			<path class="st5" d="M41.6,52.7c-0.2-0.5,0-1.1,0.5-1.3c0.5-0.2,1.1,0,1.3,0.5c0.2,0.5,0,1.1-0.5,1.3
				C42.4,53.4,41.8,53.2,41.6,52.7z"/>
		</g>
		<g>
			<path class="st5" d="M56.1,21.2c-0.5,0.2-1.1,0-1.3-0.5c-0.2-0.5,0-1.1,0.5-1.3c0.5-0.2,1.1,0,1.3,0.5
				C56.9,20.4,56.6,21,56.1,21.2z"/>
		</g>
		<g>
			<path class="st5" d="M74.9,66.5c-0.5,0.2-1.1,0-1.3-0.5c-0.2-0.5,0-1.1,0.5-1.3c0.5-0.2,1.1,0,1.3,0.5
				C75.6,65.7,75.4,66.3,74.9,66.5z"/>
		</g>
		<g>
			<path class="st5" d="M65.2,56.2c-3.6,0-6.8-1.8-8.1-4.5c-0.2-0.5,0-1.1,0.5-1.3c0.5-0.2,1.1,0,1.3,0.5c1,2,3.5,3.4,6.3,3.4
				c3.7,0,6.8-2.3,6.8-5.2c0-3.3-2.4-5.2-6.8-5.2c-5.4,0-8.7-2.7-8.7-7.1c0-3.9,3.9-7.1,8.7-7.1c3.6,0,6.8,1.8,8.1,4.5
				c0.2,0.5,0,1.1-0.5,1.3c-0.5,0.2-1.1,0-1.3-0.5c-1-2-3.5-3.4-6.3-3.4c-3.7,0-6.8,2.3-6.8,5.2c0,3.3,2.4,5.2,6.8,5.2
				c5.5,0,8.7,2.7,8.7,7.1C73.9,53,70,56.2,65.2,56.2z"/>
		</g>
		<g>
			<path class="st5" d="M65.1,60.1c-0.5,0-1-0.4-1-1V26.8c0-0.5,0.4-1,1-1c0.5,0,1,0.4,1,1v32.3C66.1,59.6,65.7,60.1,65.1,60.1z"/>
		</g>
	</g>
	<g class="st1">
		<circle class="st3" cx="31.6" cy="59.7" r="2.6"/>
	</g>
	<g class="st1">
		<path class="st5" d="M31.6,63.3c-2,0-3.5-1.6-3.5-3.5c0-2,1.6-3.5,3.5-3.5s3.5,1.6,3.5,3.5C35.1,61.7,33.6,63.3,31.6,63.3z
			 M31.6,58.1c-0.9,0-1.6,0.7-1.6,1.6c0,0.9,0.7,1.6,1.6,1.6c0.9,0,1.6-0.7,1.6-1.6C33.2,58.8,32.5,58.1,31.6,58.1z"/>
	</g>
	<g class="st1">
		<circle class="st3" cx="96.1" cy="64.9" r="2.6"/>
	</g>
	<g class="st1">
		<path class="st5" d="M96.1,68.4c-2,0-3.5-1.6-3.5-3.5c0-2,1.6-3.5,3.5-3.5c2,0,3.5,1.6,3.5,3.5C99.7,66.9,98.1,68.4,96.1,68.4z
			 M96.1,63.3c-0.9,0-1.6,0.7-1.6,1.6s0.7,1.6,1.6,1.6c0.9,0,1.6-0.7,1.6-1.6S97,63.3,96.1,63.3z"/>
	</g>
	<g class="st1">
		<circle class="st3" cx="18.7" cy="49.4" r="2.6"/>
	</g>
	<g class="st1">
		<path class="st5" d="M18.7,53c-2,0-3.5-1.6-3.5-3.5c0-2,1.6-3.5,3.5-3.5s3.5,1.6,3.5,3.5C22.2,51.4,20.7,53,18.7,53z M18.7,47.8
			c-0.9,0-1.6,0.7-1.6,1.6s0.7,1.6,1.6,1.6c0.9,0,1.6-0.7,1.6-1.6S19.6,47.8,18.7,47.8z"/>
	</g>
	<g class="st1">
		<circle class="st3" cx="29" cy="35.2" r="2.6"/>
	</g>
	<g class="st1">
		<path class="st5" d="M29,38.8c-2,0-3.5-1.6-3.5-3.5c0-2,1.6-3.5,3.5-3.5s3.5,1.6,3.5,3.5C32.6,37.2,31,38.8,29,38.8z M29,33.6
			c-0.9,0-1.6,0.7-1.6,1.6s0.7,1.6,1.6,1.6c0.9,0,1.6-0.7,1.6-1.6S29.9,33.6,29,33.6z"/>
	</g>
	<g class="st1">
		<circle class="st3" cx="22.6" cy="21" r="2.6"/>
	</g>
	<g class="st1">
		<path class="st5" d="M22.6,24.6c-2,0-3.5-1.6-3.5-3.5c0-2,1.6-3.5,3.5-3.5c2,0,3.5,1.6,3.5,3.5C26.1,23,24.5,24.6,22.6,24.6z
			 M22.6,19.4c-0.9,0-1.6,0.7-1.6,1.6c0,0.9,0.7,1.6,1.6,1.6c0.9,0,1.6-0.7,1.6-1.6C24.2,20.1,23.5,19.4,22.6,19.4z"/>
	</g>
	<g class="st1">
		<circle class="st3" cx="39.3" cy="17.2" r="2.6"/>
	</g>
	<g class="st1">
		<path class="st5" d="M39.3,20.7c-2,0-3.5-1.6-3.5-3.5c0-2,1.6-3.5,3.5-3.5c2,0,3.5,1.6,3.5,3.5C42.9,19.1,41.3,20.7,39.3,20.7z
			 M39.3,15.5c-0.9,0-1.6,0.7-1.6,1.6c0,0.9,0.7,1.6,1.6,1.6c0.9,0,1.6-0.7,1.6-1.6C41,16.3,40.2,15.5,39.3,15.5z"/>
	</g>
</g>
<g class="st0">
	<g class="st1">
		<ellipse transform="matrix(0.7071 -0.7071 0.7071 0.7071 -3.1774 45.34)" class="st2" cx="53.1" cy="26.5" rx="18.1" ry="18.1"/>
	</g>
	<g class="st1">
		<circle class="st2" cx="90" cy="63.6" r="15.5"/>
	</g>
	<g class="st1">
		
			<ellipse transform="matrix(0.1602 -0.9871 0.9871 0.1602 -53.3828 99.4604)" class="st2" cx="31.8" cy="81.1" rx="25.9" ry="25.9"/>
	</g>
	<g class="st1">
		<polygon class="st3" points="40.9,51.7 40.9,100.8 60.3,90.5 60.3,51.7 		"/>
	</g>
	<g class="st1">
		<polygon class="st3" points="60.3,51.7 60.3,90.5 79.7,100.8 79.7,51.7 		"/>
	</g>
	<g class="st1">
		<polygon class="st4" points="60.3,65.9 48.7,65.9 48.7,96.7 60.3,90.5 		"/>
	</g>
	<g class="st1">
		<polygon class="st4" points="79.7,65.9 68.1,65.9 68.1,94.6 79.7,100.8 		"/>
	</g>
	<g class="st1">
		<path class="st5" d="M40.9,101.8c-0.2,0-0.3,0-0.5-0.1c-0.3-0.2-0.5-0.5-0.5-0.8V51.7c0-0.5,0.4-1,1-1h19.4c0.5,0,1,0.4,1,1v38.8
			c0,0.4-0.2,0.7-0.5,0.9l-19.4,10.3C41.2,101.7,41.1,101.8,40.9,101.8z M41.9,52.6v46.6l17.5-9.3V52.6H41.9z"/>
	</g>
	<g class="st1">
		<path class="st5" d="M79.7,101.8c-0.2,0-0.3,0-0.5-0.1L59.8,91.3c-0.3-0.2-0.5-0.5-0.5-0.9V51.7c0-0.5,0.4-1,1-1h19.4
			c0.5,0,1,0.4,1,1v49.1c0,0.3-0.2,0.7-0.5,0.8C80,101.7,79.9,101.8,79.7,101.8z M61.3,89.9l17.5,9.3V52.6H61.3V89.9z"/>
	</g>
	<g class="st1">
		<path class="st3" d="M63.4,19.7L63.4,19.7c1.2,1.6,3.5,2.1,5.2,1l0,0c2.3-1.4,5.2-0.2,5.8,2.4l0,0c0.5,2,2.4,3.3,4.4,2.9l0,0
			c2.6-0.4,4.9,1.8,4.5,4.5l0,0c-0.3,2,1,3.9,2.9,4.4l0,0c2.6,0.6,3.8,3.6,2.4,5.8l0,0c-1.1,1.7-0.6,4,1,5.2l0,0
			c2.1,1.6,2.1,4.8,0,6.3l0,0c-1.6,1.2-2.1,3.5-1,5.2l0,0c1.4,2.3,0.2,5.2-2.4,5.8l0,0c-2,0.5-3.3,2.4-2.9,4.4l0,0
			c0.4,2.6-1.8,4.9-4.5,4.5l0,0c-2-0.3-3.9,1-4.4,2.9l0,0c-0.6,2.6-3.6,3.8-5.8,2.4l0,0c-1.7-1.1-4-0.6-5.2,1l0,0
			c-1.6,2.1-4.8,2.1-6.3,0l0,0c-1.2-1.6-3.5-2.1-5.2-1l0,0c-2.3,1.4-5.2,0.2-5.8-2.4l0,0c-0.5-2-2.4-3.3-4.4-2.9l0,0
			c-2.6,0.4-4.9-1.8-4.5-4.5l0,0c0.3-2-1-3.9-2.9-4.4l0,0c-2.6-0.6-3.8-3.6-2.4-5.8l0,0c1.1-1.7,0.6-4-1-5.2l0,0
			c-2.1-1.6-2.1-4.8,0-6.3l0,0c1.6-1.2,2.1-3.5,1-5.2l0,0c-1.4-2.3-0.2-5.2,2.4-5.8l0,0c2-0.5,3.3-2.4,2.9-4.4l0,0
			c-0.4-2.6,1.8-4.9,4.5-4.5l0,0c2,0.3,3.9-1,4.4-2.9l0,0c0.6-2.6,3.6-3.8,5.8-2.4l0,0c1.7,1.1,4,0.6,5.2-1l0,0
			C58.7,17.5,61.9,17.5,63.4,19.7z"/>
	</g>
	<g class="st1">
		<path class="st4" d="M46.1,75.1c0.6,2.6,3.6,3.8,5.8,2.4c1.7-1.1,4-0.6,5.2,1c1.6,2.1,4.8,2.1,6.3,0l0,0c1.2-1.6,3.5-2.1,5.2-1
			c2.3,1.4,5.2,0.2,5.8-2.4c0.5-2,2.4-3.3,4.4-2.9c2.6,0.4,4.9-1.8,4.5-4.5c-0.3-2,1-3.9,2.9-4.4c2.6-0.6,3.8-3.6,2.4-5.8
			c-1.1-1.7-0.6-4,1-5.2l0,0c2.1-1.6,2.1-4.8,0-6.3c-1.6-1.2-2.1-3.5-1-5.2c1.4-2.3,0.2-5.2-2.4-5.8c-2-0.5-3.3-2.4-2.9-4.4
			c0-0.1,0-0.1,0-0.1c-3.9-1.7-8.1-2.6-12.6-2.6C53.2,27.8,39,42,39,59.5c0,4.5,0.9,8.7,2.6,12.6c0,0,0.1,0,0.1,0
			C43.7,71.8,45.6,73.1,46.1,75.1z"/>
	</g>
	<g class="st1">
		
			<ellipse transform="matrix(0.9871 -0.1602 0.1602 0.9871 -7.0851 10.2924)" class="st3" cx="60.3" cy="49.1" rx="23.3" ry="23.3"/>
	</g>
	<g class="st1">
		<path class="st4" d="M83.6,49.1c0-4.1-1.1-7.9-2.9-11.3c-3.3-1.9-7.2-2.9-11.3-2.9c-12.9,0-23.3,10.4-23.3,23.3
			c0,4.1,1.1,7.9,2.9,11.3c3.3,1.9,7.2,2.9,11.3,2.9C73.2,72.4,83.6,61.9,83.6,49.1z"/>
	</g>
	<g class="st1">
		<path class="st5" d="M60.3,73.3c-13.4,0-24.2-10.9-24.2-24.2c0-13.4,10.9-24.2,24.2-24.2s24.2,10.9,24.2,24.2
			C84.5,62.5,73.7,73.3,60.3,73.3z M60.3,26.8C48,26.8,38,36.8,38,49.1s10,22.3,22.3,22.3s22.3-10,22.3-22.3S72.6,26.8,60.3,26.8z"
			/>
	</g>
	<g class="st1">
		<path class="st3" d="M73.2,55.8l-6-1.6h-7v18.1c6.6,0,12.6-2.8,16.8-7.2v-4.3C77.1,58.5,75.5,56.4,73.2,55.8z"/>
	</g>
	<g class="st1">
		<path class="st3" d="M53.3,54.2l-6,1.6c-2.3,0.6-3.9,2.7-3.9,5v4.3c4.2,4.4,10.2,7.2,16.8,7.2V54.2H53.3z"/>
	</g>
	<g class="st1">
		<path class="st4" d="M73.2,55.8l-1.6-0.4c0.2,0.5,0.2,1,0.2,1.5v3.3c0,0.7-0.3,1.4-0.8,1.8c-3,2.8-6.7,4.9-10.9,5.8v4.5
			c6.6,0,12.6-2.8,16.8-7.2v-4.3C77.1,58.5,75.5,56.4,73.2,55.8z"/>
	</g>
	<g class="st1">
		<path class="st4" d="M60.3,54.2h-5.2v12.9c0,0.7-0.6,1.3-1.3,1.3c-3.5-0.2-6.9-1.2-9.8-2.8c4.2,4.2,10,6.7,16.3,6.7V54.2z"/>
	</g>
	<g class="st1">
		<path class="st5" d="M60.3,73.3c-0.5,0-1-0.4-1-1V54.2c0-0.5,0.4-1,1-1h7c0.1,0,0.2,0,0.2,0l6,1.6c2.7,0.7,4.6,3.2,4.6,5.9v4.3
			c0,0.2-0.1,0.5-0.3,0.7C73.2,70.7,67,73.3,60.3,73.3z M61.3,55.2v16.2c5.6-0.2,10.9-2.6,14.9-6.6v-4c0-1.9-1.3-3.6-3.1-4.1l0,0
			l-5.9-1.5H61.3z M77.1,65.2L77.1,65.2L77.1,65.2z"/>
	</g>
	<g class="st1">
		<path class="st5" d="M60.3,73.3c-6.7,0-12.9-2.7-17.5-7.5c-0.2-0.2-0.3-0.4-0.3-0.7v-4.3c0-2.8,1.9-5.2,4.6-5.9l6-1.6
			c0.1,0,0.2,0,0.2,0h7c0.5,0,1,0.4,1,1v18.1C61.3,72.9,60.8,73.3,60.3,73.3z M44.5,64.8c4,4,9.2,6.4,14.9,6.6V55.2h-5.9l-5.9,1.5
			c-1.8,0.5-3.1,2.2-3.1,4.1V64.8z"/>
	</g>
	<g class="st1">
		<circle class="st3" cx="90" cy="87.9" r="5.2"/>
	</g>
	<g class="st1">
		<path class="st5" d="M90,94c-0.5,0-1-0.4-1-1c0-2.3-1.9-4.2-4.2-4.2c-0.5,0-1-0.4-1-1s0.4-1,1-1c2.3,0,4.2-1.9,4.2-4.2
			c0-0.5,0.4-1,1-1s1,0.4,1,1c0,2.3,1.9,4.2,4.2,4.2c0.5,0,1,0.4,1,1c0,0.5-0.4,1-1,1c-2.3,0-4.2,1.9-4.2,4.2C91,93.6,90.6,94,90,94
			z M88.2,87.9c0.7,0.5,1.4,1.1,1.9,1.9c0.5-0.7,1.1-1.4,1.9-1.9c-0.7-0.5-1.4-1.1-1.9-1.9C89.6,86.8,88.9,87.4,88.2,87.9z"/>
	</g>
	<g class="st1">
		<path class="st3" d="M91.3,65.9c2.9,0,5.2,2.3,5.2,5.2c0-2.9,2.3-5.2,5.2-5.2c-2.9,0-5.2-2.3-5.2-5.2
			C96.5,63.6,94.2,65.9,91.3,65.9z"/>
	</g>
	<g class="st1">
		<path class="st5" d="M96.5,72.1c-0.5,0-1-0.4-1-1c0-2.3-1.9-4.2-4.2-4.2c-0.5,0-1-0.4-1-1c0-0.5,0.4-1,1-1c2.3,0,4.2-1.9,4.2-4.2
			c0-0.5,0.4-1,1-1c0.5,0,1,0.4,1,1c0,2.3,1.9,4.2,4.2,4.2c0.5,0,1,0.4,1,1c0,0.5-0.4,1-1,1c-2.3,0-4.2,1.9-4.2,4.2
			C97.5,71.6,97,72.1,96.5,72.1z M94.6,65.9c0.7,0.5,1.4,1.1,1.9,1.9c0.5-0.7,1.1-1.4,1.9-1.9c-0.7-0.5-1.4-1.1-1.9-1.9
			C96,64.8,95.4,65.4,94.6,65.9z"/>
	</g>
	<g class="st1">
		<circle class="st3" cx="90" cy="23.2" r="5.2"/>
	</g>
	<g class="st1">
		<path class="st5" d="M90,29.4c-0.5,0-1-0.4-1-1c0-2.3-1.9-4.2-4.2-4.2c-0.5,0-1-0.4-1-1c0-0.5,0.4-1,1-1c2.3,0,4.2-1.9,4.2-4.2
			c0-0.5,0.4-1,1-1s1,0.4,1,1c0,2.3,1.9,4.2,4.2,4.2c0.5,0,1,0.4,1,1c0,0.5-0.4,1-1,1c-2.3,0-4.2,1.9-4.2,4.2
			C91,28.9,90.6,29.4,90,29.4z M88.2,23.2c0.7,0.5,1.4,1.1,1.9,1.9c0.5-0.7,1.1-1.4,1.9-1.9c-0.7-0.5-1.4-1.1-1.9-1.9
			C89.6,22.1,88.9,22.7,88.2,23.2z"/>
	</g>
	<g class="st1">
		<path class="st3" d="M18.9,65.9c2.9,0,5.2,2.3,5.2,5.2c0-2.9,2.3-5.2,5.2-5.2c-2.9,0-5.2-2.3-5.2-5.2
			C24.1,63.6,21.8,65.9,18.9,65.9z"/>
	</g>
	<g class="st1">
		<path class="st5" d="M24.1,72.1c-0.5,0-1-0.4-1-1c0-2.3-1.9-4.2-4.2-4.2c-0.5,0-1-0.4-1-1c0-0.5,0.4-1,1-1c2.3,0,4.2-1.9,4.2-4.2
			c0-0.5,0.4-1,1-1c0.5,0,1,0.4,1,1c0,2.3,1.9,4.2,4.2,4.2c0.5,0,1,0.4,1,1c0,0.5-0.4,1-1,1c-2.3,0-4.2,1.9-4.2,4.2
			C25.1,71.6,24.6,72.1,24.1,72.1z M22.2,65.9c0.7,0.5,1.4,1.1,1.9,1.9c0.5-0.7,1.1-1.4,1.9-1.9c-0.7-0.5-1.4-1.1-1.9-1.9
			C23.6,64.8,23,65.4,22.2,65.9z"/>
	</g>
	<g class="st1">
		<circle class="st3" cx="26.7" cy="29.7" r="5.2"/>
	</g>
	<g class="st1">
		<path class="st5" d="M26.7,35.8c-0.5,0-1-0.4-1-1c0-2.3-1.9-4.2-4.2-4.2c-0.5,0-1-0.4-1-1c0-0.5,0.4-1,1-1c2.3,0,4.2-1.9,4.2-4.2
			c0-0.5,0.4-1,1-1c0.5,0,1,0.4,1,1c0,2.3,1.9,4.2,4.2,4.2c0.5,0,1,0.4,1,1c0,0.5-0.4,1-1,1c-2.3,0-4.2,1.9-4.2,4.2
			C27.6,35.4,27.2,35.8,26.7,35.8z M24.8,29.7c0.7,0.5,1.4,1.1,1.9,1.9c0.5-0.7,1.1-1.4,1.9-1.9c-0.7-0.5-1.4-1.1-1.9-1.9
			C26.2,28.6,25.6,29.2,24.8,29.7z"/>
	</g>
	<g class="st1">
		<circle class="st3" cx="30.6" cy="95.7" r="5.2"/>
	</g>
	<g class="st1">
		<path class="st5" d="M30.6,101.8c-0.5,0-1-0.4-1-1c0-2.3-1.9-4.2-4.2-4.2c-0.5,0-1-0.4-1-1c0-0.5,0.4-1,1-1c2.3,0,4.2-1.9,4.2-4.2
			c0-0.5,0.4-1,1-1c0.5,0,1,0.4,1,1c0,2.3,1.9,4.2,4.2,4.2c0.5,0,1,0.4,1,1c0,0.5-0.4,1-1,1c-2.3,0-4.2,1.9-4.2,4.2
			C31.5,101.4,31.1,101.8,30.6,101.8z M28.7,95.7c0.7,0.5,1.4,1.1,1.9,1.9c0.5-0.7,1.1-1.4,1.9-1.9c-0.7-0.5-1.4-1.1-1.9-1.9
			C30.1,94.5,29.4,95.2,28.7,95.7z"/>
	</g>
	<g class="st1">
		<path class="st3" d="M60.3,60.8c0,0,6.9-3.7,7-6.5c-1.5-0.8-2.6-2.1-2.9-3.8c0-0.2-0.1-1.8-0.1-2l-8,0c0,0.3-0.1,1.8-0.1,2.1
			c-0.3,1.6-1.4,2.9-2.8,3.6C53.4,57,60.3,60.8,60.3,60.8z"/>
	</g>
	<g class="st1">
		<path class="st6" d="M64.4,50.5c0-0.2-0.1-1.8-0.1-2l-4.5,0c0,0.2,0.5,1.7,0.5,1.9c0.2,1.4,1.4,3.2,2.4,4.1
			c0.3,0.3,0.5,0.8,0.5,1.3c-0.3,2.2-2.5,4.3-3.1,4.9c0.2,0.1,0.3,0.1,0.3,0.1s6.9-3.7,7-6.5C65.8,53.5,64.7,52.1,64.4,50.5z"/>
	</g>
	<g class="st1">
		<path class="st5" d="M60.3,61.8c-0.2,0-0.3,0-0.5-0.1c-1.2-0.7-7.4-4.2-7.5-7.4c0-0.4,0.2-0.7,0.5-0.9c1.2-0.6,2.1-1.7,2.3-3
			c0-0.2,0-0.7,0.1-1.2c0-0.4,0-0.7,0-0.8c0.1-0.5,0.5-0.9,1-0.9l8,0c0,0,0,0,0,0c0.5,0,0.9,0.4,1,0.9c0,0.1,0,0.4,0,0.8
			c0,0.4,0,1,0.1,1.1c0.2,1.3,1.1,2.4,2.4,3.1c0.3,0.2,0.5,0.5,0.5,0.9c-0.1,3.2-6.2,6.7-7.5,7.4C60.6,61.7,60.5,61.8,60.3,61.8z
			 M54.4,54.7c0.6,1.5,3.6,3.6,5.9,4.9c2.3-1.3,5.2-3.5,5.9-5c-1.4-0.9-2.4-2.4-2.7-4.1c0-0.2,0-0.5-0.1-1.2l-6.1,0
			c0,0.7-0.1,1.1-0.1,1.3C56.8,52.4,55.8,53.8,54.4,54.7z"/>
	</g>
	<g class="st1">
		<path class="st3" d="M68.4,41.6c0-5.4-3.6-8.4-8.1-8.4c-4.5,0-8.1,3-8.1,8.4c0,5.4,3.6,9.7,8.1,9.7C64.8,51.3,68.4,47,68.4,41.6z"
			/>
	</g>
	<g class="st1">
		<path class="st6" d="M62.2,33.4c0.6,1.2,1,2.6,1,4.3c0,5.4-3.6,9.7-8.1,9.7c-0.5,0-0.9-0.1-1.4-0.2c1.5,2.4,3.9,4,6.5,4
			c4.5,0,8.1-4.3,8.1-9.7C68.4,37.1,65.8,34.2,62.2,33.4z"/>
	</g>
	<g class="st1">
		<path class="st3" d="M60.3,39.6c-3.2-1.5-5.7-1.7-7.5-1.4c-0.4,1-0.6,2.1-0.6,3.4c0,5.4,3.6,9.7,8.1,9.7c4.5,0,8.1-4.3,8.1-9.7
			c0-0.7-0.1-1.3-0.2-1.9C66.1,40.6,63.3,41,60.3,39.6z"/>
	</g>
	<g class="st1">
		<path class="st6" d="M68.2,39.8c-0.8,0.3-1.6,0.5-2.5,0.7c-0.6,4.7-3.9,8.3-8,8.3c-1.4,0-2.6-0.4-3.8-1.1c1.5,2.3,3.8,3.7,6.3,3.7
			c4.5,0,8.1-4.3,8.1-9.7C68.4,41,68.3,40.3,68.2,39.8z"/>
	</g>
	<g class="st1">
		<path class="st5" d="M60.3,52.3c-5,0-9.1-4.8-9.1-10.7c0-1.3,0.2-2.6,0.6-3.7c0.1-0.3,0.4-0.6,0.8-0.6c2.4-0.4,5.1,0.1,8.1,1.5
			c2.3,1,4.7,1.1,7.2,0.1c0.3-0.1,0.6-0.1,0.8,0.1c0.3,0.1,0.4,0.4,0.5,0.7c0.1,0.7,0.2,1.3,0.2,2C69.3,47.5,65.3,52.3,60.3,52.3z
			 M53.5,39.1c-0.2,0.8-0.3,1.6-0.3,2.5c0,4.8,3.2,8.7,7.1,8.7s7.1-3.9,7.1-8.7c0-0.2,0-0.4,0-0.6c-2.6,0.7-5.1,0.6-7.5-0.5l0,0
			C57.5,39.4,55.4,39,53.5,39.1z"/>
	</g>
	<g class="st1">
		<path class="st5" d="M60.3,52.3c-5,0-9.1-4.8-9.1-10.7c0-5.5,3.7-9.4,9.1-9.4s9.1,3.9,9.1,9.4C69.3,47.5,65.3,52.3,60.3,52.3z
			 M60.3,34.2c-4.3,0-7.1,3-7.1,7.4c0,4.8,3.2,8.7,7.1,8.7s7.1-3.9,7.1-8.7C67.4,37.2,64.6,34.2,60.3,34.2z"/>
	</g>
	<g class="st1">
		<path class="st5" d="M60.3,81.1c-1.6,0-3-0.7-3.9-2c-0.9-1.2-2.6-1.6-3.9-0.8c-1.3,0.8-3,1-4.4,0.4c-1.5-0.6-2.5-1.8-2.9-3.4
			c-0.4-1.5-1.8-2.4-3.3-2.2c-1.6,0.3-3.1-0.2-4.2-1.4c-1.1-1.1-1.6-2.6-1.4-4.2c0.2-1.5-0.7-3-2.2-3.3c-1.5-0.4-2.8-1.4-3.4-2.9
			c-0.6-1.5-0.5-3.1,0.3-4.4c0.8-1.3,0.5-3-0.8-3.9c-1.3-0.9-2-2.4-2-3.9c0-1.6,0.7-3,2-3.9c1.2-0.9,1.6-2.6,0.8-3.9
			c-0.8-1.3-1-3-0.3-4.4c0.6-1.5,1.8-2.5,3.4-2.9c1.5-0.4,2.4-1.8,2.2-3.3c-0.2-1.6,0.2-3.1,1.4-4.2c1.1-1.1,2.6-1.6,4.2-1.4
			c1.5,0.2,3-0.7,3.3-2.2c0.4-1.5,1.4-2.8,2.9-3.4c1.5-0.6,3.1-0.5,4.4,0.4c1.3,0.8,3,0.5,3.9-0.8c0.9-1.3,2.4-2,3.9-2c0,0,0,0,0,0
			c1.6,0,3,0.7,3.9,2c0.9,1.2,2.6,1.6,3.9,0.8c1.3-0.8,3-1,4.4-0.4c1.5,0.6,2.5,1.8,2.9,3.4c0.4,1.5,1.8,2.4,3.3,2.2
			c1.6-0.3,3.1,0.2,4.2,1.4c1.1,1.1,1.6,2.6,1.4,4.2c-0.2,1.5,0.7,3,2.2,3.3c1.5,0.4,2.8,1.4,3.4,2.9c0.6,1.5,0.5,3.1-0.3,4.4
			c-0.8,1.3-0.5,3,0.8,3.9c1.3,0.9,2,2.4,2,3.9c0,1.6-0.7,3-2,3.9c-1.2,0.9-1.6,2.6-0.8,3.9c0.8,1.3,1,2.9,0.3,4.4
			c-0.6,1.5-1.8,2.5-3.4,2.9C85,64.6,84,66,84.3,67.5c0.2,1.6-0.2,3.1-1.4,4.2c-1.1,1.1-2.6,1.6-4.2,1.4c-1.5-0.2-3,0.7-3.3,2.2
			c-0.4,1.5-1.4,2.8-2.9,3.4c-1.5,0.6-3.1,0.5-4.4-0.3c-1.3-0.8-3-0.5-3.9,0.8C63.3,80.4,61.9,81.1,60.3,81.1
			C60.3,81.1,60.3,81.1,60.3,81.1z M54,75.9c1.5,0,3,0.7,4,2c0.6,0.8,1.4,1.2,2.4,1.2l0,0c0.9,0,1.8-0.4,2.4-1.2
			c1.5-2,4.3-2.6,6.5-1.3c0.8,0.5,1.8,0.6,2.7,0.2c0.9-0.4,1.5-1.1,1.7-2c0.6-2.5,3-4.1,5.5-3.7c0.9,0.2,1.9-0.1,2.5-0.8
			c0.7-0.7,1-1.6,0.8-2.5c-0.4-2.5,1.2-4.9,3.7-5.5c0.9-0.2,1.7-0.8,2-1.7c0.4-0.9,0.3-1.8-0.2-2.7c-1.3-2.2-0.8-5,1.3-6.5
			c0.8-0.6,1.2-1.4,1.2-2.4c0-0.9-0.4-1.8-1.2-2.4c-2-1.5-2.6-4.3-1.3-6.5c0.5-0.8,0.6-1.8,0.2-2.7c-0.4-0.9-1.1-1.5-2-1.7
			c-2.5-0.6-4.1-3-3.7-5.5c0.1-0.9-0.2-1.9-0.8-2.5c-0.7-0.7-1.6-1-2.5-0.8c-2.5,0.4-4.9-1.2-5.5-3.7c-0.2-0.9-0.8-1.7-1.7-2
			C70.9,21,70,21,69.1,21.5c-2.2,1.3-5,0.8-6.5-1.3l0,0c-0.6-0.8-1.4-1.2-2.4-1.2l0,0c-0.9,0-1.8,0.4-2.4,1.2
			c-1.5,2-4.3,2.6-6.5,1.3c-0.8-0.5-1.8-0.6-2.7-0.2c-0.9,0.4-1.5,1.1-1.7,2c-0.6,2.5-3,4.1-5.5,3.7c-0.9-0.1-1.9,0.1-2.5,0.8
			c-0.7,0.7-1,1.6-0.8,2.5c0.4,2.5-1.2,4.9-3.7,5.5c-0.9,0.2-1.7,0.8-2,1.7c-0.4,0.9-0.3,1.8,0.2,2.7c1.3,2.2,0.8,5-1.3,6.5
			c-0.8,0.6-1.2,1.4-1.2,2.4c0,0.9,0.4,1.8,1.2,2.4c2,1.5,2.6,4.3,1.3,6.5c-0.5,0.8-0.6,1.8-0.2,2.7c0.4,0.9,1.1,1.5,2,1.7
			c2.5,0.6,4.1,3,3.7,5.5c-0.1,0.9,0.2,1.9,0.8,2.5c0.7,0.7,1.6,1,2.5,0.8c2.5-0.4,4.9,1.2,5.5,3.7c0.2,0.9,0.8,1.7,1.7,2
			c0.9,0.4,1.8,0.3,2.7-0.2C52.2,76.2,53.1,75.9,54,75.9z"/>
	</g>
</g>
<g class="st0">
	<g class="st1">
		<circle class="st2" cx="41.1" cy="87.2" r="17.3"/>
	</g>
	<g class="st1">
		<circle class="st2" cx="94.1" cy="57.2" r="14.8"/>
	</g>
	<g class="st1">
		
			<ellipse transform="matrix(0.9239 -0.3827 0.3827 0.9239 -11.5476 13.1254)" class="st2" cx="27.2" cy="35.6" rx="24.7" ry="24.7"/>
	</g>
	<g class="st1">
		<path class="st3" d="M96.7,93.8V18.7c0-1.1-0.9-2-2-2H81.4c-1.1,0-2,0.9-2,2v75.1c0,1.1,0.9,2,2,2h13.3
			C95.8,95.8,96.7,94.9,96.7,93.8z"/>
	</g>
	<g class="st1">
		<path class="st4" d="M96.7,93.8V34h-7.9c-1.1,0-2,0.9-2,2v59.8h7.9C95.8,95.8,96.7,95,96.7,93.8z"/>
	</g>
	<g class="st1">
		<path class="st5" d="M94.3,96.8H81.9c-1.9,0-3.4-1.5-3.4-3.4V19.2c0-1.9,1.5-3.4,3.4-3.4h12.4c1.9,0,3.4,1.5,3.4,3.4v74.2
			C97.7,95.2,96.1,96.8,94.3,96.8z M81.9,17.7c-0.9,0-1.5,0.7-1.5,1.5v74.2c0,0.9,0.7,1.5,1.5,1.5h12.4c0.9,0,1.5-0.7,1.5-1.5V19.2
			c0-0.9-0.7-1.5-1.5-1.5H81.9z"/>
	</g>
	<g class="st1">
		<path class="st5" d="M96.7,90.6h-4.9c-0.5,0-0.9-0.4-0.9-0.9c0-0.5,0.4-0.9,0.9-0.9h4.9c0.5,0,0.9,0.4,0.9,0.9
			C97.7,90.2,97.3,90.6,96.7,90.6z"/>
	</g>
	<g class="st1">
		<path class="st5" d="M96.7,83.2h-4.9c-0.5,0-0.9-0.4-0.9-0.9c0-0.5,0.4-0.9,0.9-0.9h4.9c0.5,0,0.9,0.4,0.9,0.9
			C97.7,82.8,97.3,83.2,96.7,83.2z"/>
	</g>
	<g class="st1">
		<path class="st5" d="M96.7,75.8h-4.9c-0.5,0-0.9-0.4-0.9-0.9c0-0.5,0.4-0.9,0.9-0.9h4.9c0.5,0,0.9,0.4,0.9,0.9
			C97.7,75.3,97.3,75.8,96.7,75.8z"/>
	</g>
	<g class="st1">
		<path class="st5" d="M96.7,68.3h-4.9c-0.5,0-0.9-0.4-0.9-0.9c0-0.5,0.4-0.9,0.9-0.9h4.9c0.5,0,0.9,0.4,0.9,0.9
			C97.7,67.9,97.3,68.3,96.7,68.3z"/>
	</g>
	<g class="st1">
		<path class="st5" d="M96.7,60.9h-4.9c-0.5,0-0.9-0.4-0.9-0.9c0-0.5,0.4-0.9,0.9-0.9h4.9c0.5,0,0.9,0.4,0.9,0.9
			C97.7,60.5,97.3,60.9,96.7,60.9z"/>
	</g>
	<g class="st1">
		<path class="st5" d="M96.7,53.5h-4.9c-0.5,0-0.9-0.4-0.9-0.9c0-0.5,0.4-0.9,0.9-0.9h4.9c0.5,0,0.9,0.4,0.9,0.9
			C97.7,53.1,97.3,53.5,96.7,53.5z"/>
	</g>
	<g class="st1">
		<path class="st5" d="M96.7,46.1h-4.9c-0.5,0-0.9-0.4-0.9-0.9c0-0.5,0.4-0.9,0.9-0.9h4.9c0.5,0,0.9,0.4,0.9,0.9
			C97.7,45.7,97.3,46.1,96.7,46.1z"/>
	</g>
	<g class="st1">
		<path class="st5" d="M96.7,38.7h-4.9c-0.5,0-0.9-0.4-0.9-0.9c0-0.5,0.4-0.9,0.9-0.9h4.9c0.5,0,0.9,0.4,0.9,0.9
			C97.7,38.3,97.3,38.7,96.7,38.7z"/>
	</g>
	<g class="st1">
		<path class="st5" d="M96.7,31.3h-4.9c-0.5,0-0.9-0.4-0.9-0.9c0-0.5,0.4-0.9,0.9-0.9h4.9c0.5,0,0.9,0.4,0.9,0.9
			C97.7,30.8,97.3,31.3,96.7,31.3z"/>
	</g>
	<g class="st1">
		<path class="st5" d="M96.7,23.8h-4.9c-0.5,0-0.9-0.4-0.9-0.9c0-0.5,0.4-0.9,0.9-0.9h4.9c0.5,0,0.9,0.4,0.9,0.9
			C97.7,23.4,97.3,23.8,96.7,23.8z"/>
	</g>
	<g class="st1">
		<path class="st3" d="M84.4,43.9c0-15.5-13-28-28.7-27.1C41.8,17.5,30.5,29.1,30,43c-0.3,8.1,3,15.4,8.4,20.5c3,2.9,4.6,6.9,4.6,11
			v1.5h28.5v-1.8c0-4.1,1.8-8,4.8-10.9C81.2,58.4,84.4,51.5,84.4,43.9z"/>
	</g>
	<g class="st1">
		<path class="st4" d="M57.8,16.8c8.7,5,18.3,15,16.4,26.7c-3.2,19.9-17.1,25.2-31.6,28.2c0.2,0.9,0.3,1.9,0.3,2.8v1.5h28.5v-1.8
			c0-4.1,1.8-8,4.8-10.9c5-4.9,8.2-11.8,8.2-19.4C84.4,29.1,72.6,17.1,57.8,16.8z"/>
	</g>
	<g class="st1">
		<path class="st3" d="M67.1,86H47.3c-1.4,0-2.5-1.1-2.5-2.5l0,0c0-1.4,1.1-2.5,2.5-2.5h19.8c1.4,0,2.5,1.1,2.5,2.5l0,0
			C69.6,84.9,68.4,86,67.1,86z"/>
	</g>
	<g class="st1">
		<path class="st3" d="M67.1,90.9H47.3c-1.4,0-2.5-1.1-2.5-2.5l0,0c0-1.4,1.1-2.5,2.5-2.5h19.8c1.4,0,2.5,1.1,2.5,2.5l0,0
			C69.6,89.8,68.4,90.9,67.1,90.9z"/>
	</g>
	<g class="st1">
		<path class="st3" d="M67.6,81H46.8c-1.1,0-2-0.9-2-2v-2.9h24.7V79C69.6,80.1,68.7,81,67.6,81z"/>
	</g>
	<g class="st1">
		<path class="st4" d="M67,86h-6.1c-1.4,0-2.5-1.1-2.5-2.5l0,0c0-1.4,1.1-2.5,2.5-2.5H67c1.4,0,2.5,1.1,2.5,2.5l0,0
			C69.5,84.9,68.4,86,67,86z"/>
	</g>
	<g class="st1">
		<path class="st4" d="M67,90.9h-9.8c-1.4,0-2.5-1.1-2.5-2.5l0,0c0-1.4,1.1-2.5,2.5-2.5H67c1.4,0,2.5,1.1,2.5,2.5l0,0
			C69.5,89.8,68.4,90.9,67,90.9z"/>
	</g>
	<g class="st1">
		<path class="st4" d="M67.6,81H53c-1.1,0-2-0.9-2-2v-2.9h18.5V79C69.6,80.1,68.7,81,67.6,81z"/>
	</g>
	<g class="st1">
		<path class="st5" d="M71.4,77H42.9c-0.5,0-0.9-0.4-0.9-0.9v-1.5c0-4-1.6-7.7-4.3-10.3C32,58.7,28.8,51,29.1,43
			c0.5-14.5,12.1-26.4,26.6-27.2c7.8-0.4,15.2,2.3,20.9,7.7c5.7,5.4,8.8,12.6,8.8,20.4c0,7.6-3,14.7-8.5,20.1
			c-2.9,2.8-4.5,6.5-4.5,10.2v1.8C72.4,76.6,71.9,77,71.4,77z M43.9,75.1h26.6v-0.9c0-4.3,1.8-8.4,5-11.6c5.1-5,7.9-11.6,7.9-18.7
			c0-7.3-2.9-14.1-8.2-19.1c-5.3-5-12.2-7.6-19.5-7.2c-13.5,0.7-24.4,11.9-24.8,25.4c-0.2,7.4,2.7,14.6,8.1,19.8
			c3.1,3,4.9,7.2,4.9,11.7V75.1z"/>
	</g>
	<g class="st1">
		<path class="st5" d="M67.1,86.9H47.3c-1.9,0-3.4-1.5-3.4-3.4c0-1.9,1.5-3.4,3.4-3.4h19.8c1.9,0,3.4,1.5,3.4,3.4
			C70.5,85.4,69,86.9,67.1,86.9z M47.3,81.9c-0.9,0-1.5,0.7-1.5,1.5s0.7,1.5,1.5,1.5h19.8c0.9,0,1.5-0.7,1.5-1.5s-0.7-1.5-1.5-1.5
			H47.3z"/>
	</g>
	<g class="st1">
		<path class="st5" d="M67.1,91.8H47.3c-1.9,0-3.4-1.5-3.4-3.4c0-1.9,1.5-3.4,3.4-3.4h19.8c1.9,0,3.4,1.5,3.4,3.4
			C70.5,90.3,69,91.8,67.1,91.8z M47.3,86.9c-0.9,0-1.5,0.7-1.5,1.5s0.7,1.5,1.5,1.5h19.8c0.9,0,1.5-0.7,1.5-1.5s-0.7-1.5-1.5-1.5
			H47.3z"/>
	</g>
	<g class="st1">
		<path class="st5" d="M67.1,81.9H47.3c-1.9,0-3.4-1.5-3.4-3.4v-2.5c0-0.5,0.4-0.9,0.9-0.9h24.7c0.5,0,0.9,0.4,0.9,0.9v2.5
			C70.5,80.4,69,81.9,67.1,81.9z M45.8,77v1.5c0,0.9,0.7,1.5,1.5,1.5h19.8c0.9,0,1.5-0.7,1.5-1.5V77H45.8z"/>
	</g>
	<g class="st1">
		<path class="st5" d="M64.6,96.8H49.8c-0.5,0-0.9-0.4-0.9-0.9c0-0.5,0.4-0.9,0.9-0.9h14.8c0.5,0,0.9,0.4,0.9,0.9
			C65.5,96.4,65.1,96.8,64.6,96.8z"/>
	</g>
	<g class="st1">
		<polygon class="st3" points="34.9,88.4 34.9,31.6 26.3,34 17.6,31.6 17.6,88.4 		"/>
	</g>
	<g class="st1">
		<polygon class="st4" points="34.9,88.4 34.9,31.6 26.3,34 26.3,88.4 		"/>
	</g>
	<g class="st1">
		<path class="st5" d="M34.9,89.4H17.6c-0.5,0-0.9-0.4-0.9-0.9V31.6c0-0.3,0.1-0.6,0.4-0.7c0.2-0.2,0.5-0.2,0.8-0.2l8.4,2.4l8.4-2.4
			c0.3-0.1,0.6,0,0.8,0.2c0.2,0.2,0.4,0.4,0.4,0.7v56.9C35.9,88.9,35.5,89.4,34.9,89.4z M18.6,87.5H34V32.8l-7.5,2.1
			c-0.2,0-0.3,0-0.5,0l-7.5-2.1V87.5z"/>
	</g>
	<g class="st1">
		<path class="st3" d="M34.9,93.8v-5.4H17.6v5.4c0,1.1,0.9,2,2,2h13.3C34,95.8,34.9,94.9,34.9,93.8z"/>
	</g>
	<g class="st1">
		<path class="st5" d="M32.5,96.8H20.1c-1.9,0-3.4-1.5-3.4-3.4v-4.9c0-0.5,0.4-0.9,0.9-0.9h17.3c0.5,0,0.9,0.4,0.9,0.9v4.9
			C35.9,95.2,34.3,96.8,32.5,96.8z M18.6,89.4v4c0,0.9,0.7,1.5,1.5,1.5h12.4c0.9,0,1.5-0.7,1.5-1.5v-4H18.6z"/>
	</g>
	<g class="st1">
		<polygon class="st3" points="34.9,31.6 26.3,16.7 17.6,31.6 26.3,34 		"/>
	</g>
	<g class="st1">
		<polygon class="st4" points="32.5,27.3 26.3,16.7 26.3,29.1 		"/>
	</g>
	<g class="st1">
		<path class="st5" d="M26.3,35c-0.1,0-0.2,0-0.3,0l-8.7-2.5c-0.3-0.1-0.5-0.3-0.6-0.5c-0.1-0.3-0.1-0.6,0.1-0.8l8.7-14.8
			c0.3-0.6,1.3-0.6,1.6,0l8.7,14.8c0.1,0.2,0.2,0.5,0.1,0.8c-0.1,0.3-0.3,0.5-0.6,0.5l-8.7,2.5C26.5,35,26.4,35,26.3,35z M19,31
			l7.3,2.1l7.3-2.1l-7.3-12.4L19,31z"/>
	</g>
	<g class="st1">
		<path class="st5" d="M26.3,89.4c-0.5,0-0.9-0.4-0.9-0.9V34c0-0.5,0.4-0.9,0.9-0.9c0.5,0,0.9,0.4,0.9,0.9v54.4
			C27.2,88.9,26.8,89.4,26.3,89.4z"/>
	</g>
	<g class="st1">
		<path class="st3" d="M74.3,46.8c0.1-0.9,0.2-1.9,0.2-2.8c0-1-0.1-1.9-0.2-2.8l-5.9-0.9c-0.2-0.5-0.4-1-0.6-1.5l3.5-4.8
			c-1.1-1.5-2.4-2.9-4-4l-4.8,3.5c-0.5-0.2-1-0.5-1.5-0.6L60,26.9c-0.9-0.2-1.9-0.2-2.8-0.2h0c-1,0-1.9,0.1-2.8,0.2l-0.9,5.9
			c-0.5,0.2-1,0.4-1.5,0.6l-4.8-3.5c-1.5,1.1-2.9,2.4-4,4l3.5,4.8c-0.2,0.5-0.5,1-0.6,1.5l-5.9,0.9C40,42.1,39.9,43,39.9,44
			c0,1,0.1,1.9,0.2,2.8l5.9,0.9c0.2,0.5,0.4,1,0.6,1.5L43.1,54c1.1,1.5,2.4,2.9,4,4l4.8-3.5c0.5,0.2,1,0.5,1.5,0.6l0.9,5.9
			c0.9,0.2,1.8,0.2,2.8,0.2h0c1,0,1.9-0.1,2.8-0.2l0.9-5.9c0.5-0.2,1-0.4,1.5-0.6l4.8,3.5c1.5-1.1,2.9-2.4,4-4l-3.5-4.8
			c0.2-0.5,0.5-1,0.6-1.5L74.3,46.8z"/>
	</g>
	<g class="st1">
		<path class="st4" d="M53.4,55.1l0.9,5.9c0.9,0.2,1.8,0.2,2.8,0.2h0c1,0,1.9-0.1,2.8-0.2l0.9-5.9c0.5-0.2,1-0.4,1.5-0.6l4.8,3.5
			c1.5-1.1,2.9-2.4,4-4l-3.5-4.8c0.2-0.5,0.5-1,0.6-1.5l5.9-0.9c0.1-0.9,0.2-1.9,0.2-2.8c0-1-0.1-1.9-0.2-2.8l-5.9-0.9
			c-0.2-0.5-0.4-1-0.6-1.5l1.5-2c-0.7-0.1-1.4-0.1-2.1-0.1c-9.6,0-17.3,7.7-17.3,17.3c0,0.7,0.1,1.4,0.1,2.1l2-1.5
			C52.4,54.8,52.9,55,53.4,55.1z"/>
	</g>
	<g class="st1">
		<path class="st3" d="M61.3,48c-2.3,2.3-5.9,2.3-8.2,0c-2.3-2.3-2.3-5.9,0-8.2s5.9-2.3,8.2,0C63.5,42.1,63.5,45.8,61.3,48z"/>
	</g>
	<g class="st1">
		<path class="st4" d="M61.3,48c1.7-1.7,2.1-4.1,1.3-6.2c-2.1-0.8-4.5-0.4-6.2,1.3c-1.7,1.7-2.1,4.1-1.3,6.2
			C57.2,50.1,59.6,49.7,61.3,48z"/>
	</g>
	<g class="st1">
		<path class="st5" d="M57.2,50.6c-3.7,0-6.7-3-6.7-6.7c0-3.7,3-6.7,6.7-6.7c3.7,0,6.7,3,6.7,6.7C63.9,47.6,60.9,50.6,57.2,50.6z
			 M57.2,39.1c-2.7,0-4.8,2.2-4.8,4.8c0,2.7,2.2,4.8,4.8,4.8c2.7,0,4.8-2.2,4.8-4.8C62,41.3,59.9,39.1,57.2,39.1z"/>
	</g>
	<g class="st1">
		<path class="st5" d="M57.2,62.2c-1,0-2-0.1-3-0.2c-0.4-0.1-0.7-0.4-0.8-0.8l-0.9-5.3c-0.2-0.1-0.4-0.2-0.6-0.2l-4.4,3.2
			c-0.3,0.2-0.8,0.2-1.1,0c-1.6-1.2-3-2.6-4.2-4.2c-0.2-0.3-0.2-0.8,0-1.1l3.2-4.4c-0.1-0.2-0.2-0.4-0.2-0.6L40,47.7
			c-0.4-0.1-0.7-0.4-0.8-0.8c-0.2-1-0.2-2-0.2-3c0-1,0.1-2,0.2-3c0.1-0.4,0.4-0.7,0.8-0.8l5.3-0.8c0.1-0.2,0.2-0.4,0.2-0.6l-3.2-4.4
			c-0.2-0.3-0.2-0.8,0-1.1c1.2-1.6,2.6-3,4.2-4.2c0.3-0.2,0.8-0.2,1.1,0l4.4,3.2c0.2-0.1,0.4-0.2,0.6-0.2l0.9-5.4
			c0.1-0.4,0.4-0.7,0.8-0.8c2-0.3,4-0.3,5.9,0c0.4,0.1,0.7,0.4,0.8,0.8l0.9,5.4c0.2,0.1,0.4,0.2,0.6,0.2l4.4-3.2
			c0.3-0.2,0.8-0.2,1.1,0c1.6,1.2,3,2.6,4.2,4.2c0.2,0.3,0.2,0.8,0,1.1l-3.2,4.4c0.1,0.2,0.2,0.4,0.2,0.6l5.3,0.8
			c0.4,0.1,0.7,0.4,0.8,0.8c0.2,1,0.2,2,0.2,3c0,1-0.1,2-0.2,3c-0.1,0.4-0.4,0.7-0.8,0.8l-5.3,0.8c-0.1,0.2-0.2,0.4-0.2,0.6l3.2,4.4
			c0.2,0.3,0.2,0.8,0,1.1c-1.2,1.6-2.6,3-4.2,4.2c-0.3,0.2-0.8,0.2-1.1,0l-4.4-3.2c-0.2,0.1-0.4,0.2-0.6,0.2l-0.9,5.4
			c-0.1,0.4-0.4,0.7-0.8,0.8C59.2,62.1,58.2,62.2,57.2,62.2z M55.2,60.2c1.3,0.2,2.7,0.2,4,0L60,55c0.1-0.3,0.3-0.6,0.6-0.7
			c0.5-0.2,0.9-0.4,1.4-0.6c0.3-0.2,0.7-0.1,1,0.1l4.3,3.1c1.1-0.8,2-1.8,2.8-2.8L67,49.8c-0.2-0.3-0.2-0.6-0.1-1
			c0.2-0.5,0.4-0.9,0.6-1.4c0.1-0.3,0.4-0.6,0.7-0.6l5.2-0.8c0.1-0.7,0.1-1.3,0.1-2c0-0.7,0-1.3-0.1-2l-5.2-0.8
			c-0.3-0.1-0.6-0.3-0.7-0.6c-0.2-0.4-0.3-0.9-0.6-1.4c-0.2-0.3-0.1-0.7,0.1-1l3.1-4.3c-0.8-1.1-1.8-2-2.8-2.8L63,34.2
			c-0.3,0.2-0.6,0.2-1,0.1c-0.5-0.2-0.9-0.4-1.4-0.6c-0.3-0.1-0.6-0.4-0.6-0.7l-0.8-5.2c-1.3-0.2-2.7-0.2-4,0l-0.8,5.2
			c-0.1,0.3-0.3,0.6-0.6,0.7c-0.4,0.1-0.9,0.3-1.4,0.6c-0.3,0.2-0.7,0.1-1-0.1L47.1,31c-1.1,0.8-2,1.8-2.8,2.8l3.1,4.3
			c0.2,0.3,0.2,0.7,0.1,1c-0.2,0.4-0.4,0.9-0.6,1.4c-0.1,0.3-0.4,0.6-0.7,0.6L40.9,42c-0.1,0.7-0.1,1.3-0.1,2c0,0.7,0,1.3,0.1,2
			l5.2,0.8c0.3,0.1,0.6,0.3,0.7,0.6c0.2,0.5,0.4,0.9,0.6,1.4c0.2,0.3,0.1,0.7-0.1,1L44.3,54c0.8,1.1,1.8,2,2.8,2.8l4.3-3.1
			c0.3-0.2,0.7-0.2,1-0.1c0.4,0.2,0.9,0.4,1.4,0.6c0.3,0.1,0.6,0.4,0.6,0.7L55.2,60.2z M74.3,46.8L74.3,46.8L74.3,46.8z"/>
	</g>
	<g class="st1">
		<path class="st5" d="M84.4,90.7c-0.5,0-0.9-0.4-0.9-0.9V76.4c0-0.5,0.4-0.9,0.9-0.9c0.5,0,0.9,0.4,0.9,0.9v13.3
			C85.3,90.2,84.9,90.7,84.4,90.7z"/>
	</g>
	<g class="st1">
		<path class="st5" d="M84.4,72.4c-0.5,0-0.9-0.4-0.9-0.9v-2.7c0-0.5,0.4-0.9,0.9-0.9c0.5,0,0.9,0.4,0.9,0.9v2.7
			C85.3,72,84.9,72.4,84.4,72.4z"/>
	</g>
	<g class="st1">
		<path class="st3" d="M105.4,85.6h-4.9c-0.5,0-0.9-0.4-0.9-0.9c0-0.5,0.4-0.9,0.9-0.9h4.9c0.5,0,0.9,0.4,0.9,0.9
			C106.3,85.2,105.9,85.6,105.4,85.6z"/>
	</g>
	<g class="st1">
		<path class="st3" d="M102.9,88.1c-0.5,0-0.9-0.4-0.9-0.9v-4.9c0-0.5,0.4-0.9,0.9-0.9c0.5,0,0.9,0.4,0.9,0.9v4.9
			C103.9,87.7,103.4,88.1,102.9,88.1z"/>
	</g>
	<g class="st1">
		<path class="st3" d="M103.9,77.3c0,0.5-0.4,0.9-0.9,0.9c-0.5,0-0.9-0.4-0.9-0.9c0-0.5,0.4-0.9,0.9-0.9
			C103.4,76.4,103.9,76.8,103.9,77.3z"/>
	</g>
	<g class="st1">
		<path class="st3" d="M103.9,72.4c0,0.5-0.4,0.9-0.9,0.9c-0.5,0-0.9-0.4-0.9-0.9c0-0.5,0.4-0.9,0.9-0.9
			C103.4,71.4,103.9,71.8,103.9,72.4z"/>
	</g>
	<g class="st1">
		<path class="st5" d="M103.9,66.2c0,0.5-0.4,0.9-0.9,0.9c-0.5,0-0.9-0.4-0.9-0.9c0-0.5,0.4-0.9,0.9-0.9
			C103.4,65.3,103.9,65.7,103.9,66.2z"/>
	</g>
	<g class="st1">
		<path class="st5" d="M103.9,57.5c0,0.5-0.4,0.9-0.9,0.9c-0.5,0-0.9-0.4-0.9-0.9c0-0.5,0.4-0.9,0.9-0.9
			C103.4,56.6,103.9,57,103.9,57.5z"/>
	</g>
	<g class="st1">
		<path class="st5" d="M13.9,42.7H9c-0.5,0-0.9-0.4-0.9-0.9c0-0.5,0.4-0.9,0.9-0.9h4.9c0.5,0,0.9,0.4,0.9,0.9
			C14.9,42.3,14.4,42.7,13.9,42.7z"/>
	</g>
	<g class="st1">
		<path class="st5" d="M11.5,45.2c-0.5,0-0.9-0.4-0.9-0.9v-4.9c0-0.5,0.4-0.9,0.9-0.9c0.5,0,0.9,0.4,0.9,0.9v4.9
			C12.4,44.8,12,45.2,11.5,45.2z"/>
	</g>
	<g class="st1">
		<path class="st5" d="M10.5,50.4c0-0.5,0.4-0.9,0.9-0.9c0.5,0,0.9,0.4,0.9,0.9c0,0.5-0.4,0.9-0.9,0.9
			C10.9,51.3,10.5,50.9,10.5,50.4z"/>
	</g>
	<g class="st1">
		<path class="st3" d="M10.5,56.6c0-0.5,0.4-0.9,0.9-0.9c0.5,0,0.9,0.4,0.9,0.9c0,0.5-0.4,0.9-0.9,0.9
			C10.9,57.5,10.5,57.1,10.5,56.6z"/>
	</g>
	<g class="st1">
		<path class="st3" d="M10.5,64c0-0.5,0.4-0.9,0.9-0.9c0.5,0,0.9,0.4,0.9,0.9c0,0.5-0.4,0.9-0.9,0.9C10.9,64.9,10.5,64.5,10.5,64z"
			/>
	</g>
	<g class="st1">
		<path class="st3" d="M10.5,73.9c0-0.5,0.4-0.9,0.9-0.9c0.5,0,0.9,0.4,0.9,0.9c0,0.5-0.4,0.9-0.9,0.9
			C10.9,74.8,10.5,74.4,10.5,73.9z"/>
	</g>
</g>
<g>
	<g>
		
			<ellipse transform="matrix(0.2298 -0.9732 0.9732 0.2298 -28.3536 59.9754)" class="st2" cx="23.7" cy="47.9" rx="17.2" ry="17.2"/>
	</g>
	<g>
		<circle class="st2" cx="58.1" cy="89.2" r="14.7"/>
	</g>
	<g>
		<ellipse transform="matrix(0.7071 -0.7071 0.7071 0.7071 -1.9321 67.3762)" class="st2" cx="80.4" cy="36" rx="24.6" ry="24.6"/>
	</g>
	<g>
		<path class="st3" d="M76,95H20.6c-1.7,0-3-1.3-3-3V19.4c0-1.7,1.3-3,3-3H76c1.7,0,3,1.3,3,3V92C79,93.7,77.7,95,76,95z"/>
	</g>
	<g>
		<path class="st4" d="M76,95H28.6V55.7c0-13.6,11-24.5,24.5-24.5H79V92C79,93.7,77.7,95,76,95z"/>
	</g>
	<g>
		<path class="st5" d="M75.3,95.9H21.3c-2.5,0-4.6-2.1-4.6-4.6V20c0-2.5,2.1-4.6,4.6-4.6h54.1c2.5,0,4.6,2.1,4.6,4.6v71.3
			C79.9,93.9,77.9,95.9,75.3,95.9z M21.3,17.3c-1.5,0-2.8,1.2-2.8,2.8v71.3c0,1.5,1.2,2.8,2.8,2.8h54.1c1.5,0,2.8-1.2,2.8-2.8V20
			c0-1.5-1.2-2.8-2.8-2.8H21.3z"/>
	</g>
	<g>
		<path class="st3" d="M61.3,26.2h-26c-1.7,0-3-1.3-3-3v-6.8h32v6.8C64.3,24.8,62.9,26.2,61.3,26.2z"/>
	</g>
	<g>
		<path class="st4" d="M60.6,26.2H39.7l0,0c0-2.7,2.2-4.9,4.9-4.9h19.7v1.2C64.3,24.5,62.6,26.2,60.6,26.2z"/>
	</g>
	<g>
		<path class="st5" d="M60.6,27.1H36c-2.5,0-4.6-2.1-4.6-4.6v-6.1c0-0.5,0.4-0.9,0.9-0.9h32c0.5,0,0.9,0.4,0.9,0.9v6.1
			C65.2,25,63.1,27.1,60.6,27.1z M33.2,17.3v5.2c0,1.5,1.2,2.8,2.8,2.8h24.6c1.5,0,2.8-1.2,2.8-2.8v-5.2H33.2z"/>
	</g>
	<g>
		<circle class="st3" cx="71.6" cy="59.4" r="24.6"/>
	</g>
	<g>
		<path class="st4" d="M96.2,59.4c0-7.9-3.7-14.9-9.5-19.4c-12,1.7-21.2,11.9-21.2,24.3c0,7.9,3.7,14.9,9.5,19.4
			C87,82,96.2,71.8,96.2,59.4z"/>
	</g>
	<g>
		<path class="st5" d="M71.6,84.9c-14.1,0-25.5-11.4-25.5-25.5s11.4-25.5,25.5-25.5c14.1,0,25.5,11.4,25.5,25.5S85.7,84.9,71.6,84.9
			z M71.6,35.7c-13,0-23.7,10.6-23.7,23.7C48,72.4,58.6,83,71.6,83c13,0,23.7-10.6,23.7-23.7C95.3,46.3,84.7,35.7,71.6,35.7z"/>
	</g>
	<g>
		<path class="st5" d="M53.1,53.9c-0.1,0-0.2,0-0.3-0.1c-0.5-0.2-0.7-0.7-0.6-1.2c1.9-5.6,6.2-10.1,11.7-12.4c0.5-0.2,1,0,1.2,0.5
			c0.2,0.5,0,1-0.5,1.2c-5,2-8.9,6.1-10.7,11.2C53.8,53.6,53.4,53.9,53.1,53.9z"/>
	</g>
	<g>
		<path class="st5" d="M52,61.3c-0.5,0-0.9-0.4-0.9-0.9c0-0.3,0-0.7,0-1c0-0.7,0-1.5,0.1-2.2c0.1-0.5,0.5-0.9,1-0.8
			c0.5,0.1,0.9,0.5,0.8,1c-0.1,0.7-0.1,1.3-0.1,2c0,0.3,0,0.6,0,1C53,60.8,52.6,61.3,52,61.3C52,61.3,52,61.3,52,61.3z"/>
	</g>
	<g>
		<path class="st5" d="M71.6,60.3c-0.1,0-0.2,0-0.4-0.1c-0.3-0.1-0.6-0.5-0.6-0.9V34.8c0-0.5,0.4-0.9,0.9-0.9c0.5,0,0.9,0.4,0.9,0.9
			v22.4l15.9-15.8c0.4-0.4,0.9-0.4,1.3,0c0.4,0.4,0.4,0.9,0,1.3L72.3,60C72.1,60.2,71.9,60.3,71.6,60.3z"/>
	</g>
	<g>
		<path class="st5" d="M55.6,78.9c-0.2,0-0.4-0.1-0.6-0.2c-0.4-0.3-0.4-0.9-0.1-1.3l16-18.6c0.3-0.3,0.8-0.4,1.2-0.2l21.3,12.3
			c0.4,0.3,0.6,0.8,0.3,1.3c-0.3,0.4-0.8,0.6-1.3,0.3L71.8,60.6l-15.5,18C56.1,78.8,55.9,78.9,55.6,78.9z"/>
	</g>
	<g>
		<path class="st3" d="M60.7,61.4c-1.1-6.1,2.9-11.9,9-13c6.1-1.1,11.9,2.9,13,9c1.1,6.1-2.9,11.9-9,13
			C67.6,71.5,61.8,67.4,60.7,61.4z"/>
	</g>
	<g>
		<path class="st4" d="M82.6,57.4c-0.3-1.6-0.9-3.1-1.8-4.4c-0.9-0.1-1.8,0-2.8,0.1c-6.1,1.1-10.1,6.9-9,13c0.3,1.6,0.9,3.1,1.8,4.4
			c0.9,0.1,1.8,0,2.8-0.1C79.7,69.3,83.7,63.5,82.6,57.4z"/>
	</g>
	<g>
		<path class="st5" d="M71.6,71.5c-6.7,0-12.1-5.4-12.1-12.1S65,47.3,71.6,47.3c6.7,0,12.1,5.4,12.1,12.1S78.3,71.5,71.6,71.5z
			 M71.6,49.1c-5.7,0-10.3,4.6-10.3,10.3S66,69.6,71.6,69.6S81.9,65,81.9,59.4S77.3,49.1,71.6,49.1z"/>
	</g>
	<g>
		<path class="st3" d="M31.3,40.9h-5.4c-0.6,0-1-0.4-1-1v-5.4c0-0.6,0.4-1,1-1h5.4c0.6,0,1,0.4,1,1v5.4
			C32.3,40.5,31.9,40.9,31.3,40.9z"/>
	</g>
	<g>
		<path class="st3" d="M31.3,55.7h-5.4c-0.6,0-1-0.4-1-1v-5.4c0-0.6,0.4-1,1-1h5.4c0.6,0,1,0.4,1,1v5.4
			C32.3,55.2,31.9,55.7,31.3,55.7z"/>
	</g>
	<g>
		<path class="st3" d="M31.3,70.4h-5.4c-0.6,0-1-0.4-1-1v-5.4c0-0.6,0.4-1,1-1h5.4c0.6,0,1,0.4,1,1v5.4C32.3,70,31.9,70.4,31.3,70.4
			z"/>
	</g>
	<g>
		<path class="st3" d="M31.3,85.2h-5.4c-0.6,0-1-0.4-1-1v-5.4c0-0.6,0.4-1,1-1h5.4c0.6,0,1,0.4,1,1v5.4
			C32.3,84.7,31.9,85.2,31.3,85.2z"/>
	</g>
	<g>
		<path class="st4" d="M31.3,40.9h-3.9v-2.7c0-0.6,0.4-1,1-1h3.9v2.7C32.3,40.5,31.9,40.9,31.3,40.9z"/>
	</g>
	<g>
		<path class="st4" d="M31.3,85.2h-3.9v-2.7c0-0.6,0.4-1,1-1h3.9v2.7C32.3,84.7,31.9,85.2,31.3,85.2z"/>
	</g>
	<g>
		<path class="st4" d="M31.3,55.7h-3.9V53c0-0.6,0.4-1,1-1h3.9v2.7C32.3,55.2,31.9,55.7,31.3,55.7z"/>
	</g>
	<g>
		<path class="st4" d="M31.3,70.4h-3.9v-2.7c0-0.6,0.4-1,1-1h3.9v2.7C32.3,70,31.9,70.4,31.3,70.4z"/>
	</g>
	<g>
		<path class="st5" d="M31.1,41.9h-4.9c-1.2,0-2.2-1-2.2-2.2v-4.9c0-1.2,1-2.2,2.2-2.2h4.9c1.2,0,2.2,1,2.2,2.2v4.9
			C33.2,40.9,32.3,41.9,31.1,41.9z M26.2,34.5c-0.2,0-0.3,0.1-0.3,0.3v4.9c0,0.2,0.1,0.3,0.3,0.3h4.9c0.2,0,0.3-0.1,0.3-0.3v-4.9
			c0-0.2-0.1-0.3-0.3-0.3H26.2z"/>
	</g>
	<g>
		<path class="st5" d="M31.1,56.6h-4.9c-1.2,0-2.2-1-2.2-2.2v-4.9c0-1.2,1-2.2,2.2-2.2h4.9c1.2,0,2.2,1,2.2,2.2v4.9
			C33.2,55.6,32.3,56.6,31.1,56.6z M26.2,49.2c-0.2,0-0.3,0.1-0.3,0.3v4.9c0,0.2,0.1,0.3,0.3,0.3h4.9c0.2,0,0.3-0.1,0.3-0.3v-4.9
			c0-0.2-0.1-0.3-0.3-0.3H26.2z"/>
	</g>
	<g>
		<path class="st5" d="M31.1,71.4h-4.9c-1.2,0-2.2-1-2.2-2.2v-4.9c0-1.2,1-2.2,2.2-2.2h4.9c1.2,0,2.2,1,2.2,2.2v4.9
			C33.2,70.4,32.3,71.4,31.1,71.4z M26.2,64c-0.2,0-0.3,0.1-0.3,0.3v4.9c0,0.2,0.1,0.3,0.3,0.3h4.9c0.2,0,0.3-0.1,0.3-0.3v-4.9
			c0-0.2-0.1-0.3-0.3-0.3H26.2z"/>
	</g>
	<g>
		<path class="st5" d="M31.1,86.1h-4.9c-1.2,0-2.2-1-2.2-2.2V79c0-1.2,1-2.2,2.2-2.2h4.9c1.2,0,2.2,1,2.2,2.2V84
			C33.2,85.1,32.3,86.1,31.1,86.1z M26.2,78.7c-0.2,0-0.3,0.1-0.3,0.3V84c0,0.2,0.1,0.3,0.3,0.3h4.9c0.2,0,0.3-0.1,0.3-0.3V79
			c0-0.2-0.1-0.3-0.3-0.3H26.2z"/>
	</g>
	<g>
		<path class="st5" d="M55.7,35.7h-9.1c-0.5,0-0.9-0.4-0.9-0.9c0-0.5,0.4-0.9,0.9-0.9h9.1c0.5,0,0.9,0.4,0.9,0.9
			C56.6,35.3,56.2,35.7,55.7,35.7z"/>
	</g>
	<g>
		<path class="st5" d="M41.6,35.7h-4.4c-0.5,0-0.9-0.4-0.9-0.9c0-0.5,0.4-0.9,0.9-0.9h4.4c0.5,0,0.9,0.4,0.9,0.9
			C42.6,35.3,42.2,35.7,41.6,35.7z"/>
	</g>
	<g>
		<path class="st5" d="M50.7,40.6H37.2c-0.5,0-0.9-0.4-0.9-0.9s0.4-0.9,0.9-0.9h13.5c0.5,0,0.9,0.4,0.9,0.9S51.3,40.6,50.7,40.6z"/>
	</g>
	<g>
		<path class="st5" d="M44.6,50.5h-7.4c-0.5,0-0.9-0.4-0.9-0.9c0-0.5,0.4-0.9,0.9-0.9h7.4c0.5,0,0.9,0.4,0.9,0.9
			C45.5,50.1,45.1,50.5,44.6,50.5z"/>
	</g>
	<g>
		<path class="st5" d="M43.4,55.4h-6.1c-0.5,0-0.9-0.4-0.9-0.9c0-0.5,0.4-0.9,0.9-0.9h6.1c0.5,0,0.9,0.4,0.9,0.9
			C44.3,55,43.9,55.4,43.4,55.4z"/>
	</g>
	<g>
		<path class="st5" d="M43.4,65.2h-6.1c-0.5,0-0.9-0.4-0.9-0.9c0-0.5,0.4-0.9,0.9-0.9h6.1c0.5,0,0.9,0.4,0.9,0.9
			C44.3,64.8,43.9,65.2,43.4,65.2z"/>
	</g>
	<g>
		<path class="st5" d="M44.6,70.1h-7.4c-0.5,0-0.9-0.4-0.9-0.9s0.4-0.9,0.9-0.9h7.4c0.5,0,0.9,0.4,0.9,0.9S45.1,70.1,44.6,70.1z"/>
	</g>
	<g>
		<path class="st5" d="M50.7,80H37.2c-0.5,0-0.9-0.4-0.9-0.9s0.4-0.9,0.9-0.9h13.5c0.5,0,0.9,0.4,0.9,0.9S51.3,80,50.7,80z"/>
	</g>
	<g>
		<path class="st5" d="M55.7,84.9h-6.1c-0.5,0-0.9-0.4-0.9-0.9c0-0.5,0.4-0.9,0.9-0.9h6.1c0.5,0,0.9,0.4,0.9,0.9
			C56.6,84.5,56.2,84.9,55.7,84.9z"/>
	</g>
	<g>
		<path class="st5" d="M44.6,84.9h-7.4c-0.5,0-0.9-0.4-0.9-0.9c0-0.5,0.4-0.9,0.9-0.9h7.4c0.5,0,0.9,0.4,0.9,0.9
			C45.5,84.5,45.1,84.9,44.6,84.9z"/>
	</g>
	<g>
		<path class="st5" d="M88.9,23.4h-4.9c-0.5,0-0.9-0.4-0.9-0.9c0-0.5,0.4-0.9,0.9-0.9h4.9c0.5,0,0.9,0.4,0.9,0.9
			C89.8,23,89.4,23.4,88.9,23.4z"/>
	</g>
	<g>
		<path class="st5" d="M86.4,25.9c-0.5,0-0.9-0.4-0.9-0.9V20c0-0.5,0.4-0.9,0.9-0.9c0.5,0,0.9,0.4,0.9,0.9V25
			C87.3,25.5,86.9,25.9,86.4,25.9z"/>
	</g>
	<g>
		<path class="st5" d="M96.2,34.5h-4.9c-0.5,0-0.9-0.4-0.9-0.9s0.4-0.9,0.9-0.9h4.9c0.5,0,0.9,0.4,0.9,0.9S96.7,34.5,96.2,34.5z"/>
	</g>
	<g>
		<path class="st5" d="M93.8,36.9c-0.5,0-0.9-0.4-0.9-0.9v-4.9c0-0.5,0.4-0.9,0.9-0.9s0.9,0.4,0.9,0.9V36
			C94.7,36.5,94.3,36.9,93.8,36.9z"/>
	</g>
	<g>
		<path class="st3" d="M91.3,87.3h-4.9c-0.5,0-0.9-0.4-0.9-0.9s0.4-0.9,0.9-0.9h4.9c0.5,0,0.9,0.4,0.9,0.9S91.8,87.3,91.3,87.3z"/>
	</g>
	<g>
		<path class="st3" d="M88.9,89.8c-0.5,0-0.9-0.4-0.9-0.9V84c0-0.5,0.4-0.9,0.9-0.9c0.5,0,0.9,0.4,0.9,0.9v4.9
			C89.8,89.4,89.4,89.8,88.9,89.8z"/>
	</g>
</g>
<g class="st0">
	<g class="st1">
		
			<ellipse transform="matrix(0.2298 -0.9732 0.9732 0.2298 -1.0455 142.2476)" class="st2" cx="89.3" cy="71.8" rx="17.8" ry="17.8"/>
	</g>
	<g class="st1">
		<circle class="st2" cx="19.6" cy="57.5" r="15.2"/>
	</g>
	<g class="st1">
		
			<ellipse transform="matrix(0.7071 -0.7071 0.7071 0.7071 -10.6036 49.5079)" class="st2" cx="54.5" cy="37.6" rx="25.4" ry="25.4"/>
	</g>
	<g class="st1">
		<path class="st3" d="M95.7,31.2H17.5c-1.7,0-3,1.3-3,3v65c0,1.7,1.3,3,3,3h70.2c4.4,0,8-3.6,8-8V31.2z"/>
	</g>
	<g class="st1">
		<path class="st4" d="M95.7,43.9h-14c-32.2,0-58.4,26.1-58.4,58.4l0,0h62.2c5.6,0,10.1-4.5,10.1-10.1V43.9z"/>
	</g>
	<g class="st1">
		<path class="st5" d="M85.5,103.2H18.3c-2.6,0-4.8-2.1-4.8-4.8V35c0-2.6,2.1-4.8,4.8-4.8h77.4c0.5,0,1,0.4,1,1v60.9
			C96.6,98.2,91.7,103.2,85.5,103.2z M18.3,32.1c-1.6,0-2.9,1.3-2.9,2.9v63.4c0,1.6,1.3,2.9,2.9,2.9h67.2c5.1,0,9.2-4.1,9.2-9.2
			V32.1H18.3z"/>
	</g>
	<g class="st1">
		<path class="st3" d="M95.7,92.1c0-5.6-4.5-10.1-10.1-10.1V21c5.6,0,10.1,4.5,10.1,10.1V92.1z"/>
	</g>
	<g class="st1">
		<path class="st3" d="M95.7,92.1v-0.3c0,0,0,0,0,0C95.7,91.9,95.7,92,95.7,92.1z"/>
	</g>
	<g class="st1">
		<path class="st4" d="M95.7,30.9c-1.7-1.4-3.9-2.2-6.3-2.2v54c3.6,1.5,6.2,5,6.3,9.1c0,0,0,0,0,0V31.2C95.7,31.1,95.7,31,95.7,30.9
			z"/>
	</g>
	<g class="st1">
		<path class="st5" d="M95.7,93c-0.5,0-1-0.4-1-1c0-5.1-4.1-9.2-9.2-9.2c-0.5,0-1-0.4-1-1V21c0-0.5,0.4-1,1-1
			c6.1,0,11.1,5,11.1,11.1v60.9C96.6,92.6,96.2,93,95.7,93z M86.5,81c3.4,0.3,6.4,2.1,8.2,4.9V31.2c0-4.7-3.6-8.7-8.2-9.2V81z"/>
	</g>
	<g class="st1">
		<path class="st5" d="M65.2,27.1c-0.5,0-1-0.4-1-1V21c0-0.5,0.4-1,1-1c0.5,0,1,0.4,1,1v5.1C66.2,26.6,65.8,27.1,65.2,27.1z"/>
	</g>
	<g class="st1">
		<path class="st5" d="M67.8,24.5h-5.1c-0.5,0-1-0.4-1-1s0.4-1,1-1h5.1c0.5,0,1,0.4,1,1S68.3,24.5,67.8,24.5z"/>
	</g>
	<g class="st1">
		<circle class="st5" cx="57.6" cy="23.6" r="1"/>
	</g>
	<g class="st1">
		<path class="st5" d="M53.8,22.6c0.5,0,1,0.4,1,1s-0.4,1-1,1c-0.5,0-1-0.4-1-1S53.3,22.6,53.8,22.6z"/>
	</g>
	<g class="st1">
		<path class="st5" d="M48.7,22.6c0.5,0,1,0.4,1,1s-0.4,1-1,1c-0.5,0-1-0.4-1-1S48.2,22.6,48.7,22.6z"/>
	</g>
	<g class="st1">
		<circle class="st5" cx="41.1" cy="23.6" r="1"/>
	</g>
	<g class="st1">
		<path class="st5" d="M32,98.1H20.8c-0.5,0-1-0.4-1-1c0-0.5,0.4-1,1-1H32c0.5,0,1,0.4,1,1C32.9,97.7,32.5,98.1,32,98.1z"/>
	</g>
	<g class="st1">
		<path class="st5" d="M39.9,98.1h-2.8c-0.5,0-1-0.4-1-1c0-0.5,0.4-1,1-1h2.8c0.5,0,1,0.4,1,1C40.8,97.7,40.4,98.1,39.9,98.1z"/>
	</g>
	<g class="st1">
		<path class="st5" d="M89.3,95.6h-5.1c-0.5,0-1-0.4-1-1c0-0.5,0.4-1,1-1h5.1c0.5,0,1,0.4,1,1C90.3,95.1,89.9,95.6,89.3,95.6z"/>
	</g>
	<g class="st1">
		<path class="st5" d="M86.8,98.1c-0.5,0-1-0.4-1-1v-5.1c0-0.5,0.4-1,1-1s1,0.4,1,1v5.1C87.8,97.7,87.3,98.1,86.8,98.1z"/>
	</g>
	<g class="st1">
		<path class="st5" d="M77.9,90.5h-5.1c-0.5,0-1-0.4-1-1c0-0.5,0.4-1,1-1h5.1c0.5,0,1,0.4,1,1C78.9,90.1,78.5,90.5,77.9,90.5z"/>
	</g>
	<g class="st1">
		<path class="st5" d="M75.4,93c-0.5,0-1-0.4-1-1V87c0-0.5,0.4-1,1-1c0.5,0,1,0.4,1,1v5.1C76.3,92.6,75.9,93,75.4,93z"/>
	</g>
	<g class="st1">
		<path class="st5" d="M29.7,39.7h-5.1c-0.5,0-1-0.4-1-1c0-0.5,0.4-1,1-1h5.1c0.5,0,1,0.4,1,1C30.7,39.3,30.2,39.7,29.7,39.7z"/>
	</g>
	<g class="st1">
		<path class="st5" d="M27.2,42.3c-0.5,0-1-0.4-1-1v-5.1c0-0.5,0.4-1,1-1c0.5,0,1,0.4,1,1v5.1C28.1,41.9,27.7,42.3,27.2,42.3z"/>
	</g>
	<g class="st1">
		<path class="st3" d="M76.5,63.2h-3.8c-0.3-1.7-0.7-3.3-1.3-4.9l3.3-1.9c0.7-0.4,0.9-1.2,0.5-1.9l-2.1-3.6
			c-0.4-0.7-1.2-0.9-1.9-0.5L68,52.3c-1.1-1.3-2.2-2.5-3.6-3.6l1.9-3.3c0.4-0.7,0.2-1.5-0.5-1.9l-3.6-2.1c-0.7-0.4-1.5-0.2-1.9,0.5
			l-1.9,3.3c-1.5-0.6-3.2-1.1-4.9-1.3v-3.8c0-0.8-0.6-1.4-1.4-1.4h-4.2c-0.8,0-1.4,0.6-1.4,1.4v3.8c-1.7,0.3-3.3,0.7-4.9,1.3
			L39.8,42c-0.4-0.7-1.2-0.9-1.9-0.5l-3.6,2.1c-0.7,0.4-0.9,1.2-0.5,1.9l1.9,3.3c-1.3,1.1-2.5,2.2-3.6,3.6l-3.3-1.9
			c-0.7-0.4-1.5-0.2-1.9,0.5l-2.1,3.6c-0.4,0.7-0.2,1.5,0.5,1.9l3.3,1.9c-0.6,1.6-1.1,3.2-1.3,4.9h-3.8c-0.8,0-1.4,0.6-1.4,1.4v4.2
			c0,0.8,0.6,1.4,1.4,1.4h3.8c0.3,1.7,0.7,3.3,1.3,4.9l-3.3,1.9c-0.7,0.4-0.9,1.2-0.5,1.9l2.1,3.6c0.4,0.7,1.2,0.9,1.9,0.5l3.3-1.9
			c1.1,1.3,2.2,2.5,3.6,3.6l-1.9,3.3c-0.4,0.7-0.2,1.5,0.5,1.9l3.6,2.1c0.7,0.4,1.5,0.2,1.9-0.5l1.9-3.3c1.6,0.6,3.2,1.1,4.9,1.3
			v3.8c0,0.8,0.6,1.4,1.4,1.4h4.2c0.8,0,1.4-0.6,1.4-1.4v-3.8c1.7-0.3,3.3-0.7,4.9-1.3l1.9,3.3c0.4,0.7,1.2,0.9,1.9,0.5l3.6-2.1
			c0.7-0.4,0.9-1.2,0.5-1.9l-1.9-3.3c1.3-1.1,2.5-2.2,3.6-3.6l3.3,1.9c0.7,0.4,1.5,0.2,1.9-0.5l2.1-3.6c0.4-0.7,0.2-1.5-0.5-1.9
			l-3.3-1.9c0.6-1.5,1.1-3.2,1.3-4.9h3.8c0.8,0,1.4-0.6,1.4-1.4v-4.2C77.9,63.8,77.3,63.2,76.5,63.2z"/>
	</g>
	<g class="st1">
		<path class="st4" d="M35.6,84.7l-1.9,3.3c-0.4,0.7-0.2,1.5,0.5,1.9l3.6,2.1c0.7,0.4,1.5,0.2,1.9-0.5l1.9-3.3
			c1.6,0.6,3.2,1.1,4.9,1.3v3.8c0,0.8,0.6,1.4,1.4,1.4h4.2c0.8,0,1.4-0.6,1.4-1.4v-3.8c1.7-0.3,3.3-0.7,4.9-1.3l1.9,3.3
			c0.4,0.7,1.2,0.9,1.9,0.5l3.6-2.1c0.7-0.4,0.9-1.2,0.5-1.9l-1.9-3.3c1.3-1.1,2.5-2.2,3.6-3.6l3.3,1.9c0.7,0.4,1.5,0.2,1.9-0.5
			l2.1-3.6c0.4-0.7,0.2-1.5-0.5-1.9l-3.3-1.9c0.6-1.5,1.1-3.2,1.3-4.9h3.8c0.8,0,1.4-0.6,1.4-1.4v-4.2c0-0.8-0.6-1.4-1.4-1.4h-3.8
			c-0.3-1.7-0.7-3.3-1.3-4.9l3.3-1.9c0.7-0.4,0.9-1.2,0.5-1.9l-2.1-3.6c-0.4-0.7-1.2-0.9-1.9-0.5L68,52.3c-1-1.2-2.1-2.3-3.3-3.3
			c-0.2,0-0.5,0-0.7,0c-17.5,0-31.7,14.2-31.7,31.7c0,0.2,0,0.5,0,0.7C33.3,82.6,34.4,83.7,35.6,84.7z"/>
	</g>
	<g class="st1">
		<path class="st5" d="M52.1,95.6h-4.2c-1.3,0-2.3-1.1-2.3-2.3v-2.9c-1.2-0.2-2.3-0.5-3.5-0.9l-1.5,2.6c-0.6,1.1-2.1,1.5-3.2,0.9
			l-3.6-2.1c-0.5-0.3-0.9-0.8-1.1-1.4c-0.2-0.6-0.1-1.2,0.2-1.8l1.5-2.6c-0.9-0.8-1.8-1.6-2.6-2.6l-2.6,1.5
			c-1.1,0.6-2.6,0.3-3.2-0.9L24,79.3c-0.6-1.1-0.3-2.6,0.9-3.2l2.6-1.5c-0.4-1.1-0.7-2.3-0.9-3.5h-2.9c-1.3,0-2.3-1.1-2.3-2.3v-4.2
			c0-1.3,1.1-2.3,2.3-2.3h2.9c0.2-1.2,0.5-2.3,0.9-3.5l-2.6-1.5c-0.5-0.3-0.9-0.8-1.1-1.4c-0.2-0.6-0.1-1.2,0.2-1.8l2.1-3.6
			c0.6-1.1,2.1-1.5,3.2-0.9l2.6,1.5c0.8-0.9,1.6-1.8,2.6-2.6L32.9,46c-0.6-1.1-0.3-2.6,0.9-3.2l3.6-2.1c0.5-0.3,1.2-0.4,1.8-0.2
			c0.6,0.2,1.1,0.6,1.4,1.1l1.5,2.6c1.1-0.4,2.3-0.7,3.5-0.9v-2.9c0-1.3,1.1-2.3,2.3-2.3h4.2c1.3,0,2.3,1.1,2.3,2.3v2.9
			c1.2,0.2,2.4,0.5,3.5,0.9l1.5-2.6c0.6-1.1,2.1-1.5,3.2-0.9l3.6,2.1c1.1,0.6,1.5,2.1,0.9,3.2l-1.5,2.6c0.9,0.8,1.8,1.6,2.6,2.6
			l2.6-1.5c1.1-0.6,2.6-0.3,3.2,0.9l2.1,3.6c0.3,0.5,0.4,1.2,0.2,1.8c-0.2,0.6-0.6,1.1-1.1,1.4l-2.6,1.5c0.4,1.1,0.7,2.3,0.9,3.5
			h2.9c1.3,0,2.3,1.1,2.3,2.3v4.2c0,1.3-1.1,2.3-2.3,2.3h-2.9c-0.2,1.2-0.5,2.3-0.9,3.5l2.6,1.5c1.1,0.6,1.5,2.1,0.9,3.2L74,83
			c-0.6,1.1-2.1,1.5-3.2,0.9l-2.6-1.5c-0.8,0.9-1.6,1.8-2.6,2.6l1.5,2.6c0.3,0.5,0.4,1.2,0.2,1.8c-0.2,0.6-0.6,1.1-1.1,1.4l-3.6,2.1
			c-1.1,0.6-2.6,0.3-3.2-0.9L58,89.3c-1.1,0.4-2.3,0.7-3.5,0.9v2.9C54.5,94.5,53.4,95.6,52.1,95.6z M41.7,87.2c0.1,0,0.2,0,0.3,0.1
			c1.5,0.6,3.1,1,4.7,1.3c0.5,0.1,0.8,0.5,0.8,0.9v3.8c0,0.2,0.2,0.4,0.4,0.4h4.2c0.2,0,0.4-0.2,0.4-0.4v-3.8c0-0.5,0.3-0.9,0.8-0.9
			c1.6-0.2,3.1-0.7,4.7-1.3c0.4-0.2,0.9,0,1.2,0.4l1.9,3.3c0.1,0.2,0.4,0.3,0.6,0.2l3.6-2.1c0.1-0.1,0.2-0.2,0.2-0.3
			c0-0.1,0-0.2,0-0.3l-1.9-3.3c-0.2-0.4-0.1-0.9,0.2-1.2c1.3-1,2.4-2.2,3.4-3.4c0.3-0.4,0.8-0.5,1.2-0.2l3.3,1.9
			c0.2,0.1,0.5,0,0.6-0.2l2.1-3.6c0.1-0.2,0-0.5-0.2-0.6L71,75.9c-0.4-0.2-0.6-0.7-0.4-1.2c0.6-1.5,1-3.1,1.3-4.7
			c0.1-0.5,0.5-0.8,0.9-0.8h3.8c0.2,0,0.4-0.2,0.4-0.4v-4.2c0-0.2-0.2-0.4-0.4-0.4h-3.8c-0.5,0-0.9-0.3-0.9-0.8
			c-0.2-1.6-0.7-3.1-1.3-4.7c-0.2-0.4,0-0.9,0.4-1.2l3.3-1.9c0.1-0.1,0.2-0.2,0.2-0.3c0-0.1,0-0.2,0-0.3l-2.1-3.6
			c-0.1-0.2-0.4-0.3-0.6-0.2l-3.3,1.9c-0.4,0.2-0.9,0.1-1.2-0.2c-1-1.3-2.2-2.4-3.4-3.4c-0.4-0.3-0.5-0.8-0.2-1.2l1.9-3.3
			c0.1-0.2,0-0.5-0.2-0.6l-3.6-2.1c-0.2-0.1-0.5-0.1-0.6,0.2l-1.9,3.3c-0.2,0.4-0.7,0.6-1.2,0.4c-1.5-0.6-3.1-1-4.7-1.3
			c-0.5-0.1-0.8-0.5-0.8-0.9v-3.8c0-0.2-0.2-0.4-0.4-0.4h-4.2c-0.2,0-0.4,0.2-0.4,0.4v3.8c0,0.5-0.3,0.9-0.8,0.9
			c-1.6,0.2-3.2,0.7-4.7,1.3c-0.4,0.2-0.9,0-1.2-0.4L39,42.5c-0.1-0.1-0.2-0.2-0.3-0.2c-0.1,0-0.2,0-0.3,0l-3.6,2.1
			c-0.2,0.1-0.3,0.4-0.2,0.6l1.9,3.3c0.2,0.4,0.1,0.9-0.2,1.2c-1.3,1-2.4,2.2-3.4,3.4c-0.3,0.4-0.8,0.5-1.2,0.2l-3.3-1.9
			c-0.2-0.1-0.5,0-0.6,0.2L25.6,55c-0.1,0.1-0.1,0.3,0,0.3c0,0.1,0.1,0.2,0.2,0.3l3.3,1.9c0.4,0.2,0.6,0.7,0.4,1.2
			c-0.6,1.5-1,3.1-1.3,4.7c-0.1,0.5-0.5,0.8-0.9,0.8h-3.8c-0.2,0-0.4,0.2-0.4,0.4v4.2c0,0.2,0.2,0.4,0.4,0.4h3.8
			c0.5,0,0.9,0.3,0.9,0.8c0.2,1.6,0.7,3.1,1.3,4.7c0.2,0.4,0,0.9-0.4,1.2l-3.3,1.9c-0.1,0.1-0.2,0.2-0.2,0.3c0,0.1,0,0.2,0,0.3
			l2.1,3.6c0.1,0.2,0.4,0.3,0.6,0.2l3.3-1.9c0.4-0.2,0.9-0.1,1.2,0.2c1,1.3,2.2,2.4,3.4,3.4c0.4,0.3,0.5,0.8,0.2,1.2l-1.9,3.3
			c-0.1,0.1-0.1,0.3,0,0.3c0,0.1,0.1,0.2,0.2,0.3l3.6,2.1c0.2,0.1,0.5,0,0.6-0.2l1.9-3.3C41,87.4,41.3,87.2,41.7,87.2z"/>
	</g>
	<g class="st1">
		<ellipse transform="matrix(0.7071 -0.7071 0.7071 0.7071 -32.5226 54.9081)" class="st3" cx="50" cy="66.7" rx="15.2" ry="15.2"/>
	</g>
	<g class="st1">
		<path class="st4" d="M65.2,66.7c0-1.9-0.4-3.7-1-5.4c-1.7-0.6-3.5-1-5.4-1c-8.4,0-15.2,6.8-15.2,15.2c0,1.9,0.4,3.7,1,5.4
			c1.7,0.6,3.5,1,5.4,1C58.4,81.9,65.2,75.1,65.2,66.7z"/>
	</g>
	<g class="st1">
		<path class="st5" d="M50,82.9c-8.9,0-16.2-7.3-16.2-16.2c0-8.9,7.3-16.2,16.2-16.2c8.9,0,16.2,7.3,16.2,16.2
			C66.2,75.6,58.9,82.9,50,82.9z M50,52.4c-7.9,0-14.3,6.4-14.3,14.3S42.1,81,50,81c7.9,0,14.3-6.4,14.3-14.3S57.9,52.4,50,52.4z"/>
	</g>
	<g class="st1">
		<path class="st5" d="M60.8,66.7c0,0.7-0.6,1.3-1.3,1.3c-0.7,0-1.3-0.6-1.3-1.3c0-0.7,0.6-1.3,1.3-1.3C60.2,65.4,60.8,66,60.8,66.7
			z"/>
	</g>
	<g class="st1">
		<path class="st5" d="M41.8,66.7c0,0.7-0.6,1.3-1.3,1.3c-0.7,0-1.3-0.6-1.3-1.3c0-0.7,0.6-1.3,1.3-1.3C41.2,65.4,41.8,66,41.8,66.7
			z"/>
	</g>
	<g class="st1">
		<path class="st5" d="M50,75.7c-2.2,0-4.2-1.2-5-3.2c-0.2-0.5,0-1,0.5-1.2c0.5-0.2,1,0,1.2,0.5c0.5,1.2,1.8,2,3.3,2
			c1.9,0,3.5-1.4,3.5-3.1c0-1.4-0.6-3.1-3.5-3.1c-4,0-5.4-2.6-5.4-5c0-2.7,2.4-5,5.4-5c2.2,0,4.2,1.2,5,3.2c0.2,0.5,0,1-0.5,1.2
			c-0.5,0.2-1,0-1.2-0.5c-0.5-1.2-1.8-2-3.3-2c-1.9,0-3.5,1.4-3.5,3.1c0,1.4,0.6,3.1,3.5,3.1c4,0,5.4,2.6,5.4,5
			C55.4,73.5,53,75.7,50,75.7z"/>
	</g>
	<g class="st1">
		<path class="st5" d="M50,59.6c-0.5,0-1-0.4-1-1v-2.2c0-0.5,0.4-1,1-1c0.5,0,1,0.4,1,1v2.2C51,59.2,50.5,59.6,50,59.6z"/>
	</g>
	<g class="st1">
		<path class="st5" d="M50,77.9c-0.5,0-1-0.4-1-1v-2.2c0-0.5,0.4-1,1-1c0.5,0,1,0.4,1,1V77C51,77.5,50.5,77.9,50,77.9z"/>
	</g>
</g>
</svg>
