<?xml version="1.0" encoding="utf-8"?>
<!-- Generator: Adobe Illustrator 25.4.1, SVG Export Plug-In . SVG Version: 6.00 Build 0)  -->
<svg version="1.1" id="ELEMENTS" xmlns="http://www.w3.org/2000/svg" xmlns:xlink="http://www.w3.org/1999/xlink" x="0px" y="0px"
	 viewBox="0 0 29.2 29.2" style="enable-background:new 0 0 29.2 29.2;" xml:space="preserve">
<style type="text/css">
	.st0{fill:url(#SVGID_1_);}
	.st1{fill:#FFFFFF;}
</style>
<linearGradient id="SVGID_1_" gradientUnits="userSpaceOnUse" x1="24.9579" y1="25.1037" x2="4.2821" y2="4.4279" gradientTransform="matrix(1 0 0 -1 0 29.3858)">
	<stop  offset="0" style="stop-color:#96519C"/>
	<stop  offset="1" style="stop-color:#681785"/>
</linearGradient>
<circle class="st0" cx="14.6" cy="14.6" r="14.6"/>
<path class="st1" d="M23,19.7l-4.9-5l4.9-5L23,19.7C23,19.7,23,19.7,23,19.7z M7.2,20.6l4.9-5l1.1,1.1c0.4,0.4,0.9,0.7,1.5,0.7
	c0.6,0,1.1-0.3,1.5-0.7l1.1-1.1l4.9,5H7.2L7.2,20.6z M22.1,8.6l-7,7.2C15,16,14.9,16,14.6,16c-0.2,0-0.4-0.1-0.5-0.2l-7-7.2
	C7.1,8.6,22.1,8.6,22.1,8.6z M6.3,9.7l4.9,5l-4.9,5C6.3,19.7,6.3,9.7,6.3,9.7z"/>
</svg>
