<svg id="ELEMENTS" xmlns="http://www.w3.org/2000/svg" xmlns:xlink="http://www.w3.org/1999/xlink" viewBox="0 0 29.24 29.24"><defs><style>.cls-1{fill:url(#未命名漸層_2);}.cls-2{fill:#fff;}</style><linearGradient id="未命名漸層_2" x1="6.11" y1="23.71" x2="26.09" y2="2.36" gradientUnits="userSpaceOnUse"><stop offset="0" stop-color="#fbe18a"/><stop offset="0.06" stop-color="#fbce68"/><stop offset="0.11" stop-color="#fcc04e"/><stop offset="0.14" stop-color="#fcbb45"/><stop offset="0.43" stop-color="#f75274"/><stop offset="0.55" stop-color="#d53692"/><stop offset="0.89" stop-color="#8f39ce"/><stop offset="1" stop-color="#5b4fe9"/></linearGradient></defs><circle class="cls-1" cx="14.62" cy="14.62" r="14.62"/><path class="cls-2" d="M19.16,9.09a1,1,0,1,0,1,1A1,1,0,0,0,19.16,9.09Z"/><path class="cls-2" d="M14.69,10.38a4.22,4.22,0,1,0,4.22,4.22A4.22,4.22,0,0,0,14.69,10.38Zm0,6.93A2.71,2.71,0,1,1,17.4,14.6,2.71,2.71,0,0,1,14.69,17.31Z"/><path class="cls-2" d="M18,23.17H11.2A5.16,5.16,0,0,1,6.05,18V11.18A5.16,5.16,0,0,1,11.2,6H18a5.16,5.16,0,0,1,5.15,5.15V18A5.16,5.16,0,0,1,18,23.17ZM11.2,7.64a3.55,3.55,0,0,0-3.54,3.54V18a3.55,3.55,0,0,0,3.54,3.54H18A3.55,3.55,0,0,0,21.58,18V11.18A3.55,3.55,0,0,0,18,7.64Z"/></svg>