<?xml version="1.0" encoding="utf-8"?>
<!-- Generator: Adobe Illustrator 25.4.1, SVG Export Plug-In . SVG Version: 6.00 Build 0)  -->
<svg version="1.1" id="圖層_1" xmlns="http://www.w3.org/2000/svg" xmlns:xlink="http://www.w3.org/1999/xlink" x="0px" y="0px"
	 viewBox="0 0 595.3 162.5" style="enable-background:new 0 0 595.3 162.5;" xml:space="preserve">
<style type="text/css">
	.st0{fill:#FFFFFF;}
</style>
<g>
	<g>
		<g>
			<path class="st0" d="M318.6,54.1h-18.9v25.5h-8.1v15h8.1v54.6h18.9V94.6h14.7v-15h-14.7V54.1z M395.2,134
				c-3.1,1.9-7,2.9-11.7,2.9c-6.1,0-11-1.7-14.9-5c-3.9-3.4-6.1-7.9-6.6-13.7h58.7l0.1-3.8c0-11.5-3.5-20.5-10.4-27
				c-7-6.5-16.5-9.8-28.6-9.8c-11.9,0-21.5,3.4-28.8,10.1c-7.2,6.8-10.8,15.7-10.8,26.7c0,11.1,3.7,20,11.1,26.7
				c7.4,6.7,17.2,10,29.4,10c4.3,0,8.2-0.4,11.9-1.1c3.6-0.8,7-2,10.2-3.6c3.1-1.6,6.1-3.7,8.8-6.3c2.7-2.5,5.4-5.6,7.8-9.2l-16-7.6
				C401.7,128.6,398.2,132.1,395.2,134z M366,99.7c1.2-1.6,2.6-2.9,4.2-4c1.7-1.1,3.5-2,5.5-2.6c2-0.6,4.2-0.9,6.5-0.9
				c10.1,0,16.5,4.3,19.1,12.9h-38C363.9,103,364.8,101.3,366,99.7z M445.5,88.4c-8.6,7.1-13,15.9-13,26.3
				c0,10.4,4.3,19.1,12.8,26.1c8.5,7,19.1,10.4,31.8,10.4c7.7,0,15.4-1.7,23-5.1v-21.2c-4.5,4.7-8.5,7.8-11.9,9.4
				c-3.5,1.7-7.5,2.5-12,2.5c-7.1,0-13-2.1-17.6-6.3c-4.5-4.2-6.8-9.6-6.8-16.1c0-6.4,2.4-11.7,7.1-15.9c4.7-4.2,10.6-6.4,17.7-6.4
				c4.5,0,8.5,0.9,11.9,2.6c3.4,1.7,7.3,4.7,11.6,9.2V82.6c-7.2-3.3-14.8-4.9-22.9-4.9C464.8,77.7,454.2,81.2,445.5,88.4z
				 M579.5,85.3c-5.6-5.1-13-7.6-22.2-7.6c-8.1,0-15.6,2.6-22.3,7.7V28.5H516v120.7H535v-33.7c0-8.6,1.3-14.6,4-18.2
				c2.7-3.5,7.3-5.2,14-5.2c5.2,0,8.9,1.3,11.2,3.8c2.3,2.5,3.5,6.5,3.5,12.1v41.2h18.9v-42.7C586.5,96.8,584.2,89.7,579.5,85.3z"/>
		</g>
	</g>
	<g>
		<path class="st0" d="M197.3,11.2H9.8c-2.1,0-1.1,2.7,2,5.8l25.5,25.6c1.3,1.3,3.4,2.4,4.6,2.4h32.9v102.5c0,2.1,1.7,3.7,3.7,3.7
			h32.5c2.1,0,3.7-1.7,3.7-3.7V45h39.9c1.2,0,3.6-1,5.3-2.4L193.5,17C197.6,13.9,199.4,11.2,197.3,11.2z"/>
		<path class="st0" d="M279.9,147.5l-79-66.2l79-66.3c2.5-2.1,2.8-3.7,0.7-3.7h-53.7c-2.1,0-5.8,1.7-8.2,3.7l-76,63.7
			c-1.9,1.6-2.3,2.9-1.6,3.5c0,0,0,0.1,0,0.1l77.6,65.2c2.5,2.1,6.1,3.7,8.2,3.7h53.7C282.7,151.2,282.3,149.5,279.9,147.5z"/>
	</g>
</g>
</svg>
