<svg id="圖層_1" data-name="圖層 1" xmlns="http://www.w3.org/2000/svg" xmlns:xlink="http://www.w3.org/1999/xlink" viewBox="0 0 2497 700"><defs><style>.cls-1{fill:none;}.cls-2{fill:url(#未命名漸層_43);}.cls-3{fill:#fff;}</style><linearGradient id="未命名漸層_43" x1="149.42" y1="548.85" x2="562.57" y2="135.71" gradientUnits="userSpaceOnUse"><stop offset="0" stop-color="#f7931e"/><stop offset="0.64" stop-color="#f04422"/><stop offset="1" stop-color="#ed1c24"/></linearGradient></defs><rect class="cls-1" width="2497" height="700"/><path class="cls-2" d="M139.61,319.58C197.48,222.47,265.89,204.1,265.89,204.1S160.66,275,147.51,387.82s79,171.42,194.66,144.34C505,494.06,579,357.65,579,357.65s-29.49,114.92-142.06,195C319.82,635.87,196.19,592.88,149.6,549c-45.65-43.05-67.86-132.27-10-229.38m394.57,23.49C401.62,470,222.77,473.89,222.77,473.89l103.79-280.7L454.81,313.45a335.9,335.9,0,0,0,33.76-28.28c42.91-40.92,83.79-120.42-17.23-149.21-114.73-32.71-232.18,24.53-232.18,24.53C278.41,124,363.76,100,438.49,100c32.58,0,63.15,4.57,87,14.66C576.31,136.18,670.75,212.26,534.18,343.07ZM401,346.7,343,291.29,310.9,382C353.38,369.06,380.41,357.51,401,346.7Z"/><path class="cls-3" d="M785.11,206.46h-20L565.36,514.74h38.41l62.65-96.42H782.1l27.18,96.42h63.26Zm-12.06,180.4H686.5L746.74,294ZM997,244.28,981,335.1h101.79l-5.51,31.23H975.52L954.86,483.52h152.32l-5.51,31.22H888.1l53.19-301.68h213.58l-5.51,31.22Z"/><polygon class="cls-3" points="1741.14 213.13 1717.86 345.16 1585.24 345.16 1608.52 213.13 1547.01 213.13 1493.73 515.28 1555.24 515.28 1579.73 376.41 1712.34 376.41 1687.86 515.28 1730.59 515.28 1783.87 213.13 1741.14 213.13"/><path class="cls-3" d="M1952.22,488.89c-.84-1.57-1.57-3.23-2.34-4.86H1818.12l20.7-117.4h102l5.52-31.25h-102l16-91H1989a116.61,116.61,0,0,1,28.13-30.3c.44-.32.91-.6,1.35-.92v0H1804.37l-53.28,302.15h220.75l.17-1A93.45,93.45,0,0,1,1952.22,488.89Z"/><path class="cls-3" d="M2178.56,402.86a76.67,76.67,0,0,0-15.87-24.79,140.74,140.74,0,0,0-24-20.11c-8.79-5.9-18-11.65-27.31-17.08s-18.28-10.67-27.13-15.87a171,171,0,0,1-22.57-15.67,59.11,59.11,0,0,1-14-16.1,24.15,24.15,0,0,1-2.56-16.69,39.05,39.05,0,0,1,5.38-13.67,47.35,47.35,0,0,1,11.26-12.4,58.6,58.6,0,0,1,17-9,69.21,69.21,0,0,1,22.57-3.44c9.46,0,17.75,1.3,24.65,3.87a49.38,49.38,0,0,1,17.3,10.71,52.77,52.77,0,0,1,11.43,16.81,92.63,92.63,0,0,1,6.36,22.87l1.22,8.09.2-.08A98.71,98.71,0,0,1,2164,286a113.62,113.62,0,0,1,15.18-40c1.72-2.79,3.59-5.48,5.55-8.12a71.36,71.36,0,0,0-11.84-12.65c-15-12.41-37.14-18.7-65.91-18.7a144.36,144.36,0,0,0-43.28,6.16,114.4,114.4,0,0,0-34.51,17.37,96.51,96.51,0,0,0-24.26,26.43,93.71,93.71,0,0,0-12.51,33c-2.14,12.12-1.49,23.09,2,32.59a75.18,75.18,0,0,0,15.18,25.08,122,122,0,0,0,23.34,19.75c8.73,5.74,17.77,11.25,26.87,16.36s17.94,10.19,26.56,15.23a128.82,128.82,0,0,1,21.5,15.5,56.19,56.19,0,0,1,13.16,17.11c2.77,5.76,3.48,12.22,2.15,19.75a37.78,37.78,0,0,1-7.22,16.67,53.2,53.2,0,0,1-14,12.67,67.49,67.49,0,0,1-18.52,7.93,78.13,78.13,0,0,1-20.15,2.72c-17.67,0-31.69-4.65-42.85-14.24-11-9.43-17.79-23-20.22-40.45l-1.1-7.88-40.42,15.5,1,5.18a105.7,105.7,0,0,0,10.36,30.53,73.31,73.31,0,0,0,19.29,23.27A84.19,84.19,0,0,0,2018,517.21c11,3.26,23.86,4.91,38.26,4.91,17.7,0,34-2.32,48.31-6.9s27.09-10.94,37.55-18.83a101.32,101.32,0,0,0,25.81-28.15A98.82,98.82,0,0,0,2181,433.76C2183,422.54,2182.17,412.14,2178.56,402.86Z"/><path class="cls-3" d="M2353.63,378.07a141.42,141.42,0,0,0-24-20.11c-8.79-5.9-18-11.65-27.32-17.08s-18.27-10.67-27.12-15.87a171.22,171.22,0,0,1-22.57-15.67,59.34,59.34,0,0,1-14-16.1,24.18,24.18,0,0,1-2.56-16.69,39.24,39.24,0,0,1,5.38-13.67,47.57,47.57,0,0,1,11.27-12.4,58.47,58.47,0,0,1,17-9,69.19,69.19,0,0,1,22.56-3.44c9.46,0,17.76,1.3,24.65,3.87a49.42,49.42,0,0,1,17.31,10.71,53,53,0,0,1,11.43,16.81,91.94,91.94,0,0,1,6.35,22.87l1.22,8.1,39-16.62-.71-4.83c-3.41-23.17-12.76-41.24-27.8-53.71s-37.15-18.7-65.92-18.7a144.48,144.48,0,0,0-43.29,6.16,114.7,114.7,0,0,0-34.5,17.37,96.51,96.51,0,0,0-24.26,26.43,93.85,93.85,0,0,0-12.52,33c-2.14,12.14-1.48,23.11,2,32.59a75.08,75.08,0,0,0,15.18,25.08,122.14,122.14,0,0,0,23.34,19.75c8.68,5.72,17.73,11.22,26.87,16.36s17.94,10.19,26.55,15.23a128.82,128.82,0,0,1,21.51,15.5,56,56,0,0,1,13.15,17.11c2.77,5.76,3.48,12.22,2.15,19.76a37.65,37.65,0,0,1-7.21,16.66,53.2,53.2,0,0,1-14,12.67,67.69,67.69,0,0,1-18.51,7.93,78.81,78.81,0,0,1-20.16,2.72c-17.44,0-31.85-4.79-42.85-14.24A55.14,55.14,0,0,1,2196,455.18a119.81,119.81,0,0,1-11,23.5,118.26,118.26,0,0,1-12.6,16.87,71.5,71.5,0,0,0,7.73,7.23,84.23,84.23,0,0,0,28.76,14.43c11,3.26,23.86,4.91,38.27,4.91,17.7,0,33.95-2.32,48.31-6.9s27.08-10.94,37.55-18.83a101.32,101.32,0,0,0,25.81-28.15,98.6,98.6,0,0,0,13.12-34.48c2-11.22,1.16-21.62-2.44-30.9A77,77,0,0,0,2353.63,378.07Z"/><path class="cls-3" d="M1488.78,427.13l1.42-8.12-3.7,5.46a167.08,167.08,0,0,1-19.31,23.31,171.83,171.83,0,0,1-24.63,20.75,133.18,133.18,0,0,1-27.68,14.7,78,78,0,0,1-28.09,5.44c-16.16,0-30.78-2.82-43.44-8.38a79.46,79.46,0,0,1-31-23.67c-8.07-10.25-13.67-23.05-16.65-38-3-15.18-2.83-32.78.61-52.3s9.61-37.39,18.27-52.91A153.17,153.17,0,0,1,1346,273.58a132.61,132.61,0,0,1,40.69-25,128.53,128.53,0,0,1,46.38-8.62c17.78,0,32.8,5,44.64,14.9,12.1,10.11,22,26.51,29.55,48.76l2.14,6.33,10.73-60.88a124.31,124.31,0,0,0-20.49-18.62,129.16,129.16,0,0,0-34.21-17.37c-12.82-4.36-27.4-6.58-43.36-6.58a195.59,195.59,0,0,0-70.71,12.78,207.63,207.63,0,0,0-58.76,34.3,199.48,199.48,0,0,0-42.92,50.13,176.34,176.34,0,0,0-22.81,60.35c-3.73,21.15-3.27,41.52,1.36,60.54a122.45,122.45,0,0,0,25.26,50.5c12.1,14.38,27.88,25.94,46.89,34.35s41.08,12.65,65.83,12.65a170.9,170.9,0,0,0,48-6.49,182.73,182.73,0,0,0,40.37-17.11,191,191,0,0,0,24.57-16.94Z"/></svg>