<?xml version="1.0" encoding="utf-8"?>
<!-- Generator: Adobe Illustrator 24.2.3, SVG Export Plug-In . SVG Version: 6.00 Build 0)  -->
<svg version="1.1" id="圖層_1" xmlns="http://www.w3.org/2000/svg" xmlns:xlink="http://www.w3.org/1999/xlink" x="0px" y="0px"
	 viewBox="0 0 143 35" style="enable-background:new 0 0 143 35;" xml:space="preserve">
<style type="text/css">
	.st0{fill:none;}
	.st1{fill:url(#SVGID_1_);}
	.st2{fill:#FFFFFF;}
</style>
<desc>Created with Sketch.</desc>
<g>
	<rect x="-6.3" y="-6.5" class="st0" width="85.7" height="48"/>
	<g>
		<linearGradient id="SVGID_1_" gradientUnits="userSpaceOnUse" x1="3.6483" y1="31.1336" x2="31.9744" y2="2.8076">
			<stop  offset="0" style="stop-color:#EC8F26"/>
			<stop  offset="0.6" style="stop-color:#E34D26"/>
			<stop  offset="1" style="stop-color:#DD2526"/>
		</linearGradient>
		<path class="st1" d="M3,15.4c4-6.7,8.7-7.9,8.7-7.9s-7.2,4.9-8.1,12.6C2.6,27.8,8.9,31.8,16.9,30C28,27.4,33.1,18,33.1,18
			s-2,7.9-9.7,13.4c-8,5.7-16.5,2.8-19.7-0.3C0.5,28.2-1,22.1,3,15.4 M30,17c-9.1,8.7-21.4,9-21.4,9l7.1-19.2l8.8,8.2
			c0.8-0.6,1.6-1.2,2.3-1.9c2.9-2.8,5.7-8.3-1.2-10.2C17.9,0.6,9.8,4.5,9.8,4.5c2.7-2.5,8.5-4.1,13.7-4.1c2.2,0,4.3,0.3,6,1
			C32.9,2.8,39.4,8.1,30,17z M20.9,17.3l-4-3.8l-2.2,6.2C17.6,18.8,19.5,18,20.9,17.3z"/>
		<path class="st2" d="M47.2,7.7h-1.4L32.2,28.8h2.6l4.3-6.6H47l1.9,6.6h4.3L47.2,7.7z M46.4,20h-5.9l4.1-6.4L46.4,20z M61.8,10.3
			l-1.1,6.2h7l-0.4,2.1h-7l-1.4,8h10.4l-0.4,2.1H54.3l3.6-20.7h14.6l-0.4,2.1H61.8z"/>
	</g>
</g>
</svg>
