<svg id="圖層_1" data-name="圖層 1" xmlns="http://www.w3.org/2000/svg" xmlns:xlink="http://www.w3.org/1999/xlink" viewBox="0 0 1972 700"><defs><style>.cls-1{fill:none;}.cls-2{fill:url(#未命名漸層_43);}.cls-3{fill:#fff;}</style><linearGradient id="未命名漸層_43" x1="149.41" y1="548.85" x2="562.55" y2="135.71" gradientUnits="userSpaceOnUse"><stop offset="0" stop-color="#f7931e"/><stop offset="0.64" stop-color="#f04422"/><stop offset="1" stop-color="#ed1c24"/></linearGradient></defs><rect class="cls-1" width="1972" height="700"/><path class="cls-2" d="M139.6,319.58C197.47,222.47,265.88,204.1,265.88,204.1S160.65,275,147.5,387.82s78.94,171.42,194.66,144.34C505,494.06,578.94,357.65,578.94,357.65s-29.49,114.92-142.07,195C319.81,635.87,196.18,592.88,149.59,549c-45.66-43.05-67.86-132.27-10-229.38m394.56,23.49C401.6,470,222.76,473.89,222.76,473.89l103.79-280.7L454.8,313.45a335.9,335.9,0,0,0,33.76-28.28c42.91-40.92,83.79-120.42-17.24-149.21-114.72-32.71-232.17,24.53-232.17,24.53C278.4,124,363.75,100,438.48,100c32.58,0,63.15,4.57,87,14.66C576.3,136.18,670.74,212.26,534.16,343.07ZM401,346.7,343,291.29,310.89,382C353.36,369.06,380.4,357.51,401,346.7Z"/><path class="cls-3" d="M785.09,206.46h-20L565.35,514.74h38.41l62.65-96.42H782.09l27.18,96.42h63.26ZM773,386.86H686.49L746.73,294ZM997,244.28,981,335.1h101.78l-5.5,31.23H975.51L954.85,483.52h152.31l-5.5,31.22H888.09l53.19-301.68h213.58l-5.52,31.22Z"/><path class="cls-3" d="M1188.82,498.52h-43l44.69-200.64h43.68ZM1321,232.28l-8.45,48h-20.77L1280.7,343l18.72,19.75-12.19,69.11-19.09-17.63-17.72,100.51h-52.28l41.35-234.5h-48l8.45-48h48l4.47-25.39h52.28l-4.48,25.39Zm-38,284.58,8.39-47.6,84.13-14.11-8.89,50.43Zm200.68-63.12H1294.12l8.45-48h16.48l23.62-134h-17.9l8.46-48h17.9l3-16.93h52.28l-3,16.93h54.92l3-16.93h50.84l-3,16.93h16.47l-8.46,48h-16.47l-23.63,134h15Zm-57.42-48,2.24-12.69h-54.93l-2.24,12.69Zm-42-73.35-2.24,12.7h54.92l2.24-12.7ZM1395,271.78l-2.24,12.69h54.92l2.24-12.69Zm76,245.78-77.26-12.69,8.77-49.72,77,14.11Z"/><path class="cls-3" d="M1578.42,359.94h62.8l-27.3,154.81h-45.83L1587.8,403h-17L1564.12,441l-23.74,73.71h-47.26l24.48-77.93,38.8-220h47.26l-13.8,78.28h15l15.55-88.16h45.83l-15.55,88.16H1657l-7.59,43h-67.09Zm59.12,81.81h93.09l4.36-24.69h50.13l-4.36,24.69h55.86l-7.46,42.32H1773.3l-5.41,30.68h-50.13l5.41-30.68h-93.1Zm117.4-44.43-42.49,33.85h-60.87l42.49-33.85h-44.41L1680.76,221h63.74l9.64-14.11h53L1798.21,221h74.48l-31.1,176.32Zm-25.85-40.2,4.6-26.1h-25.07l-4.6,26.1Zm-8.66-93.1-4.35,24.68h25.07L1745.5,264Zm81,93.1L1806,331h-26.5l-4.6,26.1ZM1791.33,264,1787,288.7h26.5l4.35-24.68Z"/></svg>