<svg id="圖層_1" data-name="圖層 1" xmlns="http://www.w3.org/2000/svg" xmlns:xlink="http://www.w3.org/1999/xlink" viewBox="0 0 1972 700"><defs><style>.cls-1{fill:none;}.cls-2{fill:url(#未命名漸層_43);}.cls-3{fill:#fff;}</style><linearGradient id="未命名漸層_43" x1="149.41" y1="548.85" x2="562.55" y2="135.71" gradientUnits="userSpaceOnUse"><stop offset="0" stop-color="#f7931e"/><stop offset="0.64" stop-color="#f04422"/><stop offset="1" stop-color="#ed1c24"/></linearGradient></defs><rect class="cls-1" width="1972" height="700"/><path class="cls-2" d="M139.6,319.58C197.47,222.47,265.88,204.1,265.88,204.1S160.65,275,147.5,387.82s78.94,171.42,194.66,144.34C505,494.06,578.94,357.65,578.94,357.65s-29.49,114.92-142.07,195C319.81,635.87,196.18,592.88,149.59,549c-45.66-43.05-67.86-132.27-10-229.38m394.56,23.49C401.6,470,222.76,473.89,222.76,473.89l103.79-280.7L454.8,313.45a335.9,335.9,0,0,0,33.76-28.28c42.91-40.92,83.79-120.42-17.24-149.21-114.72-32.71-232.17,24.53-232.17,24.53C278.4,124,363.75,100,438.48,100c32.58,0,63.15,4.57,87,14.66C576.3,136.18,670.74,212.26,534.16,343.07ZM401,346.7,343,291.29,310.89,382C353.36,369.06,380.4,357.51,401,346.7Z"/><path class="cls-3" d="M785.09,206.46h-20L565.35,514.74h38.41l62.65-96.42H782.09l27.18,96.42h63.26ZM773,386.86H686.49L746.73,294ZM997,244.28,981,335.1h101.78l-5.5,31.23H975.51L954.85,483.52h152.31l-5.5,31.22H888.09l53.19-301.68h213.58l-5.52,31.22Z"/><path class="cls-3" d="M1186.5,498.5h-43.57l43.43-189.57h42.14Zm133.81-211.85h-32.85l-9.17,51.83,26.06,34.46L1292,443.29l-26.06-34.47-18.67,105.86h-51.43l40.24-228h-52.86l8.19-46.43h52.85l6-33.76h51.43l-5.95,33.76h32.85Zm39.93,146.08-44.45,81.95h-53.57l48.33-91.79,37.06-209.77,181-5.62-8.43,47.83-129.32,4.22-5.56,31.09h124.28l-11.78,66.83-50.85,69.64,38.85,87.57h-59.28l-18.34-41.86-31,41.86h-57.85l66.74-86.87-17.19-44.31ZM1373,360.28h42.87l10.43,21.8,19.37-28.83,2.85-16.18h-71.42Z"/><path class="cls-3" d="M1500.57,511.87l9-51,34.47-9.15,13.89-78.78h-24.28l8.43-47.83h24.29L1577.75,261h-28.58l8.44-47.83H1669L1660.6,261h-31.43l-11.39,64.16h24.29l-8.43,47.83h-24.29l-11.41,64.72,34.59-9.85-9.18,52.06Zm165-206.45h52.15l5.16,59.78,11-9.84L1745,292.27h-79.28l8.44-47.83h79.28l6.7-38H1813l-6.69,38h66.5l-8.44,47.83h-66.5L1788,348.32l7.42,10.55,25.15-53.45h52.15l-47.5,99.18,24.27,36.57-13.34,75.63-61.23-86.18-14.82,84.06h-72.14l8.24-46.78h19.29l6.57-37.28-93.89,86.87,13.71-77.72,66.51-61.2H1670.5Zm154.39-71.71,4.79-27.25h47.14l-4.79,27.25Z"/></svg>