<svg id="圖層_1" data-name="圖層 1" xmlns="http://www.w3.org/2000/svg" xmlns:xlink="http://www.w3.org/1999/xlink" viewBox="0 0 2775 700"><defs><style>.cls-1{fill:none;}.cls-2{fill:url(#未命名漸層_43);}.cls-3{fill:#fff;}</style><linearGradient id="未命名漸層_43" x1="149.25" y1="548.85" x2="562.39" y2="135.71" gradientUnits="userSpaceOnUse"><stop offset="0" stop-color="#f7931e"/><stop offset="0.64" stop-color="#f04422"/><stop offset="1" stop-color="#ed1c24"/></linearGradient></defs><rect class="cls-1" width="2775" height="700"/><path class="cls-2" d="M139.43,319.58C197.3,222.47,265.71,204.1,265.71,204.1S160.48,275,147.33,387.82,226.28,559.24,342,532.16c162.79-38.1,236.78-174.51,236.78-174.51s-29.49,114.92-142.06,195C319.64,635.87,196,592.88,149.43,549c-45.66-43.05-67.87-132.27-10-229.38M534,343.07C401.44,470,222.59,473.89,222.59,473.89l103.8-280.7L454.64,313.45a334.68,334.68,0,0,0,33.75-28.28c42.92-40.92,83.79-120.42-17.23-149.21C356.44,103.25,239,160.49,239,160.49,278.23,124,363.58,100,438.31,100c32.58,0,63.15,4.57,87,14.66C576.14,136.18,670.58,212.26,534,343.07ZM400.85,346.7l-58.06-55.41L310.72,382C353.2,369.06,380.24,357.51,400.85,346.7Z"/><path class="cls-3" d="M784.93,206.46h-20L565.18,514.74h38.41l62.65-96.42H781.92l27.18,96.42h63.27Zm-12.06,180.4H686.32L746.56,294Zm224-142.58-16,90.82h101.78l-5.5,31.23H975.35L954.68,483.52H1107l-5.5,31.22H887.92l53.2-301.68h213.57l-5.51,31.22Z"/><path class="cls-3" d="M1482.19,497.1l8.37-47.44a172.72,172.72,0,0,1-22.48,18.75,133.36,133.36,0,0,1-27.67,14.7,78.13,78.13,0,0,1-28.1,5.44c-16.16,0-30.78-2.82-43.44-8.39a79.42,79.42,0,0,1-31-23.66c-8.06-10.25-13.66-23.05-16.64-38-3-15.18-2.84-32.78.61-52.31s9.6-37.38,18.27-52.9a153,153,0,0,1,31.42-39.79,132.3,132.3,0,0,1,40.69-25,128.49,128.49,0,0,1,46.38-8.62c17.78,0,32.8,5,44.64,14.9,6.58,5.5,12.49,12.92,17.75,22.07l7.69-43.63c-1.19-.93-2.28-2-3.51-2.85A129.37,129.37,0,0,0,1491,213c-12.82-4.36-27.4-6.58-43.36-6.58a195.63,195.63,0,0,0-70.71,12.78,207.43,207.43,0,0,0-58.75,34.3,199.31,199.31,0,0,0-42.93,50.13,176.34,176.34,0,0,0-22.8,60.34c-3.73,21.16-3.28,41.53,1.35,60.55a122.63,122.63,0,0,0,25.26,50.5c12.1,14.38,27.88,25.94,46.9,34.35S1367,522,1391.77,522a170.84,170.84,0,0,0,48-6.49,182.32,182.32,0,0,0,40.37-17.11C1480.84,498,1481.49,497.52,1482.19,497.1Z"/><path class="cls-3" d="M1699.22,363.52a127.25,127.25,0,0,0,26.7-17.24,95.09,95.09,0,0,0,19.57-22.67,78,78,0,0,0,10.42-27.39c2.09-11.85,1.61-23-1.42-33.22A57,57,0,0,0,1737,236.08c-8.26-7.25-19.19-13-32.47-17-13-3.9-28.69-5.88-46.68-5.88H1552.55l-53.28,302.15h61.52l24-136.19h25l76.47,136.19h71.11l-81.87-142.84A144,144,0,0,0,1699.22,363.52ZM1608.64,244h37.48a55.26,55.26,0,0,1,21.46,3.9,39.22,39.22,0,0,1,14.79,10.5,37.84,37.84,0,0,1,8,16,51.59,51.59,0,0,1,.25,21.12,59.53,59.53,0,0,1-9.28,23.23,68.84,68.84,0,0,1-17.71,17.91,83.09,83.09,0,0,1-24.42,11.46,104.81,104.81,0,0,1-29.3,4h-20.33Z"/><polygon class="cls-3" points="1791.1 213.01 1747.81 458.51 1780.28 515.16 1780.28 515.16 1833.55 213.01 1791.1 213.01"/><polygon class="cls-3" points="2485.32 213.01 2479.81 244.26 2530.4 244.26 2482.64 515.16 2544.15 515.16 2591.91 244.26 2667.19 244.26 2672.71 213.01 2485.32 213.01"/><polygon class="cls-3" points="2335.57 483.91 2356.26 366.51 2437.71 366.51 2443.22 335.26 2361.78 335.26 2377.82 244.26 2459.26 244.26 2464.77 213.01 2321.82 213.01 2280.4 447.91 2318.95 515.16 2462.02 515.16 2467.53 483.91 2335.57 483.91"/><path class="cls-3" d="M2057.66,497.14l8.36-47.41a171.56,171.56,0,0,1-22.41,18.68,133.36,133.36,0,0,1-27.67,14.7,78.12,78.12,0,0,1-28.09,5.44c-16.17,0-30.79-2.82-43.45-8.39a79.42,79.42,0,0,1-31-23.66c-8.06-10.25-13.66-23.05-16.64-38-3-15.18-2.84-32.78.61-52.31s9.6-37.38,18.27-52.9a153.17,153.17,0,0,1,31.42-39.79,132.3,132.3,0,0,1,40.69-25,128.49,128.49,0,0,1,46.38-8.62c17.78,0,32.8,5,44.64,14.9,6.56,5.48,12.46,12.88,17.71,22l7.68-43.59c-1.18-.92-2.25-1.93-3.46-2.81A129.37,129.37,0,0,0,2066.52,213c-12.82-4.36-27.4-6.58-43.36-6.58a195.63,195.63,0,0,0-70.71,12.78,207.43,207.43,0,0,0-58.75,34.3,199.31,199.31,0,0,0-42.93,50.13A176.55,176.55,0,0,0,1828,364c-3.73,21.16-3.28,41.53,1.35,60.55a122.63,122.63,0,0,0,25.26,50.5c12.1,14.38,27.88,25.94,46.9,34.35S1942.55,522,1967.3,522a170.84,170.84,0,0,0,48-6.49,182.32,182.32,0,0,0,40.37-17.11C2056.35,498,2057,497.54,2057.66,497.14Z"/><polygon class="cls-3" points="2198.41 346.98 2292.48 263.3 2301.29 213.01 2168.94 330.73 2168.83 330.67 2189.54 213.21 2128.03 213.21 2074.75 515.36 2136.26 515.36 2157.36 395.73 2224.92 515.39 2296.03 515.39 2199.99 347.85 2198.41 346.98"/></svg>