<svg id="圖層_1" data-name="圖層 1" xmlns="http://www.w3.org/2000/svg" xmlns:xlink="http://www.w3.org/1999/xlink" viewBox="0 0 2775 700"><defs><style>.cls-1{fill:none;}.cls-2{fill:url(#未命名漸層_43);}.cls-3{fill:#fff;}</style><linearGradient id="未命名漸層_43" x1="149.25" y1="548.85" x2="562.39" y2="135.71" gradientUnits="userSpaceOnUse"><stop offset="0" stop-color="#f7931e"/><stop offset="0.64" stop-color="#f04422"/><stop offset="1" stop-color="#ed1c24"/></linearGradient></defs><rect class="cls-1" width="2775" height="700"/><path class="cls-2" d="M139.43,319.58C197.3,222.47,265.71,204.1,265.71,204.1S160.48,275,147.33,387.82,226.28,559.24,342,532.16c162.79-38.1,236.78-174.51,236.78-174.51s-29.49,114.92-142.06,195C319.64,635.87,196,592.88,149.43,549c-45.66-43.05-67.87-132.27-10-229.38M534,343.07C401.44,470,222.59,473.89,222.59,473.89l103.8-280.7L454.64,313.45a334.68,334.68,0,0,0,33.75-28.28c42.92-40.92,83.79-120.42-17.23-149.21C356.44,103.25,239,160.49,239,160.49,278.23,124,363.58,100,438.31,100c32.58,0,63.15,4.57,87,14.66C576.14,136.18,670.58,212.26,534,343.07ZM400.85,346.7l-58.06-55.41L310.72,382C353.2,369.06,380.24,357.51,400.85,346.7Z"/><path class="cls-3" d="M784.93,206.46h-20L565.18,514.74h38.41l62.65-96.42H781.92l27.18,96.42h63.27Zm-12.06,180.4H686.32L746.56,294Zm224-142.58-16,90.82h101.78l-5.5,31.23H975.35L954.68,483.52H1107l-5.5,31.22H887.92l53.2-301.68h213.57l-5.51,31.22Z"/><path class="cls-3" d="M2627.76,346.15c2.36-19.58-.81-36.33-12.87-49.59s-29.92-20.22-49.31-21.48c-3.31-.17-6.82-.2-10.45-.1l.08-.06h-267a69.51,69.51,0,0,1,10.09,7.31A59.6,59.6,0,0,1,2316,308.55h46.79l-36.39,205.93h42.49l36.38-205.93h72.86A77.23,77.23,0,0,0,2465,333.2c-6.53,21.48-3,41.06,11.8,52.43,13.43,10.43,30.38,19.27,47,25,21.32,7.58,42.68,16.74,51.14,23.06,7.92,6,9.91,15.48,7.8,24.64-2.47,9.47-9.33,18.63-19.19,24.32a73.87,73.87,0,0,1-38.81,10.11c-14.5-.32-27.33-5.37-34.15-18-6.92-12-6.57-28.43-2.66-44.85h-44c-5.66,23.37-2.93,44.54,10,59.7,13.23,15.16,35.49,22.42,56,24.32,22.21,2.21,52.25-1.58,74.29-12.64,19.79-10.1,34.63-29.69,39.38-51.17,4.54-20.21,1.71-40.75-12.94-52.75-13.32-11.05-33.38-20.85-51.94-27.16-16.88-5.69-31.63-11.69-42.9-19-8.57-5.68-10.66-14.53-8.31-23.37,2.06-8.85,8.63-18,17.06-24a49,49,0,0,1,36.55-7.26c11.22,2.21,18.3,7.89,22,16.11,3.88,8.84,4,20.53,1,33.48Z"/><path class="cls-3" d="M1428.5,506.12l0-.06,0-.06a83.59,83.59,0,0,1-14.76-25.15H1274.3l14-79.37H1390l5.94-33.63H1294.26l10.49-59.3h131a108.6,108.6,0,0,1,4.8-28q.87-2.81,1.9-5.6H1269.79l-42.33,239.56h209.43A87.14,87.14,0,0,1,1428.5,506.12Z"/><path class="cls-3" d="M1669.71,400.92c-.38-1.53-.82-3-1.31-4.52s-1-2.93-1.63-4.36a55.14,55.14,0,0,0-4.25-8.18,50.88,50.88,0,0,0-10.79-12.21c-11.28-9.36-26.13-18.06-41.83-25.36q-2.36-1.1-4.73-2.14c-4.75-2.11-9.55-4.08-14.33-5.89-2.39-.91-4.78-1.78-7.15-2.61l-2.36-.82c-2.86-1-5.68-1.93-8.44-2.91q-8.3-2.94-16-6c-12.78-5.13-24.17-10.61-33.72-16.77a29,29,0,0,1-7.78-7.42c-.43-.61-.83-1.24-1.2-1.87a26,26,0,0,1-1.85-3.93,27.39,27.39,0,0,1-1.65-9.54c0-.36,0-.73,0-1.1,0-.73.08-1.47.16-2.22a36,36,0,0,1,1-5.6,51.15,51.15,0,0,1,8.33-17.72A64,64,0,0,1,1535,244.92a63.1,63.1,0,0,1,15.23-7.5c1.08-.37,2.16-.71,3.25-1q3.29-.93,6.61-1.53,1.53-.27,3.06-.48l1-.11c.68-.08,1.36-.17,2-.23l1.23-.08,1.82-.12,1.31,0,1.5,0h.22c.6,0,1.2,0,1.8,0l1.33,0,1.85.14,1.25.1c.67.07,1.34.17,2,.26l1,.14c1,.16,2,.34,2.93.54h0c12.36,2.44,21,8,26.5,16,.42.61.83,1.24,1.21,1.88a39,39,0,0,1,2.1,4c2.95,6.74,4.31,14.7,4.2,23.5a102.42,102.42,0,0,1-2.87,21.88h59.19c.1-.83.19-1.65.28-2.48s.16-1.64.23-2.45c.14-1.63.25-3.24.33-4.84s.12-3.18.14-4.75c0-.78,0-1.56,0-2.34,0-1.55-.07-3.08-.15-4.6-.18-3-.49-6-.94-8.92-.34-2.19-.77-4.33-1.27-6.44a71.94,71.94,0,0,0-4.12-12.19q-1.31-2.92-2.89-5.74c-.7-1.25-1.45-2.48-2.25-3.7-.39-.6-.8-1.21-1.22-1.8a70.85,70.85,0,0,0-5.57-7q-2.31-2.52-4.8-4.83l-1.69-1.51q-2.57-2.23-5.31-4.24a89.73,89.73,0,0,0-20-11q-2.18-.85-4.38-1.62a110.5,110.5,0,0,0-16.1-4.18c-1.58-.29-3.17-.55-4.78-.78s-3.22-.42-4.84-.59-3.27-.3-4.91-.41h0c-1.28-.07-2.59-.11-3.92-.15h-.62c-1.27,0-2.57-.05-3.88-.05h-2.68l-1.16,0-1.77,0-1.13,0-2,.08-1,0-2.9.16h0c-5.38.34-10.91.9-16.46,1.72q-2.08.3-4.17.66c-4.17.71-8.34,1.56-12.45,2.57a136.1,136.1,0,0,0-23.62,8c-2.46,1.12-4.85,2.31-7.16,3.59s-4.44,2.5-6.6,3.88-4.27,2.86-6.33,4.41A110.32,110.32,0,0,0,1481,241.17q-2.76,2.76-5.32,5.72T1470.8,253q-3.13,4.16-5.86,8.57c-.45.74-.89,1.48-1.33,2.22a100,100,0,0,0-9.27,21,104.57,104.57,0,0,0-2.67,10.78q-.51,2.66-.85,5.27a81.77,81.77,0,0,0-.72,10.23c0,.83,0,1.66,0,2.48a66.43,66.43,0,0,0,.95,9.6,58.3,58.3,0,0,0,2.29,9,51.83,51.83,0,0,0,3.66,8.26c.73,1.32,1.51,2.59,2.35,3.84s1.74,2.44,2.69,3.61a50.7,50.7,0,0,0,8.27,8q3.4,2.65,7,5.19t7.42,5a227,227,0,0,0,19.84,11.27q4.11,2.07,8.29,4c2.78,1.27,5.59,2.49,8.4,3.64,4.21,1.73,8.44,3.33,12.66,4.77,6.32,2.25,12.64,4.6,18.79,7,3.51,1.37,7,2.75,10.32,4.13,4.19,1.72,8.24,3.45,12.08,5.15,1.54.69,3,1.36,4.5,2s2.89,1.34,4.27,2c2.07,1,4,2,5.92,2.93,1.24.64,2.44,1.28,3.58,1.9a83.81,83.81,0,0,1,9.85,6.11l1,.77a28.88,28.88,0,0,1,2.67,2.49,27.16,27.16,0,0,1,2.26,2.7c.23.31.46.62.67.94a28.4,28.4,0,0,1,2.69,5,29.85,29.85,0,0,1,1.65,5.38c.16.74.29,1.48.39,2.24a38.6,38.6,0,0,1-.74,13.87c-3.34,12.85-12.65,25.26-26,33-.95.58-1.93,1.14-2.91,1.68l-1,.52c-.66.36-1.32.71-2,1.05l-1.23.59-1.83.87-1.34.59c-.59.25-1.18.52-1.78.76s-.94.38-1.41.56-1.17.47-1.76.69l-1.46.52-1.76.62-1.5.48-1.75.55-1.53.43c-.58.17-1.17.33-1.75.48s-1,.27-1.56.39-1.17.29-1.76.42l-1.56.34c-.59.12-1.17.25-1.76.36l-1.57.29-1.77.29c-.52.09-1.05.16-1.57.24l-1.77.24-1.57.18-1.76.18-1.56.13-1.77.11-1.54.08-1.76.05-1.53,0h-.57q-1.11,0-2.22,0c-.79,0-1.58,0-2.36-.08-2.34-.12-4.65-.33-6.91-.64-2-.27-3.91-.62-5.8-1.05s-3.74-.95-5.55-1.55a51.23,51.23,0,0,1-7.75-3.29,44.51,44.51,0,0,1-7-4.56,41.39,41.39,0,0,1-6-5.9,44.36,44.36,0,0,1-5-7.33,55.9,55.9,0,0,1-6.66-20.52c-.34-2.49-.55-5-.65-7.63,0-.65,0-1.3-.05-2s0-1.31,0-2,0-1.32,0-2c.07-2.66.25-5.35.52-8.08q.3-3.06.78-6.17c.31-2.06.67-4.14,1.08-6.22s.86-4.17,1.36-6.26h-59.6a128,128,0,0,0-3.78,28.67c0,1.83,0,3.64.08,5.44s.2,3.57.37,5.32a85,85,0,0,0,2.21,12.76c.42,1.64.89,3.27,1.41,4.86a69.45,69.45,0,0,0,13.27,23.87c17.93,20.55,48.11,30.4,75.87,33,1.87.18,3.78.34,5.73.46l.46,0c.77,0,1.55.09,2.34.12l1,0c.61,0,1.21.06,1.83.07.4,0,.81,0,1.22,0l1.66,0h3.15c1.51,0,3,0,4.57-.06h.64c1.51,0,3-.1,4.58-.18l.86,0c1.53-.08,3.07-.18,4.61-.29l.77-.06c1.62-.13,3.23-.27,4.86-.43l.17,0c1.6-.16,3.21-.34,4.82-.54l.68-.09c1.58-.2,3.16-.42,4.73-.65l.9-.14c1.57-.24,3.14-.49,4.71-.77l.77-.14c1.63-.3,3.27-.6,4.9-.94l.13,0c1.61-.34,3.22-.69,4.82-1.06l.7-.16c1.55-.37,3.1-.75,4.64-1.15l.87-.23c1.54-.41,3.06-.84,4.58-1.28l.72-.22q2.37-.71,4.71-1.47l.07,0c1.54-.51,3.07-1.05,4.58-1.6l.67-.24c1.46-.54,2.9-1.1,4.32-1.67l.8-.33q2.13-.87,4.2-1.8l.64-.29c1.44-.66,2.87-1.34,4.27-2,26.83-13.7,46.94-40.24,53.38-69.36.38-1.71.73-3.43,1-5.14s.57-3.42.8-5.13q.5-3.84.71-7.65c.09-1.68.14-3.36.14-5A78,78,0,0,0,1669.71,400.92Z"/><path class="cls-3" d="M2304.17,320.62a50.9,50.9,0,0,0-1.42-6.21c-.31-1-.65-2.05-1-3.05-.19-.5-.38-1-.59-1.49-.41-1-.86-1.94-1.33-2.89s-1-1.88-1.54-2.79a45.48,45.48,0,0,0-5.82-7.69,48.77,48.77,0,0,0-3.57-3.46c-6.56-5.75-15.23-10.28-25.77-13.45-2.57-.77-5.29-1.45-8.13-2-1.42-.29-2.87-.56-4.35-.8s-3-.46-4.55-.66a160,160,0,0,0-20-1.17h-83.51l-9.23,52.32a116.27,116.27,0,0,1,6,16.71c4.56,16.51,5.22,34.24,2,52.7a144.05,144.05,0,0,1-11.19,35.55,167,167,0,0,1-19.08,31.47c-.75,1-1.52,1.94-2.3,2.9l-8.45,47.91h48.94l19-107.88h44.43l61.84,107.88h30.51l-64.88-113.19a116.61,116.61,0,0,0,14.21-5.06q2.26-1,4.49-2.06c1-.48,2-1,2.92-1.48s1.92-1,2.86-1.55c1.87-1.05,3.7-2.15,5.47-3.29a94.43,94.43,0,0,0,9.92-7.36q2.34-2,4.49-4.11a75,75,0,0,0,7.78-9c1.16-1.58,2.24-3.2,3.26-4.86a61.68,61.68,0,0,0,8.26-21.73,64.25,64.25,0,0,0,1-10.34c0-.57,0-1.12,0-1.68s0-1.11,0-1.66A55.11,55.11,0,0,0,2304.17,320.62Zm-51.5,12.89a49.42,49.42,0,0,1-.72,6.65,47.27,47.27,0,0,1-7.34,18.36,54.58,54.58,0,0,1-14,14.17q-2.1,1.47-4.38,2.77c-1.51.87-3.07,1.69-4.69,2.44-.8.38-1.62.75-2.45,1.1q-2.49,1-5.12,1.92c-.88.29-1.76.57-2.66.83a78.37,78.37,0,0,1-9.58,2.13c-1.1.17-2.2.32-3.31.45-.84.1-1.68.19-2.53.26s-1.71.14-2.56.19c-1.72.1-3.45.16-5.2.16h-16l15.06-85.45h29.6a50.09,50.09,0,0,1,9.05.78,37.22,37.22,0,0,1,7.92,2.31,34.7,34.7,0,0,1,3.41,1.65,29.22,29.22,0,0,1,8.27,6.64,28.59,28.59,0,0,1,5.23,9.05,34.19,34.19,0,0,1,2,11.47C2252.71,332.09,2252.7,332.8,2252.67,333.51Z"/><path class="cls-3" d="M2111.35,437.37q3.12-5.49,5.78-11.22a130.17,130.17,0,0,0,7.28-19.73c.38-1.35.73-2.7,1.07-4.06.66-2.71,1.24-5.45,1.72-8.2,2.88-16.35,2.32-32-1.67-46.38a95.56,95.56,0,0,0-20.27-38,99.9,99.9,0,0,0-35.74-25.55,114,114,0,0,0-34.7-8.69q-6.51-.62-13.34-.62c-2.93,0-5.84.09-8.76.26s-5.81.45-8.69.8-5.76.79-8.61,1.32-5.68,1.14-8.49,1.84-5.56,1.48-8.29,2.32a156.54,156.54,0,0,0-16,5.89c-2.6,1.12-5.17,2.31-7.69,3.56a156.27,156.27,0,0,0-28.5,18.29A149.58,149.58,0,0,0,1902.85,333a146.07,146.07,0,0,0-13.59,20.66q-2,3.63-3.72,7.35a124.73,124.73,0,0,0-7.23,19.35q-1.68,6-2.76,12.12a113.45,113.45,0,0,0-1.21,32.17,108.3,108.3,0,0,0,4.82,22.24q1.17,3.53,2.59,6.92a92,92,0,0,0,6.7,13.07q1.93,3.12,4.11,6.07c1.45,2,3,3.89,4.59,5.74.8.93,1.62,1.84,2.45,2.73a100.65,100.65,0,0,0,19.91,16.38,103.49,103.49,0,0,0,17,8.56,114,114,0,0,0,11.24,3.79q3.85,1.08,7.88,1.9a127.57,127.57,0,0,0,25.35,2.45q3.38,0,6.75-.16t6.72-.49c.89-.08,1.78-.18,2.67-.28q2.67-.3,5.33-.71,6.63-1,13.11-2.68a153.72,153.72,0,0,0,28.3-10.27c1.29-.61,2.56-1.25,3.83-1.9q3.79-2,7.48-4.1,5.52-3.24,10.79-6.9t10.2-7.75a151.67,151.67,0,0,0,18.21-17.8q2.78-3.19,5.34-6.54A152.74,152.74,0,0,0,2111.35,437.37Zm-34.54-65.92a176.63,176.63,0,0,1-2.47,21q-1,5.52-2.23,10.87-.63,2.67-1.32,5.29c-.93,3.49-1.95,6.92-3.05,10.26s-2.3,6.63-3.59,9.82c-.64,1.59-1.3,3.17-2,4.72s-1.38,3.07-2.1,4.56a134.3,134.3,0,0,1-7,12.78q-1.26,2-2.58,3.94a109.38,109.38,0,0,1-8.39,10.84q-2.19,2.5-4.52,4.8c-1.54,1.53-3.13,3-4.75,4.39a84.79,84.79,0,0,1-17.49,11.64c-.75.37-1.5.73-2.26,1.07a69.19,69.19,0,0,1-14.26,4.66q-1.23.27-2.49.48c-2.16.39-4.37.67-6.6.87s-4.5.29-6.79.29a65.23,65.23,0,0,1-21.86-3.41c-1.16-.41-2.28-.86-3.38-1.34a42.53,42.53,0,0,1-4.7-2.44,50.32,50.32,0,0,1-4.3-2.88c-.91-.69-1.8-1.41-2.66-2.15a49.71,49.71,0,0,1-3.69-3.57,50.53,50.53,0,0,1-3.33-4q-.52-.71-1-1.41c-.67-1-1.32-1.94-1.93-2.95s-1.2-2.05-1.75-3.12c-4.57-8.76-7.37-19.35-8.31-31.49q-.37-4.65-.4-9.54t.28-10a187.23,187.23,0,0,1,2.56-21.31c.32-1.83.67-3.64,1-5.44q1.11-5.39,2.47-10.55a165,165,0,0,1,8.39-24.34c.66-1.5,1.33-3,2-4.43q2.1-4.36,4.43-8.42a110.31,110.31,0,0,1,10.3-15c.93-1.14,1.89-2.25,2.86-3.33a85,85,0,0,1,26.59-20.09,76,76,0,0,1,33.07-7.12c1.15,0,2.28,0,3.4.07a70.08,70.08,0,0,1,9.57,1q1.15.21,2.28.45c1.49.33,2.94.72,4.35,1.15s2.79.92,4.12,1.46a46,46,0,0,1,5.68,2.77,51,51,0,0,1,5.64,3.8,49.23,49.23,0,0,1,9.42,9.7,53.15,53.15,0,0,1,3.75,5.86c.58,1.05,1.13,2.14,1.66,3.25a66.6,66.6,0,0,1,2.84,7,80.78,80.78,0,0,1,3,11.71c.5,2.76.9,5.62,1.18,8.58A129.63,129.63,0,0,1,2076.81,371.45Z"/><path class="cls-3" d="M1881.9,337.8c1.8-17.47-2.62-33.35-12.14-44.9-9.32-10.92-26-18-44.36-18h-113l-26,147.72-6.16,34.92-10,56.92h47.53l18.8-106.61h68.4c22.48,0,42.05-9,55.84-23.45.82-.84,1.62-1.71,2.4-2.6a77.75,77.75,0,0,0,18.46-41.07C1881.69,339.76,1881.8,338.78,1881.9,337.8Zm-56.35,27.36c-7.78,13.16-22.63,20.87-38,20.87H1740.3l15.8-89.6h45.28c15.73,0,28.07,8.35,32,20.56C1837.14,328.55,1834.14,351,1825.55,365.16Z"/></svg>