<svg id="圖層_1" data-name="圖層 1" xmlns="http://www.w3.org/2000/svg" xmlns:xlink="http://www.w3.org/1999/xlink" viewBox="0 0 2775 700"><defs><style>.cls-1{fill:none;}.cls-2{fill:url(#未命名漸層_43);}.cls-3{fill:#fff;}</style><linearGradient id="未命名漸層_43" x1="149.25" y1="548.85" x2="562.39" y2="135.71" gradientUnits="userSpaceOnUse"><stop offset="0" stop-color="#f7931e"/><stop offset="0.64" stop-color="#f04422"/><stop offset="1" stop-color="#ed1c24"/></linearGradient></defs><rect class="cls-1" width="2775" height="700"/><path class="cls-2" d="M139.43,319.58C197.3,222.47,265.71,204.1,265.71,204.1S160.48,275,147.33,387.82,226.28,559.24,342,532.16c162.79-38.1,236.78-174.51,236.78-174.51s-29.49,114.92-142.06,195C319.64,635.87,196,592.88,149.43,549c-45.66-43.05-67.87-132.27-10-229.38M534,343.07C401.44,470,222.59,473.89,222.59,473.89l103.8-280.7L454.64,313.45a334.68,334.68,0,0,0,33.75-28.28c42.92-40.92,83.79-120.42-17.23-149.21C356.44,103.25,239,160.49,239,160.49,278.23,124,363.58,100,438.31,100c32.58,0,63.15,4.57,87,14.66C576.14,136.18,670.58,212.26,534,343.07ZM400.85,346.7l-58.06-55.41L310.72,382C353.2,369.06,380.24,357.51,400.85,346.7Z"/><path class="cls-3" d="M784.93,206.46h-20L565.18,514.74h38.41l62.65-96.42H781.92l27.18,96.42h63.27Zm-12.06,180.4H686.32L746.56,294Zm224-142.58-16,90.82h101.78l-5.5,31.23H975.35L954.68,483.52H1107l-5.5,31.22H887.92l53.2-301.68h213.57l-5.51,31.22Z"/><path class="cls-3" d="M1485.88,507.1,1548.12,411l10.82-61.37H1442.65l-5.29,30h54.77L1476,471.06a110.78,110.78,0,0,1-26.41,12.53,109,109,0,0,1-33.46,5c-16.47,0-31.52-2.94-44.71-8.75a84.43,84.43,0,0,1-32.5-24.8c-8.57-10.78-14.64-24-18.06-39.25s-3.45-33.07,0-52.53a175.15,175.15,0,0,1,17.94-53,151.15,151.15,0,0,1,31-40.26,131.84,131.84,0,0,1,40.88-25.43,130.41,130.41,0,0,1,47.62-8.85c18,0,32.63,4.88,44.64,14.9s22,26.51,29.55,48.76l2.53,7.47,35-21.14-2.25-5.1a150.05,150.05,0,0,0-17.29-29.36,119.94,119.94,0,0,0-25.66-25.05,129.09,129.09,0,0,0-34.34-17.37c-12.9-4.35-27.53-6.57-43.48-6.57a192.79,192.79,0,0,0-70.27,12.91,210.51,210.51,0,0,0-59,34.66,201.43,201.43,0,0,0-43.38,50.61,176.71,176.71,0,0,0-23,60.6c-3.75,21.22-3,41.61,2.28,60.61a121.51,121.51,0,0,0,27.52,50.14c12.93,14.15,29.46,25.49,49.12,33.72s42,12.35,66.74,12.35c15.27,0,29.25-.62,41.55-1.86a284.32,284.32,0,0,0,34.47-5.51C1477.45,509.47,1481.68,508.3,1485.88,507.1Z"/><path class="cls-3" d="M1707.21,202.23,1507.19,511h39.54l62.75-96.58h115.73L1752.43,511H1815l-87.57-308.76Zm2.27,180.69h-86.57L1683.17,290Z"/><path class="cls-3" d="M2536.37,376.27h54.77L2575,467.64a110.4,110.4,0,0,1-26.41,12.53,109.23,109.23,0,0,1-33.46,4.95c-16.47,0-31.52-2.94-44.71-8.75a84.43,84.43,0,0,1-32.5-24.8c-8.58-10.78-14.65-24-18.06-39.26s-3.45-33.06,0-52.52a175.6,175.6,0,0,1,17.93-53,151.18,151.18,0,0,1,31-40.26,132,132,0,0,1,40.88-25.43,130.16,130.16,0,0,1,47.62-8.85c17.78,0,32.8,5,44.64,14.9,12.1,10.11,22,26.51,29.54,48.76l2.52,7.47,35.07-21.14-2.25-5.1a150.13,150.13,0,0,0-17.3-29.36,119.38,119.38,0,0,0-25.65-25,128.73,128.73,0,0,0-34.35-17.38c-12.89-4.35-27.52-6.57-43.47-6.57a192.49,192.49,0,0,0-70.26,12.91,210.76,210.76,0,0,0-59.05,34.66A205.17,205.17,0,0,0,2400.36,262l-33.27,188.71a120.41,120.41,0,0,0,13.14,17.66c12.92,14.15,29.45,25.49,49.12,33.71s42,12.36,66.74,12.36c15.28,0,29.26-.62,41.54-1.86a284.82,284.82,0,0,0,34.48-5.51,228.7,228.7,0,0,0,30.26-9.05c9.33-3.53,18.87-7.68,28.37-12.35l2.88-1.42,24.33-138H2541.66Z"/><polygon class="cls-3" points="2167.36 208.84 2124.9 208.84 2071.62 510.99 2114.08 510.99 2167.36 208.84"/><polygon class="cls-3" points="2355.11 208.84 2317.41 422.48 2246.73 208.84 2187.22 208.84 2133.94 510.99 2168.07 510.99 2207.35 288.2 2294.99 510.99 2319.22 510.99 2336.15 510.99 2389.71 208.84 2355.11 208.84"/><polygon class="cls-3" points="2044.77 208.96 2044.77 208.92 2040.94 215.89 1925.57 425.48 1867.27 208.96 1807.76 208.96 1785.66 334.27 1806.7 408.46 1827.89 288.31 1885.43 498.57 1887.2 505 1888.87 511.11 1906.81 511.11 1915.7 511.11 2024.35 313.58 1989.53 511.11 2051.29 511.11 2104.56 208.96 2044.77 208.96"/></svg>