<svg id="圖層_1" data-name="圖層 1" xmlns="http://www.w3.org/2000/svg" xmlns:xlink="http://www.w3.org/1999/xlink" viewBox="0 0 2775 700"><defs><style>.cls-1{fill:none;}.cls-2{fill:#fff;}.cls-3{fill:url(#未命名漸層_43);}</style><linearGradient id="未命名漸層_43" x1="149.25" y1="548.85" x2="562.39" y2="135.71" gradientUnits="userSpaceOnUse"><stop offset="0" stop-color="#f7931e"/><stop offset="0.64" stop-color="#f04422"/><stop offset="1" stop-color="#ed1c24"/></linearGradient></defs><rect class="cls-1" width="2775" height="700"/><path class="cls-2" d="M1695.28,298.94a126,126,0,0,0-26.65-50c-12.44-14.15-28.25-25.45-47-33.59s-40-12.24-63.16-12.24a187.42,187.42,0,0,0-45.42,5.56,208.77,208.77,0,0,0-42.1,15.47,205,205,0,0,0-37.46,24,196.41,196.41,0,0,0-31,31.26,191.6,191.6,0,0,0-22.76,36.83,163.66,163.66,0,0,0-13.14,41.37A148.89,148.89,0,0,0,1365,400a139.76,139.76,0,0,0,9.73,38.34A120.76,120.76,0,0,0,1395,471a131.26,131.26,0,0,0,29.41,25.12,141.56,141.56,0,0,0,37.1,16.23,161.71,161.71,0,0,0,43.69,5.73,183.88,183.88,0,0,0,45.47-5.69,202,202,0,0,0,42.24-16,208.62,208.62,0,0,0,37.42-24.65,198.48,198.48,0,0,0,31-32A200.61,200.61,0,0,0,1684.23,402a170.25,170.25,0,0,0,13.24-42.06C1701.26,338.43,1700.53,317.91,1695.28,298.94ZM1628,357.68a235.12,235.12,0,0,1-16,53.86,163.69,163.69,0,0,1-26.43,42.23,115.47,115.47,0,0,1-35.18,27.38,94.94,94.94,0,0,1-42.6,9.68c-15.64,0-28.89-3.18-39.36-9.44A65.3,65.3,0,0,1,1443.84,455c-6-11.52-9.69-25.45-10.93-41.41-1.28-16.28-.2-34.35,3.21-53.71a233.07,233.07,0,0,1,15.64-53A151.9,151.9,0,0,1,1477.55,266a111.71,111.71,0,0,1,35-26.4c13-6.22,27.63-9.37,43.48-9.37,15.18,0,28.19,3.07,38.65,9.13a65.42,65.42,0,0,1,24.72,25.45c6.12,11.1,10,24.61,11.45,40.16C1632.31,320.77,1631.35,338.52,1628,357.68Z"/><path class="cls-2" d="M2082.18,366.46h82l5.51-31.22h-82l16-90.81h82l5.5-31.22H2062.14l0-.07h-402.7a143.35,143.35,0,0,1,26.64,23.49c2.24,2.56,4.36,5.22,6.4,7.93h47.57l-19.84,112.5c-.29,2-.56,4.06-.92,6.11-.42,2.37-.9,4.72-1.41,7.08l-25.47,144.43H1754l47.63-270.12h88.76l-47.64,270.12h61.61L1952,244.56h90.41l-47.66,270.29H2138l.35-1.94,5.16-29.28h-82Z"/><path class="cls-2" d="M2358.21,363.24A126.52,126.52,0,0,0,2384.87,346a95.17,95.17,0,0,0,19.55-22.62A77.94,77.94,0,0,0,2414.81,296c2.09-11.84,1.62-23-1.42-33.2A56.94,56.94,0,0,0,2395.93,236c-8.26-7.24-19.17-12.94-32.43-16.93-13-3.9-28.66-5.88-46.58-5.88H2211.8l-53.17,301.54h61.6l23.95-135.8h55.92l77.84,135.8h38.41L2334.68,372.2A143,143,0,0,0,2358.21,363.24Zm-35.63-27a83,83,0,0,1-24.3,11.41,104.38,104.38,0,0,1-29.18,4H2249l19-107.55h37.26a54.76,54.76,0,0,1,21.35,3.89,38.75,38.75,0,0,1,14.71,10.43,37.44,37.44,0,0,1,7.92,15.87,51,51,0,0,1,.26,21,59.17,59.17,0,0,1-9.24,23.1A68.57,68.57,0,0,1,2322.58,336.2Z"/><path class="cls-2" d="M2638.74,213.14h-7.19L2507.27,357.88l-73.39-144.74h-40.56a88.58,88.58,0,0,1,13.26,9.53,75.42,75.42,0,0,1,23.06,35.64c3.87,13,4.52,27.05,1.92,41.78a96.32,96.32,0,0,1-6.53,21.72l34,67.23-22.15,125.64h61.6l22.64-128.41L2532,373.72h.12L2670,213.14Z"/><path class="cls-2" d="M1378.13,483.29l0,0h-86.72L1339,213.14h-61.61l-53.17,301.54h192.12c-1.54-.9-3.14-1.73-4.64-2.68A149.83,149.83,0,0,1,1378.13,483.29Z"/><path class="cls-3" d="M139.43,319.58C197.3,222.47,265.71,204.1,265.71,204.1S160.48,275,147.33,387.82,226.28,559.24,342,532.16c162.79-38.1,236.78-174.51,236.78-174.51s-29.49,114.92-142.06,195C319.64,635.87,196,592.88,149.43,549c-45.66-43.05-67.87-132.27-10-229.38M534,343.07C401.44,470,222.59,473.89,222.59,473.89l103.8-280.7L454.64,313.45a334.68,334.68,0,0,0,33.75-28.28c42.92-40.92,83.79-120.42-17.23-149.21C356.44,103.25,239,160.49,239,160.49,278.23,124,363.58,100,438.31,100c32.58,0,63.15,4.57,87,14.66C576.14,136.18,670.58,212.26,534,343.07ZM400.85,346.7l-58.06-55.41L310.72,382C353.2,369.06,380.24,357.51,400.85,346.7Z"/><path class="cls-2" d="M784.93,206.46h-20L565.18,514.74h38.41l62.65-96.42H781.92l27.18,96.42h63.27Zm-12.06,180.4H686.32L746.56,294Zm224-142.58-16,90.82h101.78l-5.5,31.23H975.35L954.68,483.52H1107l-5.5,31.22H887.92l53.2-301.68h213.57l-5.51,31.22Z"/></svg>