<svg id="圖層_1" data-name="圖層 1" xmlns="http://www.w3.org/2000/svg" xmlns:xlink="http://www.w3.org/1999/xlink" viewBox="0 0 2150 700"><defs><style>.cls-1{fill:none;}.cls-2{fill:#fff;}.cls-3{fill:url(#未命名漸層_43);}</style><linearGradient id="未命名漸層_43" x1="149.06" y1="548.85" x2="562.2" y2="135.71" gradientUnits="userSpaceOnUse"><stop offset="0" stop-color="#f7931e"/><stop offset="0.64" stop-color="#f04422"/><stop offset="1" stop-color="#ed1c24"/></linearGradient></defs><rect class="cls-1" width="2150" height="700"/><path class="cls-2" d="M1380.54,213.58c-23.72-1.19-55.76,2.78-78.79,15.49-22.16,11.92-40.35,33.77-47.67,57.61-8.21,27-3.7,51.65,14.85,65.95,16.88,13.11,38.2,24.23,59.06,31.38,26.81,9.54,53.67,21.06,64.31,29,10,7.55,12.46,19.47,9.81,31-3.1,11.92-11.74,23.44-24.13,30.59a92.84,92.84,0,0,1-48.81,12.71c-18.24-.39-34.38-6.75-43-22.64-8.71-15.1-8.27-35.76-3.35-56.41h-55.3c-7.11,29.39-3.68,56,12.59,75.08,16.63,19.07,44.64,28.21,70.39,30.59,27.94,2.78,65.72-2,93.43-15.89,24.9-12.71,43.56-37.34,49.53-64.36,5.71-25.42,2.15-51.25-16.27-66.34-16.75-13.91-42-26.22-65.32-34.17-21.24-7.15-39.79-14.7-54-23.84-10.77-7.15-13.41-18.27-10.45-29.39,2.59-11.13,10.86-22.65,21.45-30.2,13.47-9.13,31.18-12.31,46-9.13,14.11,2.78,23,9.93,27.65,20.26,4.88,11.12,5.06,25.82,1.23,42.11h54.93c3-24.63-1-45.69-16.19-62.37S1404.93,215.17,1380.54,213.58Z"/><polygon class="cls-2" points="1849.9 238.47 1842.42 238.47 1827.41 238.47 1824.85 238.47 1740.12 330.41 1728.62 342.96 1685.99 256.96 1685.61 256.18 1637.37 256.18 1637.35 256.32 1511.59 256.32 1499.76 256.32 1459.9 496.67 1471.19 496.67 1613.79 496.67 1633.4 475.81 1507.72 475.81 1523.1 383.07 1534.95 383.07 1629.03 383.07 1630.3 375.4 1632.44 362.53 1526.51 362.53 1540.61 277.5 1552.45 277.5 1642.15 277.5 1693.81 381.79 1622.65 459.66 1647.64 459.66 1702.3 399.76 1708.34 412.39 1756.67 514.68 1810.69 514.68 1737.66 361.25 1849.9 238.47"/><polygon class="cls-2" points="2017.1 213.06 1906.05 362.56 1863.66 241.06 1819.38 289.51 1857.58 393.55 1837.87 514.68 1892.05 514.68 1911.55 394.74 2045.49 213.06 2017.1 213.06"/><path class="cls-3" d="M139.24,319.58C197.11,222.47,265.52,204.1,265.52,204.1S160.29,275,147.14,387.82s79,171.42,194.66,144.34c162.8-38.1,236.79-174.51,236.79-174.51s-29.5,114.92-142.07,195C319.46,635.87,195.83,592.88,149.24,549c-45.66-43.05-67.87-132.27-10-229.38m394.57,23.49c-132.56,127-311.4,130.82-311.4,130.82L326.2,193.19,454.45,313.45a335.9,335.9,0,0,0,33.76-28.28C531.12,244.25,572,164.75,471,136c-114.72-32.71-232.18,24.53-232.18,24.53C278,124,363.4,100,438.13,100c32.58,0,63.14,4.57,87,14.66C576,136.18,670.39,212.26,533.81,343.07ZM400.66,346.7,342.6,291.29,310.54,382C353,369.06,380.05,357.51,400.66,346.7Z"/><path class="cls-2" d="M784.74,206.46h-20L565,514.74h38.4l62.65-96.42H781.73l27.19,96.42h63.26Zm-12.06,180.4H686.13L746.38,294Zm224-142.58-16,90.82h101.78l-5.5,31.23H975.16L954.49,483.52h152.32l-5.5,31.22H887.73l53.2-301.68H1154.5L1149,244.28Z"/></svg>