<svg id="圖層_1" data-name="圖層 1" xmlns="http://www.w3.org/2000/svg" xmlns:xlink="http://www.w3.org/1999/xlink" viewBox="0 0 2000 700"><defs><style>.cls-1{fill:none;}.cls-2{fill:url(#未命名漸層_43);}.cls-3{fill:#fff;}</style><linearGradient id="未命名漸層_43" x1="148.98" y1="548.84" x2="562.1" y2="135.72" gradientUnits="userSpaceOnUse"><stop offset="0" stop-color="#f7931e"/><stop offset="0.64" stop-color="#f04422"/><stop offset="1" stop-color="#ed1c24"/></linearGradient></defs><rect class="cls-1" width="2000" height="700"/><path class="cls-2" d="M139.18,319.58C197.05,222.47,265.45,204.1,265.45,204.1S160.23,275,147.08,387.82,226,559.24,341.72,532.16c162.77-38.1,236.75-174.51,236.75-174.51s-29.48,114.92-142,195C319.37,635.87,195.76,592.88,149.18,549c-45.66-43.05-67.86-132.27-10-229.38M533.7,343.07C401.16,470,222.33,473.89,222.33,473.89l103.78-280.7L454.35,313.45a335.9,335.9,0,0,0,33.76-28.28C531,244.25,571.88,164.75,470.87,136c-114.71-32.71-232.15,24.53-232.15,24.53C278,124,363.31,100,438,100c32.58,0,63.14,4.57,87,14.66C575.84,136.18,670.27,212.26,533.7,343.07ZM400.57,346.7l-58.06-55.41L310.46,382C352.93,369.06,380,357.51,400.57,346.7Z"/><path class="cls-3" d="M784.6,206.46h-20L564.89,514.74h38.4l62.64-96.42H781.6l27.18,96.42H872Zm-12.05,180.4H686L746.24,294Zm224-142.58-16,90.82h101.77l-5.5,31.23H975L954.34,483.52h152.3l-5.5,31.22H887.59l53.18-301.68h213.56l-5.52,31.22Z"/><polygon class="cls-3" points="1282.2 372.37 1248.48 372.37 1223.38 514.46 1329.71 514.46 1342.66 494.51 1260.63 494.51 1282.2 372.37"/><path class="cls-3" d="M1415.1,369.39l-94.17,145.07h24.83l28.35-43.55h48.49l12.3,43.55h34.34L1428,369.39Zm1.92,81.47h-29.86l20.79-32Z"/><path class="cls-3" d="M1602.75,431.57a33.1,33.1,0,0,0,6.35-9.49,48.39,48.39,0,0,0,3.18-10.84,29,29,0,0,0-1.52-16.28,30.5,30.5,0,0,0-9.74-12.5,45.48,45.48,0,0,0-15.79-7.55,75.21,75.21,0,0,0-20.25-2.54h-62.67l-25.1,142.09h73a71.15,71.15,0,0,0,21-3,61.93,61.93,0,0,0,17.35-8.28,49.22,49.22,0,0,0,12.67-12.67,41,41,0,0,0,6.61-16.08,36.38,36.38,0,0,0-.07-14.28,28.89,28.89,0,0,0-5.63-11.89,31.22,31.22,0,0,0-10.23-8.26l1.14-.69A49.14,49.14,0,0,0,1602.75,431.57Zm-80.56,19.17h23.37c6.35,0,11.57.66,15.51,2a20.12,20.12,0,0,1,8.28,4.7,12.29,12.29,0,0,1,3.32,6.32,25.47,25.47,0,0,1-.06,9.33,21.11,21.11,0,0,1-3.15,8,21.51,21.51,0,0,1-6.47,6.2,36,36,0,0,1-10.78,4.38,65.17,65.17,0,0,1-15.55,1.65h-22Zm47.71-25.39a25.85,25.85,0,0,1-7.84,4.22,31.63,31.63,0,0,1-10.23,1.55h-26.18l6.81-38.47h18.39a59.49,59.49,0,0,1,15.07,1.61,22.89,22.89,0,0,1,8.57,4,10.12,10.12,0,0,1,3.45,5.12,17.55,17.55,0,0,1,.18,7.83l0,.16a24.16,24.16,0,0,1-2.83,7.76A22.57,22.57,0,0,1,1569.9,425.35Z"/><polygon class="cls-3" points="1798.58 372.37 1764.86 372.37 1739.76 514.46 1842.29 514.46 1845.82 494.51 1777 494.51 1798.58 372.37"/><polygon class="cls-3" points="1745.16 392.25 1748.67 372.3 1646.03 372.3 1620.93 514.39 1723.58 514.39 1727.1 494.44 1658.17 494.44 1666.49 447.37 1712.55 447.37 1716.07 427.42 1670.01 427.42 1676.23 392.25 1745.16 392.25"/><polygon class="cls-3" points="1530.59 213.02 1520.07 272.54 1466.09 272.54 1476.61 213.02 1442.88 213.02 1417.78 355.1 1451.51 355.1 1462.57 292.49 1516.55 292.49 1505.49 355.1 1539.21 355.1 1564.31 213.02 1530.59 213.02"/><polygon class="cls-3" points="1555.37 355.1 1589.09 355.1 1614.19 213.02 1580.46 213.02 1555.37 355.1"/><polygon class="cls-3" points="1892.09 232.96 1895.61 213.02 1792.96 213.02 1767.86 355.1 1870.51 355.1 1874.03 335.15 1805.11 335.15 1813.43 288.08 1859.49 288.08 1863.01 268.13 1816.95 268.13 1823.17 232.96 1892.09 232.96"/><polygon class="cls-3" points="1776.92 213.02 1630.3 213.02 1626.78 232.97 1670.72 232.97 1649.15 355.1 1682.87 355.1 1704.45 232.97 1773.4 232.97 1776.92 213.02"/><polygon class="cls-3" points="1426.93 213.26 1376.86 302.93 1357.19 213.02 1307.06 302.45 1287.86 213.26 1253.92 213.26 1284.81 355.1 1301.7 355.1 1340.39 285.8 1355.62 355.1 1371.62 355.1 1415.63 276.41 1426.93 213.26"/></svg>